<svg id="Capa_1" data-name="Capa 1" xmlns="http://www.w3.org/2000/svg" viewBox="0 0 400 400"><defs><style>.cls-1{fill:#006dd9;}</style></defs><path class="cls-1" d="M216.34,114.19V256.74a15.84,15.84,0,0,1-31.68,0V114.19a15.84,15.84,0,1,1,31.68,0Zm-4.48,181.32a16.28,16.28,0,0,1,0,22.43,15.86,15.86,0,1,1-22.42-22.43,16.24,16.24,0,0,1,22.42,0Z"/><path class="cls-1" d="M357.38,377.35H43.62c-14.78,0-28.27-8.18-36-21.88A50.15,50.15,0,0,1,8,305.11l156.88-264h0C172.75,27.91,186.07,20,200.49,20s27.76,7.91,35.64,21.14L393,305.11a50.15,50.15,0,0,1,.42,50.36C385.65,369.17,372.16,377.35,357.38,377.35ZM182,51.37l-156.87,264a30.19,30.19,0,0,0-.23,30.26c4.25,7.47,11.06,11.77,18.68,11.77H357.38c7.62,0,14.43-4.3,18.68-11.77a30.19,30.19,0,0,0-.23-30.26L219,51.37c-8.57-14.45-28.31-14.49-36.92,0Z"/></svg>