<svg id="Capa_1" data-name="Capa 1" xmlns="http://www.w3.org/2000/svg" viewBox="0 0 400 400"><defs><style>.cls-1{fill:#006dd9;}</style></defs><path class="cls-1" d="M234.71,399.69H165.22l-9.55-37.77A166.36,166.36,0,0,1,117,345.87l-33.48,20L34.44,316.74l20-33.49a165.65,165.65,0,0,1-16-38.62L.61,235.08V165.59l37.77-9.53a165.69,165.69,0,0,1,16-38.65L34.44,84,83.56,34.81l33.48,20a165.9,165.9,0,0,1,38.63-16L165.22,1h69.49l9.53,37.77a165.44,165.44,0,0,1,38.64,16l33.47-20L365.48,84l-20,33.46a166.15,166.15,0,0,1,16,38.65l37.77,9.53v69.49l-37.77,9.55a166.11,166.11,0,0,1-16,38.62l20,33.49-49.13,49.11-33.47-20a165.9,165.9,0,0,1-38.64,16.05Zm-53.14-21h36.78L227,344.52l6.23-1.45a145.75,145.75,0,0,0,44.12-18.3l5.43-3.4,30.31,18.09,26-26L321,283.13l3.4-5.43a145.64,145.64,0,0,0,18.3-44.1l1.45-6.23,34.18-8.65V181.94l-34.18-8.63-1.45-6.23A145.7,145.7,0,0,0,324.38,123l-3.4-5.43,18.11-30.31-26-26L282.76,79.32l-5.43-3.4a145.5,145.5,0,0,0-44.12-18.3L227,56.16,218.35,22H181.57l-8.65,34.18-6.23,1.46a145.33,145.33,0,0,0-44.09,18.3l-5.43,3.4L86.84,61.2l-26,26,18.1,30.31L75.53,123a145.44,145.44,0,0,0-18.3,44.11l-1.46,6.23-34.18,8.63v36.78l34.18,8.65,1.46,6.23a145.39,145.39,0,0,0,18.3,44.1l3.4,5.43-18.1,30.33,26,26,30.33-18.09,5.43,3.4a145.59,145.59,0,0,0,44.09,18.3l6.23,1.45Z"/><path class="cls-1" d="M200,303.19a102.85,102.85,0,1,1,66.27-181.51l-10.12,12a87.12,87.12,0,1,0,31,66.62H302.8A103,103,0,0,1,200,303.19Z"/><path class="cls-1" d="M200,257.9a57.57,57.57,0,0,1-44-94.67L168,173.4a41.81,41.81,0,1,0,32-14.88V142.78a57.56,57.56,0,0,1,0,115.12Z"/></svg>