<svg id="Capa_1" data-name="Capa 1" xmlns="http://www.w3.org/2000/svg" viewBox="0 0 400 400"><defs><style>.cls-1{fill:#006dd9;}</style></defs><path class="cls-1" d="M331.91,124.64V182a6.37,6.37,0,0,1-12.74,0V124.64a6.37,6.37,0,1,1,12.74,0Zm-1.81,72.89a6.52,6.52,0,0,1,0,9,6.37,6.37,0,1,1-4.5-10.82A6.43,6.43,0,0,1,330.1,197.53Z"/><path class="cls-1" d="M323.94,239.43a76.33,76.33,0,0,1-29.8-6.06,8.83,8.83,0,0,1,6.93-16.24,56,56,0,0,0,26.8,4.5,58.42,58.42,0,0,0,34.46-102.3,58.46,58.46,0,0,0-94,26,8.83,8.83,0,0,1-16.8-5.45,76.09,76.09,0,1,1,77.57,99.33C327.37,239.38,325.67,239.43,323.94,239.43Z"/><path class="cls-1" d="M145.33,216.28v2.25a12,12,0,0,1,3.69.9,7.45,7.45,0,0,1,2.71,2.08,8.89,8.89,0,0,1,1.4,2.19,5.18,5.18,0,0,1,.51,2.06,2.52,2.52,0,0,1-.74,1.81,2.5,2.5,0,0,1-1.79.77,2.53,2.53,0,0,1-2.55-2.2,4.64,4.64,0,0,0-3.22-3.46l0,8.68c1.67.47,3,.9,4,1.28a8.44,8.44,0,0,1,2.67,1.68,7.93,7.93,0,0,1,1.93,2.74,8.71,8.71,0,0,1,.69,3.5,9.33,9.33,0,0,1-1.07,4.44,8.54,8.54,0,0,1-3.16,3.41,11.39,11.39,0,0,1-5,1.58l0,5.19a4.93,4.93,0,0,1-.24,1.8,1,1,0,0,1-1,.56,1.1,1.1,0,0,1-1-.47,2.56,2.56,0,0,1-.29-1.4l0-5.64a12,12,0,0,1-4.12-1.14,9.36,9.36,0,0,1-3-2.16A9,9,0,0,1,134,244a7.51,7.51,0,0,1-.58-2.76,2.6,2.6,0,0,1,.76-1.82,2.46,2.46,0,0,1,1.88-.81,2.63,2.63,0,0,1,1.53.44,2.27,2.27,0,0,1,.87,1.22,24.27,24.27,0,0,0,1,2.62,5,5,0,0,0,1.22,1.65,5.15,5.15,0,0,0,2.17,1.14l0-9.7a23.55,23.55,0,0,1-4.52-1.69,7.68,7.68,0,0,1-3-2.71,8.28,8.28,0,0,1-1.14-4.49,8.14,8.14,0,0,1,2.19-5.89,9.78,9.78,0,0,1,6.37-2.7v-2.21c0-1.17.4-1.75,1.26-1.75S145.32,215.14,145.33,216.28Zm-2.52,14.31,0-8a7,7,0,0,0-2.64,1.39,3.35,3.35,0,0,0-.94,2.59,3.19,3.19,0,0,0,.91,2.48A7.65,7.65,0,0,0,142.81,230.59Zm2.57,6.2,0,9.14a5.54,5.54,0,0,0,3.14-1.71,4.34,4.34,0,0,0,1.1-3,3.6,3.6,0,0,0-1.09-2.81A8.48,8.48,0,0,0,145.38,236.79Z"/><path class="cls-1" d="M221.14,287.25H62.77a6.68,6.68,0,0,1-6.64-5.9l-.6-5.45a16.57,16.57,0,0,0-16-12.71,6.62,6.62,0,0,1-6.63-6.62v-41a6.63,6.63,0,0,1,6.63-6.62,16,16,0,0,0,11.07-4.54,14.54,14.54,0,0,0,1.65-1.86,15.85,15.85,0,0,0,2-3.15,18.2,18.2,0,0,0,1.85-7.87,6.63,6.63,0,0,1,6.62-6.62H221.11a6.65,6.65,0,0,1,6.65,6.62,17.76,17.76,0,0,0,1.54,7.26,21.66,21.66,0,0,0,1.72,3,24,24,0,0,0,2.24,2.57s0,0,0,0a16.07,16.07,0,0,0,11.06,4.52,6.63,6.63,0,0,1,6.62,6.62v41a6.62,6.62,0,0,1-6.62,6.62c-7.71,0-14.35,5.52-16.13,13.44l-.48,4.72A6.63,6.63,0,0,1,221.14,287.25ZM68.62,274H215.26c2.86-12.08,11.61-20.78,22.45-23.29V221.39A29.68,29.68,0,0,1,224.18,214a29.19,29.19,0,0,1-3-3.35c-.12-.15-1-1.28-1.09-1.43a30.2,30.2,0,0,1-2.4-4.14,36.21,36.21,0,0,1-2.41-7H68.64a31.67,31.67,0,0,1-1.93,6,36,36,0,0,1-3.06,5.34,38.42,38.42,0,0,1-4,4.57,29.79,29.79,0,0,1-13.54,7.37v29.32a30.11,30.11,0,0,1,22.44,23Z"/><path class="cls-1" d="M143.52,269.61a33.56,33.56,0,0,1-.33-67.11h.33a33.61,33.61,0,0,1,33.56,33.22v0a33.55,33.55,0,0,1-33.23,33.87Zm0-58.28h-.24a24.73,24.73,0,0,0,.26,49.45h.24a24.74,24.74,0,0,0,24.47-25h0A24.77,24.77,0,0,0,143.52,211.33Z"/><path class="cls-1" d="M266.93,315.81H17a17,17,0,0,1-17-17V173.32a17,17,0,0,1,17-17H266.93a17,17,0,0,1,17,17V298.79A17,17,0,0,1,266.93,315.81Zm-.64-142.49L17,174l.64,124.83,248.63-.64Z"/></svg>