<?xml version="1.0" encoding="UTF-8" standalone="no"?>
<svg
   xmlns:dc="http://purl.org/dc/elements/1.1/"
   xmlns:cc="http://creativecommons.org/ns#"
   xmlns:rdf="http://www.w3.org/1999/02/22-rdf-syntax-ns#"
   xmlns:svg="http://www.w3.org/2000/svg"
   xmlns="http://www.w3.org/2000/svg"
   xmlns:sodipodi="http://sodipodi.sourceforge.net/DTD/sodipodi-0.dtd"
   xmlns:inkscape="http://www.inkscape.org/namespaces/inkscape"
   inkscape:version="1.0 (4035a4fb49, 2020-05-01)"
   sodipodi:docname="deploy.svg"
   xml:space="preserve"
   style="enable-background:new 0 0 30 30;"
   viewBox="0 0 30 30"
   y="0px"
   x="0px"
   id="Capa_1"
   version="1.1"><metadata
   id="metadata23"><rdf:RDF><cc:Work
       rdf:about=""><dc:format>image/svg+xml</dc:format><dc:type
         rdf:resource="http://purl.org/dc/dcmitype/StillImage" /><dc:title></dc:title></cc:Work></rdf:RDF></metadata><defs
   id="defs21" /><sodipodi:namedview
   inkscape:current-layer="Capa_1"
   inkscape:window-maximized="1"
   inkscape:window-y="-8"
   inkscape:window-x="-8"
   inkscape:cy="15"
   inkscape:cx="15"
   inkscape:zoom="28.333333"
   showgrid="false"
   id="namedview19"
   inkscape:window-height="1017"
   inkscape:window-width="1920"
   inkscape:pageshadow="2"
   inkscape:pageopacity="0"
   guidetolerance="10"
   gridtolerance="10"
   objecttolerance="10"
   borderopacity="1"
   bordercolor="#666666"
   pagecolor="#ffffff" />
<style
   id="style2"
   type="text/css">
	.st0{fill:#006dd9;}
</style>
<g
   style="fill:#ffffff"
   id="g16">
	<path
   style="fill:#ffffff"
   id="path4"
   d="M7.24,13.49c0-0.73,0.59-1.33,1.33-1.33c0.73,0,1.33,0.6,1.33,1.33c0,0.73-0.6,1.33-1.33,1.33   C7.83,14.82,7.24,14.22,7.24,13.49"
   class="st0" />
	<path
   style="fill:#ffffff"
   id="path6"
   d="M10.46,16.46c0-0.73,0.59-1.33,1.33-1.33c0.73,0,1.32,0.6,1.32,1.33c0,0.73-0.59,1.33-1.32,1.33   C11.05,17.79,10.46,17.2,10.46,16.46"
   class="st0" />
	<path
   style="fill:#ffffff"
   id="path8"
   d="M13.59,19.52c0-0.73,0.59-1.33,1.33-1.33c0.73,0,1.32,0.6,1.32,1.33c0,0.73-0.59,1.33-1.32,1.33   C14.18,20.84,13.59,20.25,13.59,19.52"
   class="st0" />
	<path
   style="fill:#ffffff"
   id="path10"
   d="M16.8,16.46c0-0.73,0.59-1.33,1.33-1.33c0.73,0,1.33,0.6,1.33,1.33c0,0.73-0.6,1.33-1.33,1.33   C17.4,17.79,16.8,17.2,16.8,16.46"
   class="st0" />
	<path
   style="fill:#ffffff"
   id="path12"
   d="M19.94,13.49c0-0.73,0.59-1.33,1.33-1.33c0.73,0,1.33,0.6,1.33,1.33c0,0.73-0.6,1.33-1.33,1.33   C20.53,14.82,19.94,14.22,19.94,13.49"
   class="st0" />
	<path
   style="fill:#ffffff"
   id="path14"
   d="M14.93,29.46c-7.98,0-14.47-6.49-14.47-14.47C0.46,7,6.95,0.51,14.93,0.51C22.91,0.51,29.4,7,29.4,14.98   C29.4,22.96,22.91,29.46,14.93,29.46z M14.93,1.53c-7.42,0-13.45,6.03-13.45,13.45c0,7.42,6.03,13.45,13.45,13.45   s13.45-6.04,13.45-13.45C28.38,7.57,22.35,1.53,14.93,1.53z"
   class="st0" />
</g>
</svg>
