<svg id="Capa_1" data-name="Capa 1" xmlns="http://www.w3.org/2000/svg" viewBox="0 0 400 400"><defs><style>.cls-1{fill:#006dd9;}</style></defs><path class="cls-1" d="M79.31,399a10.76,10.76,0,0,1-5.61-1.56,10.87,10.87,0,0,1-5.3-10l5.25-85.73A11.05,11.05,0,0,1,75,297L239,5.36A10.94,10.94,0,0,1,245.59.17a11.06,11.06,0,0,1,8.35,1.06l71.37,41a10.92,10.92,0,0,1,4.06,14.9l-166,290.43a11.12,11.12,0,0,1-3.76,3.89L85.05,397.38A10.9,10.9,0,0,1,79.31,399Zm16-93.47L91.5,367.7l54.23-33.41L305,55.74,252.61,25.68Zm58.53,36.59h0Z"/><path class="cls-1" d="M293.25,110.23a10.94,10.94,0,0,1-5.45-1.45L218.5,69a10.93,10.93,0,1,1,10.88-19l69.31,39.78a10.93,10.93,0,0,1-5.44,20.41Z"/><path class="cls-1" d="M161.62,339.52a10.85,10.85,0,0,1-5.45-1.46L86.89,298.27a10.93,10.93,0,1,1,10.89-19l69.28,39.8a10.93,10.93,0,0,1-5.44,20.41Z"/></svg>