<?xml version="1.0" encoding="utf-8"?>
<!-- Generator: Adobe Illustrator 24.3.0, SVG Export Plug-In . SVG Version: 6.00 Build 0)  -->
<svg version="1.1" id="Capa_1" xmlns="http://www.w3.org/2000/svg" xmlns:xlink="http://www.w3.org/1999/xlink" x="0px" y="0px"
	 viewBox="0 0 30 30" style="enable-background:new 0 0 30 30;" xml:space="preserve">
<style type="text/css">
	.st0{fill:#006dd9;}
</style>
<g>
	<g>
		<path class="st0" d="M21.3,11.4c-1.8,0-3.2-1.4-3.2-3.2S19.6,5,21.3,5c1.8,0,3.2,1.4,3.2,3.2S23.1,11.4,21.3,11.4z M21.3,5.7
			c-1.4,0-2.5,1.1-2.5,2.5c0,1.4,1.1,2.5,2.5,2.5s2.5-1.1,2.5-2.5C23.8,6.8,22.7,5.7,21.3,5.7z"/>
		<path class="st0" d="M21.3,24.9c-1.8,0-3.2-1.4-3.2-3.2c0-1.8,1.4-3.2,3.2-3.2c1.8,0,3.2,1.4,3.2,3.2
			C24.5,23.5,23.1,24.9,21.3,24.9z M21.3,19.2c-1.4,0-2.5,1.1-2.5,2.5c0,1.4,1.1,2.5,2.5,2.5s2.5-1.1,2.5-2.5
			C23.8,20.3,22.7,19.2,21.3,19.2z"/>
		<path class="st0" d="M18.7,20.8c-0.1,0-0.1,0-0.2,0l-8-4.6c-0.2-0.1-0.2-0.3-0.1-0.5c0.1-0.2,0.3-0.2,0.5-0.1l8,4.6
			c0.2,0.1,0.2,0.3,0.1,0.5C19,20.7,18.9,20.8,18.7,20.8z"/>
		<path class="st0" d="M10.7,14.6c-0.1,0-0.2-0.1-0.3-0.2c-0.1-0.2,0-0.4,0.1-0.5l8-4.6c0.2-0.1,0.4,0,0.5,0.1
			c0.1,0.2,0,0.4-0.1,0.5l-8,4.6C10.8,14.6,10.8,14.6,10.7,14.6z"/>
	</g>
	<path class="st0" d="M7.9,18.1c-1.8,0-3.2-1.4-3.2-3.2s1.4-3.2,3.2-3.2s3.2,1.4,3.2,3.2S9.7,18.1,7.9,18.1z M7.9,12.5
		c-1.4,0-2.5,1.1-2.5,2.5c0,1.4,1.1,2.5,2.5,2.5c1.4,0,2.5-1.1,2.5-2.5C10.4,13.6,9.3,12.5,7.9,12.5z"/>
</g>
</svg>
