<?xml version="1.0" encoding="utf-8"?>
<!-- Generator: Adobe Illustrator 24.3.0, SVG Export Plug-In . SVG Version: 6.00 Build 0)  -->
<svg version="1.1" id="Capa_1" xmlns="http://www.w3.org/2000/svg" xmlns:xlink="http://www.w3.org/1999/xlink" x="0px" y="0px"
	 viewBox="0 0 30 30" style="enable-background:new 0 0 30 30;" xml:space="preserve">
<style type="text/css">
	.st0{fill:#104A8E;}
	.st1{font-family:'Arciform';}
	.st2{font-size:4.236px;}
</style>
<g>
	<path class="st0" d="M13.9,22.2H6.7c-0.2,0-0.3-0.2-0.3-0.3V5.2c0-0.2,0.2-0.3,0.3-0.3H20c0.2,0,0.3,0.2,0.3,0.3v11.4
		c0,0.2-0.2,0.3-0.3,0.3c-0.2,0-0.3-0.2-0.3-0.3V5.6H7v16h6.8c0.2,0,0.3,0.2,0.3,0.3C14.2,22,14,22.2,13.9,22.2z"/>
	<path class="st0" d="M15.7,7.7h-4.9c-0.2,0-0.3-0.2-0.3-0.3c0-0.2,0.2-0.3,0.3-0.3h4.9C15.9,7,16,7.2,16,7.4
		C16,7.6,15.9,7.7,15.7,7.7z"/>
	<path class="st0" d="M14.5,10.7H8.8c-0.2,0-0.3-0.2-0.3-0.3S8.6,10,8.8,10h5.6c0.2,0,0.3,0.2,0.3,0.3S14.6,10.7,14.5,10.7z"/>
	<path class="st0" d="M17.6,10.7H16c-0.2,0-0.3-0.2-0.3-0.3S15.8,10,16,10h1.6c0.2,0,0.3,0.2,0.3,0.3S17.8,10.7,17.6,10.7z"/>
	<path class="st0" d="M17.6,13.6H8.9c-0.2,0-0.3-0.2-0.3-0.3S8.7,13,8.9,13h8.7c0.2,0,0.3,0.2,0.3,0.3S17.8,13.6,17.6,13.6z"/>
	<path class="st0" d="M16,18.2h-2.3c-0.2,0-0.3-0.2-0.3-0.3c0-0.2,0.2-0.3,0.3-0.3H16c0.2,0,0.3,0.2,0.3,0.3
		C16.4,18,16.2,18.2,16,18.2z"/>
	<text transform="matrix(1 0 0 1 10.008 18.945)" class="st0 st1 st2">$</text>
</g>
<g>
	<path class="st0" d="M19.6,26.7c-2.5,0-4.6-2.1-4.6-4.6s2.1-4.6,4.6-4.6s4.6,2.1,4.6,4.6S22.1,26.7,19.6,26.7z M19.6,18.2
		c-2.2,0-3.9,1.8-3.9,3.9s1.8,3.9,3.9,3.9s3.9-1.8,3.9-3.9S21.7,18.2,19.6,18.2z"/>
	<path class="st0" d="M19.1,23.9c-0.1,0-0.2,0-0.2-0.1l-1.4-1.4c-0.1-0.1-0.1-0.3,0-0.5c0.1-0.1,0.3-0.1,0.5,0l1.2,1.2l2.1-2.6
		c0.1-0.1,0.3-0.2,0.5,0c0.1,0.1,0.2,0.3,0,0.5l-2.4,2.8C19.3,23.8,19.2,23.9,19.1,23.9C19.1,23.9,19.1,23.9,19.1,23.9z"/>
</g>
</svg>
