<?xml version="1.0" encoding="utf-8"?>
<!-- Generator: Adobe Illustrator 24.3.0, SVG Export Plug-In . SVG Version: 6.00 Build 0)  -->
<svg version="1.1" id="Capa_1" xmlns="http://www.w3.org/2000/svg" xmlns:xlink="http://www.w3.org/1999/xlink" x="0px" y="0px"
	 viewBox="0 0 30 30" style="enable-background:new 0 0 30 30;" xml:space="preserve">
<style type="text/css">
	.st0{fill:#006dd9;}
</style>
<g>
	<path class="st0" d="M14.5,19.7c-0.1,0-0.2,0-0.2-0.1L9.4,14c-0.1-0.1-0.1-0.3,0-0.4c0.1-0.1,0.3-0.1,0.4,0l4.6,5.3
		c0.8-1.9,4.2-9.5,9.9-14.7c0.1-0.1,0.3-0.1,0.4,0c0.1,0.1,0.1,0.3,0,0.4c-6.5,5.8-9.9,14.8-9.9,14.9C14.7,19.6,14.7,19.7,14.5,19.7
		C14.5,19.7,14.5,19.7,14.5,19.7z"/>
	<path class="st0" d="M14.8,25.3c-5.3,0-9.7-4.3-9.7-9.7c0-5.3,4.3-9.7,9.7-9.7c1.4,0,2.8,0.3,4.1,0.9C19,6.9,19.1,7.1,19,7.2
		c-0.1,0.1-0.2,0.2-0.4,0.1c-1.2-0.6-2.5-0.9-3.9-0.9c-5,0-9.1,4.1-9.1,9.1c0,5,4.1,9.1,9.1,9.1c5,0,9.1-4.1,9.1-9.1
		c0-1.9-0.6-3.7-1.7-5.3c-0.1-0.1-0.1-0.3,0.1-0.4c0.1-0.1,0.3-0.1,0.4,0.1c1.2,1.6,1.8,3.6,1.8,5.6C24.5,21,20.1,25.3,14.8,25.3z"
		/>
</g>
</svg>
