<?xml version="1.0" encoding="utf-8"?>
<!-- Generator: Adobe Illustrator 24.3.0, SVG Export Plug-In . SVG Version: 6.00 Build 0)  -->
<svg version="1.1" id="Capa_1" xmlns="http://www.w3.org/2000/svg" xmlns:xlink="http://www.w3.org/1999/xlink" x="0px" y="0px"
	 viewBox="0 0 30 30" style="enable-background:new 0 0 30 30;" xml:space="preserve">
<style type="text/css">
	.st0{fill:#006dd9;}
</style>
<path class="st0" d="M10,8h9.8c0.2,0,0.5,0.2,0.6,0.4c0.1,0.2,0.1,0.5-0.1,0.7l-4.7,5.4c-0.2,0.2-0.5,0.4-0.8,0.4l0,0
	c-0.3,0-0.5-0.2-0.8-0.4l0,0L9.4,9c-0.1-0.2-0.2-0.5,0-0.7C9.5,8.1,9.7,8,10,8z M14.9,14.1L14.9,14.1c0.1,0,0.2-0.1,0.2-0.2l4.7-5.4
	H10l4.7,5.4l0,0C14.7,14.1,14.8,14.1,14.9,14.1z"/>
<path class="st0" d="M14.9,15.6L14.9,15.6c0.3,0,0.5,0.2,0.8,0.4l4.7,5.4c0.2,0.2,0.2,0.5,0.1,0.7c-0.1,0.2-0.3,0.4-0.6,0.4H10
	c-0.2,0-0.5-0.2-0.6-0.4c-0.1-0.2-0.1-0.5,0.1-0.7l4.7-5.4l0,0C14.4,15.8,14.6,15.6,14.9,15.6z M14.4,16.2L14.4,16.2L14.4,16.2z
	 M10,21.8h9.8l-4.7-5.4c-0.1-0.1-0.2-0.1-0.2-0.1l0,0c-0.1,0-0.2,0-0.2,0.1L10,21.8z"/>
<path class="st0" d="M14.9,26c-6,0-11-4.9-11-11s4.9-10.9,11-10.9S25.9,8.9,25.9,15S21,26,14.9,26z M14.9,4.7
	C9.2,4.7,4.6,9.3,4.6,15s4.6,10.3,10.3,10.3S25.3,20.6,25.3,15S20.6,4.7,14.9,4.7z"/>
</svg>
