<?xml version="1.0" encoding="utf-8"?>
<!-- Generator: Adobe Illustrator 24.3.0, SVG Export Plug-In . SVG Version: 6.00 Build 0)  -->
<svg version="1.1" id="Capa_1" xmlns="http://www.w3.org/2000/svg" xmlns:xlink="http://www.w3.org/1999/xlink" x="0px" y="0px"
	 viewBox="0 0 30 30" style="enable-background:new 0 0 30 30;" xml:space="preserve">
<style type="text/css">
	.st0{fill:#006dd9;}
</style>
<g>
	<path class="st0" d="M22.7,23.9H7.8c-1.2,0-2.2-1-2.2-2.2V8.2c0-1.2,1-2.2,2.2-2.2h14.9c1.2,0,2.2,1,2.2,2.2v13.5
		C25,22.9,24,23.9,22.7,23.9z M7.8,6.6C7,6.6,6.3,7.3,6.3,8.2v13.5c0,0.8,0.7,1.5,1.5,1.5h14.9c0.8,0,1.5-0.7,1.5-1.5V8.2
		c0-0.8-0.7-1.5-1.5-1.5H7.8z"/>
	<g>
		<g>
			<path class="st0" d="M8.6,9.5c0-0.7,0.6-1.3,1.3-1.3c0.5,0,0.9,0.2,1.1,0.6c0.1,0.1,0,0.2-0.1,0.3c-0.1,0-0.2,0-0.2-0.1
				c-0.2-0.3-0.5-0.4-0.8-0.4C9.4,8.7,9,9.1,9,9.5c0,0.5,0.4,0.9,0.9,0.9c0.3,0,0.6-0.2,0.7-0.4c0-0.1,0.2-0.1,0.2,0
				c0.1,0,0.1,0.2,0.1,0.2c-0.2,0.4-0.6,0.6-1,0.6C9.2,10.8,8.6,10.2,8.6,9.5z"/>
			<path class="st0" d="M12.3,9.7l0.5,0.8c0.1,0.1,0,0.2-0.1,0.2c0,0-0.1,0-0.1,0c-0.1,0-0.1,0-0.2-0.1l-0.6-1h-0.4v0.9
				c0,0.1-0.1,0.2-0.2,0.2c-0.1,0-0.2-0.1-0.2-0.2V8.5c0-0.1,0.1-0.2,0.2-0.2c0,0,0,0,0,0h0.8c0.4,0,0.7,0.3,0.7,0.7
				C12.8,9.3,12.6,9.6,12.3,9.7z M12.5,9c0-0.2-0.2-0.4-0.4-0.4h-0.6v0.7h0.6C12.3,9.4,12.5,9.2,12.5,9z"/>
			<path class="st0" d="M14.6,10.6c0,0.1-0.1,0.2-0.2,0.2h-1.2c0,0,0,0,0,0c0,0,0,0,0,0c-0.1,0-0.2-0.1-0.2-0.2V8.5
				c0-0.1,0.1-0.2,0.2-0.2c0,0,0,0,0,0c0,0,0,0,0,0h1.2c0.1,0,0.2,0.1,0.2,0.2c0,0.1-0.1,0.2-0.2,0.2h-1.1v0.7h0.8
				c0.1,0,0.2,0.1,0.2,0.2c0,0.1-0.1,0.2-0.2,0.2h-0.8v0.7h1.1C14.5,10.4,14.6,10.5,14.6,10.6z"/>
			<path class="st0" d="M15,10.8c-0.1,0-0.2-0.1-0.2-0.2V8.5c0-0.1,0.1-0.2,0.2-0.2h0.5c0.2,0,0.4,0,0.5,0.1
				c0.2,0.1,0.3,0.2,0.4,0.3c0.1,0.1,0.2,0.3,0.3,0.4c0.1,0.2,0.1,0.4,0,0.5c0,0.3-0.2,0.6-0.4,0.8c-0.2,0.2-0.5,0.3-0.8,0.3H15z
				 M15.5,10.4c0.5,0,0.8-0.3,0.9-0.8c0-0.3,0-0.5-0.2-0.7c-0.2-0.2-0.4-0.3-0.7-0.3h-0.3v1.8H15.5z"/>
			<path class="st0" d="M17,10.6V8.5c0-0.1,0.1-0.2,0.2-0.2c0.1,0,0.2,0.1,0.2,0.2v2.2c0,0.1-0.1,0.2-0.2,0.2
				C17.1,10.8,17,10.7,17,10.6z"/>
			<path class="st0" d="M17.8,8.3h1.4c0.1,0,0.2,0.1,0.2,0.2c0,0.1-0.1,0.2-0.2,0.2h-0.5v2c0,0.1-0.1,0.2-0.2,0.2
				c-0.1,0-0.2-0.1-0.2-0.2v-2h-0.5c-0.1,0-0.2-0.1-0.2-0.2C17.6,8.4,17.7,8.3,17.8,8.3z"/>
			<path class="st0" d="M19.5,9.5c0-0.7,0.5-1.2,1.2-1.2c0.7,0,1.2,0.6,1.2,1.2c0,0.7-0.5,1.3-1.2,1.3C20,10.8,19.5,10.2,19.5,9.5z
				 M19.8,9.5c0,0.5,0.4,0.9,0.9,0.9c0.5,0,0.9-0.4,0.9-0.9c0-0.5-0.4-0.9-0.9-0.9C20.2,8.6,19.8,9,19.8,9.5z"/>
		</g>
	</g>
	<g>
		<g>
			<path class="st0" d="M12.3,12.8c0.6,0,0.6,0,0.6,0c0.2,0,0.4,0.3,0.4,0.5v6.2c0,0.3-0.2,0.5-0.5,0.5c-0.3,0-0.5-0.2-0.5-0.5v-5.7
				c-0.3,0-0.5-0.2-0.5-0.5C11.8,13,12,12.8,12.3,12.8z"/>
			<path class="st0" d="M18.9,17.4c0,1.4-1.2,2.6-2.6,2.6c-1,0-1.9-0.6-2.3-1.5c-0.1-0.3,0-0.6,0.2-0.7c0.3-0.1,0.6,0,0.7,0.2
				c0.3,0.5,0.8,0.9,1.4,0.9c0.9,0,1.6-0.7,1.6-1.6s-0.7-1.6-1.6-1.6c-0.3,0-0.6,0.1-0.8,0.2c-0.1,0.1-0.2,0.1-0.4,0.1
				c-0.3,0-0.5-0.2-0.5-0.5c0-0.1,0-0.2,0-2.5c0,0,0,0,0,0c0-0.3,0.2-0.5,0.5-0.5h3.2c0.3,0,0.5,0.2,0.5,0.5s-0.2,0.5-0.5,0.5h-2.7
				v1.1C17.2,14.5,18.9,15.7,18.9,17.4z"/>
		</g>
	</g>
</g>
</svg>
