<?xml version="1.0" encoding="utf-8"?>
<!-- Generator: Adobe Illustrator 24.3.0, SVG Export Plug-In . SVG Version: 6.00 Build 0)  -->
<svg version="1.1" id="Capa_1" xmlns="http://www.w3.org/2000/svg" xmlns:xlink="http://www.w3.org/1999/xlink" x="0px" y="0px"
	 viewBox="0 0 30 30" style="enable-background:new 0 0 30 30;" xml:space="preserve">
<style type="text/css">
	.st0{fill:#006dd9;}
</style>
<g>
	<g>
		<path class="st0" d="M25,20.3h-9.1c-0.2,0-0.3-0.1-0.3-0.3s0.1-0.3,0.3-0.3H25c0.3,0,0.6-0.3,0.6-0.6v-6.2c-1.9,0.5-3.9,0.8-6,0.9
			v0.4c0,0.6-0.5,1.1-1.1,1.1h-2.4c-0.6,0-1.1-0.5-1.1-1.1v-0.4c-2.1-0.1-4.1-0.5-6-0.9V14c0,0.2-0.1,0.3-0.3,0.3S8.5,14.2,8.5,14
			v-1.5c0-0.1,0-0.2,0.1-0.2c0.1-0.1,0.2-0.1,0.2,0c2,0.6,4.2,0.9,6.5,1c0.1,0,0.3,0.1,0.3,0.3v0.7c0,0.3,0.2,0.5,0.5,0.5h2.4
			c0.3,0,0.5-0.2,0.5-0.5v-0.7c0-0.1,0.1-0.3,0.3-0.3c2.3-0.1,4.5-0.5,6.5-1c0.1,0,0.2,0,0.2,0c0.1,0.1,0.1,0.1,0.1,0.2v6.5
			C26.2,19.7,25.7,20.3,25,20.3z"/>
		<path class="st0" d="M19.3,13.9c-0.1,0-0.3-0.1-0.3-0.3c0-0.2,0.1-0.3,0.3-0.3c2.2-0.1,4.4-0.5,6.3-1V7.5c0-0.3-0.2-0.5-0.5-0.5
			H9.5C9.2,7,9,7.2,9,7.4v4.9c2,0.5,4.1,0.9,6.3,1c0.2,0,0.3,0.1,0.3,0.3c0,0.2-0.1,0.3-0.3,0.3c-2.3-0.1-4.6-0.5-6.6-1.1
			c-0.1,0-0.2-0.1-0.2-0.3V7.4c0-0.6,0.5-1,1-1h15.6c0.6,0,1.1,0.5,1.1,1.1v5.1c0,0.1-0.1,0.2-0.2,0.3
			C23.9,13.4,21.7,13.7,19.3,13.9C19.3,13.9,19.3,13.9,19.3,13.9z"/>
		<path class="st0" d="M19.3,13.9c-0.2,0-0.3-0.1-0.3-0.3V13c0-0.3-0.2-0.5-0.5-0.5h-2.4c-0.3,0-0.5,0.2-0.5,0.5v0.6
			c0,0.2-0.1,0.3-0.3,0.3S15,13.7,15,13.6V13c0-0.6,0.5-1.1,1.1-1.1h2.4c0.6,0,1.1,0.5,1.1,1.1v0.6C19.6,13.7,19.5,13.9,19.3,13.9z"
			/>
		<path class="st0" d="M22.1,6.9h-9.6c-0.1,0-0.2,0-0.2-0.1c-0.1-0.1-0.1-0.2,0-0.3c0.6-1.5,1.5-2.2,2.8-2.2h4.2
			c1.4,0,2.5,0.8,3.1,2.2c0,0.1,0,0.2,0,0.3C22.3,6.9,22.2,6.9,22.1,6.9z M13,6.4h8.7c-0.5-0.9-1.4-1.5-2.4-1.5h-4.2
			C14.2,4.9,13.4,5.4,13,6.4z"/>
	</g>
	<g>
		<g>
			<path class="st0" d="M9.8,20c-0.7,0-1.3-0.4-1.7-1c-0.2-0.3-0.3-0.7-0.3-1c0-1.1,0.9-2,2-2s2,0.9,2,2c0,0.4-0.1,0.7-0.3,1
				C11.1,19.7,10.5,20,9.8,20z M9.8,16.6c-0.8,0-1.4,0.6-1.4,1.4c0,0.3,0.1,0.5,0.2,0.7c0.3,0.4,0.7,0.7,1.2,0.7s1-0.3,1.2-0.7
				c0.1-0.2,0.2-0.5,0.2-0.7C11.2,17.3,10.6,16.6,9.8,16.6z"/>
			<path class="st0" d="M12.5,23.7H7c-0.1,0-0.2,0-0.2-0.1c-0.1-0.1-0.1-0.1-0.1-0.2c0.2-1.9,1.5-3.3,3-3.3c1.5,0,2.8,1.4,3,3.3
				c0,0.1,0,0.2-0.1,0.2S12.6,23.7,12.5,23.7z M7.4,23.2h4.8c-0.3-1.5-1.3-2.5-2.4-2.5S7.7,21.7,7.4,23.2z"/>
		</g>
		<path class="st0" d="M9.8,25.9c-3.3,0-6-2.7-6-6s2.7-6,6-6c3.3,0,6,2.7,6,6S13.1,25.9,9.8,25.9z M9.8,14.5c-3,0-5.4,2.4-5.4,5.4
			c0,3,2.4,5.4,5.4,5.4c3,0,5.4-2.4,5.4-5.4C15.2,16.9,12.8,14.5,9.8,14.5z"/>
	</g>
</g>
</svg>
