<?xml version="1.0" encoding="utf-8"?>
<!-- Generator: Adobe Illustrator 24.3.0, SVG Export Plug-In . SVG Version: 6.00 Build 0)  -->
<svg version="1.1" id="Capa_1" xmlns="http://www.w3.org/2000/svg" xmlns:xlink="http://www.w3.org/1999/xlink" x="0px" y="0px"
	 viewBox="0 0 30 30" style="enable-background:new 0 0 30 30;" xml:space="preserve">
<style type="text/css">
	.st0{fill:#006dd9;}
</style>
<g>
	<path class="st0" d="M14.9,23.4c-4.7,0-8.4-3.8-8.4-8.5c0-4.7,3.8-8.5,8.4-8.5c4.7,0,8.4,3.8,8.4,8.5
		C23.4,19.6,19.6,23.4,14.9,23.4z M14.9,6.9c-4.4,0-7.9,3.6-7.9,8s3.5,8,7.9,8s7.9-3.6,7.9-8S19.3,6.9,14.9,6.9z"/>
	<path class="st0" d="M19.4,15.1C19.4,15.1,19.4,15.1,19.4,15.1l-8.5,0c-0.1,0-0.3-0.1-0.3-0.3c0-0.1,0.1-0.3,0.3-0.3c0,0,0,0,0,0
		l8.5,0c0.1,0,0.3,0.1,0.3,0.3C19.6,15,19.5,15.1,19.4,15.1z"/>
</g>
</svg>
