<?xml version="1.0" encoding="utf-8"?>
<!-- Generator: Adobe Illustrator 24.3.0, SVG Export Plug-In . SVG Version: 6.00 Build 0)  -->
<svg version="1.1" id="Capa_1" xmlns="http://www.w3.org/2000/svg" xmlns:xlink="http://www.w3.org/1999/xlink" x="0px" y="0px"
	 viewBox="0 0 30 30" style="enable-background:new 0 0 30 30;" xml:space="preserve">
<style type="text/css">
	.st0{fill:#006dd9;}
</style>
<g>
	<g>
		<g>
			<path class="st0" d="M15.9,11.3l0,8l2.3-2.3c0.4-0.4,1.2-0.4,1.6,0c0.2,0.2,0.3,0.5,0.3,0.8c0,0.3-0.1,0.6-0.3,0.8l-4.3,4.3
				c0,0-0.1,0.1-0.1,0.1L15.4,23c0,0-0.1,0.1-0.1,0.1c0,0-0.1,0-0.1,0l-0.1,0c-0.1,0-0.1,0-0.1,0c0,0-0.1,0-0.1,0c0,0-0.1,0-0.1,0
				c-0.1,0-0.1,0-0.2,0c0,0-0.1,0-0.1,0c0,0-0.1,0-0.1,0c0,0,0,0-0.1,0c0,0-0.1,0-0.1,0l-0.1,0l-0.1,0l-0.1-0.1
				C14,22.9,14,22.8,14,22.8l-4.2-4.2c-0.2-0.2-0.3-0.5-0.3-0.8s0.1-0.6,0.3-0.8c0.5-0.4,1.2-0.4,1.6,0l2.3,2.3v-7.9h0.5v8.5
				c0,0.1-0.1,0.2-0.2,0.2c-0.1,0-0.2,0-0.3-0.1L11,17.3c-0.3-0.3-0.7-0.3-0.9,0c-0.1,0.1-0.2,0.3-0.2,0.5s0.1,0.3,0.2,0.5l4.3,4.3
				l0.1,0l0.1,0l0.1,0c0,0,0.1,0,0.1,0l0.1,0c0.1,0,0.1,0,0.2,0l0.1,0l0.1,0l0.1,0l0.1,0l0.1,0l0,0l4.3-4.3c0.1-0.1,0.2-0.3,0.2-0.5
				c0-0.2-0.1-0.3-0.2-0.5c-0.2-0.2-0.7-0.3-0.9,0L15.8,20c-0.1,0.1-0.2,0.1-0.3,0.1c-0.1,0-0.2-0.1-0.2-0.2l0-8.6L15.9,11.3z"/>
		</g>
	</g>
	<path class="st0" d="M5.5,9.1h18.3c0.1,0,0.3,0.1,0.3,0.3v3.9c0,0.1-0.1,0.3-0.3,0.3h-4.6V13h4.4V9.6H5.7V13H10v0.5H5.5
		c-0.1,0-0.3-0.1-0.3-0.3V9.4C5.2,9.2,5.3,9.1,5.5,9.1z"/>
</g>
</svg>
