<?xml version="1.0" encoding="utf-8"?>
<!-- Generator: Adobe Illustrator 24.3.0, SVG Export Plug-In . SVG Version: 6.00 Build 0)  -->
<svg version="1.1" id="Capa_1" xmlns="http://www.w3.org/2000/svg" xmlns:xlink="http://www.w3.org/1999/xlink" x="0px" y="0px"
	 viewBox="0 0 30 30" style="enable-background:new 0 0 30 30;" xml:space="preserve">
<style type="text/css">
	.st0{fill:#006dd9;}
</style>
<g>
	<g>
		<path class="st0" d="M15.4,15.2H5.1c-0.2,0-0.3-0.1-0.3-0.3V7.7c0-1.8,1.5-3.3,3.3-3.3h7.2c0.2,0,0.3,0.1,0.3,0.3v10.2
			C15.6,15,15.5,15.2,15.4,15.2z M5.4,14.6h9.7V4.9H8.2c-1.5,0-2.7,1.2-2.7,2.7V14.6z"/>
		<path class="st0" d="M25.6,15.2H15.4c-0.2,0-0.3-0.1-0.3-0.3V4.6c0-0.2,0.1-0.3,0.3-0.3h7.2c1.8,0,3.3,1.5,3.3,3.3v7.2
			C25.9,15,25.8,15.2,25.6,15.2z M15.6,14.6h9.7V7.7c0-1.5-1.2-2.7-2.7-2.7h-6.9V14.6z"/>
		<path class="st0" d="M15.4,25.4H8.2c-1.8,0-3.3-1.5-3.3-3.3v-7.2c0-0.2,0.1-0.3,0.3-0.3h10.2c0.2,0,0.3,0.1,0.3,0.3v10.2
			C15.6,25.3,15.5,25.4,15.4,25.4z M5.4,15.2v6.9c0,1.5,1.2,2.7,2.7,2.7h6.9v-9.7H5.4z"/>
		<path class="st0" d="M22.6,25.4h-7.2c-0.2,0-0.3-0.1-0.3-0.3V14.9c0-0.2,0.1-0.3,0.3-0.3h10.2c0.2,0,0.3,0.1,0.3,0.3v7.2
			C25.9,23.9,24.4,25.4,22.6,25.4z M15.6,24.8h6.9c1.5,0,2.7-1.2,2.7-2.7v-6.9h-9.7V24.8z"/>
	</g>
	<g>
		<path class="st0" d="M10.4,11.8V9C9.9,9.4,9.6,9.6,9.4,9.6c-0.1,0-0.2,0-0.2-0.1C9.1,9.4,9.1,9.3,9.1,9.2c0-0.1,0-0.2,0.1-0.2
			c0.1,0,0.2-0.1,0.4-0.2c0.2-0.1,0.4-0.2,0.6-0.4c0.1-0.1,0.3-0.3,0.4-0.4c0.1-0.2,0.2-0.3,0.2-0.3c0,0,0.1-0.1,0.2-0.1
			c0.1,0,0.2,0,0.3,0.1c0.1,0.1,0.1,0.2,0.1,0.3v3.5c0,0.4-0.1,0.6-0.4,0.6c-0.1,0-0.2,0-0.3-0.1C10.5,12.1,10.4,12,10.4,11.8z"/>
	</g>
	<g>
		<path class="st0" d="M19.8,11.5h1.6c0.2,0,0.3,0,0.4,0.1c0.1,0.1,0.1,0.2,0.1,0.3c0,0.1,0,0.2-0.1,0.3c-0.1,0.1-0.2,0.1-0.3,0.1
			h-2.3c-0.2,0-0.3,0-0.4-0.1c-0.1-0.1-0.1-0.2-0.1-0.3c0-0.1,0-0.2,0.1-0.3c0.1-0.1,0.1-0.2,0.2-0.3c0.3-0.3,0.5-0.5,0.7-0.7
			c0.2-0.2,0.4-0.3,0.5-0.4c0.2-0.1,0.3-0.2,0.4-0.4c0.1-0.1,0.2-0.2,0.3-0.4S21,9.1,21,9c0-0.1,0-0.3-0.1-0.4
			c-0.1-0.1-0.1-0.2-0.3-0.2c-0.1-0.1-0.2-0.1-0.4-0.1c-0.3,0-0.5,0.1-0.6,0.4c0,0-0.1,0.1-0.1,0.3c0,0.1-0.1,0.2-0.2,0.3
			c-0.1,0.1-0.2,0.1-0.3,0.1c-0.1,0-0.2,0-0.3-0.1c-0.1-0.1-0.1-0.2-0.1-0.3c0-0.1,0-0.3,0.1-0.4c0.1-0.2,0.2-0.3,0.3-0.4
			c0.1-0.1,0.3-0.2,0.5-0.3c0.2-0.1,0.4-0.1,0.7-0.1c0.3,0,0.6,0,0.8,0.1c0.1,0.1,0.3,0.2,0.4,0.3c0.1,0.1,0.2,0.2,0.3,0.4
			c0.1,0.2,0.1,0.3,0.1,0.5c0,0.3-0.1,0.5-0.2,0.7c-0.1,0.2-0.3,0.4-0.4,0.5c-0.1,0.1-0.4,0.3-0.7,0.6c-0.3,0.3-0.5,0.5-0.6,0.6
			C19.9,11.3,19.8,11.4,19.8,11.5z"/>
	</g>
	<g>
		<path class="st0" d="M10.4,19.2c0.2,0,0.4-0.1,0.5-0.2c0.1-0.1,0.2-0.3,0.2-0.5c0-0.2-0.1-0.3-0.2-0.4C10.8,18,10.7,18,10.5,18
			c-0.1,0-0.2,0-0.3,0.1c-0.1,0-0.1,0.1-0.2,0.1c0,0.1-0.1,0.1-0.1,0.2c0,0.1-0.1,0.2-0.1,0.3c0,0-0.1,0.1-0.1,0.1
			c-0.1,0-0.1,0-0.2,0c-0.1,0-0.2,0-0.2-0.1c-0.1-0.1-0.1-0.2-0.1-0.3c0-0.1,0-0.2,0.1-0.3c0.1-0.1,0.2-0.2,0.3-0.3
			c0.1-0.1,0.3-0.2,0.5-0.3c0.2-0.1,0.4-0.1,0.6-0.1c0.2,0,0.4,0,0.5,0.1c0.2,0.1,0.3,0.1,0.4,0.2c0.1,0.1,0.2,0.2,0.3,0.4
			c0.1,0.1,0.1,0.3,0.1,0.4c0,0.2,0,0.4-0.1,0.5s-0.2,0.3-0.4,0.4c0.2,0.1,0.3,0.2,0.4,0.3c0.1,0.1,0.2,0.2,0.2,0.4
			c0.1,0.1,0.1,0.3,0.1,0.4c0,0.2,0,0.4-0.1,0.5c-0.1,0.2-0.2,0.3-0.3,0.5c-0.1,0.1-0.3,0.2-0.5,0.3C11,22,10.7,22,10.5,22
			c-0.2,0-0.5,0-0.7-0.1c-0.2-0.1-0.4-0.2-0.5-0.3c-0.1-0.1-0.2-0.3-0.3-0.4S9,20.9,9,20.8c0-0.1,0-0.2,0.1-0.3
			c0.1-0.1,0.2-0.1,0.3-0.1c0.1,0,0.1,0,0.2,0.1c0.1,0,0.1,0.1,0.1,0.1c0.1,0.3,0.2,0.5,0.3,0.6c0.1,0.1,0.3,0.2,0.5,0.2
			c0.1,0,0.3,0,0.4-0.1c0.1-0.1,0.2-0.2,0.3-0.3c0.1-0.1,0.1-0.3,0.1-0.4c0-0.2-0.1-0.4-0.2-0.6c-0.1-0.1-0.3-0.2-0.5-0.2
			c0,0-0.1,0-0.2,0c-0.1,0-0.1,0-0.2,0c-0.1,0-0.2,0-0.3-0.1c-0.1-0.1-0.1-0.1-0.1-0.2c0-0.1,0-0.2,0.1-0.2c0.1-0.1,0.2-0.1,0.3-0.1
			H10.4z"/>
	</g>
	<g>
		<path class="st0" d="M20.6,21.5V21H19c-0.2,0-0.3,0-0.4-0.1c-0.1-0.1-0.1-0.2-0.1-0.4c0,0,0-0.1,0-0.1c0,0,0-0.1,0.1-0.1
			c0,0,0.1-0.1,0.1-0.1c0,0,0.1-0.1,0.1-0.2l1.6-2.2c0.1-0.1,0.2-0.2,0.3-0.3c0.1-0.1,0.2-0.1,0.2-0.1c0.3,0,0.5,0.2,0.5,0.5v2.4
			h0.1c0.2,0,0.3,0,0.4,0.1c0.1,0,0.1,0.1,0.1,0.3c0,0.1,0,0.2-0.1,0.3c-0.1,0.1-0.2,0.1-0.4,0.1h-0.2v0.6c0,0.2,0,0.3-0.1,0.4
			C21.2,22,21.1,22,21,22c-0.1,0-0.2,0-0.3-0.1C20.6,21.8,20.6,21.7,20.6,21.5z M19.2,20.3h1.3v-1.8L19.2,20.3z"/>
	</g>
</g>
</svg>
