<?xml version="1.0" encoding="utf-8"?>
<!-- Generator: Adobe Illustrator 24.3.0, SVG Export Plug-In . SVG Version: 6.00 Build 0)  -->
<svg version="1.1" id="Capa_1" xmlns="http://www.w3.org/2000/svg" xmlns:xlink="http://www.w3.org/1999/xlink" x="0px" y="0px"
	 viewBox="0 0 30 30" style="enable-background:new 0 0 30 30;" xml:space="preserve">
<style type="text/css">
	.st0{fill:#006dd9;}
</style>
<g>
	<path class="st0" d="M15.2,26c-6,0-10.9-4.8-10.9-10.9S9.1,4.3,15.2,4.3S26,9.1,26,15.1S21.2,26,15.2,26z M15.2,4.9
		C9.5,4.9,4.9,9.5,4.9,15.1s4.5,10.2,10.2,10.2s10.2-4.6,10.2-10.2S20.8,4.9,15.2,4.9z"/>
	<g>
		<g>
			<path class="st0" d="M16.3,16.2c-0.3,0.3-0.5,0.8-0.5,1.3c-0.1,0.4-0.4,0.6-0.8,0.6c-0.4,0-0.7-0.2-0.8-0.6
				c0-0.9,0.3-1.7,0.8-2.3l1.4-1.4c0.3-0.3,0.4-0.7,0.4-1.1c0-0.9-0.7-1.7-1.7-1.7c-0.9,0-1.7,0.8-1.7,1.9c-0.1,0.3-0.4,0.6-0.8,0.6
				c-0.4,0-0.8-0.4-0.8-0.8c0-1.8,1.5-3.3,3.3-3.3s3.3,1.5,3.3,3.3c0,0.8-0.3,1.5-0.8,2.2L16.3,16.2z M15.6,20.7
				c0.2-0.1,0.2-0.4,0.2-0.6c0-0.2-0.1-0.4-0.2-0.6c-0.1-0.1-0.4-0.2-0.6-0.2c-0.2,0-0.4,0.1-0.6,0.2c-0.1,0.2-0.2,0.4-0.2,0.6
				c0,0.2,0.1,0.4,0.2,0.6c0.2,0.2,0.4,0.2,0.6,0.2C15.2,20.9,15.4,20.8,15.6,20.7z"/>
		</g>
	</g>
</g>
</svg>
