<?xml version="1.0" encoding="utf-8"?>
<!-- Generator: Adobe Illustrator 24.3.0, SVG Export Plug-In . SVG Version: 6.00 Build 0)  -->
<svg version="1.1" id="Capa_1" xmlns="http://www.w3.org/2000/svg" xmlns:xlink="http://www.w3.org/1999/xlink" x="0px" y="0px"
	 viewBox="0 0 30 30" style="enable-background:new 0 0 30 30;" xml:space="preserve">
<style type="text/css">
	.st0{fill:#006dd9;}
	.st1{fill:none;}
</style>
<g>
	<path class="st0" d="M15,26h-0.5c-3.4,0-6.2-2.8-6.2-6.2v-8.7c0-3.4,2.8-6.2,6.2-6.2H15c3.4,0,6.2,2.8,6.2,6.2v8.7
		C21.2,23.2,18.4,26,15,26z M14.5,5.5C11.5,5.5,9,8,9,11.1v8.7c0,3.1,2.5,5.6,5.6,5.6H15c3.1,0,5.6-2.5,5.6-5.6v-8.7
		c0-3.1-2.5-5.6-5.6-5.6H14.5z"/>
	<path class="st1" d="M16.5,14.9c0-0.1,0.1-0.2,0.1-0.3c0-0.8-0.7-1.5-1.5-1.5c-0.8,0-1.5,0.7-1.5,1.5c0,0.1,0,0.2,0.1,0.3"/>
	<path class="st0" d="M16.5,15.2c-0.1,0-0.1,0-0.2-0.1c-0.1-0.1-0.1-0.2-0.1-0.3l0-0.1c0-0.1,0-0.1,0-0.1c0-0.7-0.5-1.2-1.2-1.2
		c-0.7,0-1.2,0.5-1.2,1.2c0,0,0,0.1,0,0.1l0,0.1c0,0.1,0,0.2-0.1,0.3c-0.1,0.1-0.2,0.1-0.3,0c-1.5-0.6-2.5-2.1-2.5-3.8
		c0-2.3,1.8-4.1,4.1-4.1s4.1,1.8,4.1,4.1c0,1.7-1,3.2-2.5,3.8C16.6,15.2,16.5,15.2,16.5,15.2z M15,7.9c-1.9,0-3.5,1.6-3.5,3.5
		c0,1.2,0.6,2.4,1.7,3c0.1-0.9,0.9-1.6,1.8-1.6c0.9,0,1.7,0.7,1.8,1.6c1-0.6,1.7-1.8,1.7-3C18.5,9.5,17,7.9,15,7.9z"/>
	<path class="st0" d="M15,16.4c-0.8,0-1.6-0.6-1.8-1.4c0-0.2,0.1-0.3,0.2-0.4c0.2,0,0.3,0.1,0.4,0.2c0.1,0.6,0.6,1,1.2,1
		c0.6,0,1-0.4,1.2-1c0-0.2,0.2-0.3,0.4-0.2c0.2,0,0.3,0.2,0.2,0.4C16.6,15.8,15.9,16.4,15,16.4z"/>
	<circle class="st0" cx="14" cy="11.2" r="0.4"/>
	<circle class="st0" cx="15.8" cy="11.2" r="0.4"/>
	<path class="st0" d="M8.9,21.3C8.9,21.3,8.9,21.3,8.9,21.3c-0.2,0-0.3-0.2-0.3-0.3c0.1-1.1,0.6-2.2,1.5-3.3
		c1.2-1.6,3.2-2.5,3.3-2.5c0.2-0.1,0.3,0,0.4,0.2c0.1,0.2,0,0.3-0.2,0.4c0,0-2,0.9-3.1,2.3c-1.3,1.6-1.4,2.7-1.4,3
		C9.2,21.2,9,21.3,8.9,21.3z"/>
	<path class="st0" d="M18.6,13c-0.1,0-0.1,0-0.2,0c-0.1-0.1-0.2-0.3-0.1-0.4c0.9-1.4,1.6-3.7,1.6-3.8c0-0.2,0.2-0.2,0.4-0.2
		c0.2,0,0.3,0.2,0.2,0.4c0,0.1-0.8,2.5-1.7,3.9C18.8,12.9,18.7,13,18.6,13z"/>
</g>
</svg>
