<?xml version="1.0" encoding="utf-8"?>
<!-- Generator: Adobe Illustrator 24.3.0, SVG Export Plug-In . SVG Version: 6.00 Build 0)  -->
<svg version="1.1" id="Capa_1" xmlns="http://www.w3.org/2000/svg" xmlns:xlink="http://www.w3.org/1999/xlink" x="0px" y="0px"
	 viewBox="0 0 30 30" style="enable-background:new 0 0 30 30;" xml:space="preserve">
<style type="text/css">
	.st0{fill:#414141;}
</style>
<g>
	<path class="st0" d="M20.7,22h-2.4c-0.1,0-0.2-0.1-0.2-0.2s0.1-0.2,0.2-0.2h2.4c0.5,0,0.9-0.4,0.9-0.9V9.4L17.2,5H9.5
		C9,5,8.6,5.4,8.6,5.9v14.7c0,0.5,0.4,0.9,0.9,0.9h2.9c0.1,0,0.2,0.1,0.2,0.2S12.6,22,12.4,22H9.5c-0.8,0-1.4-0.6-1.4-1.4V5.9
		c0-0.8,0.6-1.4,1.4-1.4h7.9c0.1,0,0.1,0,0.2,0.1L22,9.1c0,0,0.1,0.1,0.1,0.2v11.3C22.1,21.4,21.5,22,20.7,22z"/>
	<path class="st0" d="M21.9,10.2h-4c-0.7,0-1.4-0.6-1.4-1.4v-4c0-0.1,0.1-0.2,0.2-0.2c0.1,0,0.5,0,0.5,0c0.1,0,0.1,0,0.2,0.1L22,9.1
		c0,0,0.1,0.1,0.1,0.2v0.6C22.1,10,22,10.2,21.9,10.2z M17.1,5v3.8c0,0.5,0.4,0.9,0.9,0.9h3.7V9.4L17.3,5C17.2,5,17.1,5,17.1,5z"/>
	<g>
		<g>
			<path class="st0" d="M13.9,13.9c0.1,0.1,0.1,0.3,0,0.4c0,0-0.1,0.1-0.2,0.1c-0.1,0-0.2,0-0.2-0.1l-1-1.3l-1.1,1.3
				c-0.1,0.1-0.1,0.1-0.2,0.1c-0.1,0-0.1,0-0.2-0.1c-0.1-0.1-0.1-0.2,0-0.4l1.1-1.4L11,11.1c-0.1-0.1-0.1-0.3,0-0.4
				c0.1-0.1,0.3-0.1,0.4,0l1,1.3l1-1.3c0.1-0.1,0.2-0.1,0.4,0c0.1,0.1,0.1,0.3,0,0.4l-1.1,1.4L13.9,13.9z"/>
			<path class="st0" d="M16.6,14.1c0,0.1-0.1,0.3-0.3,0.3h-1.8c0,0,0,0,0,0h0c-0.1,0-0.3-0.1-0.3-0.3V11c0-0.1,0.1-0.3,0.3-0.3
				c0.1,0,0.3,0.1,0.3,0.3v2.9h1.6C16.5,13.8,16.6,13.9,16.6,14.1z"/>
			<path class="st0" d="M18.8,13.3c0,0.6-0.5,1-1,1s-1-0.5-1-1c0-0.1,0.1-0.3,0.3-0.3c0.1,0,0.3,0.1,0.3,0.3c0,0.3,0.2,0.5,0.5,0.5
				s0.5-0.2,0.5-0.5c0-0.3-0.2-0.5-0.5-0.5c-0.6,0-1-0.5-1-1c0-0.6,0.5-1,1-1s1,0.5,1,1c0,0.1-0.1,0.3-0.3,0.3
				c-0.1,0-0.3-0.1-0.3-0.3c0-0.3-0.2-0.5-0.5-0.5s-0.5,0.2-0.5,0.5s0.2,0.5,0.5,0.5C18.3,12.3,18.8,12.7,18.8,13.3z"/>
		</g>
	</g>
	<path class="st0" d="M13.1,16.2h-2.3c-0.1,0-0.1-0.1-0.1-0.1v-0.8c0-0.1,0.1-0.1,0.1-0.1h2.3c0.1,0,0.1,0.1,0.1,0.1v0.8
		C13.3,16.1,13.2,16.2,13.1,16.2z M11,16H13v-0.6H11V16z"/>
	<path class="st0" d="M16.1,16.2h-2.3c-0.1,0-0.1-0.1-0.1-0.1v-0.8c0-0.1,0.1-0.1,0.1-0.1h2.3c0.1,0,0.1,0.1,0.1,0.1v0.8
		C16.2,16.1,16.1,16.2,16.1,16.2z M13.9,16H16v-0.6h-2.1V16z"/>
	<path class="st0" d="M19,16.2h-2.3c-0.1,0-0.1-0.1-0.1-0.1v-0.8c0-0.1,0.1-0.1,0.1-0.1H19c0.1,0,0.1,0.1,0.1,0.1v0.8
		C19.1,16.1,19,16.2,19,16.2z M16.8,16h2.1v-0.6h-2.1V16z"/>
	<path class="st0" d="M13.1,17.5h-2.3c-0.1,0-0.1-0.1-0.1-0.1v-0.8c0-0.1,0.1-0.1,0.1-0.1h2.3c0.1,0,0.1,0.1,0.1,0.1v0.8
		C13.3,17.4,13.2,17.5,13.1,17.5z M11,17.2H13v-0.6H11V17.2z"/>
	<path class="st0" d="M16.1,17.5h-2.3c-0.1,0-0.1-0.1-0.1-0.1v-0.8c0-0.1,0.1-0.1,0.1-0.1h2.3c0.1,0,0.1,0.1,0.1,0.1v0.8
		C16.2,17.4,16.1,17.5,16.1,17.5z M13.9,17.2H16v-0.6h-2.1V17.2z"/>
	<path class="st0" d="M19,17.5h-2.3c-0.1,0-0.1-0.1-0.1-0.1v-0.8c0-0.1,0.1-0.1,0.1-0.1H19c0.1,0,0.1,0.1,0.1,0.1v0.8
		C19.1,17.4,19,17.5,19,17.5z M16.8,17.2h2.1v-0.6h-2.1V17.2z"/>
	<path class="st0" d="M13.1,18.8h-2.3c-0.1,0-0.1-0.1-0.1-0.1v-0.8c0-0.1,0.1-0.1,0.1-0.1h2.3c0.1,0,0.1,0.1,0.1,0.1v0.8
		C13.3,18.8,13.2,18.8,13.1,18.8z M11,18.6H13V18H11V18.6z"/>
	<path class="st0" d="M16.1,18.8h-2.3c-0.1,0-0.1-0.1-0.1-0.1v-0.8c0-0.1,0.1-0.1,0.1-0.1h2.3c0.1,0,0.1,0.1,0.1,0.1v0.8
		C16.2,18.8,16.1,18.8,16.1,18.8z M13.9,18.6H16V18h-2.1V18.6z"/>
	<path class="st0" d="M19,18.8h-2.3c-0.1,0-0.1-0.1-0.1-0.1v-0.8c0-0.1,0.1-0.1,0.1-0.1H19c0.1,0,0.1,0.1,0.1,0.1v0.8
		C19.1,18.8,19,18.8,19,18.8z M16.8,18.6h2.1V18h-2.1V18.6z"/>
	<path class="st0" d="M15.3,27.7c-0.1,0-0.1,0-0.2-0.1l-3.4-3.8c-0.1-0.1-0.1-0.2,0-0.3s0.1-0.1,0.2-0.1l1.5,0l0-3.3
		c0-0.1,0.1-0.3,0.2-0.3c0,0,0,0,0,0c0.1,0,0.2,0.1,0.2,0.2l0,3.6c0,0.1,0,0.1-0.1,0.2c0,0-0.1,0.1-0.2,0.1l-1.2,0l2.8,3.2l2.8-3.2
		l-1.2,0c-0.1,0-0.1,0-0.2-0.1c0,0-0.1-0.1-0.1-0.2l0-3.6c0-0.1,0.1-0.2,0.2-0.3h0c0.1,0,0.2,0.1,0.2,0.2l0,3.3l1.5,0
		c0.1,0,0.2,0.1,0.2,0.1c0,0.1,0,0.2,0,0.3l-3.3,3.8C15.5,27.6,15.4,27.7,15.3,27.7C15.3,27.7,15.3,27.7,15.3,27.7z"/>
</g>
</svg>
