<?xml version="1.0" encoding="utf-8"?>
<!-- Generator: Adobe Illustrator 24.3.0, SVG Export Plug-In . SVG Version: 6.00 Build 0)  -->
<svg version="1.1" id="Capa_1" xmlns="http://www.w3.org/2000/svg" xmlns:xlink="http://www.w3.org/1999/xlink" x="0px" y="0px"
	 viewBox="0 0 30 30" style="enable-background:new 0 0 30 30;" xml:space="preserve">
<style type="text/css">
	.st0{fill:#006dd9;}
</style>
<g>
	<path class="st0" d="M19.4,19.4H6.6c-0.7,0-1.3-0.6-1.3-1.3v-5.2c0-0.7,0.6-1.3,1.3-1.3h12.7c0.7,0,1.3,0.6,1.3,1.3v5.2
		C20.7,18.8,20.1,19.4,19.4,19.4z M6.6,12.1c-0.4,0-0.8,0.3-0.8,0.8v5.2c0,0.4,0.3,0.8,0.8,0.8h12.7c0.4,0,0.8-0.3,0.8-0.8v-5.2
		c0-0.4-0.3-0.8-0.8-0.8H6.6z"/>
	<g>
		<g>
			<path class="st0" d="M12.3,14.6L12.3,14.6c0,0.7-0.6,1.3-1.4,1.3c-0.7,0-1.3-0.6-1.3-1.3v0v0c0-0.7,0.6-1.3,1.3-1.3
				C11.7,13.2,12.3,13.8,12.3,14.6L12.3,14.6z M11.7,14.6c0-0.4-0.3-0.7-0.7-0.7c-0.4,0-0.7,0.3-0.7,0.7c0,0.4,0.3,0.7,0.7,0.7
				C11.4,15.3,11.7,15,11.7,14.6z M11.5,17.4l2.4-4c0.1-0.2,0.3-0.2,0.5-0.1c0.2,0.1,0.2,0.3,0.1,0.5l-2.4,4
				c-0.1,0.2-0.3,0.2-0.5,0.1C11.4,17.7,11.4,17.5,11.5,17.4z M16.2,16.5L16.2,16.5c0,0.7-0.6,1.3-1.3,1.3s-1.3-0.6-1.4-1.3v0v0
				c0-0.7,0.6-1.3,1.4-1.3S16.2,15.8,16.2,16.5L16.2,16.5z M15.6,16.5c0-0.4-0.3-0.7-0.7-0.7c-0.4,0-0.7,0.3-0.7,0.7
				c0,0.4,0.3,0.7,0.7,0.7C15.2,17.2,15.5,16.9,15.6,16.5z"/>
		</g>
	</g>
	<path class="st0" d="M24.6,21.2H5.7c-1.1,0-2-0.9-2-2v-7.4c0-1.1,0.9-2,2-2h18.9c1.1,0,2,0.9,2,2v7.4
		C26.6,20.3,25.7,21.2,24.6,21.2z M5.7,10.3c-0.8,0-1.4,0.6-1.4,1.4v7.4c0,0.8,0.6,1.4,1.4,1.4h18.9c0.8,0,1.4-0.6,1.4-1.4v-7.4
		c0-0.8-0.6-1.4-1.4-1.4H5.7z"/>
</g>
</svg>
