<?xml version="1.0" encoding="utf-8"?>
<!-- Generator: Adobe Illustrator 24.3.0, SVG Export Plug-In . SVG Version: 6.00 Build 0)  -->
<svg version="1.1" id="Capa_1" xmlns="http://www.w3.org/2000/svg" xmlns:xlink="http://www.w3.org/1999/xlink" x="0px" y="0px"
	 viewBox="0 0 30 30" style="enable-background:new 0 0 30 30;" xml:space="preserve">
<style type="text/css">
	.st0{fill:#006dd9;}
</style>
<g>
	<g>
		<g>
			<path class="st0" d="M13.3,19.4l0-8L11,13.7c-0.4,0.4-1.2,0.4-1.6,0C9.1,13.5,9,13.2,9,12.9c0-0.3,0.1-0.6,0.3-0.8l4.3-4.3
				c0,0,0.1-0.1,0.1-0.1l0.1-0.1c0,0,0.1-0.1,0.1-0.1c0,0,0.1,0,0.1,0l0.1,0c0.1,0,0.1,0,0.1,0c0,0,0.1,0,0.1,0c0,0,0.1,0,0.1,0
				c0.1,0,0.1,0,0.2,0c0,0,0.1,0,0.1,0c0,0,0.1,0,0.1,0c0,0,0,0,0.1,0c0,0,0.1,0,0.1,0l0.1,0l0.1,0l0.1,0.1c0.1,0.1,0.1,0.1,0.1,0.1
				l4.2,4.2c0.2,0.2,0.3,0.5,0.3,0.8c0,0.3-0.1,0.6-0.3,0.8c-0.5,0.4-1.2,0.4-1.6,0l-2.3-2.3v7.9h-0.5v-8.5c0-0.1,0.1-0.2,0.2-0.2
				c0.1,0,0.2,0,0.3,0.1l2.7,2.7c0.3,0.3,0.7,0.3,0.9,0c0.1-0.1,0.2-0.3,0.2-0.5c0-0.2-0.1-0.3-0.2-0.5l-4.3-4.3l-0.1,0l-0.1,0
				l-0.1,0c0,0-0.1,0-0.1,0l-0.1,0c-0.1,0-0.1,0-0.2,0l-0.1,0l-0.1,0l-0.1,0l-0.1,0l-0.1,0l0,0l-4.3,4.3c-0.1,0.1-0.2,0.3-0.2,0.5
				c0,0.2,0.1,0.3,0.2,0.5c0.2,0.2,0.7,0.3,0.9,0l2.7-2.7c0.1-0.1,0.2-0.1,0.3-0.1c0.1,0,0.2,0.1,0.2,0.2l0,8.6L13.3,19.4z"/>
		</g>
	</g>
	<path class="st0" d="M23.7,21.5H5.5c-0.1,0-0.3-0.1-0.3-0.3v-3.9c0-0.1,0.1-0.3,0.3-0.3h4.6v0.5H5.7V21h17.8v-3.3h-4.3v-0.5h4.5
		c0.1,0,0.3,0.1,0.3,0.3v3.9C24,21.4,23.9,21.5,23.7,21.5z"/>
</g>
</svg>
