<?xml version="1.0" encoding="utf-8"?>
<!-- Generator: Adobe Illustrator 24.3.0, SVG Export Plug-In . SVG Version: 6.00 Build 0)  -->
<svg version="1.1" id="Capa_1" xmlns="http://www.w3.org/2000/svg" xmlns:xlink="http://www.w3.org/1999/xlink" x="0px" y="0px"
	 viewBox="0 0 30 30" style="enable-background:new 0 0 30 30;" xml:space="preserve">
<style type="text/css">
	.st0{fill:#006dd9;}
</style>
<g>
	<path class="st0" d="M15,24.6c-5.3,0-9.6-4.3-9.6-9.6S9.7,5.4,15,5.4s9.6,4.3,9.6,9.6S20.3,24.6,15,24.6z M15,6c-5,0-9,4-9,9
		c0,5,4,9,9,9c5,0,9-4,9-9C24,10,20,6,15,6z"/>
	<path class="st0" d="M9.9,18.1c-0.1,0-0.2-0.1-0.3-0.2c-0.1-0.1,0-0.3,0.1-0.4c0.1,0,2.5-1.2,5.1-1.2c2.6,0,4.7,1.1,4.8,1.2
		c0.1,0.1,0.2,0.2,0.1,0.4c-0.1,0.1-0.3,0.2-0.4,0.1c0,0-2-1.1-4.5-1.1c-2.5,0-4.8,1.1-4.9,1.1C10,18.1,9.9,18.1,9.9,18.1z"/>
	<g>
		<path class="st0" d="M10.5,14.6c-0.1,0-0.1,0-0.2-0.1c-0.1-0.1-0.1-0.3,0-0.4l2.5-2.5c0.1-0.1,0.3-0.1,0.4,0
			c0.1,0.1,0.1,0.3,0,0.4l-2.5,2.5C10.7,14.6,10.6,14.6,10.5,14.6z"/>
		<path class="st0" d="M13,14.6c-0.1,0-0.1,0-0.2-0.1L10.3,12c-0.1-0.1-0.1-0.3,0-0.4c0.1-0.1,0.3-0.1,0.4,0l2.5,2.5
			c0.1,0.1,0.1,0.3,0,0.4C13.2,14.6,13.1,14.6,13,14.6z"/>
	</g>
	<g>
		<path class="st0" d="M16.8,14.6c-0.1,0-0.1,0-0.2-0.1c-0.1-0.1-0.1-0.3,0-0.4l2.5-2.5c0.1-0.1,0.3-0.1,0.4,0
			c0.1,0.1,0.1,0.3,0,0.4L17,14.5C16.9,14.6,16.8,14.6,16.8,14.6z"/>
		<path class="st0" d="M19.3,14.6c-0.1,0-0.1,0-0.2-0.1L16.6,12c-0.1-0.1-0.1-0.3,0-0.4c0.1-0.1,0.3-0.1,0.4,0l2.5,2.5
			c0.1,0.1,0.1,0.3,0,0.4C19.4,14.6,19.3,14.6,19.3,14.6z"/>
	</g>
</g>
</svg>
