<?xml version="1.0" encoding="utf-8"?>
<!-- Generator: Adobe Illustrator 25.0.0, SVG Export Plug-In . SVG Version: 6.00 Build 0)  -->
<svg version="1.1" id="Capa_1" xmlns="http://www.w3.org/2000/svg" xmlns:xlink="http://www.w3.org/1999/xlink" x="0px" y="0px"
	 viewBox="0 0 600 600" style="enable-background:new 0 0 600 600;" xml:space="preserve">
<style type="text/css">
	.st0{fill:#2E68B0;}
</style>
<g>
	<g>
		<path class="st0" d="M352.9,178.1H234c-3.6,0-6.4-2.9-6.4-6.4s2.9-6.4,6.4-6.4h118.9c3.6,0,6.4,2.9,6.4,6.4
			S356.4,178.1,352.9,178.1z"/>
		<path class="st0" d="M352.9,273.3H234c-3.6,0-6.4-2.9-6.4-6.4c0-3.6,2.9-6.4,6.4-6.4h118.9c3.6,0,6.4,2.9,6.4,6.4
			C359.3,270.4,356.4,273.3,352.9,273.3z"/>
		<path class="st0" d="M352.9,368.5H234c-3.6,0-6.4-2.9-6.4-6.4c0-3.6,2.9-6.4,6.4-6.4h118.9c3.6,0,6.4,2.9,6.4,6.4
			C359.3,365.6,356.4,368.5,352.9,368.5z"/>
		<path class="st0" d="M352.9,463.7H234c-3.6,0-6.4-2.9-6.4-6.4c0-3.6,2.9-6.4,6.4-6.4h118.9c3.6,0,6.4,2.9,6.4,6.4
			C359.3,460.8,356.4,463.7,352.9,463.7z"/>
		<path class="st0" d="M443.7,526.4H143.2c-3.6,0-6.4-2.9-6.4-6.4V81.6c0-3.6,2.9-6.4,6.4-6.4h300.5c3.6,0,6.4,2.9,6.4,6.4V520
			C450.1,523.6,447.2,526.4,443.7,526.4z M149.6,513.5h287.6V88H149.6V513.5z"/>
	</g>
	<path class="st0" d="M442.5,118.9H146.2c-3.6,0-6.4-2.9-6.4-6.4s2.9-6.4,6.4-6.4h296.3c3.6,0,6.4,2.9,6.4,6.4
		S446.1,118.9,442.5,118.9z"/>
	<path class="st0" d="M167.6,100c-3.6,0-6.4-2.9-6.4-6.4V62.1c0-3.6,2.9-6.4,6.4-6.4s6.4,2.9,6.4,6.4v31.4
		C174.1,97.1,171.2,100,167.6,100z"/>
	<path class="st0" d="M217.7,100c-3.6,0-6.4-2.9-6.4-6.4V62.1c0-3.6,2.9-6.4,6.4-6.4s6.4,2.9,6.4,6.4v31.4
		C224.1,97.1,221.2,100,217.7,100z"/>
	<path class="st0" d="M267.7,100c-3.6,0-6.4-2.9-6.4-6.4V62.1c0-3.6,2.9-6.4,6.4-6.4c3.6,0,6.4,2.9,6.4,6.4v31.4
		C274.2,97.1,271.3,100,267.7,100z"/>
	<path class="st0" d="M317.8,100c-3.6,0-6.4-2.9-6.4-6.4V62.1c0-3.6,2.9-6.4,6.4-6.4c3.6,0,6.4,2.9,6.4,6.4v31.4
		C324.3,97.1,321.4,100,317.8,100z"/>
	<path class="st0" d="M367.9,100c-3.6,0-6.4-2.9-6.4-6.4V62.1c0-3.6,2.9-6.4,6.4-6.4c3.6,0,6.4,2.9,6.4,6.4v31.4
		C374.3,97.1,371.4,100,367.9,100z"/>
	<path class="st0" d="M417.9,100c-3.6,0-6.4-2.9-6.4-6.4V62.1c0-3.6,2.9-6.4,6.4-6.4c3.6,0,6.4,2.9,6.4,6.4v31.4
		C424.4,97.1,421.5,100,417.9,100z"/>
</g>
</svg>
