<?xml version="1.0" encoding="utf-8"?>
<!-- Generator: Adobe Illustrator 24.3.0, SVG Export Plug-In . SVG Version: 6.00 Build 0)  -->
<svg version="1.1" id="Capa_1" xmlns="http://www.w3.org/2000/svg" xmlns:xlink="http://www.w3.org/1999/xlink" x="0px" y="0px"
	 viewBox="0 0 30 30" style="enable-background:new 0 0 30 30;" xml:space="preserve">
<style type="text/css">
	.st0{fill:#006dd9;}
</style>
<g>
	<g>
		<path class="st0" d="M19.8,13.5h-9.8c-0.3,0-0.5-0.1-0.6-0.4c-0.1-0.2-0.1-0.5,0.1-0.7l4.6-5.4c0.4-0.4,1.1-0.4,1.5,0l0,0l4.6,5.4
			c0.2,0.2,0.2,0.5,0.1,0.7C20.3,13.4,20.1,13.5,19.8,13.5z M15,7.4c-0.1,0-0.2,0-0.2,0.1l-4.6,5.4l9.7,0l-4.6-5.3
			C15.1,7.4,15,7.4,15,7.4z"/>
		<path class="st0" d="M15,23.4c-0.3,0-0.5-0.1-0.7-0.3l-4.6-5.4c-0.2-0.2-0.2-0.5-0.1-0.7c0.1-0.2,0.3-0.4,0.6-0.4h9.8
			c0.3,0,0.5,0.1,0.6,0.4c0.1,0.2,0.1,0.5-0.1,0.7l-4.6,5.4l0,0C15.5,23.3,15.2,23.4,15,23.4z M15.4,22.9L15.4,22.9L15.4,22.9z
			 M19.8,17.3l-9.7,0l4.6,5.3c0.1,0.1,0.3,0.1,0.5,0L19.8,17.3z"/>
	</g>
	<path class="st0" d="M15,26c-6,0-11-4.9-11-11s4.9-11,11-11s11,4.9,11,11S21,26,15,26z M15,4.8C9.3,4.8,4.7,9.4,4.7,15.1
		S9.3,25.4,15,25.4s10.3-4.6,10.3-10.3S20.6,4.8,15,4.8z"/>
</g>
</svg>
