<?xml version="1.0" encoding="utf-8"?>
<!-- Generator: Adobe Illustrator 24.3.0, SVG Export Plug-In . SVG Version: 6.00 Build 0)  -->
<svg version="1.1" id="Capa_1" xmlns="http://www.w3.org/2000/svg" xmlns:xlink="http://www.w3.org/1999/xlink" x="0px" y="0px"
	 viewBox="0 0 30 30" style="enable-background:new 0 0 30 30;" xml:space="preserve">
<style type="text/css">
	.st0{fill:#006dd9;}
</style>
<g>
	<path class="st0" d="M21.7,25.9H8.1c-0.4,0-0.7-0.3-0.7-0.7V5.5c0-0.4,0.3-0.7,0.7-0.7h13.6c0.4,0,0.7,0.3,0.7,0.7v19.7
		C22.4,25.6,22.1,25.9,21.7,25.9z M8.1,5.3C8,5.3,7.9,5.4,7.9,5.5v19.7c0,0.1,0.1,0.2,0.2,0.2h13.6c0.1,0,0.2-0.1,0.2-0.2V5.5
		c0-0.1-0.1-0.2-0.2-0.2H8.1z"/>
	<path class="st0" d="M10.5,9.4c-0.7,0-1.3-0.6-1.3-1.3c0-0.7,0.6-1.3,1.3-1.3c0.7,0,1.3,0.6,1.3,1.3C11.8,8.9,11.2,9.4,10.5,9.4z
		 M10.5,7.4c-0.4,0-0.7,0.3-0.7,0.7c0,0.4,0.3,0.7,0.7,0.7c0.4,0,0.7-0.3,0.7-0.7C11.3,7.8,10.9,7.4,10.5,7.4z"/>
	<path class="st0" d="M20.5,9.3h-7.4c-0.1,0-0.3-0.1-0.3-0.3V7.3c0-0.1,0.1-0.3,0.3-0.3h7.4c0.1,0,0.3,0.1,0.3,0.3v1.8
		C20.8,9.2,20.6,9.3,20.5,9.3z M13.3,8.8h6.9V7.5h-6.9V8.8z"/>
	<path class="st0" d="M20.7,14.4H9.4c-0.1,0-0.3-0.1-0.3-0.3v-2.5c0-0.1,0.1-0.3,0.3-0.3h11.2c0.1,0,0.3,0.1,0.3,0.3v2.5
		C20.9,14.3,20.8,14.4,20.7,14.4z M9.7,13.9h10.7v-2H9.7V13.9z"/>
	<path class="st0" d="M20.1,16.8H9.3c-0.1,0-0.3-0.1-0.3-0.3c0-0.1,0.1-0.3,0.3-0.3h10.9c0.1,0,0.3,0.1,0.3,0.3
		C20.4,16.6,20.3,16.8,20.1,16.8z"/>
	<path class="st0" d="M20.1,18.8H9.3c-0.1,0-0.3-0.1-0.3-0.3c0-0.1,0.1-0.3,0.3-0.3h10.9c0.1,0,0.3,0.1,0.3,0.3
		C20.4,18.7,20.3,18.8,20.1,18.8z"/>
	<g>
		<path class="st0" d="M9.6,21.7c-0.1,0.1-0.2,0.3-0.3,0.4c-0.1,0.1-0.1,0.3,0,0.4c0.1,0.1,0.3,0,0.4-0.1c0.1-0.1,0.2-0.3,0.2-0.4
			c-0.1,0-0.2,0-0.3,0c0.1,0.3,0.1,0.7,0.1,1c0,0.2-0.1,0.3-0.1,0.5c0,0.1-0.1,0.1-0.1,0.2c0,0,0,0.1-0.1,0.1c0,0,0,0,0,0
			c0,0,0,0,0,0c-0.1-0.3,0.2-0.6,0.4-0.9c0.3-0.3,0.5-0.6,0.8-0.9c0.1-0.1-0.1-0.3-0.2-0.2c-0.3,0.3-0.5,0.6-0.8,0.9
			c-0.2,0.2-0.4,0.5-0.5,0.8c0,0.1,0,0.3,0.1,0.4c0.1,0.1,0.3,0.1,0.4,0c0.1-0.1,0.2-0.3,0.2-0.4c0.1-0.2,0.1-0.3,0.1-0.5
			c0.1-0.4,0-0.8-0.1-1.1c0-0.1-0.3-0.1-0.3,0c0,0.1,0,0.1-0.1,0.2c0,0-0.1,0.1-0.1,0.1c0,0,0,0,0.1,0.1c0,0,0,0,0,0
			c0-0.1,0.1-0.2,0.1-0.2c0-0.1,0.1-0.2,0.2-0.2C9.9,21.8,9.7,21.6,9.6,21.7L9.6,21.7z"/>
		<path class="st0" d="M10.1,22.9c0,0.1,0,0.2,0,0.3c0.1,0,0.2,0,0.3,0c0-0.2,0.1-0.4,0.2-0.6c-0.1,0-0.1,0-0.2-0.1
			c0,0.1,0.1,0.1,0.1,0.2c0.1,0.1,0.2,0,0.2,0c0.1-0.2,0.2-0.3,0.3-0.5c-0.1,0-0.1,0-0.2,0c0.1,0.1,0.3,0.2,0.4,0.1
			c0.1,0,0.1-0.1,0.2-0.2c0,0,0.2-0.2,0.2-0.1c0.1,0.1,0.2,0.1,0.2,0c0.1-0.3,0.3-0.5,0.4-0.8c-0.1,0-0.2-0.1-0.2-0.1
			c-0.1,0.3-0.1,0.7,0,1c0,0.1,0.1,0.1,0.2,0.1c0.4-0.2,0.7-0.5,0.8-0.9c0.1-0.2-0.2-0.2-0.3-0.1c-0.1,0.3-0.4,0.6-0.7,0.8
			c0.1,0,0.1,0.1,0.2,0.1c-0.1-0.3-0.1-0.6,0-0.9c0-0.1-0.2-0.2-0.2-0.1c-0.1,0.3-0.3,0.5-0.4,0.8c0.1,0,0.1,0,0.2,0
			c-0.1-0.1-0.3-0.2-0.4-0.1c-0.1,0-0.4,0.4-0.4,0.3c0-0.1-0.2-0.1-0.2,0c-0.1,0.2-0.2,0.3-0.3,0.5c0.1,0,0.1,0,0.2,0
			c0,0,0,0-0.1-0.1c0-0.1-0.1-0.1-0.2-0.1c-0.2,0.2-0.3,0.5-0.3,0.8c0,0.2,0.2,0.2,0.3,0c0-0.1,0-0.2,0-0.3
			C10.4,22.7,10.1,22.7,10.1,22.9L10.1,22.9z"/>
		<path class="st0" d="M10.8,23.1c0.5-0.2,0.9-0.6,1.2-1c0-0.1,0.1-0.1,0-0.2c0,0-0.1-0.1-0.2,0c-0.3,0.4-0.7,0.7-1.1,0.9
			C10.6,22.9,10.7,23.1,10.8,23.1L10.8,23.1z"/>
		<path class="st0" d="M12.2,21.3c0,0.7-0.1,1.3-0.3,2c0,0.2,0.2,0.2,0.3,0.1c0.1-0.7,0.2-1.4,0.3-2.1
			C12.5,21.1,12.2,21.1,12.2,21.3L12.2,21.3z"/>
	</g>
	<g>
		<path class="st0" d="M18.3,21.5c0-0.3-0.3-0.4-0.5-0.3c-0.3,0.1-0.5,0.4-0.6,0.7c-0.4,0.5-0.5,1.2-0.5,1.8c0,0.1,0,0.1,0.1,0.1
			c0.3,0.1,0.5-0.3,0.6-0.5c0.2-0.3,0.3-0.6,0.4-1c-0.1,0-0.2,0-0.3,0c0,0.1,0,0.2,0,0.2c0,0.1,0.2,0.2,0.2,0.1
			c0.1-0.1,0.2-0.3,0.2-0.4c-0.1,0-0.2,0-0.3,0c0,0.2,0.1,0.3,0.2,0.5c0.1,0.1,0.2,0,0.2-0.1c0-0.1,0.1-0.2,0.1-0.2
			c0.1-0.1,0.2,0,0.3,0c0.2,0.1,0.3,0,0.4-0.1c0.4-0.2,0.8-0.2,1.1-0.1c0-0.1,0-0.2,0-0.3c-0.2,0-0.4,0.1-0.6,0.1
			c-0.2,0-0.1,0.3,0.1,0.3c0.2,0,0.4-0.1,0.6-0.1c0.1,0,0.1-0.2,0-0.3c-0.5-0.1-1,0-1.4,0.2c-0.1,0-0.1,0.1-0.2,0.1
			c0,0-0.1-0.1-0.1-0.1c-0.1,0-0.2,0-0.3,0c-0.2,0.1-0.3,0.3-0.3,0.5c0.1,0,0.1,0,0.2-0.1C18,22.4,18,22.4,18,22.2
			c0-0.2-0.2-0.2-0.3,0c0,0.1-0.1,0.2-0.2,0.3c0.1,0,0.2,0,0.2,0.1c0-0.1,0-0.2,0-0.2c0-0.1-0.2-0.2-0.3,0c-0.1,0.2-0.2,0.5-0.3,0.7
			c0,0.1-0.3,0.6-0.4,0.6c0,0,0.1,0.1,0.1,0.1c0-0.5,0.1-0.9,0.3-1.3c0.1-0.2,0.2-0.4,0.3-0.6c0.1-0.1,0.1-0.2,0.2-0.2
			c0,0,0.3-0.3,0.3-0.1C18.1,21.7,18.3,21.7,18.3,21.5L18.3,21.5z"/>
		<path class="st0" d="M19.2,21.4c-0.1,0.3-0.2,0.6-0.2,1c0,0.2,0,0.6,0.4,0.6c0.2,0,0.2-0.3,0-0.3c0,0,0,0,0,0c0,0,0-0.1,0-0.1
			c0-0.1,0-0.2,0-0.3c0-0.3,0.1-0.5,0.2-0.8c0-0.1,0-0.1,0-0.2C19.4,21.3,19.3,21.3,19.2,21.4L19.2,21.4z"/>
	</g>
</g>
</svg>
