<?xml version="1.0" encoding="utf-8"?>
<!-- Generator: Adobe Illustrator 24.3.0, SVG Export Plug-In . SVG Version: 6.00 Build 0)  -->
<svg version="1.1" id="Capa_1" xmlns="http://www.w3.org/2000/svg" xmlns:xlink="http://www.w3.org/1999/xlink" x="0px" y="0px"
	 viewBox="0 0 30 30" style="enable-background:new 0 0 30 30;" xml:space="preserve">
<style type="text/css">
	.st0{fill:#006dd9;}
</style>
<g>
	<path class="st0" d="M23.5,22.3H6.3C5,22.3,4,21.2,4,19.9V9.9C4,8.6,5,7.5,6.3,7.5h17.2c1.3,0,2.4,1.1,2.4,2.3v10.1
		C25.9,21.2,24.8,22.3,23.5,22.3z M6.3,8.1c-1,0-1.8,0.8-1.8,1.8v10.1c0,1,0.8,1.8,1.8,1.8h17.2c1,0,1.8-0.8,1.8-1.8V9.9
		c0-1-0.8-1.8-1.8-1.8H6.3z"/>
	<rect x="6.4" y="11.5" class="st0" width="1.4" height="2.2"/>
	<rect x="9.4" y="11.5" class="st0" width="1.4" height="2.2"/>
	<path class="st0" d="M8.6,13.3C8.3,13.3,8,13,8,12.6C8,12.3,8.3,12,8.6,12c0.3,0,0.6,0.3,0.6,0.6C9.2,13,9,13.3,8.6,13.3z
		 M8.6,12.3c-0.2,0-0.4,0.2-0.4,0.4S8.4,13,8.6,13C8.8,13,9,12.8,9,12.6S8.8,12.3,8.6,12.3z"/>
	<path class="st0" d="M23.1,12.9h-11c-0.1,0-0.3-0.1-0.3-0.3s0.1-0.3,0.3-0.3h11c0.1,0,0.3,0.1,0.3,0.3S23.2,12.9,23.1,12.9z"/>
	<path class="st0" d="M23.1,15.3h-11c-0.1,0-0.3-0.1-0.3-0.3s0.1-0.3,0.3-0.3h11c0.1,0,0.3,0.1,0.3,0.3S23.2,15.3,23.1,15.3z"/>
	<path class="st0" d="M11,18.4H6.6c-0.1,0-0.3-0.1-0.3-0.3s0.1-0.3,0.3-0.3H11c0.1,0,0.3,0.1,0.3,0.3S11.1,18.4,11,18.4z"/>
	<path class="st0" d="M17.2,18.4h-4.4c-0.1,0-0.3-0.1-0.3-0.3s0.1-0.3,0.3-0.3h4.4c0.1,0,0.3,0.1,0.3,0.3S17.3,18.4,17.2,18.4z"/>
	<path class="st0" d="M23.4,18.4H19c-0.1,0-0.3-0.1-0.3-0.3s0.1-0.3,0.3-0.3h4.4c0.1,0,0.3,0.1,0.3,0.3S23.5,18.4,23.4,18.4z"/>
</g>
</svg>
