<?xml version="1.0" encoding="utf-8"?>
<!-- Generator: Adobe Illustrator 24.3.0, SVG Export Plug-In . SVG Version: 6.00 Build 0)  -->
<svg version="1.1" id="Capa_1" xmlns="http://www.w3.org/2000/svg" xmlns:xlink="http://www.w3.org/1999/xlink" x="0px" y="0px"
	 viewBox="0 0 30 30" style="enable-background:new 0 0 30 30;" xml:space="preserve">
<style type="text/css">
	.st0{fill:#006dd9;}
</style>
<g>
	<path class="st0" d="M23.2,22.1h-16c-0.9,0-1.6-0.7-1.6-1.6v-9.6c0-0.9,0.7-1.6,1.6-1.6h16c0.9,0,1.6,0.7,1.6,1.6v9.6
		C24.9,21.4,24.1,22.1,23.2,22.1z M7.3,9.8c-0.6,0-1,0.5-1,1v9.6c0,0.6,0.5,1,1,1h16c0.6,0,1-0.5,1-1v-9.6c0-0.6-0.5-1-1-1H7.3z"/>
	<path class="st0" d="M9.2,14.4c-0.9,0-1.7-0.8-1.7-1.7c0-0.9,0.8-1.7,1.7-1.7c0.9,0,1.7,0.8,1.7,1.7C10.9,13.6,10.2,14.4,9.2,14.4z
		 M9.2,11.6c-0.6,0-1.1,0.5-1.1,1.1c0,0.6,0.5,1.1,1.1,1.1c0.6,0,1.1-0.5,1.1-1.1C10.4,12.1,9.9,11.6,9.2,11.6z"/>
	<path class="st0" d="M11.6,14.4c-0.2,0-0.3-0.1-0.3-0.3s0.1-0.3,0.3-0.3c0.6,0,1.1-0.5,1.1-1.1c0-0.6-0.5-1.1-1.1-1.1
		c-0.2,0-0.3-0.1-0.3-0.3s0.1-0.3,0.3-0.3c0.9,0,1.7,0.8,1.7,1.7C13.3,13.6,12.5,14.4,11.6,14.4z"/>
	<path class="st0" d="M22.2,16.3H8.3C8.1,16.3,8,16.2,8,16c0-0.2,0.1-0.3,0.3-0.3h13.9c0.2,0,0.3,0.1,0.3,0.3
		C22.5,16.2,22.4,16.3,22.2,16.3z"/>
	<path class="st0" d="M22.2,20.6h-2.8c-0.2,0-0.3-0.1-0.3-0.3v-2.6c0-0.2,0.1-0.3,0.3-0.3h2.8c0.2,0,0.3,0.1,0.3,0.3v2.6
		C22.5,20.5,22.4,20.6,22.2,20.6z M19.7,20h2.3v-2h-2.3V20z"/>
</g>
</svg>
