<?xml version="1.0" encoding="utf-8"?>
<!-- Generator: Adobe Illustrator 24.3.0, SVG Export Plug-In . SVG Version: 6.00 Build 0)  -->
<svg version="1.1" id="Capa_1" xmlns="http://www.w3.org/2000/svg" xmlns:xlink="http://www.w3.org/1999/xlink" x="0px" y="0px"
	 viewBox="0 0 30 30" style="enable-background:new 0 0 30 30;" xml:space="preserve">
<style type="text/css">
	.st0{fill:#006dd9;}
</style>
<g>
	<path class="st0" d="M19.3,7.9H11c-0.2,0-0.3-0.1-0.3-0.3c0-1.6,1.3-2.9,2.9-2.9h3.1c1.6,0,2.9,1.3,2.9,2.9
		C19.6,7.8,19.5,7.9,19.3,7.9z M11.3,7.3h7.6c-0.2-1.1-1.1-2-2.3-2h-3.1C12.5,5.3,11.5,6.2,11.3,7.3z"/>
	<path class="st0" d="M20.1,17.3h-9.9c-0.2,0-0.3-0.1-0.3-0.3v-0.5c0-1.5,1.2-4.2,2.9-4.2h4.7c1.7,0,2.9,2.7,2.9,4.2V17
		C20.4,17.2,20.3,17.3,20.1,17.3z M10.5,16.7h9.3v-0.1c0-1.3-1.1-3.6-2.3-3.6h-4.7c-1.2,0-2.3,2.2-2.3,3.6V16.7z"/>
	<path class="st0" d="M17.6,13h-4.8c-0.1,0-0.2,0-0.2-0.1c-0.1-0.1-0.1-0.2-0.1-0.2l0.4-4.9c0-0.2,0.2-0.3,0.3-0.3h3.9
		c0.2,0,0.3,0.1,0.3,0.3l0.5,4.9c0,0.1,0,0.2-0.1,0.2C17.7,12.9,17.7,13,17.6,13z M13.1,12.3h4.1L16.8,8h-3.4L13.1,12.3z"/>
	<path class="st0" d="M15.1,25.9c-0.1,0-0.3-0.1-0.3-0.2l-0.5-1.3c0,0,0-0.1,0-0.1V17c0-0.2,0.1-0.3,0.3-0.3h1
		c0.2,0,0.3,0.1,0.3,0.3v7.3c0,0,0,0.1,0,0.1l-0.5,1.3C15.4,25.8,15.3,25.9,15.1,25.9z M15,24.2l0.2,0.4l0.2-0.4v-6.9H15V24.2z
		 M15.6,24.3L15.6,24.3L15.6,24.3z"/>
</g>
</svg>
