<?xml version="1.0" encoding="utf-8"?>
<!-- Generator: Adobe Illustrator 24.3.0, SVG Export Plug-In . SVG Version: 6.00 Build 0)  -->
<svg version="1.1" id="Capa_1" xmlns="http://www.w3.org/2000/svg" xmlns:xlink="http://www.w3.org/1999/xlink" x="0px" y="0px"
	 viewBox="0 0 30 30" style="enable-background:new 0 0 30 30;" xml:space="preserve">
<style type="text/css">
	.st0{fill:#006dd9;}
</style>
<g>
	<path class="st0" d="M10.4,23.1c-0.6,0-1-0.2-1.4-0.6c-0.4-0.4-0.5-0.9-0.5-1.7V10.5H5.6c-0.6,0-1.1-0.1-1.4-0.4
		C3.9,9.7,3.7,9.3,3.7,8.8c0-0.5,0.2-0.9,0.5-1.2C4.6,7.3,5,7.2,5.6,7.2h9.6c0.6,0,1.1,0.2,1.4,0.4c0.3,0.3,0.5,0.7,0.5,1.2
		c0,0.5-0.2,0.9-0.5,1.2c-0.3,0.3-0.8,0.4-1.4,0.4h-2.9v10.4c0,0.7-0.2,1.3-0.5,1.7C11.4,22.9,11,23.1,10.4,23.1z M5.6,8
		C5.2,8,4.9,8.1,4.8,8.2C4.6,8.4,4.5,8.6,4.5,8.8c0,0.3,0.1,0.4,0.2,0.6c0.2,0.2,0.5,0.2,0.9,0.2h3.7v11.2c0,0.5,0.1,0.9,0.3,1.1
		c0.4,0.4,1.2,0.4,1.6,0c0.2-0.2,0.3-0.6,0.3-1.1V9.7h3.7c0.4,0,0.7-0.1,0.9-0.2c0.2-0.1,0.2-0.3,0.2-0.6c0-0.3-0.1-0.4-0.2-0.6
		C15.9,8.1,15.6,8,15.2,8H5.6z"/>
	<path class="st0" d="M21.9,23.1c-1,0-1.7-0.2-2.2-0.5c-0.5-0.3-0.9-0.8-1-1.4c-0.1-0.6-0.2-1.3-0.2-2.2v-4.9
		c-0.5,0-0.9-0.1-1.1-0.4c-0.3-0.3-0.4-0.6-0.4-1c0-0.4,0.2-0.8,0.5-1c0.3-0.2,0.7-0.4,1.1-0.4V10c0-0.5,0-0.8,0-1.1
		c0-0.3,0.1-0.6,0.3-0.8c0.1-0.2,0.3-0.5,0.6-0.6c0.6-0.4,1.5-0.3,2.1,0.3c0.3,0.2,0.4,0.5,0.5,0.9C22,8.9,22,9.3,22,9.8v1.5h0.6
		c0.5,0,0.9,0.1,1.2,0.4c0.3,0.3,0.4,0.6,0.4,1c0,0.7-0.4,1-0.7,1.1c-0.4,0.2-0.8,0.3-1.4,0.3H22v4.7c0,0.4,0,0.7,0,0.9
		c0,0.1,0.1,0.3,0.1,0.3c0.1,0.1,0.3,0.1,0.9,0c0.3-0.1,0.5-0.1,0.7-0.1c0.3,0,0.6,0.1,0.9,0.4c0.3,0.3,0.4,0.6,0.4,1
		c0,0.4-0.2,1-1,1.4C23.6,23,22.8,23.1,21.9,23.1z M18.5,12.1c-0.3,0-0.6,0.1-0.7,0.2c-0.1,0.1-0.2,0.2-0.2,0.4
		c0,0.2,0.1,0.3,0.2,0.4c0.1,0.1,0.3,0.2,0.6,0.2h0.8V19c0,0.8,0.1,1.5,0.2,2c0.1,0.4,0.3,0.7,0.7,1c0.4,0.2,1,0.4,1.7,0.4
		c0.8,0,1.5-0.1,1.9-0.3c0.4-0.2,0.5-0.5,0.5-0.7c0-0.2,0-0.3-0.1-0.4c-0.1-0.1-0.2-0.2-0.3-0.2c-0.1,0-0.3,0-0.6,0.1
		c-0.3,0.1-0.6,0.1-0.7,0.1c-0.4,0-0.7-0.1-0.9-0.4c-0.2-0.2-0.3-0.5-0.3-0.8c0-0.2,0-0.6,0-1.1v-5.5h0.9c0.6,0,0.9-0.1,1.1-0.2
		c0.1-0.1,0.2-0.1,0.2-0.4c0-0.2-0.1-0.3-0.2-0.4c-0.1-0.1-0.3-0.2-0.6-0.2h-1.4V9.8c0-0.4,0-0.8-0.1-1c0-0.2-0.1-0.3-0.2-0.4
		C20.5,8,20,8,19.7,8.2c-0.1,0.1-0.2,0.2-0.3,0.3c-0.1,0.1-0.1,0.3-0.1,0.5c0,0.2,0,0.6,0,1v2.1H18.5z"/>
</g>
</svg>
