<?xml version="1.0" encoding="utf-8"?>
<!-- Generator: Adobe Illustrator 24.3.0, SVG Export Plug-In . SVG Version: 6.00 Build 0)  -->
<svg version="1.1" id="Capa_1" xmlns="http://www.w3.org/2000/svg" xmlns:xlink="http://www.w3.org/1999/xlink" x="0px" y="0px"
	 viewBox="0 0 30 30" style="enable-background:new 0 0 30 30;" xml:space="preserve">
<style type="text/css">
	.st0{fill:#006dd9;}
</style>
<g>
	<path class="st0" d="M11.3,26C7.8,26,5,23.2,5,19.7s2.8-6.3,6.3-6.3s6.3,2.8,6.3,6.3S14.8,26,11.3,26z M11.3,14
		c-3.2,0-5.7,2.6-5.7,5.7c0,3.2,2.6,5.7,5.7,5.7s5.7-2.6,5.7-5.7C17,16.5,14.5,14,11.3,14z"/>
	<g>
		<g>
			<path class="st0" d="M13,21c0,0.8-0.5,1.5-1.3,1.7v0.4c0,0.2-0.2,0.4-0.4,0.4c-0.2,0-0.4-0.2-0.4-0.4v-0.4
				c-0.7-0.2-1.3-0.9-1.3-1.7c0-0.2,0.2-0.4,0.4-0.4c0.2,0,0.4,0.2,0.4,0.4c0,0.3,0.2,0.6,0.4,0.7v-1.7c-0.7-0.2-1.3-0.9-1.3-1.7
				c0-0.8,0.5-1.5,1.3-1.7v-0.3c0-0.2,0.2-0.4,0.4-0.4c0.2,0,0.4,0.2,0.4,0.4v0.3c0.8,0.2,1.3,0.9,1.3,1.7c0,0.2-0.2,0.4-0.4,0.4
				c-0.2,0-0.4-0.2-0.4-0.4c0-0.3-0.2-0.6-0.4-0.8v1.7C12.4,19.5,13,20.2,13,21z M10.8,19.2v-1.5c-0.2,0.2-0.4,0.4-0.4,0.7
				S10.6,19,10.8,19.2z M12.1,21c0-0.3-0.2-0.6-0.4-0.8v1.5C11.9,21.6,12.1,21.3,12.1,21z"/>
		</g>
	</g>
	<path class="st0" d="M23.3,23.7h-7.2c-0.2,0-0.3-0.1-0.3-0.3c0-0.2,0.1-0.3,0.3-0.3h7.2c0.1,0,0.1-0.1,0.1-0.1V5.1
		c0-0.1-0.1-0.1-0.1-0.1H11.1c-0.1,0-0.1,0.1-0.1,0.1v8.5c0,0.2-0.1,0.3-0.3,0.3c-0.2,0-0.3-0.1-0.3-0.3V5.1c0-0.4,0.3-0.7,0.7-0.7
		h12.3c0.4,0,0.7,0.3,0.7,0.7V23C24,23.4,23.7,23.7,23.3,23.7z"/>
	<path class="st0" d="M13.2,8.7c-0.7,0-1.2-0.5-1.2-1.2s0.5-1.2,1.2-1.2s1.2,0.5,1.2,1.2S13.9,8.7,13.2,8.7z M13.2,6.9
		c-0.3,0-0.6,0.3-0.6,0.6s0.3,0.6,0.6,0.6c0.3,0,0.6-0.3,0.6-0.6S13.6,6.9,13.2,6.9z"/>
	<path class="st0" d="M22.2,8.7h-6.7c-0.2,0-0.3-0.1-0.3-0.3V6.7c0-0.2,0.1-0.3,0.3-0.3h6.7c0.2,0,0.3,0.1,0.3,0.3v1.6
		C22.5,8.5,22.4,8.7,22.2,8.7z M15.8,8.1H22V7h-6.1V8.1z"/>
	<path class="st0" d="M22.4,13.3H12.3c-0.2,0-0.3-0.1-0.3-0.3v-2.3c0-0.2,0.1-0.3,0.3-0.3h10.2c0.2,0,0.3,0.1,0.3,0.3V13
		C22.7,13.1,22.6,13.3,22.4,13.3z M12.5,12.7h9.6V11h-9.6V12.7z"/>
	<path class="st0" d="M21.9,15.4h-6.6c-0.2,0-0.3-0.1-0.3-0.3s0.1-0.3,0.3-0.3h6.6c0.2,0,0.3,0.1,0.3,0.3S22.1,15.4,21.9,15.4z"/>
	<path class="st0" d="M21.9,17.3h-5.2c-0.2,0-0.3-0.1-0.3-0.3c0-0.2,0.1-0.3,0.3-0.3h5.2c0.2,0,0.3,0.1,0.3,0.3
		C22.2,17.1,22.1,17.3,21.9,17.3z"/>
</g>
</svg>
