<?xml version="1.0" encoding="utf-8"?>
<!-- Generator: Adobe Illustrator 24.3.0, SVG Export Plug-In . SVG Version: 6.00 Build 0)  -->
<svg version="1.1" id="Capa_1" xmlns="http://www.w3.org/2000/svg" xmlns:xlink="http://www.w3.org/1999/xlink" x="0px" y="0px"
	 viewBox="0 0 30 30" style="enable-background:new 0 0 30 30;" xml:space="preserve">
<style type="text/css">
	.st0{fill:#006dd9;}
</style>
<g>
	<path class="st0" d="M20.2,12.1H4.3c-0.2,0-0.3-0.2-0.3-0.3c0-0.2,0.2-0.3,0.3-0.3h15.9c0.2,0,0.3,0.2,0.3,0.3
		C20.5,12,20.4,12.1,20.2,12.1z"/>
	<path class="st0" d="M15.9,23.6H5.7c-1,0-1.8-0.8-1.8-1.8v-11c0-1,0.8-1.8,1.8-1.8h12.9c1,0,1.8,0.8,1.8,1.8v2
		c0,0.2-0.2,0.3-0.3,0.3s-0.3-0.2-0.3-0.3v-2c0-0.6-0.5-1.2-1.2-1.2H5.7c-0.6,0-1.2,0.5-1.2,1.2v11c0,0.6,0.5,1.2,1.2,1.2h10.2
		c2.2,0,3.9-1.8,3.9-3.9v-3.8c0-0.2,0.2-0.3,0.3-0.3s0.3,0.2,0.3,0.3V19C20.5,21.5,18.5,23.6,15.9,23.6z"/>
	<path class="st0" d="M6.7,10.4C6.7,10.4,6.7,10.4,6.7,10.4C6.3,10.4,6,10.2,5.8,9.9c-0.2-0.3-0.3-0.7-0.2-1C5.6,8.5,5.8,8.2,6.1,8
		c0.3-0.2,0.7-0.3,1-0.2c0.8,0.1,1.2,0.8,1.1,1.6c0,0.2-0.2,0.3-0.4,0.3c-0.2,0-0.3-0.2-0.3-0.4C7.6,8.8,7.4,8.5,7,8.4
		c-0.2,0-0.4,0-0.5,0.1C6.3,8.6,6.2,8.8,6.2,9c0,0.2,0,0.4,0.1,0.5c0.1,0.2,0.3,0.3,0.4,0.3c0.2,0,0.3,0.2,0.3,0.4
		C7,10.3,6.9,10.4,6.7,10.4z"/>
	<path class="st0" d="M10.1,10.4C10.1,10.4,10.1,10.4,10.1,10.4c-0.8-0.1-1.3-0.9-1.2-1.6C9,8.5,9.2,8.2,9.5,8
		c0.3-0.2,0.7-0.3,1-0.2c0.8,0.1,1.2,0.8,1.1,1.6c0,0.2-0.2,0.3-0.4,0.3c-0.2,0-0.3-0.2-0.3-0.4c0.1-0.4-0.2-0.7-0.6-0.8
		c-0.2,0-0.4,0-0.5,0.1C9.7,8.6,9.6,8.8,9.6,9c-0.1,0.4,0.2,0.7,0.5,0.8c0.2,0,0.3,0.2,0.3,0.4C10.4,10.3,10.3,10.4,10.1,10.4z"/>
	<path class="st0" d="M13.5,10.4C13.5,10.4,13.5,10.4,13.5,10.4c-0.8-0.1-1.3-0.9-1.2-1.6c0.1-0.4,0.3-0.7,0.6-0.9
		c0.3-0.2,0.7-0.3,1-0.2c0.4,0.1,0.7,0.3,0.9,0.6C15,8.6,15.1,9,15,9.3c0,0.2-0.2,0.3-0.4,0.3c-0.2,0-0.3-0.2-0.3-0.4
		c0-0.2,0-0.4-0.1-0.5c-0.1-0.1-0.3-0.2-0.5-0.3c-0.2,0-0.4,0-0.5,0.1C13.1,8.6,13,8.8,13,9c-0.1,0.4,0.2,0.7,0.5,0.8
		c0.2,0,0.3,0.2,0.3,0.4C13.8,10.3,13.7,10.4,13.5,10.4z"/>
	<path class="st0" d="M16.9,10.4C16.9,10.4,16.9,10.4,16.9,10.4c-0.8-0.1-1.3-0.9-1.2-1.6C15.8,8.5,16,8.2,16.3,8
		c0.3-0.2,0.7-0.3,1-0.2c0.8,0.1,1.2,0.8,1.1,1.6c0,0.2-0.2,0.3-0.4,0.3c-0.2,0-0.3-0.2-0.3-0.4c0.1-0.4-0.2-0.7-0.6-0.8
		c-0.2,0-0.4,0-0.5,0.1c-0.2,0.1-0.3,0.3-0.3,0.4c-0.1,0.4,0.2,0.7,0.6,0.8c0.2,0,0.3,0.2,0.3,0.4C17.2,10.3,17.1,10.4,16.9,10.4z"
		/>
	<path class="st0" d="M16.8,23.4c-0.2,0-0.3-0.1-0.3-0.3c-0.1-0.5-0.4-3,0.4-3.8c0.2-0.2,0.4-0.3,0.7-0.3c1.8,0.1,2.5-0.3,2.5-0.4
		c0.2-0.1,0.4,0,0.5,0.1c0.1,0.2,0.1,0.4-0.1,0.5c-0.1,0.1-0.9,0.5-2.9,0.5c0,0-0.1,0-0.1,0.1C17,20.2,17,21.9,17.2,23
		C17.2,23.2,17.1,23.3,16.8,23.4C16.8,23.4,16.8,23.4,16.8,23.4z"/>
	<path class="st0" d="M14.7,20.8H9.3c-0.2,0-0.3-0.2-0.3-0.3s0.2-0.3,0.3-0.3h5.4c0.2,0,0.3,0.2,0.3,0.3S14.9,20.8,14.7,20.8z"/>
	<path class="st0" d="M14.7,19.3C14.7,19.3,14.6,19.3,14.7,19.3c-0.2,0-0.3-0.2-0.3-0.3c0-0.1,0-2.2,0-2.7c0.2-1.1,1-3.8,5.1-3.8
		h2.9l0-1.8c0-0.1,0.1-0.2,0.2-0.3c0.1-0.1,0.3,0,0.4,0l3.9,2.9c0.2,0.2,0.4,0.4,0.4,0.7s-0.1,0.5-0.4,0.7l-3.9,2.9
		c-0.1,0.1-0.2,0.1-0.4,0c-0.1-0.1-0.2-0.2-0.2-0.3l0-1.9h-2.9c-2.6,0-4.4,3.7-4.4,3.7C14.9,19.2,14.8,19.3,14.7,19.3z M19.5,13.2
		c-3.4,0-4.2,2-4.4,3.2c0,0.2,0,0.8,0,1.3c0.8-1.2,2.3-3,4.4-3h3.2c0.1,0,0.2,0,0.2,0.1C23,14.9,23,15,23,15.1l0,1.5l3.4-2.5
		c0.1,0,0.1-0.1,0.1-0.1c0,0,0-0.1-0.1-0.1L23,11.3l0,1.5c0,0.1,0,0.2-0.1,0.2c-0.1,0.1-0.2,0.1-0.2,0.1H19.5z"/>
	<path class="st0" d="M14.5,18.1H8.7c-0.2,0-0.3-0.2-0.3-0.3v-3.4c0-0.2,0.2-0.3,0.3-0.3h6.7c0.2,0,0.3,0.2,0.3,0.3
		c0,0.2-0.2,0.3-0.3,0.3H9.1v2.7h5.5c0.2,0,0.3,0.2,0.3,0.3S14.7,18.1,14.5,18.1z"/>
</g>
</svg>
