<?xml version="1.0" encoding="utf-8"?>
<!-- Generator: Adobe Illustrator 24.3.0, SVG Export Plug-In . SVG Version: 6.00 Build 0)  -->
<svg version="1.1" id="Capa_1" xmlns="http://www.w3.org/2000/svg" xmlns:xlink="http://www.w3.org/1999/xlink" x="0px" y="0px"
	 viewBox="0 0 30 30" style="enable-background:new 0 0 30 30;" xml:space="preserve">
<style type="text/css">
	.st0{fill:#006dd9;}
</style>
<g>
	<g>
		<path class="st0" d="M15.2,14.7c-0.2,0-0.4-0.1-0.6-0.2c0,0-3.5-3.7-3.5-6.6c0-2.2,1.8-4.1,4.1-4.1c2.2,0,4.1,1.8,4.1,4.1
			c0,2.5-3.1,6.2-3.4,6.5C15.6,14.6,15.4,14.7,15.2,14.7z M15.2,4.3c-2,0-3.6,1.6-3.6,3.6c0,2.5,2.9,5.8,3.3,6.2
			c0.2,0.1,0.4,0.1,0.6,0c0.3-0.3,3.3-3.9,3.3-6.2C18.7,6,17.1,4.3,15.2,4.3z M15.2,9.3c-0.2,0-0.3,0-0.5-0.1
			c-0.2-0.1-0.3-0.2-0.5-0.3c-0.2-0.2-0.4-0.6-0.4-1c0-0.4,0.1-0.7,0.4-1c0.1-0.1,0.3-0.2,0.4-0.3c0.4-0.1,0.7-0.1,1.1,0
			C15.9,6.7,16,6.8,16.1,7l0,0c0.3,0.3,0.4,0.6,0.4,1c0,0.4-0.2,0.7-0.4,1C15.9,9.1,15.5,9.3,15.2,9.3z M15.2,7.1
			c-0.1,0-0.2,0-0.4,0.1c-0.1,0-0.2,0.1-0.3,0.2c-0.2,0.2-0.3,0.4-0.3,0.6c0,0.2,0.1,0.5,0.2,0.6c0.1,0.1,0.2,0.2,0.3,0.2
			c0.3,0.1,0.7,0,0.9-0.2C15.9,8.4,16,8.1,16,7.9c0-0.2-0.1-0.4-0.3-0.6c-0.1-0.1-0.2-0.1-0.3-0.2C15.4,7.1,15.3,7.1,15.2,7.1z"/>
	</g>
	<g>
		<path class="st0" d="M14.9,17.8C14.9,17.8,14.8,17.8,14.9,17.8l-2.7-1c-0.1,0-0.2-0.2-0.1-0.3c0-0.1,0.2-0.2,0.3-0.1l2.6,0.9
			L21,15l-3.7-1.4c-0.1,0-0.2-0.2-0.1-0.3c0-0.1,0.2-0.2,0.3-0.1l4.3,1.6c0.1,0,0.2,0.1,0.2,0.2s-0.1,0.2-0.2,0.2L14.9,17.8
			C15,17.8,14.9,17.8,14.9,17.8z"/>
		<path class="st0" d="M11,16.5C11,16.5,11,16.4,11,16.5l-3-1.1c-0.1,0-0.2-0.1-0.2-0.2s0.1-0.2,0.2-0.2l4.7-1.8
			c0.1,0,0.3,0,0.3,0.1c0,0.1,0,0.3-0.1,0.3l-4,1.6l2.3,0.9c0.1,0,0.2,0.2,0.1,0.3C11.2,16.4,11.1,16.5,11,16.5z"/>
		<path class="st0" d="M14.8,25.9C14.8,25.9,14.8,25.8,14.8,25.9L8,23.3c-0.1,0-0.2-0.1-0.2-0.2v-7.8c0-0.1,0.1-0.2,0.3-0.2
			c0.1,0,0.2,0.1,0.2,0.2v7.7l6.2,2.3v-7.7c0-0.1,0.1-0.2,0.2-0.2s0.2,0.1,0.2,0.2v8.1c0,0.1,0,0.2-0.1,0.2
			C14.9,25.8,14.9,25.9,14.8,25.9z"/>
		<path class="st0" d="M15,25.9c-0.1,0-0.2-0.1-0.2-0.2c0-0.1,0-0.3,0.1-0.3l6.6-2.5v-7.8c0-0.1,0.1-0.2,0.2-0.2S22,15,22,15.1v8
			c0,0.1-0.1,0.2-0.2,0.2L15,25.9C15.1,25.9,15.1,25.9,15,25.9z"/>
		<path class="st0" d="M11.7,16.2c-0.1,0.1-0.1,0.2-0.1,0.3v1.9l-0.4-0.1l0-1.9L11.7,16.2 M13.3,15l-2.6,1.2l0,2.6l1.4,0.5
			c0,0,0-1.2,0-2.6c0.1,0,2.5-1.1,2.5-1.1L13.3,15L13.3,15z"/>
	</g>
</g>
</svg>
