<?xml version="1.0" encoding="utf-8"?>
<!-- Generator: Adobe Illustrator 24.3.0, SVG Export Plug-In . SVG Version: 6.00 Build 0)  -->
<svg version="1.1" id="Capa_1" xmlns="http://www.w3.org/2000/svg" xmlns:xlink="http://www.w3.org/1999/xlink" x="0px" y="0px"
	 viewBox="0 0 30 30" style="enable-background:new 0 0 30 30;" xml:space="preserve">
<style type="text/css">
	.st0{fill:#006dd9;}
</style>
<g>
	<path class="st0" d="M19.8,23.4H9.6c-0.4,0-0.7-0.3-0.7-0.7V7.8C8.9,7.4,9.2,7,9.6,7h10.2c0.4,0,0.7,0.3,0.7,0.7v14.9
		C20.5,23,20.2,23.4,19.8,23.4z M9.6,7.6c-0.1,0-0.2,0.1-0.2,0.2v14.9c0,0.1,0.1,0.2,0.2,0.2h10.2c0.1,0,0.2-0.1,0.2-0.2V7.8
		c0-0.1-0.1-0.2-0.2-0.2H9.6z"/>
	<path class="st0" d="M11.6,14.3c-0.6,0-1-0.5-1-1s0.5-1,1-1c0.6,0,1,0.5,1,1S12.1,14.3,11.6,14.3z M11.6,12.7
		c-0.3,0-0.5,0.2-0.5,0.5s0.2,0.5,0.5,0.5s0.5-0.2,0.5-0.5S11.8,12.7,11.6,12.7z"/>
	<path class="st0" d="M12.3,11.2h-1.4c-0.1,0-0.3-0.1-0.3-0.3V9.5c0-0.1,0.1-0.3,0.3-0.3h1.4c0.1,0,0.3,0.1,0.3,0.3v1.4
		C12.5,11.1,12.4,11.2,12.3,11.2z M11.2,10.7H12V9.8h-0.9V10.7z"/>
	<path class="st0" d="M18.3,10.6h-5.2c-0.1,0-0.3-0.1-0.3-0.3s0.1-0.3,0.3-0.3h5.2c0.1,0,0.3,0.1,0.3,0.3S18.4,10.6,18.3,10.6z"/>
	<path class="st0" d="M11.6,20.8c-0.1,0-0.1,0-0.2-0.1l-1-1c0,0-0.1-0.1-0.1-0.2s0-0.1,0.1-0.2l1-1c0.1-0.1,0.3-0.1,0.4,0l1,1
		c0,0,0.1,0.1,0.1,0.2s0,0.1-0.1,0.2l-1,1C11.7,20.8,11.7,20.8,11.6,20.8z M11,19.6l0.6,0.6l0.6-0.6l-0.6-0.6L11,19.6z"/>
	<path class="st0" d="M18.3,19.9h-5.2c-0.1,0-0.3-0.1-0.3-0.3s0.1-0.3,0.3-0.3h5.2c0.1,0,0.3,0.1,0.3,0.3S18.4,19.9,18.3,19.9z"/>
	<path class="st0" d="M18.3,13.5h-5.2c-0.1,0-0.3-0.1-0.3-0.3s0.1-0.3,0.3-0.3h5.2c0.1,0,0.3,0.1,0.3,0.3S18.4,13.5,18.3,13.5z"/>
	<path class="st0" d="M18.3,16.8h-5.2c-0.1,0-0.3-0.1-0.3-0.3s0.1-0.3,0.3-0.3h5.2c0.1,0,0.3,0.1,0.3,0.3S18.4,16.8,18.3,16.8z"/>
	<path class="st0" d="M11.5,17.5L11.5,17.5c-0.1,0-0.2,0-0.2-0.1l-0.8-1.5c0-0.1,0-0.2,0-0.3c0-0.1,0.1-0.1,0.2-0.1h1.7
		c0.1,0,0.2,0,0.2,0.1c0,0.1,0,0.2,0,0.3l-0.8,1.5C11.7,17.5,11.6,17.5,11.5,17.5z M11.1,16.1l0.4,0.7l0.4-0.7H11.1z"/>
</g>
</svg>
