<?xml version="1.0" encoding="utf-8"?>
<!-- Generator: Adobe Illustrator 24.3.0, SVG Export Plug-In . SVG Version: 6.00 Build 0)  -->
<svg version="1.1" id="Capa_1" xmlns="http://www.w3.org/2000/svg" xmlns:xlink="http://www.w3.org/1999/xlink" x="0px" y="0px"
	 viewBox="0 0 30 30" style="enable-background:new 0 0 30 30;" xml:space="preserve">
<style type="text/css">
	.st0{fill:#006dd9;}
</style>
<g>
	<path class="st0" d="M25.6,9.7H4.5c-0.2,0-0.3-0.1-0.3-0.3s0.1-0.3,0.3-0.3h21.1c0.2,0,0.3,0.1,0.3,0.3S25.8,9.7,25.6,9.7z"/>
	<path class="st0" d="M7.7,7.4C7.6,7.4,7.6,7.4,7.7,7.4c-1-0.2-1.6-1.1-1.4-2c0.2-0.9,1.1-1.5,2-1.3c0.4,0.1,0.8,0.3,1.1,0.7
		C9.6,5.1,9.7,5.6,9.6,6c0,0.2-0.2,0.3-0.3,0.2C9.1,6.2,9,6,9,5.9c0.1-0.3,0-0.6-0.2-0.8C8.7,4.9,8.4,4.7,8.1,4.7
		C7.5,4.5,7,4.9,6.8,5.5C6.7,6.1,7.1,6.7,7.7,6.8C7.9,6.8,8,7,7.9,7.1C7.9,7.3,7.8,7.4,7.7,7.4z"/>
	<path class="st0" d="M12.2,7.4C12.2,7.4,12.2,7.4,12.2,7.4c-0.5-0.1-0.9-0.3-1.1-0.7c-0.3-0.4-0.3-0.8-0.3-1.3
		c0.2-0.9,1.1-1.5,2-1.3c0.4,0.1,0.8,0.3,1.1,0.7c0.3,0.4,0.4,0.8,0.3,1.2c0,0.2-0.2,0.3-0.3,0.2c-0.2,0-0.3-0.2-0.2-0.3
		c0.1-0.6-0.3-1.1-0.9-1.2c-0.6-0.1-1.2,0.3-1.3,0.9c-0.1,0.3,0,0.6,0.2,0.8c0.2,0.2,0.4,0.4,0.7,0.5c0.2,0,0.3,0.2,0.2,0.3
		C12.5,7.3,12.4,7.4,12.2,7.4z"/>
	<path class="st0" d="M16.8,7.4C16.8,7.4,16.8,7.4,16.8,7.4c-0.5-0.1-0.9-0.3-1.1-0.7c-0.3-0.4-0.3-0.8-0.3-1.3c0.2-0.9,1-1.5,2-1.3
		c0.9,0.2,1.5,1,1.4,1.9c0,0.2-0.2,0.3-0.3,0.2c-0.2,0-0.3-0.2-0.2-0.3c0.1-0.6-0.3-1.1-0.9-1.2c-0.6-0.1-1.2,0.3-1.3,0.9
		c-0.1,0.6,0.3,1.2,0.9,1.3c0.2,0,0.3,0.2,0.2,0.3C17.1,7.3,17,7.4,16.8,7.4z"/>
	<path class="st0" d="M21.4,7.4C21.4,7.4,21.4,7.4,21.4,7.4c-0.5-0.1-0.9-0.3-1.1-0.7C20,6.3,19.9,5.9,20,5.4c0.2-0.9,1.1-1.5,2-1.3
		c0.4,0.1,0.8,0.3,1.1,0.7c0.3,0.4,0.4,0.8,0.3,1.2c0,0.2-0.2,0.3-0.3,0.2c-0.2,0-0.3-0.2-0.2-0.3c0.1-0.6-0.3-1.1-0.9-1.2
		c-0.6-0.1-1.2,0.3-1.3,0.9c-0.1,0.6,0.3,1.2,0.9,1.3c0.2,0,0.3,0.2,0.2,0.3C21.7,7.3,21.6,7.4,21.4,7.4z"/>
	<path class="st0" d="M23.7,25.3H6.4c-1.3,0-2.3-1-2.3-2.3V8.1c0-1.3,1-2.3,2.3-2.3h17.3c1.3,0,2.3,1,2.3,2.3V23
		C26,24.3,25,25.3,23.7,25.3z M6.4,6.4c-0.9,0-1.7,0.8-1.7,1.7V23c0,0.9,0.8,1.7,1.7,1.7h17.3c0.9,0,1.7-0.8,1.7-1.7V8.1
		c0-0.9-0.8-1.7-1.7-1.7H6.4z"/>
	<path class="st0" d="M11.1,16H6.4c-0.2,0-0.3-0.1-0.3-0.3v-3.7c0-0.2,0.1-0.3,0.3-0.3h4.7c0.2,0,0.3,0.1,0.3,0.3v3.7
		C11.4,15.8,11.3,16,11.1,16z M6.7,15.4h4.1v-3.1H6.7V15.4z"/>
	<path class="st0" d="M17.4,16h-4.7c-0.2,0-0.3-0.1-0.3-0.3v-3.7c0-0.2,0.1-0.3,0.3-0.3h4.7c0.2,0,0.3,0.1,0.3,0.3v3.7
		C17.7,15.8,17.5,16,17.4,16z M12.9,15.4h4.1v-3.1h-4.1V15.4z"/>
	<path class="st0" d="M23.6,16h-4.7c-0.2,0-0.3-0.1-0.3-0.3v-3.7c0-0.2,0.1-0.3,0.3-0.3h4.7c0.2,0,0.3,0.1,0.3,0.3v3.7
		C23.9,15.8,23.8,16,23.6,16z M19.2,15.4h4.1v-3.1h-4.1V15.4z"/>
	<path class="st0" d="M11.1,22.1H6.4c-0.2,0-0.3-0.1-0.3-0.3v-3.7c0-0.2,0.1-0.3,0.3-0.3h4.7c0.2,0,0.3,0.1,0.3,0.3v3.7
		C11.4,22,11.3,22.1,11.1,22.1z M6.7,21.5h4.1v-3.1H6.7V21.5z"/>
	<path class="st0" d="M17.4,22.1h-4.7c-0.2,0-0.3-0.1-0.3-0.3v-3.7c0-0.2,0.1-0.3,0.3-0.3h4.7c0.2,0,0.3,0.1,0.3,0.3v3.7
		C17.7,22,17.5,22.1,17.4,22.1z M12.9,21.5h4.1v-3.1h-4.1V21.5z"/>
	<path class="st0" d="M23.6,22.1h-4.7c-0.2,0-0.3-0.1-0.3-0.3v-3.7c0-0.2,0.1-0.3,0.3-0.3h4.7c0.2,0,0.3,0.1,0.3,0.3v3.7
		C23.9,22,23.8,22.1,23.6,22.1z M19.2,21.5h4.1v-3.1h-4.1V21.5z"/>
	<path class="st0" d="M12.2,16.5c-0.1,0-0.2,0-0.2-0.1c-0.1-0.1-0.1-0.3,0-0.4l5.8-4.8c0.1-0.1,0.3-0.1,0.4,0c0.1,0.1,0.1,0.3,0,0.4
		l-5.8,4.8C12.3,16.4,12.2,16.5,12.2,16.5z"/>
	<path class="st0" d="M18.4,16.5c-0.1,0-0.2,0-0.2-0.1c-0.1-0.1-0.1-0.3,0-0.4l5.8-4.8c0.1-0.1,0.3-0.1,0.4,0c0.1,0.1,0.1,0.3,0,0.4
		l-5.8,4.8C18.5,16.4,18.5,16.5,18.4,16.5z"/>
	<path class="st0" d="M5.9,22.7c-0.1,0-0.2,0-0.2-0.1c-0.1-0.1-0.1-0.3,0-0.4l5.8-4.8c0.1-0.1,0.3-0.1,0.4,0c0.1,0.1,0.1,0.3,0,0.4
		l-5.8,4.8C6,22.7,5.9,22.7,5.9,22.7z"/>
	<path class="st0" d="M12.1,22.6c-0.1,0-0.2,0-0.2-0.1c-0.1-0.1-0.1-0.3,0-0.4l5.8-4.8c0.1-0.1,0.3-0.1,0.4,0c0.1,0.1,0.1,0.3,0,0.4
		l-5.8,4.8C12.2,22.6,12.2,22.6,12.1,22.6z"/>
</g>
</svg>
