<?xml version="1.0" encoding="utf-8"?>
<!-- Generator: Adobe Illustrator 24.3.0, SVG Export Plug-In . SVG Version: 6.00 Build 0)  -->
<svg version="1.1" id="Capa_1" xmlns="http://www.w3.org/2000/svg" xmlns:xlink="http://www.w3.org/1999/xlink" x="0px" y="0px"
	 viewBox="0 0 30 30" style="enable-background:new 0 0 30 30;" xml:space="preserve">
<style type="text/css">
	.st0{fill:#006dd9;}
</style>
<g>
	<g>
		<g>
			<path class="st0" d="M19.4,24c0,0-0.1,0-0.1,0c-0.1,0-0.1-0.1-0.1-0.2l0-12.5c0-0.1,0-0.2,0.1-0.2l4.8-2.4c0.1,0,0.2,0,0.2,0
				c0.1,0,0.1,0.1,0.1,0.2v12.5c0,0.1,0,0.2-0.1,0.2L19.4,24C19.4,24,19.4,24,19.4,24z M19.6,11.4l0,12l4.4-2.2v-12L19.6,11.4z
				 M24.2,21.4L24.2,21.4L24.2,21.4z"/>
			<path class="st0" d="M19.4,24C19.3,24,19.3,24,19.4,24l-4.9-2.4c-0.1,0-0.1-0.1-0.1-0.2V8.9c0-0.1,0-0.1,0.1-0.2
				c0.1,0,0.1,0,0.2,0l4.8,2.4c0.1,0,0.1,0.1,0.1,0.2v12.5c0,0.1,0,0.1-0.1,0.2C19.5,24,19.4,24,19.4,24z M14.8,21.2l4.4,2.2v-12
				l-4.4-2.2V21.2z"/>
			<path class="st0" d="M19.4,11.5C19.3,11.5,19.3,11.5,19.4,11.5l-4.9-2.4c-0.1,0-0.1-0.1-0.1-0.2c0-0.1,0-0.2,0.1-0.2l4.8-2.4
				c0.1,0,0.1,0,0.2,0l4.8,2.4c0.1,0,0.1,0.1,0.1,0.2c0,0.1,0,0.2-0.1,0.2L19.4,11.5C19.4,11.5,19.4,11.5,19.4,11.5z M15,8.9
				l4.3,2.2l4.3-2.2l-4.3-2.2L15,8.9z"/>
			<g>
				<path class="st0" d="M19.4,11.5C19.3,11.5,19.3,11.5,19.4,11.5l-4.9-2.4c-0.1,0-0.1-0.1-0.1-0.2c0-0.1,0-0.2,0.1-0.2
					c0.1,0,0.2,0,0.2,0l4.8,2.4c0.1,0,0.1,0.1,0.1,0.2c0,0.1,0,0.2-0.1,0.2C19.5,11.5,19.4,11.5,19.4,11.5z"/>
			</g>
			<g>
				<path class="st0" d="M19.4,11.5c0,0-0.1,0-0.1,0c-0.1,0-0.1-0.1-0.1-0.2v0c0-0.1,0-0.2,0.1-0.2l4.8-2.4c0.1,0,0.1,0,0.2,0
					c0.1,0,0.1,0.1,0.1,0.2c0,0.1,0,0.2-0.1,0.2L19.4,11.5C19.4,11.5,19.4,11.5,19.4,11.5z"/>
			</g>
			<path class="st0" d="M19.4,11.5c-0.1,0-0.2,0-0.2-0.1c0,0,0-0.1,0-0.1c0-0.1,0-0.2,0.1-0.2l4.8-2.4c0.1-0.1,0.2,0,0.3,0.1
				c0,0,0,0.1,0,0.1c0,0.1,0,0.2-0.1,0.2L19.4,11.5C19.4,11.5,19.4,11.5,19.4,11.5z"/>
		</g>
		<path class="st0" d="M17.2,12.9C17.1,12.9,17.1,12.9,17.2,12.9l-0.8-0.4c-0.1,0-0.1-0.1-0.1-0.2V9.9c0-0.1,0-0.1,0.1-0.2
			c0.1,0,0.1,0,0.2,0l0.7,0.3c0.1,0,0.1,0.1,0.1,0.2v2.5c0,0.1,0,0.1-0.1,0.2C17.2,12.9,17.2,12.9,17.2,12.9z M16.7,12.2l0.3,0.1v-2
			l-0.3-0.1V12.2z"/>
		<path class="st0" d="M17.2,10.4C17.1,10.4,17.1,10.4,17.2,10.4l-0.8-0.4c-0.1,0-0.1-0.1-0.1-0.2c0-0.1,0-0.2,0.1-0.2l4.9-2.4
			c0.1,0,0.1,0,0.2,0l0.7,0.3c0.1,0,0.1,0.1,0.1,0.2c0,0.1,0,0.2-0.1,0.2L17.2,10.4C17.2,10.4,17.2,10.4,17.2,10.4z M17,9.9l0.2,0.1
			l4.4-2.2l-0.2-0.1L17,9.9z"/>
	</g>
	<path class="st0" d="M11.7,9.1H5.4C5.2,9.1,5.1,9,5.1,8.9s0.1-0.2,0.2-0.2h6.3c0.1,0,0.2,0.1,0.2,0.2S11.8,9.1,11.7,9.1z"/>
	<path class="st0" d="M11.7,12.7H5.4c-0.1,0-0.2-0.1-0.2-0.2s0.1-0.2,0.2-0.2h6.3c0.1,0,0.2,0.1,0.2,0.2S11.8,12.7,11.7,12.7z"/>
	<path class="st0" d="M11.7,17.1H5.4c-0.1,0-0.2-0.1-0.2-0.2c0-0.1,0.1-0.2,0.2-0.2h6.3c0.1,0,0.2,0.1,0.2,0.2
		C11.9,17,11.8,17.1,11.7,17.1z"/>
	<path class="st0" d="M11.7,21.6H5.4c-0.1,0-0.2-0.1-0.2-0.2c0-0.1,0.1-0.2,0.2-0.2h6.3c0.1,0,0.2,0.1,0.2,0.2
		C11.9,21.5,11.8,21.6,11.7,21.6z"/>
</g>
</svg>
