<?xml version="1.0" encoding="utf-8"?>
<!-- Generator: Adobe Illustrator 24.3.0, SVG Export Plug-In . SVG Version: 6.00 Build 0)  -->
<svg version="1.1" id="Capa_1" xmlns="http://www.w3.org/2000/svg" xmlns:xlink="http://www.w3.org/1999/xlink" x="0px" y="0px"
	 viewBox="0 0 30 30" style="enable-background:new 0 0 30 30;" xml:space="preserve">
<style type="text/css">
	.st0{fill:#006dd9;}
</style>
<g>
	<g>
		<path class="st0" d="M9.3,13.5c-0.2,0-0.3-0.1-0.3-0.3V12c0-0.2,0.1-0.3,0.3-0.3h2.3c0.2,0,0.3,0.1,0.3,0.3v1.2
			c0,0.2-0.1,0.3-0.3,0.3s-0.3-0.1-0.3-0.3v-0.9H9.6v1C9.6,13.4,9.4,13.5,9.3,13.5z"/>
		<path class="st0" d="M17.2,19c-0.2,0-0.3-0.1-0.3-0.3v-6.5h-1.8v2.4c0,0.2-0.1,0.3-0.3,0.3s-0.3-0.1-0.3-0.3V12
			c0-0.2,0.1-0.3,0.3-0.3h2.3c0.2,0,0.3,0.1,0.3,0.3v6.8C17.5,18.9,17.4,19,17.2,19z"/>
		<path class="st0" d="M22.8,19h-2.3c-0.2,0-0.3-0.1-0.3-0.3V12c0-0.2,0.1-0.3,0.3-0.3h2.3c0.2,0,0.3,0.1,0.3,0.3v6.8
			C23.1,18.9,23,19,22.8,19z M20.8,18.5h1.8v-6.2h-1.8V18.5z"/>
	</g>
	<path class="st0" d="M24.1,22h-7c-0.2,0-0.3-0.1-0.3-0.3s0.1-0.3,0.3-0.3h6.7v-1.3h-6.3c-0.2,0-0.3-0.1-0.3-0.3s0.1-0.3,0.3-0.3
		h6.6c0.2,0,0.3,0.1,0.3,0.3v1.9C24.3,21.9,24.2,22,24.1,22z"/>
	<path class="st0" d="M24.3,11H7.8c-0.1,0-0.2-0.1-0.3-0.2s0-0.2,0.1-0.3l8.2-5.3c0.1-0.1,0.2-0.1,0.3,0l8.2,5.3
		c0.1,0.1,0.2,0.2,0.1,0.3S24.4,11,24.3,11z M8.8,10.5h14.6L16,5.8L8.8,10.5z M16,9.6c-0.8,0-1.4-0.6-1.4-1.4s0.6-1.4,1.4-1.4
		c0.8,0,1.4,0.6,1.4,1.4S16.8,9.6,16,9.6z M16,7.2c-0.5,0-0.9,0.4-0.9,0.9S15.6,9,16,9s0.9-0.4,0.9-0.9S16.5,7.2,16,7.2z"/>
	<g>
		<g>
			<path class="st0" d="M10.7,19.9c-0.7,0-1.3-0.4-1.7-1c-0.2-0.3-0.3-0.7-0.3-1c0-1.1,0.9-2,2-2c1.1,0,2,0.9,2,2
				c0,0.4-0.1,0.7-0.3,1C12,19.6,11.4,19.9,10.7,19.9z M10.7,16.5c-0.8,0-1.4,0.6-1.4,1.4c0,0.3,0.1,0.5,0.2,0.7
				c0.3,0.4,0.7,0.7,1.2,0.7c0.5,0,1-0.3,1.2-0.7c0.1-0.2,0.2-0.5,0.2-0.7C12.1,17.1,11.4,16.5,10.7,16.5z"/>
			<path class="st0" d="M13.4,23.7H7.9c-0.1,0-0.2,0-0.2-0.1c-0.1-0.1-0.1-0.1-0.1-0.2c0.2-1.9,1.5-3.3,3-3.3s2.8,1.4,3,3.3
				c0,0.1,0,0.2-0.1,0.2C13.6,23.6,13.5,23.7,13.4,23.7z M8.2,23.1h4.9c-0.3-1.5-1.3-2.5-2.4-2.5C9.5,20.6,8.5,21.6,8.2,23.1z"/>
		</g>
		<path class="st0" d="M10.7,25.8c-3.3,0-6-2.7-6-6s2.7-6,6-6c3.3,0,6,2.7,6,6S14,25.8,10.7,25.8z M10.7,14.3c-3,0-5.5,2.5-5.5,5.5
			c0,3,2.5,5.5,5.5,5.5c3,0,5.5-2.5,5.5-5.5C16.1,16.8,13.7,14.3,10.7,14.3z"/>
	</g>
</g>
</svg>
