<?xml version="1.0" encoding="utf-8"?>
<!-- Generator: Adobe Illustrator 24.3.0, SVG Export Plug-In . SVG Version: 6.00 Build 0)  -->
<svg version="1.1" id="Capa_1" xmlns="http://www.w3.org/2000/svg" xmlns:xlink="http://www.w3.org/1999/xlink" x="0px" y="0px"
	 viewBox="0 0 30 30" style="enable-background:new 0 0 30 30;" xml:space="preserve">
<style type="text/css">
	.st0{fill:#006dd9;}
</style>
<path class="st0" d="M24.4,24.5H5.5c-1,0-1.8-0.8-1.8-1.8V10.6c0-1,0.8-1.8,1.8-1.8h9.7V7.3c0-0.9,0.7-1.5,1.5-1.5h7.9
	c0.9,0,1.5,0.7,1.5,1.5v15.4C26.2,23.7,25.4,24.5,24.4,24.5z M5.5,9.5c-0.6,0-1.1,0.5-1.1,1.1v12.1c0,0.6,0.5,1.1,1.1,1.1h18.9
	c0.6,0,1.1-0.5,1.1-1.1V7.3c0-0.5-0.4-0.9-0.9-0.9h-7.9c-0.5,0-0.9,0.4-0.9,0.9v1.8c0,0.2-0.2,0.3-0.3,0.3H5.5z"/>
<path class="st0" d="M25.8,9.5H15.5c-0.2,0-0.3-0.2-0.3-0.3c0-0.2,0.2-0.3,0.3-0.3h10.3c0.2,0,0.3,0.2,0.3,0.3
	C26.2,9.3,26,9.5,25.8,9.5z"/>
</svg>
