<?xml version="1.0" encoding="utf-8"?>
<!-- Generator: Adobe Illustrator 24.3.0, SVG Export Plug-In . SVG Version: 6.00 Build 0)  -->
<svg version="1.1" id="Capa_1" xmlns="http://www.w3.org/2000/svg" xmlns:xlink="http://www.w3.org/1999/xlink" x="0px" y="0px"
	 viewBox="0 0 30 30" style="enable-background:new 0 0 30 30;" xml:space="preserve">
<style type="text/css">
	.st0{fill:#104A8E;}
	.st1{font-family:'Arciform';}
	.st2{font-size:1.9475px;}
</style>
<g>
	<path class="st0" d="M10.1,18H6.6c-1.2,0-2.2-1-2.2-2.2V9.6c0-1.2,1-2.2,2.2-2.2h10.8c1.2,0,2.2,1,2.2,2.2v1.1
		c0,0.2-0.1,0.3-0.3,0.3c-0.2,0-0.3-0.1-0.3-0.3V9.6c0-0.9-0.7-1.6-1.6-1.6H6.6C5.7,8,5,8.8,5,9.6v6.2c0,0.9,0.7,1.6,1.6,1.6h3.5
		c0.2,0,0.3,0.1,0.3,0.3C10.4,17.9,10.2,18,10.1,18z"/>
	<text transform="matrix(1 0 0 1 6.3249 14.0534)" class="st0 st1 st2">4270</text>
	<path class="st0" d="M23.6,21.9H12.8c-1.2,0-2.2-1-2.2-2.2v-6.2c0-1.2,1-2.2,2.2-2.2h10.8c1.2,0,2.2,1,2.2,2.2v6.2
		C25.7,20.9,24.8,21.9,23.6,21.9z M12.8,11.9c-0.9,0-1.6,0.7-1.6,1.6v6.2c0,0.9,0.7,1.6,1.6,1.6h10.8c0.9,0,1.6-0.7,1.6-1.6v-6.2
		c0-0.9-0.7-1.6-1.6-1.6H12.8z"/>
	<text transform="matrix(1 0 0 1 12.5505 17.8898)" class="st0 st1 st2">5455 78 0065</text>
	<path class="st0" d="M10.4,10.6H6.5c-0.2,0-0.3-0.1-0.3-0.3S6.3,10,6.5,10h3.9c0.2,0,0.3,0.1,0.3,0.3S10.5,10.6,10.4,10.6z"/>
	<path class="st0" d="M17,14.7h-3.9c-0.2,0-0.3-0.1-0.3-0.3s0.1-0.3,0.3-0.3H17c0.2,0,0.3,0.1,0.3,0.3S17.1,14.7,17,14.7z"/>
</g>
</svg>
