<svg id="Capa_1" data-name="Capa 1" xmlns="http://www.w3.org/2000/svg" viewBox="0 0 200 200"><defs><style>.cls-1{fill:#006dd9;}</style></defs><path class="cls-1" d="M21,58.17H40.54a18.47,18.47,0,0,0,35.84,0H181a5,5,0,0,0,0-10H76.12a18.5,18.5,0,0,0-35.33,0H21a5,5,0,1,0,0,10Zm37.5-13a8.5,8.5,0,1,1-8.5,8.5A8.51,8.51,0,0,1,58.46,45.17Z"/><path class="cls-1" d="M181,98.74H161.38a18.47,18.47,0,0,0-35.84,0H21a5,5,0,1,0,0,10H125.79a18.5,18.5,0,0,0,35.33,0H181a5,5,0,0,0,0-10Zm-37.5,13a8.5,8.5,0,1,1,8.5-8.5A8.51,8.51,0,0,1,143.46,111.74Z"/><path class="cls-1" d="M181,148.19H100.14a18.5,18.5,0,0,0-35.33,0H21a5,5,0,0,0,0,10H64.55a18.48,18.48,0,0,0,35.85,0H181a5,5,0,0,0,0-10Zm-98.49,14a8.5,8.5,0,1,1,8.5-8.5A8.51,8.51,0,0,1,82.47,162.19Z"/></svg>