<?xml version="1.0" encoding="utf-8"?>
<!-- Generator: Adobe Illustrator 24.3.0, SVG Export Plug-In . SVG Version: 6.00 Build 0)  -->
<svg version="1.1" id="Capa_1" xmlns="http://www.w3.org/2000/svg" xmlns:xlink="http://www.w3.org/1999/xlink" x="0px" y="0px"
	 viewBox="0 0 30 30" style="enable-background:new 0 0 30 30;" xml:space="preserve">
<style type="text/css">
	.st0{fill:#006dd9;}
</style>
<g>
	<path class="st0" d="M26.5,19.3h-0.7c-0.3,0-0.6-0.2-0.7-0.5c0,0,0-0.1,0-0.1l0-0.8c0-0.1-0.1-0.1-0.2-0.1l-3.5,0
		c-0.4,0-0.8-0.4-0.8-0.8c0,0,0,0,0-0.1l1.3-5.9c0-0.4,0.3-0.7,0.8-0.7h2.7c0.3,0,0.5,0.2,0.7,0.4l1.9,3.8c0.1,0.1,0.1,0.2,0.1,0.4
		l-0.9,3.7C27.2,19,26.9,19.3,26.5,19.3z M25.6,18.7c0,0.1,0.1,0.1,0.2,0.1h0.7c0.1,0,0.2-0.1,0.2-0.3l0.9-3.7c0,0,0,0,0-0.1
		L25.7,11c0-0.1-0.1-0.1-0.2-0.1h-2.7c-0.1,0-0.2,0.1-0.2,0.3l-1.3,5.9c0,0.1,0.1,0.3,0.2,0.3l3.5,0c0.3,0,0.6,0.2,0.7,0.5
		c0,0,0,0.1,0,0.1L25.6,18.7z"/>
	<path class="st0" d="M25.5,14.3h-1.6c-0.4,0-0.8-0.4-0.8-0.8l0.3-1.2c0,0,0,0,0,0c0.1-0.4,0.5-0.7,0.8-0.7h0.7
		c0.3,0,0.5,0.1,0.6,0.4l0.6,1.3c0.1,0.3,0.1,0.6,0,0.8C26,14.2,25.7,14.3,25.5,14.3z M23.9,12.4l-0.3,1.1c0,0.1,0.1,0.2,0.2,0.2
		h1.6c0.1,0,0.2-0.1,0.2-0.1c0.1-0.1,0.1-0.2,0-0.3l-0.6-1.2c0,0-0.1-0.1-0.2-0.1h-0.7C24.1,12.1,23.9,12.2,23.9,12.4z"/>
	<path class="st0" d="M22.5,22.2C22.5,22.2,22.5,22.2,22.5,22.2c-0.4,0-0.6-0.2-0.8-0.4c-0.3-0.4-0.3-0.9-0.1-1.4
		c0.3-0.9,1.1-1.6,1.9-1.6c0.3,0,0.6,0.2,0.8,0.4c0.3,0.4,0.3,0.9,0.1,1.4c0,0,0,0,0,0C24.1,21.5,23.2,22.2,22.5,22.2z M23.4,19.3
		c-0.5,0-1.1,0.6-1.4,1.3c-0.1,0.4-0.1,0.7,0,1c0.1,0.1,0.2,0.2,0.4,0.2c0,0,0,0,0,0c0.5,0,1.1-0.6,1.4-1.3l0,0c0.1-0.4,0.1-0.7,0-1
		C23.7,19.3,23.6,19.3,23.4,19.3C23.4,19.3,23.4,19.3,23.4,19.3z M24.1,20.5L24.1,20.5L24.1,20.5z"/>
	<path class="st0" d="M15.4,22.1C15.4,22.1,15.4,22.1,15.4,22.1c-0.4,0-0.6-0.2-0.8-0.4c-0.3-0.4-0.3-0.9-0.1-1.4
		c0.3-0.9,1.1-1.6,1.9-1.6c0.3,0,0.6,0.2,0.8,0.4c0.3,0.4,0.3,0.9,0.1,1.4l0,0C17,21.4,16.2,22.1,15.4,22.1z M16.3,19.1
		c-0.5,0-1.1,0.6-1.4,1.3c-0.1,0.4-0.1,0.7,0,1c0.1,0.1,0.2,0.2,0.4,0.2c0,0,0,0,0,0c0.5,0,1.1-0.6,1.4-1.3c0,0,0,0,0,0
		c0.1-0.4,0.1-0.7,0-1C16.7,19.2,16.5,19.1,16.3,19.1C16.4,19.1,16.4,19.1,16.3,19.1z"/>
	<path class="st0" d="M11.9,22C11.9,22,11.9,22,11.9,22c-0.4,0-0.6-0.2-0.8-0.4c-0.3-0.4-0.3-0.9-0.1-1.4c0.3-0.9,1.1-1.6,1.9-1.6
		c0,0,0,0,0,0c0.3,0,0.6,0.2,0.8,0.4c0.3,0.4,0.3,0.9,0.1,1.4C13.5,21.3,12.7,22,11.9,22z M12.8,19.1c-0.5,0-1.1,0.6-1.4,1.3
		c-0.1,0.4-0.1,0.7,0,1c0.1,0.1,0.2,0.2,0.4,0.2c0,0,0,0,0,0c0.5,0,1.1-0.6,1.4-1.3c0,0,0,0,0,0c0.1-0.4,0.1-0.7,0-1
		C13.2,19.1,13,19.1,12.8,19.1C12.9,19.1,12.8,19.1,12.8,19.1z"/>
	<path class="st0" d="M18.9,17.7H9.5c-0.4,0-0.8-0.4-0.8-0.8l2.1-8.5c0-0.4,0.3-0.7,0.8-0.7h13.2c0.4,0,0.8,0.4,0.8,0.8
		c0,0.4-0.3,0.8-0.8,0.8h-3.3c-0.1,0-0.2,0.1-0.2,0.3l-1.7,7.4C19.6,17.3,19.3,17.7,18.9,17.7z M11.6,8.2c-0.1,0-0.2,0.1-0.2,0.3
		l-2.1,8.5c0,0.1,0.1,0.2,0.2,0.2h9.4c0.1,0,0.2-0.1,0.2-0.3l1.7-7.4c0-0.4,0.3-0.7,0.8-0.7h3.3c0.1,0,0.2-0.1,0.2-0.3
		c0-0.2-0.1-0.3-0.2-0.3H11.6z"/>
	<path class="st0" d="M10,20.2H9.5c-0.4,0-0.8-0.4-0.8-0.8c0,0,0-0.1,0-0.1L9,18.7c0.1-0.1,0.2-0.2,0.3-0.1c0.1,0.1,0.2,0.2,0.1,0.3
		l-0.2,0.6c0,0.1,0.1,0.2,0.2,0.2H10c0.1,0,0.3,0.1,0.3,0.3C10.3,20.1,10.2,20.2,10,20.2z"/>
	<path class="st0" d="M20.9,20.2h-2.6c-0.1,0-0.3-0.1-0.3-0.3c0-0.1,0.1-0.3,0.3-0.3h2.6c0.1,0,0.3,0.1,0.3,0.3
		C21.2,20,21.1,20.2,20.9,20.2z"/>
	<path class="st0" d="M9,9.4H2.2C2.1,9.4,2,9.3,2,9.1C2,9,2.1,8.9,2.2,8.9H9c0.1,0,0.3,0.1,0.3,0.3C9.3,9.3,9.2,9.4,9,9.4z"/>
	<path class="st0" d="M6.1,15.7H4.2c-0.1,0-0.3-0.1-0.3-0.3s0.1-0.3,0.3-0.3h1.9c0.1,0,0.3,0.1,0.3,0.3S6.2,15.7,6.1,15.7z"/>
	<path class="st0" d="M8.1,12.5H5.2c-0.1,0-0.3-0.1-0.3-0.3S5,12,5.2,12h2.9c0.1,0,0.3,0.1,0.3,0.3S8.2,12.5,8.1,12.5z"/>
</g>
</svg>
