<?xml version="1.0" encoding="utf-8"?>
<!-- Generator: Adobe Illustrator 24.3.0, SVG Export Plug-In . SVG Version: 6.00 Build 0)  -->
<svg version="1.1" id="Capa_1" xmlns="http://www.w3.org/2000/svg" xmlns:xlink="http://www.w3.org/1999/xlink" x="0px" y="0px"
	 viewBox="0 0 30 30" style="enable-background:new 0 0 30 30;" xml:space="preserve">
<style type="text/css">
	.st0{fill:#006dd9;}
</style>
<g>
	<path class="st0" d="M24.8,21.5H4.9c-1.2,0-2.1-0.9-2.1-2.1v-7.8c0-1.2,0.9-2.1,2.1-2.1h19.9c1.2,0,2.1,0.9,2.1,2.1v7.8
		C26.9,20.5,26,21.5,24.8,21.5z M4.9,10c-0.8,0-1.5,0.7-1.5,1.5v7.8c0,0.8,0.7,1.5,1.5,1.5h19.9c0.8,0,1.5-0.7,1.5-1.5v-7.8
		c0-0.8-0.7-1.5-1.5-1.5H4.9z"/>
	<path class="st0" d="M18.9,13.5h5.6c0.1,0,0.3,0.1,0.4,0.2c0,0.1,0,0.3,0,0.4l-2.7,3.1c-0.1,0.1-0.3,0.2-0.4,0.2l0,0
		c-0.2,0-0.3-0.1-0.4-0.2l0,0l-2.7-3.1c0-0.1-0.1-0.3,0-0.4C18.6,13.6,18.8,13.5,18.9,13.5z M21.7,17.1L21.7,17.1c0,0,0.1,0,0.1-0.1
		l2.7-3.1h-5.6l2.7,3.1l0,0C21.6,17.1,21.6,17.1,21.7,17.1z"/>
</g>
</svg>
