<?xml version="1.0" encoding="utf-8"?>
<!-- Generator: Adobe Illustrator 24.3.0, SVG Export Plug-In . SVG Version: 6.00 Build 0)  -->
<svg version="1.1" id="Capa_1" xmlns="http://www.w3.org/2000/svg" xmlns:xlink="http://www.w3.org/1999/xlink" x="0px" y="0px"
	 viewBox="0 0 30 30" style="enable-background:new 0 0 30 30;" xml:space="preserve">
<style type="text/css">
	.st0{fill:#006dd9;}
</style>
<g>
	<g>
		<path class="st0" d="M18.3,19.9c-0.4,0-0.8,0-1.3-0.1c-1.7-0.3-3.2-1.3-4.1-2.8c-2-3-1.2-7,1.8-9c3-2,7-1.2,9,1.8
			c1,1.4,1.3,3.2,1,4.9c-0.3,1.7-1.3,3.2-2.8,4.1C20.8,19.5,19.6,19.9,18.3,19.9z M18.3,7.5c-1.1,0-2.3,0.3-3.3,1
			c-2.7,1.8-3.4,5.5-1.6,8.2c0.9,1.3,2.2,2.2,3.8,2.5c1.5,0.3,3.1,0,4.4-0.9c1.3-0.9,2.2-2.2,2.5-3.8c0.3-1.5,0-3.1-0.9-4.4
			C22,8.4,20.2,7.5,18.3,7.5z"/>
		<path class="st0" d="M18.3,17.9c-0.3,0-0.6,0-0.9-0.1c-1.2-0.2-2.2-0.9-2.9-1.9c-0.7-1-0.9-2.2-0.7-3.4c0.2-1.2,0.9-2.2,1.9-2.9
			c2.1-1.4,4.9-0.8,6.3,1.2c0.7,1,0.9,2.2,0.7,3.4c-0.2,1.2-0.9,2.2-1.9,2.9l0,0C20,17.7,19.2,17.9,18.3,17.9z M18.3,9.5
			c-0.7,0-1.5,0.2-2.2,0.7c-0.9,0.6-1.5,1.5-1.7,2.5c-0.2,1,0,2.1,0.6,2.9c0.6,0.9,1.5,1.5,2.5,1.7c1,0.2,2.1,0,2.9-0.6l0,0
			c0.9-0.6,1.5-1.5,1.7-2.5c0.2-1,0-2.1-0.6-2.9C20.8,10.1,19.5,9.5,18.3,9.5z"/>
		<path class="st0" d="M6,23.5c-0.6,0-1.2-0.3-1.6-0.8v0c-0.3-0.4-0.4-0.9-0.3-1.4c0.1-0.5,0.4-0.9,0.8-1.2l5.6-3.7
			c0.1-0.1,0.3-0.1,0.4,0.1l1.8,2.8c0,0.1,0.1,0.2,0,0.2s-0.1,0.2-0.1,0.2L7,23.2C6.7,23.5,6.3,23.5,6,23.5z M4.9,22.4
			c0.4,0.6,1.2,0.7,1.8,0.4l5.4-3.5L10.6,17l-5.3,3.5C5,20.8,4.8,21,4.7,21.4C4.7,21.7,4.7,22.1,4.9,22.4L4.9,22.4z"/>
		<path class="st0" d="M10.9,20.5c-0.1,0-0.2,0-0.3-0.1l-1.8-2.6c-0.1-0.1-0.1-0.3,0.1-0.4c0.1-0.1,0.3-0.1,0.4,0.1l1.8,2.6
			c0.1,0.1,0.1,0.3-0.1,0.4C11,20.5,11,20.5,10.9,20.5z"/>
		<path class="st0" d="M11.1,17.5c-0.1,0-0.2,0-0.3-0.1c-0.1-0.1-0.1-0.3,0.1-0.4l1.5-1c0.1-0.1,0.3-0.1,0.4,0.1
			c0.1,0.1,0.1,0.3-0.1,0.4l-1.5,1C11.2,17.5,11.2,17.5,11.1,17.5z"/>
		<path class="st0" d="M12.2,19.1c-0.1,0-0.2,0-0.3-0.1c-0.1-0.1-0.1-0.3,0.1-0.4l1.5-1c0.1-0.1,0.3-0.1,0.4,0.1
			c0.1,0.1,0.1,0.3-0.1,0.4l-1.5,1C12.3,19.1,12.2,19.1,12.2,19.1z"/>
	</g>
	<g>
		<g>
			<path class="st0" d="M20.4,14.9c0,1-0.7,1.8-1.6,2v0.5c0,0.3-0.2,0.5-0.5,0.5c-0.3,0-0.5-0.2-0.5-0.5v-0.5c-0.9-0.2-1.5-1-1.5-2
				c0-0.3,0.2-0.5,0.5-0.5c0.3,0,0.5,0.2,0.5,0.5c0,0.4,0.2,0.7,0.5,0.9v-2c-0.9-0.2-1.5-1-1.5-2c0-0.9,0.7-1.8,1.5-2V9.4
				c0-0.3,0.2-0.5,0.5-0.5c0.3,0,0.5,0.2,0.5,0.5v0.4c0.9,0.2,1.6,1,1.6,2c0,0.3-0.2,0.5-0.5,0.5c-0.3,0-0.5-0.2-0.5-0.5
				c0-0.4-0.2-0.7-0.5-0.9v2C19.7,13.1,20.4,13.9,20.4,14.9z M17.8,12.7v-1.8c-0.3,0.2-0.5,0.5-0.5,0.9
				C17.3,12.2,17.5,12.5,17.8,12.7z M19.3,14.9c0-0.4-0.2-0.7-0.5-0.9v1.8C19.1,15.6,19.3,15.3,19.3,14.9z"/>
		</g>
	</g>
</g>
</svg>
