<?xml version="1.0" encoding="utf-8"?>
<!-- Generator: Adobe Illustrator 24.3.0, SVG Export Plug-In . SVG Version: 6.00 Build 0)  -->
<svg version="1.1" id="Capa_1" xmlns="http://www.w3.org/2000/svg" xmlns:xlink="http://www.w3.org/1999/xlink" x="0px" y="0px"
	 viewBox="0 0 30 30" style="enable-background:new 0 0 30 30;" xml:space="preserve">
<style type="text/css">
	.st0{fill:#104A8E;}
</style>
<g>
	<path class="st0" d="M22,25.7c-0.2,0-0.3-0.1-0.3-0.3V7.9h-2.8c-0.2,0-0.3-0.1-0.3-0.3s0.1-0.3,0.3-0.3H22c0.2,0,0.3,0.1,0.3,0.3
		v17.8C22.3,25.6,22.1,25.7,22,25.7z"/>
	<path class="st0" d="M22,25.7H7.6c-0.2,0-0.3-0.1-0.3-0.3V7.6c0-0.2,0.1-0.3,0.3-0.3h2.9c0.2,0,0.3,0.1,0.3,0.3s-0.1,0.3-0.3,0.3
		H7.9v17.2h14c0.2,0,0.3,0.1,0.3,0.3S22.1,25.7,22,25.7z"/>
	<path class="st0" d="M19.3,11.7H9.8c-0.2,0-0.3-0.1-0.3-0.3c0-0.2,0.1-0.3,0.3-0.3h9.5c0.2,0,0.3,0.1,0.3,0.3
		C19.6,11.5,19.4,11.7,19.3,11.7z"/>
	<path class="st0" d="M15.9,14.8h-6c-0.2,0-0.3-0.1-0.3-0.3s0.1-0.3,0.3-0.3h6c0.2,0,0.3,0.1,0.3,0.3S16,14.8,15.9,14.8z"/>
	<path class="st0" d="M19.2,14.8h-1.7c-0.2,0-0.3-0.1-0.3-0.3s0.1-0.3,0.3-0.3h1.7c0.2,0,0.3,0.1,0.3,0.3S19.4,14.8,19.2,14.8z"/>
	<path class="st0" d="M19.2,16.8H9.8c-0.2,0-0.3-0.1-0.3-0.3s0.1-0.3,0.3-0.3h9.3c0.2,0,0.3,0.1,0.3,0.3S19.3,16.8,19.2,16.8z"/>
	<path class="st0" d="M17.8,8.8h-5.9c-0.2,0-0.3-0.1-0.3-0.3V6.6c0-0.2,0.1-0.3,0.3-0.3h1.3C13.4,5.6,14,5,14.8,5
		c0.8,0,1.4,0.5,1.6,1.3h1.3c0.2,0,0.3,0.1,0.3,0.3v1.9C18.1,8.7,17.9,8.8,17.8,8.8z M12.1,8.2h5.3V6.9h-1.3c-0.2,0-0.3-0.1-0.3-0.3
		c0-0.6-0.5-1-1-1c-0.6,0-1,0.4-1,1c0,0.2-0.1,0.3-0.3,0.3h-1.3V8.2z"/>
	<path class="st0" d="M18.5,24.5h-1.6c-0.2,0-0.3-0.1-0.3-0.3v-1.4h-1.4c-0.2,0-0.3-0.1-0.3-0.3v-1.6c0-0.2,0.1-0.3,0.3-0.3h1.4
		v-1.4c0-0.2,0.1-0.3,0.3-0.3h1.6c0.2,0,0.3,0.1,0.3,0.3v1.4h1.4c0.2,0,0.3,0.1,0.3,0.3v1.6c0,0.2-0.1,0.3-0.3,0.3h-1.4v1.4
		C18.8,24.4,18.6,24.5,18.5,24.5z M17.2,23.9h1v-1.4c0-0.2,0.1-0.3,0.3-0.3h1.4v-1h-1.4c-0.2,0-0.3-0.1-0.3-0.3v-1.4h-1v1.4
		c0,0.2-0.1,0.3-0.3,0.3h-1.5v1h1.5c0.2,0,0.3,0.1,0.3,0.3V23.9z"/>
</g>
</svg>
