<?xml version="1.0" encoding="utf-8"?>
<!-- Generator: Adobe Illustrator 24.3.0, SVG Export Plug-In . SVG Version: 6.00 Build 0)  -->
<svg version="1.1" id="Capa_1" xmlns="http://www.w3.org/2000/svg" xmlns:xlink="http://www.w3.org/1999/xlink" x="0px" y="0px"
	 viewBox="0 0 30 30" style="enable-background:new 0 0 30 30;" xml:space="preserve">
<style type="text/css">
	.st0{fill:#414141;}
</style>
<g>
	<path class="st0" d="M10.6,19.1c-0.1,0-0.1,0-0.2-0.1c-0.1-0.1-0.1-0.3,0-0.4l7.9-7.9c0.1-0.1,0.3-0.1,0.4,0c0.1,0.1,0.1,0.3,0,0.4
		l-7.9,7.9C10.7,19.1,10.7,19.1,10.6,19.1z"/>
	<path class="st0" d="M18.5,19.2c-0.1,0-0.1,0-0.2-0.1l-7.9-7.9c-0.1-0.1-0.1-0.3,0-0.4c0.1-0.1,0.3-0.1,0.4,0l7.9,7.9
		c0.1,0.1,0.1,0.3,0,0.4C18.6,19.1,18.6,19.2,18.5,19.2z"/>
</g>
<path class="st0" d="M14.8,23.6c-2.3,0-4.6-0.9-6.3-2.6C5,17.5,5,11.9,8.5,8.4c3.5-3.5,9.1-3.5,12.6,0c3.5,3.5,3.5,9.1,0,12.6
	C19.4,22.7,17.1,23.6,14.8,23.6z M14.8,6.3c-2.1,0-4.3,0.8-5.9,2.5c-3.3,3.3-3.3,8.6,0,11.9c3.3,3.3,8.6,3.3,11.9,0
	c3.3-3.3,3.3-8.6,0-11.9C19.1,7.1,17,6.3,14.8,6.3z"/>
</svg>
