<?xml version="1.0" encoding="utf-8"?>
<!-- Generator: Adobe Illustrator 24.3.0, SVG Export Plug-In . SVG Version: 6.00 Build 0)  -->
<svg version="1.1" id="Capa_1" xmlns="http://www.w3.org/2000/svg" xmlns:xlink="http://www.w3.org/1999/xlink" x="0px" y="0px"
	 viewBox="0 0 30 30" style="enable-background:new 0 0 30 30;" xml:space="preserve">
<style type="text/css">
	.st0{fill:#006dd9;}
</style>
<g>
	<path class="st0" d="M18.7,21.9c-0.7,0-1.4,0-1.7,0c-0.1,0-0.2-0.1-0.2-0.3c0-0.1,0.1-0.2,0.3-0.2c2.2,0.1,4.6,0,5-0.2
		c0.6-0.4,2-0.4,2.1-0.4c0.1,0,0.2,0.1,0.2,0.3c0,0.1-0.1,0.2-0.3,0.2c-0.4,0-1.4,0-1.8,0.3C21.9,21.9,20.2,21.9,18.7,21.9z"/>
	<path class="st0" d="M8.3,24.3c0,0-0.1,0-0.1,0c-0.1,0-0.1-0.1-0.1-0.2L4.3,9.7c0-0.1,0-0.1,0-0.2c0-0.1,0.1-0.1,0.2-0.1l11.6-3.1
		c0.1,0,0.1,0,0.2,0c0.1,0,0.1,0.1,0.1,0.2l1.8,7c0,0.1,0,0.3-0.2,0.3c-0.1,0-0.3,0-0.3-0.2l-1.7-6.8l-11.1,3l3.7,14l10.9-3L18.7,18
		c0-0.1,0-0.3,0.2-0.3c0.1,0,0.3,0,0.3,0.2l0.8,3c0,0.1,0,0.3-0.2,0.3L8.3,24.3C8.4,24.3,8.4,24.3,8.3,24.3z"/>
	<path class="st0" d="M8.6,10.8c-0.1,0-0.2-0.1-0.2-0.2c0-0.1,0-0.3,0.2-0.3l4.3-1.1c0.1,0,0.3,0,0.3,0.2c0,0.1,0,0.3-0.2,0.3
		L8.6,10.8C8.6,10.8,8.6,10.8,8.6,10.8z"/>
	<path class="st0" d="M7.5,13.8c-0.1,0-0.2-0.1-0.2-0.2c0-0.1,0-0.3,0.2-0.3l4.9-1.3c0.1,0,0.3,0,0.3,0.2c0,0.1,0,0.3-0.2,0.3
		L7.5,13.8C7.6,13.8,7.6,13.8,7.5,13.8z"/>
	<path class="st0" d="M13.8,12.2c-0.1,0-0.2-0.1-0.2-0.2c0-0.1,0-0.3,0.2-0.3l1.4-0.4c0.1,0,0.3,0,0.3,0.2c0,0.1,0,0.3-0.2,0.3
		L13.8,12.2C13.8,12.2,13.8,12.2,13.8,12.2z"/>
	<path class="st0" d="M8.3,16.4c-0.1,0-0.2-0.1-0.2-0.2c0-0.1,0-0.3,0.2-0.3l7.6-2c0.1,0,0.3,0,0.3,0.2c0,0.1,0,0.3-0.2,0.3
		L8.3,16.4C8.3,16.4,8.3,16.4,8.3,16.4z"/>
	<path class="st0" d="M10.4,19.9c-0.1,0-0.2-0.1-0.2-0.2c0-0.1,0-0.3,0.2-0.3l5.1-1.3c0.1,0,0.3,0,0.3,0.2c0,0.1,0,0.3-0.2,0.3
		L10.4,19.9C10.5,19.9,10.4,19.9,10.4,19.9z"/>
	<path class="st0" d="M16.1,18.9c-0.1,0-0.1,0-0.2,0c-0.3,0-0.5-0.2-0.7-0.4C14.9,18,15,17.2,15,17.2c0-0.1,0.2-1.9,0.4-2.9
		c0.2-0.9,1.4-0.8,1.4-0.8c0.1,0,2.1-0.1,3.2,0c1.1,0.1,1.5,0.3,2,0.7l0.2,0.1c0.5,0.3,1.8,0.3,2.2,0.3c0.2,0,0.3,0.1,0.3,0.2
		c0,0.1-0.1,0.3-0.2,0.3c-0.2,0-1.8,0.1-2.5-0.4l-0.2-0.1C21.3,14.2,21,14,20,13.9c-1.1-0.1-3.1,0-3.2,0c0,0-0.8,0-0.9,0.4
		c-0.2,0.9-0.4,2.8-0.4,2.8c0,0.2-0.1,0.7,0.1,1c0.1,0.1,0.2,0.2,0.3,0.2c0.3,0,0.4,0,0.6-0.1c0.1-0.1,0.2-0.4,0.2-0.5
		c0-0.9,0.6-1.7,0.6-1.7l0.8-1c0.1-0.1,0.2-0.1,0.4,0c0.1,0.1,0.1,0.2,0,0.4l-0.8,1l0,0c0,0-0.5,0.7-0.5,1.4c0,0.4-0.1,0.7-0.3,0.9
		C16.7,18.8,16.4,18.9,16.1,18.9z"/>
	<path class="st0" d="M21.4,18.8C21.4,18.8,21.4,18.8,21.4,18.8c-0.2,0-3.8-0.1-4.2-2.5c0-0.1,0.1-0.3,0.2-0.3
		c0.1,0,0.3,0.1,0.3,0.2c0.3,2.1,3.6,2.1,3.7,2.1c0.1,0,0.2,0.1,0.2,0.3C21.6,18.7,21.5,18.8,21.4,18.8z"/>
</g>
</svg>
