<?xml version="1.0" encoding="utf-8"?>
<!-- Generator: Adobe Illustrator 24.3.0, SVG Export Plug-In . SVG Version: 6.00 Build 0)  -->
<svg version="1.1" id="Capa_1" xmlns="http://www.w3.org/2000/svg" xmlns:xlink="http://www.w3.org/1999/xlink" x="0px" y="0px"
	 viewBox="0 0 30 30" style="enable-background:new 0 0 30 30;" xml:space="preserve">
<style type="text/css">
	.st0{fill:#006dd9;}
</style>
<path class="st0" d="M10.3,24c-0.1,0-0.2,0-0.2-0.1c-0.1-0.1-0.1-0.3,0-0.5l9.2-8c0.2-0.2,0.3-0.4,0.3-0.6s-0.1-0.4-0.3-0.6l-9.2-8
	c-0.1-0.1-0.2-0.3,0-0.5c0.1-0.1,0.3-0.1,0.5,0l9.2,8c0.3,0.3,0.5,0.7,0.5,1.1s-0.2,0.8-0.5,1.1l-9.2,8C10.4,24,10.4,24,10.3,24z"/>
</svg>
