<?xml version="1.0" encoding="utf-8"?>
<!-- Generator: Adobe Illustrator 24.3.0, SVG Export Plug-In . SVG Version: 6.00 Build 0)  -->
<svg version="1.1" id="Capa_1" xmlns="http://www.w3.org/2000/svg" xmlns:xlink="http://www.w3.org/1999/xlink" x="0px" y="0px"
	 viewBox="0 0 30 30" style="enable-background:new 0 0 30 30;" xml:space="preserve">
<style type="text/css">
	.st0{fill:#006dd9;}
</style>
<g>
	<g>
		<path class="st0" d="M15.2,16.3c-1.3,0-2.5-0.7-3.2-1.8c-0.4-0.6-0.5-1.2-0.5-1.9c0-0.1,0.1-0.3,0.3-0.3s0.3,0.1,0.3,0.3
			c0,0.6,0.2,1.2,0.5,1.7c0.6,1,1.6,1.5,2.7,1.5c1.1,0,2.1-0.6,2.7-1.5c0.3-0.5,0.5-1.1,0.5-1.7c0-0.1,0.1-0.3,0.3-0.3
			c0.1,0,0.3,0.1,0.3,0.3c0,0.7-0.2,1.3-0.5,1.9C17.6,15.7,16.5,16.3,15.2,16.3z"/>
		<path class="st0" d="M20.7,23.8H9.6c-0.1,0-0.1,0-0.2-0.1c-0.1-0.1-0.1-0.1-0.1-0.2c0.5-3.7,2.9-6.4,5.8-6.4s5.3,2.7,5.8,6.4
			c0,0.1,0,0.2-0.1,0.2C20.9,23.8,20.8,23.8,20.7,23.8z M9.9,23.3h10.5c-0.5-3.3-2.7-5.6-5.2-5.6C12.6,17.7,10.4,20,9.9,23.3z"/>
	</g>
	<g>
		<path class="st0" d="M18.9,12.4h-7.5c-0.4,0-0.8-0.3-0.8-0.8v-0.3c0-0.4,0.3-0.8,0.8-0.8h7.5c0.4,0,0.8,0.3,0.8,0.8v0.3
			C19.7,12.1,19.3,12.4,18.9,12.4z M11.4,11.1c-0.1,0-0.2,0.1-0.2,0.2v0.3c0,0.1,0.1,0.2,0.2,0.2h7.5c0.1,0,0.2-0.1,0.2-0.2v-0.3
			c0-0.1-0.1-0.2-0.2-0.2H11.4z"/>
		<path class="st0" d="M19.2,11.1C19.1,11.1,19.1,11.1,19.2,11.1c-0.2,0-0.3-0.2-0.3-0.3c0,0,0.1-0.8-0.2-1.5
			c-0.5-1.5-1.6-2.1-2-2.2c-0.1-0.1-0.2-0.2-0.1-0.4c0.1-0.1,0.2-0.2,0.4-0.1c0.4,0.2,1.6,0.9,2.2,2.5c0.3,0.9,0.2,1.7,0.2,1.7
			C19.4,11,19.3,11.1,19.2,11.1z"/>
		<path class="st0" d="M11.2,11.1c-0.1,0-0.2-0.1-0.3-0.2c0,0-0.1-0.9,0.2-1.7c0.6-1.5,1.9-2.5,2.5-2.7c0.1,0,0.3,0,0.3,0.2
			c0,0.1,0,0.3-0.2,0.3c-0.5,0.1-1.7,1-2.1,2.3c-0.3,0.7-0.2,1.5-0.2,1.5C11.5,11,11.4,11.1,11.2,11.1
			C11.2,11.1,11.2,11.1,11.2,11.1z"/>
		<path class="st0" d="M16.3,9.9C16.3,9.9,16.3,9.9,16.3,9.9c-0.2,0-0.3-0.2-0.3-0.3c0.3-1.2,0.5-2.5,0.5-2.9
			c-0.1-0.1-0.6-0.2-1.4-0.2l-0.2,0c-0.6,0-0.9,0.1-1.1,0.2c0,0.4,0.3,1.7,0.5,2.9c0,0.1-0.1,0.3-0.2,0.3c-0.1,0-0.3-0.1-0.3-0.2
			c-0.7-3-0.6-3.1-0.5-3.3C13.7,6,14.7,6,15,6l0.2,0c0,0,0,0,0,0c0.7,0,1.7,0.1,1.9,0.5c0.1,0.1,0.2,0.2-0.5,3.3
			C16.5,9.8,16.4,9.9,16.3,9.9z M14,6.6L14,6.6L14,6.6z"/>
	</g>
</g>
</svg>
