<?xml version="1.0" encoding="utf-8"?>
<!-- Generator: Adobe Illustrator 24.3.0, SVG Export Plug-In . SVG Version: 6.00 Build 0)  -->
<svg version="1.1" id="Capa_1" xmlns="http://www.w3.org/2000/svg" xmlns:xlink="http://www.w3.org/1999/xlink" x="0px" y="0px"
	 viewBox="0 0 30 30" style="enable-background:new 0 0 30 30;" xml:space="preserve">
<style type="text/css">
	.st0{fill:#006dd9;}
</style>
<g>
	<path class="st0" d="M24.5,22.9h-19c-1,0-1.7-0.8-1.7-1.7V9.8c0-1,0.8-1.7,1.7-1.7h19c1,0,1.7,0.8,1.7,1.7v11.3
		C26.3,22.1,25.5,22.9,24.5,22.9z M5.5,8.8c-0.6,0-1,0.5-1,1v11.3c0,0.6,0.5,1,1,1h19c0.6,0,1-0.5,1-1V9.8c0-0.6-0.5-1-1-1H5.5z"/>
	<path class="st0" d="M14.9,17.9c-0.1,0-0.2,0-0.2-0.1l-8.7-7c-0.2-0.1-0.2-0.4-0.1-0.5c0.1-0.2,0.4-0.2,0.5-0.1l8.5,6.9l8.3-6.9
		c0.2-0.1,0.4-0.1,0.5,0c0.1,0.2,0.1,0.4,0,0.5l-8.5,7.1C15.1,17.9,15,17.9,14.9,17.9z"/>
</g>
</svg>
