<?xml version="1.0" encoding="utf-8"?>
<!-- Generator: Adobe Illustrator 24.0.0, SVG Export Plug-In . SVG Version: 6.00 Build 0)  -->
<svg version="1.1" id="Capa_1" xmlns="http://www.w3.org/2000/svg" xmlns:xlink="http://www.w3.org/1999/xlink" x="0px" y="0px"
	 viewBox="0 0 30 30" style="enable-background:new 0 0 30 30;" xml:space="preserve">
<style type="text/css">
	.st0{fill:#006dd9;}
</style>
<g>
	<path class="st0" d="M28.78,22.86L17.16,3.32c-0.52-0.87-1.39-1.4-2.34-1.4s-1.82,0.52-2.34,1.4L0.87,22.86
		c-0.61,1.03-0.62,2.33-0.03,3.38c0.51,0.9,1.4,1.44,2.36,1.44h23.23c0.97,0,1.85-0.54,2.36-1.44
		C29.4,25.19,29.39,23.89,28.78,22.86z M28.13,25.85c-0.38,0.67-0.99,1.05-1.69,1.05H3.21c-0.69,0-1.31-0.38-1.69-1.05
		c-0.46-0.81-0.45-1.8,0.02-2.59L13.16,3.71c0.38-0.64,0.99-1.01,1.67-1.01c0.68,0,1.28,0.37,1.67,1.01l11.62,19.54
		C28.58,24.05,28.59,25.04,28.13,25.85z"/>
	<path class="st0" d="M16.23,15.56L16.23,15.56c-0.05-0.61-0.15-1.08-0.31-1.42c-0.2-0.43-0.58-0.67-1.07-0.67
		c-0.48,0-0.86,0.24-1.06,0.67c-0.16,0.34-0.26,0.8-0.31,1.41l-0.4,4.63c-0.04,0.48-0.07,0.9-0.07,1.27c0,0.78,0.11,1.36,0.33,1.8
		c0.18,0.35,0.57,0.78,1.41,0.78c0.57,0,1.03-0.19,1.37-0.57c0.33-0.37,0.5-0.87,0.5-1.49c0-0.35-0.03-0.98-0.09-1.9L16.23,15.56z
		 M15.55,22.94c-0.19,0.21-0.45,0.31-0.79,0.31c-0.48,0-0.63-0.19-0.72-0.35c-0.16-0.32-0.24-0.81-0.24-1.45
		c0-0.34,0.02-0.74,0.06-1.2l0.4-4.64c0.04-0.51,0.12-0.9,0.24-1.15c0.07-0.16,0.17-0.22,0.35-0.22c0.19,0,0.29,0.06,0.36,0.22
		c0.12,0.25,0.2,0.64,0.24,1.14l0.32,4.51c0.06,0.89,0.08,1.5,0.08,1.84C15.85,22.39,15.75,22.72,15.55,22.94z"/>
	<path class="st0" d="M13.57,9.5c-0.36,0.32-0.55,0.77-0.55,1.33c0,0.46,0.19,0.87,0.55,1.24c0.37,0.37,0.79,0.55,1.24,0.55
		c0.49,0,0.92-0.18,1.28-0.52c0.36-0.35,0.54-0.78,0.54-1.27c0-0.55-0.18-0.99-0.54-1.32C15.39,8.88,14.27,8.89,13.57,9.5z
		 M15.55,11.54c-0.39,0.38-0.95,0.45-1.42-0.03c-0.22-0.22-0.33-0.45-0.33-0.69c0-0.33,0.09-0.57,0.28-0.74
		c0.21-0.18,0.45-0.27,0.75-0.27c0.29,0,0.53,0.09,0.73,0.27c0.19,0.17,0.28,0.41,0.28,0.74C15.85,11.11,15.76,11.33,15.55,11.54z"
		/>
</g>
</svg>
