<svg id="Capa_1" data-name="Capa 1" xmlns="http://www.w3.org/2000/svg" viewBox="0 0 200 200"><defs><style>.cls-1{fill:#006dd9;}</style></defs><path class="cls-1" d="M100.26,5a6.05,6.05,0,0,1,4.53,2l81.38,92.05a6.06,6.06,0,0,1-4.53,10.06l-36,0,.26,80.44a6,6,0,0,1-6,6.07h0a6,6,0,0,1-6.05-6l-.28-86.51a6.12,6.12,0,0,1,1.76-4.29,6,6,0,0,1,4.28-1.77l28.73,0-68-76.85L32.72,97.55l28.53-.17a5.18,5.18,0,0,1,4.3,1.75,6.07,6.07,0,0,1,1.79,4.27l.29,86.53a6,6,0,0,1-6,6.07h0a6,6,0,0,1-6-6l-.26-80.46-35.88.21a6.48,6.48,0,0,1-5.54-3.52,6,6,0,0,1,.94-6.49L95.7,7.08A6,6,0,0,1,100.23,5Z"/></svg>