<?xml version="1.0" encoding="utf-8"?>
<!-- Generator: Adobe Illustrator 24.3.0, SVG Export Plug-In . SVG Version: 6.00 Build 0)  -->
<svg version="1.1" id="Capa_1" xmlns="http://www.w3.org/2000/svg" xmlns:xlink="http://www.w3.org/1999/xlink" x="0px" y="0px"
	 viewBox="0 0 30 30" style="enable-background:new 0 0 30 30;" xml:space="preserve">
<style type="text/css">
	.st0{fill:#006dd9;}
</style>
<g>
	<path class="st0" d="M13.5,12.7c-0.1,0-0.2,0-0.2-0.1c-0.1-0.1-0.1-0.3,0.1-0.4c0.5-0.4,5.4-3.8,6.4-4c1-0.1,5.9,2.3,6.5,2.6
		c0.1,0.1,0.2,0.2,0.1,0.3c-0.1,0.1-0.2,0.2-0.3,0.1c-2-1-5.5-2.6-6.2-2.5c-0.7,0.1-4.2,2.4-6.2,3.9C13.6,12.7,13.5,12.7,13.5,12.7z
		"/>
	<path class="st0" d="M13.7,19.6c-1,0-1.3-0.6-1.4-0.9c-0.1-0.6,0.2-1.3,0.8-1.6c2.9-1.6,4.9-2.8,5.3-3.2c0.8-0.8,2.8-1.8,2.9-1.8
		c0.1-0.1,0.3,0,0.3,0.1c0.1,0.1,0,0.3-0.1,0.3c0,0-2,1-2.7,1.7c-0.6,0.6-3.7,2.3-5.4,3.3c-0.4,0.2-0.6,0.7-0.5,1.1
		c0.1,0.2,0.2,0.5,0.8,0.5c1.6,0,5.9-2,6-2c0.1,0,0.1,0,0.2,0c0,0,4.2,1,6.1-0.6c0.1-0.1,0.3-0.1,0.4,0c0.1,0.1,0.1,0.3,0,0.4
		c-2,1.6-5.8,0.8-6.5,0.7C19.2,17.9,15.3,19.6,13.7,19.6z"/>
	<g>
		<path class="st0" d="M11.3,19.2c-0.6,0-1.1-0.2-1.6-0.6c-0.5-0.4-0.8-1-0.8-1.7c-0.1-0.7,0.1-1.3,0.5-1.8c0.4-0.5,1-0.8,1.6-0.9
			c1.3-0.1,2.5,0.9,2.6,2.3c0,0.1-0.1,0.3-0.2,0.3c-0.1,0-0.3-0.1-0.3-0.2c-0.1-1.1-1-1.9-2-1.8c-0.5,0-1,0.3-1.3,0.7
			c-0.3,0.4-0.5,0.9-0.4,1.4c0,0.5,0.3,1,0.7,1.3c0.4,0.3,0.9,0.5,1.4,0.5c0.2,0,0.4-0.1,0.6-0.1c0.1-0.1,0.3,0,0.3,0.1
			c0.1,0.1,0,0.3-0.1,0.3c-0.2,0.1-0.5,0.2-0.8,0.2C11.4,19.2,11.4,19.2,11.3,19.2z"/>
		<g>
			<path class="st0" d="M11.3,15.5l0,0.2c0.1,0,0.2,0,0.3,0c0.1,0,0.2,0.1,0.2,0.1c0,0,0.1,0.1,0.1,0.2c0,0.1,0,0.1,0.1,0.2
				c0,0.1,0,0.1,0,0.1c0,0-0.1,0.1-0.1,0.1c-0.1,0-0.2,0-0.2-0.1c0-0.1-0.1-0.2-0.3-0.2l0.1,0.6c0.1,0,0.2,0,0.3,0.1
				c0.1,0,0.1,0.1,0.2,0.1c0.1,0.1,0.1,0.1,0.2,0.2c0,0.1,0.1,0.2,0.1,0.3c0,0.1,0,0.2-0.1,0.3c0,0.1-0.1,0.2-0.2,0.3
				c-0.1,0.1-0.2,0.1-0.4,0.1l0,0.4c0,0.1,0,0.1,0,0.1c0,0,0,0-0.1,0c0,0-0.1,0-0.1,0c0,0,0-0.1,0-0.1l0-0.4c-0.1,0-0.2,0-0.3-0.1
				c-0.1,0-0.2-0.1-0.2-0.1c-0.1-0.1-0.1-0.1-0.1-0.2c0-0.1-0.1-0.1-0.1-0.2c0,0,0-0.1,0-0.1c0,0,0.1-0.1,0.1-0.1c0,0,0.1,0,0.1,0
				c0,0,0.1,0,0.1,0.1c0,0.1,0.1,0.1,0.1,0.2c0,0,0.1,0.1,0.1,0.1c0,0,0.1,0.1,0.2,0.1L11.3,17c-0.1,0-0.3-0.1-0.3-0.1
				c-0.1,0-0.2-0.1-0.2-0.2c-0.1-0.1-0.1-0.2-0.1-0.3c0-0.2,0-0.3,0.1-0.5c0.1-0.1,0.3-0.2,0.5-0.2l0-0.2c0-0.1,0-0.1,0.1-0.1
				C11.3,15.4,11.3,15.4,11.3,15.5z M11.2,16.6L11.2,16c-0.1,0-0.1,0.1-0.2,0.1c0,0-0.1,0.1-0.1,0.2c0,0.1,0,0.1,0.1,0.2
				C11.1,16.5,11.1,16.5,11.2,16.6z M11.5,17l0.1,0.7c0.1,0,0.2-0.1,0.2-0.1c0-0.1,0.1-0.1,0.1-0.2c0-0.1,0-0.2-0.1-0.2
				C11.7,17.1,11.6,17,11.5,17z"/>
		</g>
	</g>
	<g id="XMLID_4165_">
		<path class="st0" d="M4.2,21.7c-0.2,0-0.3-0.1-0.4-0.2c-0.1-0.1-0.2-0.3-0.2-0.5l-0.6-7.3c0-0.2,0-0.4,0.2-0.5
			C3.2,13.1,3.4,13,3.6,13l14.6-1.2c0.2,0,0.4,0,0.5,0.2c0.1,0.1,0.2,0.3,0.2,0.5l0.1,0.8c0,0.1-0.1,0.3-0.2,0.3
			c-0.2,0-0.3-0.1-0.3-0.2l-0.1-0.8c0-0.1,0-0.1-0.1-0.1c0,0-0.1,0-0.1,0L3.6,13.5c0,0-0.1,0-0.1,0.1c0,0,0,0.1,0,0.1l0.6,7.3
			c0,0.1,0,0.1,0.1,0.1c0,0,0.1,0,0.1,0L18.9,20c0.1,0,0.1,0,0.1-0.1c0,0,0-0.1,0-0.1l-0.1-1.6c0-0.1,0.1-0.3,0.2-0.3
			c0.2,0,0.3,0.1,0.3,0.2l0.1,1.6c0,0.2,0,0.4-0.2,0.5c-0.1,0.1-0.3,0.2-0.5,0.2L4.2,21.7C4.3,21.7,4.3,21.7,4.2,21.7z"/>
		<path class="st0" d="M6.3,20.4c-0.1,0-0.1,0-0.2-0.1c-0.1,0-0.1-0.1-0.1-0.2c-0.1-0.7-0.7-1.3-1.4-1.2c-0.1,0-0.3-0.1-0.3-0.2
			L4.2,16c0-0.1,0-0.1,0.1-0.2c0-0.1,0.1-0.1,0.2-0.1c0.3,0,0.6-0.2,0.9-0.5c0.2-0.3,0.3-0.6,0.3-1c0-0.1,0.1-0.3,0.2-0.3l10.3-0.9
			c0.1,0,0.1,0,0.2,0.1s0.1,0.1,0.1,0.2c0,0.4,0.2,0.7,0.5,1c0.1,0.1,0.1,0.2,0,0.4c-0.1,0.1-0.2,0.1-0.4,0
			c-0.3-0.3-0.6-0.6-0.7-1.1l-9.9,0.8c0,0.4-0.2,0.8-0.4,1.1c-0.2,0.3-0.6,0.5-1,0.6l0.2,2.2c0.8,0.1,1.5,0.6,1.6,1.4L16.6,19
			c0.1,0,0.3,0.1,0.3,0.2c0,0.1-0.1,0.3-0.2,0.3L6.3,20.4C6.3,20.4,6.3,20.4,6.3,20.4z"/>
	</g>
	<path class="st0" d="M18.8,21.6C18.8,21.6,18.8,21.6,18.8,21.6c-0.1,0-0.2,0-0.2-0.1l-0.8-0.8c-0.1-0.1-0.1-0.3,0-0.4
		s0.3-0.1,0.4,0l0.7,0.7c0.1,0,0.3-0.1,0.4-0.3c0.2-0.4,0-1-0.2-1.2c-0.1-0.1-0.1-0.3,0-0.4c0.1-0.1,0.3-0.1,0.4,0.1
		c0.2,0.3,0.4,0.4,0.5,0.5c0.5-0.3,0.6-0.7,0.5-1.1c-0.2-0.5-0.7-0.9-0.7-0.9c-0.1-0.1-0.1-0.3,0-0.4c0.1-0.1,0.3-0.1,0.4,0
		c0,0,0.6,0.5,0.9,1.1c0.2,0.5,0.2,1.2-0.7,1.8c-0.1,0.1-0.3,0.1-0.4,0c0,0.2,0,0.5-0.1,0.7C19.5,21.5,19.1,21.6,18.8,21.6z"/>
</g>
</svg>
