<svg id="Capa_1" data-name="Capa 1" xmlns="http://www.w3.org/2000/svg" viewBox="0 0 200 200"><defs><style>.cls-1{fill:#006dd9;}</style></defs><path class="cls-1" d="M101.05,188.37a5.37,5.37,0,0,1-4-1.81L24.65,104.71a5.38,5.38,0,0,1,4-8.94l32.06,0-.23-71.53a5.36,5.36,0,0,1,5.35-5.39h0a5.38,5.38,0,0,1,5.38,5.35l.25,76.92A5.47,5.47,0,0,1,70,104.92a5.41,5.41,0,0,1-3.81,1.58l-25.55,0L101,174.85l60.08-68.77-25.38.14a4.58,4.58,0,0,1-3.82-1.55,5.42,5.42,0,0,1-1.59-3.8l-.25-76.94a5.37,5.37,0,0,1,5.35-5.4h0a5.37,5.37,0,0,1,5.37,5.36L141,95.43l31.9-.18a5.74,5.74,0,0,1,4.94,3.12,5.38,5.38,0,0,1-.84,5.77L105.1,186.52a5.33,5.33,0,0,1-4,1.85Z"/></svg>