<?xml version="1.0" encoding="utf-8"?>
<!-- Generator: Adobe Illustrator 24.3.0, SVG Export Plug-In . SVG Version: 6.00 Build 0)  -->
<svg version="1.1" id="Capa_1" xmlns="http://www.w3.org/2000/svg" xmlns:xlink="http://www.w3.org/1999/xlink" x="0px" y="0px"
	 viewBox="0 0 30 30" style="enable-background:new 0 0 30 30;" xml:space="preserve">
<style type="text/css">
	.st0{fill:#006dd9;}
</style>
<g>
	<path class="st0" d="M9.5,8.6c-0.1,0-0.1,0-0.2-0.1c-0.1-0.1-0.1-0.3,0-0.4c1.6-1.3,3.7-2.1,5.8-2.1c2.1,0,4.2,0.7,5.8,2.1
		c0.1,0.1,0.1,0.2,0,0.4c-0.1,0.1-0.2,0.1-0.4,0c-1.5-1.3-3.5-1.9-5.5-1.9c-2,0-4,0.7-5.5,2C9.6,8.6,9.6,8.6,9.5,8.6z"/>
	<path class="st0" d="M21,8.8C21,8.8,21,8.8,21,8.8l-1.5-0.1c-0.1,0-0.2-0.1-0.2-0.3c0-0.1,0.1-0.3,0.3-0.2l1.3,0.1l0.1-1.2
		c0-0.1,0.1-0.2,0.3-0.2c0.1,0,0.2,0.1,0.2,0.3l-0.1,1.4C21.2,8.7,21.1,8.8,21,8.8z"/>
</g>
<g>
	<path class="st0" d="M15.9,25.2c-2.1,0-4.2-0.7-5.8-2.1c-0.1-0.1-0.1-0.2,0-0.4c0.1-0.1,0.2-0.1,0.4,0c1.5,1.3,3.5,1.9,5.5,1.9
		c2,0,4-0.7,5.5-2c0.1-0.1,0.3-0.1,0.4,0c0.1,0.1,0.1,0.3,0,0.4C20.1,24.5,18,25.2,15.9,25.2z"/>
	<path class="st0" d="M10,24.4C10,24.4,10,24.4,10,24.4c-0.2,0-0.3-0.1-0.2-0.3l0.1-1.4c0-0.1,0.1-0.2,0.3-0.2l1.5,0.1
		c0.1,0,0.2,0.1,0.2,0.3c0,0.1-0.1,0.2-0.3,0.2L10.3,23l-0.1,1.2C10.2,24.3,10.1,24.4,10,24.4z"/>
</g>
<g>
	<g>
		<path class="st0" d="M18.4,17.7c0,1.3-0.9,2.4-2.1,2.7V21c0,0.4-0.3,0.7-0.7,0.7c-0.4,0-0.7-0.3-0.7-0.7v-0.7
			c-1.2-0.3-2.1-1.4-2.1-2.7c0-0.4,0.3-0.7,0.7-0.7c0.4,0,0.7,0.3,0.7,0.7c0,0.5,0.3,1,0.7,1.2v-2.7c-1.2-0.3-2.1-1.4-2.1-2.7
			c0-1.3,0.9-2.4,2.1-2.7v-0.6c0-0.4,0.3-0.7,0.7-0.7c0.4,0,0.7,0.3,0.7,0.7v0.5c1.2,0.3,2.1,1.4,2.1,2.7c0,0.4-0.3,0.7-0.7,0.7
			c-0.4,0-0.7-0.3-0.7-0.7c0-0.5-0.3-1-0.7-1.2V15C17.5,15.3,18.4,16.4,18.4,17.7z M14.9,14.7v-2.4c-0.4,0.3-0.7,0.7-0.7,1.2
			C14.2,14,14.5,14.4,14.9,14.7z M17,17.7c0-0.5-0.3-1-0.7-1.2v2.5C16.7,18.7,17,18.2,17,17.7z"/>
	</g>
</g>
</svg>
