<?xml version="1.0" encoding="utf-8"?>
<!-- Generator: Adobe Illustrator 24.3.0, SVG Export Plug-In . SVG Version: 6.00 Build 0)  -->
<svg version="1.1" id="Capa_1" xmlns="http://www.w3.org/2000/svg" xmlns:xlink="http://www.w3.org/1999/xlink" x="0px" y="0px"
	 viewBox="0 0 30 30" style="enable-background:new 0 0 30 30;" xml:space="preserve">
<style type="text/css">
	.st0{fill:#006dd9;}
</style>
<path class="st0" d="M18.1,25h-6.9c-0.1,0-0.3-0.1-0.3-0.3c0-0.6,0.3-1.2,0.8-1.6l0,0c0-0.7,0.5-1.3,1.1-1.5v-2.2
	c-0.6-0.2-1.1-0.8-1.1-1.5l0-0.1c-0.5-0.5-0.9-1-1.3-1.7c-2.8-0.2-5.2-4.3-5.2-9.1V6.7c0-0.2,0.1-0.3,0.3-0.3H8c0-0.2,0-0.5,0-0.7
	c0-0.2,0.1-0.3,0.3-0.3h12.9c0.1,0,0.3,0.1,0.3,0.3c0,0.2,0,0.5,0,0.7h2.5c0.1,0,0.3,0.1,0.3,0.3v0.4c0,4.7-2.4,8.9-5.2,9.1
	c-0.4,0.6-0.8,1.2-1.3,1.7l0,0.1c0,0.7-0.5,1.3-1.1,1.5v2.2c0.6,0.2,1.1,0.8,1.1,1.5l0,0c0.5,0.4,0.8,0.9,0.8,1.6
	C18.4,24.9,18.3,25,18.1,25z M11.5,24.5h6.3c-0.1-0.4-0.3-0.7-0.6-0.9c-0.1,0-0.1-0.1-0.1-0.2l0-0.1c0,0,0-0.1,0-0.1
	c0,0-0.1,0.1-0.1,0.1c-0.1,0-0.3,0-0.3-0.2c-0.1-0.2-0.2-0.4-0.4-0.4c-0.1,0-0.2-0.2-0.2-0.3c0-0.1,0.1-0.1,0.1-0.2
	C16,22.1,16,22,16,21.9v-2.7c0-0.2,0.1-0.3,0.3-0.3c0.5-0.1,0.8-0.5,0.8-1l0-0.2c0-0.1,0-0.1,0.1-0.2c0.5-0.5,1-1.1,1.4-1.7
	c0-0.1,0.1-0.1,0.2-0.1c2.3,0,4.9-3.7,4.9-8.5V7h-2.5c-0.1,0-0.1,0-0.2-0.1c-0.1-0.1-0.1-0.1-0.1-0.2c0-0.2,0-0.5,0-0.7H8.5
	c0,0.2,0,0.5,0,0.7c0,0.1,0,0.1-0.1,0.2C8.4,7,8.3,7,8.2,7H5.7v0.1c0,4.9,2.6,8.5,4.9,8.5c0.1,0,0.2,0.1,0.2,0.1
	c0.4,0.7,0.9,1.3,1.4,1.7c0.1,0,0.1,0.1,0.1,0.2l0,0.2c0,0.5,0.4,0.9,0.8,1c0.1,0,0.3,0.1,0.3,0.3v2.7c0,0.1-0.1,0.3-0.2,0.3
	c-0.5,0.1-0.8,0.5-0.8,1l0,0.1c0,0.1-0.1,0.2-0.1,0.2C11.8,23.8,11.6,24.1,11.5,24.5z M10.1,15.3C10.1,15.3,10,15.3,10.1,15.3
	c-1.9-0.6-4-3.9-4.1-7.8c0-0.1,0-0.1,0.1-0.2c0.1-0.1,0.1-0.1,0.2-0.1h2c0.1,0,0.3,0.1,0.3,0.3c0.2,2.8,0.8,5.4,1.8,7.4
	c0,0.1,0,0.2,0,0.3C10.3,15.3,10.2,15.3,10.1,15.3z M6.5,7.8c0.2,3.1,1.6,5.7,3,6.6C8.7,12.6,8.2,10.3,8,7.8H6.5z M19.3,15.3
	c-0.1,0-0.2,0-0.2-0.1C19,15.1,19,15,19,14.9c1-2,1.6-4.6,1.8-7.4c0-0.1,0.1-0.3,0.3-0.3h2c0.1,0,0.1,0,0.2,0.1
	c0.1,0.1,0.1,0.1,0.1,0.2C23.3,11.4,21.2,14.8,19.3,15.3C19.3,15.3,19.3,15.3,19.3,15.3z M21.3,7.8c-0.2,2.5-0.7,4.8-1.5,6.6
	c1.4-0.9,2.9-3.6,3-6.6H21.3z"/>
<path class="st0" d="M14.6,18.4c-0.9,0-1.9-0.2-1.9-0.2c-0.1,0-0.2-0.2-0.2-0.3c0-0.1,0.2-0.2,0.3-0.2c0,0,1,0.2,1.8,0.2
	c0.9,0,1.9-0.2,1.9-0.2c0.1,0,0.3,0.1,0.3,0.2c0,0.1-0.1,0.3-0.2,0.3C16.6,18.2,15.6,18.4,14.6,18.4z"/>
<path class="st0" d="M18.8,10.5C18.8,10.5,18.8,10.5,18.8,10.5c-0.2,0-0.3-0.2-0.3-0.3c0.1-0.7,0.2-2.6,0.2-2.6
	c0-0.1,0.1-0.3,0.3-0.3c0,0,0,0,0,0c0.1,0,0.3,0.1,0.3,0.3c0,0.1-0.1,1.9-0.2,2.7C19.1,10.4,19,10.5,18.8,10.5z"/>
<path class="st0" d="M17.5,15.8c0,0-0.1,0-0.1,0c-0.1-0.1-0.2-0.2-0.1-0.4c0.6-1.3,1-3.4,1-3.4c0-0.1,0.2-0.2,0.3-0.2
	c0.1,0,0.2,0.2,0.2,0.3c0,0.1-0.4,2.1-1,3.5C17.7,15.7,17.6,15.8,17.5,15.8z"/>
</svg>
