<?xml version="1.0" encoding="utf-8"?>
<!-- Generator: Adobe Illustrator 24.3.0, SVG Export Plug-In . SVG Version: 6.00 Build 0)  -->
<svg version="1.1" id="Capa_1" xmlns="http://www.w3.org/2000/svg" xmlns:xlink="http://www.w3.org/1999/xlink" x="0px" y="0px"
	 viewBox="0 0 30 30" style="enable-background:new 0 0 30 30;" xml:space="preserve">
<style type="text/css">
	.st0{fill:#006dd9;}
</style>
<g>
	<path class="st0" d="M25.9,24.8H9.6c-0.2,0-0.3-0.1-0.3-0.3V7.3C9.3,7.1,9.4,7,9.6,7h16.3c0.2,0,0.3,0.1,0.3,0.3v17.2
		C26.3,24.6,26.1,24.8,25.9,24.8z M9.9,24.1h15.7V7.6H9.9V24.1z"/>
	<path class="st0" d="M9.3,24.8H3.7c-0.2,0-0.3-0.1-0.3-0.3v-7.7c0-0.1,0-0.2,0.1-0.2l5.9-4.8c0.1-0.1,0.3-0.1,0.4,0s0.1,0.3,0,0.4
		L4,16.9v7.2h5.3c0.2,0,0.3,0.1,0.3,0.3C9.6,24.6,9.5,24.8,9.3,24.8z"/>
	<path class="st0" d="M13.6,13c-0.2,0-0.3-0.1-0.3-0.3v-1.9h-1.4c-0.2,0-0.3-0.1-0.3-0.3s0.1-0.3,0.3-0.3h1.7c0.2,0,0.3,0.1,0.3,0.3
		v2.2C14,12.8,13.8,13,13.6,13z"/>
	<path class="st0" d="M18.7,13c-0.2,0-0.3-0.1-0.3-0.3v-1.9h-1.4c-0.2,0-0.3-0.1-0.3-0.3s0.1-0.3,0.3-0.3h1.7c0.2,0,0.3,0.1,0.3,0.3
		v2.2C19,12.8,18.9,13,18.7,13z"/>
	<path class="st0" d="M24.1,13c-0.2,0-0.3-0.1-0.3-0.3v-1.9h-1.4c-0.2,0-0.3-0.1-0.3-0.3s0.1-0.3,0.3-0.3h1.7c0.2,0,0.3,0.1,0.3,0.3
		v2.2C24.5,12.8,24.3,13,24.1,13z"/>
	<path class="st0" d="M13.6,17.6c-0.2,0-0.3-0.1-0.3-0.3v-1.9h-1.4c-0.2,0-0.3-0.1-0.3-0.3c0-0.2,0.1-0.3,0.3-0.3h1.7
		c0.2,0,0.3,0.1,0.3,0.3v2.2C14,17.4,13.8,17.6,13.6,17.6z"/>
	<path class="st0" d="M18.7,17.6c-0.2,0-0.3-0.1-0.3-0.3v-1.9h-1.4c-0.2,0-0.3-0.1-0.3-0.3c0-0.2,0.1-0.3,0.3-0.3h1.7
		c0.2,0,0.3,0.1,0.3,0.3v2.2C19,17.4,18.9,17.6,18.7,17.6z"/>
	<path class="st0" d="M24.1,17.6c-0.2,0-0.3-0.1-0.3-0.3v-1.9h-1.4c-0.2,0-0.3-0.1-0.3-0.3c0-0.2,0.1-0.3,0.3-0.3h1.7
		c0.2,0,0.3,0.1,0.3,0.3v2.2C24.5,17.4,24.3,17.6,24.1,17.6z"/>
	<path class="st0" d="M13.6,22.4c-0.2,0-0.3-0.1-0.3-0.3v-1.9h-1.4c-0.2,0-0.3-0.1-0.3-0.3c0-0.2,0.1-0.3,0.3-0.3h1.7
		c0.2,0,0.3,0.1,0.3,0.3v2.2C14,22.2,13.8,22.4,13.6,22.4z"/>
	<path class="st0" d="M18.7,22.4c-0.2,0-0.3-0.1-0.3-0.3v-1.9h-1.4c-0.2,0-0.3-0.1-0.3-0.3c0-0.2,0.1-0.3,0.3-0.3h1.7
		c0.2,0,0.3,0.1,0.3,0.3v2.2C19,22.2,18.9,22.4,18.7,22.4z"/>
	<path class="st0" d="M24.1,22.4c-0.2,0-0.3-0.1-0.3-0.3v-1.9h-1.4c-0.2,0-0.3-0.1-0.3-0.3c0-0.2,0.1-0.3,0.3-0.3h1.7
		c0.2,0,0.3,0.1,0.3,0.3v2.2C24.5,22.2,24.3,22.4,24.1,22.4z"/>
	<path class="st0" d="M5.6,19.2c-0.2,0-0.3-0.1-0.3-0.3v-1.9c0-0.2,0.1-0.3,0.3-0.3c0.2,0,0.3,0.1,0.3,0.3v1.9
		C5.9,19,5.7,19.2,5.6,19.2z"/>
	<path class="st0" d="M7.5,19.2c-0.2,0-0.3-0.1-0.3-0.3v-1.9c0-0.2,0.1-0.3,0.3-0.3c0.2,0,0.3,0.1,0.3,0.3v1.9
		C7.8,19,7.6,19.2,7.5,19.2z"/>
	<path class="st0" d="M5.6,23c-0.2,0-0.3-0.1-0.3-0.3v-1.9c0-0.2,0.1-0.3,0.3-0.3c0.2,0,0.3,0.1,0.3,0.3v1.9C5.9,22.9,5.7,23,5.6,23
		z"/>
	<path class="st0" d="M7.5,23c-0.2,0-0.3-0.1-0.3-0.3v-1.9c0-0.2,0.1-0.3,0.3-0.3c0.2,0,0.3,0.1,0.3,0.3v1.9C7.8,22.9,7.6,23,7.5,23
		z"/>
</g>
</svg>
