<?xml version="1.0" encoding="utf-8"?>
<!-- Generator: Adobe Illustrator 24.3.0, SVG Export Plug-In . SVG Version: 6.00 Build 0)  -->
<svg version="1.1" id="Capa_1" xmlns="http://www.w3.org/2000/svg" xmlns:xlink="http://www.w3.org/1999/xlink" x="0px" y="0px"
	 viewBox="0 0 30 30" style="enable-background:new 0 0 30 30;" xml:space="preserve">
<style type="text/css">
	.st0{fill:#006dd9;}
</style>
<g>
	<path class="st0" d="M16,18.3h-2.2c-0.2,0-0.4-0.2-0.4-0.4c0-0.2,0.2-0.4,0.4-0.4H16c0.4,0,0.8-0.5,0.8-1V9.1c0-0.6-0.4-1-0.8-1
		H4.3c-0.4,0-0.8,0.5-0.8,1v7.5c0,0.6,0.4,1,0.8,1h6.7c0.2,0,0.4,0.2,0.4,0.4c0,0.2-0.2,0.4-0.4,0.4H4.3c-0.9,0-1.6-0.8-1.6-1.8V9.1
		c0-1,0.7-1.8,1.6-1.8H16c0.9,0,1.6,0.8,1.6,1.8v7.5C17.6,17.5,16.9,18.3,16,18.3z"/>
	<path class="st0" d="M25.4,24H13.6c-0.9,0-1.6-0.8-1.6-1.8v-7.5c0-1,0.7-1.8,1.6-1.8h2.1c0.2,0,0.4,0.2,0.4,0.4s-0.2,0.4-0.4,0.4
		h-2.1c-0.4,0-0.8,0.5-0.8,1v7.5c0,0.6,0.4,1,0.8,1h11.8c0.4,0,0.8-0.5,0.8-1v-7.5c0-0.6-0.4-1-0.8-1h-6.6c-0.2,0-0.4-0.2-0.4-0.4
		s0.2-0.4,0.4-0.4h6.6c0.9,0,1.6,0.8,1.6,1.8v7.5C27,23.2,26.3,24,25.4,24z"/>
</g>
</svg>
