<?xml version="1.0" encoding="utf-8"?>
<!-- Generator: Adobe Illustrator 24.3.0, SVG Export Plug-In . SVG Version: 6.00 Build 0)  -->
<svg version="1.1" id="Capa_1" xmlns="http://www.w3.org/2000/svg" xmlns:xlink="http://www.w3.org/1999/xlink" x="0px" y="0px"
	 viewBox="0 0 30 30" style="enable-background:new 0 0 30 30;" xml:space="preserve">
<style type="text/css">
	.st0{fill:#006dd9;}
</style>
<g>
	<g id="XMLID_27971_">
		<path class="st0" d="M11,21.9H6.8c-0.4,0-0.6-0.3-0.6-0.6v-4c0-0.2,0.1-0.4,0.2-0.5l4.2-3.4c0.2-0.2,0.5-0.2,0.7-0.1
			c0.2,0.1,0.4,0.3,0.4,0.6v7.4C11.7,21.6,11.4,21.9,11,21.9z M11,13.8C11,13.8,11,13.8,11,13.8C11,13.8,11,13.8,11,13.8l-4.3,3.4
			c0,0,0,0,0,0.1v4c0,0,0,0.1,0.1,0.1H11c0,0,0.1,0,0.1-0.1L11,13.8C11.1,13.8,11.1,13.8,11,13.8C11,13.8,11,13.8,11,13.8z
			 M10.8,13.6L10.8,13.6L10.8,13.6z"/>
		<path class="st0" d="M17.2,21.9h-4.2c-0.4,0-0.6-0.3-0.6-0.6v-8.9c0-0.2,0.1-0.4,0.3-0.5l1.1-0.7l0,0c0.3-0.2,0.6-0.1,0.8,0.1
			l3.2,3.3c0.1,0.1,0.2,0.3,0.2,0.4v6.3C17.8,21.6,17.5,21.9,17.2,21.9z M14,11.6l-1.1,0.7c0,0,0,0,0,0.1v8.9c0,0,0,0.1,0.1,0.1h4.2
			c0,0,0.1,0,0.1-0.1V15l-3.2-3.3C14.1,11.6,14,11.6,14,11.6L14,11.6z"/>
		<path class="st0" d="M21.8,21.9H19c-0.3,0-0.5-0.2-0.5-0.5v-6.2c0-0.1,0.1-0.3,0.2-0.4l2.8-2.8c0.2-0.2,0.4-0.2,0.6-0.1
			c0.2,0.1,0.3,0.3,0.3,0.5v9C22.3,21.7,22.1,21.9,21.8,21.9z M21.8,12.4L19,15.2l0,6.2l2.8,0L21.8,12.4z M21.8,12.4L21.8,12.4
			L21.8,12.4z M21.6,12.2L21.6,12.2L21.6,12.2z"/>
		<path class="st0" d="M6.2,14.5c-0.1,0-0.2,0-0.2-0.1C5.9,14.3,5.9,14.1,6,14l7.8-5.4c0.3-0.2,0.7-0.1,0.9,0.1l3.3,3.5
			c0.9-0.7,5-3.9,5.3-4.2c0,0,0,0,0,0c0.1-0.1,0.3-0.1,0.4,0c0.2,0.3,0.2,0.3-3.5,3.2c-0.6,0.4-1.1,0.8-1.5,1.1
			C18,13,18,13,17.8,12.8l-3.5-3.6c0,0-0.1-0.1-0.2,0l-7.8,5.4C6.3,14.5,6.2,14.5,6.2,14.5z"/>
	</g>
	<path class="st0" d="M24.3,7.5c-0.1-0.1-0.2-0.1-0.3-0.1l-1,0.2c-0.1,0-0.3,0.2-0.3,0.3c0,0.1,0.1,0.3,0.2,0.3l0.4,0.1l0.1,0.4
		c0,0.1,0.2,0.2,0.3,0.3c0,0,0,0,0,0C23.8,9.1,24,9,24,8.8l0.3-1C24.4,7.7,24.3,7.6,24.3,7.5z"/>
</g>
</svg>
