<?xml version="1.0" encoding="utf-8"?>
<!-- Generator: Adobe Illustrator 24.3.0, SVG Export Plug-In . SVG Version: 6.00 Build 0)  -->
<svg version="1.1" id="Capa_1" xmlns="http://www.w3.org/2000/svg" xmlns:xlink="http://www.w3.org/1999/xlink" x="0px" y="0px"
	 viewBox="0 0 30 30" style="enable-background:new 0 0 30 30;" xml:space="preserve">
<style type="text/css">
	.st0{fill:#006dd9;}
</style>
<g>
	<path class="st0" d="M14.2,24c-2.3,0-3.9-1.1-4.7-3.4c-0.6-1.6-1.1-3.3-1.5-5c0-0.2-0.1-0.5,0.1-0.7c0.1-0.2,0.3-0.2,0.6-0.2
		c1.2,0,2.3,0,3.2,0.2c0.8,0.1,1.1,0.5,1.1,1.3c0.9-0.4,2-0.3,3,0.3c1.3,0.8,2.2,2.2,2.3,3.6c0,0.1,0,0.2,0,0.3l0,0.1v0
		C18.3,23.6,16,24,14.2,24z M8.6,15.3c0,0,0,0.1,0,0.2c0.4,1.7,0.8,3.4,1.5,4.9c0.8,2,2.1,3,4.2,3c2.4,0,3.4-0.9,3.4-2.9l0-0.1
		c0-0.1,0-0.2,0-0.2c0-1.3-0.8-2.4-2-3.1c-0.9-0.5-1.9-0.6-2.6-0.2c-0.1,0-0.3,0.2-0.6,0c-0.2-0.2-0.2-0.4-0.2-0.6
		c0.1-0.5,0-0.7-0.5-0.8c-0.9-0.2-1.9-0.2-3.1-0.2C8.7,15.3,8.6,15.3,8.6,15.3z M18,20.5L18,20.5L18,20.5z M18.2,23.8
		c-0.1,0-0.2,0-0.3-0.1c-0.2-0.2-0.2-0.4,0-0.7c1.7-2.5,0.5-5.3-1.6-6.8c-1.3-0.9-2.7-1.5-4.5-1.7c-0.8-0.1-1.5-0.1-2.3-0.2l-0.7,0
		c-0.3,0-0.5,0-0.7,0.1c-0.4,0.2-0.8,0-1-0.3c-0.2-0.4,0.1-0.7,0.3-0.9c0.3-0.3,0.5-0.4,0.9-0.5c0,0-0.1-0.1-0.1-0.1
		c0-0.1,0-0.3,0.2-0.3c1-0.5,1.9-0.5,2.8-0.5c0.7,0,1.3,0,2-0.2c0.1,0,0.2,0,0.3,0.1c0.1,0.1,0.1,0.2,0,0.3
		c-0.1,0.3-0.2,0.5-0.2,0.6c1.4-0.7,2.7-1.6,3.9-2.5c0.4-0.3,0.9-0.7,1.3-1c0.4-0.3,0.8-0.6,1.2-0.9c0.4-0.3,1.2-0.8,2.1-0.8
		c0.9,0,1.5,0.4,1.9,1.2C23.9,9,24,9.5,24,10c0.1,3.7-0.6,7.3-2.2,11.1c-0.6,1.5-1.8,2.4-3.4,2.6C18.4,23.8,18.3,23.8,18.2,23.8z
		 M8.5,13.7c0.1,0,0.2,0,0.3,0l0.7,0c0.8,0,1.5,0.1,2.3,0.2c1.9,0.2,3.5,0.8,4.8,1.8c2.2,1.7,3.6,4.7,1.9,7.4c1.3-0.3,2.2-1,2.7-2.2
		c1.5-3.7,2.2-7.2,2.1-10.8c0-0.5-0.1-0.9-0.3-1.3c-0.3-0.6-0.7-0.8-1.3-0.8c-0.6,0-1.1,0.2-1.7,0.7c-0.4,0.3-0.8,0.6-1.2,0.9
		c-0.4,0.4-0.9,0.7-1.3,1c-1.3,1-2.6,2-4.1,2.6c-0.2,0.1-0.5,0.1-0.6-0.1c-0.2-0.2-0.2-0.5-0.1-0.8c-0.5,0.1-1.1,0.1-1.6,0.1
		c-0.7,0-1.4,0-2,0.2c0,0.1,0.1,0.2,0.1,0.2c0,0.1-0.1,0.5-0.8,0.5l0,0c-0.2,0-0.3,0-0.6,0.3c-0.1,0.1-0.2,0.2-0.2,0.2
		c0,0,0.1,0,0.2-0.1C8.1,13.7,8.3,13.7,8.5,13.7z M8.4,13.1L8.4,13.1L8.4,13.1z M8,11.8c-0.1,0-0.1,0-0.2,0
		c-0.3-0.1-0.3-0.5-0.3-0.7c0-0.4,0-0.6,0-0.8c0-0.2,0-0.4,0-0.7c0-1,0.4-1.7,1.1-2.1C9.2,7.3,10,7.1,11,7.8c1,0.7,1.5,1.2,2.3,2
		c0.2,0.2,0.5,0.5,0.7,0.7c0.1,0.1,0.1,0.2,0.1,0.3c0,0.1-0.1,0.2-0.3,0.2c-0.8,0.1-1.1,0.1-1.5,0.1c-0.2,0-0.4,0-0.7,0
		c-0.2,0-0.4,0-0.7,0c-0.5,0-1,0-1.5,0.1c-0.4,0.1-0.7,0.2-1,0.4C8.4,11.7,8.2,11.8,8,11.8z M9.6,7.9C9.4,7.9,9.2,8,9,8.1
		C8.5,8.3,8.2,8.8,8.2,9.6c0,0.3,0,0.5,0,0.7c0,0.2,0,0.4,0,0.8c0.3-0.2,0.7-0.4,1.2-0.5c0.5-0.1,1.1-0.1,1.6-0.1c0.2,0,0.4,0,0.6,0
		c0.3,0,0.5,0,0.7,0c0.3,0,0.5,0,0.8,0c-0.1-0.1-0.2-0.2-0.3-0.3c-0.8-0.7-1.3-1.2-2.2-1.9C10.3,8.1,9.9,7.9,9.6,7.9z"/>
	<path class="st0" d="M20.6,20.3c0,0-0.1,0-0.1,0c-0.3-0.1-0.4-0.4-0.4-0.5c-0.3-1.9-1.1-3.6-2.3-5.4c-1-1.4-0.9-2,0.4-3.1
		c0.4-0.3,0.7-0.6,1.1-0.9l0.5-0.4c0.1-0.1,0.3-0.1,0.4,0l0.1,0.1c0.1,0.1,0.1,0.3,0.1,0.4l-0.2,0.2c-0.1,0.2-0.2,0.4-0.4,0.5
		c-0.7,0.9-0.8,1.7-0.2,2.7c0.8,1.5,1.3,2.9,1.5,4.3c0.1,0.7,0,1.2-0.1,1.7c0,0.1-0.1,0.1-0.2,0.2C20.7,20.3,20.7,20.3,20.6,20.3z
		 M18.9,11.5c-0.1,0.1-0.2,0.2-0.3,0.2c-1.1,0.9-1.1,1.1-0.3,2.2c1,1.4,1.7,2.7,2.1,4.1c-0.2-1.3-0.6-2.5-1.4-3.8
		C18.5,13.4,18.5,12.4,18.9,11.5z"/>
	<path class="st0" d="M14.7,19.8c-0.4,0-0.8-0.2-1.2-0.5c-0.7-0.6-0.8-1.6-0.3-2.2c0.5-0.6,1.6-0.6,2.3,0c0.7,0.6,0.8,1.6,0.3,2.2
		c0,0,0,0,0,0C15.5,19.7,15.1,19.8,14.7,19.8z M14.3,17.3c-0.2,0-0.5,0.1-0.6,0.3c-0.3,0.4-0.2,1,0.2,1.4c0.5,0.4,1.1,0.4,1.4,0.1
		c0.3-0.4,0.2-1-0.2-1.4C14.8,17.4,14.6,17.3,14.3,17.3z M15.6,19.2L15.6,19.2L15.6,19.2z"/>
	<path class="st0" d="M14.3,22c-0.2,0-0.3,0-0.5-0.1c-0.6-0.2-1-0.9-0.7-1.5c0.1-0.2,0.3-0.4,0.5-0.6c0.3-0.1,0.7-0.1,1,0
		c0.6,0.2,1,0.9,0.7,1.5c-0.1,0.3-0.3,0.5-0.6,0.6C14.6,22,14.5,22,14.3,22z M14.1,20.4c-0.1,0-0.2,0-0.2,0c-0.1,0-0.2,0.1-0.2,0.2
		c-0.1,0.2,0.1,0.5,0.4,0.7c0.2,0.1,0.3,0.1,0.5,0c0.1,0,0.2-0.1,0.3-0.2c0.1-0.2-0.1-0.5-0.4-0.6C14.3,20.5,14.2,20.4,14.1,20.4z"
		/>
	<path class="st0" d="M14.9,22.6c-0.1,0-0.2-0.1-0.3-0.2c-0.1-0.2,0-0.3,0.2-0.4c0.7-0.2,0.9-0.4,1-0.7c0.1-0.5-0.2-0.6-0.4-0.8
		c-0.1-0.1-0.3-0.2-0.3-0.4c0-0.1,0.2-0.3,0.3-0.3c0.2,0,0.5-0.2,0.6-0.3c0.1-0.1,0.3-0.1,0.4,0c0.1,0.1,0.1,0.3,0,0.4
		c0,0-0.2,0.1-0.4,0.3c0.2,0.2,0.5,0.6,0.4,1.2C16.3,22.1,15.8,22.3,14.9,22.6C15,22.5,15,22.6,14.9,22.6z"/>
</g>
</svg>
