<?xml version="1.0" encoding="utf-8"?>
<!-- Generator: Adobe Illustrator 24.3.0, SVG Export Plug-In . SVG Version: 6.00 Build 0)  -->
<svg version="1.1" id="Capa_1" xmlns="http://www.w3.org/2000/svg" xmlns:xlink="http://www.w3.org/1999/xlink" x="0px" y="0px"
	 viewBox="0 0 30 30" style="enable-background:new 0 0 30 30;" xml:space="preserve">
<style type="text/css">
	.st0{fill:#006dd9;}
</style>
<g>
	<path class="st0" d="M15,18.5c-0.2,0-0.3-0.2-0.3-0.3v-6.6c0-0.2,0.2-0.3,0.3-0.3s0.3,0.2,0.3,0.3v6.6C15.3,18.3,15.2,18.5,15,18.5
		z"/>
	<path class="st0" d="M24.5,18.5c-0.2,0-0.3-0.2-0.3-0.3v-3.3H5.8v3.3c0,0.2-0.2,0.3-0.3,0.3c-0.2,0-0.3-0.2-0.3-0.3v-3.7
		c0-0.2,0.2-0.3,0.3-0.3h19.1c0.2,0,0.3,0.2,0.3,0.3v3.7C24.8,18.3,24.7,18.5,24.5,18.5z"/>
	<path class="st0" d="M5.4,23.7c-1.6,0-2.9-1.3-2.9-2.9c0-1.6,1.3-2.9,2.9-2.9s2.9,1.3,2.9,2.9C8.3,22.4,7,23.7,5.4,23.7z M5.4,18.5
		c-1.2,0-2.2,1-2.2,2.2c0,1.2,1,2.2,2.2,2.2s2.2-1,2.2-2.2C7.6,19.5,6.6,18.5,5.4,18.5z"/>
	<path class="st0" d="M24.5,23.7c-1.6,0-2.9-1.3-2.9-2.9c0-1.6,1.3-2.9,2.9-2.9c1.6,0,2.9,1.3,2.9,2.9
		C27.4,22.4,26.1,23.7,24.5,23.7z M24.5,18.5c-1.2,0-2.2,1-2.2,2.2c0,1.2,1,2.2,2.2,2.2s2.2-1,2.2-2.2
		C26.7,19.5,25.7,18.5,24.5,18.5z"/>
	<path class="st0" d="M14.9,23.7c-1.6,0-2.9-1.3-2.9-2.9c0-1.6,1.3-2.9,2.9-2.9c1.6,0,2.9,1.3,2.9,2.9
		C17.9,22.4,16.6,23.7,14.9,23.7z M14.9,18.5c-1.2,0-2.2,1-2.2,2.2c0,1.2,1,2.2,2.2,2.2c1.2,0,2.2-1,2.2-2.2
		C17.2,19.5,16.2,18.5,14.9,18.5z"/>
	<path class="st0" d="M23.6,11.8H6c-0.6,0-1.1-0.5-1.1-1.1V7.6C4.9,7,5.4,6.5,6,6.5h17.7c0.6,0,1.1,0.5,1.1,1.1v3.1
		C24.7,11.3,24.2,11.8,23.6,11.8z M6,7.2c-0.2,0-0.4,0.2-0.4,0.4v3.1c0,0.2,0.2,0.4,0.4,0.4h17.7c0.2,0,0.4-0.2,0.4-0.4V7.6
		c0-0.2-0.2-0.4-0.4-0.4H6z"/>
</g>
</svg>
