<?xml version="1.0" encoding="utf-8"?>
<!-- Generator: Adobe Illustrator 24.3.0, SVG Export Plug-In . SVG Version: 6.00 Build 0)  -->
<svg version="1.1" id="Capa_1" xmlns="http://www.w3.org/2000/svg" xmlns:xlink="http://www.w3.org/1999/xlink" x="0px" y="0px"
	 viewBox="0 0 30 30" style="enable-background:new 0 0 30 30;" xml:space="preserve">
<style type="text/css">
	.st0{fill:#006dd9;}
	.st1{fill:none;}
</style>
<g>
	<path class="st0" d="M24.3,28.4H6.9c-0.2,0-0.3-0.1-0.3-0.3v-7.8c0-0.2,0.1-0.3,0.3-0.3c0.2,0,0.3,0.1,0.3,0.3v7.5H24v-7.5
		c0-0.2,0.1-0.3,0.3-0.3s0.3,0.1,0.3,0.3V28C24.6,28.2,24.5,28.4,24.3,28.4z"/>
	<path class="st0" d="M25.9,20.5H5.3c-0.1,0-0.2-0.1-0.3-0.1C5,20.3,5,20.2,5,20.1l1.6-4.2c0-0.1,0.2-0.2,0.3-0.2h17.3
		c0.1,0,0.3,0.1,0.3,0.2l1.6,4.2c0,0.1,0,0.2,0,0.3C26.1,20.5,26,20.5,25.9,20.5z M5.8,19.9h19.6l-1.4-3.6H7.2L5.8,19.9z"/>
	<g>
		<path class="st1" d="M21.6,6.5L22,6.6c0,0,0,0,0,0l0.4,0.1l0.2-1.2c0-0.2,0.2-0.3,0.3-0.2l0.5,0.1c0.2,0,0.4-0.1,0.4-0.3
			c0-0.2-0.1-0.4-0.3-0.5l-3.4-0.9c0,0,0,0-0.1,0c0,0,0,0-0.1,0l-0.9-0.2l-0.1,0.4L19,4.3l0.3,0.1c0.1,0,0.1,0.1,0.2,0.1l1.4,1.9
			L21.6,6.5z"/>
		<path class="st1" d="M19.6,5.9c-0.3,0.5-0.7,0.9-1.2,1.5c0,0,0,0,0,0.1c0,0,0,0,0,0.1c0,0,0,0,0,0c0,0,0,0,0.1,0
			c0.6-0.6,1-1.1,1.3-1.6l-0.1-0.2C19.7,5.8,19.6,5.9,19.6,5.9z"/>
		<polygon class="st1" points="20.4,8.2 20.6,8.2 20.9,7 20.6,6.9 		"/>
		<polygon class="st1" points="21.9,8.5 22.1,8.6 22.4,7.4 22.2,7.3 		"/>
		<polygon class="st1" points="21.4,7.1 21.2,8.4 21.2,8.4 21.4,8.4 21.6,7.2 21.5,7.1 		"/>
		<path class="st1" d="M8.2,5.9L6.8,6.3l1.6,7.8l2.9-0.8L9.7,5.5L8.2,5.9z M9.2,13.2c-0.2,0-0.3-0.1-0.4-0.2L7.5,6.8
			c0-0.2,0.1-0.4,0.2-0.4c0.2,0,0.3,0.1,0.4,0.2l1.3,6.2C9.4,13,9.3,13.2,9.2,13.2z"/>
		<path class="st1" d="M6.6,5.6l2.9-0.8L9.3,3.5C9.2,3.2,8.9,3,8.6,3L6.8,3.5C6.5,3.6,6.3,3.9,6.4,4.3L6.6,5.6z"/>
		<polygon class="st1" points="18.1,4 18.4,4.1 18.5,3.9 18.6,3.4 18.2,3.3 		"/>
		<path class="st0" d="M10,5.4L9.7,5.5l1.6,7.8l0.3-0.1c0.1,0,0.2,0,0.3,0.1c0,0,0.1,0.1,0.1,0.2L10.2,5C10.2,5.2,10.1,5.4,10,5.4z"
			/>
		<path class="st0" d="M7.9,14.4c0-0.1,0.1-0.2,0.2-0.2l0.3-0.1L6.8,6.3l1.4-0.4L6.5,6.3c-0.2,0-0.3-0.1-0.4-0.2l1.8,8.5
			c0,0,0,0,0,0C7.9,14.5,7.9,14.5,7.9,14.4z"/>
		<rect x="10" y="13" class="st0" width="0" height="2.7"/>
		<path class="st0" d="M6.4,5.7l3.5-0.9c0.2,0,0.3,0.1,0.4,0.2L9.8,3.4c-0.2-0.7-0.8-1.2-1.4-1L6.7,2.8C6,3,5.6,3.7,5.8,4.5l0.3,1.6
			C6.1,5.9,6.2,5.7,6.4,5.7z M6.8,3.5L8.6,3C8.9,3,9.2,3.2,9.3,3.5l0.3,1.3L6.6,5.6L6.4,4.3C6.3,3.9,6.5,3.6,6.8,3.5z"/>
		<polygon class="st0" points="9.7,5.5 8.2,5.9 9.7,5.5 		"/>
		<path class="st0" d="M6.5,6.3l1.7-0.5l1.4-0.4l0,0L10,5.4c0.2,0,0.3-0.2,0.2-0.4c0-0.2-0.2-0.3-0.4-0.2L6.4,5.7
			c-0.2,0-0.3,0.2-0.2,0.4C6.2,6.3,6.3,6.4,6.5,6.3z"/>
		<path class="st0" d="M8.7,14.7l-0.5,0.1c-0.2,0-0.3-0.1-0.3-0.2c0,0,0,0.1,0,0.1l0.8,1.1h0.8L8.7,14.7z"/>
		<path class="st0" d="M12,13.5c0,0.2-0.1,0.4-0.2,0.4L11.3,14L11,15.8h0.6l0.4-2.2C12,13.6,12,13.5,12,13.5z"/>
		<rect x="8.4" y="13.7" transform="matrix(0.9664 -0.257 0.257 0.9664 -3.1934 2.9973)" class="st0" width="3" height="0"/>
		<path class="st0" d="M8.3,14.8l0.5-0.1l0,0l2.6-0.7l0,0l0.5-0.1c0.2,0,0.3-0.2,0.2-0.4c0-0.1,0-0.1-0.1-0.2
			c-0.1-0.1-0.2-0.1-0.3-0.1l-0.3,0.1v0l-2.9,0.8l0,0l-0.3,0.1c-0.1,0-0.2,0.1-0.2,0.2c0,0.1,0,0.1,0,0.2C8,14.8,8.1,14.9,8.3,14.8z
			"/>
		<path class="st0" d="M8.1,6.6c0-0.2-0.2-0.3-0.4-0.2c-0.2,0-0.3,0.2-0.2,0.4L8.8,13c0,0.2,0.2,0.3,0.4,0.2c0.2,0,0.3-0.2,0.2-0.4
			L8.1,6.6z"/>
		<path class="st0" d="M14.4,3.1c0-0.2-0.1-0.3-0.3-0.3h-1.2v0.7h1.2C14.3,3.4,14.4,3.3,14.4,3.1z"/>
		<path class="st0" d="M13.8,4.4c0-0.2-0.1-0.3-0.3-0.3h-0.6v0.7h0.6C13.7,4.8,13.8,4.6,13.8,4.4z"/>
		<path class="st0" d="M14.4,5.8c0-0.2-0.1-0.3-0.3-0.3h-1.2v0.7h1.2C14.3,6.1,14.4,5.9,14.4,5.8z"/>
		<path class="st0" d="M13.8,7.1c0-0.2-0.1-0.3-0.3-0.3h-0.6v0.7h0.6C13.7,7.4,13.8,7.3,13.8,7.1z"/>
		<path class="st0" d="M14.4,8.4c0-0.2-0.1-0.3-0.3-0.3h-1.2v0.7h1.2C14.3,8.8,14.4,8.6,14.4,8.4z"/>
		<path class="st0" d="M13.8,9.8c0-0.2-0.1-0.3-0.3-0.3h-0.6v0.7h0.6C13.7,10.1,13.8,10,13.8,9.8z"/>
		<path class="st0" d="M14.4,11.1c0-0.2-0.1-0.3-0.3-0.3h-1.2v0.7h1.2C14.3,11.5,14.4,11.3,14.4,11.1z"/>
		<path class="st0" d="M13.8,12.5c0-0.2-0.1-0.3-0.3-0.3h-0.6v0.7h0.6C13.7,12.8,13.8,12.7,13.8,12.5z"/>
		<path class="st0" d="M14.4,13.8c0-0.2-0.1-0.3-0.3-0.3h-1.2v0.7h1.2C14.3,14.2,14.4,14,14.4,13.8z"/>
		<path class="st0" d="M13.8,15.2c0-0.2-0.1-0.3-0.3-0.3h-0.6v0.7h0.6C13.7,15.5,13.8,15.3,13.8,15.2z"/>
		<path class="st0" d="M12.6,5.4h0.3V4.8h-0.3c-0.2,0-0.3-0.2-0.3-0.3v1.3C12.3,5.6,12.5,5.4,12.6,5.4z"/>
		<path class="st0" d="M12.6,13.5h0.3v-0.7h-0.3c-0.2,0-0.3-0.2-0.3-0.3v1.3C12.3,13.6,12.5,13.5,12.6,13.5z"/>
		<path class="st0" d="M12.9,15.5h-0.3c-0.2,0-0.3-0.2-0.3-0.3v0.7h0.6V15.5z"/>
		<path class="st0" d="M12.6,4.1h0.3V3.4h-0.3c-0.2,0-0.3-0.2-0.3-0.3v1.3C12.3,4.2,12.5,4.1,12.6,4.1z"/>
		<path class="st0" d="M12.6,14.8h0.3v-0.7h-0.3c-0.2,0-0.3-0.2-0.3-0.3v1.3C12.3,15,12.5,14.8,12.6,14.8z"/>
		<path class="st0" d="M12.6,12.1h0.3v-0.7h-0.3c-0.2,0-0.3-0.2-0.3-0.3v1.3C12.3,12.3,12.5,12.1,12.6,12.1z"/>
		<path class="st0" d="M12.6,2.7h0.3V2.4h3v13.4h0.3l0.3-1.5V2.1c0-0.2-0.1-0.3-0.3-0.3h-3.6c-0.2,0-0.3,0.2-0.3,0.3v1
			C12.3,2.9,12.5,2.7,12.6,2.7z"/>
		<path class="st0" d="M12.6,6.8h0.3V6.1h-0.3c-0.2,0-0.3-0.2-0.3-0.3v1.3C12.3,6.9,12.5,6.8,12.6,6.8z"/>
		<path class="st0" d="M12.6,9.5h0.3V8.8h-0.3c-0.2,0-0.3-0.2-0.3-0.3v1.3C12.3,9.6,12.5,9.5,12.6,9.5z"/>
		<path class="st0" d="M12.6,8.1h0.3V7.4h-0.3c-0.2,0-0.3-0.2-0.3-0.3v1.3C12.3,8.3,12.5,8.1,12.6,8.1z"/>
		<path class="st0" d="M12.6,10.8h0.3v-0.7h-0.3c-0.2,0-0.3-0.2-0.3-0.3v1.3C12.3,10.9,12.5,10.8,12.6,10.8z"/>
		<path class="st0" d="M12.6,3.4h0.3V2.7h-0.3c-0.2,0-0.3,0.2-0.3,0.3S12.5,3.4,12.6,3.4z"/>
		<path class="st0" d="M12.6,4.8h0.3V4.1h-0.3c-0.2,0-0.3,0.2-0.3,0.3C12.3,4.6,12.5,4.8,12.6,4.8z"/>
		<path class="st0" d="M12.6,6.1h0.3V5.4h-0.3c-0.2,0-0.3,0.2-0.3,0.3C12.3,5.9,12.5,6.1,12.6,6.1z"/>
		<path class="st0" d="M12.6,7.4h0.3V6.8h-0.3c-0.2,0-0.3,0.2-0.3,0.3C12.3,7.3,12.5,7.4,12.6,7.4z"/>
		<path class="st0" d="M12.6,8.8h0.3V8.1h-0.3c-0.2,0-0.3,0.1-0.3,0.3C12.3,8.6,12.5,8.8,12.6,8.8z"/>
		<path class="st0" d="M12.6,10.1h0.3V9.5h-0.3c-0.2,0-0.3,0.2-0.3,0.3C12.3,10,12.5,10.1,12.6,10.1z"/>
		<path class="st0" d="M12.6,11.5h0.3v-0.7h-0.3c-0.2,0-0.3,0.2-0.3,0.3C12.3,11.3,12.5,11.5,12.6,11.5z"/>
		<path class="st0" d="M12.6,12.8h0.3v-0.7h-0.3c-0.2,0-0.3,0.2-0.3,0.3C12.3,12.7,12.5,12.8,12.6,12.8z"/>
		<path class="st0" d="M12.6,14.2h0.3v-0.7h-0.3c-0.2,0-0.3,0.2-0.3,0.3C12.3,14,12.5,14.2,12.6,14.2z"/>
		<path class="st0" d="M12.6,15.5h0.3v-0.7h-0.3c-0.2,0-0.3,0.2-0.3,0.3S12.5,15.5,12.6,15.5z"/>
		<path class="st0" d="M16.8,15.8l0.8-3.8l1.1-0.7c0,0,0,0,0,0l1.3-0.9c0.1,0,0.1-0.1,0.1-0.2l0.3-1.4l0.5,0.1c0,0,0,0,0,0L21.1,9
			l1,0.3l0.8,3l-0.7,3.6h0.6l0.7-3.5c0-0.1,0-0.1,0-0.2L22.6,9L23,7.2c0-0.1,0-0.2-0.1-0.3L23.1,6l0.2,0c0.2,0.1,0.5,0,0.7-0.1
			c0.2-0.1,0.3-0.4,0.4-0.6c0.1-0.6-0.2-1.1-0.7-1.2l-3.4-0.9c0,0,0,0-0.1,0c0,0,0,0-0.1,0L19,2.8c0,0,0,0,0,0l-0.9-0.2
			c-0.1,0-0.2,0-0.2,0c-0.1,0-0.1,0.1-0.1,0.2l-0.3,1.4c0,0.1,0,0.2,0,0.2c0,0.1,0.1,0.1,0.2,0.1l0.9,0.2L19,4.9l0.4,0.5
			c0,0-0.1,0-0.1,0c-0.1,0-0.1,0.1-0.2,0.1C18.9,6,18.5,6.4,18,6.9c-0.1,0.1-0.2,0.3-0.2,0.5c0,0.2,0.1,0.4,0.2,0.5
			c0.1,0.1,0.2,0.2,0.3,0.2c0,0,0.1,0,0.1,0c0.2,0,0.3-0.1,0.4-0.2c0.5-0.6,0.9-1.1,1.3-1.6c0,0,0,0,0,0l-0.4,1.9c0,0,0,0,0,0
			l-0.3,1.5l-1.2,0.8c0,0,0,0,0,0l-1.2,0.8c-0.1,0-0.1,0.1-0.1,0.2l-0.5,2.6v1.5H16.8z M20.6,8.2l-0.2-0.1l0.3-1.3L20.9,7L20.6,8.2z
			 M21.4,8.4l-0.1,0l0,0l0.3-1.3l0.1,0l0.1,0L21.4,8.4z M22.1,8.6l-0.2-0.1l0.3-1.3l0.2,0.1L22.1,8.6z M18.5,3.9l-0.1,0.2L18.1,4
			l0.2-0.8l0.4,0.1L18.5,3.9z M18.5,7.5C18.5,7.5,18.5,7.6,18.5,7.5c-0.1,0-0.1,0-0.1,0c0,0,0,0,0-0.1c0,0,0,0,0-0.1
			c0.5-0.5,0.9-1,1.2-1.5c0-0.1,0.1-0.1,0-0.2l0.1,0.2C19.5,6.4,19.1,6.9,18.5,7.5z M19.4,4.4c0-0.1-0.1-0.1-0.2-0.1L19,4.3l0.1-0.4
			l0.1-0.4L20,3.7c0,0,0,0,0.1,0c0,0,0,0,0.1,0l3.4,0.9c0.2,0,0.3,0.3,0.3,0.5c0,0.2-0.2,0.3-0.4,0.3l-0.5-0.1
			c-0.2,0-0.3,0.1-0.3,0.2l-0.2,1.2L22,6.6c0,0,0,0,0,0l-0.4-0.1l-0.8-0.2L19.4,4.4z"/>
		<polygon class="st0" points="16.5,15.8 16.5,14.3 16.2,15.8 		"/>
	</g>
</g>
</svg>
