<?xml version="1.0" encoding="utf-8"?>
<!-- Generator: Adobe Illustrator 24.0.0, SVG Export Plug-In . SVG Version: 6.00 Build 0)  -->
<svg version="1.1" id="Capa_1" xmlns="http://www.w3.org/2000/svg" xmlns:xlink="http://www.w3.org/1999/xlink" x="0px" y="0px"
	 viewBox="0 0 30 30" style="enable-background:new 0 0 30 30;" xml:space="preserve">
<style type="text/css">
	.st0{fill:#006dd9;}
</style>
<g>
	<path class="st0" d="M15.48,29.3c-0.54,0-1.05-0.19-1.45-0.55c-0.09-0.08-9.16-9.76-9.16-17.34C4.87,5.56,9.63,0.8,15.48,0.8
		S26.1,5.56,26.1,11.41c0,6.53-8.2,16.41-9.08,17.27C16.6,29.08,16.06,29.3,15.48,29.3z M15.48,1.68c-5.36,0-9.73,4.36-9.73,9.73
		c0,6.73,7.96,15.85,8.86,16.68c0.49,0.43,1.3,0.42,1.78-0.04c0.86-0.83,8.81-10.39,8.81-16.63C25.21,6.05,20.85,1.68,15.48,1.68z
		 M15.48,14.79c-0.41,0-0.84-0.07-1.28-0.22c-0.42-0.18-0.78-0.44-1.12-0.77c-0.62-0.58-1-1.48-1-2.4c0-0.9,0.35-1.75,1-2.4
		c0.29-0.29,0.64-0.53,1.08-0.72c0.93-0.34,1.83-0.34,2.63,0c0.44,0.2,0.79,0.43,1.08,0.72c0,0,0,0,0,0
		c0.64,0.64,0.99,1.49,0.99,2.4c0,0.92-0.38,1.82-1.01,2.41C17.24,14.44,16.39,14.79,15.48,14.79z M15.53,8.91
		c-0.33,0-0.67,0.06-1.03,0.2c-0.31,0.14-0.57,0.31-0.78,0.53c-0.47,0.48-0.74,1.1-0.74,1.77c0,0.68,0.27,1.34,0.73,1.76
		c0.27,0.27,0.54,0.46,0.82,0.59c0.97,0.31,2.04,0.12,2.73-0.58c0.46-0.43,0.73-1.09,0.73-1.77c0-0.67-0.26-1.29-0.73-1.77
		c-0.22-0.22-0.48-0.39-0.81-0.54C16.15,8.97,15.85,8.91,15.53,8.91z"/>
</g>
</svg>
