<?xml version="1.0" encoding="utf-8"?>
<!-- Generator: Adobe Illustrator 24.0.0, SVG Export Plug-In . SVG Version: 6.00 Build 0)  -->
<svg version="1.1" id="Capa_1" xmlns="http://www.w3.org/2000/svg" xmlns:xlink="http://www.w3.org/1999/xlink" x="0px" y="0px"
	 viewBox="0 0 30 30" style="enable-background:new 0 0 30 30;" xml:space="preserve">
<style type="text/css">
	.st0{fill:#006dd9;}
</style>
<g>
	<g>
		<path class="st0" d="M9.61,15.01c-1.91,0-3.64-0.97-4.64-2.61c-0.52-0.85-0.79-1.82-0.79-2.82c0-2.99,2.44-5.43,5.43-5.43
			s5.43,2.44,5.43,5.43c0,1-0.27,1.97-0.79,2.82C13.26,14.03,11.52,15.01,9.61,15.01z M9.61,4.91c-2.58,0-4.67,2.1-4.67,4.67
			c0,0.86,0.23,1.7,0.68,2.43c0.86,1.4,2.35,2.24,3.99,2.24c1.64,0,3.14-0.84,3.99-2.24c0.45-0.73,0.68-1.57,0.68-2.43
			C14.29,7,12.19,4.91,9.61,4.91z"/>
		<path class="st0" d="M17.75,25.98H1.48c-0.11,0-0.21-0.05-0.28-0.13c-0.07-0.08-0.1-0.19-0.09-0.3c0.69-5.41,4.27-9.34,8.51-9.34
			c4.24,0,7.82,3.93,8.51,9.34c0.01,0.11-0.02,0.22-0.09,0.3C17.96,25.94,17.86,25.98,17.75,25.98z M1.91,25.23h15.4
			c-0.77-4.81-3.95-8.25-7.7-8.25C5.87,16.98,2.68,20.42,1.91,25.23z"/>
	</g>
	<g>
		<path class="st0" d="M22.02,17.01c-1.59,0-3.03-0.81-3.85-2.17c-0.43-0.7-0.66-1.51-0.66-2.34c0-2.49,2.02-4.51,4.51-4.51
			s4.51,2.02,4.51,4.51c0,0.83-0.23,1.64-0.66,2.34C25.04,16.2,23.6,17.01,22.02,17.01z M22.02,8.75c-2.07,0-3.75,1.68-3.75,3.75
			c0,0.69,0.19,1.36,0.55,1.95c0.69,1.13,1.89,1.8,3.21,1.8s2.52-0.67,3.21-1.8c0.36-0.59,0.55-1.26,0.55-1.95
			C25.77,10.43,24.09,8.75,22.02,8.75z"/>
		<path class="st0" d="M28.67,25.98h-8.8c-0.21,0-0.38-0.17-0.38-0.38s0.17-0.38,0.38-0.38h8.36c-0.64-3.85-3.21-6.61-6.21-6.61
			c-1.37,0-2.68,0.57-3.78,1.66c-0.15,0.15-0.39,0.14-0.53,0c-0.15-0.15-0.14-0.39,0-0.53c1.25-1.23,2.74-1.87,4.31-1.87
			c3.5,0,6.46,3.23,7.03,7.69c0.01,0.11-0.02,0.22-0.09,0.3C28.88,25.94,28.78,25.98,28.67,25.98z"/>
	</g>
</g>
</svg>
