<?xml version="1.0" encoding="utf-8"?>
<!-- Generator: Adobe Illustrator 24.0.0, SVG Export Plug-In . SVG Version: 6.00 Build 0)  -->
<svg version="1.1" id="Capa_1" xmlns="http://www.w3.org/2000/svg" xmlns:xlink="http://www.w3.org/1999/xlink" x="0px" y="0px"
	 viewBox="0 0 30 30" style="enable-background:new 0 0 30 30;" xml:space="preserve">
<style type="text/css">
	.st0{fill:#006dd9;}
	.st1{fill:#104A8E;}
</style>
<g>
	<path class="st0" d="M24.13,29.09H6.84c-0.17,0-0.31-0.14-0.31-0.31V6.08c0-0.17,0.14-0.31,0.31-0.31h4.31
		c0.17,0,0.31,0.14,0.31,0.31s-0.14,0.31-0.31,0.31h-4v22.09h16.67V6.39h-4.17c-0.17,0-0.31-0.14-0.31-0.31s0.14-0.31,0.31-0.31
		h4.48c0.17,0,0.31,0.14,0.31,0.31v22.7C24.44,28.95,24.3,29.09,24.13,29.09z"/>
	<path class="st0" d="M17.71,8.83h-4.45c-0.17,0-0.31-0.14-0.31-0.31V0.9c0-0.17,0.14-0.31,0.31-0.31h4.45
		c0.17,0,0.31,0.14,0.31,0.31v7.63C18.02,8.69,17.88,8.83,17.71,8.83z M13.56,8.22h3.84V1.2h-3.84V8.22z"/>
	<path class="st0" d="M19.06,10.48H11.9c-0.17,0-0.31-0.14-0.31-0.31V7.65c0-0.17,0.14-0.31,0.31-0.31h0.67
		c0.17,0,0.31,0.14,0.31,0.31c0,0.17-0.14,0.31-0.31,0.31h-0.36v1.9h6.54v-1.9h-0.32c-0.17,0-0.31-0.14-0.31-0.31
		c0-0.17,0.14-0.31,0.31-0.31h0.63c0.17,0,0.31,0.14,0.31,0.31v2.52C19.37,10.34,19.23,10.48,19.06,10.48z"/>
	<g>
		<path class="st0" d="M15.48,17.91c-0.9,0-1.73-0.46-2.2-1.23c-0.25-0.4-0.37-0.86-0.37-1.34c0-1.42,1.15-2.57,2.57-2.57
			c1.42,0,2.57,1.15,2.57,2.57c0,0.47-0.13,0.94-0.38,1.34C17.21,17.45,16.39,17.91,15.48,17.91z M15.48,13.38
			c-1.08,0-1.96,0.88-1.96,1.96c0,0.36,0.1,0.71,0.28,1.02c0.36,0.59,0.98,0.94,1.67,0.94c0.69,0,1.31-0.35,1.67-0.94
			c0.19-0.31,0.29-0.66,0.29-1.02C17.44,14.26,16.56,13.38,15.48,13.38z"/>
		<path class="st0" d="M19.13,22.83h-7.29c-0.09,0-0.17-0.04-0.23-0.1s-0.09-0.15-0.07-0.24c0.32-2.5,1.98-4.31,3.95-4.31
			s3.63,1.81,3.95,4.31c0.01,0.09-0.02,0.18-0.07,0.24C19.3,22.79,19.22,22.83,19.13,22.83z M12.2,22.22h6.57
			c-0.38-2-1.72-3.42-3.29-3.42C13.92,18.79,12.57,20.21,12.2,22.22z"/>
	</g>
	<path class="st1" d="M19.63,25.86h-8.3c-0.17,0-0.31-0.14-0.31-0.31s0.14-0.31,0.31-0.31h8.3c0.17,0,0.31,0.14,0.31,0.31
		S19.8,25.86,19.63,25.86z"/>
</g>
</svg>
