<?xml version="1.0" encoding="utf-8"?>
<!-- Generator: Adobe Illustrator 24.3.0, SVG Export Plug-In . SVG Version: 6.00 Build 0)  -->
<svg version="1.1" id="Capa_1" xmlns="http://www.w3.org/2000/svg" xmlns:xlink="http://www.w3.org/1999/xlink" x="0px" y="0px"
	 viewBox="0 0 400 400" style="enable-background:new 0 0 400 400;" xml:space="preserve">
<style type="text/css">
	.st0{fill:#006dd9;}
	.st1{fill:#E53341;}
	.st2{fill:#EFEFA8;}
	.st3{fill:#28C67A;}
	.st4{fill:#104A8E;}
	.st5{fill:#FFFFFF;}
	.st6{fill:#1C87A0;}
	.st7{fill:#F26608;}
	.st8{fill:none;stroke:#006dd9;stroke-width:0.5;stroke-linecap:round;stroke-linejoin:round;stroke-miterlimit:10;}
	.st9{fill:none;}
</style>
<g>
	<path class="st0" d="M315.89,275.22c-1.55,0-2.99-0.89-3.67-2.32c-0.33-0.7-33.6-69.67-83.52-69.67H173.2l0.52,36.86
		c0.02,1.55-0.83,2.97-2.21,3.68c-1.37,0.71-3.04,0.57-4.28-0.35l-72.08-53.34c-3.53-2.62-5.55-6.63-5.53-11.03
		c0.02-4.39,2.05-8.39,5.6-11l72.03-52.66c1.24-0.89,2.89-1.06,4.26-0.32c1.37,0.7,2.22,2.13,2.2,3.67l-0.52,36.11h54.75
		c73.38,0,88.24,47.3,91.22,67.64c1.17,8.01,0.99,46.31,0.75,49.01c-0.16,1.82-1.52,3.32-3.33,3.65
		C316.36,275.21,316.12,275.22,315.89,275.22z M169.09,195.11h59.61c40.75,0,70.16,39.03,83.28,60.56
		c-0.02-12.14-0.21-27.73-0.84-32c-3.32-22.66-18.55-60.69-83.18-60.69h-58.87c-1.09,0-2.13-0.43-2.9-1.21
		c-0.76-0.78-1.18-1.82-1.17-2.92l0.46-32.08l-65.45,47.85c-1.44,1.05-2.26,2.67-2.27,4.46c-0.01,1.78,0.81,3.4,2.25,4.46
		l65.48,48.47l-0.46-32.78c-0.02-1.09,0.4-2.14,1.17-2.92C166.96,195.54,168,195.11,169.09,195.11z"/>
</g>
</svg>
