<?xml version="1.0" encoding="utf-8"?>
<!-- Generator: Adobe Illustrator 24.0.0, SVG Export Plug-In . SVG Version: 6.00 Build 0)  -->
<svg version="1.1" id="Capa_1" xmlns="http://www.w3.org/2000/svg" xmlns:xlink="http://www.w3.org/1999/xlink" x="0px" y="0px"
	 viewBox="0 0 30 30" style="enable-background:new 0 0 30 30;" xml:space="preserve">
<style type="text/css">
	.st0{fill:#006dd9;}
</style>
<g>
	<path class="st0" d="M17.84,6.44c-0.08,0-0.16,0.01-0.25,0.02c-0.04,0.01-0.08,0.01-0.12,0.01c0,0,0,0,0,0
		C13,6.67,9.5,10.31,9.5,14.76c0,4.45,3.5,8.09,7.97,8.29c0,0,0,0,0,0c0.04,0,0.08,0.01,0.12,0.01c0.08,0.01,0.16,0.02,0.24,0.02
		c4.6,0,8.34-3.73,8.34-8.32S22.44,6.44,17.84,6.44z M10.22,14.76c0-4.01,3.12-7.29,7.14-7.55c2,2.03,3.1,4.7,3.1,7.55
		c0,2.85-1.1,5.52-3.1,7.55C13.34,22.05,10.22,18.77,10.22,14.76z M18.3,22.35c1.86-2.1,2.87-4.76,2.87-7.59
		c0-2.82-1.01-5.49-2.87-7.59c3.99,0.24,7.16,3.55,7.16,7.59C25.47,18.8,22.29,22.11,18.3,22.35z"/>
	<path class="st0" d="M17.93,5.27c0-1.48,0-2.96,0-4.44c0-0.46-0.72-0.46-0.72,0c0,1.48,0,2.96,0,4.44
		C17.21,5.73,17.93,5.73,17.93,5.27z"/>
	<path class="st0" d="M17.21,24.67c0,1.48,0,2.96,0,4.44c0,0.46,0.72,0.46,0.72,0c0-1.48,0-2.96,0-4.44
		C17.93,24.21,17.21,24.21,17.21,24.67z"/>
	<path class="st0" d="M7.84,14.61c-1.48,0-2.97,0-4.45,0c-0.46,0-0.46,0.72,0,0.72c1.48,0,2.97,0,4.45,0
		C8.31,15.33,8.31,14.61,7.84,14.61z"/>
	<path class="st0" d="M9.9,7.83c0.18,0.18,0.36,0.36,0.54,0.54c0.33,0.33,0.84-0.18,0.51-0.51c-0.87-0.87-1.74-1.74-2.61-2.6
		C8.16,5.07,7.98,4.9,7.8,4.72C7.47,4.39,6.96,4.9,7.29,5.22C8.16,6.09,9.03,6.96,9.9,7.83z"/>
	<path class="st0" d="M10.44,21.58c-0.87,0.87-1.74,1.74-2.61,2.6c-0.18,0.18-0.36,0.36-0.54,0.54c-0.33,0.33,0.18,0.83,0.51,0.51
		c0.87-0.87,1.74-1.74,2.61-2.6c0.18-0.18,0.36-0.36,0.54-0.54C11.27,21.76,10.77,21.25,10.44,21.58z"/>
	<path class="st0" d="M13.5,6.1c0.07,0.18,0.24,0.31,0.44,0.25c0.17-0.05,0.33-0.26,0.25-0.44c-0.57-1.37-1.14-2.73-1.7-4.1
		c-0.07-0.18-0.24-0.31-0.44-0.25C11.88,1.61,11.73,1.82,11.8,2C12.37,3.37,12.93,4.74,13.5,6.1z"/>
	<path class="st0" d="M8.93,18.59c-0.05-0.17-0.26-0.32-0.44-0.25c-1.37,0.57-2.74,1.13-4.11,1.7c-0.18,0.07-0.31,0.24-0.25,0.44
		c0.05,0.17,0.26,0.32,0.44,0.25c1.37-0.57,2.74-1.13,4.11-1.7C8.86,18.96,8.99,18.79,8.93,18.59z"/>
	<path class="st0" d="M4.38,9.91c1.37,0.57,2.74,1.13,4.11,1.7c0.18,0.07,0.39-0.08,0.44-0.25c0.06-0.21-0.07-0.37-0.25-0.44
		c-1.37-0.57-2.74-1.13-4.11-1.7C4.39,9.14,4.17,9.29,4.13,9.46C4.07,9.67,4.2,9.83,4.38,9.91z"/>
	<path class="st0" d="M13.94,23.59c-0.21-0.06-0.37,0.07-0.44,0.25c-0.57,1.37-1.14,2.73-1.7,4.1c-0.07,0.18,0.08,0.39,0.25,0.44
		c0.21,0.06,0.37-0.07,0.44-0.25c0.57-1.37,1.13-2.73,1.7-4.1C14.27,23.85,14.11,23.63,13.94,23.59z"/>
</g>
</svg>
