<?xml version="1.0" encoding="utf-8"?>
<!-- Generator: Adobe Illustrator 24.0.0, SVG Export Plug-In . SVG Version: 6.00 Build 0)  -->
<svg version="1.1" id="Capa_1" xmlns="http://www.w3.org/2000/svg" xmlns:xlink="http://www.w3.org/1999/xlink" x="0px" y="0px"
	 viewBox="0 0 30 30" style="enable-background:new 0 0 30 30;" xml:space="preserve">
<style type="text/css">
	.st0{fill:#006dd9;}
</style>
<g>
	<path class="st0" d="M28.2,22.35h-0.99c-0.42,0-0.82-0.25-1-0.63L25,19.23c-0.06-0.12-0.18-0.2-0.32-0.2h-3.07
		c-0.61,0-1.12-0.5-1.12-1.12v-8c0-0.62,0.5-1.12,1.12-1.12h3.84c0.41,0,0.79,0.23,0.98,0.59l2.74,5.13
		c0.09,0.16,0.13,0.34,0.13,0.52v6.18C29.32,21.85,28.82,22.35,28.2,22.35z M21.62,9.57c-0.19,0-0.35,0.16-0.35,0.35v8
		c0,0.19,0.16,0.35,0.35,0.35h3.07c0.42,0,0.82,0.25,1,0.63l1.21,2.49c0.06,0.12,0.18,0.2,0.32,0.2h0.99c0.19,0,0.35-0.16,0.35-0.35
		v-6.18c0-0.06-0.01-0.11-0.04-0.16l-2.73-5.13c-0.06-0.11-0.18-0.19-0.31-0.19H21.62z"/>
	<path class="st0" d="M26.38,14.2h-2.73c-0.61,0-1.12-0.5-1.12-1.12v-1.51c0-0.62,0.5-1.12,1.12-1.12h1.03
		c0.37,0,0.71,0.18,0.92,0.49l0.97,1.43c0.13,0.19,0.19,0.4,0.19,0.63v0.81C26.76,14.02,26.59,14.2,26.38,14.2z M23.64,11.22
		c-0.19,0-0.35,0.16-0.35,0.35v1.51c0,0.19,0.16,0.35,0.35,0.35h2.35V13c0-0.07-0.02-0.14-0.06-0.2l-0.97-1.43
		c-0.06-0.1-0.17-0.15-0.29-0.15H23.64z"/>
	<path class="st0" d="M23.15,24.66c-1.26,0-2.29-1.03-2.29-2.29c0-1.26,1.03-2.29,2.29-2.29c1.26,0,2.29,1.03,2.29,2.29
		C25.44,23.63,24.41,24.66,23.15,24.66z M23.15,20.85c-0.84,0-1.52,0.68-1.52,1.52c0,0.84,0.68,1.52,1.52,1.52
		c0.84,0,1.52-0.68,1.52-1.52C24.68,21.53,23.99,20.85,23.15,20.85z"/>
	<path class="st0" d="M11.44,24.66c-1.26,0-2.29-1.03-2.29-2.29c0-1.26,1.03-2.29,2.29-2.29s2.29,1.03,2.29,2.29
		C13.72,23.63,12.7,24.66,11.44,24.66z M11.44,20.85c-0.84,0-1.52,0.68-1.52,1.52c0,0.84,0.68,1.52,1.52,1.52
		c0.84,0,1.52-0.68,1.52-1.52C12.96,21.53,12.28,20.85,11.44,20.85z"/>
	<path class="st0" d="M6.04,24.66c-1.26,0-2.29-1.03-2.29-2.29c0-1.26,1.03-2.29,2.29-2.29s2.29,1.03,2.29,2.29
		C8.33,23.63,7.3,24.66,6.04,24.66z M6.04,20.85c-0.84,0-1.52,0.68-1.52,1.52c0,0.84,0.68,1.52,1.52,1.52s1.52-0.68,1.52-1.52
		C7.56,21.53,6.88,20.85,6.04,20.85z"/>
	<path class="st0" d="M18.23,18.77H2.1c-0.62,0-1.12-0.5-1.12-1.11V6.26c0-0.62,0.5-1.12,1.12-1.12h22.42c0.61,0,1.12,0.5,1.12,1.12
		c0,0.61-0.5,1.11-1.12,1.11h-4.83c-0.19,0-0.35,0.16-0.35,0.35v9.93C19.34,18.27,18.84,18.77,18.23,18.77z M2.1,5.91
		c-0.19,0-0.35,0.16-0.35,0.35v11.4C1.75,17.85,1.91,18,2.1,18h16.12c0.19,0,0.35-0.16,0.35-0.35V7.72c0-0.62,0.5-1.12,1.12-1.12
		h4.83c0.19,0,0.35-0.16,0.35-0.35c0-0.19-0.16-0.35-0.35-0.35H2.1z"/>
	<path class="st0" d="M2.91,22.23H2.18c-0.62,0-1.12-0.5-1.12-1.11v-0.79c0-0.21,0.17-0.38,0.38-0.38s0.38,0.17,0.38,0.38v0.79
		c0,0.19,0.16,0.35,0.35,0.35h0.72c0.21,0,0.38,0.17,0.38,0.38C3.29,22.06,3.12,22.23,2.91,22.23z"/>
	<path class="st0" d="M20.35,22.16H15c-0.21,0-0.38-0.17-0.38-0.38c0-0.21,0.17-0.38,0.38-0.38h5.35c0.21,0,0.38,0.17,0.38,0.38
		C20.73,21.99,20.56,22.16,20.35,22.16z"/>
</g>
</svg>
