<?xml version="1.0" encoding="utf-8"?>
<!-- Generator: Adobe Illustrator 24.0.0, SVG Export Plug-In . SVG Version: 6.00 Build 0)  -->
<svg version="1.1" id="Capa_1" xmlns="http://www.w3.org/2000/svg" xmlns:xlink="http://www.w3.org/1999/xlink" x="0px" y="0px"
	 viewBox="0 0 30 30" style="enable-background:new 0 0 30 30;" xml:space="preserve">
<style type="text/css">
	.st0{fill:#FFFFFF;}
</style>
<g>
	<path class="st0" d="M17.6,28c-6.2,0-11.2-5-11.2-11.2c0-0.9,0.1-1.9,0.3-2.7c0-0.2,0.2-0.3,0.4-0.2c0.2,0,0.2,0.2,0.2,0.4
		C7.1,15.1,7,16,7,16.9c0,5.8,4.7,10.6,10.6,10.6c5.8,0,10.6-4.7,10.6-10.6S23.4,6.3,17.6,6.3c-1.2,0-2.3,0.2-3.5,0.6
		c-0.2,0.1-0.3,0-0.4-0.2c-0.1-0.2,0-0.3,0.2-0.4c1.2-0.4,2.4-0.6,3.6-0.6c6.2,0,11.2,5,11.2,11.2S23.7,28,17.6,28z"/>
	<g>
		<path class="st0" d="M17.6,16.8c-1.3,0-2.5-0.7-3.2-1.8c-0.4-0.6-0.6-1.3-0.6-2c0-2.1,1.7-3.8,3.8-3.8c2.1,0,3.8,1.7,3.8,3.8
			c0,0.7-0.2,1.4-0.6,2C20.1,16.2,18.9,16.8,17.6,16.8z M17.6,9.8c-1.8,0-3.2,1.4-3.2,3.2c0,0.6,0.2,1.2,0.5,1.7
			c0.6,1,1.6,1.5,2.7,1.5c1.1,0,2.2-0.6,2.7-1.5c0.3-0.5,0.5-1.1,0.5-1.7C20.8,11.3,19.3,9.8,17.6,9.8z"/>
		<path class="st0" d="M23.2,24.5H11.9c-0.1,0-0.2,0-0.2-0.1c-0.1-0.1-0.1-0.1-0.1-0.2c0.5-3.8,3-6.5,5.9-6.5c3,0,5.5,2.7,5.9,6.5
			c0,0.1,0,0.2-0.1,0.2C23.4,24.4,23.3,24.5,23.2,24.5z M12.2,23.9h10.6c-0.5-3.3-2.7-5.7-5.3-5.7C15,18.2,12.8,20.6,12.2,23.9z"/>
	</g>
</g>
<path class="st0" d="M7,13.2c-3.2,0-5.9-2.6-5.9-5.9c0-3.2,2.6-5.9,5.9-5.9c3.2,0,5.9,2.6,5.9,5.9C12.9,10.6,10.3,13.2,7,13.2z M7,2
	C4.1,2,1.7,4.4,1.7,7.3s2.4,5.3,5.3,5.3s5.3-2.4,5.3-5.3S10,2,7,2z"/>
<path class="st0" d="M7.3,7.9h2.8c0.2,0,0.4-0.2,0.4-0.4c0-0.2-0.2-0.4-0.4-0.4H7.3V4.4C7.3,4.2,7.2,4,6.9,4S6.5,4.2,6.5,4.4v2.8
	H3.8c-0.2,0-0.4,0.2-0.4,0.4c0,0.2,0.2,0.4,0.4,0.4h2.8v2.8c0,0.2,0.2,0.4,0.4,0.4s0.4-0.2,0.4-0.4V7.9z"/>
</svg>
