<?xml version="1.0" encoding="utf-8"?>
<!-- Generator: Adobe Illustrator 24.0.0, SVG Export Plug-In . SVG Version: 6.00 Build 0)  -->
<svg version="1.1" id="Capa_1" xmlns="http://www.w3.org/2000/svg" xmlns:xlink="http://www.w3.org/1999/xlink" x="0px" y="0px"
	 viewBox="0 0 30 30" style="enable-background:new 0 0 30 30;" xml:space="preserve">
<style type="text/css">
	.st0{fill:#006dd9;}
</style>
<path class="st0" d="M27.75,19.57c-1.21-1.39-3.77-6.56-4.4-12.72c-0.86-4.81-5.47-5.77-7.37-5.96V0.83l-0.64,0.02l-0.27-0.01
	l-0.4,0.02v0.04c-1.9,0.19-6.51,1.15-7.37,5.99C6.69,12.96,4.17,18.1,2.94,19.53c-0.87,0.11-1.56,0.85-1.56,1.75v2.41
	c0,0.98,0.8,1.77,1.77,1.77h8.59v1.47c0,1.47,1.2,2.67,2.67,2.67h0.61c1.47,0,2.67-1.2,2.67-2.67v-1.47h9.63
	c0.98,0,1.77-0.8,1.77-1.77v-2.41C29.11,20.45,28.53,19.76,27.75,19.57z M8.08,6.98c0.82-4.6,5.58-5.26,7.02-5.35l0.12-0.02
	l0.13,0.01l0.03,0l0.19,0.01c1.44,0.09,6.2,0.76,7.01,5.32c0.58,5.7,2.74,10.51,4.13,12.53l-11.39-0.18L3.95,19.49
	C5.34,17.46,7.5,12.66,8.08,6.98z M16.93,26.94c0,1.05-0.85,1.9-1.89,1.9h-0.61c-1.05,0-1.9-0.85-1.9-1.9v-1.47h4.4V26.94z
	 M28.33,23.7c0,0.55-0.45,1-1,1H3.16c-0.55,0-1-0.45-1-1v-2.41c0-0.55,0.45-1,1-1h24.17c0.55,0,1,0.45,1,1V23.7z"/>
</svg>
