<?xml version="1.0" encoding="utf-8"?>
<!-- Generator: Adobe Illustrator 24.0.0, SVG Export Plug-In . SVG Version: 6.00 Build 0)  -->
<svg version="1.1" id="Capa_1" xmlns="http://www.w3.org/2000/svg" xmlns:xlink="http://www.w3.org/1999/xlink" x="0px" y="0px"
	 viewBox="0 0 30 30" style="enable-background:new 0 0 30 30;" xml:space="preserve">
<style type="text/css">
	.st0{fill:#FFFFFF;}
</style>
<g>
	<path class="st0" d="M20.3,5.2H9.2C9,5.2,8.8,5,8.8,4.8c0-2.2,1.8-3.9,3.9-3.9h4.1c2.2,0,3.9,1.8,3.9,3.9C20.7,5,20.6,5.2,20.3,5.2
		z M9.7,4.4h10.2c-0.2-1.5-1.5-2.6-3-2.6h-4.1C11.2,1.7,9.9,2.9,9.7,4.4z"/>
	<path class="st0" d="M21.4,17.8H8.1c-0.2,0-0.4-0.2-0.4-0.4v-0.6c0-2,1.6-5.6,3.9-5.6h6.3c2.3,0,3.9,3.7,3.9,5.6v0.6
		C21.8,17.6,21.6,17.8,21.4,17.8z M8.6,16.9H21v-0.2c0-1.8-1.5-4.8-3.1-4.8h-6.3c-1.6,0-3.1,3-3.1,4.8V16.9z"/>
	<path class="st0" d="M18,11.9h-6.5c-0.1,0-0.2-0.1-0.3-0.1c-0.1-0.1-0.1-0.2-0.1-0.3l0.5-6.6c0-0.2,0.2-0.4,0.4-0.4h5.3
		c0.2,0,0.4,0.2,0.4,0.4l0.7,6.6c0,0.1,0,0.2-0.1,0.3C18.3,11.9,18.1,11.9,18,11.9z M12,11.1h5.5L17,5.4h-4.5L12,11.1z"/>
	<path class="st0" d="M14.8,29.2c-0.2,0-0.3-0.1-0.4-0.3l-0.7-1.7c0,0,0-0.1,0-0.2v-9.7c0-0.2,0.2-0.4,0.4-0.4h1.3
		c0.2,0,0.4,0.2,0.4,0.4v9.7c0,0.1,0,0.1,0,0.1L15.2,29C15.1,29.1,15,29.2,14.8,29.2C14.8,29.2,14.8,29.2,14.8,29.2z M14.6,27
		l0.2,0.6L15,27v-9.2h-0.4V27z M15.4,27.1L15.4,27.1L15.4,27.1z"/>
</g>
</svg>
