<?xml version="1.0" encoding="utf-8"?>
<!-- Generator: Adobe Illustrator 24.0.0, SVG Export Plug-In . SVG Version: 6.00 Build 0)  -->
<svg version="1.1" id="Capa_1" xmlns="http://www.w3.org/2000/svg" xmlns:xlink="http://www.w3.org/1999/xlink" x="0px" y="0px"
	 viewBox="0 0 30 30" style="enable-background:new 0 0 30 30;" xml:space="preserve">
<style type="text/css">
	.st0{fill:#FFFFFF;}
</style>
<path class="st0" d="M26.1,27.4H3.4c-1.2,0-2.2-1-2.2-2.2V10.6c0-1.2,1-2.2,2.2-2.2h11.6V6.7c0-1,0.8-1.9,1.9-1.9h9.5
	c1,0,1.9,0.8,1.9,1.9v18.5C28.3,26.4,27.3,27.4,26.1,27.4z M3.4,9.3c-0.7,0-1.4,0.6-1.4,1.4v14.5c0,0.7,0.6,1.4,1.4,1.4h22.7
	c0.7,0,1.4-0.6,1.4-1.4V6.7c0-0.6-0.5-1-1-1h-9.5c-0.6,0-1,0.5-1,1v2.2c0,0.2-0.2,0.4-0.4,0.4H3.4z"/>
<path class="st0" d="M27.9,9.3H15.5c-0.2,0-0.4-0.2-0.4-0.4s0.2-0.4,0.4-0.4h12.4c0.2,0,0.4,0.2,0.4,0.4S28.1,9.3,27.9,9.3z"/>
</svg>
