<?xml version="1.0" encoding="utf-8"?>
<!-- Generator: Adobe Illustrator 24.3.0, SVG Export Plug-In . SVG Version: 6.00 Build 0)  -->
<svg version="1.1" id="Capa_1" xmlns="http://www.w3.org/2000/svg" xmlns:xlink="http://www.w3.org/1999/xlink" x="0px" y="0px"
	 viewBox="0 0 30 30" style="enable-background:new 0 0 30 30;" xml:space="preserve">
<style type="text/css">
	.st0{fill:#FFFFFF;}
</style>
<path class="st0" d="M28.6,25.5c-0.2,0-0.4-0.1-0.5-0.3c0-0.1-4.1-8.6-10.3-8.6H11l0.1,4.5c0,0.2-0.1,0.4-0.3,0.5
	c-0.2,0.1-0.4,0.1-0.5,0L1.3,15c-0.4-0.3-0.7-0.8-0.7-1.4c0-0.5,0.3-1,0.7-1.4l8.9-6.5c0.2-0.1,0.4-0.1,0.5,0C10.9,5.8,11,6,11,6.2
	L11,10.6h6.8c9.1,0,10.9,5.8,11.3,8.3c0.1,1,0.1,5.7,0.1,6C29.1,25.2,28.9,25.4,28.6,25.5C28.6,25.5,28.6,25.5,28.6,25.5z
	 M10.5,15.6h7.4c5,0,8.7,4.8,10.3,7.5c0-1.5,0-3.4-0.1-3.9c-0.4-2.8-2.3-7.5-10.3-7.5h-7.3c-0.1,0-0.3-0.1-0.4-0.1
	C10,11.4,10,11.3,10,11.1l0.1-4l-8.1,5.9c-0.2,0.1-0.3,0.3-0.3,0.5c0,0.2,0.1,0.4,0.3,0.5l8.1,6l-0.1-4c0-0.1,0.1-0.3,0.1-0.4
	C10.2,15.6,10.3,15.6,10.5,15.6z"/>
</svg>
