<?xml version="1.0" encoding="UTF-8" standalone="no"?>
<!-- Generator: Adobe Illustrator 24.0.0, SVG Export Plug-In . SVG Version: 6.00 Build 0)  -->

<svg
   xmlns:dc="http://purl.org/dc/elements/1.1/"
   xmlns:cc="http://creativecommons.org/ns#"
   xmlns:rdf="http://www.w3.org/1999/02/22-rdf-syntax-ns#"
   xmlns:svg="http://www.w3.org/2000/svg"
   xmlns="http://www.w3.org/2000/svg"
   xmlns:sodipodi="http://sodipodi.sourceforge.net/DTD/sodipodi-0.dtd"
   xmlns:inkscape="http://www.inkscape.org/namespaces/inkscape"
   version="1.1"
   id="Capa_1"
   x="0px"
   y="0px"
   viewBox="0 0 30 30"
   style="enable-background:new 0 0 30 30;"
   xml:space="preserve"
   sodipodi:docname="ask_or2.svg"
   inkscape:version="0.92.5 (2060ec1f9f, 2020-04-08)"><metadata
   id="metadata30"><rdf:RDF><cc:Work
       rdf:about=""><dc:format>image/svg+xml</dc:format><dc:type
         rdf:resource="http://purl.org/dc/dcmitype/StillImage" /><dc:title></dc:title></cc:Work></rdf:RDF></metadata><defs
   id="defs28" /><sodipodi:namedview
   pagecolor="#ffffff"
   bordercolor="#666666"
   borderopacity="1"
   objecttolerance="10"
   gridtolerance="10"
   guidetolerance="10"
   inkscape:pageopacity="0"
   inkscape:pageshadow="2"
   inkscape:window-width="1920"
   inkscape:window-height="1017"
   id="namedview26"
   showgrid="false"
   inkscape:zoom="28.266667"
   inkscape:cx="15"
   inkscape:cy="15"
   inkscape:window-x="1912"
   inkscape:window-y="-8"
   inkscape:window-maximized="1"
   inkscape:current-layer="Capa_1" />
<style
   type="text/css"
   id="style21">
	.st0{fill:#006dd9;}
</style>
<path
   class="st0"
   d="M17.55,29.06H8.84c-0.18,0-0.35-0.11-0.42-0.28c-0.07-0.17-0.04-0.37,0.09-0.5l4.28-4.48  c0.09-0.09,0.21-0.14,0.33-0.14h4.51c3.25-0.1,5.01-1.5,4.96-3.94l0-5.16c0.01-0.5,0.04-1.73-0.89-2.69  c-0.82-0.85-2.19-1.3-4.07-1.33h-6.29l0.06,4.18c0,0.18-0.09,0.34-0.25,0.42s-0.34,0.06-0.49-0.04L2.48,9.05  c-0.4-0.3-0.63-0.75-0.63-1.25c0-0.5,0.23-0.95,0.64-1.25l8.18-5.98c0.14-0.1,0.33-0.12,0.48-0.04s0.25,0.24,0.25,0.42l-0.06,4.1  h6.21c3.63,0,6.39,1,8.21,2.98c2.53,2.76,2.25,6.42,2.23,6.57l0,5.04l0,0c0,0,0.31,3.65-2.21,6.42  C23.97,28.05,21.2,29.06,17.55,29.06z M9.92,28.14h7.63c3.38,0,5.92-0.91,7.55-2.7c2.25-2.47,1.97-5.72,1.97-5.76l0-5.12  c0.01-0.18,0.27-3.44-1.99-5.91c-1.63-1.78-4.16-2.68-7.53-2.68h-6.68c-0.12,0-0.24-0.05-0.33-0.14c-0.09-0.09-0.13-0.21-0.13-0.33  l0.05-3.64L3.03,7.29c0,0,0,0,0,0C2.87,7.41,2.77,7.6,2.77,7.8c0,0.2,0.09,0.39,0.25,0.51l7.43,5.5l-0.05-3.72  c0-0.12,0.05-0.24,0.13-0.33c0.09-0.09,0.21-0.14,0.33-0.14h6.76c2.14,0.03,3.72,0.57,4.72,1.61c0.8,0.82,1.18,1.92,1.15,3.26  l0,5.15c0.04,1.47-0.47,4.79-5.86,4.94h-4.33L9.92,28.14z M2.76,6.92h0.01H2.76z"
   id="path23"
   style="fill:#ffffff" />
</svg>