<?xml version="1.0" encoding="utf-8"?>
<!-- Generator: Adobe Illustrator 24.0.0, SVG Export Plug-In . SVG Version: 6.00 Build 0)  -->
<svg version="1.1" id="Capa_1" xmlns="http://www.w3.org/2000/svg" xmlns:xlink="http://www.w3.org/1999/xlink" x="0px" y="0px"
	 viewBox="0 0 30 30" style="enable-background:new 0 0 30 30;" xml:space="preserve">
<style type="text/css">
	.st0{fill:#006dd9;}
</style>
<g>
	<path class="st0" d="M23.25,23.94H11.98c-0.31,0-0.59-0.18-0.71-0.47s-0.07-0.61,0.14-0.84l2.74-2.99
		c0.15-0.16,0.36-0.25,0.58-0.25h6.8l0.03-6.34l-2.37-0.03c-0.15,0-0.28-0.09-0.34-0.22c-0.06-0.13-0.04-0.29,0.06-0.4l4.44-5.04
		c0.3-0.34,0.87-0.34,1.17,0l4.45,5.04c0.1,0.11,0.12,0.27,0.06,0.4c-0.06,0.14-0.19,0.22-0.34,0.22h-2.34
		c-0.01,0-0.03,0.01-0.03,0.03v7.78C26.32,22.54,24.94,23.94,23.25,23.94z M14.72,20.14l-2.76,3l11.29,0.04
		c1.28,0,2.31-1.06,2.31-2.37v-7.78c0-0.43,0.35-0.78,0.78-0.78h1.5l-3.89-4.41l-3.93,4.41h1.5c0.43,0,0.78,0.35,0.78,0.78v6.32
		c0,0.43-0.35,0.78-0.78,0.78H14.72z M6.31,23.73c-0.22,0-0.44-0.1-0.59-0.27l-4.5-5.09c-0.1-0.11-0.12-0.27-0.06-0.41
		c0.06-0.14,0.2-0.22,0.34-0.22h2.34l0.03-7.4c0-1.91,1.56-3.47,3.47-3.47h10.92c0.32,0,0.59,0.18,0.71,0.47
		c0.13,0.29,0.07,0.61-0.14,0.84l-2.74,2.99c-0.14,0.16-0.36,0.25-0.57,0.25L8.7,11.46v6.26l2.37,0.03c0.15,0,0.28,0.09,0.34,0.22
		c0.06,0.14,0.04,0.29-0.06,0.4L6.9,23.46C6.75,23.63,6.54,23.73,6.31,23.73C6.31,23.73,6.31,23.73,6.31,23.73z M2.35,18.5
		l3.94,4.46l3.93-4.46H8.72c-0.43,0-0.78-0.35-0.78-0.78v-6.26c0-0.43,0.35-0.78,0.78-0.78h6.81l2.76-3L7.35,7.63
		c-1.5,0-2.72,1.22-2.72,2.72v7.37c0,0.43-0.35,0.78-0.78,0.78H2.35z"/>
</g>
</svg>
