<?xml version="1.0" encoding="utf-8"?>
<!-- Generator: Adobe Illustrator 24.0.0, SVG Export Plug-In . SVG Version: 6.00 Build 0)  -->
<svg version="1.1" id="Capa_1" xmlns="http://www.w3.org/2000/svg" xmlns:xlink="http://www.w3.org/1999/xlink" x="0px" y="0px"
	 viewBox="0 0 30 30" style="enable-background:new 0 0 30 30;" xml:space="preserve">
<style type="text/css">
	.st0{fill:#FFFFFF;}
</style>
<path class="st0" d="M13,20.7c-0.1,0-0.2,0-0.3-0.1L8.6,16c-0.1-0.2-0.1-0.4,0-0.5c0.2-0.1,0.4-0.1,0.5,0l3.7,4.2
	c0.8-1.9,3.5-7.8,8.1-11.9c0.2-0.1,0.4-0.1,0.5,0c0.1,0.2,0.1,0.4,0,0.5c-5.3,4.8-8.1,12.1-8.1,12.2C13.3,20.6,13.2,20.7,13,20.7
	C13,20.7,13,20.7,13,20.7z"/>
<path class="st0" d="M14.8,27.7c-7.2,0-13-5.8-13-13s5.8-13,13-13s13,5.8,13,13S22,27.7,14.8,27.7z M14.8,2.4
	C8.1,2.4,2.6,7.9,2.6,14.7c0,6.8,5.5,12.3,12.3,12.3c6.8,0,12.3-5.5,12.3-12.3C27.1,7.9,21.6,2.4,14.8,2.4z"/>
</svg>
