<?xml version="1.0" encoding="utf-8"?>
<!-- Generator: Adobe Illustrator 24.0.0, SVG Export Plug-In . SVG Version: 6.00 Build 0)  -->
<svg version="1.1" id="Capa_1" xmlns="http://www.w3.org/2000/svg" xmlns:xlink="http://www.w3.org/1999/xlink" x="0px" y="0px"
	 viewBox="0 0 30 30" style="enable-background:new 0 0 30 30;" xml:space="preserve">
<style type="text/css">
	.st0{fill:#FFFFFF;}
</style>
<g>
	<g>
		<path class="st0" d="M23.5,10.6c-2.3,0-4.1-1.9-4.1-4.1s1.9-4.1,4.1-4.1s4.1,1.9,4.1,4.1S25.8,10.6,23.5,10.6z M23.5,3.2
			c-1.8,0-3.2,1.4-3.2,3.2s1.4,3.2,3.2,3.2c1.8,0,3.2-1.4,3.2-3.2S25.3,3.2,23.5,3.2z"/>
		<path class="st0" d="M23.5,28.2c-2.3,0-4.1-1.9-4.1-4.1s1.9-4.1,4.1-4.1s4.1,1.9,4.1,4.1S25.8,28.2,23.5,28.2z M23.5,20.8
			c-1.8,0-3.2,1.4-3.2,3.2c0,1.8,1.4,3.2,3.2,3.2c1.8,0,3.2-1.4,3.2-3.2C26.8,22.3,25.3,20.8,23.5,20.8z"/>
		<path class="st0" d="M20.2,22.8c-0.1,0-0.2,0-0.2-0.1l-10.4-6c-0.2-0.1-0.3-0.4-0.2-0.6c0.1-0.2,0.4-0.3,0.6-0.2l10.4,6
			c0.2,0.1,0.3,0.4,0.2,0.6C20.5,22.7,20.3,22.8,20.2,22.8z"/>
		<path class="st0" d="M9.8,14.9c-0.2,0-0.3-0.1-0.4-0.2c-0.1-0.2-0.1-0.5,0.2-0.6l10.4-6c0.2-0.1,0.5-0.1,0.6,0.2
			c0.1,0.2,0.1,0.5-0.2,0.6l-10.4,6C9.9,14.9,9.8,14.9,9.8,14.9z"/>
	</g>
	<path class="st0" d="M6.1,19.4c-2.3,0-4.1-1.9-4.1-4.1s1.9-4.1,4.1-4.1s4.1,1.9,4.1,4.1S8.4,19.4,6.1,19.4z M6.1,12
		c-1.8,0-3.2,1.4-3.2,3.2s1.4,3.2,3.2,3.2c1.8,0,3.2-1.4,3.2-3.2S7.9,12,6.1,12z"/>
</g>
</svg>
