<?xml version="1.0" encoding="utf-8"?>
<!-- Generator: Adobe Illustrator 24.0.0, SVG Export Plug-In . SVG Version: 6.00 Build 0)  -->
<svg version="1.1" id="Capa_1" xmlns="http://www.w3.org/2000/svg" xmlns:xlink="http://www.w3.org/1999/xlink" x="0px" y="0px"
	 viewBox="0 0 30 30" style="enable-background:new 0 0 30 30;" xml:space="preserve">
<style type="text/css">
	.st0{fill:#FFFFFF;}
</style>
<path class="st0" d="M16.5,18.1h-2.4c-0.2,0-0.4-0.2-0.4-0.4c0-0.2,0.2-0.4,0.4-0.4h2.4c0.5,0,0.9-0.5,0.9-1.1V8.1
	c0-0.6-0.4-1.1-0.9-1.1H3.7C3.2,7,2.8,7.5,2.8,8.1v8.1c0,0.6,0.4,1.1,0.9,1.1h7.2c0.2,0,0.4,0.2,0.4,0.4c0,0.2-0.2,0.4-0.4,0.4H3.7
	c-0.9,0-1.7-0.9-1.7-1.9V8.1C2,7,2.7,6.2,3.7,6.2h12.8c0.9,0,1.7,0.9,1.7,1.9v8.1C18.1,17.3,17.4,18.1,16.5,18.1z"/>
<path class="st0" d="M26.6,24.2H13.8c-0.9,0-1.7-0.9-1.7-1.9v-8.1c0-1.1,0.8-1.9,1.7-1.9H16c0.2,0,0.4,0.2,0.4,0.4s-0.2,0.4-0.4,0.4
	h-2.2c-0.5,0-0.9,0.5-0.9,1.1v8.1c0,0.6,0.4,1.1,0.9,1.1h12.8c0.5,0,0.9-0.5,0.9-1.1v-8.1c0-0.6-0.4-1.1-0.9-1.1h-7.1
	c-0.2,0-0.4-0.2-0.4-0.4s0.2-0.4,0.4-0.4h7.1c0.9,0,1.7,0.9,1.7,1.9v8.1C28.3,23.4,27.5,24.2,26.6,24.2z"/>
</svg>
