<?xml version="1.0" encoding="utf-8"?>
<!-- Generator: Adobe Illustrator 24.0.0, SVG Export Plug-In . SVG Version: 6.00 Build 0)  -->
<svg version="1.1" id="Capa_1" xmlns="http://www.w3.org/2000/svg" xmlns:xlink="http://www.w3.org/1999/xlink" x="0px" y="0px"
	 viewBox="0 0 30 30" style="enable-background:new 0 0 30 30;" xml:space="preserve">
<style type="text/css">
	.st0{fill:none;stroke:#FFFFFF;stroke-width:0.5;stroke-linecap:round;stroke-linejoin:round;stroke-miterlimit:10;}
	.st1{fill:#006dd9;stroke:#FFFFFF;stroke-miterlimit:10;}
</style>
<path class="st1" d="M16.6,19.8h-3.2c-0.2,0-0.4-0.2-0.4-0.4c0-0.2,0.2-0.4,0.4-0.4h3.2c1.5,0,2.7-1.2,2.7-2.7V9.8
	c0-1.5-1.2-2.7-2.7-2.7H4.9c-1.5,0-2.7,1.2-2.7,2.7v6.6c0,1.5,1.2,2.7,2.7,2.7h5.5c0.2,0,0.4,0.2,0.4,0.4c0,0.2-0.2,0.4-0.4,0.4H4.9
	c-1.9,0-3.5-1.6-3.5-3.5V9.8c0-1.9,1.6-3.5,3.5-3.5h11.8c1.9,0,3.5,1.6,3.5,3.5v6.6C20.1,18.3,18.5,19.8,16.6,19.8z"/>
<path class="st1" d="M15.9,17.2h-2.2c-0.2,0-0.4-0.2-0.4-0.4s0.2-0.4,0.4-0.4h2.2c0.4,0,0.6-0.3,0.6-0.6v-5.5c0-0.4-0.3-0.6-0.6-0.6
	H5.7c-0.4,0-0.6,0.3-0.6,0.6v5.5c0,0.4,0.3,0.6,0.6,0.6h4.6c0.2,0,0.4,0.2,0.4,0.4s-0.2,0.4-0.4,0.4H5.7c-0.8,0-1.4-0.6-1.4-1.4
	v-5.5c0-0.8,0.6-1.4,1.4-1.4h10.2c0.8,0,1.4,0.6,1.4,1.4v5.5C17.3,16.6,16.7,17.2,15.9,17.2z"/>
<path class="st1" d="M25.4,24.1H13.6c-1.9,0-3.5-1.6-3.5-3.5v-6.6c0-1.9,1.6-3.5,3.5-3.5h2c0.2,0,0.4,0.2,0.4,0.4
	c0,0.2-0.2,0.4-0.4,0.4h-2c-1.5,0-2.7,1.2-2.7,2.7v6.6c0,1.5,1.2,2.7,2.7,2.7h11.8c1.5,0,2.7-1.2,2.7-2.7v-6.6
	c0-1.5-1.2-2.7-2.7-2.7h-4.3c-0.2,0-0.4-0.2-0.4-0.4c0-0.2,0.2-0.4,0.4-0.4h4.3c1.9,0,3.5,1.6,3.5,3.5v6.6
	C28.8,22.6,27.3,24.1,25.4,24.1z"/>
<path class="st1" d="M24.7,21.5H14.5c-0.8,0-1.4-0.6-1.4-1.4v-5.5c0-0.8,0.6-1.4,1.4-1.4h1.2c0.2,0,0.4,0.2,0.4,0.4S15.9,14,15.7,14
	h-1.2c-0.4,0-0.6,0.3-0.6,0.6v5.5c0,0.4,0.3,0.6,0.6,0.6h10.2c0.4,0,0.6-0.3,0.6-0.6v-5.5c0-0.4-0.3-0.6-0.6-0.6h-3.5
	c-0.2,0-0.4-0.2-0.4-0.4s0.2-0.4,0.4-0.4h3.5c0.8,0,1.4,0.6,1.4,1.4v5.5C26.1,20.9,25.4,21.5,24.7,21.5z"/>
</svg>
