<?xml version="1.0" encoding="UTF-8" standalone="no"?>
<!-- Generator: Adobe Illustrator 24.0.0, SVG Export Plug-In . SVG Version: 6.00 Build 0)  -->

<svg
   xmlns:dc="http://purl.org/dc/elements/1.1/"
   xmlns:cc="http://creativecommons.org/ns#"
   xmlns:rdf="http://www.w3.org/1999/02/22-rdf-syntax-ns#"
   xmlns:svg="http://www.w3.org/2000/svg"
   xmlns="http://www.w3.org/2000/svg"
   xmlns:sodipodi="http://sodipodi.sourceforge.net/DTD/sodipodi-0.dtd"
   xmlns:inkscape="http://www.inkscape.org/namespaces/inkscape"
   version="1.1"
   id="Capa_1"
   x="0px"
   y="0px"
   viewBox="0 0 30 30"
   style="enable-background:new 0 0 30 30;"
   xml:space="preserve"
   sodipodi:docname="dislike_blue.svg"
   inkscape:version="0.92.5 (2060ec1f9f, 2020-04-08)"><metadata
   id="metadata30"><rdf:RDF><cc:Work
       rdf:about=""><dc:format>image/svg+xml</dc:format><dc:type
         rdf:resource="http://purl.org/dc/dcmitype/StillImage" /><dc:title></dc:title></cc:Work></rdf:RDF></metadata><defs
   id="defs28" /><sodipodi:namedview
   pagecolor="#ffffff"
   bordercolor="#666666"
   borderopacity="1"
   objecttolerance="10"
   gridtolerance="10"
   guidetolerance="10"
   inkscape:pageopacity="0"
   inkscape:pageshadow="2"
   inkscape:window-width="1920"
   inkscape:window-height="1017"
   id="namedview26"
   showgrid="false"
   inkscape:zoom="28.266667"
   inkscape:cx="15"
   inkscape:cy="15"
   inkscape:window-x="1912"
   inkscape:window-y="-8"
   inkscape:window-maximized="1"
   inkscape:current-layer="Capa_1" />
<style
   type="text/css"
   id="style21">
	.st0{fill:#006dd9;}
</style>
<path
   class="st0"
   d="M27.45,4.17c-0.03-0.08-0.71-2.09-2.55-2.44c-1.34-0.26-7.45-0.23-10.01-0.21c-0.54,0-1.08,0.09-1.62,0.26  c-0.47,0.15-1.22,0.33-2.18,0.33H8.62V1.7c0-0.67-0.54-1.21-1.21-1.21H2.48c-0.79,0-1.64,0.37-1.64,1.17l0,13.36  c0.02,0.56,0.41,1.62,1.69,1.62c1.24,0,4.48,0.01,4.57,0c0.03-0.01,0.64-0.15,0.96-0.78c0.65,0.52,2.09,1.96,2.99,3.6  c0.88,1.6,1.79,2.08,2.52,2.46c0.34,0.18,0.63,0.33,0.88,0.58c0.76,0.76,1.84,3.75,1.9,4.56c0.14,1.76,1.53,2.68,2.8,2.68  c0.03,0,0.06,0,0.08,0c1.14-0.04,2.3-0.86,2.33-2.63c0.07-4.6-0.7-5.67-1.17-6.31c-0.05-0.07-0.1-0.13-0.14-0.2  c-0.26-0.41-1.03-1.27-1.59-1.88l7.22,0c1.03-0.09,3.01-0.84,3.15-3.01C29.21,13.3,27.54,4.59,27.45,4.17z M7.02,15.86  c0,0-3.24-0.01-4.49-0.01c-0.81,0-0.89-0.72-0.9-0.85V1.65c0-0.31,0.68-0.38,0.85-0.38H7.4c0.23,0,0.42,0.19,0.42,0.42v0.42  c-0.21,0-0.39,0.18-0.39,0.39v12.75C7.34,15.75,6.97,15.86,7.02,15.86z M28.26,15.67c-0.13,2.03-2.34,2.26-2.4,2.27h-8.1  c-0.16,0-0.3,0.09-0.36,0.24c-0.06,0.15-0.03,0.32,0.08,0.43c0.49,0.51,1.82,1.94,2.12,2.42c0.05,0.08,0.11,0.16,0.17,0.24  c0.4,0.56,1.08,1.49,1.01,5.83c-0.02,1.33-0.82,1.83-1.56,1.85c-0.91,0.07-1.97-0.64-2.07-1.95c-0.07-0.87-1.17-4.1-2.13-5.06  c-0.33-0.33-0.69-0.52-1.07-0.72c-0.7-0.37-1.43-0.75-2.2-2.14c-0.86-1.56-2.6-3.5-3.52-4.03V2.9h2.86c1.06,0,1.9-0.2,2.42-0.36  c0.46-0.15,0.92-0.22,1.38-0.23c1.98-0.02,8.55-0.05,9.86,0.2c1.36,0.26,1.93,1.86,1.94,1.86C26.71,4.48,28.41,13.35,28.26,15.67z"
   id="path23" />
<path
   style="fill:#006dd9;fill-opacity:1;stroke-width:0.03537736"
   d="M 2.2639219,15.801851 C 2.0031395,15.722525 1.8486954,15.587181 1.7364633,15.339623 1.6646265,15.181167 1.6642861,15.148632 1.6635128,8.3669218 1.6627523,1.6979236 1.6641731,1.5521182 1.7305039,1.4920897 c 0.037272,-0.033731 0.1660492,-0.091918 0.2861708,-0.1293038 0.2071921,-0.064485 0.3537011,-0.067975 2.8542499,-0.067975 2.3638828,0 2.6458358,0.0059 2.7326571,0.057187 0.148725,0.087854 0.190315,0.1843829 0.2078077,0.4823177 0.015546,0.2647758 0.013395,0.2741746 -0.06274,0.2741746 -0.043361,0 -0.1329654,0.054127 -0.1991211,0.120283 l -0.120283,0.120283 v 6.4359149 c 0,7.1787019 0.019507,6.6318619 -0.2465544,6.9115509 l -0.1316413,0.138384 -2.3492276,-0.003 c -1.2920752,-0.0017 -2.3891302,-0.01518 -2.4379001,-0.03001 z"
   id="path32"
   inkscape:connector-curvature="0" /><path
   style="fill:#006dd9;fill-opacity:1;stroke-width:0.03537736"
   d="M 18.632948,28.873552 C 18.300565,28.778041 18.065777,28.635094 17.7916,28.361314 17.445347,28.01556 17.283477,27.701053 17.206728,27.224929 16.949015,25.626171 16.117741,23.435692 15.343556,22.315311 15.017532,21.843497 14.73423,21.627198 13.693093,21.055194 12.874995,20.605729 12.363524,20.096727 11.860183,19.231132 11.373762,18.394635 10.940552,17.767073 10.382702,17.090802 9.718504,16.285609 8.9282385,15.501358 8.4651535,15.187848 L 8.2451655,15.038915 8.244045,8.9837897 8.2429245,2.9286644 10.056014,2.9123952 c 2.097388,-0.01882 2.413853,-0.050956 3.418049,-0.347092 0.779831,-0.2299708 0.612416,-0.2192773 3.683956,-0.235311 3.699479,-0.019312 6.456304,0.044202 7.407729,0.170664 0.83079,0.1104276 1.496777,0.6534834 1.980284,1.6147535 0.116306,0.2312291 0.150479,0.3753318 0.35656,1.5035377 0.947222,5.1856556 1.446338,8.9784426 1.330314,10.1090716 -0.107242,1.045037 -0.731477,1.739787 -1.882916,2.095615 l -0.259188,0.0801 -4.257039,0.01806 -4.257038,0.01806 -0.103221,0.115535 c -0.07974,0.08925 -0.103168,0.149613 -0.102988,0.26533 2.83e-4,0.1906 0.03344,0.237987 0.552729,0.790168 1.328023,1.412153 2.023644,2.317561 2.287978,2.977995 0.206923,0.516995 0.363472,1.223708 0.44842,2.024322 0.114571,1.079789 0.144517,2.980952 0.05438,3.452072 -0.11078,0.578997 -0.394708,0.978662 -0.85788,1.207573 -0.24832,0.122727 -0.283356,0.130164 -0.657684,0.139608 -0.259114,0.0065 -0.454023,-0.0069 -0.565508,-0.03891 z"
   id="path34"
   inkscape:connector-curvature="0" /></svg>