<?xml version="1.0" encoding="UTF-8" standalone="no"?>
<!-- Generator: Adobe Illustrator 24.0.0, SVG Export Plug-In . SVG Version: 6.00 Build 0)  -->

<svg
   xmlns:dc="http://purl.org/dc/elements/1.1/"
   xmlns:cc="http://creativecommons.org/ns#"
   xmlns:rdf="http://www.w3.org/1999/02/22-rdf-syntax-ns#"
   xmlns:svg="http://www.w3.org/2000/svg"
   xmlns="http://www.w3.org/2000/svg"
   xmlns:sodipodi="http://sodipodi.sourceforge.net/DTD/sodipodi-0.dtd"
   xmlns:inkscape="http://www.inkscape.org/namespaces/inkscape"
   version="1.1"
   id="Capa_1"
   x="0px"
   y="0px"
   viewBox="0 0 30 30"
   style="enable-background:new 0 0 30 30;"
   xml:space="preserve"
   sodipodi:docname="dislike_like.svg"
   inkscape:version="0.92.5 (2060ec1f9f, 2020-04-08)"><metadata
   id="metadata11"><rdf:RDF><cc:Work
       rdf:about=""><dc:format>image/svg+xml</dc:format><dc:type
         rdf:resource="http://purl.org/dc/dcmitype/StillImage" /><dc:title></dc:title></cc:Work></rdf:RDF></metadata><defs
   id="defs9" /><sodipodi:namedview
   pagecolor="#959aff"
   bordercolor="#666666"
   borderopacity="1"
   objecttolerance="10"
   gridtolerance="10"
   guidetolerance="10"
   inkscape:pageopacity="0"
   inkscape:pageshadow="2"
   inkscape:window-width="1920"
   inkscape:window-height="1017"
   id="namedview7"
   showgrid="false"
   inkscape:zoom="7.8666667"
   inkscape:cx="-0.82627119"
   inkscape:cy="15"
   inkscape:window-x="1912"
   inkscape:window-y="-8"
   inkscape:window-maximized="1"
   inkscape:current-layer="Capa_1" />
<style
   type="text/css"
   id="style2">
	.st0{fill:#006dd9;}
</style>
<path
   class="st0"
   d="M27.45,4.17c-0.03-0.08-0.71-2.09-2.55-2.44c-1.34-0.26-7.45-0.23-10.01-0.21c-0.54,0-1.08,0.09-1.62,0.26  c-0.47,0.15-1.22,0.33-2.18,0.33H8.62V1.7c0-0.67-0.54-1.21-1.21-1.21H2.48c-0.79,0-1.64,0.37-1.64,1.17l0,13.36  c0.02,0.56,0.41,1.62,1.69,1.62c1.24,0,4.48,0.01,4.57,0c0.03-0.01,0.64-0.15,0.96-0.78c0.65,0.52,2.09,1.96,2.99,3.6  c0.88,1.6,1.79,2.08,2.52,2.46c0.34,0.18,0.63,0.33,0.88,0.58c0.76,0.76,1.84,3.75,1.9,4.56c0.14,1.76,1.53,2.68,2.8,2.68  c0.03,0,0.06,0,0.08,0c1.14-0.04,2.3-0.86,2.33-2.63c0.07-4.6-0.7-5.67-1.17-6.31c-0.05-0.07-0.1-0.13-0.14-0.2  c-0.26-0.41-1.03-1.27-1.59-1.88l7.22,0c1.03-0.09,3.01-0.84,3.15-3.01C29.21,13.3,27.54,4.59,27.45,4.17z M7.02,15.86  c0,0-3.24-0.01-4.49-0.01c-0.81,0-0.89-0.72-0.9-0.85V1.65c0-0.31,0.68-0.38,0.85-0.38H7.4c0.23,0,0.42,0.19,0.42,0.42v0.42  c-0.21,0-0.39,0.18-0.39,0.39v12.75C7.34,15.75,6.97,15.86,7.02,15.86z M28.26,15.67c-0.13,2.03-2.34,2.26-2.4,2.27h-8.1  c-0.16,0-0.3,0.09-0.36,0.24c-0.06,0.15-0.03,0.32,0.08,0.43c0.49,0.51,1.82,1.94,2.12,2.42c0.05,0.08,0.11,0.16,0.17,0.24  c0.4,0.56,1.08,1.49,1.01,5.83c-0.02,1.33-0.82,1.83-1.56,1.85c-0.91,0.07-1.97-0.64-2.07-1.95c-0.07-0.87-1.17-4.1-2.13-5.06  c-0.33-0.33-0.69-0.52-1.07-0.72c-0.7-0.37-1.43-0.75-2.2-2.14c-0.86-1.56-2.6-3.5-3.52-4.03V2.9h2.86c1.06,0,1.9-0.2,2.42-0.36  c0.46-0.15,0.92-0.22,1.38-0.23c1.98-0.02,8.55-0.05,9.86,0.2c1.36,0.26,1.93,1.86,1.94,1.86C26.71,4.48,28.41,13.35,28.26,15.67z"
   id="path4"
   style="fill:#ffffff" />
<path
   style="fill:#ffffff;stroke-width:0.12711865"
   d="m 18.495828,28.789392 c -0.629643,-0.251073 -1.271252,-1.066838 -1.271252,-1.616316 0,-0.507117 -0.668693,-2.527285 -1.209598,-3.65428 C 15.370089,22.175147 14.99895,21.75902 13.890349,21.136627 12.895199,20.577929 12.523077,20.180644 11.439048,18.519573 10.929776,17.73921 10.113688,16.729529 9.4507477,16.059608 L 8.3262712,14.923291 V 8.9807952 3.0382998 l 1.9385598,-0.071108 c 1.336033,-0.049007 2.308518,-0.1580804 3.128862,-0.3509315 1.144294,-0.269007 1.382602,-0.277746 6.165254,-0.2260856 4.354326,0.047034 5.037803,0.081099 5.478773,0.2730704 1.239162,0.5394536 1.495259,1.0548956 2.035594,4.0970086 0.683491,3.8480753 1.083466,6.9091573 1.083466,8.2919603 0,1.534107 -0.205022,1.93545 -1.262333,2.471091 l -0.690036,0.349576 h -4.273815 c -5.282644,0 -5.216573,-0.02933 -3.676426,1.632281 1.848949,1.994773 2.194296,2.760059 2.418441,5.359245 0.216792,2.513918 0.01438,3.46217 -0.823934,3.859978 -0.491262,0.233117 -0.883937,0.251987 -1.352849,0.06501 z"
   id="path28"
   inkscape:connector-curvature="0" /><path
   style="fill:#ffffff;stroke-width:0.12711865"
   d="M 2.2245763,15.750765 C 1.7194045,15.570221 1.7161017,15.522421 1.7161017,8.3918464 c 0,-6.1655766 0.021143,-6.898183 0.2010747,-6.9672292 0.110591,-0.042438 1.4537808,-0.07716 2.9848662,-0.07716 h 2.7837916 l 0.083946,0.3344691 c 0.060448,0.2408416 0.025541,0.367155 -0.1246964,0.4512322 -0.1892104,0.1058875 -0.2086431,0.7232836 -0.2086431,6.6287716 0,5.6881389 -0.025036,6.5477529 -0.1978861,6.7945309 -0.1926337,0.275023 -0.2592712,0.282255 -2.5105933,0.272486 -1.2719889,-0.0055 -2.3985122,-0.0407 -2.503385,-0.07818 z"
   id="path30"
   inkscape:connector-curvature="0" /></svg>