<?xml version="1.0" encoding="utf-8"?>
<!-- Generator: Adobe Illustrator 24.0.0, SVG Export Plug-In . SVG Version: 6.00 Build 0)  -->
<svg version="1.1" id="Capa_1" xmlns="http://www.w3.org/2000/svg" xmlns:xlink="http://www.w3.org/1999/xlink" x="0px" y="0px"
	 viewBox="0 0 30 30" style="enable-background:new 0 0 30 30;" xml:space="preserve">
<style type="text/css">
	.st0{fill:#FFFFFF;}
</style>
<path class="st0" d="M24.8,3.8l-5.2-3c-0.1-0.1-0.2-0.1-0.3,0c-0.1,0-0.2,0.1-0.2,0.2l-12,21.3c0,0,0,0.1-0.1,0.2l-0.4,6.3
	c0,0.1,0.1,0.3,0.2,0.4c0.1,0,0.1,0.1,0.2,0.1c0.1,0,0.1,0,0.2-0.1l5.4-3.4c0.1,0,0.1-0.1,0.1-0.1l0.6-1l0,0l0,0L22.9,8
	c0,0,0.1-0.1,0.1-0.1c0,0,0-0.1,0-0.1l1.9-3.4C25,4.2,25,4,24.8,3.8z M12.9,23.9l-4.4-2.5l9.1-16.1l4.5,2.6L12.9,23.9z M7.5,28
	l0.3-5.4L8.1,22l4.4,2.5l-0.3,0.6L7.5,28z M22.5,7.1L18,4.5l1.6-2.8L24,4.3L22.5,7.1z"/>
</svg>
