<?xml version="1.0" encoding="utf-8"?>
<!-- Generator: Adobe Illustrator 24.3.0, SVG Export Plug-In . SVG Version: 6.00 Build 0)  -->
<svg version="1.1" id="Capa_1" xmlns="http://www.w3.org/2000/svg" xmlns:xlink="http://www.w3.org/1999/xlink" x="0px" y="0px"
	 viewBox="0 0 30 30" style="enable-background:new 0 0 30 30;" xml:space="preserve">
<style type="text/css">
	.st0{fill:#006dd9;}
</style>
<path class="st0" d="M14.9,29.5C7,29.5,0.5,23,0.5,15c0-8,6.5-14.5,14.5-14.5S29.4,7,29.4,15S22.9,29.5,14.9,29.5z M14.9,1.5
	C7.5,1.5,1.5,7.6,1.5,15s6,13.5,13.4,13.5s13.5-6,13.5-13.4C28.4,7.6,22.4,1.5,14.9,1.5z"/>
<path class="st0" d="M22.6,15.5C22.6,15.5,22.6,15.5,22.6,15.5L8,15.5c-0.2,0-0.5-0.2-0.5-0.5c0-0.2,0.2-0.5,0.5-0.5c0,0,0,0,0,0
	l14.6,0c0.2,0,0.5,0.2,0.5,0.5C23.1,15.3,22.9,15.5,22.6,15.5z"/>
</svg>
