<?xml version="1.0" encoding="utf-8"?>
<!-- Generator: Adobe Illustrator 24.0.0, SVG Export Plug-In . SVG Version: 6.00 Build 0)  -->
<svg version="1.1" id="Capa_1" xmlns="http://www.w3.org/2000/svg" xmlns:xlink="http://www.w3.org/1999/xlink" x="0px" y="0px"
	 viewBox="0 0 30 30" style="enable-background:new 0 0 30 30;" xml:space="preserve">
<style type="text/css">
	.st0{fill:#FFFFFF;}
</style>
<g>
	<path class="st0" d="M24.2,2.4H20V2c0-0.8-0.7-1.5-1.5-1.5h-5.9c-0.8,0-1.5,0.7-1.5,1.5v0.4H6.9c-1.3,0-2.4,1-2.4,2.2v2.1
		C4.4,6.9,4.6,7,4.8,7h0.7v20c0,1.2,1,2.2,2.2,2.2h15.7c1.2,0,2.2-1,2.2-2.2V7h0.7c0.2,0,0.4-0.2,0.4-0.4V4.5
		C26.6,3.3,25.5,2.4,24.2,2.4z M11.9,2c0-0.4,0.3-0.7,0.7-0.7h5.9c0.4,0,0.7,0.3,0.7,0.7v0.3h-7.3V2z M24.8,27
		c0,0.8-0.6,1.4-1.4,1.4H7.7c-0.8,0-1.4-0.6-1.4-1.4V7h18.5L24.8,27L24.8,27z M25.9,6.3H5.2V4.5c0-0.8,0.7-1.4,1.7-1.4h17.3
		c0.9,0,1.6,0.6,1.6,1.4V6.3z"/>
	<path class="st0" d="M10.9,24.4c0.2,0,0.4-0.2,0.4-0.4V11.1c0-0.2-0.2-0.4-0.4-0.4s-0.4,0.2-0.4,0.4V24
		C10.6,24.2,10.7,24.4,10.9,24.4z"/>
	<path class="st0" d="M15.7,24.4c0.2,0,0.4-0.2,0.4-0.4V11.1c0-0.2-0.2-0.4-0.4-0.4s-0.4,0.2-0.4,0.4V24
		C15.3,24.2,15.4,24.4,15.7,24.4z"/>
	<path class="st0" d="M20.4,24.4c0.2,0,0.4-0.2,0.4-0.4V11.1c0-0.2-0.2-0.4-0.4-0.4S20,10.9,20,11.1V24C20,24.2,20.2,24.4,20.4,24.4
		z"/>
</g>
</svg>
