<?xml version="1.0" encoding="utf-8"?>
<!-- Generator: Adobe Illustrator 24.0.0, SVG Export Plug-In . SVG Version: 6.00 Build 0)  -->
<svg version="1.1" id="Capa_1" xmlns="http://www.w3.org/2000/svg" xmlns:xlink="http://www.w3.org/1999/xlink" x="0px" y="0px"
	 viewBox="0 0 30 30" style="enable-background:new 0 0 30 30;" xml:space="preserve">
<style type="text/css">
	.st0{fill:#006dd9;}
</style>
<path class="st0" d="M28.75,18.11c-2.12-6.52-1.5-12.37-1.49-12.43c0.02-0.17-0.06-0.33-0.21-0.42c-0.14-0.09-0.33-0.09-0.47,0
	c-0.02,0.01-0.45,0.28-2.25,0.78c-1.9,0.53-5.43,0.67-5.47,0.67c-0.24,0.01-0.43,0.21-0.42,0.45c0.01,0.24,0.22,0.43,0.45,0.42
	c0.15-0.01,3.67-0.15,5.67-0.7c0.82-0.23,1.39-0.42,1.77-0.56c-0.1,1.78-0.17,6.47,1.49,11.75c-0.9,0.61-2.1,0.88-4.86,1.15
	c-4.16,0.4-5.07,0.1-5.08,0.09c-0.05-0.02-0.09-0.04-0.14-0.04c-0.06-0.01-0.27-0.06-0.3-0.16c-0.01-0.02-0.13-0.46,1.31-1.73
	c0.06-0.05,0.1-0.12,0.12-0.19c0.08-0.09,0.13-0.21,0.12-0.33l-0.97-11.9c-0.01-0.11-0.06-0.21-0.13-0.28
	c-0.11-0.1-2.65-2.46-7.35-2.01C7.15,3,4.83,3.98,3.78,4.51V2.27c0-0.37,0.32-0.67,0.72-0.67h0.41c0.01,0,0.7,0.03,0.7,0.43v0.48
	c0,0.24,0.2,0.44,0.44,0.44c0.24,0,0.44-0.2,0.44-0.44V2.03c0-0.99-1.01-1.29-1.55-1.31H4.5c-0.88,0-1.6,0.69-1.6,1.54v26.68
	c0,0.24,0.2,0.44,0.44,0.44h2.7c0.24,0,0.44-0.2,0.44-0.44V18.73c0-0.24-0.2-0.44-0.44-0.44c-0.24,0-0.44,0.2-0.44,0.44v9.77H3.78
	V18.09c1.28-0.37,9.93-2.74,13.93-0.93c-0.94,0.93-1.3,1.64-1.11,2.23c0.18,0.57,0.78,0.71,0.98,0.75c0.19,0.06,0.69,0.17,1.85,0.17
	c0.83,0,1.99-0.05,3.61-0.21c3.22-0.32,4.46-0.65,5.56-1.51C28.75,18.48,28.81,18.28,28.75,18.11z M3.92,17.14
	C3.91,9.36,3.91,6.54,3.8,5.49c0.67-0.37,3.1-1.58,6.82-1.94c3.74-0.38,6.01,1.24,6.54,1.67l0.91,11.15
	C14.02,14.55,6.12,16.53,3.92,17.14z"/>
</svg>
