<?xml version="1.0" encoding="utf-8"?>
<!-- Generator: Adobe Illustrator 24.0.0, SVG Export Plug-In . SVG Version: 6.00 Build 0)  -->
<svg version="1.1" id="Capa_1" xmlns="http://www.w3.org/2000/svg" xmlns:xlink="http://www.w3.org/1999/xlink" x="0px" y="0px"
	 viewBox="0 0 30 30" style="enable-background:new 0 0 30 30;" xml:space="preserve">
<style type="text/css">
	.st0{fill:#FFFFFF;}
</style>
<path class="st0" d="M15.1,27.1c-0.1,0-0.2,0-0.3-0.1c-0.6-0.4-15.4-9.4-13-18.9c1-4,6-5,6.6-5c3,0,5.3,1.8,6.6,3.1
	c1.3-1.3,3.6-3.1,6.6-3.1c0.7,0,5.6,1,6.6,5l0,0c2.4,9.5-12.4,18.5-13,18.9C15.3,27.1,15.2,27.1,15.1,27.1z M8.5,4.2
	c0,0-4.7,0.7-5.6,4.2c-2,8.1,10.2,16.3,12.2,17.6c2-1.3,14.2-9.5,12.2-17.6l0,0c-0.9-3.5-5.6-4.2-5.6-4.2c-2.9,0-5.1,2-6.2,3.1
	c-0.2,0.2-0.6,0.2-0.8,0C13.6,6.1,11.4,4.2,8.5,4.2z"/>
</svg>
