<?xml version="1.0" encoding="utf-8"?>
<!-- Generator: Adobe Illustrator 24.0.0, SVG Export Plug-In . SVG Version: 6.00 Build 0)  -->
<svg version="1.1" id="Capa_1" xmlns="http://www.w3.org/2000/svg" xmlns:xlink="http://www.w3.org/1999/xlink" x="0px" y="0px"
	 viewBox="0 0 40 40" style="enable-background:new 0 0 40 40;" xml:space="preserve">
<style type="text/css">
	.st0{fill:#006dd9;}
</style>
<g>
	<path class="st0" d="M2.43,7.94h18.3c0,0,0.01,0,0.01,0v1.53c0,1.76,1.43,3.19,3.19,3.19s3.19-1.43,3.19-3.19V7.94h10.6
		c0.28,0,0.51-0.23,0.51-0.51S38,6.92,37.72,6.92h-10.6V5.4c0-1.76-1.43-3.19-3.19-3.19s-3.19,1.43-3.19,3.19v1.53
		c0,0-0.01,0-0.01,0H2.43c-0.28,0-0.51,0.23-0.51,0.51S2.15,7.94,2.43,7.94z M21.75,5.4c0-1.2,0.97-2.18,2.18-2.18
		c1.2,0,2.18,0.98,2.18,2.18v1.97c0,0.03-0.03,0.04-0.03,0.07c0,0.03,0.02,0.04,0.03,0.07v1.97c0,1.2-0.98,2.18-2.18,2.18
		c-1.2,0-2.18-0.98-2.18-2.18V5.4z"/>
	<path class="st0" d="M37.72,32.93h-10.6V31.4c0-1.76-1.43-3.19-3.19-3.19s-3.19,1.43-3.19,3.19v1.53c0,0-0.01,0-0.01,0H2.43
		c-0.28,0-0.51,0.23-0.51,0.51c0,0.28,0.23,0.51,0.51,0.51h18.3c0,0,0.01,0,0.01,0v1.53c0,1.76,1.43,3.19,3.19,3.19
		s3.19-1.43,3.19-3.19v-1.53h10.6c0.28,0,0.51-0.23,0.51-0.51C38.23,33.15,38,32.93,37.72,32.93z M26.1,35.47
		c0,1.2-0.98,2.18-2.18,2.18c-1.2,0-2.18-0.98-2.18-2.18V31.4c0-1.2,0.97-2.18,2.18-2.18c1.2,0,2.18,0.98,2.18,2.18V35.47z"/>
	<path class="st0" d="M37.72,19.86H15.56V18.4c0-1.76-1.43-3.19-3.19-3.19s-3.19,1.43-3.19,3.19v1.46H2.42
		c-0.28,0-0.51,0.23-0.51,0.51s0.23,0.51,0.51,0.51h6.76v1.59c0,1.76,1.43,3.19,3.19,3.19s3.19-1.43,3.19-3.19v-1.59h22.16
		c0.28,0,0.51-0.23,0.51-0.51S38,19.86,37.72,19.86z M14.55,22.47c0,1.2-0.98,2.18-2.18,2.18s-2.18-0.98-2.18-2.18V18.4
		c0-1.2,0.98-2.18,2.18-2.18s2.18,0.98,2.18,2.18V22.47z"/>
</g>
</svg>
