<?xml version="1.0" encoding="utf-8"?>
<!-- Generator: Adobe Illustrator 24.0.0, SVG Export Plug-In . SVG Version: 6.00 Build 0)  -->
<svg version="1.1" id="Capa_1" xmlns="http://www.w3.org/2000/svg" xmlns:xlink="http://www.w3.org/1999/xlink" x="0px" y="0px"
	 viewBox="0 0 40 40" style="enable-background:new 0 0 40 40;" xml:space="preserve">
<style type="text/css">
	.st0{fill:#006dd9;}
	.st1{fill:#104A8E;}
</style>
<path class="st0" d="M10.13,18.1c0-0.95,0.77-1.72,1.72-1.72c0.95,0,1.72,0.77,1.72,1.72c0,0.95-0.77,1.72-1.72,1.72
	C10.9,19.82,10.13,19.05,10.13,18.1"/>
<path class="st0" d="M14.3,21.95c0-0.95,0.77-1.72,1.72-1.72c0.95,0,1.71,0.77,1.71,1.72c0,0.95-0.77,1.72-1.71,1.72
	C15.06,23.67,14.3,22.9,14.3,21.95"/>
<path class="st0" d="M18.35,25.91c0-0.95,0.77-1.72,1.72-1.72c0.95,0,1.71,0.77,1.71,1.72c0,0.95-0.77,1.72-1.71,1.72
	C19.12,27.62,18.35,26.85,18.35,25.91"/>
<path class="st0" d="M22.51,21.95c0-0.95,0.77-1.72,1.72-1.72c0.95,0,1.72,0.77,1.72,1.72c0,0.95-0.77,1.72-1.72,1.72
	C23.28,23.67,22.51,22.9,22.51,21.95"/>
<path class="st0" d="M26.57,18.1c0-0.95,0.77-1.72,1.72-1.72c0.95,0,1.72,0.77,1.72,1.72c0,0.95-0.77,1.72-1.72,1.72
	C27.34,19.82,26.57,19.05,26.57,18.1"/>
<path class="st1" d="M20.09,38.77c-10.33,0-18.74-8.41-18.74-18.74S9.76,1.3,20.09,1.3S38.83,9.7,38.83,20.04
	S30.42,38.77,20.09,38.77z M20.09,2.62c-9.6,0-17.42,7.81-17.42,17.41s7.81,17.41,17.42,17.41S37.5,29.64,37.5,20.04
	S29.69,2.62,20.09,2.62z"/>
</svg>
