<?xml version="1.0" encoding="utf-8"?>
<!-- Generator: Adobe Illustrator 24.0.0, SVG Export Plug-In . SVG Version: 6.00 Build 0)  -->
<svg version="1.1" id="Capa_1" xmlns="http://www.w3.org/2000/svg" xmlns:xlink="http://www.w3.org/1999/xlink" x="0px" y="0px"
	 viewBox="0 0 30 30" style="enable-background:new 0 0 30 30;" xml:space="preserve">
<style type="text/css">
	.st0{fill:#006dd9;}
</style>
<path class="st0" d="M7.48,28.75c-0.48,0-0.96-0.15-1.36-0.44c-0.72-0.52-1.07-1.39-0.92-2.27l1.1-6.4c0.09-0.5-0.08-1.01-0.44-1.36
	L1.2,13.73c-0.64-0.62-0.86-1.53-0.59-2.38c0.27-0.85,0.99-1.45,1.87-1.58l6.43-0.93C9.42,8.77,9.85,8.45,10.07,8l2.87-5.83
	c0.39-0.8,1.19-1.29,2.08-1.29c0.89,0,1.69,0.5,2.08,1.29h0L19.99,8c0.22,0.45,0.66,0.77,1.16,0.84l6.43,0.93
	c0.88,0.13,1.6,0.73,1.87,1.58c0.28,0.85,0.05,1.76-0.59,2.38l-4.65,4.54c-0.36,0.35-0.53,0.86-0.44,1.36l1.1,6.4
	c0.15,0.88-0.2,1.75-0.92,2.27c-0.72,0.52-1.66,0.59-2.44,0.18l-5.75-3.02c-0.45-0.23-0.98-0.24-1.43,0l-5.75,3.02
	C8.22,28.66,7.85,28.75,7.48,28.75z M15.03,1.66c-0.6,0-1.11,0.32-1.38,0.86l-2.87,5.83c-0.34,0.69-0.99,1.16-1.75,1.27L2.6,10.55
	c-0.59,0.09-1.06,0.48-1.24,1.05c-0.18,0.57-0.04,1.16,0.39,1.57l4.65,4.54c0.55,0.53,0.8,1.3,0.67,2.05l-1.1,6.4
	c-0.1,0.59,0.13,1.15,0.61,1.5c0.48,0.35,1.09,0.4,1.62,0.12l5.75-3.02c0.68-0.35,1.48-0.35,2.16,0l5.75,3.02
	c0.53,0.28,1.14,0.23,1.62-0.12c0.48-0.35,0.71-0.91,0.61-1.5l-1.1-6.4c-0.13-0.75,0.12-1.52,0.67-2.05l4.65-4.54
	c0.43-0.42,0.57-1,0.39-1.57c-0.19-0.57-0.65-0.96-1.24-1.05l-6.43-0.93c-0.75-0.11-1.41-0.58-1.75-1.27l-2.87-5.83
	C16.14,1.98,15.63,1.66,15.03,1.66z"/>
</svg>
