<?xml version="1.0" encoding="UTF-8" standalone="no"?>
<!-- Generator: Adobe Illustrator 24.0.0, SVG Export Plug-In . SVG Version: 6.00 Build 0)  -->

<svg
   xmlns:dc="http://purl.org/dc/elements/1.1/"
   xmlns:cc="http://creativecommons.org/ns#"
   xmlns:rdf="http://www.w3.org/1999/02/22-rdf-syntax-ns#"
   xmlns:svg="http://www.w3.org/2000/svg"
   xmlns="http://www.w3.org/2000/svg"
   xmlns:sodipodi="http://sodipodi.sourceforge.net/DTD/sodipodi-0.dtd"
   xmlns:inkscape="http://www.inkscape.org/namespaces/inkscape"
   version="1.1"
   id="Capa_1"
   x="0px"
   y="0px"
   viewBox="0 0 30 30"
   style="enable-background:new 0 0 30 30;"
   xml:space="preserve"
   sodipodi:docname="ICONO ME GUSTA_Mesa de trabajo 1.svg"
   inkscape:version="0.92.5 (2060ec1f9f, 2020-04-08)"><metadata
   id="metadata15"><rdf:RDF><cc:Work
       rdf:about=""><dc:format>image/svg+xml</dc:format><dc:type
         rdf:resource="http://purl.org/dc/dcmitype/StillImage" /><dc:title></dc:title></cc:Work></rdf:RDF></metadata><defs
   id="defs13" /><sodipodi:namedview
   pagecolor="#97a9ff"
   bordercolor="#666666"
   borderopacity="1"
   objecttolerance="10"
   gridtolerance="10"
   guidetolerance="10"
   inkscape:pageopacity="0"
   inkscape:pageshadow="2"
   inkscape:window-width="1920"
   inkscape:window-height="1017"
   id="namedview11"
   showgrid="false"
   inkscape:zoom="7.8666667"
   inkscape:cx="-0.82627119"
   inkscape:cy="15"
   inkscape:window-x="-8"
   inkscape:window-y="-7"
   inkscape:window-maximized="1"
   inkscape:current-layer="Capa_1" />
<style
   type="text/css"
   id="style2">
	.st0{fill:#006dd9;}
</style>
<g
   id="g8"
   style="fill:#ffffff">
	<path
   class="st0"
   d="M7.68,27.71H3.15c-0.73,0-1.51-0.34-1.51-1.08V14.36c0.02-0.53,0.38-1.51,1.56-1.51   c1.14,0,4.12-0.01,4.12-0.01c0.09,0.01,0.67,0.14,0.96,0.73c0.59-0.48,1.92-1.8,2.75-3.31c0.81-1.47,1.65-1.91,2.32-2.26   c0.31-0.16,0.58-0.31,0.81-0.53c0.7-0.7,1.69-3.45,1.75-4.2c0.13-1.65,1.48-2.5,2.65-2.47c1.05,0.03,2.11,0.79,2.14,2.42   c0.07,4.23-0.65,5.21-1.07,5.8c-0.05,0.06-0.09,0.12-0.13,0.18C19.35,9.47,19,9.79,18.6,10.17c-0.27,0.25-0.72,0.66-0.92,0.93   c0.94,0.13,4.1,0.03,6.96-0.17c1,0.08,2.83,0.77,2.96,2.77c0.14,2.23-1.4,10.25-1.46,10.59c-0.04,0.12-0.67,1.96-2.36,2.28   c-1.23,0.24-6.85,0.22-9.21,0.19c-0.49,0-0.99-0.09-1.49-0.24c-0.43-0.14-1.12-0.3-2.01-0.3H8.79v0.38   C8.79,27.21,8.29,27.71,7.68,27.71z M7.24,13.56c-0.01,0.01-2.92,0.02-4.04,0.02c-0.75,0-0.82,0.66-0.83,0.8l0,12.26   c0,0.28,0.63,0.35,0.78,0.35h4.53c0.21,0,0.39-0.17,0.39-0.39v-0.75c0-0.2,0.16-0.36,0.36-0.36h2.64c0.98,0,1.75,0.18,2.23,0.34   c0.42,0.13,0.85,0.2,1.27,0.21c1.82,0.01,7.86,0.05,9.07-0.18c1.27-0.24,1.79-1.74,1.79-1.76c0-0.04,1.58-8.21,1.44-10.35   c-0.12-1.87-2.15-2.08-2.24-2.09c-3.17,0.23-7.12,0.4-7.63-0.04c-0.07-0.06-0.15-0.2-0.15-0.3c-0.03-0.46,0.46-0.94,1.25-1.68   c0.34-0.31,0.68-0.63,0.8-0.82c0.05-0.07,0.1-0.14,0.15-0.22c0.37-0.51,0.99-1.37,0.93-5.36c-0.02-1.22-0.75-1.68-1.43-1.7   c-0.83-0.02-1.81,0.59-1.91,1.8c-0.07,0.8-1.08,3.77-1.96,4.65c-0.3,0.3-0.63,0.48-0.98,0.66c-0.65,0.34-1.32,0.69-2.02,1.97   c-0.93,1.68-2.97,3.85-3.6,3.85c-0.01,0-0.03,0-0.04,0c-0.15-0.03-0.29-0.17-0.32-0.32v0C7.63,13.68,7.29,13.57,7.24,13.56z"
   id="path4"
   style="fill:#ffffff" />
	<path
   class="st0"
   d="M8.07,26.21c-0.2,0-0.36-0.16-0.36-0.36V14.07c0-0.2,0.16-0.36,0.36-0.36c0.2,0,0.36,0.16,0.36,0.36v11.78   C8.44,26.05,8.27,26.21,8.07,26.21z"
   id="path6"
   style="fill:#ffffff" />
</g>
</svg>