<?xml version="1.0" encoding="UTF-8" standalone="no"?>
<!-- Generator: Adobe Illustrator 24.0.0, SVG Export Plug-In . SVG Version: 6.00 Build 0)  -->

<svg
   xmlns:dc="http://purl.org/dc/elements/1.1/"
   xmlns:cc="http://creativecommons.org/ns#"
   xmlns:rdf="http://www.w3.org/1999/02/22-rdf-syntax-ns#"
   xmlns:svg="http://www.w3.org/2000/svg"
   xmlns="http://www.w3.org/2000/svg"
   xmlns:sodipodi="http://sodipodi.sourceforge.net/DTD/sodipodi-0.dtd"
   xmlns:inkscape="http://www.inkscape.org/namespaces/inkscape"
   version="1.1"
   id="Capa_1"
   x="0px"
   y="0px"
   viewBox="0 0 30 30"
   style="enable-background:new 0 0 30 30;"
   xml:space="preserve"
   sodipodi:docname="like_blue.svg"
   inkscape:version="0.92.5 (2060ec1f9f, 2020-04-08)"><metadata
   id="metadata38"><rdf:RDF><cc:Work
       rdf:about=""><dc:format>image/svg+xml</dc:format><dc:type
         rdf:resource="http://purl.org/dc/dcmitype/StillImage" /><dc:title></dc:title></cc:Work></rdf:RDF></metadata><defs
   id="defs36" /><sodipodi:namedview
   pagecolor="#ffffff"
   bordercolor="#666666"
   borderopacity="1"
   objecttolerance="10"
   gridtolerance="10"
   guidetolerance="10"
   inkscape:pageopacity="0"
   inkscape:pageshadow="2"
   inkscape:window-width="1920"
   inkscape:window-height="1017"
   id="namedview34"
   showgrid="false"
   inkscape:zoom="28.266667"
   inkscape:cx="15"
   inkscape:cy="15"
   inkscape:window-x="1912"
   inkscape:window-y="-8"
   inkscape:window-maximized="1"
   inkscape:current-layer="Capa_1" />
<style
   type="text/css"
   id="style25">
	.st0{fill:#006dd9;}
</style>
<g
   id="g31">
	<path
   class="st0"
   d="M7.68,27.71H3.15c-0.73,0-1.51-0.34-1.51-1.08V14.36c0.02-0.53,0.38-1.51,1.56-1.51   c1.14,0,4.12-0.01,4.12-0.01c0.09,0.01,0.67,0.14,0.96,0.73c0.59-0.48,1.92-1.8,2.75-3.31c0.81-1.47,1.65-1.91,2.32-2.26   c0.31-0.16,0.58-0.31,0.81-0.53c0.7-0.7,1.69-3.45,1.75-4.2c0.13-1.65,1.48-2.5,2.65-2.47c1.05,0.03,2.11,0.79,2.14,2.42   c0.07,4.23-0.65,5.21-1.07,5.8c-0.05,0.06-0.09,0.12-0.13,0.18C19.35,9.47,19,9.79,18.6,10.17c-0.27,0.25-0.72,0.66-0.92,0.93   c0.94,0.13,4.1,0.03,6.96-0.17c1,0.08,2.83,0.77,2.96,2.77c0.14,2.23-1.4,10.25-1.46,10.59c-0.04,0.12-0.67,1.96-2.36,2.28   c-1.23,0.24-6.85,0.22-9.21,0.19c-0.49,0-0.99-0.09-1.49-0.24c-0.43-0.14-1.12-0.3-2.01-0.3H8.79v0.38   C8.79,27.21,8.29,27.71,7.68,27.71z M7.24,13.56c-0.01,0.01-2.92,0.02-4.04,0.02c-0.75,0-0.82,0.66-0.83,0.8l0,12.26   c0,0.28,0.63,0.35,0.78,0.35h4.53c0.21,0,0.39-0.17,0.39-0.39v-0.75c0-0.2,0.16-0.36,0.36-0.36h2.64c0.98,0,1.75,0.18,2.23,0.34   c0.42,0.13,0.85,0.2,1.27,0.21c1.82,0.01,7.86,0.05,9.07-0.18c1.27-0.24,1.79-1.74,1.79-1.76c0-0.04,1.58-8.21,1.44-10.35   c-0.12-1.87-2.15-2.08-2.24-2.09c-3.17,0.23-7.12,0.4-7.63-0.04c-0.07-0.06-0.15-0.2-0.15-0.3c-0.03-0.46,0.46-0.94,1.25-1.68   c0.34-0.31,0.68-0.63,0.8-0.82c0.05-0.07,0.1-0.14,0.15-0.22c0.37-0.51,0.99-1.37,0.93-5.36c-0.02-1.22-0.75-1.68-1.43-1.7   c-0.83-0.02-1.81,0.59-1.91,1.8c-0.07,0.8-1.08,3.77-1.96,4.65c-0.3,0.3-0.63,0.48-0.98,0.66c-0.65,0.34-1.32,0.69-2.02,1.97   c-0.93,1.68-2.97,3.85-3.6,3.85c-0.01,0-0.03,0-0.04,0c-0.15-0.03-0.29-0.17-0.32-0.32v0C7.63,13.68,7.29,13.57,7.24,13.56z"
   id="path27" />
	<path
   class="st0"
   d="M8.07,26.21c-0.2,0-0.36-0.16-0.36-0.36V14.07c0-0.2,0.16-0.36,0.36-0.36c0.2,0,0.36,0.16,0.36,0.36v11.78   C8.44,26.05,8.27,26.21,8.07,26.21z"
   id="path29" />
</g>
<path
   style="fill:#006dd9;fill-opacity:1;stroke-width:0.03537736"
   d="M 2.8125,26.929271 C 2.5889485,26.874315 2.4904544,26.820824 2.4228633,26.717667 2.3754694,26.645335 2.3703844,25.922382 2.3786416,20.430586 l 0.00933,-6.20535 0.1007723,-0.205224 C 2.55819,13.878585 2.6343556,13.785106 2.7337574,13.719304 l 0.1442411,-0.09548 2.1923715,-0.02621 c 2.1685578,-0.02593 2.1936407,-0.02543 2.3092175,0.046 0.064265,0.03972 0.153468,0.131111 0.1982282,0.203096 l 0.081382,0.130882 0.017689,5.996463 c 0.019611,6.648094 -0.00293,6.101826 0.2564858,6.216674 0.1294055,0.05729 0.1326651,0.06338 0.1326651,0.247638 0,0.103897 -0.022626,0.243054 -0.050279,0.309238 -0.100224,0.23987 -0.00314,0.231497 -2.6454877,0.228158 -1.7547434,-0.0022 -2.4274031,-0.01444 -2.557771,-0.04649 z"
   id="path40"
   inkscape:connector-curvature="0" /><path
   style="fill:#006dd9;fill-opacity:1;stroke-width:0.03537736"
   d="M 13.974057,25.96929 C 13.808667,25.9432 13.482311,25.866347 13.248821,25.798511 12.292146,25.520572 12.021829,25.492314 10.091392,25.468445 L 8.4551887,25.448215 V 19.901741 14.355267 L 8.6939858,14.18488 c 0.4702871,-0.335561 1.3806072,-1.278576 1.9959222,-2.067608 0.313843,-0.402447 0.793795,-1.118539 1.068952,-1.594885 0.377398,-0.6533425 0.813408,-1.1528638 1.286122,-1.4734658 0.112111,-0.076036 0.399295,-0.2436198 0.638187,-0.3724093 0.582093,-0.3138134 0.800732,-0.467095 1.056954,-0.7409965 0.455073,-0.4864751 1.009403,-1.5962331 1.475582,-2.9540907 0.245319,-0.714551 0.364927,-1.1572142 0.429662,-1.5901557 0.06843,-0.4576257 0.12987,-0.65492 0.283819,-0.9113162 0.157154,-0.2617345 0.259615,-0.3734303 0.521589,-0.5686046 0.789228,-0.5879854 1.866922,-0.4139996 2.284126,0.3687556 0.211029,0.3959312 0.227088,0.5482976 0.207497,1.968717 -0.02149,1.5584823 -0.09497,2.261909 -0.326685,3.1277706 -0.112206,0.419279 -0.269655,0.7569297 -0.546891,1.1728182 -0.175776,0.263684 -0.410205,0.5197185 -1.115475,1.2182791 -0.786423,0.7789403 -0.906641,0.9128453 -1.007886,1.1226273 -0.09672,0.200412 -0.112226,0.266607 -0.09774,0.417337 0.04307,0.448228 0.428432,0.553832 2.149924,0.589164 1.198989,0.02461 3.486457,-0.06071 5.288915,-0.197265 0.723282,-0.0548 1.50977,0.237038 2.002717,0.743128 0.204438,0.209889 0.33032,0.415656 0.449462,0.734694 0.212436,0.568858 0.122779,2.040432 -0.29762,4.884949 -0.184276,1.246852 -0.521973,3.265241 -0.825098,4.931547 -0.199541,1.096895 -0.219846,1.179163 -0.359786,1.457727 -0.363821,0.724219 -0.945337,1.236119 -1.562245,1.37522 -0.610078,0.137561 -2.597074,0.196659 -6.482902,0.192818 -2.270527,-0.0022 -3.004505,-0.01366 -3.237028,-0.05035 z"
   id="path42"
   inkscape:connector-curvature="0" /></svg>