<?xml version="1.0" encoding="UTF-8" standalone="no"?>
<!-- Generator: Adobe Illustrator 24.0.0, SVG Export Plug-In . SVG Version: 6.00 Build 0)  -->

<svg
   xmlns:dc="http://purl.org/dc/elements/1.1/"
   xmlns:cc="http://creativecommons.org/ns#"
   xmlns:rdf="http://www.w3.org/1999/02/22-rdf-syntax-ns#"
   xmlns:svg="http://www.w3.org/2000/svg"
   xmlns="http://www.w3.org/2000/svg"
   xmlns:sodipodi="http://sodipodi.sourceforge.net/DTD/sodipodi-0.dtd"
   xmlns:inkscape="http://www.inkscape.org/namespaces/inkscape"
   version="1.1"
   id="Capa_1"
   x="0px"
   y="0px"
   viewBox="0 0 30 30"
   style="enable-background:new 0 0 30 30;"
   xml:space="preserve"
   sodipodi:docname="menu_contraer.svg"
   inkscape:version="0.92.5 (2060ec1f9f, 2020-04-08)"><metadata
   id="metadata23"><rdf:RDF><cc:Work
       rdf:about=""><dc:format>image/svg+xml</dc:format><dc:type
         rdf:resource="http://purl.org/dc/dcmitype/StillImage" /><dc:title></dc:title></cc:Work></rdf:RDF></metadata><defs
   id="defs21" /><sodipodi:namedview
   pagecolor="#ffffff"
   bordercolor="#666666"
   borderopacity="1"
   objecttolerance="10"
   gridtolerance="10"
   guidetolerance="10"
   inkscape:pageopacity="0"
   inkscape:pageshadow="2"
   inkscape:window-width="1920"
   inkscape:window-height="1017"
   id="namedview19"
   showgrid="false"
   inkscape:zoom="7.8666667"
   inkscape:cx="15"
   inkscape:cy="15"
   inkscape:window-x="-8"
   inkscape:window-y="-5"
   inkscape:window-maximized="1"
   inkscape:current-layer="Capa_1" />
<style
   type="text/css"
   id="style2">
	.st0{fill:#006dd9;}
</style>
<g
   id="g16"
   transform="matrix(1,0,0,-1,0,29.97)">
	<path
   class="st0"
   d="m 7.24,13.49 c 0,-0.73 0.59,-1.33 1.33,-1.33 0.73,0 1.33,0.6 1.33,1.33 0,0.73 -0.6,1.33 -1.33,1.33 -0.74,0 -1.33,-0.6 -1.33,-1.33"
   id="path4"
   inkscape:connector-curvature="0"
   style="fill:#006dd9" />
	<path
   class="st0"
   d="m 10.46,16.46 c 0,-0.73 0.59,-1.33 1.33,-1.33 0.73,0 1.32,0.6 1.32,1.33 0,0.73 -0.59,1.33 -1.32,1.33 -0.74,0 -1.33,-0.59 -1.33,-1.33"
   id="path6"
   inkscape:connector-curvature="0"
   style="fill:#006dd9" />
	<path
   class="st0"
   d="m 13.59,19.52 c 0,-0.73 0.59,-1.33 1.33,-1.33 0.73,0 1.32,0.6 1.32,1.33 0,0.73 -0.59,1.33 -1.32,1.33 -0.74,-0.01 -1.33,-0.6 -1.33,-1.33"
   id="path8"
   inkscape:connector-curvature="0"
   style="fill:#006dd9" />
	<path
   class="st0"
   d="m 16.8,16.46 c 0,-0.73 0.59,-1.33 1.33,-1.33 0.73,0 1.33,0.6 1.33,1.33 0,0.73 -0.6,1.33 -1.33,1.33 -0.73,0 -1.33,-0.59 -1.33,-1.33"
   id="path10"
   inkscape:connector-curvature="0"
   style="fill:#006dd9" />
	<path
   class="st0"
   d="m 19.94,13.49 c 0,-0.73 0.59,-1.33 1.33,-1.33 0.73,0 1.33,0.6 1.33,1.33 0,0.73 -0.6,1.33 -1.33,1.33 -0.74,0 -1.33,-0.6 -1.33,-1.33"
   id="path12"
   inkscape:connector-curvature="0"
   style="fill:#006dd9" />
	<path
   class="st0"
   d="M 14.93,29.46 C 6.95,29.46 0.46,22.97 0.46,14.99 0.46,7 6.95,0.51 14.93,0.51 22.91,0.51 29.4,7 29.4,14.98 c 0,7.98 -6.49,14.48 -14.47,14.48 z m 0,-27.93 c -7.42,0 -13.45,6.03 -13.45,13.45 0,7.42 6.03,13.45 13.45,13.45 7.42,0 13.45,-6.04 13.45,-13.45 0,-7.41 -6.03,-13.45 -13.45,-13.45 z"
   id="path14"
   inkscape:connector-curvature="0"
   style="fill:#006dd9" />
</g>
</svg>