<?xml version="1.0" encoding="utf-8"?>
<!-- Generator: Adobe Illustrator 24.0.0, SVG Export Plug-In . SVG Version: 6.00 Build 0)  -->
<svg version="1.1" id="Capa_1" xmlns="http://www.w3.org/2000/svg" xmlns:xlink="http://www.w3.org/1999/xlink" x="0px" y="0px"
	 viewBox="0 0 30 30" style="enable-background:new 0 0 30 30;" xml:space="preserve">
<style type="text/css">
	.st0{fill:#006dd9;}
</style>
<g>
	<path class="st0" d="M7.24,13.49c0-0.73,0.59-1.33,1.33-1.33c0.73,0,1.33,0.6,1.33,1.33c0,0.73-0.6,1.33-1.33,1.33
		C7.83,14.82,7.24,14.22,7.24,13.49"/>
	<path class="st0" d="M10.46,16.46c0-0.73,0.59-1.33,1.33-1.33c0.73,0,1.32,0.6,1.32,1.33c0,0.73-0.59,1.33-1.32,1.33
		C11.05,17.79,10.46,17.2,10.46,16.46"/>
	<path class="st0" d="M13.59,19.52c0-0.73,0.59-1.33,1.33-1.33c0.73,0,1.32,0.6,1.32,1.33c0,0.73-0.59,1.33-1.32,1.33
		C14.18,20.84,13.59,20.25,13.59,19.52"/>
	<path class="st0" d="M16.8,16.46c0-0.73,0.59-1.33,1.33-1.33c0.73,0,1.33,0.6,1.33,1.33c0,0.73-0.6,1.33-1.33,1.33
		C17.4,17.79,16.8,17.2,16.8,16.46"/>
	<path class="st0" d="M19.94,13.49c0-0.73,0.59-1.33,1.33-1.33c0.73,0,1.33,0.6,1.33,1.33c0,0.73-0.6,1.33-1.33,1.33
		C20.53,14.82,19.94,14.22,19.94,13.49"/>
	<path class="st0" d="M14.93,29.46c-7.98,0-14.47-6.49-14.47-14.47C0.46,7,6.95,0.51,14.93,0.51C22.91,0.51,29.4,7,29.4,14.98
		C29.4,22.96,22.91,29.46,14.93,29.46z M14.93,1.53c-7.42,0-13.45,6.03-13.45,13.45c0,7.42,6.03,13.45,13.45,13.45
		s13.45-6.04,13.45-13.45C28.38,7.57,22.35,1.53,14.93,1.53z"/>
</g>
</svg>
