<?xml version="1.0" encoding="UTF-8" standalone="no"?>
<!-- Generator: Adobe Illustrator 24.3.0, SVG Export Plug-In . SVG Version: 6.00 Build 0)  -->

<svg
   xmlns:dc="http://purl.org/dc/elements/1.1/"
   xmlns:cc="http://creativecommons.org/ns#"
   xmlns:rdf="http://www.w3.org/1999/02/22-rdf-syntax-ns#"
   xmlns:svg="http://www.w3.org/2000/svg"
   xmlns="http://www.w3.org/2000/svg"
   xmlns:sodipodi="http://sodipodi.sourceforge.net/DTD/sodipodi-0.dtd"
   xmlns:inkscape="http://www.inkscape.org/namespaces/inkscape"
   version="1.1"
   id="Capa_1"
   x="0px"
   y="0px"
   viewBox="0 0 30 30"
   style="enable-background:new 0 0 30 30;"
   xml:space="preserve"
   sodipodi:docname="notificacion_erro.svg"
   inkscape:version="0.92.5 (2060ec1f9f, 2020-04-08)"><metadata
   id="metadata17"><rdf:RDF><cc:Work
       rdf:about=""><dc:format>image/svg+xml</dc:format><dc:type
         rdf:resource="http://purl.org/dc/dcmitype/StillImage" /><dc:title></dc:title></cc:Work></rdf:RDF></metadata><defs
   id="defs15" /><sodipodi:namedview
   pagecolor="#ffffff"
   bordercolor="#666666"
   borderopacity="1"
   objecttolerance="10"
   gridtolerance="10"
   guidetolerance="10"
   inkscape:pageopacity="0"
   inkscape:pageshadow="2"
   inkscape:window-width="1920"
   inkscape:window-height="1017"
   id="namedview13"
   showgrid="false"
   inkscape:zoom="7.8666667"
   inkscape:cx="15"
   inkscape:cy="15"
   inkscape:window-x="-8"
   inkscape:window-y="-5"
   inkscape:window-maximized="1"
   inkscape:current-layer="Capa_1" />
<style
   type="text/css"
   id="style2">
	.st0{fill:#006dd9;}
</style>
<g
   id="g8"
   style="fill:#ffffff">
	<path
   class="st0"
   d="M9.5,21.3c-0.1,0-0.2,0-0.3-0.1c-0.1-0.1-0.1-0.4,0-0.5L20.5,9.5c0.1-0.1,0.4-0.1,0.5,0c0.1,0.1,0.1,0.4,0,0.5   L9.7,21.2C9.7,21.3,9.6,21.3,9.5,21.3z"
   id="path4"
   style="fill:#ffffff" />
	<path
   class="st0"
   d="M20.7,21.4c-0.1,0-0.2,0-0.3-0.1L9.2,10c-0.1-0.1-0.1-0.4,0-0.5c0.1-0.1,0.4-0.1,0.5,0L21,20.7   c0.1,0.1,0.1,0.4,0,0.5C20.9,21.3,20.8,21.4,20.7,21.4z"
   id="path6"
   style="fill:#ffffff" />
</g>
<path
   class="st0"
   d="M15.5,27.7c-3.4,0-6.6-1.3-9-3.7c-2.4-2.4-3.7-5.6-3.7-9s1.3-6.6,3.7-9s5.6-3.7,9-3.7s6.6,1.3,9,3.7  c2.4,2.4,3.7,5.6,3.7,9s-1.3,6.6-3.7,9l0,0l0,0C22.1,26.3,18.9,27.7,15.5,27.7z M15.5,3.1c-3.2,0-6.2,1.2-8.4,3.5  C4.8,8.8,3.6,11.8,3.6,15c0,3.2,1.2,6.2,3.5,8.4c2.3,2.3,5.2,3.5,8.4,3.5c3.2,0,6.2-1.2,8.4-3.5l0,0c2.3-2.3,3.5-5.2,3.5-8.4  c0-3.2-1.2-6.2-3.5-8.4C21.7,4.3,18.7,3.1,15.5,3.1z"
   id="path10"
   style="fill:#ffffff" />
</svg>