<?xml version="1.0" encoding="utf-8"?>
<!-- Generator: Adobe Illustrator 24.0.0, SVG Export Plug-In . SVG Version: 6.00 Build 0)  -->
<svg version="1.1" id="Capa_1" xmlns="http://www.w3.org/2000/svg" xmlns:xlink="http://www.w3.org/1999/xlink" x="0px" y="0px"
	 viewBox="0 0 30 30" style="enable-background:new 0 0 30 30;" xml:space="preserve">
<style type="text/css">
	.st0{fill:#006dd9;}
</style>
<g>
	<g>
		<path class="st0" d="M14.97,29.22c-7.88,0-14.29-6.41-14.29-14.29S7.09,0.64,14.97,0.64c7.88,0,14.29,6.41,14.29,14.29
			S22.85,29.22,14.97,29.22z M14.97,1.67c-7.31,0-13.26,5.95-13.26,13.26s5.95,13.26,13.26,13.26c7.31,0,13.26-5.95,13.26-13.26
			S22.28,1.67,14.97,1.67z"/>
	</g>
	<path class="st0" d="M20.48,20.27c-0.12,0-0.24-0.04-0.34-0.13l-5.51-4.82c-0.11-0.1-0.18-0.24-0.18-0.39V7.15
		c0-0.28,0.23-0.52,0.52-0.52c0.28,0,0.52,0.23,0.52,0.52v7.55l5.33,4.67c0.21,0.19,0.24,0.51,0.05,0.73
		C20.76,20.21,20.62,20.27,20.48,20.27z"/>
</g>
</svg>
