<?xml version="1.0" encoding="UTF-8" standalone="no"?>
<!-- Generator: Adobe Illustrator 24.0.0, SVG Export Plug-In . SVG Version: 6.00 Build 0)  -->

<svg
   xmlns:dc="http://purl.org/dc/elements/1.1/"
   xmlns:cc="http://creativecommons.org/ns#"
   xmlns:rdf="http://www.w3.org/1999/02/22-rdf-syntax-ns#"
   xmlns:svg="http://www.w3.org/2000/svg"
   xmlns="http://www.w3.org/2000/svg"
   xmlns:sodipodi="http://sodipodi.sourceforge.net/DTD/sodipodi-0.dtd"
   xmlns:inkscape="http://www.inkscape.org/namespaces/inkscape"
   version="1.1"
   id="Capa_1"
   x="0px"
   y="0px"
   viewBox="0 0 16.7 13.2"
   style="enable-background:new 0 0 16.7 13.2;"
   xml:space="preserve"
   sodipodi:docname="subir_blanco.svg"
   inkscape:version="0.92.5 (2060ec1f9f, 2020-04-08)"><metadata
   id="metadata25"><rdf:RDF><cc:Work
       rdf:about=""><dc:format>image/svg+xml</dc:format><dc:type
         rdf:resource="http://purl.org/dc/dcmitype/StillImage" /><dc:title></dc:title></cc:Work></rdf:RDF></metadata><defs
   id="defs23" /><sodipodi:namedview
   pagecolor="#ffffff"
   bordercolor="#666666"
   borderopacity="1"
   objecttolerance="10"
   gridtolerance="10"
   guidetolerance="10"
   inkscape:pageopacity="0"
   inkscape:pageshadow="2"
   inkscape:window-width="1920"
   inkscape:window-height="1017"
   id="namedview21"
   showgrid="false"
   inkscape:zoom="64.242425"
   inkscape:cx="8.3500004"
   inkscape:cy="6.5999999"
   inkscape:window-x="1912"
   inkscape:window-y="-8"
   inkscape:window-maximized="1"
   inkscape:current-layer="Capa_1" />
<style
   type="text/css"
   id="style10">
	.st0{clip-path:url(#SVGID_2_);}
	.st1{fill:#173F71;}
	.st2{fill:#FFFFFF;}
	.st3{clip-path:url(#SVGID_4_);}
	.st4{fill:none;stroke:#173F71;stroke-linecap:round;stroke-linejoin:round;stroke-miterlimit:10;}
	.st5{fill:none;stroke:#173F71;stroke-width:0.5;stroke-linecap:round;stroke-linejoin:round;stroke-miterlimit:10;}
</style>
<g
   id="g16">
	<g
   id="g14">
		<path
   class="st5"
   d="M8.1,8.6l0-4.4L6.7,5.6c-0.2,0.2-0.5,0.2-0.7,0C5.9,5.4,5.9,5.1,6.1,5l2.2-2.2c0,0,0,0,0,0c0,0,0,0,0,0    c0,0,0,0,0,0c0,0,0,0,0,0c0,0,0,0,0,0c0,0,0,0,0,0c0,0,0,0,0,0c0,0,0,0,0,0c0,0,0,0,0,0c0,0,0,0,0,0c0,0,0,0,0,0c0,0,0,0,0,0    c0,0,0,0,0,0c0,0,0.1,0,0.1,0c0,0,0,0,0,0c0,0,0,0,0,0c0,0,0,0,0,0c0,0,0,0,0,0c0,0,0,0,0,0c0,0,0,0,0,0c0,0,0,0,0,0c0,0,0,0,0,0    c0,0,0,0,0,0c0,0,0,0,0,0c0,0,0,0,0,0c0,0,0,0,0,0c0,0,0,0,0,0L11.1,5c0.1,0.1,0.1,0.2,0.1,0.3c0,0.1,0,0.2-0.1,0.3    c-0.2,0.2-0.5,0.2-0.7,0L9,4.2v4.4"
   id="path12" />
	</g>
</g>
<polyline
   class="st5"
   points="11,7.6 13.3,7.6 13.3,9.6 4,9.6 4,7.6 6.3,7.6 "
   id="polyline18" />
<path
   style="fill:#ffffff;fill-opacity:1;stroke-width:0.01556604"
   d="M 7.9475089,8.7809605 C 7.9096797,8.7467841 7.877199,8.7000796 7.8678486,8.6664154 7.8575731,8.6294214 7.8520305,7.9439733 7.851974,6.703261 L 7.8518872,4.7969466 7.3343164,5.3123407 C 7.0496525,5.5958074 6.7824825,5.8492507 6.7406054,5.8755478 6.6072765,5.9592732 6.4856812,5.990566 6.3218876,5.9833059 6.1491776,5.9756505 6.040451,5.9373109 5.9070309,5.8370172 5.7954401,5.7531329 5.7447782,5.6605604 5.7078328,5.4730306 5.6617095,5.2389151 5.7242193,5.0080589 5.8690093,4.8777869 5.9095532,4.8413084 6.4494022,4.3071226 7.0686737,3.6907075 l 1.1259482,-1.1207547 0.1282789,-0.00509 c 0.070553,-0.0028 0.1444874,0.00102 0.164298,0.00849 0.059753,0.022545 2.7802372,2.247893 2.8345732,2.3186729 0.09121,0.1188143 0.116447,0.2080771 0.115845,0.4097669 -6.51e-4,0.2177285 -0.0324,0.3152278 -0.142581,0.4379 C 11.13581,5.9169646 10.946075,5.995605 10.705639,5.9839829 10.591287,5.9784529 10.548522,5.9684459 10.451415,5.9244779 10.340096,5.8740753 10.309679,5.8468011 9.7969546,5.3376489 9.5012111,5.0439656 9.2542949,4.8036792 9.2482518,4.8036792 c -0.00604,0 -0.011013,0.870336 -0.011045,1.9340801 -6.23e-5,1.9024516 -5.635e-4,1.9349099 -0.03099,1.9848121 C 9.1617499,8.7955023 9.088399,8.8351554 8.9978282,8.8352247 8.899427,8.8353025 8.8288509,8.7918006 8.7869538,8.7052531 8.7548072,8.6388468 8.7547174,8.6324222 8.7547174,6.399198 c 0,-2.2135277 3.626e-4,-2.2401962 0.031358,-2.3027505 0.017247,-0.034808 0.0496,-0.0765 0.071895,-0.092648 0.045844,-0.033205 0.1534409,-0.04983 0.2188158,-0.033809 0.029755,0.00729 0.2825368,0.2489132 0.7909027,0.7559847 0.4109431,0.409897 0.7668891,0.7526716 0.7909901,0.7617214 0.09286,0.034867 0.181289,0.017422 0.255826,-0.050469 0.02977,-0.027119 0.03502,-0.047801 0.03502,-0.1379812 V 5.1931659 L 10.782194,5.0548921 C 10.126317,4.5129223 8.3717046,3.0919878 8.3623295,3.0952185 c -0.00635,0.00219 -0.4993187,0.4908074 -1.0954823,1.0858192 -1.0109,1.0089466 -1.0840286,1.0855105 -1.0853381,1.1363207 -7.722e-4,0.029965 0.0036,0.073617 0.00971,0.097005 0.021326,0.081577 0.1621044,0.1160892 0.2643867,0.064815 0.027399,-0.013735 0.3790383,-0.3527055 0.7814204,-0.7532671 0.4023821,-0.4005616 0.7469039,-0.7360572 0.765604,-0.7455457 0.1001659,-0.050824 0.2442335,-5.569e-4 0.3076109,0.1073295 0.031786,0.054109 0.032002,0.067392 0.036757,2.2648056 0.00337,1.5569451 -2.459e-4,2.2337916 -0.012228,2.2895814 -0.012127,0.056464 -0.032525,0.094242 -0.071049,0.1315806 -0.047564,0.0461 -0.06592,0.053133 -0.1531905,0.05869 -0.096182,0.00612 -0.101065,0.00458 -0.1630242,-0.051391 z"
   id="path29"
   inkscape:connector-curvature="0" /><path
   style="fill:#ffffff;fill-opacity:1;stroke-width:0.01556604"
   d="m 3.8984317,9.8120517 c -0.037699,-0.019263 -0.082962,-0.0548 -0.100586,-0.078972 -0.031622,-0.04337 -0.032043,-0.058251 -0.032043,-1.1312878 0,-1.0739249 3.96e-4,-1.08787 0.032094,-1.1303259 0.017652,-0.023642 0.051438,-0.057428 0.07508,-0.07508 0.042571,-0.031784 0.054924,-0.032094 1.2782033,-0.032094 1.2232794,0 1.2356325,3.102e-4 1.2782033,0.032094 0.079495,0.059352 0.107174,0.1113647 0.107174,0.2013967 0,0.093683 -0.030519,0.1476723 -0.116587,0.20625 l -0.05146,0.035024 H 5.30439 4.2402703 l 0.00404,0.7588443 0.00404,0.7588443 4.4012971,0.00392 4.4012976,0.00392 v -0.762763 -0.762763 l -1.054599,-2.49e-5 c -0.972962,-2.18e-5 -1.058793,-0.00213 -1.10877,-0.027241 -0.16396,-0.082375 -0.167733,-0.3272928 -0.0065,-0.4201573 l 0.06064,-0.034923 1.221934,0.00379 1.221934,0.00379 0.05082,0.036251 c 0.110322,0.078688 0.104836,0.015829 0.104836,1.2012492 v 1.0662736 l -0.03561,0.057268 c -0.0209,0.033617 -0.06311,0.070581 -0.102202,0.089505 l -0.06659,0.032236 H 8.6519219 3.9669744 Z"
   id="path31"
   inkscape:connector-curvature="0" /></svg>