<?xml version="1.0" encoding="utf-8"?>
<!-- Generator: Adobe Illustrator 24.0.0, SVG Export Plug-In . SVG Version: 6.00 Build 0)  -->
<svg version="1.1" id="Capa_1" xmlns="http://www.w3.org/2000/svg" xmlns:xlink="http://www.w3.org/1999/xlink" x="0px" y="0px"
	 viewBox="0 0 40 40" style="enable-background:new 0 0 40 40;" xml:space="preserve">
<style type="text/css">
	.st0{fill:#1C87A0;}
	.st1{fill:#FFFFFF;}
</style>
<g>
	<circle class="st0" cx="19.99" cy="20" r="18.55"/>
	<g>
		<path class="st1" d="M19.99,20.11c-2.32,0-4.43-1.18-5.64-3.17c-0.63-1.03-0.96-2.22-0.96-3.43c0-3.64,2.96-6.6,6.6-6.6
			s6.6,2.96,6.6,6.6c0,1.22-0.33,2.4-0.96,3.43C24.43,18.92,22.32,20.11,19.99,20.11z M19.99,8.15c-2.95,0-5.36,2.4-5.36,5.36
			c0,0.99,0.27,1.95,0.78,2.78c0.98,1.61,2.69,2.57,4.58,2.57s3.59-0.96,4.58-2.57c0.51-0.84,0.78-1.8,0.78-2.78
			C25.35,10.55,22.95,8.15,19.99,8.15z"/>
		<path class="st1" d="M29.63,33.11H10.36c-0.18,0-0.35-0.08-0.47-0.21s-0.17-0.31-0.15-0.49c0.83-6.5,5.14-11.21,10.25-11.21
			s9.42,4.71,10.25,11.21c0.02,0.18-0.03,0.36-0.15,0.49C29.97,33.03,29.8,33.11,29.63,33.11z M11.09,31.86H28.9
			c-0.95-5.5-4.61-9.42-8.91-9.42S12.04,26.36,11.09,31.86z"/>
	</g>
</g>
</svg>
