<?xml version="1.0" encoding="utf-8"?>
<!-- Generator: Adobe Illustrator 24.0.0, SVG Export Plug-In . SVG Version: 6.00 Build 0)  -->
<svg version="1.1" id="Capa_1" xmlns="http://www.w3.org/2000/svg" xmlns:xlink="http://www.w3.org/1999/xlink" x="0px" y="0px"
	 viewBox="0 0 30 30" style="enable-background:new 0 0 30 30;" xml:space="preserve">
<style type="text/css">
	.st0{fill:#1C87A0;}
	.st1{fill:#FFFFFF;}
	.st2{fill:#F26608;}
</style>
<g>
	<g>
		<circle class="st0" cx="17.83" cy="16.67" r="11.63"/>
		<g>
			<path class="st1" d="M17.83,16.64c-1.42,0-2.72-0.73-3.46-1.94c-0.39-0.63-0.59-1.36-0.59-2.11c0-2.23,1.82-4.05,4.05-4.05
				c2.23,0,4.05,1.82,4.05,4.05c0,0.75-0.2,1.47-0.59,2.11C20.54,15.91,19.25,16.64,17.83,16.64z M17.83,9.14
				c-1.9,0-3.45,1.55-3.45,3.45c0,0.63,0.17,1.25,0.5,1.79c0.63,1.04,1.73,1.66,2.95,1.66s2.32-0.62,2.95-1.66
				c0.33-0.54,0.5-1.16,0.5-1.79C21.28,10.69,19.73,9.14,17.83,9.14z"/>
			<path class="st1" d="M23.87,24.79H11.78c-0.09,0-0.17-0.04-0.23-0.1s-0.08-0.15-0.07-0.24c0.51-4.03,3.18-6.95,6.34-6.95
				s5.83,2.92,6.34,6.95c0.01,0.09-0.02,0.17-0.07,0.24C24.04,24.76,23.95,24.79,23.87,24.79z M12.13,24.19h11.39
				c-0.57-3.55-2.93-6.09-5.69-6.09C15.06,18.1,12.71,20.64,12.13,24.19z"/>
		</g>
	</g>
	<g>
		<circle class="st2" cx="6.57" cy="6.47" r="5.99"/>
		<path class="st1" d="M6.9,7.12h2.95c0.24,0,0.43-0.19,0.43-0.43c0-0.24-0.19-0.43-0.43-0.43H6.9V3.31c0-0.24-0.19-0.43-0.43-0.43
			c-0.24,0-0.43,0.19-0.43,0.43v2.95H3.09c-0.24,0-0.43,0.19-0.43,0.43c0,0.24,0.19,0.43,0.43,0.43h2.95v2.95
			c0,0.24,0.19,0.43,0.43,0.43c0.24,0,0.43-0.19,0.43-0.43V7.12z"/>
	</g>
</g>
</svg>
