<?xml version="1.0" encoding="utf-8"?>
<!-- Generator: Adobe Illustrator 24.0.0, SVG Export Plug-In . SVG Version: 6.00 Build 0)  -->
<svg version="1.1" id="Capa_1" xmlns="http://www.w3.org/2000/svg" xmlns:xlink="http://www.w3.org/1999/xlink" x="0px" y="0px"
	 viewBox="0 0 30 30" style="enable-background:new 0 0 30 30;" xml:space="preserve">
<style type="text/css">
	.st0{fill:#006dd9;}
</style>
<g>
	<path class="st0" d="M14.85,8c-1.29,0-2.55,0.35-3.64,1.02C9.1,10.3,7.85,12.54,7.85,15s1.26,4.7,3.36,5.98
		C12.3,21.65,13.56,22,14.85,22c3.86,0,7-3.14,7-7S18.7,8,14.85,8z M20.19,12.51c0,1.15-0.94,2.09-2.09,2.09
		c-0.38,0-0.76-0.11-1.08-0.31c-0.63-0.38-1-1.05-1-1.78s0.38-1.4,1-1.79c0.33-0.2,0.7-0.3,1.08-0.3
		C19.25,10.42,20.19,11.36,20.19,12.51z M14.85,21.21c-1.14,0-2.26-0.31-3.23-0.9C9.75,19.17,8.63,17.19,8.63,15
		c0-2.18,1.12-4.17,2.98-5.31c0.97-0.59,2.09-0.9,3.23-0.9c1.15,0,2.22,0.32,3.14,0.86c-0.49,0.02-0.96,0.15-1.38,0.4
		c-0.87,0.53-1.38,1.44-1.38,2.46s0.52,1.93,1.38,2.45c0.45,0.27,0.97,0.42,1.49,0.42c1.29,0,2.37-0.86,2.73-2.03
		c0.14,0.52,0.23,1.08,0.23,1.65C21.06,18.43,18.27,21.21,14.85,21.21z"/>
	<path class="st0" d="M27.3,11.63l-6.48-3.64l-1.28-0.72c-1.4-0.83-3.02-1.28-4.72-1.31c-0.06-0.01-0.13-0.01-0.24,0.02
		c-1.59,0.06-3.12,0.51-4.42,1.28l-7.77,4.36c-1.29,0.72-2.07,2.02-2.08,3.47c-0.01,1.45,0.74,2.75,2.02,3.49
		c2.67,1.55,4.99,2.8,6.89,3.7c2.24,1.07,3.82,1.63,4.83,1.72c0.24,0.02,0.48,0.02,0.73,0.03c0,0,0.04,0,0.08,0
		c0.03,0,0.05,0,0.06,0c0.25,0,0.49-0.01,0.73-0.03c1.01-0.09,2.58-0.65,4.83-1.72c1.89-0.9,4.21-2.15,6.89-3.7
		c1.27-0.74,2.03-2.05,2.02-3.49C29.37,13.65,28.59,12.35,27.3,11.63z M26.96,17.91c-2.66,1.54-4.96,2.78-6.83,3.67
		c-2.13,1.01-3.66,1.57-4.56,1.64c-0.22,0.02-0.45,0.02-0.68,0.03l0.01,0.39l-0.11-0.39c-0.23,0-0.45-0.01-0.68-0.03
		c-0.9-0.08-2.43-0.63-4.56-1.64c-1.88-0.9-4.18-2.13-6.83-3.67c-1.03-0.6-1.64-1.65-1.63-2.81c0.01-1.16,0.64-2.21,1.68-2.79
		l7.77-4.36c1.22-0.72,2.64-1.13,4.11-1.18c0.02,0,0.06-0.01,0.1-0.02c0.03,0,0.07,0,0.08,0c1.53,0.02,3.02,0.44,4.31,1.2l7.77,4.36
		c1.04,0.58,1.67,1.63,1.67,2.79C28.6,16.26,27.99,17.31,26.96,17.91z"/>
</g>
</svg>
