<?xml version="1.0" encoding="utf-8"?>
<!-- Generator: Adobe Illustrator 25.0.0, SVG Export Plug-In . SVG Version: 6.00 Build 0)  -->
<svg version="1.1" id="Capa_1" xmlns="http://www.w3.org/2000/svg" xmlns:xlink="http://www.w3.org/1999/xlink" x="0px" y="0px"
	 viewBox="0 0 600 600" style="enable-background:new 0 0 600 600;" xml:space="preserve">
<style type="text/css">
	.st0{fill:#2E68B0;}
</style>
<g>
	<path class="st0" d="M291.2,417.4H60.4c-3.9,0-7-2.9-7-6.4c0-3.5,3.1-6.4,7-6.4h230.8c3.9,0,7,2.9,7,6.4
		C298.2,414.5,295.1,417.4,291.2,417.4z"/>
	<path class="st0" d="M373.2,526.6c-0.2,0-0.4,0-0.7,0H180.9c-3.8,0-7-2.8-7-6.3c0-3.5,3-6.4,6.9-6.5c4.5-0.1,17.4-1,23.8-4.1
		l25.7-16.5c2-1.3,4-5.1,3.9-9.8l-0.1-28.7c0-3.5,3.1-6.4,7-6.4h0c3.9,0,7,2.8,7,6.4l0.1,28.7c0.1,8.6-3.7,16.4-9.9,20.3l-15.8,10.1
		h109.7l-15.9-10.2c-6.2-3.9-9.9-11.7-9.9-20.2l0-28.7c0-3.5,3.1-6.4,7-6.4l0,0c3.9,0,7,2.9,7,6.4l0,28.8c0,4.8,2,8.5,3.9,9.8
		l25.7,16.4c12.9,3.7,20.8,4.1,22.9,4.2h0.8c3.8,0,7,2.8,7,6.3c0.1,3.5-2.9,6.4-6.7,6.5C373.8,526.6,373.6,526.6,373.2,526.6z"/>
	<path class="st0" d="M318.4,119.7h-80.7c-3.9,0-7-2.9-7-6.4s3.1-6.4,7-6.4h80.7c3.9,0,7,2.9,7,6.4S322.3,119.7,318.4,119.7z"/>
	<path class="st0" d="M297.9,164.2h-93c-3.9,0-7-2.9-7-6.4c0-3.5,3.1-6.4,7-6.4h93c3.9,0,7,2.9,7,6.4
		C305,161.4,301.8,164.2,297.9,164.2z"/>
	<path class="st0" d="M350,164.2h-26.3c-3.9,0-7-2.9-7-6.4c0-3.5,3.1-6.4,7-6.4H350c3.9,0,7,2.9,7,6.4
		C357,161.4,353.8,164.2,350,164.2z"/>
	<path class="st0" d="M349.4,208.2H205.7c-3.9,0-7-2.9-7-6.4c0-3.5,3.1-6.4,7-6.4h143.7c3.9,0,7,2.9,7,6.4
		C356.4,205.3,353.3,208.2,349.4,208.2z"/>
	<path class="st0" d="M324.2,276H286c-3.9,0-7-2.9-7-6.4c0-3.5,3.1-6.4,7-6.4h38.3c3.9,0,7,2.9,7,6.4
		C331.3,273.1,328.1,276,324.2,276z"/>
	<path class="st0" d="M494.2,306c-3.9,0-7-2.9-7-6.4V194.9c0-9.8-8.8-17.8-19.6-17.8h-60c-3.9,0-7-2.9-7-6.4c0-3.5,3.1-6.4,7-6.4h60
		c18.6,0,33.7,13.7,33.7,30.5v104.7C501.2,303.1,498.1,306,494.2,306z"/>
	<path class="st0" d="M326.6,461.1H87c-18.6,0-33.7-13.7-33.7-30.5V194.9c0-16.8,15.1-30.5,33.7-30.5h65.2c3.9,0,7,2.9,7,6.4
		c0,3.5-3.1,6.4-7,6.4H87c-10.8,0-19.6,8-19.6,17.8v235.7c0,9.8,8.8,17.8,19.6,17.8h239.5c3.9,0,7,2.9,7,6.4
		S330.4,461.1,326.6,461.1z"/>
	<path class="st0" d="M373.2,526.6c-0.2,0-0.4,0-0.7,0H180.9c-3.8,0-7-2.8-7-6.3c0-3.5,3-6.4,6.9-6.5c4.5-0.1,17.4-1,23.8-4.1
		l25.7-16.5c2-1.3,4-5.1,3.9-9.8l-0.1-28.7c0-3.5,3.1-6.4,7-6.4h0c3.9,0,7,2.8,7,6.4l0.1,28.7c0.1,8.6-3.7,16.4-9.9,20.3l-15.8,10.1
		h109.7l-15.9-10.2c-6.2-3.9-9.9-11.7-9.9-20.2l0-28.7c0-3.5,3.1-6.4,7-6.4l0,0c3.9,0,7,2.9,7,6.4l0,28.8c0,4.8,2,8.5,3.9,9.8
		l25.7,16.4c12.9,3.7,20.8,4.1,22.9,4.2h0.8c3.8,0,7,2.8,7,6.3c0.1,3.5-2.9,6.4-6.7,6.5C373.8,526.6,373.6,526.6,373.2,526.6z"/>
	<path class="st0" d="M305.6,336.4H169.5c-3.9,0-7-2.9-7-6.4V81c0-3.5,3.1-6.4,7-6.4h220.6c3.9,0,7,2.9,7,6.4v195
		c0,3.5-3.1,6.4-7,6.4s-7-2.9-7-6.4V87.4H176.6v236.3h129c3.9,0,7,2.9,7,6.4C312.6,333.6,309.5,336.4,305.6,336.4z"/>
	<path class="st0" d="M318.4,119.7h-80.7c-3.9,0-7-2.9-7-6.4s3.1-6.4,7-6.4h80.7c3.9,0,7,2.9,7,6.4S322.3,119.7,318.4,119.7z"/>
	<path class="st0" d="M297.9,164.2h-93c-3.9,0-7-2.9-7-6.4c0-3.5,3.1-6.4,7-6.4h93c3.9,0,7,2.9,7,6.4
		C305,161.4,301.8,164.2,297.9,164.2z"/>
	<path class="st0" d="M350,164.2h-26.3c-3.9,0-7-2.9-7-6.4c0-3.5,3.1-6.4,7-6.4H350c3.9,0,7,2.9,7,6.4
		C357,161.4,353.8,164.2,350,164.2z"/>
	<path class="st0" d="M349.4,208.2H205.7c-3.9,0-7-2.9-7-6.4c0-3.5,3.1-6.4,7-6.4h143.7c3.9,0,7,2.9,7,6.4
		C356.4,205.3,353.3,208.2,349.4,208.2z"/>
	<path class="st0" d="M324.2,276H286c-3.9,0-7-2.9-7-6.4c0-3.5,3.1-6.4,7-6.4h38.3c3.9,0,7,2.9,7,6.4
		C331.3,273.1,328.1,276,324.2,276z"/>
	<g>
		<path class="st0" d="M415.7,450.3c-2,0-3.9-0.8-5.3-2.2l-38.1-39.2c-2.6-2.6-2.3-6.7,0.6-9c2.9-2.3,7.4-2.1,9.9,0.6l30.7,31.6
			c9.6-19.6,34.5-64.8,74.6-97.6c2.9-2.4,7.3-2.1,9.9,0.5c2.6,2.6,2.4,6.7-0.5,9c-48.9,39.9-75,101.6-75.3,102.2
			c-0.9,2.1-2.9,3.6-5.3,4C416.5,450.3,416.1,450.3,415.7,450.3z"/>
		<path class="st0" d="M433.3,509.7c-69.3,0-125.6-51.1-125.6-113.9S364.1,282,433.3,282c69.3,0,125.6,51.1,125.6,113.9
			S502.6,509.7,433.3,509.7z M433.3,294.8c-61.5,0-111.5,45.4-111.5,101.1S371.8,497,433.3,497s111.6-45.4,111.6-101.1
			S494.8,294.8,433.3,294.8z"/>
	</g>
	<path class="st0" d="M238.8,260.2c-4.8,0-8.7-3.4-8.7-7.5c0-4.1,3.9-7.5,8.7-7.5c4.8,0,8.7,3.4,8.7,7.5c0,2.1,2,3.8,4.4,3.8
		s4.4-1.7,4.4-3.8c0-7-5.7-12.7-13.2-14.4v-1.8c0-2.1-2-3.8-4.4-3.8s-4.4,1.7-4.4,3.8v1.8c-7.5,1.7-13.2,7.4-13.2,14.4
		c0,8.4,7.9,15.2,17.6,15.2c4.8,0,8.7,3.4,8.7,7.5c0,4.1-3.9,7.5-8.7,7.5c-4.8,0-8.7-3.4-8.7-7.5c0-2.1-2-3.8-4.4-3.8
		c-2.5,0-4.4,1.7-4.4,3.8c0,7,5.7,12.7,13.2,14.4v1.8c0,2.1,2,3.8,4.4,3.8s4.4-1.7,4.4-3.8v-1.8c7.5-1.7,13.2-7.4,13.2-14.4
		C256.3,267,248.5,260.2,238.8,260.2z"/>
</g>
</svg>
