<?xml version="1.0" encoding="utf-8"?>
<!-- Generator: Adobe Illustrator 24.3.0, SVG Export Plug-In . SVG Version: 6.00 Build 0)  -->
<svg version="1.1" id="Capa_1" xmlns="http://www.w3.org/2000/svg" xmlns:xlink="http://www.w3.org/1999/xlink" x="0px" y="0px"
	 viewBox="0 0 400 400" style="enable-background:new 0 0 400 400;" xml:space="preserve">
<style type="text/css">
	.st0{fill:#006dd9;}
	.st1{fill:#E53341;}
	.st2{fill:#EFEFA8;}
	.st3{fill:#28C67A;}
	.st4{fill:#104A8E;}
	.st5{fill:#FFFFFF;}
	.st6{fill:#1C87A0;}
	.st7{fill:#F26608;}
	.st8{fill:none;stroke:#006dd9;stroke-width:0.5;stroke-linecap:round;stroke-linejoin:round;stroke-miterlimit:10;}
	.st9{fill:none;}
</style>
<g>
	<g>
		<g>
			<path class="st0" d="M349.41,278.16H215.43c-2.24,0-4.06-1.82-4.06-4.06s1.82-4.06,4.06-4.06h133.99c5.09,0,9.23-4.14,9.23-9.23
				v-90.44c-27.72,7.2-57.43,11.85-88.44,13.84v6.52c0,8.54-6.95,15.49-15.49,15.49H218.9c-8.55,0-15.5-6.95-15.5-15.49v-6.52
				c-31-1.98-60.7-6.63-88.42-13.84v16.64c0,2.24-1.82,4.06-4.06,4.06c-2.24,0-4.06-1.82-4.06-4.06v-21.93
				c0-1.27,0.59-2.46,1.6-3.24c1.03-0.76,2.33-0.98,3.54-0.68c29.75,8.14,61.96,13.25,95.7,15.15c2.14,0.13,3.82,1.9,3.82,4.06
				v10.34c0,4.06,3.32,7.36,7.38,7.36h35.83c4.06,0,7.36-3.3,7.36-7.36v-10.34c0-2.16,1.68-3.93,3.82-4.06
				c33.76-1.9,65.97-7.01,95.72-15.15c1.25-0.32,2.52-0.08,3.54,0.68c1.02,0.78,1.6,1.97,1.6,3.24v95.72
				C366.77,270.37,358.98,278.16,349.41,278.16z"/>
		</g>
		<g>
			<path class="st0" d="M266.15,184.44c-2.14,0-3.93-1.67-4.06-3.82c-0.13-2.25,1.59-4.17,3.82-4.3
				c32.64-1.84,63.81-6.66,92.74-14.34V90.72c0-4.17-3.4-7.57-7.57-7.57H121.82c-3.78,0-6.84,3.08-6.84,6.85v71.97
				c28.92,7.68,60.1,12.5,92.72,14.34c2.24,0.13,3.95,2.05,3.82,4.3c-0.14,2.22-2.13,3.74-4.3,3.82
				c-34.3-1.95-67.07-7.14-97.39-15.44c-1.76-0.49-2.98-2.09-2.98-3.92V90.01c0-8.27,6.71-14.98,14.96-14.98h229.26
				c8.65,0,15.69,7.04,15.69,15.69v74.36c0,1.82-1.22,3.43-2.98,3.92c-30.32,8.3-63.08,13.49-97.42,15.44
				C266.31,184.44,266.23,184.44,266.15,184.44z"/>
		</g>
		<g>
			<path class="st0" d="M266.15,184.44c-2.24,0-4.06-1.82-4.06-4.06v-8.44c0-4.06-3.3-7.38-7.36-7.38H218.9
				c-4.06,0-7.38,3.32-7.38,7.38v8.44c0,2.24-1.82,4.06-4.06,4.06s-4.06-1.82-4.06-4.06v-8.44c0-8.55,6.95-15.5,15.5-15.5h35.83
				c8.54,0,15.49,6.95,15.49,15.5v8.44C270.21,182.62,268.39,184.44,266.15,184.44z"/>
		</g>
		<g>
			<path class="st0" d="M307.18,82.54H166.45c-1.35,0-2.6-0.67-3.36-1.78c-0.75-1.11-0.9-2.52-0.41-3.78
				c8.47-21.39,22.48-32.24,41.63-32.24h61.81c20.07,0,36.82,12.04,44.84,32.24c0.49,1.24,0.33,2.67-0.41,3.78
				C309.78,81.87,308.53,82.54,307.18,82.54z M172.68,74.41h128.13c-7.38-13.6-19.99-21.55-34.7-21.55h-61.81
				C190.28,52.87,179.9,59.93,172.68,74.41z"/>
		</g>
	</g>
	<g>
		<g>
			<g>
				<path class="st0" d="M126.39,274.88c-10.09,0-19.61-5.35-24.85-13.96c-2.76-4.54-4.24-9.77-4.24-15.14
					c0-16.04,13.04-29.08,29.08-29.08s29.1,13.04,29.1,29.08c0,5.36-1.48,10.6-4.25,15.14C145.9,269.66,136.62,274.88,126.39,274.88
					z M126.39,224.82c-11.55,0-20.96,9.41-20.96,20.96c0,3.87,1.06,7.63,3.05,10.92c3.84,6.3,10.53,10.06,17.91,10.06
					c7.38,0,14.07-3.76,17.91-10.06c2-3.28,3.06-7.04,3.06-10.92C147.36,234.23,137.95,224.82,126.39,224.82z"/>
			</g>
			<g>
				<path class="st0" d="M166.7,329.28H86.09c-1.17,0-2.27-0.51-3.05-1.38c-0.78-0.87-1.13-2.03-0.98-3.19
					c3.55-27.92,22.2-48.2,44.33-48.2c22.15,0,40.79,20.28,44.35,48.2c0.14,1.16-0.21,2.32-0.98,3.19
					C168.99,328.78,167.88,329.28,166.7,329.28z M90.86,321.16h71.06c-4.28-21.42-18.72-36.52-35.54-36.52
					S95.15,299.74,90.86,321.16z"/>
			</g>
		</g>
		<g>
			<path class="st0" d="M126.39,361.05c-48.55,0-88.04-39.51-88.04-88.06s39.49-88.06,88.04-88.06s88.06,39.51,88.06,88.06
				S174.94,361.05,126.39,361.05z M126.39,193.06c-44.06,0-79.92,35.86-79.92,79.93s35.86,79.93,79.92,79.93
				c44.08,0,79.93-35.86,79.93-79.93S170.46,193.06,126.39,193.06z"/>
		</g>
	</g>
</g>
</svg>
