<?xml version="1.0" encoding="utf-8"?>
<!-- Generator: Adobe Illustrator 24.3.0, SVG Export Plug-In . SVG Version: 6.00 Build 0)  -->
<svg version="1.1" id="Capa_1" xmlns="http://www.w3.org/2000/svg" xmlns:xlink="http://www.w3.org/1999/xlink" x="0px" y="0px"
	 viewBox="0 0 400 400" style="enable-background:new 0 0 400 400;" xml:space="preserve">
<style type="text/css">
	.st0{fill:#006dd9;}
	.st1{fill:#E53341;}
	.st2{fill:#EFEFA8;}
	.st3{fill:#28C67A;}
	.st4{fill:#104A8E;}
	.st5{fill:#FFFFFF;}
	.st6{fill:#1C87A0;}
	.st7{fill:#F26608;}
	.st8{fill:none;stroke:#006dd9;stroke-width:0.5;stroke-linecap:round;stroke-linejoin:round;stroke-miterlimit:10;}
	.st9{fill:none;}
</style>
<g>
	<g>
		<g>
			<path class="st0" d="M139.93,194.27c-20.53,0-39.17-10.47-49.88-28.04c-5.55-9.11-8.49-19.59-8.49-30.34
				c0-32.19,26.18-58.39,58.37-58.39s58.39,26.19,58.39,58.39c0,10.74-2.94,21.23-8.49,30.34
				C179.12,183.8,160.48,194.27,139.93,194.27z M139.93,85.64c-27.7,0-50.25,22.55-50.25,50.26c0,9.25,2.52,18.28,7.31,26.12
				c9.2,15.1,25.26,24.13,42.93,24.13c17.69,0,33.75-9.03,42.95-24.13c4.79-7.84,7.31-16.87,7.31-26.12
				C190.2,108.18,167.65,85.64,139.93,85.64z"/>
		</g>
		<g>
			<path class="st0" d="M227.42,312.33H52.45c-1.17,0-2.28-0.51-3.05-1.38c-0.78-0.87-1.13-2.03-0.98-3.19
				c7.43-58.18,45.92-100.42,91.51-100.42c45.61,0,84.11,42.24,91.51,100.42c0.14,1.16-0.21,2.32-0.98,3.19
				C229.7,311.82,228.59,312.33,227.42,312.33z M57.13,304.2h165.61c-8.23-51.69-42.5-88.74-82.8-88.74
				C99.65,215.47,65.38,252.51,57.13,304.2z"/>
		</g>
	</g>
	<g>
		<g>
			<path class="st0" d="M273.37,215.8c-17.04,0-32.54-8.71-41.44-23.29c-4.6-7.58-7.04-16.29-7.04-25.2
				c0-26.73,21.75-48.49,48.49-48.49c26.73,0,48.47,21.75,48.47,48.49c0,8.9-2.44,17.61-7.04,25.2
				C305.89,207.09,290.41,215.8,273.37,215.8z M273.37,126.95c-22.26,0-40.36,18.1-40.36,40.36c0,7.41,2.03,14.66,5.87,20.97
				c7.41,12.14,20.31,19.39,34.49,19.39c14.18,0,27.07-7.25,34.48-19.39c3.84-6.31,5.87-13.57,5.87-20.97
				C313.71,145.05,295.61,126.95,273.37,126.95z"/>
		</g>
		<g>
			<path class="st0" d="M344.89,312.33h-94.62c-2.24,0-4.06-1.82-4.06-4.06s1.82-4.06,4.06-4.06h89.93
				c-6.92-41.46-34.49-71.08-66.83-71.08c-14.79,0-28.86,6.16-40.7,17.82c-1.6,1.6-4.17,1.54-5.74-0.03
				c-1.59-1.6-1.55-4.17,0.03-5.74c13.41-13.2,29.45-20.17,46.41-20.17c37.67,0,69.45,34.79,75.55,82.76
				c0.14,1.16-0.21,2.32-0.98,3.19C347.18,311.82,346.06,312.33,344.89,312.33z"/>
		</g>
	</g>
</g>
</svg>
