<?xml version="1.0" encoding="utf-8"?>
<!-- Generator: Adobe Illustrator 24.3.0, SVG Export Plug-In . SVG Version: 6.00 Build 0)  -->
<svg version="1.1" id="Capa_1" xmlns="http://www.w3.org/2000/svg" xmlns:xlink="http://www.w3.org/1999/xlink" x="0px" y="0px"
	 viewBox="0 0 400 400" style="enable-background:new 0 0 400 400;" xml:space="preserve">
<style type="text/css">
	.st0{fill:#006dd9;}
	.st1{fill:#E53341;}
	.st2{fill:#EFEFA8;}
	.st3{fill:#28C67A;}
	.st4{fill:#104A8E;}
	.st5{fill:#FFFFFF;}
	.st6{fill:#1C87A0;}
	.st7{fill:#F26608;}
	.st8{fill:none;stroke:#006dd9;stroke-width:0.5;stroke-linecap:round;stroke-linejoin:round;stroke-miterlimit:10;}
	.st9{fill:none;}
</style>
<g>
	<g>
		<path class="st0" d="M81.22,138.83c-2.24,0-4.06-1.82-4.06-4.06s1.82-4.06,4.06-4.06c0.4,0,40.2-0.02,50.61-0.71
			c10.6-0.73,18.75-1.46,18.77-1.46c2.54-0.33,4.2,1.46,4.41,3.68c0.21,2.24-1.44,4.2-3.68,4.41c0,0-8.25,0.73-18.96,1.46
			C121.7,138.82,82.87,138.83,81.22,138.83z"/>
	</g>
	<g>
		<path class="st0" d="M239.5,290.37c-1.84,0-3.51-1.25-3.95-3.13c-0.52-2.17,0.83-4.36,3.01-4.89
			c18.26-4.35,61.24-17.66,65.94-47.07c0.41-2.59-7.46-10.23-16.2-15.72c-28.48-17.48-74.9-45.6-81.3-48.45
			c-1.25-0.05-2.57-0.38-4.01-0.76c-3.44-0.89-7.68-1.98-11.76,0.52c-4.08,2.49-12.09,8.57-19.18,13.93
			c-6.25,4.73-11.65,8.82-14.07,10.27c-4,2.36-11.23,1.44-17.15-2.14c-6.73-4.11-10.34-10.69-9.92-18.07
			c1-16.88,39.41-47.65,49.82-51.58c11.93-4.49,50.45-4.14,63.07-1.24c12.68,2.92,71.17,20.2,73.67,20.93l5.65,0.22
			c2.24,0.14,3.95,2.06,3.82,4.3c-0.14,2.24-2.03,3.87-4.3,3.82l-6.57-0.38c-1.52-0.35-61.65-18.1-74.11-20.99
			c-12.23-2.81-48.6-2.74-58.35,0.94c-10.27,3.89-43.9,33.02-44.57,44.46c-0.33,5.38,2.89,8.63,5.65,10.42
			c4,2.59,8.23,2.81,9.15,2.33c2.03-1.22,7.76-5.57,13.31-9.77c7.23-5.47,15.44-11.68,19.86-14.37c7.01-4.3,13.91-2.52,18.01-1.44
			c1.03,0.27,2.06,0.46,2.59,0.46c1.9,0,8.81,2.92,84.98,49.71c5.09,3.19,21.48,14.3,19.94,23.91
			c-5.49,34.25-52.25,48.96-72.09,53.69C240.12,290.34,239.8,290.37,239.5,290.37z"/>
	</g>
	<g>
		<path class="st0" d="M109.86,245.93c-0.67,0-1.35-0.16-1.97-0.51c-15.88-8.84-27.37-15.29-27.37-15.29
			c-1.97-1.09-2.65-3.57-1.55-5.52c1.09-1.98,3.6-2.63,5.52-1.55c0.02,0,11.49,6.46,27.34,15.26c1.97,1.09,2.67,3.57,1.59,5.52
			C112.67,245.18,111.29,245.93,109.86,245.93z"/>
	</g>
	<g>
		<path class="st0" d="M81.24,139.09l-0.03-8.12c0,0,63.8-0.16,65.43-0.16c2.24,0,4.06,1.82,4.06,4.06s-1.82,4.06-4.06,4.06
			C145,138.93,81.24,139.09,81.24,139.09z"/>
	</g>
	<g>
		<path class="st0" d="M307.42,228.98c-1.67,0-3.22-1.03-3.82-2.68c-0.76-2.09,0.33-4.43,2.44-5.2l17.5-6.36
			c2.05-0.75,4.44,0.33,5.2,2.44c0.76,2.09-0.33,4.43-2.44,5.2l-17.5,6.36C308.36,228.9,307.88,228.98,307.42,228.98z"/>
	</g>
	<g>
		<path class="st0" d="M71.5,247.43H36.94c-7.63,0-13.84-6.22-13.84-13.85v-98.84c0-7.63,6.2-13.85,13.84-13.85H71.5
			c7.63,0,13.84,6.22,13.84,13.85v98.84C85.33,241.21,79.13,247.43,71.5,247.43z M36.94,129.01c-3.16,0-5.71,2.57-5.71,5.73v98.84
			c0,3.16,2.55,5.73,5.71,5.73H71.5c3.16,0,5.71-2.57,5.71-5.73v-98.84c0-3.16-2.55-5.73-5.71-5.73H36.94z"/>
	</g>
	<g>
		<path class="st0" d="M370.98,247.43h-34.54c-7.63,0-13.85-6.22-13.85-13.85v-98.84c0-7.63,6.22-13.85,13.85-13.85h34.54
			c7.63,0,13.85,6.22,13.85,13.85v98.84C384.83,241.21,378.61,247.43,370.98,247.43z M336.44,129.01c-3.16,0-5.73,2.57-5.73,5.73
			v98.84c0,3.16,2.57,5.73,5.73,5.73h34.54c3.16,0,5.73-2.57,5.73-5.73v-98.84c0-3.16-2.57-5.73-5.73-5.73H336.44z"/>
	</g>
	<g>
		<path class="st0" d="M208.82,304.5c-24.94,0-70.25-14.95-96.18-42.52c-4.28-4.54,0.22-12.77,2.36-16.09
			c0.03-0.06,0.08-0.13,0.11-0.17c0.9-1.27,22.61-30.8,46.19-18.01c20.85,11.22,63.35,42.63,65.15,43.96
			c0.29,0.21,0.54,0.44,0.75,0.71c0.38,0.46,8.93,11.41-0.4,25.91c-2.16,3.36-6.6,5.38-13.18,6
			C212.12,304.42,210.51,304.5,208.82,304.5z M121.76,250.39c-1.57,2.48-2.92,5.76-2.81,6.79c25.21,26.48,72.49,40.9,93.89,39.03
			c5.82-0.54,7-2.13,7.12-2.3c5.35-8.33,2.11-14.53,1.13-16.09c-5.01-3.68-44.52-32.67-63.64-42.96
			C140.48,225.79,122.92,248.83,121.76,250.39z"/>
	</g>
</g>
</svg>
