<?xml version="1.0" encoding="utf-8"?>
<!-- Generator: Adobe Illustrator 24.3.0, SVG Export Plug-In . SVG Version: 6.00 Build 0)  -->
<svg version="1.1" id="Capa_1" xmlns="http://www.w3.org/2000/svg" xmlns:xlink="http://www.w3.org/1999/xlink" x="0px" y="0px"
	 viewBox="0 0 600 600" style="enable-background:new 0 0 600 600;" xml:space="preserve">
<style type="text/css">
	.st0{fill:#FFFFFF;}
</style>
<g>
	<path class="st0" d="M299.6,308.6c-35.8,0-68.1-18.2-86.7-48.7c-9.7-15.9-14.8-34.1-14.8-52.8c0-55.9,45.6-101.5,101.5-101.5
		c55.9-0.1,101.5,45.4,101.5,101.5c0,18.7-5.1,36.9-14.8,52.8C367.7,290.5,335.2,308.6,299.6,308.6z M299.6,116.8
		c-49.8,0-90.4,40.6-90.4,90.4c0,16.6,4.5,32.9,13.2,47c16.6,27.2,45.4,43.4,77.2,43.4s60.6-16.2,77.2-43.4
		c8.7-14,13.2-30.4,13.2-47C390,157.4,349.4,116.8,299.6,116.8z"/>
	<path class="st0" d="M460.4,517.1H138.6l0.9-6.2c13.1-102,80.3-176,160.1-176s147,74.1,160.1,176L460.4,517.1z M151.4,506h296.3
		c-14.2-93.1-75.6-159.9-148.2-159.9S165.5,412.9,151.4,506z"/>
</g>
</svg>
