<?xml version="1.0" encoding="utf-8"?>
<!-- Generator: Adobe Illustrator 24.0.0, SVG Export Plug-In . SVG Version: 6.00 Build 0)  -->
<svg version="1.1" id="Capa_1" xmlns="http://www.w3.org/2000/svg" xmlns:xlink="http://www.w3.org/1999/xlink" x="0px" y="0px"
	 viewBox="0 0 20 20" style="enable-background:new 0 0 20 20;" xml:space="preserve">
<style type="text/css">
	.st0{fill:#B2B2B2;}
</style>
<path class="st0" d="M9.94,19.19c-5,0-9.06-4.06-9.06-9.06c0-5,4.06-9.06,9.06-9.06S19,5.13,19,10.13
	C19,15.12,14.94,19.19,9.94,19.19z M9.94,1.76c-4.61,0-8.37,3.75-8.37,8.36c0,4.61,3.75,8.37,8.37,8.37c4.61,0,8.37-3.75,8.37-8.37
	C18.31,5.52,14.55,1.76,9.94,1.76z"/>
<path class="st0" d="M14.65,9.77l-4.21-0.01l0.01-4.21c0-0.19-0.15-0.35-0.35-0.35h0c-0.19,0-0.35,0.16-0.35,0.35L9.75,9.76
	L5.54,9.76h0c-0.19,0-0.35,0.16-0.35,0.35c0,0.19,0.15,0.35,0.35,0.35l4.21,0.01l-0.01,4.21c0,0.19,0.15,0.35,0.35,0.35h0
	c0.19,0,0.35-0.15,0.35-0.35l0.01-4.21l4.2,0.01c0,0,0,0,0,0c0.19,0,0.35-0.16,0.35-0.35C15,9.93,14.84,9.78,14.65,9.77z"/>
</svg>
