<?xml version="1.0" encoding="utf-8"?>
<!-- Generator: Adobe Illustrator 24.0.0, SVG Export Plug-In . SVG Version: 6.00 Build 0)  -->
<svg version="1.1" id="Capa_1" xmlns="http://www.w3.org/2000/svg" xmlns:xlink="http://www.w3.org/1999/xlink" x="0px" y="0px"
	 viewBox="0 0 30 30" style="enable-background:new 0 0 30 30;" xml:space="preserve">
<style type="text/css">
	.st0{fill:#006dd9;}
</style>
<g>
	<g>
		<g>
			<path class="st0" d="M7.07,22.38c-0.09,0-0.19-0.03-0.26-0.1c-2.13-1.9-3.41-4.51-3.6-7.36c-0.01-0.22,0.15-0.4,0.36-0.42
				c0.22-0.01,0.4,0.15,0.42,0.36c0.17,2.64,1.36,5.06,3.34,6.83c0.16,0.14,0.17,0.39,0.03,0.55C7.29,22.33,7.18,22.38,7.07,22.38z"
				/>
			<path class="st0" d="M14.02,25.02H0.7c-0.22,0-0.39-0.18-0.39-0.39s0.17-0.39,0.39-0.39h13.32c5.54,0,10.05-4.51,10.05-10.05
				c0-5.54-4.51-10.05-10.05-10.05c-4.86,0-9.02,3.46-9.88,8.24C4.1,12.6,3.89,12.73,3.68,12.7c-0.21-0.04-0.35-0.24-0.31-0.45
				C4.3,7.1,8.78,3.37,14.02,3.37c5.97,0,10.83,4.86,10.83,10.83C24.85,20.17,19.99,25.02,14.02,25.02z"/>
		</g>
		<path class="st0" d="M28.81,25.02h-7.64c-0.22,0-0.39-0.18-0.39-0.39s0.18-0.39,0.39-0.39h7.64c0.22,0,0.39,0.18,0.39,0.39
			S29.03,25.02,28.81,25.02z"/>
		<path class="st0" d="M27.6,26.68c-0.1,0-0.2-0.04-0.28-0.11c-0.15-0.15-0.15-0.4,0-0.55l1.38-1.38l-1.38-1.38
			c-0.15-0.15-0.15-0.4,0-0.55c0.15-0.15,0.4-0.15,0.55,0l1.66,1.66c0.15,0.15,0.15,0.4,0,0.55l-1.66,1.66
			C27.8,26.64,27.7,26.68,27.6,26.68z"/>
		<path class="st0" d="M3.77,13.07c-0.02,0-0.04,0-0.05,0c-0.1-0.01-0.2-0.07-0.26-0.15l-1.41-1.87c-0.13-0.17-0.1-0.42,0.08-0.55
			c0.17-0.13,0.42-0.1,0.55,0.08l1.18,1.56l1.56-1.18c0.17-0.13,0.42-0.1,0.55,0.08c0.13,0.17,0.1,0.42-0.08,0.55L4,12.99
			C3.93,13.05,3.85,13.07,3.77,13.07z"/>
	</g>
	<path class="st0" d="M15.13,20.85H13.4c-0.18,0-0.33-0.12-0.38-0.29l-0.24-0.95c-0.43-0.12-0.84-0.29-1.22-0.51l-0.84,0.5
		c-0.15,0.09-0.35,0.07-0.48-0.06l-1.23-1.23C8.89,18.19,8.87,18,8.96,17.84l0.5-0.84c-0.22-0.39-0.39-0.8-0.51-1.22L8,15.54
		c-0.17-0.04-0.29-0.2-0.29-0.38v-1.73c0-0.18,0.12-0.33,0.3-0.38l0.95-0.24c0.12-0.43,0.29-0.83,0.51-1.22l-0.5-0.84
		c-0.09-0.15-0.07-0.35,0.06-0.48l1.23-1.23c0.13-0.13,0.32-0.15,0.48-0.06l0.84,0.5c0.39-0.22,0.8-0.39,1.22-0.51l0.24-0.95
		c0.04-0.17,0.2-0.3,0.38-0.3h1.73c0.18,0,0.33,0.12,0.38,0.3l0.24,0.95c0.43,0.12,0.83,0.29,1.22,0.51l0.84-0.5
		c0.15-0.09,0.35-0.07,0.48,0.06l1.23,1.23c0.13,0.13,0.15,0.32,0.06,0.48l-0.5,0.84c0.22,0.39,0.39,0.8,0.51,1.22l0.95,0.24
		c0.17,0.04,0.29,0.2,0.29,0.38v1.73c0,0.18-0.12,0.33-0.29,0.38l-0.95,0.24c-0.12,0.42-0.29,0.83-0.51,1.22l0.5,0.84
		c0.09,0.15,0.07,0.35-0.06,0.48l-1.23,1.23c-0.13,0.13-0.32,0.15-0.48,0.06l-0.84-0.5c-0.39,0.22-0.8,0.39-1.22,0.51l-0.24,0.95
		C15.47,20.73,15.31,20.85,15.13,20.85z M13.7,20.07h1.13l0.22-0.88c0.04-0.14,0.15-0.25,0.29-0.28c0.5-0.12,0.99-0.32,1.43-0.59
		c0.12-0.08,0.28-0.08,0.41,0l0.78,0.46l0.8-0.8l-0.47-0.78c-0.07-0.13-0.07-0.28,0-0.41c0.28-0.44,0.48-0.92,0.59-1.43
		c0.03-0.14,0.14-0.25,0.28-0.29l0.88-0.22v-1.13l-0.88-0.22c-0.14-0.04-0.25-0.15-0.28-0.29c-0.12-0.5-0.32-0.98-0.59-1.42
		c-0.08-0.12-0.08-0.28,0-0.41l0.47-0.78l-0.8-0.8l-0.78,0.46c-0.13,0.08-0.28,0.07-0.41,0C16.32,10,15.84,9.8,15.34,9.69
		c-0.14-0.03-0.25-0.14-0.29-0.29l-0.22-0.88H13.7L13.48,9.4c-0.04,0.14-0.15,0.25-0.29,0.29c-0.5,0.12-0.98,0.32-1.43,0.59
		c-0.12,0.08-0.28,0.08-0.41,0l-0.78-0.46l-0.8,0.8l0.46,0.78c0.07,0.13,0.07,0.28,0,0.41c-0.28,0.44-0.47,0.92-0.59,1.43
		c-0.03,0.14-0.14,0.25-0.29,0.29l-0.88,0.22v1.13l0.88,0.22c0.14,0.04,0.25,0.15,0.28,0.29c0.12,0.5,0.32,0.98,0.59,1.43
		c0.08,0.12,0.08,0.28,0,0.41l-0.46,0.78l0.8,0.8l0.78-0.46c0.13-0.07,0.28-0.07,0.41,0c0.44,0.27,0.92,0.47,1.43,0.59
		c0.14,0.03,0.25,0.14,0.29,0.28L13.7,20.07z"/>
	<path class="st0" d="M14.27,17.43c-1.73,0-3.13-1.4-3.13-3.13s1.4-3.13,3.13-3.13c0.74,0,1.45,0.26,2.02,0.74
		c0.16,0.14,0.19,0.39,0.05,0.55c-0.14,0.17-0.38,0.19-0.55,0.05c-0.42-0.36-0.96-0.55-1.51-0.55c-1.3,0-2.35,1.05-2.35,2.35
		s1.05,2.35,2.35,2.35c1.29,0,2.35-1.05,2.35-2.35c0-0.22,0.17-0.39,0.39-0.39c0.22,0,0.39,0.17,0.39,0.39
		C17.4,16.03,15.99,17.43,14.27,17.43z"/>
</g>
</svg>
