<?xml version="1.0" encoding="utf-8"?>
<!-- Generator: Adobe Illustrator 24.0.0, SVG Export Plug-In . SVG Version: 6.00 Build 0)  -->
<svg version="1.1" id="Capa_1" xmlns="http://www.w3.org/2000/svg" xmlns:xlink="http://www.w3.org/1999/xlink" x="0px" y="0px"
	 viewBox="0 0 30 30" style="enable-background:new 0 0 30 30;" xml:space="preserve">
<style type="text/css">
	.st0{fill:#006dd9;}
	.st1{fill:#646363;}
</style>
<g>
	<path class="st0" d="M26.59,9.31H8.4c-0.19,0-0.34-0.15-0.34-0.34S8.21,8.62,8.4,8.62h18.2c0.19,0,0.34,0.15,0.34,0.34
		S26.78,9.31,26.59,9.31z"/>
	<path class="st0" d="M26.59,15.57H8.4c-0.19,0-0.34-0.15-0.34-0.34c0-0.19,0.15-0.34,0.34-0.34h18.2c0.19,0,0.34,0.15,0.34,0.34
		C26.93,15.42,26.78,15.57,26.59,15.57z"/>
	<path class="st0" d="M26.59,22.36H8.4c-0.19,0-0.34-0.15-0.34-0.34s0.15-0.34,0.34-0.34h18.2c0.19,0,0.34,0.15,0.34,0.34
		S26.78,22.36,26.59,22.36z"/>
	<path class="st0" d="M4.91,11.47c-0.15,0-0.3-0.02-0.46-0.05c-0.56-0.12-1.03-0.45-1.34-0.93C2.8,10.01,2.7,9.44,2.82,8.88
		c0.12-0.56,0.44-1.04,0.9-1.35c0.47-0.32,1.03-0.43,1.59-0.3c0.18,0.04,0.3,0.22,0.26,0.41C5.53,7.82,5.35,7.94,5.16,7.9
		C4.79,7.82,4.42,7.89,4.1,8.1C3.79,8.31,3.58,8.64,3.49,9.03c-0.08,0.38-0.01,0.77,0.2,1.09c0.21,0.33,0.53,0.55,0.91,0.63
		c0.78,0.17,1.55-0.32,1.73-1.11c0.04-0.18,0.22-0.3,0.41-0.26c0.18,0.04,0.3,0.22,0.26,0.41C6.78,10.79,5.89,11.47,4.91,11.47z"/>
	<path class="st0" d="M5.13,10.14c-0.09,0-0.17-0.03-0.24-0.1L3.92,9.11C3.79,8.98,3.78,8.76,3.91,8.63
		C4.04,8.49,4.26,8.49,4.4,8.62l0.7,0.67l2.72-3.31C7.94,5.83,8.15,5.81,8.3,5.93c0.15,0.12,0.17,0.34,0.05,0.48l-2.96,3.6
		c-0.06,0.07-0.15,0.12-0.25,0.12C5.14,10.14,5.13,10.14,5.13,10.14z"/>
	<path class="st0" d="M4.91,17.74c-0.15,0-0.3-0.02-0.46-0.05c-0.56-0.12-1.03-0.45-1.34-0.93C2.8,16.27,2.7,15.7,2.82,15.14
		c0.12-0.56,0.44-1.04,0.9-1.35c0.47-0.32,1.04-0.42,1.59-0.3c0.19,0.04,0.3,0.22,0.26,0.41c-0.04,0.19-0.22,0.3-0.41,0.26
		c-0.37-0.08-0.75-0.01-1.06,0.2c-0.31,0.21-0.53,0.54-0.61,0.93c-0.08,0.38-0.01,0.77,0.2,1.09c0.21,0.33,0.53,0.55,0.91,0.63
		c0.78,0.17,1.55-0.33,1.73-1.11c0.04-0.18,0.22-0.3,0.41-0.26c0.18,0.04,0.3,0.22,0.26,0.41C6.78,17.05,5.89,17.74,4.91,17.74z"/>
	<path class="st0" d="M5.13,16.4c-0.09,0-0.17-0.03-0.24-0.1l-0.97-0.93c-0.14-0.13-0.14-0.35-0.01-0.49
		c0.13-0.14,0.35-0.14,0.49-0.01l0.7,0.67l2.72-3.31c0.12-0.15,0.34-0.17,0.48-0.05c0.15,0.12,0.17,0.34,0.05,0.48l-2.96,3.6
		c-0.06,0.07-0.15,0.12-0.25,0.12C5.14,16.4,5.13,16.4,5.13,16.4z"/>
	<path class="st0" d="M4.96,24.01c-1.22,0-2.22-1-2.22-2.22c0-1.22,1-2.22,2.22-2.22s2.22,1,2.22,2.22
		C7.18,23.01,6.19,24.01,4.96,24.01z M4.96,20.26c-0.85,0-1.53,0.69-1.53,1.53c0,0.85,0.69,1.53,1.53,1.53s1.53-0.69,1.53-1.53
		C6.5,20.95,5.81,20.26,4.96,20.26z"/>
</g>
</svg>
