<?xml version="1.0" encoding="utf-8"?>
<!-- Generator: Adobe Illustrator 24.0.0, SVG Export Plug-In . SVG Version: 6.00 Build 0)  -->
<svg version="1.1" id="Capa_1" xmlns="http://www.w3.org/2000/svg" xmlns:xlink="http://www.w3.org/1999/xlink" x="0px" y="0px"
	 viewBox="0 0 30 30" style="enable-background:new 0 0 30 30;" xml:space="preserve">
<style type="text/css">
	.st0{fill:#104A8E;}
</style>
<g>
	<path class="st0" d="M22.64,25.49H7.55c-0.21,0-0.38-0.17-0.38-0.38V6.31c0-0.21,0.17-0.38,0.38-0.38h15.09
		c0.21,0,0.38,0.17,0.38,0.38v18.8C23.02,25.32,22.85,25.49,22.64,25.49z M7.93,24.73h14.33V6.69H7.93V24.73z"/>
	<path class="st0" d="M5.52,23.68h-4.1c-0.21,0-0.38-0.17-0.38-0.38V8.2c0-0.21,0.17-0.38,0.38-0.38h4.1c0.21,0,0.38,0.17,0.38,0.38
		S5.73,8.58,5.52,8.58H1.8v14.35h3.72c0.21,0,0.38,0.17,0.38,0.38S5.73,23.68,5.52,23.68z"/>
	<path class="st0" d="M28.78,23.68h-4.1c-0.21,0-0.38-0.17-0.38-0.38s0.17-0.38,0.38-0.38h3.72V8.58h-3.72
		c-0.21,0-0.38-0.17-0.38-0.38s0.17-0.38,0.38-0.38h4.1c0.21,0,0.38,0.17,0.38,0.38V23.3C29.16,23.51,28.99,23.68,28.78,23.68z"/>
</g>
</svg>
