<svg id="Capa_1" data-name="Capa 1" xmlns="http://www.w3.org/2000/svg" viewBox="0 0 400 400"><defs><style>.cls-1{fill:#FFFFFF;}</style></defs><path class="cls-1" d="M355.91,372.4H43c-14.94,0-28.56-8.26-36.41-22.08a50.55,50.55,0,0,1,.43-50.76L163.49,36.34C171.44,23,184.89,15,199.47,15s28,8,36,21.34L391.89,299.56a50.53,50.53,0,0,1,.43,50.76C384.45,364.14,370.83,372.4,355.91,372.4ZM199.47,36c-7.22,0-13.76,4-17.94,11.1L25.09,310.3A29.61,29.61,0,0,0,24.87,340C29,347.23,35.63,351.41,43,351.41H355.91c7.4,0,14-4.18,18.16-11.48a29.62,29.62,0,0,0-.22-29.63L217.41,47.09C213.23,40,206.69,36,199.47,36Z"/><path class="cls-1" d="M198.59,320.61c-12.63,0-18.6-6.45-21.36-11.87-3.18-6.29-4.72-14.59-4.72-25.44q0-7.41.94-17.31l5.42-62.34c.67-8.47,2.11-15,4.34-19.87,6.38-13.72,27.11-13.57,33.38,0,2.28,4.86,3.71,11.38,4.39,20v.06l4.28,60.77c.78,12.44,1.17,21,1.17,25.71,0,9-2.48,16.34-7.38,21.79C214,317.66,206.89,320.61,198.59,320.61ZM199.86,189c-1.48,0-1.8.28-2.36,1.45-1,2.11-2.29,6.38-2.93,14.54l-5.43,62.47c-.58,6.09-.88,11.36-.88,15.89,0,10.21,1.64,15.58,3,18.31.53,1,1.66,3.26,7.32,3.26,5.12,0,7.46-1.93,8.77-3.36,2.22-2.49,3.33-6.18,3.33-11.26q0-6.83-1.13-24.67l-4.29-60.66c-.63-8.14-2-12.39-3-14.52C201.81,189.31,201.5,189,199.86,189Zm-.51-22c-6.87,0-13.12-2.77-18.6-8.23s-8.24-11.76-8.24-18.59c0-10.38,4.53-16.51,8.32-19.83,10.44-9.1,27-9.22,37.4.08,5.39,4.88,8.2,11.69,8.2,19.75a25.66,25.66,0,0,1-8.06,19A26.59,26.59,0,0,1,199.35,167Zm.24-37.79a12,12,0,0,0-8.38,3c-1.27,1.11-3,3.14-3,8,0,1.62.36,4.18,3.65,7.46s5.8,3.61,7.44,3.61a10.78,10.78,0,0,0,8-3.3,10.14,10.14,0,0,0,3.35-7.77c0-4.78-1.71-6.87-3-8A11.48,11.48,0,0,0,199.59,129.16Z"/></svg>