<svg id="Capa_1" data-name="Capa 1" xmlns="http://www.w3.org/2000/svg" viewBox="0 0 400 400"><defs><style>.cls-1{fill:#cccccc;}</style></defs><path class="cls-1" d="M244.12,265.61a132.33,132.33,0,0,1-102-216.41C188.53-7.14,272.09-15.28,328.43,31.08S392.9,161,346.55,217.34h0A131.54,131.54,0,0,1,257.16,265C252.79,265.41,248.45,265.61,244.12,265.61ZM244.46,22a111.28,111.28,0,1,0,70.63,25.3A111.21,111.21,0,0,0,244.46,22Z"/><path class="cls-1" d="M244.27,226.56a93.29,93.29,0,1,1,72.17-34h0A93.22,93.22,0,0,1,244.27,226.56ZM244.42,61a72.32,72.32,0,1,0,45.9,16.44A72.24,72.24,0,0,0,244.42,61Z"/><path class="cls-1" d="M60,399.79a41.9,41.9,0,0,1-26.23-9.25h0A42,42,0,0,1,27.67,331l91-109.56,66.65,54.83L91.79,385.11A41.85,41.85,0,0,1,60,399.79ZM46.86,374.14a20.86,20.86,0,0,0,29-2.7l79.52-92.61-33.95-27.94-77.6,93.49a21,21,0,0,0,3,29.76Z"/><rect class="cls-1" x="110.37" y="252.62" width="20.97" height="61.69" transform="translate(-174.84 196.73) rotate(-50.56)"/><rect class="cls-1" x="125.17" y="221.81" width="35.35" height="20.99" transform="translate(-127.33 195.18) rotate(-50.59)"/><rect class="cls-1" x="153.48" y="245.15" width="35.17" height="20.99" transform="translate(-135.05 225.5) rotate(-50.59)"/></svg>