<svg id="Capa_1" data-name="Capa 1" xmlns="http://www.w3.org/2000/svg" viewBox="0 0 400 400"><defs><style>.cls-1{fill:#006dd9;}</style></defs><rect class="cls-1" x="10.53" y="104.58" width="378.95" height="21.05"/><path class="cls-1" d="M288.2,398H46.05A46.1,46.1,0,0,1,0,352V91.42A46.1,46.1,0,0,1,46.05,45.37H354A46.1,46.1,0,0,1,400,91.42V286.2A111.92,111.92,0,0,1,288.2,398ZM46.05,66.42a25,25,0,0,0-25,25V352a25,25,0,0,0,25,25H288.2A90.85,90.85,0,0,0,379,286.2V91.42a25,25,0,0,0-25-25Z"/><path class="cls-1" d="M100.14,82.46A39.94,39.94,0,0,1,85,10.23,39.67,39.67,0,0,1,115,4,40.49,40.49,0,0,1,140.52,20a38.16,38.16,0,0,1,6.57,29.69l-20.68-3.91a17.33,17.33,0,0,0-3-13.47,19.62,19.62,0,0,0-12.4-7.68,18.88,18.88,0,1,0-7,37.1Z"/><path class="cls-1" d="M197.33,82.46a39.94,39.94,0,0,1-15.12-72.23A39.66,39.66,0,0,1,212.13,4,40.54,40.54,0,0,1,237.71,20a38.11,38.11,0,0,1,6.56,29.69l-20.68-3.91a17.25,17.25,0,0,0-3-13.47,19.62,19.62,0,0,0-12.4-7.68,18.88,18.88,0,1,0-7,37.1Z"/><path class="cls-1" d="M294.51,82.46a39.94,39.94,0,0,1-15.12-72.23A39.64,39.64,0,0,1,309.31,4,40.52,40.52,0,0,1,334.89,20a38.16,38.16,0,0,1,6.57,29.69l-20.68-3.91a17.29,17.29,0,0,0-3-13.47,19.58,19.58,0,0,0-12.39-7.68,18.88,18.88,0,1,0-7,37.1Z"/><path class="cls-1" d="M299,383.88c-1.57-11.87-8.5-72,9.47-91.78a22.46,22.46,0,0,1,17.34-7.42c41.11,1.64,57.76-7.92,57.94-8L395,294.48c-2.09,1.34-22,12.81-70,11.25-8.54,8.86-9,45.87-5.13,75.39Z"/><rect class="cls-1" x="109.55" y="309.84" width="169.97" height="21.05"/><path class="cls-1" d="M282.81,268.21H105.53V167.39H282.81Zm-156.23-21H261.76V188.44H126.58Z"/></svg>