<svg id="Capa_1" data-name="Capa 1" xmlns="http://www.w3.org/2000/svg" viewBox="0 0 400 400"><defs><style>.cls-1{fill:#006dd9;}</style></defs><path class="cls-1" d="M306.83,318.31H159.08a15.2,15.2,0,0,1-11.21-25.45l36-39.24a15.35,15.35,0,0,1,11.2-4.91h84.6V175.12h-48l72.78-82.5c5.8-6.52,17-6.54,22.76,0L400,175.12H352v97.33C352,297.73,331.74,318.31,306.83,318.31Zm-137.3-19.79h137.3c14,0,25.38-11.69,25.38-26.07V170.5a15.2,15.2,0,0,1,15.18-15.17h8.76l-40.34-45.71-40.32,45.71h8.75a15.2,15.2,0,0,1,15.19,15.17v82.81a15.21,15.21,0,0,1-15.19,15.19H197.05ZM84.78,315.58a15.21,15.21,0,0,1-11.4-5.14L-.09,227.26h48v-92A50.53,50.53,0,0,1,98.39,84.77H241.54a15.19,15.19,0,0,1,11.18,25.47l-35.94,39.21a15.34,15.34,0,0,1-11.2,4.93H121v72.88h47.85L96.21,310.38a15.19,15.19,0,0,1-11.38,5.2Zm-41-68.53,41,46.37,40.51-46.37h-8.9a15.19,15.19,0,0,1-15.18-15.17V149.76a15.2,15.2,0,0,1,15.18-15.17h87.18l27.53-30H98.39a30.71,30.71,0,0,0-30.67,30.69v96.63a15.19,15.19,0,0,1-15.19,15.17Z"/></svg>