<svg id="Capa_1" data-name="Capa 1" xmlns="http://www.w3.org/2000/svg" viewBox="0 0 400 400"><defs><style>.cls-1{fill:#006dd9;}</style></defs><path class="cls-1" d="M335.64,400a19.7,19.7,0,0,1-8.45-1.92l-98.25-46.9A222.21,222.21,0,0,1,200.36,353C91.13,353,2.26,273.86,2.26,176.55S91.13.14,200.36.14,398.47,79.27,398.47,176.55c0,41.44-16.26,81.38-45.91,113l2.71,90.21A19.64,19.64,0,0,1,335.64,400Zm-102.9-73.58,98.34,46.92-2.79-93.23,3.6-3.65c27.48-27.71,42.59-63.18,42.59-99.91,0-84.05-78.1-152.43-174.12-152.43S26.25,92.5,26.25,176.55,104.35,329,200.36,329a198.74,198.74,0,0,0,28.77-2.08Z"/></svg>