<svg id="Capa_1" data-name="Capa 1" xmlns="http://www.w3.org/2000/svg" viewBox="0 0 400 400"><defs><style>.cls-1{fill:#ffffff;}</style></defs><path class="cls-1" d="M166.25,298.1a11.39,11.39,0,0,1-8.53-3.84L96.51,224.87a11.38,11.38,0,0,1,17.06-15.07l49.17,55.75c15.37-34.75,55.32-114.69,119.73-172.68a11.39,11.39,0,1,1,15.24,16.93c-78.54,70.68-120.4,179.86-120.82,181a11.37,11.37,0,0,1-8.6,7.17A12.68,12.68,0,0,1,166.25,298.1Z"/><path class="cls-1" d="M200,400C89.72,400,0,310.28,0,200S89.72,0,200,0,400,89.72,400,200,310.28,400,200,400Zm0-375.68c-96.87,0-175.67,78.8-175.67,175.67S103.12,375.68,200,375.68,375.68,296.86,375.68,200,296.86,24.32,200,24.32Z"/></svg>