<svg id="Capa_1" data-name="Capa 1" xmlns="http://www.w3.org/2000/svg" viewBox="0 0 400 400"><defs><style>.cls-1{fill:#006dd9;}</style></defs><path class="cls-1" d="M286.38,334.91H113.61a17.54,17.54,0,0,1-13.28-29l82.21-94.84c9-10.34,26-10.32,34.92,0v0l82.18,94.82a17.54,17.54,0,0,1-13.26,29ZM118.26,321.35l0,0Zm8.64-10.09H273l-73.41-84.7-.09-.09Z"/><path class="cls-1" d="M200,197.2a23.22,23.22,0,0,1-17.46-8.1L100.36,94.26a17.54,17.54,0,0,1,13.25-29H286.38a17.54,17.54,0,0,1,13.28,29l-82.2,94.83v0A23.24,23.24,0,0,1,200,197.2Zm8.52-15.86h0ZM127,88.9l73,84.21L273,88.9Z"/><path class="cls-1" d="M200,400.07c-110.29,0-200-89.71-200-200S89.71.09,200,.09s200,89.71,200,200S310.29,400.07,200,400.07Zm0-376.33c-97.24,0-176.35,79.11-176.35,176.35S102.76,376.41,200,376.41s176.34-79.1,176.34-176.32S297.24,23.74,200,23.74Z"/></svg>