<svg id="Capa_1" data-name="Capa 1" xmlns="http://www.w3.org/2000/svg" viewBox="0 0 400 400"><defs><style>.cls-1{fill:#006dd9;}</style></defs><path class="cls-1" d="M344.76,99.26h-290A10.53,10.53,0,0,1,44.25,88.72V60.17c0-19.06,17.15-34.58,38.23-34.58H317.07c21.08,0,38.23,15.52,38.23,34.58V88.72A10.53,10.53,0,0,1,344.76,99.26ZM65.33,78.18H334.22v-18c0-7.45-7.7-13.5-17.15-13.5H82.48c-9.45,0-17.15,6-17.15,13.5Z"/><path class="cls-1" d="M254.49,46.3H145.08a10.53,10.53,0,0,1-10.54-10.54v-10C134.54,11.55,145.82,0,159.69,0h80.18C253.75,0,265,11.55,265,25.73v10A10.53,10.53,0,0,1,254.49,46.3ZM155.64,25.22h88.29a4.33,4.33,0,0,0-4.06-4.14H159.69A4.31,4.31,0,0,0,155.64,25.22Z"/><path class="cls-1" d="M306,399.79H93.55A34.82,34.82,0,0,1,58.78,365V88.76A10.54,10.54,0,0,1,69.32,78.22H330.24a10.53,10.53,0,0,1,10.54,10.54V365A34.82,34.82,0,0,1,306,399.79ZM79.86,99.3V365a13.71,13.71,0,0,0,13.69,13.71H306A13.73,13.73,0,0,0,319.7,365V99.3Z"/><path class="cls-1" d="M137.5,331.51a7.91,7.91,0,0,1-7.9-7.91V149.37a7.91,7.91,0,1,1,15.81,0V323.6A7.91,7.91,0,0,1,137.5,331.51Z"/><path class="cls-1" d="M201.46,331.51a7.91,7.91,0,0,1-7.9-7.91V149.37a7.91,7.91,0,1,1,15.81,0V323.6A7.91,7.91,0,0,1,201.46,331.51Z"/><path class="cls-1" d="M265.44,331.51a7.91,7.91,0,0,1-7.9-7.91V149.37a7.91,7.91,0,1,1,15.81,0V323.6A7.91,7.91,0,0,1,265.44,331.51Z"/></svg>