<svg id="Capa_1" data-name="Capa 1" xmlns="http://www.w3.org/2000/svg" viewBox="0 0 400 400"><defs><style>.cls-1{fill:#006dd9;}</style></defs><path class="cls-1" d="M219.7,252.68H194.39a10.51,10.51,0,1,1,0-21H219.7c4.64,0,8.56-5.52,8.56-12.07V98.88c0-6.55-3.92-12.07-8.56-12.07H29.58c-4.64,0-8.56,5.52-8.56,12.07V219.59c0,6.55,3.92,12.07,8.56,12.07H129a10.51,10.51,0,1,1,0,21H29.58C13.26,252.68,0,237.84,0,219.59V98.88C0,80.63,13.26,65.79,29.58,65.79H219.7c16.32,0,29.58,14.84,29.58,33.09V219.59C249.28,237.84,236,252.68,219.7,252.68Z"/><path class="cls-1" d="M370.42,343.6H180.3c-16.32,0-29.58-14.86-29.58-33.11V189.8c0-18.25,13.26-33.11,29.58-33.11h19.55a10.51,10.51,0,1,1,0,21H180.3c-4.64,0-8.56,5.55-8.56,12.09V310.49c0,6.55,3.92,12.09,8.56,12.09H370.42c4.64,0,8.56-5.54,8.56-12.09V189.8c0-6.54-3.92-12.09-8.56-12.09H275.37a10.51,10.51,0,1,1,0-21h95.05c16.32,0,29.58,14.86,29.58,33.11V310.49C400,328.74,386.74,343.6,370.42,343.6Z"/></svg>