<?xml version="1.0" encoding="UTF-8" standalone="no"?>
<svg
   xmlns:dc="http://purl.org/dc/elements/1.1/"
   xmlns:cc="http://creativecommons.org/ns#"
   xmlns:rdf="http://www.w3.org/1999/02/22-rdf-syntax-ns#"
   xmlns:svg="http://www.w3.org/2000/svg"
   xmlns="http://www.w3.org/2000/svg"
   xmlns:sodipodi="http://sodipodi.sourceforge.net/DTD/sodipodi-0.dtd"
   xmlns:inkscape="http://www.inkscape.org/namespaces/inkscape"
   inkscape:version="1.0 (4035a4fb49, 2020-05-01)"
   sodipodi:docname="estados.svg"
   xml:space="preserve"
   style="enable-background:new 0 0 30 30;"
   viewBox="0 0 30 30"
   y="0px"
   x="0px"
   id="Capa_1"
   version="1.1"><metadata
   id="metadata27"><rdf:RDF><cc:Work
       rdf:about=""><dc:format>image/svg+xml</dc:format><dc:type
         rdf:resource="http://purl.org/dc/dcmitype/StillImage" /><dc:title></dc:title></cc:Work></rdf:RDF></metadata><defs
   id="defs25" /><sodipodi:namedview
   inkscape:current-layer="Capa_1"
   inkscape:window-maximized="1"
   inkscape:window-y="-7"
   inkscape:window-x="-8"
   inkscape:cy="20.739379"
   inkscape:cx="-3.7705881"
   inkscape:zoom="10.017346"
   showgrid="false"
   id="namedview23"
   inkscape:window-height="1017"
   inkscape:window-width="1920"
   inkscape:pageshadow="2"
   inkscape:pageopacity="0"
   guidetolerance="10"
   gridtolerance="10"
   objecttolerance="10"
   borderopacity="1"
   bordercolor="#666666"
   pagecolor="#79ffe9" />
<style
   id="style2"
   type="text/css">
	.st0{fill:#FFFFFF;}
</style>
<path
   style="stroke-width:1.40599"
   id="path4"
   d="m 9.158457,24.019857 c -4.9209802,0 -8.85776436,-3.936784 -8.85776436,-8.857764 0,-4.92098 3.93678416,-8.857764 8.85776436,-8.857764 4.920979,0 8.857763,3.936784 8.857763,8.857764 0,4.92098 -3.936784,8.857764 -8.857763,8.857764 z m 0,-16.8719314 c -4.4991819,0 -8.1547672,3.6555864 -8.1547672,8.1547674 0,4.499181 3.6555853,8.154767 8.1547672,8.154767 4.499182,0 8.154766,-3.655586 8.154766,-8.154767 0,-4.499181 -3.655584,-8.1547674 -8.154766,-8.1547674 z"
   class="st0" />
<path
   style="stroke-width:1.40599"
   id="path6"
   d="m 8.174261,18.39588 c -0.1405995,0 -0.1405995,0 -0.2811989,-0.140599 L 5.0810734,15.443292 c -0.1405994,-0.140599 -0.1405994,-0.281199 0,-0.421798 0.1405995,-0.1406 0.4217983,-0.1406 0.5623978,0 l 2.5307898,2.53079 4.499182,-5.342778 c 0.140599,-0.140599 0.281199,-0.140599 0.562397,0 0.1406,0.140599 0.1406,0.281198 0,0.562397 L 8.5960593,18.39588 c -0.1405995,0 -0.2811989,0 -0.4217983,0 0,0 0,0 0,0 z"
   class="st0" />
<path
   style="stroke-width:1.40599"
   id="path8"
   d="m 20.68761,24.019857 c -1.687194,0 -3.233787,-0.421798 -4.639782,-1.405994 -0.140599,-0.140599 -0.281199,-0.281199 -0.140599,-0.421798 0.140599,-0.1406 0.281199,-0.1406 0.421798,-0.1406 1.265395,0.843597 2.811989,1.265395 4.358583,1.265395 4.499182,0 8.154767,-3.655585 8.154767,-8.154767 0,-4.499181 -3.655585,-8.1547668 -8.154767,-8.1547668 -1.405995,0 -2.811989,0.4217983 -4.077384,1.1247954 -0.140599,0.1405995 -0.421798,0 -0.421798,-0.1405994 -0.1406,-0.1405994 0,-0.4217983 0.140599,-0.4217983 1.405995,-0.8435966 2.952588,-1.2653949 4.499182,-1.2653949 4.92098,0 8.857764,3.936784 8.857764,8.857764 -0.140599,4.92098 -4.077383,8.857764 -8.998363,8.857764 z"
   class="st0" />


<path
   style="stroke-width:1.40599"
   id="path18"
   d="m 19.562814,18.114681 c -0.140599,0 -0.281199,-0.140599 -0.281199,-0.281199 v -4.78038 c 0,-0.140599 0.1406,-0.281199 0.281199,-0.281199 0.1406,0 0.281199,0.1406 0.281199,0.281199 v 4.78038 c 0,0.1406 -0.140599,0.281199 -0.281199,0.281199 z"
   class="st0" />
<path
   style="stroke-width:1.40599"
   id="path20"
   d="m 22.656002,18.114681 c -0.1406,0 -0.281199,-0.140599 -0.281199,-0.281199 v -4.78038 c 0,-0.140599 0.140599,-0.281199 0.281199,-0.281199 0.140599,0 0.281199,0.1406 0.281199,0.281199 v 4.78038 c 0,0.1406 -0.1406,0.281199 -0.281199,0.281199 z"
   class="st0" />
</svg>
