<svg id="Capa_1" data-name="Capa 1" xmlns="http://www.w3.org/2000/svg" viewBox="0 0 400 400"><defs><style>.cls-1{fill:#006dd9;}</style></defs><path class="cls-1" d="M199.93,271.89a76.12,76.12,0,1,1,58.89-27.73h0A76.05,76.05,0,0,1,199.93,271.89Zm.19-139.61c-2.08,0-4.17.11-6.26.31A63.47,63.47,0,1,0,249,236.09h0a63.49,63.49,0,0,0-48.9-103.81Zm53.8,107.85h0Z"/><path class="cls-1" d="M165.75,221a4.79,4.79,0,0,1-4.1-2.32A44.52,44.52,0,0,1,160,176a4.76,4.76,0,1,1,8.54,4.22,35.47,35.47,0,0,0,1.34,33.54,4.78,4.78,0,0,1-1.65,6.54A4.73,4.73,0,0,1,165.75,221Z"/><path class="cls-1" d="M198.49,240.43a44.53,44.53,0,0,1-22.18-5.92,4.77,4.77,0,1,1,4.74-8.27,35,35,0,0,0,36-.67,4.77,4.77,0,1,1,5,8.09A44.51,44.51,0,0,1,198.49,240.43Z"/><path class="cls-1" d="M234.62,221.5a4.76,4.76,0,0,1-4.13-7.13,35.16,35.16,0,0,0-.28-35.35,4.76,4.76,0,1,1,8.18-4.87,44.66,44.66,0,0,1,.36,45A4.74,4.74,0,0,1,234.62,221.5Z"/><path class="cls-1" d="M220.27,166.18a4.82,4.82,0,0,1-2.44-.66,35.24,35.24,0,0,0-34.74-.55,4.76,4.76,0,0,1-4.59-8.34,44.77,44.77,0,0,1,44.2.68,4.77,4.77,0,0,1-2.43,8.87Z"/><path class="cls-1" d="M94.34,348.83a24.37,24.37,0,0,1-15.25-5.37h0a24.39,24.39,0,0,1-3.52-34.62l48.29-58.18a6.33,6.33,0,0,1,8.92-.84l28.82,23.72a6.34,6.34,0,0,1,.78,9l-49.56,57.72A24.31,24.31,0,0,1,94.34,348.83ZM87,333.53A11.59,11.59,0,0,0,103.19,332l45.33-52.8-18.93-15.58L85.34,317A11.67,11.67,0,0,0,87,333.53Z"/><path class="cls-1" d="M142.88,296.25a3.2,3.2,0,0,1-2-.72l-27.31-22.47a3.18,3.18,0,0,1,4-4.92l27.31,22.47a3.18,3.18,0,0,1-2,5.64Z"/><path class="cls-1" d="M135.38,263.5a3.17,3.17,0,0,1-2.45-5.2l12.88-15.63a3.18,3.18,0,1,1,4.91,4.05l-12.88,15.63A3.18,3.18,0,0,1,135.38,263.5Z"/><path class="cls-1" d="M151.6,276.84a3.17,3.17,0,0,1-2.45-5.2L162,256.08a3.18,3.18,0,1,1,4.91,4.05l-12.8,15.56A3.21,3.21,0,0,1,151.6,276.84Z"/><path class="cls-1" d="M162.62,235.82a4.66,4.66,0,0,1-3.46-1.5,4.73,4.73,0,0,1,.2-6.72l73-68.79a4.76,4.76,0,1,1,6.53,6.92l-73,68.79A4.69,4.69,0,0,1,162.62,235.82Z"/><path class="cls-1" d="M235.48,236a4.76,4.76,0,0,1-3.29-1.31l-72.71-69.09a4.77,4.77,0,0,1,6.58-6.9l72.71,69.09a4.76,4.76,0,0,1-3.29,8.21Z"/><path class="cls-1" d="M360.24,377.4H39.68C26,377.4,13.47,369.76,6.21,357a47.43,47.43,0,0,1,.38-47.59L166.88,39.73C174.22,27.37,186.59,20,200,20s25.73,7.37,33.08,19.73L393.33,309.41a47.4,47.4,0,0,1,.39,47.59C386.46,369.76,373.94,377.4,360.24,377.4ZM200,32.71c-9,0-17.06,4.92-22.18,13.52h0L17.51,315.91a34.66,34.66,0,0,0-.27,34.8c5.06,8.88,13.24,14,22.44,14H360.24c9.21,0,17.38-5.1,22.45-14a34.69,34.69,0,0,0-.28-34.8L222.13,46.23C217,37.63,208.94,32.71,200,32.71ZM172.34,43h0Z"/></svg>