<?xml version="1.0" encoding="utf-8"?>
<!-- Generator: Adobe Illustrator 24.0.0, SVG Export Plug-In . SVG Version: 6.00 Build 0)  -->
<svg version="1.1" id="Capa_1" xmlns="http://www.w3.org/2000/svg" xmlns:xlink="http://www.w3.org/1999/xlink" x="0px" y="0px"
	 viewBox="0 0 30 30" style="enable-background:new 0 0 30 30;" xml:space="preserve">
<style type="text/css">
	.st0{fill:#006dd9;}
</style>
<path class="st0" d="M14.99,29.54c-7.97,0-14.45-6.48-14.45-14.45c0-7.97,6.48-14.45,14.45-14.45s14.45,6.48,14.45,14.45
	C29.44,23.05,22.96,29.54,14.99,29.54z M14.99,1.79c-7.33,0-13.3,5.96-13.3,13.3c0,7.33,5.96,13.3,13.3,13.3s13.3-5.96,13.3-13.3
	C28.29,7.76,22.33,1.79,14.99,1.79z"/>
<path class="st0" d="M13.45,20.29c-0.15,0-0.3-0.06-0.41-0.17l-4.62-4.62c-0.22-0.22-0.22-0.59,0-0.81c0.22-0.22,0.59-0.22,0.81,0
	l4.18,4.18l7.3-8.76c0.2-0.24,0.57-0.28,0.81-0.07c0.24,0.2,0.28,0.57,0.07,0.81l-7.71,9.25c-0.1,0.12-0.25,0.2-0.42,0.21
	C13.47,20.29,13.46,20.29,13.45,20.29z"/>
</svg>
