<svg id="Capa_1" data-name="Capa 1" xmlns="http://www.w3.org/2000/svg" viewBox="0 0 400 400"><defs><style>.cls-1{fill:#006dd9;}</style></defs><path class="cls-1" d="M200.61,311.13h0a11.44,11.44,0,0,1-11.41-11.47l.45-199.75A11.42,11.42,0,0,1,201.06,88.5h0A11.45,11.45,0,0,1,212.5,100l-.45,199.75A11.41,11.41,0,0,1,200.61,311.13Z"/><path class="cls-1" d="M200,400C89.72,400,0,310.28,0,200S89.72,0,200,0,400,89.72,400,200,310.28,400,200,400Zm0-375.68c-96.87,0-175.67,78.8-175.67,175.67S103.12,375.68,200,375.68,375.68,296.86,375.68,200,296.86,24.32,200,24.32Z"/><path class="cls-1" d="M301.54,212h0l-196.33-.4a12.17,12.17,0,0,1,0-24.33h0l196.33.41a12.16,12.16,0,0,1,0,24.32Z"/></svg>