<svg id="Capa_1" data-name="Capa 1" xmlns="http://www.w3.org/2000/svg" viewBox="0 0 400 400"><defs><style>.cls-1{fill:#FFFFFF;}</style></defs><path class="cls-1" d="M44.15,367.37a42.39,42.39,0,0,1-32-13.88C4.07,344.63,0,332.21,0,316.55V90.14c0-15.68,4-28,12-36.78,16.46-18.17,48-18,64.56-.24,8.14,8.77,12.27,21.22,12.27,37V316.55c0,15.84-4.1,28.29-12.21,37.05C68.39,362.61,57.13,367.37,44.15,367.37Zm0-297.19c-5.3,0-7.76,1.91-9.46,3.8-2.67,2.9-4,8.5-4,16.16V316.55c0,7.66,1.43,13.29,4.13,16.25,2.48,2.76,5.29,3.93,9.37,3.93,5.65,0,8.2-2,10-3.87,2.7-2.93,4.1-8.56,4.1-16.31V90.14c0-7.6-1.43-13.35-4-16.16C52.53,72.24,49.86,70.18,44.15,70.18Z"/><path class="cls-1" d="M251.76,362.46H175.89c-13.56,0-24-2.27-31.81-7A37.81,37.81,0,0,1,126.72,333c-2-7.21-3-16-3-26.84V95.44c0-16.7,4.34-29.51,12.93-38.1S158,44.44,174.7,44.44h75.86c20.93,0,39.33,2,54.63,6a109.44,109.44,0,0,1,44.68,23.88C383.09,102.74,400,146,400,202.67A245.21,245.21,0,0,1,395.15,253a156.36,156.36,0,0,1-15.47,42.74,135.85,135.85,0,0,1-27.18,34.63,115.09,115.09,0,0,1-29.33,19.3,130.09,130.09,0,0,1-33.4,10A238.35,238.35,0,0,1,251.76,362.46ZM174.7,75.09c-7.94,0-13.92,1.43-16.44,4s-3.92,8.47-3.92,16.4V306.17c0,9.81,1,15.47,1.89,18.46a7.17,7.17,0,0,0,3.59,4.58c1.32.78,5.51,2.61,16.07,2.61h75.87a208.69,208.69,0,0,0,33.1-2.34,99.77,99.77,0,0,0,25.56-7.63,84.64,84.64,0,0,0,21.46-14.13,103.48,103.48,0,0,0,20.92-26.66,125.4,125.4,0,0,0,12.36-34.33,214.86,214.86,0,0,0,4.19-44.06c0-48-12.93-82.42-39.53-105.2a78.86,78.86,0,0,0-32.3-17.39c-12.81-3.32-28.61-5-47-5Zm66.65,241.1H181.94V90.5h53.72c19.27,0,36.09,2.18,50,6.46,16.19,5,29.75,16.32,40.26,33.67C336,147.3,341,170.74,341,202.28c0,44.78-11.64,77.34-34.66,96.76a60.82,60.82,0,0,1-20.05,11.56,84.61,84.61,0,0,1-20.77,4.76C259.75,315.92,251.64,316.19,241.35,316.19Zm-28.76-30.64h28.76c9,0,16.13-.21,21.25-.72a54.67,54.67,0,0,0,13.4-3.08,31,31,0,0,0,10.3-5.9c16-13.53,24-38.22,24-73.57,0-25.41-3.56-44.17-10.62-55.75-6.59-10.9-14.13-17.54-23.08-20.3-11-3.38-24.75-5.08-41-5.08H212.59Z"/></svg>