<svg id="Capa_1" data-name="Capa 1" xmlns="http://www.w3.org/2000/svg" viewBox="0 0 400 400"><defs><style>.cls-1{fill:#006dd9;}</style></defs><path class="cls-1" d="M97.77,180.23a17.69,17.69,0,1,1,17.69,17.69,17.68,17.68,0,0,1-17.69-17.69"/><path class="cls-1" d="M140.62,219.86a17.67,17.67,0,1,1,17.69,17.68,17.7,17.7,0,0,1-17.69-17.68"/><path class="cls-1" d="M182.4,260.57a17.67,17.67,0,1,1,17.69,17.68,17.69,17.69,0,0,1-17.69-17.68"/><path class="cls-1" d="M225.23,219.86a17.69,17.69,0,1,1,17.69,17.68,17.7,17.7,0,0,1-17.69-17.68"/><path class="cls-1" d="M267,180.23a17.69,17.69,0,1,1,17.68,17.69A17.68,17.68,0,0,1,267,180.23"/><path class="cls-1" d="M200.27,399.87C90.14,399.87.54,310.27.54,200.14S90.14.38,200.27.38,400,90,400,200.14,310.4,399.87,200.27,399.87Zm0-372.26C105.16,27.61,27.76,105,27.76,200.14s77.4,172.5,172.51,172.5,172.5-77.4,172.5-172.5S295.37,27.61,200.27,27.61Z"/></svg>