<svg id="Capa_1" data-name="Capa 1" xmlns="http://www.w3.org/2000/svg" viewBox="0 0 400 400"><defs><style>.cls-1{fill:#FFFFFF;}</style></defs><path class="cls-1" d="M361.08,297.47H38.92A39,39,0,0,1,0,258.54V131.87A39,39,0,0,1,38.92,92.94H361.08A39,39,0,0,1,400,131.87V258.54A39,39,0,0,1,361.08,297.47ZM38.92,112.09a19.81,19.81,0,0,0-19.78,19.78V258.54a19.81,19.81,0,0,0,19.78,19.78H361.08a19.81,19.81,0,0,0,19.78-19.78V131.87a19.81,19.81,0,0,0-19.78-19.78Z"/><path class="cls-1" d="M311.07,244.67a12.52,12.52,0,0,1-10-5L255.51,178.4a12.45,12.45,0,0,1,10-19.89h91.12a12.45,12.45,0,0,1,10,19.89l-45.54,61.24a0,0,0,0,1,0,0A12.51,12.51,0,0,1,311.07,244.67Zm2.32-10.73h0Zm-34.57-56.29L311.07,221l32.23-43.37Z"/></svg>