<svg id="Capa_1" data-name="Capa 1" xmlns="http://www.w3.org/2000/svg" viewBox="0 0 400 400"><defs><style>.cls-1{fill:#006dd9;}</style></defs><path class="cls-1" d="M13.46,348.33a6.65,6.65,0,0,1-6.52-7.89l13.48-70.36a6.55,6.55,0,0,1,1.19-2.71L188.31,43.68a6.64,6.64,0,0,1,9.34-1.34l54.66,41.51a6.65,6.65,0,0,1,1.28,9.31L149.3,231a6.65,6.65,0,0,1-10.59-8L239,90.42,195,57,33.19,274.08l-10.8,56.27,53.34-24.1,25.49-33.69a6.65,6.65,0,0,1,10.59,8l-26.51,35a6.41,6.41,0,0,1-2.56,2.05L16.19,347.74A6.48,6.48,0,0,1,13.46,348.33Z"/><path class="cls-1" d="M221.19,132.34a6.53,6.53,0,0,1-4-1.35L164.11,90.68a6.65,6.65,0,0,1,8-10.59l53.07,40.31a6.65,6.65,0,0,1-4,11.94Z"/><path class="cls-1" d="M87.88,307.9a6.58,6.58,0,0,1-4-1.35L30.8,266.26a6.65,6.65,0,0,1,8-10.59L91.89,296a6.65,6.65,0,0,1-4,11.94Z"/><path class="cls-1" d="M23.9,274.29c-3.85,0-8.57-.43-12.4-2.13C2.73,268.25.45,256.32.08,254a6.61,6.61,0,0,1,1-4.71S74.73,138.86,79.5,131.51c7.2-11.06,45.66-18.23,50-19l9.19-1.65a6.59,6.59,0,0,1,7.72,5.37,6.67,6.67,0,0,1-5.37,7.72l-9.19,1.64c-16.16,2.89-38.18,9.43-41.27,13.24-4.31,6.65-66.12,99.32-76.85,115.44.82,2.75,2.17,5.31,3.14,5.74,2.82,1.25,8.79,1.14,12.15.66A6.64,6.64,0,0,1,31,273.82,51.69,51.69,0,0,1,23.9,274.29Z"/><path class="cls-1" d="M266.55,310.46c-24.68,0-49.18-15.37-62.35-23.64a61.52,61.52,0,0,0-6.48-3.86l-93.61.26c-21.79,0-34.8-12.05-34.8-32.24,0-21.07,23.17-30.6,30.2-30.6H178c2.18-.57,7.87-1.92,22.26-4.81,18.36-3.65,39.47-15.54,39.7-15.67a6.65,6.65,0,0,1,6.54,11.57c-.94.53-23.16,13-43.65,17.15-17.53,3.49-21.42,4.58-22,4.74a7,7,0,0,1-2,.31H99.51C98,233.81,82.6,238.81,82.6,251c0,12.75,7,19,21.51,19h95.24c2.93,0,5.38,1.54,11.91,5.64,12,7.55,34.44,21.6,55.29,21.6,28.63,0,61.81-19.54,62.15-19.73l4.92-3.05a6.65,6.65,0,0,1,7,11.32l-5,3.1C334,289.74,298.86,310.46,266.55,310.46Z"/><path class="cls-1" d="M333.84,185.42a6.9,6.9,0,0,1-2.82-.62L212.87,129.35a6.65,6.65,0,0,1-3.2-8.85,6.74,6.74,0,0,1,8.84-3.2l118.15,55.45a6.65,6.65,0,0,1-2.82,12.67Z"/><path class="cls-1" d="M385.52,344.92h-41a14,14,0,0,1-14-14V164.18a14.05,14.05,0,0,1,14-14h41a14,14,0,0,1,14,14V330.9A14,14,0,0,1,385.52,344.92Zm-41-181.48-.74,167.46,41.76.73a.74.74,0,0,0,.74-.73V164.18Z"/><path class="cls-1" d="M126.37,328.51c-20,0-28.9-21.11-28.9-29.14V284.12a6.65,6.65,0,1,1,13.29,0v15.25c.08,1.57,4,15.85,15.61,15.85,12,0,16.8-10.3,17.06-11.77V284.12a6.65,6.65,0,1,1,13.29,0v19.69C156.71,311.2,146.39,328.51,126.37,328.51Z"/><path class="cls-1" d="M172.32,328.51c-20,0-28.9-21.11-28.9-29.14V284.12a6.65,6.65,0,1,1,13.29,0v15.25c.08,1.57,4,15.85,15.61,15.85,12,0,16.79-10.3,17-11.77V284.12a6.65,6.65,0,1,1,13.29,0v19.69C202.64,311.2,192.32,328.51,172.32,328.51Z"/></svg>