<svg id="Capa_1" data-name="Capa 1" xmlns="http://www.w3.org/2000/svg" viewBox="0 0 400 400"><defs><style>.cls-1{fill:#FFFFFF;}</style></defs><path class="cls-1" d="M262.88,274.32a11.69,11.69,0,0,1-8.32-3.46L129.43,145.18a11.74,11.74,0,1,1,16.63-16.57L271.19,254.29a11.75,11.75,0,0,1-8.31,20Z"/><path class="cls-1" d="M137.47,274A11.74,11.74,0,0,1,129.18,254L254.84,128.85a11.74,11.74,0,0,1,16.57,16.64L145.75,270.62A11.67,11.67,0,0,1,137.47,274Z"/><path class="cls-1" d="M200,400C89.72,400,0,310.28,0,200S89.72,0,200,0,400,89.72,400,200,310.28,400,200,400Zm0-375.68c-96.87,0-175.67,78.8-175.67,175.67S103.12,375.68,200,375.68,375.68,296.86,375.68,200,296.86,24.32,200,24.32Z"/></svg>