<svg id="Capa_1" data-name="Capa 1" xmlns="http://www.w3.org/2000/svg" viewBox="0 0 400 400"><defs><style>.cls-1{fill:#FFFFFF;}</style></defs><path class="cls-1" d="M200.12,210.19H10.49A10.28,10.28,0,0,1,.21,199.9V66.25A66.33,66.33,0,0,1,66.46,0H200.12A10.28,10.28,0,0,1,210.4,10.28V199.9A10.28,10.28,0,0,1,200.12,210.19ZM20.78,189.62H189.83V20.56H66.46A45.75,45.75,0,0,0,20.78,66.25Z"/><path class="cls-1" d="M389.72,210.19H200.12a10.28,10.28,0,0,1-10.29-10.29V10.28A10.28,10.28,0,0,1,200.12,0H333.77A66.31,66.31,0,0,1,400,66.25V199.9A10.28,10.28,0,0,1,389.72,210.19ZM210.4,189.62h169V66.25a45.74,45.74,0,0,0-45.67-45.69H210.4Z"/><path class="cls-1" d="M200.12,399.81H66.46A66.33,66.33,0,0,1,.21,333.56V199.9a10.28,10.28,0,0,1,10.28-10.28H200.12A10.28,10.28,0,0,1,210.4,199.9V389.53A10.28,10.28,0,0,1,200.12,399.81ZM20.78,210.19V333.56a45.74,45.74,0,0,0,45.68,45.68H189.83v-169Z"/><path class="cls-1" d="M333.77,399.81H200.12a10.28,10.28,0,0,1-10.29-10.28V199.9a10.28,10.28,0,0,1,10.29-10.28h189.6A10.28,10.28,0,0,1,400,199.9V333.56A66.31,66.31,0,0,1,333.77,399.81ZM210.4,379.24H333.77a45.73,45.73,0,0,0,45.67-45.68V210.19h-169Z"/><path class="cls-1" d="M108.84,143V90.81Q94.29,102,89.24,102A5.8,5.8,0,0,1,85,100.07a6.22,6.22,0,0,1-1.87-4.44,5,5,0,0,1,1.83-4.29,39.77,39.77,0,0,1,6.49-3.56,48.64,48.64,0,0,0,11.08-6.89,46.14,46.14,0,0,0,7.35-8.07c2.15-3,3.54-4.82,4.2-5.5s1.87-1,3.66-1a5.92,5.92,0,0,1,4.88,2.35,10.28,10.28,0,0,1,1.82,6.47v65.61q0,11.5-7.85,11.51a7.17,7.17,0,0,1-5.6-2.35C109.54,148.31,108.84,146,108.84,143Z"/><path class="cls-1" d="M281.53,137.29h29.9c3,0,5.27.6,6.83,1.82a6,6,0,0,1,2.35,5,6.61,6.61,0,0,1-1.87,4.76c-1.24,1.31-3.13,2-5.64,2H270.93a9.12,9.12,0,0,1-6.71-2.37,7.59,7.59,0,0,1-2.41-5.6,14.23,14.23,0,0,1,1.55-5.46,20.21,20.21,0,0,1,3.39-5.37q7.62-7.89,13.74-13.55a89.43,89.43,0,0,1,8.77-7.41,49.59,49.59,0,0,0,7.82-6.67,26.94,26.94,0,0,0,4.76-6.89,16.44,16.44,0,0,0,1.64-6.89A12.37,12.37,0,0,0,301.71,84a12,12,0,0,0-4.73-4.5,13.77,13.77,0,0,0-6.57-1.61,13.41,13.41,0,0,0-11.81,6.59,29.1,29.1,0,0,0-1.91,4.7,20,20,0,0,1-3,5.9,6.1,6.1,0,0,1-5,2.07,6.44,6.44,0,0,1-4.76-1.91,6.87,6.87,0,0,1-1.89-5.14,21.41,21.41,0,0,1,1.77-8.25,23.51,23.51,0,0,1,5.3-7.79,26.13,26.13,0,0,1,8.94-5.65,34.59,34.59,0,0,1,12.69-2.15,37,37,0,0,1,15,2.75,22.58,22.58,0,0,1,7.05,5,23.65,23.65,0,0,1,6.41,16.14,24.51,24.51,0,0,1-3.52,12.94,40.46,40.46,0,0,1-7.19,9.09q-3.68,3.31-12.29,10.35c-5.76,4.69-9.7,8.35-11.83,10.94A31.89,31.89,0,0,0,281.53,137.29Z"/><path class="cls-1" d="M107.88,279.71a14,14,0,0,0,9.07-3.09c2.53-2.07,3.8-5,3.8-8.88a10.59,10.59,0,0,0-3-7.59,10.79,10.79,0,0,0-8.2-3.19,14.69,14.69,0,0,0-5.74,1,9.36,9.36,0,0,0-3.6,2.57,20.1,20.1,0,0,0-2.49,4.14c-.78,1.67-1.5,3.25-2.15,4.76a4,4,0,0,1-2.06,1.89A8.06,8.06,0,0,1,90,272a5.89,5.89,0,0,1-4.2-1.87,6.58,6.58,0,0,1-1.92-5,13.13,13.13,0,0,1,1.8-6.26A23.16,23.16,0,0,1,91,252.62a26.69,26.69,0,0,1,8.63-4.8A35.28,35.28,0,0,1,111.13,246a32.41,32.41,0,0,1,10.14,1.51,24.06,24.06,0,0,1,8,4.38,19.2,19.2,0,0,1,5.1,6.65,19.4,19.4,0,0,1,1.71,8.13,18.47,18.47,0,0,1-2.49,9.84,33.64,33.64,0,0,1-7.13,8A31.86,31.86,0,0,1,134,290a20.85,20.85,0,0,1,4.62,6.84,21.06,21.06,0,0,1,1.55,8.1A25.32,25.32,0,0,1,138,315.06a26.11,26.11,0,0,1-6.17,8.7,29.3,29.3,0,0,1-9.66,5.94,33.68,33.68,0,0,1-12.35,2.15,29.76,29.76,0,0,1-12.31-2.45,28.42,28.42,0,0,1-9-6.17,28.82,28.82,0,0,1-5.33-7.65,16.64,16.64,0,0,1-1.8-6.53,7.1,7.1,0,0,1,2.15-5.36,7.56,7.56,0,0,1,5.36-2,5.6,5.6,0,0,1,3.09.95,4.34,4.34,0,0,1,2,2.27q3,8,6.38,11.83c2.27,2.57,5.49,3.85,9.6,3.85a14.36,14.36,0,0,0,6.85-1.75,14.19,14.19,0,0,0,5.44-5.18,14.7,14.7,0,0,0,2.15-7.95c0-4.48-1.22-8-3.67-10.52s-5.85-3.82-10.18-3.82c-.77,0-1.95.08-3.56.24s-2.65.22-3.09.22A7,7,0,0,1,99,290.24a5.67,5.67,0,0,1-1.71-4.4,5.47,5.47,0,0,1,2-4.44c1.39-1.12,3.41-1.69,6.15-1.69Z"/><path class="cls-1" d="M296.43,323.15V312.49H267.65c-3.61,0-6.34-.82-8.15-2.47a8.52,8.52,0,0,1-2.73-6.69,6.62,6.62,0,0,1,.4-2.21,12.86,12.86,0,0,1,1.21-2.35c.54-.82,1.08-1.62,1.66-2.39s1.29-1.68,2.13-2.79L292.54,253a43.47,43.47,0,0,1,4.9-5.82,6.42,6.42,0,0,1,4.6-1.81c5.8,0,8.71,3.34,8.71,10v44.35h2.47a17.5,17.5,0,0,1,7.07,1.2c1.77.8,2.67,2.55,2.67,5.26a5.46,5.46,0,0,1-2.19,4.84c-1.44,1-3.63,1.53-6.52,1.53h-3.5v10.66c0,2.93-.66,5.12-1.95,6.55a7.29,7.29,0,0,1-10.4-.06C297.08,328.17,296.43,326,296.43,323.15Zm-24.64-23.49h24.64v-33.3Z"/></svg>