<svg id="Capa_1" data-name="Capa 1" xmlns="http://www.w3.org/2000/svg" viewBox="0 0 400 400"><defs><style>.cls-1{fill:#FFFFFF;}</style></defs><path class="cls-1" d="M271.35,268.44H55a25.06,25.06,0,0,1-25-25V154.72a25.06,25.06,0,0,1,25-25H271.35a25.06,25.06,0,0,1,25,25v88.69A25.06,25.06,0,0,1,271.35,268.44ZM55,144a10.71,10.71,0,0,0-10.71,10.71v88.69A10.7,10.7,0,0,0,55,254.11H271.35A10.7,10.7,0,0,0,282,243.41V154.72A10.71,10.71,0,0,0,271.35,144Z"/><path class="cls-1" d="M152.13,183.36v.11a22.95,22.95,0,0,1-45.89,0v-.22a22.95,22.95,0,0,1,45.89,0Zm-11.19,0A11.76,11.76,0,1,0,129.18,195,11.78,11.78,0,0,0,140.94,183.36Zm-3.73,47.82,41.27-67.83a5.63,5.63,0,1,1,9.61,5.88l-41.27,67.84c-2.15,2.7-5.09,3.39-7.68,1.81A5.57,5.57,0,0,1,137.21,231.18Zm80.71-14.47v.13a22.95,22.95,0,0,1-45.89,0v-.25a22.95,22.95,0,0,1,45.89,0Zm-11.18,0A11.76,11.76,0,1,0,195,228.36,11.8,11.8,0,0,0,206.74,216.71Z"/><path class="cls-1" d="M360.17,301.2H38.83A38.87,38.87,0,0,1,0,262.38V136A38.87,38.87,0,0,1,38.83,97.19H360.17A38.87,38.87,0,0,1,399,136V262.38A38.87,38.87,0,0,1,360.17,301.2ZM38.83,116.28A19.76,19.76,0,0,0,19.1,136V262.38a19.76,19.76,0,0,0,19.73,19.73H360.17a19.76,19.76,0,0,0,19.73-19.73V136a19.76,19.76,0,0,0-19.73-19.73Z"/></svg>