<svg id="Capa_1" data-name="Capa 1" xmlns="http://www.w3.org/2000/svg" viewBox="0 0 400 400"><defs><style>.cls-1{fill:#006dd9;}</style></defs><path class="cls-1" d="M12.13,330.75A10.44,10.44,0,0,1,2.3,316.7S41,210.57,50.21,185c5.91-16.34,25.26-20.7,35.77-20.7l128.26-.53,44.94-32.74a11,11,0,0,1,6.44-2c.78,0,79,2.12,107.79,0,12.72-.78,19.12,4.19,22.33,8.63,8,10.86,2.54,25.95,1.37,28.85l-44.7,156.05a10.47,10.47,0,0,1-10,7.59Zm256.5-180.67-44.8,32.64a10.49,10.49,0,0,1-6.12,2L86,185.27c-4.28,0-14.3,1.82-16.1,6.85C62.79,211.92,38,280,27.1,309.79c57.75-.1,264.35-.45,307.36-.51l42.88-149.49c1.53-4.07,2.11-8.55,1.45-9.81,0,.16-.73-.06-2.37-.06-.45,0-.94,0-1.49.06C348.22,151.9,284.58,150.47,268.63,150.08Z"/><path class="cls-1" d="M10.48,326.33A10.46,10.46,0,0,1,0,315.86V91.59a29.47,29.47,0,0,1,7.93-20c3.85-4,10.94-8.69,22.92-8.69H322.92c.86-.12,13.17-.16,22.36,8.8,4.13,4,9.05,11.41,9.05,23.72l-.57,10a10.47,10.47,0,0,1-20.9-1.23l.55-9.37c0-8.91-5.64-10.94-10.36-11H30.86c-2.43,0-9.83,0-9.91,7.61V315.86A10.47,10.47,0,0,1,10.48,326.33Z"/><path class="cls-1" d="M32,207.77a8.27,8.27,0,0,1-1.31-.11,7.87,7.87,0,0,1-6.44-9L37.43,120.9c.43-7.47,7.59-19.78,25.11-19.78,16.54,0,290.12-.82,290.12-.82,2.31.29,11,2,16.26,9.62,2.39,3.53,4.88,9.61,3,18.56-3.76,18.18-5.19,20.27-8.59,22a7.85,7.85,0,0,1-10.22-11.09c.33-.92,1.39-4.23,3.43-14.07.6-2.86.39-5.05-.61-6.52a8.4,8.4,0,0,0-4.58-2.86c-.27.1-272.33.92-288.83.92-8.89,0-9.49,5.27-9.53,5.87L39.72,201.22A7.87,7.87,0,0,1,32,207.77Z"/><path class="cls-1" d="M201.41,149H81.56a7.86,7.86,0,0,1,0-15.71H201.41a7.86,7.86,0,1,1,0,15.71Z"/></svg>