<svg id="Capa_1" data-name="Capa 1" xmlns="http://www.w3.org/2000/svg" viewBox="0 0 400 400"><defs><style>.cls-1{fill:#FFFFFF;}</style></defs><path class="cls-1" d="M386.71,116H14.17a10.54,10.54,0,1,1,0-21.08H386.71a10.54,10.54,0,1,1,0,21.08Z"/><path class="cls-1" d="M69.59,75.69a11,11,0,0,1-2-.18A35,35,0,0,1,39.68,34.56,35,35,0,0,1,80.62,6.61,35.49,35.49,0,0,1,103,20.71a33.54,33.54,0,0,1,5.79,26.1,10.62,10.62,0,0,1-12.32,8.4A10.51,10.51,0,0,1,88.12,42.9c1.37-7.27-3.65-14.12-11.41-15.58A14,14,0,0,0,71.52,54.8a10.54,10.54,0,0,1-1.93,20.89Z"/><path class="cls-1" d="M150.59,75.69a11,11,0,0,1-2-.18,35.06,35.06,0,1,1,13-68.9,35.49,35.49,0,0,1,22.42,14.1,33.53,33.53,0,0,1,5.78,26.1,10.54,10.54,0,0,1-20.71-3.91c1.38-7.27-3.64-14.12-11.4-15.58a14,14,0,0,0-5.19,27.48,10.54,10.54,0,0,1-1.94,20.89Z"/><path class="cls-1" d="M231.62,75.69a11,11,0,0,1-2-.18,35.06,35.06,0,1,1,13-68.9,35.59,35.59,0,0,1,22.44,14.1,33.57,33.57,0,0,1,5.77,26.1,10.54,10.54,0,0,1-20.71-3.91A12.56,12.56,0,0,0,248,33a14.71,14.71,0,0,0-9.25-5.7,14,14,0,0,0-5.16,27.48,10.54,10.54,0,0,1-1.94,20.89Z"/><path class="cls-1" d="M312.63,75.69a11,11,0,0,1-2-.18A35.07,35.07,0,0,1,297.39,12.1a34.86,34.86,0,0,1,26.27-5.49,35.49,35.49,0,0,1,22.42,14.1,33.53,33.53,0,0,1,5.78,26.1,10.54,10.54,0,1,1-20.71-3.91c1.38-7.27-3.64-14.12-11.4-15.58a14,14,0,0,0-16.33,11.15A14,14,0,0,0,314.56,54.8a10.54,10.54,0,0,1-1.93,20.89Z"/><path class="cls-1" d="M352.73,392.65H47.27a46.11,46.11,0,0,1-46.05-46V83.15a46.09,46.09,0,0,1,46.05-46H352.73a46.09,46.09,0,0,1,46,46V346.6A46.11,46.11,0,0,1,352.73,392.65ZM47.27,58.2a25,25,0,0,0-25,25V346.6a25,25,0,0,0,25,25H352.73a25,25,0,0,0,25-25V83.15a25,25,0,0,0-25-25Z"/><path class="cls-1" d="M131,224.37H47.46a7.91,7.91,0,0,1-7.91-7.91V150.77a7.91,7.91,0,0,1,7.91-7.9H131a7.9,7.9,0,0,1,7.9,7.9v65.69A7.91,7.91,0,0,1,131,224.37ZM55.36,208.56h67.73V158.68H55.36Z"/><path class="cls-1" d="M241.23,224.37H157.7a7.91,7.91,0,0,1-7.91-7.91V150.77a7.91,7.91,0,0,1,7.91-7.9h83.53a7.91,7.91,0,0,1,7.91,7.9v65.69A7.91,7.91,0,0,1,241.23,224.37ZM165.6,208.56h67.73V158.68H165.6Z"/><path class="cls-1" d="M351.45,224.37H267.91a7.91,7.91,0,0,1-7.9-7.91V150.77a7.9,7.9,0,0,1,7.9-7.9h83.54a7.91,7.91,0,0,1,7.91,7.9v65.69A7.92,7.92,0,0,1,351.45,224.37Zm-75.63-15.81h67.73V158.68H275.82Z"/><path class="cls-1" d="M131,332.87H47.46a7.91,7.91,0,0,1-7.91-7.9V259.28a7.91,7.91,0,0,1,7.91-7.91H131a7.91,7.91,0,0,1,7.9,7.91V325A7.9,7.9,0,0,1,131,332.87ZM55.36,317.06h67.73V267.18H55.36Z"/><path class="cls-1" d="M241.23,332.87H157.7a7.91,7.91,0,0,1-7.91-7.9V259.28a7.91,7.91,0,0,1,7.91-7.91h83.53a7.91,7.91,0,0,1,7.91,7.91V325A7.91,7.91,0,0,1,241.23,332.87ZM165.6,317.06h67.73V267.18H165.6Z"/><path class="cls-1" d="M351.45,332.87H267.91A7.9,7.9,0,0,1,260,325V259.28a7.91,7.91,0,0,1,7.9-7.91h83.54a7.91,7.91,0,0,1,7.91,7.91V325A7.91,7.91,0,0,1,351.45,332.87Zm-75.63-15.81h67.73V267.18H275.82Z"/><path class="cls-1" d="M258.09,233.16a5.28,5.28,0,0,1-3.35-9.35l103.17-84.88a5.29,5.29,0,0,1,6.72,8.16L261.45,232A5.34,5.34,0,0,1,258.09,233.16Z"/><path class="cls-1" d="M148.86,233.16a5.28,5.28,0,0,1-3.35-9.35l103.18-84.88a5.28,5.28,0,0,1,6.71,8.16L152.22,232A5.34,5.34,0,0,1,148.86,233.16Z"/><path class="cls-1" d="M148.86,339.83a5.27,5.27,0,0,1-3.35-9.34l103.18-84.88a5.28,5.28,0,1,1,6.71,8.15L152.22,338.64A5.33,5.33,0,0,1,148.86,339.83Z"/><path class="cls-1" d="M37.64,339.83a5.27,5.27,0,0,1-3.36-9.34l103.18-84.88a5.28,5.28,0,1,1,6.71,8.15L41,338.64A5.31,5.31,0,0,1,37.64,339.83Z"/></svg>