<svg id="Capa_1" data-name="Capa 1" xmlns="http://www.w3.org/2000/svg" viewBox="0 0 400 400"><defs><style>.cls-1{fill:#FFFFFF;}</style></defs><path class="cls-1" d="M124.7,211.53a80.63,80.63,0,1,1,68.94-38.73A80.13,80.13,0,0,1,124.7,211.53Zm0-140.36a59.72,59.72,0,1,0,59.69,59.67A59.74,59.74,0,0,0,124.7,71.17Z"/><path class="cls-1" d="M237.73,364.06H11.66A10.52,10.52,0,0,1,1.25,352.23C11.19,274.42,63.1,217.92,124.7,217.92s113.52,56.5,123.44,134.31a10.52,10.52,0,0,1-10.41,11.83ZM24,343.07H225.43c-11.85-61-52.87-104.16-100.73-104.16S35.83,282,24,343.07Z"/><path class="cls-1" d="M297.1,239.34a67.87,67.87,0,1,1,58-32.61A67.5,67.5,0,0,1,297.1,239.34Zm0-114.79A46.91,46.91,0,1,0,344,171.45,46.95,46.95,0,0,0,297.1,124.55Z"/><path class="cls-1" d="M389.51,364.06H267.25a10.5,10.5,0,1,1,0-21H377.1c-10.06-47.8-42.41-81.36-80-81.36-17.67,0-34.59,7.44-48.92,21.54a10.49,10.49,0,1,1-14.71-15c18.32-18,40.32-27.57,63.63-27.57,51.35,0,94.58,46.9,102.82,111.51a10.52,10.52,0,0,1-10.41,11.83Z"/></svg>