<svg id="Capa_1" data-name="Capa 1" xmlns="http://www.w3.org/2000/svg" viewBox="0 0 400 400"><defs><style>.cls-1{fill:#FFFFFF;}</style></defs><path class="cls-1" d="M289.68,97.16H8a8,8,0,1,1,0-16H289.68a8,8,0,0,1,0,16Z"/><path class="cls-1" d="M158.58,208.29H8a8,8,0,1,1,0-16H158.58a8,8,0,1,1,0,16Z"/><path class="cls-1" d="M371.32,267.38a8.18,8.18,0,0,1-3.26-.68L186.11,185.5a8,8,0,0,1,6.52-14.6l182,81.19a8,8,0,0,1-3.26,15.29Z"/><path class="cls-1" d="M362.74,319.92a58.17,58.17,0,0,1-29.1-8.13c-12.33-7.2-20.74-18.05-23.08-29.73a29.71,29.71,0,0,1,5.29-24c12.08-16,38.6-18.53,60.45-5.77,12.34,7.22,20.75,18.06,23.07,29.75a29.61,29.61,0,0,1-5.29,24C387.17,315.18,375.54,319.92,362.74,319.92Zm-15.66-59.78c-7.81,0-14.74,2.55-18.48,7.52a13.5,13.5,0,0,0-2.37,11.28c1.42,7.1,7.2,14.23,15.47,19.06,14.43,8.46,32.59,7.72,39.64-1.62a13.52,13.52,0,0,0,2.37-11.26c-1.42-7.1-7.21-14.24-15.49-19.08A42.55,42.55,0,0,0,347.08,260.14Z"/><path class="cls-1" d="M315,221.88a8,8,0,0,1-3.4-15.21l57.06-26.88a8,8,0,0,1,6.8,14.45l-57.06,26.87A7.91,7.91,0,0,1,315,221.88Z"/><path class="cls-1" d="M187.35,279.55a8,8,0,0,1-3.4-15.21l76.2-35.89a8,8,0,1,1,6.8,14.44l-76.2,35.89A7.91,7.91,0,0,1,187.35,279.55Z"/><path class="cls-1" d="M344.27,204.08c-12.32,0-23.61-4.49-30.55-13.21a29.75,29.75,0,0,1-6-24c2-11.7,10.13-22.7,22.23-30.17,21.42-13.23,48-11.31,60.59,4.39a29.76,29.76,0,0,1,5.93,24c-2,11.7-10.14,22.7-22.23,30.17v0A57.75,57.75,0,0,1,344.27,204.08Zm25.82-15.58h0ZM360.14,144a42.23,42.23,0,0,0-21.75,6.35c-8.08,5-13.65,12.21-14.88,19.31a13.59,13.59,0,0,0,2.69,11.28c7.31,9.22,25.52,9.53,39.7.8,8.08-5,13.64-12.22,14.88-19.32a13.66,13.66,0,0,0-2.67-11.31C374.32,146.35,367.66,144,360.14,144Z"/></svg>