<svg id="Capa_1" data-name="Capa 1" xmlns="http://www.w3.org/2000/svg" viewBox="0 0 400 400"><defs><style>.cls-1{fill:#006dd9;}</style></defs><path class="cls-1" d="M200,400C89.72,400,0,310.28,0,200S89.72,0,200,0,400,89.72,400,200,310.28,400,200,400Zm0-375.68c-96.87,0-175.67,78.8-175.67,175.67S103.12,375.68,200,375.68,375.68,296.86,375.68,200,296.86,24.32,200,24.32Z"/><path class="cls-1" d="M286.4,178H113.62a17.54,17.54,0,0,1-13.26-29l82.19-94.8A23.22,23.22,0,0,1,200,46a0,0,0,0,1,0,0,23.14,23.14,0,0,1,17.44,8.13l82.17,94.82a17.53,17.53,0,0,1-13.24,29Zm-4.64-13.51h0Zm-163.47-.07-.05,0S118.27,164.37,118.29,164.37Zm8.61-10.07H273L199.57,69.6h0a.49.49,0,0,0-.09-.1Z"/><path class="cls-1" d="M200,354a23.27,23.27,0,0,1-17.46-8.13L100.36,251a17.54,17.54,0,0,1,13.26-29H286.4a17.55,17.55,0,0,1,13.24,29l-82.17,94.82A23.23,23.23,0,0,1,200,354Zm.42-23.63ZM127,245.68l73,84.22,73-84.22Z"/></svg>