<svg id="Capa_1" data-name="Capa 1" xmlns="http://www.w3.org/2000/svg" viewBox="0 0 400 400"><defs><style>.cls-1{fill:#FFFFFF;}</style></defs><path class="cls-1" d="M302.45,192.84a95.92,95.92,0,1,1,95.93-95.91A96,96,0,0,1,302.45,192.84Zm0-170.89a75,75,0,1,0,75,75A75.06,75.06,0,0,0,302.45,22Z"/><path class="cls-1" d="M287.5,114.78q2.4,24.51,15.7,24.53a17.81,17.81,0,0,0,9.12-2.4c2.77-1.59,5.41-5.32,8-11.2,1.64-3.81,3.06-6.2,4.23-7.14a6.05,6.05,0,0,1,3.81-1.39,8.55,8.55,0,0,1,6.39,2.35,9.06,9.06,0,0,1,2.28,6.61c0,6.67-3.26,12.86-9.82,18.51s-14.5,8.52-23.84,8.52a31.66,31.66,0,0,1-22.86-9.54q-9.78-9.51-11.68-28.85h-8.67c-.82,0-1.22-.57-1.22-1.77a10.21,10.21,0,0,1,1.28-4.3c.87-1.73,1.6-2.6,2.2-2.6h5.88v-2.44c0-2,.08-4.9.26-8.69h-8.4c-.82,0-1.22-.55-1.22-1.71a10.27,10.27,0,0,1,1.28-4.36c.87-1.73,1.6-2.6,2.2-2.6h6.83q4.43-35.55,33.59-35.56,12.84,0,22.11,6.63c6.21,4.41,9.29,9.88,9.29,16.45A8,8,0,0,1,332,79.5a7.14,7.14,0,0,1-5.35,2.31c-2.3,0-4-.58-5.07-1.77a19.67,19.67,0,0,1-3.17-5.46,20.64,20.64,0,0,0-4.73-7.4c-1.82-1.71-4.9-2.58-9.27-2.58q-7.51,0-11.57,5.26c-2.71,3.5-4.46,9-5.23,16.45h22c.91,0,1.35.6,1.35,1.78a10,10,0,0,1-1.26,4.41c-.84,1.66-1.57,2.48-2.22,2.48H287.1l-.15,6.7a42.37,42.37,0,0,0,.15,4.43h22.53c.91,0,1.35.58,1.35,1.71a10.1,10.1,0,0,1-1.26,4.48c-.84,1.66-1.57,2.48-2.22,2.48Z"/><path class="cls-1" d="M96.25,192.84a95.92,95.92,0,1,1,95.91-95.91A96,96,0,0,1,96.25,192.84ZM96.25,22a75,75,0,1,0,75,75A75.05,75.05,0,0,0,96.25,22Z"/><path class="cls-1" d="M100.22,54.83v5.38a31.19,31.19,0,0,1,9.14,2.2,17.9,17.9,0,0,1,6.67,5,21.21,21.21,0,0,1,3.46,5.22,12.15,12.15,0,0,1,1.22,4.94,5.94,5.94,0,0,1-1.82,4.32,6,6,0,0,1-4.4,1.82c-3.28,0-5.38-1.77-6.35-5.3a11.26,11.26,0,0,0-7.92-8.27V90.87q6.18,1.71,9.84,3.1a20.32,20.32,0,0,1,6.56,4,18.71,18.71,0,0,1,4.77,6.54,20.88,20.88,0,0,1,1.66,8.37,22.09,22.09,0,0,1-2.66,10.63,21,21,0,0,1-7.85,8.1,27.81,27.81,0,0,1-12.32,3.75v12.42a11.89,11.89,0,0,1-.57,4.27,2.45,2.45,0,0,1-2.53,1.36,2.78,2.78,0,0,1-2.51-1.11,6.37,6.37,0,0,1-.73-3.39V135.49a31.7,31.7,0,0,1-10.19-2.73,24.7,24.7,0,0,1-7.28-5.21,21.29,21.29,0,0,1-4.3-6.49,17,17,0,0,1-1.41-6.6,6,6,0,0,1,1.88-4.31,6.19,6.19,0,0,1,4.65-1.93,6.61,6.61,0,0,1,3.8,1,5.3,5.3,0,0,1,2.13,3q1.35,4.07,2.34,6.26a12.3,12.3,0,0,0,3,4,13.56,13.56,0,0,0,5.36,2.75V102a60,60,0,0,1-11.16-4.12,18.67,18.67,0,0,1-7.27-6.44q-2.81-4.2-2.8-10.77,0-8.59,5.46-14.06t15.77-6.39V54.93q0-4.18,3.15-4.18C99.15,50.75,100.22,52.1,100.22,54.83ZM93.88,89V69.93a17.35,17.35,0,0,0-6.53,3.3C85.79,74.59,85,76.64,85,79.41a7.69,7.69,0,0,0,2.19,6A20,20,0,0,0,93.88,89Zm6.34,14.82v21.83a13.5,13.5,0,0,0,7.77-4,10.23,10.23,0,0,0,2.75-7.07,8.48,8.48,0,0,0-2.67-6.72A21.71,21.71,0,0,0,100.22,103.84Z"/><path class="cls-1" d="M97,399a95.91,95.91,0,1,1,95.93-95.91A96,96,0,0,1,97,399Zm0-170.87a75,75,0,1,0,75,75A75,75,0,0,0,97,228.13Z"/><path class="cls-1" d="M87.7,285.66q0,8.91-3.91,13.24t-10.72,4.34a15.33,15.33,0,0,1-7.53-1.85,12.33,12.33,0,0,1-5.18-5.75,22,22,0,0,1-1.87-9.56A30,30,0,0,1,59.94,276a11.69,11.69,0,0,1,4.67-6.15,14.91,14.91,0,0,1,8.28-2.09,16.89,16.89,0,0,1,6.37,1.11,11.55,11.55,0,0,1,4.66,3.43,14.86,14.86,0,0,1,2.84,5.61A29,29,0,0,1,87.7,285.66ZM79,285.19c0-4.05-.44-7-1.31-8.86a4.68,4.68,0,0,0-4.61-2.78,4.78,4.78,0,0,0-3.56,1.33,7.15,7.15,0,0,0-1.82,3.92,37,37,0,0,0-.49,6.59,38.37,38.37,0,0,0,.49,6.75,7.21,7.21,0,0,0,1.8,3.93,4.74,4.74,0,0,0,3.58,1.33,4.61,4.61,0,0,0,4.68-2.92C78.57,292.51,79,289.43,79,285.19Zm39.8-11.32L80,336.46c-1,1.71-2.12,2.55-3.37,2.55a3.56,3.56,0,0,1-2.13-.81,2.53,2.53,0,0,1-1.08-2.11,4.57,4.57,0,0,1,.94-2.38l39-63.1a18,18,0,0,1,1.8-2.57,2.77,2.77,0,0,1,2.22-.88,3.08,3.08,0,0,1,2.25.83,2.83,2.83,0,0,1,.86,2.17C120.5,270.79,119.93,272,118.79,273.87Zm16.63,45.48c0,5.94-1.31,10.34-3.92,13.24s-6.17,4.34-10.71,4.34a15.25,15.25,0,0,1-7.57-1.87,12.81,12.81,0,0,1-5.23-5.74,21.72,21.72,0,0,1-1.89-9.55q0-9.07,3.49-13.67c2.3-3.06,6-4.59,11-4.59a16.61,16.61,0,0,1,6.36,1.12,12.1,12.1,0,0,1,4.66,3.35,14.28,14.28,0,0,1,2.86,5.57A29.13,29.13,0,0,1,135.42,319.35Zm-8.71-.45q0-6-1.31-8.8a4.69,4.69,0,0,0-4.61-2.78,4.91,4.91,0,0,0-3.64,1.32,7.6,7.6,0,0,0-1.85,3.85,33.53,33.53,0,0,0-.52,6.59q0,6.24,1.31,9.13a4.77,4.77,0,0,0,4.7,2.88,4.63,4.63,0,0,0,4.66-3Q126.71,325.18,126.71,318.9Z"/><path class="cls-1" d="M303.35,395a95.91,95.91,0,1,1,95.91-95.91A96,96,0,0,1,303.35,395Zm0-170.87a75,75,0,1,0,75,75A75.06,75.06,0,0,0,303.35,224.1Z"/><path class="cls-1" d="M296.46,294h8.38a21.54,21.54,0,0,1,7.12.92c1.68.61,2.53,2.06,2.53,4.35a4.78,4.78,0,0,1-1.7,3.81,6.41,6.41,0,0,1-4.37,1.47h-9.93v.95a21.48,21.48,0,0,1-2.56,10.4A67.9,67.9,0,0,1,287,327.75c1.24-.3,2.46-.58,3.67-.85s2.58-.49,4.09-.7a36.62,36.62,0,0,1,5-.3,87,87,0,0,1,10.49.86,89,89,0,0,0,8.93.87,22.66,22.66,0,0,0,6.87-1.15,23.1,23.1,0,0,1,4.64-1.15,6.08,6.08,0,0,1,4.48,2,6.64,6.64,0,0,1,2,4.78q0,4.67-5.26,7.16a25.77,25.77,0,0,1-11.2,2.49q-3.65,0-20.7-3.91c-.3-.09-.81-.23-1.52-.46a17.13,17.13,0,0,0-2.65-.57,28.28,28.28,0,0,0-3.75-.23,11.5,11.5,0,0,0-4.15.69c-1.2.44-3.28,1.27-6.2,2.47s-4.94,1.8-6,1.8a6.09,6.09,0,0,1-4.18-1.94,6.61,6.61,0,0,1-2.05-5.08,5,5,0,0,1,.72-2.47,15.4,15.4,0,0,1,2.3-2.94q1.59-1.67,4.72-4.36a18.33,18.33,0,0,0,4.8-6.77,20.92,20.92,0,0,0,1.94-8.56,36.5,36.5,0,0,0-.56-4.93h-4.71a15,15,0,0,1-6.26-1c-1.41-.69-2.12-2-2.12-4.06q0-5.47,7.14-5.48h3.3q-2.74-8.76-2.75-13.81a23.27,23.27,0,0,1,3.26-12.29,22.29,22.29,0,0,1,9.31-8.45,30.22,30.22,0,0,1,13.87-3.07,36.43,36.43,0,0,1,11.85,1.71,22.48,22.48,0,0,1,8.76,5.65q6.51,6.8,6.51,14.47a6.75,6.75,0,0,1-2.13,4.89,7.11,7.11,0,0,1-5.22,2.13q-5.46,0-7.25-6.06c-1.08-3.88-2.58-6.76-4.46-8.61a10.42,10.42,0,0,0-7.6-2.79,11,11,0,0,0-8.35,3.36,12,12,0,0,0-3.17,8.6,24.71,24.71,0,0,0,.69,6C294.56,287.52,295.35,290.29,296.46,294Z"/></svg>