<svg id="Capa_1" data-name="Capa 1" xmlns="http://www.w3.org/2000/svg" viewBox="0 0 400 400"><defs><style>.cls-1{fill:#006dd9;}</style></defs><path class="cls-1" d="M219.74,182.67H27A26.85,26.85,0,0,1,.13,155.84V78.41A26.85,26.85,0,0,1,27,51.58H219.74a26.84,26.84,0,0,1,26.82,26.83v77.43A26.84,26.84,0,0,1,219.74,182.67ZM27,70.27a8.15,8.15,0,0,0-8.14,8.14v77.43A8.15,8.15,0,0,0,27,164H219.74a8.15,8.15,0,0,0,8.14-8.14V78.41a8.15,8.15,0,0,0-8.14-8.14Z"/><path class="cls-1" d="M373.19,355.48H180.39a26.84,26.84,0,0,1-26.8-26.82V251.21a26.84,26.84,0,0,1,26.8-26.81h192.8A26.84,26.84,0,0,1,400,251.21v77.45A26.85,26.85,0,0,1,373.19,355.48ZM180.39,243.09a8.14,8.14,0,0,0-8.12,8.12v77.45a8.14,8.14,0,0,0,8.12,8.13h192.8a8.14,8.14,0,0,0,8.12-8.13V251.21a8.14,8.14,0,0,0-8.12-8.12Z"/><path class="cls-1" d="M134.86,299.64H93.09a16.58,16.58,0,0,1-16.55-16.55V197.57a7,7,0,0,1,14,0v85.52a2.53,2.53,0,0,0,2.53,2.53h41.77a7,7,0,0,1,0,14Z"/></svg>