<svg id="Capa_1" data-name="Capa 1" xmlns="http://www.w3.org/2000/svg" viewBox="0 0 400 400"><defs><style>.cls-1{fill:#FFFFFF;}</style></defs><path class="cls-1" d="M287.78,399.55a137.34,137.34,0,0,1-97.41-40.26L40.29,209.18c-53.72-53.72-53.72-141.11,0-194.82,19.11-19.15,52.38-19.15,71.56,0l49.47,49.5a50.57,50.57,0,0,1,0,71.55l-13.68,13.68L250.46,251.94l13.7-13.71a50.69,50.69,0,0,1,71.56,0l49.47,49.47a50.66,50.66,0,0,1,0,71.59A137.34,137.34,0,0,1,287.78,399.55Zm-211.7-371a21.52,21.52,0,0,0-15.29,6.32,108.87,108.87,0,0,0,0,153.82L210.87,338.79a109,109,0,0,0,153.82,0,21.64,21.64,0,0,0,0-30.59l-49.47-49.47a21.62,21.62,0,0,0-30.56,0l-24,24a14.49,14.49,0,0,1-10.25,4.25h0a14.49,14.49,0,0,1-10.25-4.25L116.89,159.34a14.48,14.48,0,0,1,0-20.5l23.92-23.93a21.55,21.55,0,0,0,0-30.55L91.34,34.86A21.5,21.5,0,0,0,76.08,28.54Z"/></svg>