<svg id="Capa_1" data-name="Capa 1" xmlns="http://www.w3.org/2000/svg" viewBox="0 0 400 400"><defs><style>.cls-1{fill:#FFFFFF;}</style></defs><path class="cls-1" d="M128.55,367.37c-12.14,0-22.67-4.47-30.47-12.94-7.61-8.26-11.45-20-11.45-34.83v-180H42.09c-13,0-23.21-3.33-30.47-9.9C4,122.92,0,113.57,0,102.67,0,91.45,4.19,81.92,12.14,75.09c7.46-6.37,17.53-9.58,30-9.58H214.63c13.09,0,23.45,3.35,30.79,10,7.66,7,11.68,16.36,11.68,27.15S253,123,245.19,129.87c-7.43,6.51-17.7,9.78-30.56,9.78H170.1v180c0,15-3.82,26.71-11.36,34.92C151,362.92,140.55,367.37,128.55,367.37ZM42.09,94.89c-5.07,0-9,.89-10.84,2.5-.66.6-1.87,1.63-1.87,5.28,0,3.27,1,4.42,1.9,5.25.63.57,3.18,2.35,10.81,2.35H116V319.6c0,7,1.32,12.33,3.7,14.92,1.58,1.72,3.85,3.47,8.84,3.47,4.79,0,7-1.72,8.55-3.39,2.33-2.52,3.62-7.86,3.62-15V110.27h73.91c7.52,0,10.31-1.72,11.17-2.47s1.92-2,1.92-5.13-1.06-4.51-2.07-5.43c-.57-.51-3.21-2.35-11-2.35Z"/><path class="cls-1" d="M334.32,367.37c-18.71,0-32.91-3.36-43.47-10.24a50.81,50.81,0,0,1-22-30.25c-2.87-10.61-4.28-24-4.28-40.89V204.3A34.27,34.27,0,0,1,246.43,196a31.25,31.25,0,0,1-10.5-23.84A30.59,30.59,0,0,1,247.12,148a35.78,35.78,0,0,1,17.5-7.74v-16c0-8.6.26-15.38.72-20.28a42.77,42.77,0,0,1,5.54-17.91,36.68,36.68,0,0,1,13.71-13.54c14.06-8.18,33.52-6.52,46.77,5.91a35.47,35.47,0,0,1,10.91,19.51c1.09,5.54,1.63,12.83,1.63,22.3v19.28h3.59c10.76,0,19.51,3,26,8.81a31.24,31.24,0,0,1,10.41,23.82c0,12.33-5.71,22-16,27.17-6.34,3.21-14.23,5-24,5.48V282a134.13,134.13,0,0,0,.72,16.13c2.52,1.34,5.14,1.17,10.3.11a74.24,74.24,0,0,1,14.69-1.87,29.68,29.68,0,0,1,21.27,9.16A31,31,0,0,1,400,327.83c0,7.95-2.78,22.67-21.43,31.68C367.72,364.79,353.23,367.37,334.32,367.37ZM273.83,168.89c-5.65,0-7.46,1.29-7.78,1.58l.12,3.76c.54.49,2.52,1.29,6.57,1.29H294V286c0,14.07,1.09,25.26,3.25,33.23a21.8,21.8,0,0,0,9.64,13.29c3.84,2.49,11.7,5.48,27.43,5.48,17.62,0,26.8-2.67,31.42-4.91,4.88-2.38,4.88-4.1,4.88-5.25-1.84-2.12-4.36-2-9.73-.89-20.8,4.39-30.07,1.26-37.42-7a32.61,32.61,0,0,1-8-18.11,162.72,162.72,0,0,1-1-19.91V175.52h24c9.81,0,14.34-1.55,16.15-2.44l-.86-2.9c-.63-.6-2.7-1.29-6.34-1.29h-33V120.23a92.5,92.5,0,0,0-1.09-16.62,6.32,6.32,0,0,0-2.07-3.67c-6.37-5.94-9.41-3.59-12-2a7.75,7.75,0,0,0-3,2.93,13.77,13.77,0,0,0-1.69,5.88Q294,113,294,124.24v44.65Z"/></svg>