<svg id="Capa_1" data-name="Capa 1" xmlns="http://www.w3.org/2000/svg" viewBox="0 0 400 400"><defs><style>.cls-1{fill:#e53341;}.cls-2{fill:#efefa8;}.cls-3{fill:#28c67a;}.cls-4{fill:#006dd9;}</style></defs><path class="cls-1" d="M265.69,208.08h-176a10.36,10.36,0,1,1,0-20.71h176a10.36,10.36,0,1,1,0,20.71Z"/><path class="cls-2" d="M208.5,266.79H89.68a10.36,10.36,0,0,1,0-20.72H208.5a10.36,10.36,0,0,1,0,20.72Z"/><path class="cls-3" d="M296.57,151.5H89.68a10.36,10.36,0,1,1,0-20.71H296.57a10.36,10.36,0,1,1,0,20.71Z"/><path class="cls-4" d="M353.27,347.64H46.73A46.78,46.78,0,0,1,0,300.92V96.66A46.79,46.79,0,0,1,46.73,49.93H353.27A46.79,46.79,0,0,1,400,96.66V300.92A46.78,46.78,0,0,1,353.27,347.64ZM46.73,70.65a26.05,26.05,0,0,0-26,26V300.92a26.05,26.05,0,0,0,26,26H353.27a26.05,26.05,0,0,0,26-26V96.66a26.05,26.05,0,0,0-26-26Z"/></svg>