<?xml version="1.0" encoding="utf-8"?>
<!-- Generator: Adobe Illustrator 24.0.0, SVG Export Plug-In . SVG Version: 6.00 Build 0)  -->
<svg version="1.1" id="Capa_1" xmlns="http://www.w3.org/2000/svg" xmlns:xlink="http://www.w3.org/1999/xlink" x="0px" y="0px"
	 viewBox="0 0 30 30" style="enable-background:new 0 0 30 30;" xml:space="preserve">
<style type="text/css">
	.st0{fill:#E43341;}
	.st1{fill:#EBE668;}
	.st2{fill:#4AB177;}
</style>
<path class="st0" d="M22.8,16H4.6c-0.6,0-1.1-0.5-1.1-1.1c0-0.6,0.5-1.1,1.1-1.1h18.1c0.6,0,1.1,0.5,1.1,1.1
	C23.8,15.5,23.4,16,22.8,16z"/>
<path class="st1" d="M16.9,22.4H4.6c-0.6,0-1.1-0.5-1.1-1.1c0-0.6,0.5-1.1,1.1-1.1h12.2c0.6,0,1.1,0.5,1.1,1.1
	C17.9,21.9,17.5,22.4,16.9,22.4z"/>
<path class="st2" d="M25.9,9.8H4.6C4,9.8,3.6,9.3,3.6,8.7c0-0.6,0.5-1.1,1.1-1.1h21.3c0.6,0,1.1,0.5,1.1,1.1
	C27,9.3,26.5,9.8,25.9,9.8z"/>
</svg>
