<svg id="Capa_1" data-name="Capa 1" xmlns="http://www.w3.org/2000/svg" viewBox="0 0 400 400"><defs><style>.cls-1{fill:#006dd9;}</style></defs><path class="cls-1" d="M185.64,397a6.7,6.7,0,0,1-6.33-8.82l17.79-52.75a6.5,6.5,0,0,1,1.57-2.54L350.59,178.2a6.66,6.66,0,0,1,4.73-2c1.34.3,3.5.68,4.77,2l37.7,37.72a6.69,6.69,0,0,1,0,9.43l-153,153.57a6.51,6.51,0,0,1-2.83,1.69l-54.4,16.14A6.58,6.58,0,0,1,185.64,397Zm23.64-55.85-13.2,39.1,40.43-12L383.62,220.61l-28.23-28.23Zm30.76,33h0Z"/><path class="cls-1" d="M368.35,252.57a6.69,6.69,0,0,1-4.73-2L327,214a6.68,6.68,0,0,1,9.46-9.43l36.61,36.63a6.67,6.67,0,0,1-4.73,11.39Z"/><path class="cls-1" d="M247.21,373.71a6.61,6.61,0,0,1-4.71-1.95l-36.63-36.61a6.68,6.68,0,1,1,9.42-9.46l36.63,36.61a6.68,6.68,0,0,1-4.71,11.41Z"/><path class="cls-1" d="M374.21,142.43H72.48a6.68,6.68,0,0,1,0-13.36H374.21a6.68,6.68,0,0,1,0,13.36Z"/><path class="cls-1" d="M157.34,361.5H100.78a37.24,37.24,0,0,1-37.2-37.18V116.88a37.24,37.24,0,0,1,37.2-37.19H345.93a37.23,37.23,0,0,1,37.18,37.19v56.57a8.91,8.91,0,1,1-17.81,0V116.88A19.4,19.4,0,0,0,345.93,97.5H100.78a19.41,19.41,0,0,0-19.39,19.38V324.32a19.4,19.4,0,0,0,19.39,19.37h56.56a8.91,8.91,0,1,1,0,17.81Z"/><path class="cls-1" d="M47.6,313A8.85,8.85,0,0,1,40.87,310a37.2,37.2,0,0,1-9.1-24.38V78.14A37.24,37.24,0,0,1,69,40.94H314.1A37,37,0,0,1,347.22,61.2a8.91,8.91,0,0,1-15.87,8.11A19.29,19.29,0,0,0,314.1,58.75H69A19.41,19.41,0,0,0,49.58,78.14V285.57a19.44,19.44,0,0,0,4.75,12.73,8.91,8.91,0,0,1-.91,12.56A8.81,8.81,0,0,1,47.6,313Z"/><path class="cls-1" d="M16.59,276.09A8.92,8.92,0,0,1,9.85,273,37.27,37.27,0,0,1,.76,248.62V41.2A37.24,37.24,0,0,1,37.94,4H283.09a37.1,37.1,0,0,1,33.12,20.24,8.9,8.9,0,1,1-15.83,8.14,19.4,19.4,0,0,0-17.29-10.57H37.94A19.4,19.4,0,0,0,18.57,41.2V248.62a19.46,19.46,0,0,0,4.75,12.74,8.91,8.91,0,0,1-6.73,14.73Z"/><path class="cls-1" d="M166.77,227.28H110.21a6.68,6.68,0,0,1-6.68-6.67V173.45a6.68,6.68,0,0,1,6.68-6.67h56.56a6.68,6.68,0,0,1,6.68,6.67v47.16A6.68,6.68,0,0,1,166.77,227.28Zm-49.88-13.35h43.2v-33.8h-43.2Z"/><path class="cls-1" d="M298.78,189.56H204.49a6.68,6.68,0,0,1,0-13.36h94.29a6.68,6.68,0,0,1,0,13.36Z"/><path class="cls-1" d="M232.77,265H110.21a6.68,6.68,0,1,1,0-13.36H232.77a6.68,6.68,0,0,1,0,13.36Z"/><path class="cls-1" d="M261.07,227.28H204.49a6.68,6.68,0,1,1,0-13.35h56.58a6.68,6.68,0,1,1,0,13.35Z"/></svg>