<svg id="Capa_1" data-name="Capa 1" xmlns="http://www.w3.org/2000/svg" viewBox="0 0 400 400"><defs><style>.cls-1{fill:#006dd9;}</style></defs><path class="cls-1" d="M200,305a99,99,0,1,1,99-99A98.8,98.8,0,0,1,200,305Zm0-177a78,78,0,1,0,78,78A77.66,77.66,0,0,0,200,128Z"/><path class="cls-1" d="M200.13,332.32c-3.94,0-7.63-.1-11.24-.41-14.11-1.19-35.87-8.88-66.53-23.5-25.64-12.21-56.83-29-92.69-49.83C10.94,247.7-.15,228.5,0,207.2s11.57-40.4,30.51-51L134.58,97.77A131.75,131.75,0,0,1,195.3,80l3.34-.41,1.83.14a131.75,131.75,0,0,1,65.16,18.2l103.86,58.26c18.94,10.65,30.34,29.73,30.51,51.07s-10.94,40.48-29.68,51.36c-35.82,20.83-67,37.6-92.69,49.83C247,323,225.23,330.72,211.1,331.91,207.5,332.22,203.81,332.28,200.13,332.32Zm-2.45-231.39A111.12,111.12,0,0,0,145.1,116L40.81,174.53a37.55,37.55,0,0,0-.56,65.83c35.37,20.58,66,37.07,91.18,49.06,34.79,16.59,51.42,20.84,59.25,21.52,3.1.27,6.28.29,9.44.33,2.92,0,6.09-.06,9.18-.33,7.85-.68,24.49-4.95,59.26-21.52,25.17-12,55.85-28.5,91.18-49.06a37.62,37.62,0,0,0,19.21-33c-.11-13.68-7.5-26-19.76-32.86L255.12,116.15a111,111,0,0,0-55.26-15.42l-1.5.51Z"/><path class="cls-1" d="M238.54,218.72a41.14,41.14,0,1,1,41.14-41.14A41.14,41.14,0,0,1,238.54,218.72Zm0-66.49a25.35,25.35,0,1,0,25.35,25.35A25.34,25.34,0,0,0,238.54,152.23Z"/></svg>