<svg id="Capa_1" data-name="Capa 1" xmlns="http://www.w3.org/2000/svg" viewBox="0 0 400 400"><defs><style>.cls-1{fill:#ffffff;}</style></defs><path class="cls-1" d="M192.4,296.23a10.36,10.36,0,0,1-7.75-3.49l-91-103.13a10.33,10.33,0,1,1,15.48-13.67l80,90.63C208,222.11,268.21,93.87,369.55,2.66A10.33,10.33,0,1,1,383.36,18C265.27,124.3,202.68,287.9,202.05,289.56a10.31,10.31,0,0,1-7.8,6.51A11.36,11.36,0,0,1,192.4,296.23Z"/><path class="cls-1" d="M197.3,399.35c-101,0-183.25-82.21-183.25-183.25S96.26,32.88,197.3,32.88a181.87,181.87,0,0,1,77.62,17.2,10.33,10.33,0,1,1-8.75,18.71A161.38,161.38,0,0,0,197.3,53.53c-89.67,0-162.6,72.93-162.6,162.57s72.93,162.6,162.6,162.6,162.57-72.93,162.57-162.6a161.33,161.33,0,0,0-29.82-93.86,10.33,10.33,0,0,1,16.86-11.93A182.08,182.08,0,0,1,380.52,216.1C380.52,317.14,298.33,399.35,197.3,399.35Z"/></svg>