<svg id="Capa_1" data-name="Capa 1" xmlns="http://www.w3.org/2000/svg" viewBox="0 0 400 400"><defs><style>.cls-1{fill:#FFFFFF;}</style></defs><path class="cls-1" d="M218.14,91.11V251.63a17.84,17.84,0,0,1-35.68,0V91.11a17.84,17.84,0,1,1,35.68,0Zm-5,204.17a18.32,18.32,0,0,1,0,25.26,17.86,17.86,0,1,1-25.24-25.26,18.29,18.29,0,0,1,25.24,0Z"/><path class="cls-1" d="M200,400C89.72,400,0,310.28,0,200S89.72,0,200,0,400,89.72,400,200,310.28,400,200,400Zm0-375.68c-96.87,0-175.67,78.8-175.67,175.67S103.12,375.68,200,375.68,375.68,296.86,375.68,200,296.86,24.32,200,24.32Z"/></svg>