<?xml version="1.0" encoding="UTF-8"?>
<svg id="Capa_1" data-name="Capa 1" xmlns="http://www.w3.org/2000/svg" viewBox="0 0 938.88 269">
  <defs>
    <style>
      .cls-1 {
        fill: #fff;
      }

      .cls-2 {
        fill: #2e68b0;
      }
    </style>
  </defs>
  <rect class="cls-2" x="13.83" y="72.74" width="880.06" height="124.44" rx="62.22" ry="62.22"/>
  <g>
    <g>
      <g>
        <path class="cls-1" d="M121.54,169.27c-.34,0-.67-.14-.91-.38-.32-.34-.44-.83-.29-1.28l4.07-12.07c.06-.18,.16-.34,.3-.48l34.75-35.39c.23-.24,.56-.38,.89-.38h0c.33,0,.65,.13,.89,.37l8.63,8.63c.49,.49,.49,1.29,0,1.78l-35,35.13c-.15,.15-.33,.26-.53,.32l-12.45,3.69c-.12,.04-.24,.05-.36,.05Zm5.17-12.65l-3.2,9.49,9.81-2.91,33.89-34.01-6.84-6.84-33.66,34.27Zm7.27,7.7h0Z"/>
        <path class="cls-1" d="M163.34,136.24c-.32,0-.65-.12-.89-.37l-8.38-8.38c-.49-.49-.49-1.29,0-1.78s1.29-.49,1.78,0l8.38,8.38c.49,.49,.49,1.29,0,1.78-.25,.25-.57,.37-.89,.37Z"/>
        <path class="cls-1" d="M135.63,163.95c-.32,0-.65-.12-.89-.37l-8.38-8.38c-.49-.49-.49-1.29,0-1.78s1.29-.49,1.78,0l8.38,8.38c.49,.49,.49,1.29,0,1.78-.25,.25-.57,.37-.89,.37Z"/>
      </g>
      <g>
        <path class="cls-1" d="M120.1,133.43c-7.44,0-14.2-3.8-18.07-10.16-2.02-3.3-3.08-7.1-3.08-10.99,0-11.67,9.49-21.16,21.16-21.16s21.16,9.49,21.16,21.16c0,3.89-1.07,7.69-3.08,10.99-3.88,6.36-10.64,10.16-18.08,10.16Zm0-39.79c-10.28,0-18.64,8.36-18.64,18.64,0,3.43,.94,6.77,2.71,9.68,3.42,5.6,9.37,8.95,15.92,8.95s12.51-3.35,15.93-8.95c1.77-2.91,2.71-6.26,2.71-9.68,0-10.28-8.36-18.64-18.64-18.64Z"/>
        <path class="cls-1" d="M152.14,176.66H88.06c-.36,0-.71-.16-.95-.43s-.35-.63-.31-.99c2.71-21.2,16.71-36.58,33.29-36.58,3.98,0,7.87,.89,11.56,2.63,.63,.3,.9,1.05,.6,1.67-.3,.64-1.05,.91-1.68,.6-3.35-1.58-6.88-2.38-10.48-2.38-14.93,0-27.63,13.78-30.59,32.96h61.19c-.81-5.28-2.39-10.22-4.68-14.73-.32-.62-.07-1.38,.55-1.69,.63-.31,1.38-.07,1.7,.55,2.63,5.16,4.36,10.87,5.14,16.97,.04,.36-.07,.72-.31,.99s-.58,.43-.95,.43Z"/>
      </g>
    </g>
    <g>
      <path class="cls-1" d="M192.1,159.61h34.44v3.67h-38.51v-55.81h37.32v3.67h-33.25v48.48Zm-.48-26.47h30.22v3.59h-30.22v-3.59Z"/>
      <path class="cls-1" d="M255.41,163.59c-3.88,0-7.37-.89-10.49-2.67-3.11-1.78-5.57-4.27-7.37-7.46s-2.71-6.86-2.71-11,.91-7.88,2.71-11.04,4.27-5.64,7.37-7.42c3.11-1.78,6.61-2.67,10.49-2.67,3.67,0,6.98,.85,9.93,2.55,2.95,1.7,5.29,4.12,7.01,7.26s2.59,6.91,2.59,11.32-.85,8.05-2.55,11.24c-1.7,3.19-4.03,5.64-6.98,7.34s-6.29,2.55-10.01,2.55Zm.24-3.59c3.19,0,6.04-.73,8.57-2.19,2.52-1.46,4.52-3.52,5.98-6.18,1.46-2.66,2.19-5.71,2.19-9.17s-.73-6.58-2.19-9.21c-1.46-2.63-3.46-4.68-5.98-6.14s-5.38-2.19-8.57-2.19-6.05,.73-8.57,2.19c-2.53,1.46-4.52,3.51-5.98,6.14-1.46,2.63-2.19,5.7-2.19,9.21s.73,6.51,2.19,9.17c1.46,2.66,3.46,4.72,5.98,6.18,2.52,1.46,5.38,2.19,8.57,2.19Zm16.82,3.27v-13.63l.72-7.26-.79-7.25v-31.02h3.98v59.16h-3.91Z"/>
      <path class="cls-1" d="M295.19,111.53c-.9,0-1.67-.32-2.31-.96-.64-.64-.96-1.38-.96-2.23,0-.9,.32-1.67,.96-2.31s1.41-.95,2.31-.95c.96,0,1.74,.3,2.35,.91s.92,1.37,.92,2.27-.3,1.67-.92,2.31c-.61,.64-1.4,.96-2.35,.96Zm-1.99,51.75v-41.62h3.99v41.62h-3.99Z"/>
      <path class="cls-1" d="M307.15,125.08v-3.43h24.87v3.43h-24.87Zm18.98,38.51c-3.67,0-6.47-1.01-8.41-3.03-1.94-2.02-2.91-4.78-2.91-8.29v-39.71h3.99v39.31c0,2.66,.66,4.7,1.99,6.14,1.33,1.43,3.24,2.15,5.74,2.15s4.76-.77,6.46-2.31l1.67,2.79c-1.06,1.01-2.35,1.76-3.87,2.23-1.52,.48-3.07,.72-4.66,.72Z"/>
      <path class="cls-1" d="M356.98,163.59c-3.08,0-5.75-.49-8.01-1.47-2.26-.98-3.98-2.38-5.18-4.19-1.2-1.8-1.79-3.88-1.79-6.22,0-2.13,.49-4.05,1.48-5.78,.98-1.73,2.61-3.14,4.9-4.23,2.28-1.09,5.34-1.64,9.17-1.64h15.31v3.11h-15.23c-4.31,0-7.32,.8-9.05,2.39-1.73,1.6-2.59,3.59-2.59,5.98,0,2.66,1.01,4.79,3.03,6.38,2.02,1.6,4.86,2.39,8.53,2.39s6.47-.8,8.89-2.39c2.42-1.59,4.21-3.91,5.38-6.94l1.12,2.71c-1.12,3.03-3.02,5.43-5.7,7.22s-6.1,2.67-10.25,2.67Zm14.99-.32v-9.49l-.16-1.43v-15.63c0-3.88-1.05-6.83-3.15-8.85-2.1-2.02-5.17-3.03-9.21-3.03-2.87,0-5.54,.49-8.01,1.48s-4.58,2.25-6.34,3.79l-1.99-2.87c2.07-1.86,4.57-3.31,7.49-4.35,2.92-1.03,5.98-1.55,9.17-1.55,5.16,0,9.12,1.3,11.88,3.91,2.76,2.61,4.15,6.49,4.15,11.64v26.39h-3.83Z"/>
      <path class="cls-1" d="M392.22,163.28v-41.62h3.83v11.4l-.4-1.28c1.17-3.35,3.13-5.92,5.9-7.73s6.22-2.71,10.37-2.71v3.91c-.16,0-.32-.01-.48-.04s-.32-.04-.48-.04c-4.62,0-8.24,1.45-10.84,4.34-2.61,2.9-3.91,6.92-3.91,12.08v21.69h-3.99Z"/>
      <path class="cls-1" d="M445.4,163.28v-55.81h20.01c4.68,0,8.69,.74,12.04,2.23,3.35,1.49,5.93,3.63,7.73,6.42,1.8,2.79,2.71,6.18,2.71,10.17s-.91,7.23-2.71,10.04c-1.81,2.82-4.39,4.97-7.73,6.46-3.35,1.49-7.36,2.23-12.04,2.23h-17.78l1.84-1.91v20.17h-4.07Zm4.07-19.93l-1.84-1.99h17.78c6.01,0,10.56-1.32,13.67-3.95,3.11-2.63,4.66-6.34,4.66-11.12s-1.55-8.57-4.66-11.2c-3.11-2.63-7.67-3.95-13.67-3.95h-17.78l1.84-1.99v34.2Z"/>
      <path class="cls-1" d="M499.07,163.28v-41.62h3.83v11.4l-.4-1.28c1.17-3.35,3.13-5.92,5.9-7.73,2.76-1.81,6.22-2.71,10.37-2.71v3.91c-.16,0-.32-.01-.48-.04s-.32-.04-.48-.04c-4.62,0-8.24,1.45-10.84,4.34-2.61,2.9-3.91,6.92-3.91,12.08v21.69h-3.99Z"/>
      <path class="cls-1" d="M545.63,163.59c-3.99,0-7.54-.9-10.64-2.71-3.11-1.81-5.58-4.31-7.42-7.49s-2.75-6.83-2.75-10.92,.92-7.8,2.75-10.97c1.83-3.16,4.31-5.65,7.42-7.45,3.11-1.81,6.66-2.71,10.64-2.71s7.55,.91,10.68,2.71c3.13,1.81,5.61,4.29,7.41,7.45,1.81,3.16,2.71,6.82,2.71,10.97s-.91,7.73-2.71,10.92c-1.81,3.19-4.28,5.69-7.41,7.49-3.14,1.81-6.7,2.71-10.68,2.71Zm0-3.59c3.19,0,6.06-.73,8.61-2.19,2.55-1.46,4.55-3.52,5.98-6.18,1.43-2.66,2.15-5.71,2.15-9.17s-.72-6.58-2.15-9.21-3.43-4.68-5.98-6.14c-2.55-1.46-5.42-2.19-8.61-2.19s-6.05,.73-8.57,2.19c-2.53,1.46-4.52,3.51-5.98,6.14-1.46,2.63-2.19,5.7-2.19,9.21s.73,6.51,2.19,9.17c1.46,2.66,3.46,4.72,5.98,6.18,2.52,1.46,5.38,2.19,8.57,2.19Z"/>
      <path class="cls-1" d="M588.13,163.28l-18.74-41.62h4.22l17.54,39.39h-1.91l17.7-39.39h4.07l-18.82,41.62h-4.07Z"/>
      <path class="cls-1" d="M635.41,163.59c-4.2,0-7.91-.9-11.12-2.71-3.22-1.81-5.74-4.31-7.58-7.49s-2.75-6.83-2.75-10.92,.86-7.8,2.59-10.97c1.73-3.16,4.11-5.65,7.13-7.45,3.03-1.81,6.43-2.71,10.21-2.71s7.16,.88,10.17,2.63c3,1.76,5.37,4.21,7.1,7.37,1.73,3.16,2.59,6.82,2.59,10.97,0,.16-.02,.33-.04,.52-.03,.19-.04,.39-.04,.6h-36.75v-3.11h34.6l-1.6,1.52c.05-3.24-.63-6.15-2.03-8.73s-3.31-4.6-5.7-6.06c-2.39-1.46-5.16-2.19-8.29-2.19s-5.83,.73-8.25,2.19c-2.42,1.46-4.32,3.48-5.7,6.06-1.38,2.58-2.07,5.52-2.07,8.81v.72c0,3.4,.76,6.42,2.27,9.05s3.6,4.68,6.26,6.14c2.66,1.46,5.69,2.19,9.09,2.19,2.66,0,5.14-.48,7.46-1.43,2.31-.96,4.26-2.42,5.86-4.39l2.31,2.63c-1.81,2.23-4.08,3.92-6.82,5.06s-5.7,1.71-8.89,1.71Z"/>
      <path class="cls-1" d="M683.01,163.59c-4.2,0-7.91-.9-11.12-2.71-3.22-1.81-5.74-4.31-7.58-7.49s-2.75-6.83-2.75-10.92,.86-7.8,2.59-10.97c1.73-3.16,4.11-5.65,7.13-7.45,3.03-1.81,6.43-2.71,10.21-2.71s7.16,.88,10.17,2.63c3,1.76,5.37,4.21,7.1,7.37,1.73,3.16,2.59,6.82,2.59,10.97,0,.16-.02,.33-.04,.52-.03,.19-.04,.39-.04,.6h-36.75v-3.11h34.6l-1.6,1.52c.05-3.24-.63-6.15-2.03-8.73s-3.31-4.6-5.7-6.06c-2.39-1.46-5.16-2.19-8.29-2.19s-5.83,.73-8.25,2.19c-2.42,1.46-4.32,3.48-5.7,6.06-1.38,2.58-2.07,5.52-2.07,8.81v.72c0,3.4,.76,6.42,2.27,9.05s3.6,4.68,6.26,6.14c2.66,1.46,5.69,2.19,9.09,2.19,2.66,0,5.14-.48,7.46-1.43,2.31-.96,4.26-2.42,5.86-4.39l2.31,2.63c-1.81,2.23-4.08,3.92-6.82,5.06s-5.7,1.71-8.89,1.71Z"/>
      <path class="cls-1" d="M729.73,163.59c-3.88,0-7.37-.89-10.49-2.67-3.11-1.78-5.57-4.27-7.37-7.46s-2.71-6.86-2.71-11,.91-7.88,2.71-11.04,4.27-5.64,7.37-7.42c3.11-1.78,6.61-2.67,10.49-2.67,3.67,0,6.98,.85,9.93,2.55,2.95,1.7,5.29,4.12,7.01,7.26,1.73,3.14,2.59,6.91,2.59,11.32s-.85,8.05-2.55,11.24c-1.7,3.19-4.03,5.64-6.98,7.34s-6.29,2.55-10.01,2.55Zm.24-3.59c3.19,0,6.04-.73,8.57-2.19,2.52-1.46,4.52-3.52,5.98-6.18,1.46-2.66,2.19-5.71,2.19-9.17s-.73-6.58-2.19-9.21c-1.46-2.63-3.46-4.68-5.98-6.14s-5.38-2.19-8.57-2.19-6.05,.73-8.57,2.19c-2.53,1.46-4.52,3.51-5.98,6.14-1.46,2.63-2.19,5.7-2.19,9.21s.73,6.51,2.19,9.17c1.46,2.66,3.46,4.72,5.98,6.18,2.52,1.46,5.38,2.19,8.57,2.19Zm16.82,3.27v-13.63l.72-7.26-.79-7.25v-31.02h3.98v59.16h-3.91Z"/>
      <path class="cls-1" d="M783.79,163.59c-3.99,0-7.54-.9-10.64-2.71-3.11-1.81-5.58-4.31-7.42-7.49-1.83-3.19-2.75-6.83-2.75-10.92s.92-7.8,2.75-10.97c1.83-3.16,4.31-5.65,7.42-7.45,3.11-1.81,6.66-2.71,10.64-2.71s7.55,.91,10.68,2.71c3.13,1.81,5.61,4.29,7.41,7.45,1.81,3.16,2.71,6.82,2.71,10.97s-.91,7.73-2.71,10.92-4.28,5.69-7.41,7.49c-3.14,1.81-6.7,2.71-10.68,2.71Zm0-3.59c3.19,0,6.06-.73,8.61-2.19,2.55-1.46,4.55-3.52,5.98-6.18s2.15-5.71,2.15-9.17-.72-6.58-2.15-9.21-3.43-4.68-5.98-6.14c-2.55-1.46-5.42-2.19-8.61-2.19s-6.05,.73-8.57,2.19c-2.53,1.46-4.52,3.51-5.98,6.14-1.46,2.63-2.19,5.7-2.19,9.21s.73,6.51,2.19,9.17c1.46,2.66,3.46,4.72,5.98,6.18,2.52,1.46,5.38,2.19,8.57,2.19Z"/>
      <path class="cls-1" d="M816.95,163.28v-41.62h3.83v11.4l-.4-1.28c1.17-3.35,3.13-5.92,5.9-7.73,2.76-1.81,6.22-2.71,10.37-2.71v3.91c-.16,0-.32-.01-.48-.04s-.32-.04-.48-.04c-4.62,0-8.24,1.45-10.84,4.34s-3.91,6.92-3.91,12.08v21.69h-3.99Z"/>
    </g>
  </g>
</svg>