<?xml version="1.0" encoding="utf-8"?>
<!-- Generator: Adobe Illustrator 24.3.0, SVG Export Plug-In . SVG Version: 6.00 Build 0)  -->
<svg version="1.1" id="Capa_1" xmlns="http://www.w3.org/2000/svg" xmlns:xlink="http://www.w3.org/1999/xlink" x="0px" y="0px"
	 viewBox="0 0 784.6 269" style="enable-background:new 0 0 784.6 269;" xml:space="preserve">
<style type="text/css">
	.st0{fill:#2E68B0;}
	.st1{fill:#FFFFFF;}
</style>
<path class="st0" d="M708.9,197.2H76.1c-34.4,0-62.2-27.9-62.2-62.2v0c0-34.4,27.9-62.2,62.2-62.2h632.9c34.4,0,62.2,27.9,62.2,62.2
	v0C771.1,169.3,743.3,197.2,708.9,197.2z"/>
<g>
	<g>
		<g>
			<g>
				<path class="st1" d="M118.7,158.4c-0.2,0-0.5-0.1-0.6-0.3c-0.2-0.2-0.3-0.6-0.2-0.9l2.8-8.4c0-0.1,0.1-0.2,0.2-0.3L145,124
					c0.2-0.2,0.4-0.3,0.6-0.3c0,0,0,0,0,0c0.2,0,0.5,0.1,0.6,0.3l6,6c0.3,0.3,0.3,0.9,0,1.2l-24.3,24.3c-0.1,0.1-0.2,0.2-0.4,0.2
					l-8.6,2.6C118.9,158.4,118.8,158.4,118.7,158.4z M122.3,149.6l-2.2,6.6l6.8-2l23.5-23.6l-4.7-4.7L122.3,149.6z M127.3,155
					L127.3,155L127.3,155z"/>
			</g>
			<g>
				<path class="st1" d="M147.6,135.5c-0.2,0-0.4-0.1-0.6-0.3l-5.8-5.8c-0.3-0.3-0.3-0.9,0-1.2c0.3-0.3,0.9-0.3,1.2,0l5.8,5.8
					c0.3,0.3,0.3,0.9,0,1.2C148.1,135.4,147.9,135.5,147.6,135.5z"/>
			</g>
			<g>
				<path class="st1" d="M128.4,154.7c-0.2,0-0.4-0.1-0.6-0.3l-5.8-5.8c-0.3-0.3-0.3-0.9,0-1.2c0.3-0.3,0.9-0.3,1.2,0l5.8,5.8
					c0.3,0.3,0.3,0.9,0,1.2C128.9,154.6,128.7,154.7,128.4,154.7z"/>
			</g>
		</g>
		<g>
			<g>
				<path class="st1" d="M117.7,133.6c-5.2,0-9.8-2.6-12.5-7c-1.4-2.3-2.1-4.9-2.1-7.6c0-8.1,6.6-14.7,14.7-14.7s14.7,6.6,14.7,14.7
					c0,2.7-0.7,5.3-2.1,7.6C127.5,130.9,122.8,133.6,117.7,133.6z M117.7,106c-7.1,0-12.9,5.8-12.9,12.9c0,2.4,0.6,4.7,1.9,6.7
					c2.4,3.9,6.5,6.2,11,6.2c4.5,0,8.7-2.3,11-6.2c1.2-2,1.9-4.3,1.9-6.7C130.6,111.8,124.8,106,117.7,106z"/>
			</g>
			<g>
				<path class="st1" d="M139.9,163.5H95.5c-0.3,0-0.5-0.1-0.7-0.3c-0.2-0.2-0.2-0.4-0.2-0.7c1.9-14.7,11.6-25.3,23.1-25.3
					c2.8,0,5.5,0.6,8,1.8c0.4,0.2,0.6,0.7,0.4,1.2c-0.2,0.4-0.7,0.6-1.2,0.4c-2.3-1.1-4.8-1.7-7.3-1.7c-10.3,0-19.1,9.5-21.2,22.8
					h42.4c-0.6-3.7-1.7-7.1-3.2-10.2c-0.2-0.4,0-1,0.4-1.2c0.4-0.2,1,0,1.2,0.4c1.8,3.6,3,7.5,3.6,11.8c0,0.2,0,0.5-0.2,0.7
					C140.4,163.4,140.1,163.5,139.9,163.5z"/>
			</g>
		</g>
	</g>
	<g>
		<path class="st1" d="M220.8,159.6v3.7h-38.4v-55.7h37.2v3.7h-33.2v22h29.7v3.6h-29.7v22.8H220.8z"/>
		<path class="st1" d="M270.5,104.3v59h-3.9v-9.8c-1.6,3.2-4,5.7-6.9,7.5c-3,1.7-6.3,2.6-10.1,2.6c-3.9,0-7.4-0.9-10.5-2.7
			c-3.1-1.8-5.6-4.3-7.4-7.5c-1.8-3.2-2.7-6.8-2.7-10.9c0-4.1,0.9-7.7,2.7-10.9c1.8-3.2,4.2-5.7,7.4-7.5c3.1-1.8,6.6-2.7,10.5-2.7
			c3.7,0,7,0.9,10,2.6c2.9,1.7,5.3,4.2,7,7.3v-27.1H270.5z M258.4,157.8c2.5-1.5,4.5-3.6,6-6.2c1.5-2.7,2.2-5.7,2.2-9.1
			c0-3.4-0.7-6.4-2.2-9.1c-1.5-2.7-3.4-4.7-6-6.2c-2.5-1.5-5.4-2.2-8.6-2.2c-3.2,0-6,0.7-8.6,2.2c-2.5,1.5-4.5,3.6-6,6.2
			c-1.5,2.7-2.2,5.7-2.2,9.1c0,3.4,0.7,6.4,2.2,9.1c1.5,2.7,3.4,4.7,6,6.2c2.5,1.5,5.4,2.2,8.6,2.2C253,160,255.9,159.3,258.4,157.8
			z"/>
		<path class="st1" d="M287,110.7c-0.6-0.6-1-1.4-1-2.3c0-0.9,0.3-1.7,1-2.3c0.6-0.6,1.4-1,2.3-1c0.9,0,1.7,0.3,2.3,0.9
			c0.6,0.6,1,1.4,1,2.3c0,0.9-0.3,1.7-1,2.3c-0.6,0.6-1.4,1-2.3,1C288.4,111.6,287.6,111.3,287,110.7z M287.3,121.8h4v41.5h-4V121.8
			z"/>
		<path class="st1" d="M328.7,160.6c-1,1-2.3,1.7-3.8,2.2c-1.5,0.5-3.1,0.8-4.7,0.8c-3.6,0-6.4-1-8.4-3c-2-2-2.9-4.8-2.9-8.3v-27.1
			h-7.6v-3.4h7.6v-9.1h4v9.1h13.2v3.4h-13.2v26.7c0,2.7,0.6,4.8,1.9,6.2c1.3,1.4,3.2,2.1,5.8,2.1c2.6,0,4.7-0.8,6.4-2.3L328.7,160.6
			z"/>
		<path class="st1" d="M365.6,125.4c2.8,2.6,4.1,6.5,4.1,11.6v26.3h-3.8v-7.4c-1.3,2.4-3.3,4.3-5.8,5.7c-2.5,1.4-5.6,2-9.1,2
			c-4.6,0-8.3-1.1-10.9-3.3c-2.7-2.2-4-5-4-8.6c0-3.4,1.2-6.2,3.7-8.4c2.5-2.1,6.4-3.2,11.8-3.2h14.2v-3.3c0-3.9-1-6.8-3.1-8.8
			c-2.1-2-5.2-3-9.2-3c-2.8,0-5.4,0.5-7.9,1.4c-2.5,1-4.7,2.2-6.4,3.8l-2-2.9c2.1-1.9,4.6-3.3,7.5-4.3c2.9-1,6-1.6,9.1-1.6
			C358.9,121.4,362.8,122.7,365.6,125.4z M360.3,157.9c2.4-1.6,4.2-3.9,5.4-6.9v-7.8h-14.2c-4.1,0-7,0.7-8.9,2.2
			c-1.8,1.5-2.7,3.5-2.7,6.1c0,2.7,1,4.8,3,6.4c2,1.6,4.9,2.3,8.5,2.3C355,160.3,357.9,159.5,360.3,157.9z"/>
		<path class="st1" d="M395.9,123.9c2.7-1.6,6-2.4,9.9-2.4v3.9l-1-0.1c-4.6,0-8.2,1.4-10.8,4.3c-2.6,2.9-3.9,6.9-3.9,12.1v21.6h-4
			v-41.5h3.8v9.1C391.2,127.8,393.2,125.5,395.9,123.9z"/>
		<path class="st1" d="M443.5,160.9c-3.2-1.8-5.7-4.3-7.5-7.5c-1.8-3.2-2.7-6.8-2.7-10.9c0-4.1,0.9-7.7,2.7-10.9
			c1.8-3.2,4.3-5.7,7.5-7.5c3.2-1.8,6.8-2.7,10.8-2.7c3.3,0,6.4,0.7,9.1,1.9c2.7,1.3,4.9,3.2,6.6,5.7l-2.9,2.1
			c-1.5-2.1-3.3-3.6-5.5-4.7s-4.6-1.6-7.3-1.6c-3.2,0-6.1,0.7-8.7,2.2c-2.6,1.5-4.6,3.5-6,6.2c-1.5,2.7-2.2,5.7-2.2,9.1
			c0,3.4,0.7,6.5,2.2,9.1c1.5,2.7,3.5,4.7,6,6.2c2.6,1.5,5.5,2.2,8.7,2.2c2.7,0,5.1-0.5,7.3-1.6s4-2.6,5.5-4.7l2.9,2.1
			c-1.7,2.5-3.9,4.4-6.6,5.7c-2.7,1.3-5.8,1.9-9.1,1.9C450.3,163.6,446.7,162.7,443.5,160.9z"/>
		<path class="st1" d="M481.3,104.3h4v59h-4V104.3z"/>
		<path class="st1" d="M501.8,110.7c-0.6-0.6-1-1.4-1-2.3c0-0.9,0.3-1.7,1-2.3c0.6-0.6,1.4-1,2.3-1c0.9,0,1.7,0.3,2.3,0.9
			c0.6,0.6,1,1.4,1,2.3c0,0.9-0.3,1.7-1,2.3c-0.6,0.6-1.4,1-2.3,1C503.2,111.6,502.4,111.3,501.8,110.7z M502.1,121.8h4v41.5h-4
			V121.8z"/>
		<path class="st1" d="M557.9,143.5h-35.7c0.1,3.2,0.9,6.1,2.5,8.6c1.5,2.5,3.6,4.5,6.2,5.8c2.6,1.4,5.6,2.1,8.9,2.1
			c2.7,0,5.2-0.5,7.5-1.5c2.3-1,4.2-2.4,5.8-4.3l2.3,2.6c-1.8,2.2-4.1,3.8-6.8,5c-2.7,1.2-5.7,1.8-8.9,1.8c-4.1,0-7.8-0.9-11.1-2.7
			c-3.2-1.8-5.8-4.3-7.6-7.5c-1.8-3.2-2.7-6.8-2.7-10.9c0-4,0.9-7.6,2.6-10.9c1.7-3.2,4.1-5.7,7.1-7.5c3-1.8,6.4-2.7,10.2-2.7
			c3.8,0,7.1,0.9,10.1,2.7c3,1.8,5.4,4.3,7.1,7.4c1.7,3.2,2.6,6.8,2.6,10.8L557.9,143.5z M530.3,126.9c-2.3,1.3-4.2,3.1-5.6,5.5
			c-1.4,2.4-2.2,5-2.4,8h31.8c-0.2-3-1-5.6-2.4-8c-1.4-2.3-3.3-4.2-5.6-5.5c-2.3-1.3-5-2-7.9-2C535.3,124.9,532.7,125.6,530.3,126.9
			z"/>
		<path class="st1" d="M603,126c3,3,4.5,7.4,4.5,13v24.3h-4v-23.9c0-4.7-1.2-8.2-3.5-10.7c-2.4-2.4-5.7-3.7-9.9-3.7
			c-4.9,0-8.7,1.5-11.5,4.4c-2.8,2.9-4.2,6.8-4.2,11.8v22.1h-4v-41.5h3.8v9c1.4-2.9,3.6-5.2,6.4-6.8c2.8-1.6,6.2-2.5,10.1-2.5
			C595.8,121.4,599.9,122.9,603,126z"/>
		<path class="st1" d="M644.5,160.6c-1,1-2.3,1.7-3.8,2.2c-1.5,0.5-3.1,0.8-4.7,0.8c-3.6,0-6.4-1-8.4-3c-2-2-2.9-4.8-2.9-8.3v-27.1
			H617v-3.4h7.6v-9.1h4v9.1h13.2v3.4h-13.2v26.7c0,2.7,0.6,4.8,1.9,6.2c1.3,1.4,3.2,2.1,5.8,2.1c2.6,0,4.7-0.8,6.4-2.3L644.5,160.6z
			"/>
		<path class="st1" d="M689.1,143.5h-35.7c0.1,3.2,0.9,6.1,2.5,8.6c1.5,2.5,3.6,4.5,6.2,5.8c2.6,1.4,5.6,2.1,8.9,2.1
			c2.7,0,5.2-0.5,7.5-1.5c2.3-1,4.2-2.4,5.8-4.3l2.3,2.6c-1.8,2.2-4.1,3.8-6.8,5c-2.7,1.2-5.7,1.8-8.9,1.8c-4.1,0-7.8-0.9-11.1-2.7
			c-3.2-1.8-5.8-4.3-7.6-7.5c-1.8-3.2-2.7-6.8-2.7-10.9c0-4,0.9-7.6,2.6-10.9c1.7-3.2,4.1-5.7,7.1-7.5c3-1.8,6.4-2.7,10.2-2.7
			c3.8,0,7.1,0.9,10.1,2.7c3,1.8,5.4,4.3,7.1,7.4c1.7,3.2,2.6,6.8,2.6,10.8L689.1,143.5z M661.5,126.9c-2.3,1.3-4.2,3.1-5.6,5.5
			c-1.4,2.4-2.2,5-2.4,8h31.8c-0.2-3-1-5.6-2.4-8c-1.4-2.3-3.3-4.2-5.6-5.5c-2.3-1.3-5-2-7.9-2C666.5,124.9,663.8,125.6,661.5,126.9
			z"/>
	</g>
</g>
</svg>
