<?xml version="1.0" encoding="utf-8"?>
<!-- Generator: Adobe Illustrator 24.0.0, SVG Export Plug-In . SVG Version: 6.00 Build 0)  -->
<svg version="1.1" id="Capa_1" xmlns="http://www.w3.org/2000/svg" xmlns:xlink="http://www.w3.org/1999/xlink" x="0px" y="0px"
	 viewBox="0 0 20 20" style="enable-background:new 0 0 20 20;" xml:space="preserve">
<style type="text/css">
	.st0{fill:#C6C6C6;}
</style>
<g>
	<path class="st0" d="M16.37,1.82c-1.32-1.09-2.98-1.59-4.69-1.43c-1.7,0.17-3.24,0.98-4.33,2.31C6.26,4.02,5.76,5.68,5.92,7.38
		c0.12,1.27,0.61,2.45,1.4,3.41L6.8,11.43l-0.15-0.12c-0.23-0.19-0.56-0.16-0.75,0.07l-1.11,1.34c0,0,0,0,0,0c0,0,0,0,0,0
		l-2.95,3.56c-0.35,0.43-0.52,0.97-0.46,1.52c0.06,0.55,0.33,1.05,0.76,1.39c0.38,0.3,0.83,0.45,1.28,0.45
		c0.58,0,1.15-0.24,1.55-0.72l4.17-4.85c0.09-0.11,0.14-0.25,0.13-0.39c-0.01-0.14-0.08-0.28-0.19-0.37l-0.08-0.07l0.56-0.69
		c0.85,0.41,1.78,0.62,2.74,0.62c0.21,0,0.42-0.01,0.63-0.03c1.7-0.16,3.24-0.98,4.33-2.31C19.49,8.11,19.09,4.06,16.37,1.82z
		 M6.38,12.47l0.12,0.1c0.01,0.01,0.02,0.03,0.03,0.04c0.01,0.01,0.03,0.02,0.05,0.03l1.28,1.05c0.01,0.01,0.02,0.03,0.03,0.04
		c0.02,0.01,0.03,0.02,0.05,0.03l0.03,0.03l-0.43,0.51l-1.58-1.3L6.38,12.47z M4.16,18.22c-0.35,0.4-0.94,0.46-1.36,0.13h0
		c-0.21-0.17-0.34-0.4-0.36-0.67c-0.03-0.26,0.05-0.52,0.22-0.73l2.61-3.15l1.57,1.29L4.16,18.22z M8.16,12.56l-0.54-0.44l0.45-0.55
		c0.05,0.05,0.1,0.1,0.16,0.14c0.13,0.1,0.26,0.2,0.39,0.29L8.16,12.56z M16.42,10.15c-0.91,1.1-2.19,1.78-3.61,1.92
		c-1.43,0.13-2.81-0.28-3.91-1.19C7.81,9.98,7.12,8.7,6.99,7.28C6.85,5.86,7.27,4.47,8.18,3.37c0.91-1.1,2.19-1.78,3.6-1.92
		c0.18-0.02,0.35-0.03,0.53-0.03c1.23,0,2.42,0.42,3.38,1.22C17.96,4.51,18.29,7.88,16.42,10.15z"/>
	<path class="st0" d="M15.17,3.27c-0.93-0.77-2.11-1.13-3.31-1.01c-1.2,0.12-2.29,0.7-3.06,1.63C8.03,4.82,7.68,6,7.79,7.2
		c0.12,1.2,0.7,2.29,1.63,3.06c0.84,0.69,1.86,1.03,2.87,1.03c1.31,0,2.61-0.56,3.5-1.65C17.38,7.71,17.1,4.86,15.17,3.27z
		 M14.97,8.96c-1.21,1.47-3.4,1.68-4.87,0.47C9.39,8.85,8.95,8.02,8.86,7.1C8.77,6.18,9.04,5.28,9.63,4.57
		c0.59-0.71,1.42-1.16,2.34-1.25c0.11-0.01,0.23-0.02,0.34-0.02c0.8,0,1.57,0.27,2.19,0.79C15.97,5.31,16.18,7.49,14.97,8.96z"/>
</g>
</svg>
