<?xml version="1.0" encoding="utf-8"?>
<!-- Generator: Adobe Illustrator 24.0.0, SVG Export Plug-In . SVG Version: 6.00 Build 0)  -->
<svg version="1.1" id="Capa_1" xmlns="http://www.w3.org/2000/svg" xmlns:xlink="http://www.w3.org/1999/xlink" x="0px" y="0px"
	 viewBox="0 0 20 20" style="enable-background:new 0 0 20 20;" xml:space="preserve">
<style type="text/css">
	.st0{fill:#006dd9;}
</style>
<path class="st0" d="M4.27,13.82l5.42,5.66l5.7-5.56c0.52-0.52,0.47-1.39-0.11-1.96c-0.56-0.55-1.42-0.59-1.94-0.06l-3.61,3.66
	l-3.64-3.6c-0.56-0.55-1.42-0.59-1.92-0.08C3.66,12.41,3.71,13.27,4.27,13.82z"/>
<path class="st0" d="M15.3,6.24L9.88,0.58l-5.7,5.56C3.66,6.67,3.71,7.53,4.29,8.1c0.56,0.55,1.42,0.59,1.94,0.06L9.83,4.5l3.64,3.6
	c0.56,0.55,1.42,0.59,1.92,0.08C15.91,7.65,15.86,6.79,15.3,6.24z"/>
</svg>
