<?xml version="1.0" encoding="utf-8"?>
<!-- Generator: Adobe Illustrator 24.0.0, SVG Export Plug-In . SVG Version: 6.00 Build 0)  -->
<svg version="1.1" id="Capa_1" xmlns="http://www.w3.org/2000/svg" xmlns:xlink="http://www.w3.org/1999/xlink" x="0px" y="0px"
	 viewBox="0 0 50 50" style="enable-background:new 0 0 50 50;" xml:space="preserve">
<style type="text/css">
	.st0{fill:#006dd9;}
</style>
<g>
	<g>
		<path class="st0" d="M25.06,32.53c-1.88,0-3.77-0.63-5.34-1.91c-3.58-2.95-4.1-8.26-1.15-11.84c2.94-3.58,8.25-4.1,11.84-1.15
			c3.58,2.95,4.1,8.26,1.15,11.84l0,0C29.9,31.49,27.49,32.53,25.06,32.53z M25.07,16.45c-2.22,0-4.42,0.95-5.94,2.8
			c-2.69,3.27-2.22,8.12,1.05,10.81c3.27,2.69,8.12,2.22,10.81-1.05s2.22-8.12-1.05-10.81C28.52,17.03,26.79,16.45,25.07,16.45z
			 M31.28,29.24L31.28,29.24L31.28,29.24z"/>
		<path class="st0" d="M20.37,27.3c-0.12,0-0.25-0.06-0.31-0.18c-1.02-1.71-1.1-3.79-0.22-5.58c0.09-0.18,0.31-0.25,0.49-0.17
			c0.18,0.09,0.26,0.31,0.17,0.49c-0.77,1.56-0.7,3.38,0.19,4.88c0.1,0.17,0.05,0.4-0.13,0.5C20.5,27.28,20.43,27.3,20.37,27.3z"/>
		<path class="st0" d="M25.06,29.97c-1,0-2-0.26-2.9-0.77c-0.18-0.1-0.24-0.32-0.14-0.5c0.1-0.18,0.32-0.24,0.5-0.14
			c1.63,0.94,3.64,0.9,5.24-0.1c0.17-0.11,0.4-0.05,0.5,0.12c0.11,0.17,0.05,0.4-0.12,0.5C27.21,29.67,26.14,29.97,25.06,29.97z"/>
		<path class="st0" d="M29.82,27.21c-0.06,0-0.12-0.02-0.18-0.05c-0.18-0.1-0.24-0.32-0.14-0.5c0.91-1.59,0.89-3.56-0.04-5.14
			c-0.1-0.17-0.05-0.4,0.13-0.5c0.17-0.1,0.4-0.05,0.5,0.13c1.07,1.8,1.09,4.06,0.05,5.88C30.07,27.14,29.94,27.21,29.82,27.21z"/>
		<path class="st0" d="M27.85,19.78c-0.06,0-0.13-0.02-0.19-0.05c-1.54-0.91-3.48-0.94-5.05-0.08c-0.18,0.1-0.4,0.03-0.5-0.14
			c-0.1-0.18-0.03-0.4,0.14-0.5c1.8-0.99,4.01-0.95,5.78,0.09c0.17,0.1,0.23,0.33,0.13,0.5C28.09,19.72,27.97,19.78,27.85,19.78z"/>
		<path class="st0" d="M12.89,41.4c-0.54,0-1.07-0.18-1.53-0.54l0,0c-0.52-0.41-0.84-1-0.9-1.66s0.13-1.3,0.55-1.81l5.56-6.7
			c0.13-0.15,0.36-0.18,0.51-0.05l3.32,2.73c0.08,0.06,0.12,0.15,0.13,0.25c0.01,0.1-0.02,0.2-0.09,0.27l-5.71,6.65
			C14.26,41.11,13.58,41.4,12.89,41.4z M16.91,31.44l-5.33,6.42c-0.3,0.36-0.43,0.81-0.39,1.27c0.05,0.46,0.27,0.87,0.63,1.16l0,0
			c0.72,0.58,1.76,0.48,2.37-0.22l5.47-6.37L16.91,31.44z"/>
		<path class="st0" d="M18.48,35.71c-0.08,0-0.16-0.03-0.23-0.08l-3.15-2.59c-0.16-0.13-0.18-0.36-0.05-0.52
			c0.13-0.16,0.36-0.18,0.51-0.05l3.15,2.59c0.16,0.13,0.18,0.36,0.05,0.52C18.7,35.66,18.59,35.71,18.48,35.71z"/>
		<path class="st0" d="M17.62,31.93c-0.08,0-0.16-0.03-0.23-0.08c-0.16-0.13-0.18-0.36-0.05-0.52l1.48-1.8
			c0.13-0.16,0.36-0.18,0.51-0.05c0.16,0.13,0.18,0.36,0.05,0.52l-1.48,1.8C17.83,31.89,17.73,31.93,17.62,31.93z"/>
		<path class="st0" d="M19.49,33.47c-0.08,0-0.16-0.03-0.23-0.08c-0.16-0.13-0.18-0.36-0.05-0.52l1.48-1.79
			c0.13-0.16,0.36-0.18,0.51-0.05c0.16,0.13,0.18,0.36,0.05,0.52l-1.48,1.79C19.7,33.42,19.59,33.47,19.49,33.47z"/>
		<g>
			<path class="st0" d="M19.94,29.34c-0.1,0-0.19-0.04-0.27-0.11c-0.14-0.15-0.13-0.38,0.02-0.52l10.01-9.44
				c0.15-0.14,0.38-0.13,0.52,0.02c0.14,0.15,0.13,0.38-0.01,0.52l-10.02,9.44C20.12,29.3,20.03,29.34,19.94,29.34z"/>
			<path class="st0" d="M29.93,29.36c-0.09,0-0.18-0.03-0.25-0.1l-9.97-9.48c-0.15-0.14-0.15-0.37-0.01-0.52
				c0.14-0.15,0.37-0.15,0.52-0.01l9.97,9.48c0.15,0.14,0.15,0.37,0.01,0.52C30.13,29.32,30.03,29.36,29.93,29.36z"/>
		</g>
	</g>
	<path class="st0" d="M43.53,44.69H6.6c-1.44,0-2.77-0.81-3.54-2.17c-0.9-1.59-0.89-3.55,0.04-5.11L21.56,6.34l0,0
		c0.78-1.31,2.09-2.09,3.5-2.09l0,0c1.41,0,2.72,0.78,3.5,2.09l18.47,31.07c0.93,1.57,0.95,3.52,0.04,5.11
		C46.29,43.88,44.97,44.69,43.53,44.69z M22.19,6.72L3.73,37.78c-0.8,1.34-0.81,3.02-0.04,4.38c0.65,1.14,1.71,1.8,2.9,1.8h36.93
		c1.19,0,2.25-0.65,2.9-1.8c0.77-1.36,0.76-3.04-0.04-4.38L27.93,6.72c-0.66-1.1-1.7-1.74-2.87-1.74l0,0
		C23.89,4.98,22.85,5.61,22.19,6.72L22.19,6.72z"/>
</g>
</svg>
