<?xml version="1.0" encoding="utf-8"?>
<!-- Generator: Adobe Illustrator 24.0.0, SVG Export Plug-In . SVG Version: 6.00 Build 0)  -->
<svg version="1.1" id="Capa_1" xmlns="http://www.w3.org/2000/svg" xmlns:xlink="http://www.w3.org/1999/xlink" x="0px" y="0px"
	 viewBox="0 0 20 20" style="enable-background:new 0 0 20 20;" xml:space="preserve">
<style type="text/css">
	.st0{fill:#006dd9;}
</style>
<path class="st0" d="M15.31,15.98l-5.46-5.62l-5.67,5.52c-0.52,0.52-0.47,1.39,0.11,1.96c0.56,0.55,1.42,0.59,1.94,0.06l3.61-3.66
	l3.64,3.6c0.56,0.55,1.42,0.59,1.92,0.08C15.91,17.39,15.86,16.53,15.31,15.98z"/>
<path class="st0" d="M4.39,4.32l5.46,5.62l5.67-5.52c0.52-0.52,0.47-1.39-0.11-1.96c-0.56-0.55-1.42-0.59-1.94-0.06L9.86,6.06
	l-3.64-3.6C5.66,1.91,4.8,1.88,4.3,2.39C3.78,2.91,3.83,3.77,4.39,4.32z"/>
</svg>
