<?xml version="1.0" encoding="utf-8"?>
<!-- Generator: Adobe Illustrator 24.0.0, SVG Export Plug-In . SVG Version: 6.00 Build 0)  -->
<svg version="1.1" id="Capa_1" xmlns="http://www.w3.org/2000/svg" xmlns:xlink="http://www.w3.org/1999/xlink" x="0px" y="0px"
	 viewBox="0 0 20 20" style="enable-background:new 0 0 20 20;" xml:space="preserve">
<style type="text/css">
	.st0{fill:none;stroke:#15589B;stroke-width:0.5;stroke-linecap:round;stroke-linejoin:round;stroke-miterlimit:10;}
</style>
<g>
	<g>
		<path class="st0" d="M7.93,8.95v6.98L5,13.01c-0.38-0.38-0.99-0.38-1.37,0c-0.19,0.19-0.28,0.44-0.28,0.69
			c0,0.25,0.09,0.5,0.28,0.69l4.59,4.58c0.02,0.02,0.05,0.04,0.07,0.06c0.01,0.01,0.02,0.02,0.03,0.03
			c0.01,0.01,0.03,0.02,0.04,0.03c0.01,0.01,0.03,0.02,0.04,0.03c0.01,0.01,0.03,0.02,0.04,0.02c0.01,0.01,0.03,0.01,0.05,0.02
			c0.01,0.01,0.03,0.01,0.04,0.02c0.01,0.01,0.03,0.01,0.04,0.02c0.02,0.01,0.03,0.01,0.05,0.02c0.01,0,0.03,0.01,0.05,0.01
			c0.02,0,0.03,0.01,0.05,0.01c0.02,0,0.04,0.01,0.05,0.01c0.01,0,0.03,0,0.04,0.01c0.06,0.01,0.13,0.01,0.19,0
			c0.01,0,0.03,0,0.04-0.01c0.02,0,0.04,0,0.05-0.01c0.02,0,0.03-0.01,0.05-0.01c0.02,0,0.03-0.01,0.05-0.01
			c0.02,0,0.03-0.01,0.05-0.02c0.01-0.01,0.03-0.01,0.04-0.02c0.01-0.01,0.03-0.01,0.04-0.02c0.02-0.01,0.03-0.01,0.05-0.02
			c0.01-0.01,0.03-0.02,0.04-0.02c0.01-0.01,0.03-0.02,0.04-0.03c0.01-0.01,0.03-0.02,0.04-0.03c0.01-0.01,0.02-0.02,0.03-0.03
			c0.02-0.02,0.05-0.04,0.07-0.06l4.59-4.61c0.38-0.38,0.38-0.99,0-1.37c-0.38-0.38-0.99-0.38-1.37,0l-2.93,2.95L9.85,4.09
			L6.92,7.04c-0.38,0.38-0.99,0.38-1.37,0c-0.38-0.38-0.38-0.99,0-1.37l4.59-4.61c0.02-0.02,0.05-0.04,0.07-0.06
			c0.01-0.01,0.02-0.02,0.03-0.03c0.01-0.01,0.03-0.02,0.04-0.03c0.01-0.01,0.03-0.02,0.04-0.03c0.01-0.01,0.03-0.02,0.04-0.02
			c0.01-0.01,0.03-0.01,0.05-0.02c0.01-0.01,0.03-0.01,0.04-0.02c0.01-0.01,0.03-0.01,0.04-0.02c0.02-0.01,0.03-0.01,0.05-0.02
			c0.01,0,0.03-0.01,0.05-0.01c0.02,0,0.03-0.01,0.05-0.01c0.02,0,0.04-0.01,0.05-0.01c0.01,0,0.03,0,0.04-0.01
			c0.06-0.01,0.13-0.01,0.19,0c0.01,0,0.03,0,0.04,0.01c0.02,0,0.04,0,0.05,0.01c0.02,0,0.03,0.01,0.05,0.01
			c0.02,0,0.03,0.01,0.05,0.01c0.02,0,0.03,0.01,0.05,0.02c0.01,0.01,0.03,0.01,0.04,0.02c0.01,0.01,0.03,0.01,0.04,0.02
			c0.02,0.01,0.03,0.01,0.05,0.02c0.01,0.01,0.03,0.02,0.04,0.02c0.01,0.01,0.03,0.02,0.04,0.03c0.01,0.01,0.03,0.02,0.04,0.03
			c0.01,0.01,0.02,0.02,0.03,0.03c0.02,0.02,0.05,0.04,0.07,0.06l4.59,4.58c0.19,0.19,0.28,0.44,0.28,0.69
			c0,0.25-0.09,0.5-0.28,0.69c-0.38,0.38-0.99,0.38-1.37,0L11.8,4.09v6.98"/>
	</g>
</g>
</svg>
