<svg id="Capa_1" data-name="Capa 1" xmlns="http://www.w3.org/2000/svg" viewBox="0 0 501.15 393.46"><defs><style>.cls-1{fill:none;}.cls-2{fill:#006dd9;}</style></defs><path class="cls-1" d="M452.94,226.92h81.14v-3.63l-96.45-97.24h-2.54v83.06A17.85,17.85,0,0,0,452.94,226.92Z" transform="translate(-46.89 -112.12)"/><path class="cls-2" d="M395.9,310.72a5.54,5.54,0,0,1-1.86,4.15L309.85,389.3a5.53,5.53,0,0,1-9.2-4.15l0-33-73.57.24a5.52,5.52,0,0,1-5.55-5.51v0a5.54,5.54,0,0,1,5.51-5.53l79.12-.25a5.6,5.6,0,0,1,3.92,1.6,5.54,5.54,0,0,1,1.62,3.92l0,26.27L382,310.74,311.25,249l.15,26.1a4.7,4.7,0,0,1-1.6,3.93,5.54,5.54,0,0,1-3.9,1.64l-79.14.26a5.52,5.52,0,0,1-5.55-5.51v0a5.52,5.52,0,0,1,5.5-5.53l73.6-.23-.2-32.82a5.92,5.92,0,0,1,3.22-5.07,5.54,5.54,0,0,1,5.94.86l84.73,74a5.52,5.52,0,0,1,1.9,4.15Z" transform="translate(-46.89 -112.12)"/><path class="cls-1" d="M435.09,126.05v83.06a17.85,17.85,0,0,0,17.85,17.81h81.14v-3.63l-96.45-97.24Z" transform="translate(-46.89 -112.12)"/><path class="cls-2" d="M546,214.72,445.44,114.13a7.55,7.55,0,0,0-5-2s-8.88.22-12.17.22H264.86a33,33,0,0,0-33,33v103h13.7v-103a19.29,19.29,0,0,1,19.26-19.29H421.38v83.06a31.57,31.57,0,0,0,31.56,31.52h81.14v232a19.29,19.29,0,0,1-19.26,19.29h-250a19.29,19.29,0,0,1-19.26-19.29V376.86H231.9v95.73a33,33,0,0,0,33,33h250a33,33,0,0,0,33-33V234.32c0-.2.22-.32.22-.53V219.55A6.78,6.78,0,0,0,546,214.72Zm-11.92,12.2H452.94a17.85,17.85,0,0,1-17.85-17.81V126.05h2.54l96.45,97.24Z" transform="translate(-46.89 -112.12)"/><path class="cls-2" d="M141.63,433.62H117.9a5.94,5.94,0,0,1-6-5.94V404.89C76.84,399.72,55,381.1,47.07,349.51a5.93,5.93,0,0,1,4.44-7.24L92.28,333a5.9,5.9,0,0,1,7.07,4.27C103.28,352.1,113.6,359,131.85,359c8.7,0,15.07-1.53,18.94-4.54,4.67-3.6,5.21-7,5.21-9.22a8.9,8.9,0,0,0-4.1-8c-2.59-1.78-8.84-4.53-23.9-7.5-29.75-6.13-48.62-14.46-57.73-25.5A58.27,58.27,0,0,1,56.69,266c0-16.94,5.72-31.61,17-43.6C83.76,211.71,96.61,204.86,112,202V183.68a5.94,5.94,0,0,1,6-5.94h23.73a5.94,5.94,0,0,1,5.94,5.94v17.85c29.87,4.28,49.88,20.08,59.53,47a6,6,0,0,1-3.72,7.65L166,268.63a5.92,5.92,0,0,1-7.51-3.72c-4.22-12.43-12.65-18.21-26.55-18.21-20.14,0-20.14,7.68-20.14,11a9.25,9.25,0,0,0,3,7.16c1.11,1.07,5.15,3.8,19.14,6.56,19.84,4,34,8,43.44,12.13a59.54,59.54,0,0,1,25,21.22,56.66,56.66,0,0,1,10.18,32.9c0,16.48-6,31.51-17.72,44.68C184.07,394.5,168.16,402.1,147.57,405v22.73A5.94,5.94,0,0,1,141.63,433.62Zm-17.79-11.89h11.85V399.66a6,6,0,0,1,5.37-5.92c20.14-1.91,35.27-8.42,45-19.35,9.9-11.08,14.71-23.1,14.71-36.76a44.51,44.51,0,0,0-8.08-26.15,47.84,47.84,0,0,0-20-17.11c-8.48-3.74-22.26-7.55-41-11.33-12.88-2.55-20.84-5.61-25-9.62A21.25,21.25,0,0,1,100,257.66c0-8.53,4.17-22.84,32-22.84,16.77,0,29,7.16,35.56,20.78l26.08-8.69c-9.33-20.53-26.58-31.73-52.55-34.18a5.94,5.94,0,0,1-5.38-5.92V189.62H123.84v17.49a5.94,5.94,0,0,1-5.22,5.9c-15.05,1.84-26.91,7.58-36.26,17.55S68.57,252,68.57,266c0,11.85,3.55,21.89,10.85,30.67,5,6,17.83,14.62,50.93,21.44,13.83,2.72,23.1,5.79,28.29,9.35a20.76,20.76,0,0,1,9.24,17.8c0,7.23-3.39,13.67-9.81,18.61-6.07,4.72-14.65,7-26.22,7-25.85,0-37.25-12.66-42.2-25.17l-29.34,6.71c8.25,24.51,27.35,38,58.21,41.3a6,6,0,0,1,5.32,5.91Z" transform="translate(-46.89 -112.12)"/></svg>