<?xml version="1.0" encoding="utf-8"?>
<!-- Generator: Adobe Illustrator 24.0.0, SVG Export Plug-In . SVG Version: 6.00 Build 0)  -->
<svg version="1.1" id="Capa_1" xmlns="http://www.w3.org/2000/svg" xmlns:xlink="http://www.w3.org/1999/xlink" x="0px" y="0px"
	 viewBox="0 0 30 30" style="enable-background:new 0 0 30 30;" xml:space="preserve">
<style type="text/css">
	.st0{fill:#006dd9;}
</style>
<g>
	<path class="st0" d="M29.07,13.62l-3.13-3.13c-0.07-0.07-0.16-0.11-0.26-0.11h0c-0.1,0-0.19,0.04-0.26,0.11L12.78,23.34
		c-0.04,0.04-0.07,0.09-0.09,0.14l-1.48,4.38c-0.04,0.13-0.01,0.28,0.08,0.38c0.07,0.07,0.17,0.11,0.27,0.11
		c0.04,0,0.07,0,0.11-0.02L16.19,27c0.06-0.02,0.11-0.05,0.16-0.09l0.59-0.59c0,0,0,0,0,0c0,0,0,0,0,0l10-10.04
		c0.02-0.01,0.05-0.01,0.07-0.03c0.02-0.02,0.01-0.05,0.03-0.07l2.03-2.03C29.21,13.99,29.21,13.76,29.07,13.62z M16.68,25.52
		L14.15,23l9.46-9.63l2.59,2.59L16.68,25.52z M12.14,27.42l1.22-3.63l0.27-0.27l2.52,2.52l-0.27,0.27L12.14,27.42z M26.73,15.43
		l-2.6-2.6l1.54-1.57l2.61,2.61L26.73,15.43z"/>
	<path class="st0" d="M9.21,24.48h-4.7c-1.09,0-1.98-0.89-1.98-1.98V7.19h24.34v2.76c0,0.2,0.17,0.37,0.37,0.37s0.37-0.17,0.37-0.37
		v-4.7c0-1.5-1.22-2.72-2.72-2.72H4.51c-1.5,0-2.72,1.22-2.72,2.72V22.5c0,1.5,1.22,2.72,2.72,2.72h4.7c0.2,0,0.37-0.17,0.37-0.37
		S9.42,24.48,9.21,24.48z M4.51,3.28h20.37c1.09,0,1.98,0.89,1.98,1.98v1.2H2.53v-1.2C2.53,4.16,3.42,3.28,4.51,3.28z"/>
	<path class="st0" d="M5.3,14.25H10c0.2,0,0.37-0.17,0.37-0.37V9.96c0-0.2-0.17-0.37-0.37-0.37H5.3c-0.2,0-0.37,0.17-0.37,0.37v3.92
		C4.93,14.08,5.09,14.25,5.3,14.25z M5.67,10.33h3.96v3.18H5.67V10.33z"/>
	<path class="st0" d="M21.34,10.74c0-0.2-0.17-0.37-0.37-0.37h-7.84c-0.2,0-0.37,0.17-0.37,0.37s0.17,0.37,0.37,0.37h7.84
		C21.17,11.11,21.34,10.95,21.34,10.74z"/>
	<path class="st0" d="M5.3,17.38h10.19c0.2,0,0.37-0.17,0.37-0.37s-0.17-0.37-0.37-0.37H5.3c-0.2,0-0.37,0.17-0.37,0.37
		S5.09,17.38,5.3,17.38z"/>
	<path class="st0" d="M18.2,13.88c0-0.2-0.17-0.37-0.37-0.37h-4.7c-0.2,0-0.37,0.17-0.37,0.37s0.17,0.37,0.37,0.37h4.7
		C18.04,14.25,18.2,14.08,18.2,13.88z"/>
</g>
</svg>
