<?xml version="1.0" encoding="utf-8"?>
<!-- Generator: Adobe Illustrator 24.0.0, SVG Export Plug-In . SVG Version: 6.00 Build 0)  -->
<svg version="1.1" id="Capa_1" xmlns="http://www.w3.org/2000/svg" xmlns:xlink="http://www.w3.org/1999/xlink" x="0px" y="0px"
	 viewBox="0 0 30 30" style="enable-background:new 0 0 30 30;" xml:space="preserve">
<style type="text/css">
	.st0{fill:#006dd9;}
</style>
<g>
	<path class="st0" d="M25.05,29.14c-0.15,0-0.3-0.03-0.43-0.1l-7.32-3.49c-0.71,0.1-1.44,0.15-2.16,0.15
		c-7.76,0-14.08-5.6-14.08-12.49c0-6.89,6.31-12.49,14.08-12.49s14.08,5.6,14.08,12.49c0,2.98-1.19,5.85-3.37,8.11l0.2,6.79
		c0.01,0.35-0.16,0.68-0.45,0.87C25.43,29.08,25.25,29.14,25.05,29.14z M17.38,24.66c0.07,0,0.13,0.01,0.19,0.04l7.49,3.56
		c0.02,0,0.05-0.01,0.07-0.02c0.03-0.02,0.05-0.06,0.05-0.1l-0.21-6.98c0-0.12,0.04-0.24,0.13-0.32c2.09-2.11,3.25-4.82,3.25-7.63
		c0-6.4-5.92-11.61-13.2-11.61c-7.28,0-13.2,5.21-13.2,11.61c0,6.4,5.92,11.61,13.2,11.61c0.73,0,1.46-0.05,2.17-0.16
		C17.33,24.66,17.35,24.66,17.38,24.66z"/>
</g>
</svg>
