<?xml version="1.0" encoding="utf-8"?>
<!-- Generator: Adobe Illustrator 24.0.0, SVG Export Plug-In . SVG Version: 6.00 Build 0)  -->
<svg version="1.1" id="Capa_1" xmlns="http://www.w3.org/2000/svg" xmlns:xlink="http://www.w3.org/1999/xlink" x="0px" y="0px"
	 viewBox="0 0 30 30" style="enable-background:new 0 0 30 30;" xml:space="preserve">
<style type="text/css">
	.st0{fill:#006dd9;}
</style>
<path class="st0" d="M16.4,13.3H3.9c-0.8,0-1.4-0.6-1.4-1.4v-5c0-0.8,0.6-1.4,1.4-1.4h12.5c0.8,0,1.4,0.6,1.4,1.4v5
	C17.8,12.6,17.2,13.3,16.4,13.3z M3.9,6C3.5,6,3.1,6.4,3.1,6.9v5c0,0.5,0.4,0.8,0.8,0.8h12.5c0.5,0,0.8-0.4,0.8-0.8v-5
	c0-0.5-0.4-0.8-0.8-0.8L3.9,6L3.9,6z"/>
<path class="st0" d="M26.3,24.5H13.9c-0.8,0-1.4-0.6-1.4-1.4v-5c0-0.8,0.6-1.4,1.4-1.4h12.5c0.8,0,1.4,0.6,1.4,1.4v5
	C27.8,23.8,27.1,24.5,26.3,24.5z M13.9,17.2c-0.5,0-0.8,0.4-0.8,0.8v5c0,0.5,0.4,0.8,0.8,0.8h12.5c0.5,0,0.8-0.4,0.8-0.8v-5
	c0-0.5-0.4-0.8-0.8-0.8H13.9z"/>
<path class="st0" d="M11.7,21H8.2c-0.5,0-0.9-0.4-0.9-0.9v-6.3c0-0.2,0.1-0.3,0.3-0.3c0.2,0,0.3,0.1,0.3,0.3v6.3
	c0,0.2,0.1,0.3,0.3,0.3h3.5c0.2,0,0.3,0.1,0.3,0.3C12,20.9,11.9,21,11.7,21z"/>
</svg>
