<?xml version="1.0" encoding="utf-8"?>
<!-- Generator: Adobe Illustrator 24.0.0, SVG Export Plug-In . SVG Version: 6.00 Build 0)  -->
<svg version="1.1" id="Capa_1" xmlns="http://www.w3.org/2000/svg" xmlns:xlink="http://www.w3.org/1999/xlink" x="0px" y="0px"
	 viewBox="0 0 30 30" style="enable-background:new 0 0 30 30;" xml:space="preserve">
<style type="text/css">
	.st0{fill:#006dd9;}
</style>
<path class="st0" d="M16.96,28.98h-3.79c-0.17,0-0.32-0.12-0.36-0.28l-0.59-2.34c-1.08-0.27-2.11-0.7-3.06-1.27l-2.08,1.24
	c-0.15,0.09-0.33,0.06-0.46-0.06l-2.68-2.68c-0.12-0.12-0.14-0.31-0.06-0.46l1.24-2.08c-0.57-0.96-1-1.99-1.27-3.06L1.52,17.4
	c-0.17-0.04-0.28-0.19-0.28-0.36v-3.79c0-0.17,0.12-0.32,0.28-0.36l2.34-0.59c0.27-1.08,0.7-2.11,1.27-3.07L3.89,7.16
	C3.8,7.01,3.83,6.82,3.95,6.7l2.68-2.68C6.75,3.9,6.94,3.88,7.08,3.97l2.08,1.24c0.96-0.57,1.99-1,3.06-1.27l0.59-2.34
	c0.04-0.17,0.19-0.28,0.36-0.28h3.79c0.17,0,0.32,0.12,0.36,0.28l0.59,2.34c1.08,0.27,2.11,0.7,3.07,1.27l2.08-1.24
	c0.15-0.09,0.33-0.07,0.46,0.06l2.68,2.68c0.12,0.12,0.14,0.31,0.06,0.46l-1.24,2.07c0.57,0.96,1,1.99,1.27,3.07l2.34,0.59
	c0.17,0.04,0.28,0.19,0.28,0.36v3.79c0,0.17-0.12,0.32-0.28,0.36l-2.34,0.59c-0.27,1.08-0.7,2.11-1.27,3.06l1.24,2.08
	c0.09,0.15,0.06,0.33-0.06,0.46l-2.68,2.68c-0.12,0.12-0.31,0.14-0.46,0.06l-2.08-1.24c-0.96,0.57-1.99,1-3.07,1.27l-0.59,2.34
	C17.28,28.87,17.13,28.98,16.96,28.98z M13.47,28.24h3.21l0.57-2.28c0.03-0.14,0.14-0.24,0.28-0.27c1.15-0.27,2.25-0.72,3.26-1.35
	c0.12-0.07,0.27-0.08,0.39,0l2.02,1.21l2.27-2.27l-1.21-2.02c-0.07-0.12-0.07-0.27,0-0.39c0.63-1.01,1.08-2.1,1.35-3.26
	c0.03-0.14,0.14-0.24,0.27-0.28l2.28-0.58v-3.21l-2.28-0.57c-0.14-0.03-0.24-0.14-0.27-0.28c-0.27-1.15-0.72-2.25-1.35-3.26
	c-0.07-0.12-0.08-0.27,0-0.39l1.21-2.02l-2.27-2.27l-2.02,1.21c-0.12,0.07-0.27,0.07-0.39,0c-1.01-0.63-2.11-1.08-3.26-1.35
	c-0.14-0.03-0.24-0.14-0.28-0.27l-0.57-2.28h-3.21l-0.58,2.28c-0.03,0.14-0.14,0.24-0.28,0.27c-1.15,0.27-2.25,0.72-3.26,1.35
	c-0.12,0.07-0.27,0.07-0.39,0L6.95,4.76L4.68,7.03l1.21,2.02c0.07,0.12,0.07,0.27,0,0.39c-0.63,1.01-1.09,2.11-1.35,3.26
	c-0.03,0.14-0.14,0.24-0.27,0.28l-2.28,0.57v3.21l2.28,0.58c0.14,0.03,0.24,0.14,0.27,0.28c0.27,1.15,0.72,2.25,1.35,3.26
	c0.07,0.12,0.08,0.27,0,0.39l-1.21,2.02l2.27,2.27l2.02-1.21c0.12-0.07,0.27-0.07,0.39,0c1.01,0.63,2.1,1.08,3.26,1.35
	c0.14,0.03,0.24,0.14,0.28,0.27L13.47,28.24z"/>
<path class="st0" d="M15.07,21.5c-3.5,0-6.36-2.85-6.36-6.36c0-3.5,2.85-6.36,6.36-6.36c1.5,0,2.95,0.53,4.1,1.5
	c0.16,0.13,0.18,0.37,0.05,0.53c-0.13,0.16-0.37,0.18-0.53,0.04c-1.01-0.85-2.29-1.32-3.61-1.32c-3.09,0-5.61,2.52-5.61,5.61
	c0,3.09,2.52,5.61,5.61,5.61c3.09,0,5.61-2.52,5.61-5.61c0-0.21,0.17-0.37,0.37-0.37s0.37,0.17,0.37,0.37
	C21.43,18.65,18.57,21.5,15.07,21.5z"/>
<path class="st0" d="M15.07,19.06c-2.16,0-3.92-1.76-3.92-3.92c0-0.92,0.33-1.82,0.92-2.52c0.13-0.16,0.37-0.18,0.53-0.04
	c0.16,0.13,0.18,0.37,0.04,0.53c-0.48,0.57-0.74,1.29-0.74,2.04c0,1.75,1.42,3.17,3.17,3.17s3.17-1.42,3.17-3.17
	s-1.42-3.17-3.17-3.17c-0.21,0-0.37-0.17-0.37-0.37s0.17-0.37,0.37-0.37c2.16,0,3.92,1.76,3.92,3.92
	C18.98,17.31,17.23,19.06,15.07,19.06z"/>
</svg>
