<?xml version="1.0" encoding="utf-8"?>
<!-- Generator: Adobe Illustrator 24.0.0, SVG Export Plug-In . SVG Version: 6.00 Build 0)  -->
<svg version="1.1" id="Capa_1" xmlns="http://www.w3.org/2000/svg" xmlns:xlink="http://www.w3.org/1999/xlink" x="0px" y="0px"
	 viewBox="0 0 30 30" style="enable-background:new 0 0 30 30;" xml:space="preserve">
<style type="text/css">
	.st0{fill:#006dd9;}
</style>
<path class="st0" d="M15.03,29.38c-0.13,0-0.24-0.06-0.31-0.17l-2.81-4.17H4.16c-1.3,0-2.35-1.05-2.35-2.35V3.44
	c0-1.3,1.05-2.35,2.35-2.35H25.9c1.3,0,2.35,1.05,2.35,2.35V22.7c0,1.3-1.05,2.35-2.35,2.35h-7.75l-2.81,4.17
	C15.27,29.32,15.15,29.38,15.03,29.38z M4.16,1.84c-0.88,0-1.6,0.72-1.6,1.6V22.7c0,0.88,0.72,1.6,1.6,1.6h7.95
	c0.13,0,0.24,0.06,0.31,0.17l2.61,3.87l2.61-3.87c0.07-0.1,0.19-0.17,0.31-0.17h7.95c0.88,0,1.6-0.72,1.6-1.6V3.44
	c0-0.88-0.72-1.6-1.6-1.6H4.16z"/>
<g>
	<path class="st0" d="M15.03,12.73c-1.47,0-2.81-0.75-3.57-2.01c-0.4-0.65-0.61-1.4-0.61-2.17c0-2.31,1.88-4.18,4.18-4.18
		c2.31,0,4.18,1.88,4.18,4.18c0,0.77-0.21,1.52-0.61,2.17C17.83,11.98,16.5,12.73,15.03,12.73z M15.03,5.12
		c-1.89,0-3.42,1.54-3.42,3.43c0,0.63,0.17,1.25,0.5,1.78c0.63,1.03,1.72,1.65,2.93,1.65s2.3-0.62,2.93-1.65
		c0.33-0.54,0.5-1.15,0.5-1.78C18.45,6.66,16.91,5.12,15.03,5.12z"/>
	<path class="st0" d="M21.15,20.99H8.9c-0.11,0-0.21-0.05-0.28-0.13c-0.07-0.08-0.1-0.19-0.09-0.3c0.53-4.12,3.26-7.11,6.5-7.11
		c3.24,0,5.97,2.99,6.5,7.11c0.01,0.11-0.02,0.22-0.09,0.3C21.36,20.95,21.26,20.99,21.15,20.99z M9.34,20.24h11.37
		c-0.6-3.52-2.94-6.03-5.69-6.03C12.28,14.21,9.94,16.72,9.34,20.24z"/>
</g>
</svg>
