<?xml version="1.0" encoding="utf-8"?>
<!-- Generator: Adobe Illustrator 24.0.0, SVG Export Plug-In . SVG Version: 6.00 Build 0)  -->
<svg version="1.1" id="Capa_1" xmlns="http://www.w3.org/2000/svg" xmlns:xlink="http://www.w3.org/1999/xlink" x="0px" y="0px"
	 viewBox="0 0 30 30" style="enable-background:new 0 0 30 30;" xml:space="preserve">
<style type="text/css">
	.st0{fill:#006dd9;}
</style>
<g>
	<path class="st0" d="M29.39,15.07c0-0.01-0.02-0.1-0.02-0.11l-0.04-0.13c0-0.01-0.05-0.12-0.05-0.13
		c-0.01-0.01-0.04-0.07-0.04-0.08l-0.06-0.1c0,0-0.08-0.11-0.09-0.12c-0.03-0.04-0.07-0.08-0.1-0.11l-5.1-5.09
		c-0.54-0.54-1.49-0.54-2.03,0c-0.27,0.27-0.42,0.63-0.42,1.01c0,0.38,0.15,0.74,0.42,1.01l2.65,2.64L9.39,13.89
		c-0.2,0-0.36,0.16-0.36,0.36c0,0.2,0.16,0.36,0.36,0.36h0l15.98-0.03c0.15,0,0.27-0.09,0.33-0.22c0.05-0.13,0.02-0.29-0.08-0.39
		l-3.27-3.25c-0.14-0.14-0.21-0.32-0.21-0.51c0-0.19,0.08-0.37,0.21-0.51c0.27-0.27,0.75-0.27,1.02,0l5.15,5.14
		c0.01,0.01,0.06,0.09,0.07,0.1c0,0.01,0.03,0.08,0.04,0.08l0.03,0.09l0.02,0.1c0.01,0.05,0.01,0.1,0,0.14c0,0-0.02,0.09-0.02,0.09
		l-0.03,0.09l-0.04,0.09l-0.05,0.08c-0.01,0.01-0.07,0.08-0.08,0.09l-5.07,5.08c-0.27,0.27-0.75,0.27-1.02,0
		c-0.28-0.28-0.28-0.74,0-1.02l3.24-3.25c0.1-0.1,0.13-0.26,0.08-0.39c-0.05-0.13-0.19-0.22-0.33-0.22H14.78
		c-0.2,0-0.36,0.16-0.36,0.36c0,0.2,0.16,0.36,0.36,0.36h9.73l-2.63,2.64c-0.56,0.56-0.56,1.47,0,2.03
		c0.27,0.27,0.63,0.42,1.01,0.42s0.74-0.15,1.01-0.42l5.07-5.08c0.03-0.03,0.07-0.07,0.09-0.1c0-0.01,0.07-0.1,0.08-0.1
		c0.01-0.01,0.05-0.08,0.05-0.09c0,0,0.07-0.13,0.07-0.13c0,0,0.04-0.1,0.04-0.11c0,0,0.03-0.09,0.03-0.09l0.03-0.11
		c0-0.01,0.02-0.13,0.02-0.15c0.01-0.09,0.01-0.19,0-0.28C29.4,15.15,29.39,15.07,29.39,15.07z"/>
	<path class="st0" d="M18.13,18.51c-0.2,0-0.36,0.16-0.36,0.36v3.99c0,0.63-0.51,1.14-1.14,1.14H3c-0.63,0-1.14-0.51-1.14-1.14V8.24
		C1.86,7.61,2.37,7.1,3,7.1h13.64c0.63,0,1.14,0.51,1.14,1.14v2.91c0,0.2,0.16,0.36,0.36,0.36c0.2,0,0.36-0.16,0.36-0.36V8.24
		c0-1.02-0.83-1.85-1.85-1.85H3c-1.02,0-1.85,0.83-1.85,1.85v14.61c0,1.02,0.83,1.85,1.85,1.85h13.64c1.02,0,1.85-0.83,1.85-1.85
		v-3.99C18.49,18.67,18.33,18.51,18.13,18.51z"/>
</g>
</svg>
