<?xml version="1.0" encoding="utf-8"?>
<!-- Generator: Adobe Illustrator 24.0.0, SVG Export Plug-In . SVG Version: 6.00 Build 0)  -->
<svg version="1.1" id="Capa_1" xmlns="http://www.w3.org/2000/svg" xmlns:xlink="http://www.w3.org/1999/xlink" x="0px" y="0px"
	 viewBox="0 0 30 30" style="enable-background:new 0 0 30 30;" xml:space="preserve">
<style type="text/css">
	.st0{fill:#006dd9;}
</style>
<g>
	<g>
		<path class="st0" d="M15.22,15.52c-1.38,0-2.63-0.7-3.35-1.88c-0.37-0.61-0.57-1.32-0.57-2.04c0-2.16,1.76-3.93,3.93-3.93
			c2.16,0,3.93,1.76,3.93,3.93c0,0.72-0.2,1.43-0.57,2.04C17.86,14.81,16.6,15.52,15.22,15.52z M15.22,8.21
			c-1.86,0-3.38,1.52-3.38,3.38c0,0.62,0.17,1.23,0.49,1.76c0.62,1.02,1.7,1.62,2.89,1.62c1.19,0,2.27-0.61,2.89-1.62
			c0.32-0.53,0.49-1.13,0.49-1.76C18.6,9.73,17.09,8.21,15.22,8.21z"/>
		<path class="st0" d="M21.11,23.46H9.34c-0.08,0-0.15-0.03-0.2-0.09s-0.08-0.14-0.07-0.21c0.5-3.91,3.09-6.75,6.15-6.75
			s5.65,2.84,6.15,6.75c0.01,0.08-0.01,0.16-0.07,0.21C21.26,23.42,21.18,23.46,21.11,23.46z M9.66,22.91h11.13
			c-0.55-3.48-2.86-5.97-5.57-5.97C12.52,16.94,10.21,19.43,9.66,22.91z"/>
	</g>
	<g>
		<path class="st0" d="M24.19,16.96c-1.15,0-2.19-0.58-2.79-1.56c-0.31-0.51-0.47-1.1-0.47-1.7c0-1.8,1.46-3.26,3.26-3.26
			c1.8,0,3.26,1.46,3.26,3.26c0,0.6-0.16,1.19-0.47,1.69C26.38,16.38,25.34,16.96,24.19,16.96z M24.19,10.99
			c-1.5,0-2.71,1.22-2.71,2.71c0,0.5,0.14,0.99,0.39,1.41c0.5,0.82,1.36,1.3,2.32,1.3c0.95,0,1.82-0.49,2.32-1.3
			c0.26-0.42,0.39-0.91,0.39-1.41C26.91,12.21,25.69,10.99,24.19,10.99z"/>
		<path class="st0" d="M29,23.46h-6.36c-0.15,0-0.27-0.12-0.27-0.27s0.12-0.27,0.27-0.27h6.05c-0.47-2.79-2.32-4.78-4.49-4.78
			c-0.99,0-1.94,0.41-2.74,1.2c-0.11,0.11-0.28,0.1-0.39,0c-0.11-0.11-0.1-0.28,0-0.39c0.9-0.89,1.98-1.36,3.12-1.36
			c2.53,0,4.67,2.34,5.08,5.57c0.01,0.08-0.01,0.16-0.07,0.21C29.16,23.42,29.08,23.46,29,23.46z"/>
	</g>
	<g>
		<path class="st0" d="M6.36,16.96c-1.15,0-2.19-0.58-2.79-1.56c-0.31-0.51-0.47-1.1-0.47-1.7c0-1.8,1.46-3.26,3.26-3.26
			s3.26,1.46,3.26,3.26c0,0.6-0.16,1.19-0.47,1.7C8.54,16.38,7.5,16.96,6.36,16.96z M6.36,10.99c-1.5,0-2.71,1.22-2.71,2.71
			c0,0.5,0.14,0.99,0.39,1.41c0.5,0.82,1.36,1.3,2.32,1.3c0.95,0,1.82-0.49,2.32-1.3c0.26-0.42,0.39-0.91,0.39-1.41
			C9.07,12.21,7.85,10.99,6.36,10.99z"/>
		<path class="st0" d="M7.91,23.46H1.55c-0.08,0-0.15-0.03-0.2-0.09c-0.05-0.06-0.08-0.14-0.07-0.21c0.41-3.22,2.55-5.57,5.08-5.57
			c1.14,0,2.22,0.47,3.12,1.36c0.11,0.11,0.11,0.28,0,0.39c-0.11,0.11-0.28,0.11-0.39,0c-0.8-0.78-1.74-1.2-2.74-1.2
			c-2.17,0-4.03,1.99-4.49,4.78h6.05c0.15,0,0.27,0.12,0.27,0.27S8.06,23.46,7.91,23.46z"/>
	</g>
</g>
</svg>
