<?xml version="1.0" encoding="utf-8"?>
<!-- Generator: Adobe Illustrator 24.0.0, SVG Export Plug-In . SVG Version: 6.00 Build 0)  -->
<svg version="1.1" id="Capa_1" xmlns="http://www.w3.org/2000/svg" xmlns:xlink="http://www.w3.org/1999/xlink" x="0px" y="0px"
	 viewBox="0 0 30 30" style="enable-background:new 0 0 30 30;" xml:space="preserve">
<style type="text/css">
	.st0{fill:#006dd9;}
</style>
<g>
	<path class="st0" d="M14.85,14.71c-2.52,0-4.8-1.28-6.11-3.43c-0.68-1.12-1.04-2.4-1.04-3.72c0-3.94,3.21-7.15,7.15-7.15
		C18.79,0.4,22,3.61,22,7.56c0,1.32-0.36,2.6-1.04,3.72C19.65,13.43,17.36,14.71,14.85,14.71z M14.85,1.19
		c-3.51,0-6.37,2.86-6.37,6.37c0,1.17,0.32,2.32,0.93,3.31c1.17,1.92,3.2,3.06,5.44,3.06c2.24,0,4.27-1.14,5.44-3.06
		c0.61-0.99,0.93-2.14,0.93-3.31C21.22,4.05,18.36,1.19,14.85,1.19z"/>
	<path class="st0" d="M26.18,29.4H3.51l0.06-0.44c0.92-7.19,5.66-12.4,11.28-12.4c5.62,0,10.36,5.22,11.28,12.4L26.18,29.4z
		 M4.41,28.62h20.88c-1-6.56-5.33-11.27-10.44-11.27C9.74,17.35,5.4,22.06,4.41,28.62z"/>
</g>
</svg>
