<?xml version="1.0" encoding="utf-8"?>
<!-- Generator: Adobe Illustrator 24.3.0, SVG Export Plug-In . SVG Version: 6.00 Build 0)  -->
<svg version="1.1" id="Capa_1" xmlns="http://www.w3.org/2000/svg" xmlns:xlink="http://www.w3.org/1999/xlink" x="0px" y="0px"
	 viewBox="0 0 600 600" style="enable-background:new 0 0 600 600;" xml:space="preserve">
<style type="text/css">
	.st0{fill:#40A09D;}
</style>
<g>
	<path class="st0" d="M173.2,517.1c-1.7,0-3.4-0.5-5-1.4c-3.1-1.9-4.8-5.3-4.7-8.9l5.5-89.1c0.1-1.4,0.5-2.9,1.2-4.1l170.3-303.1
		c1.2-2.3,3.3-3.9,5.8-4.6c2.4-0.6,5.1-0.3,7.3,0.9l74.2,42.6c4.6,2.6,6.2,8.5,3.6,13.1L259,464.5c-0.8,1.4-1.9,2.6-3.3,3.4
		l-77.5,47.8C176.7,516.6,175,517.1,173.2,517.1z M188.1,421.2l-4.2,68.4l59.6-36.8l166.6-291.4l-57.4-33L188.1,421.2z M250.7,459.7
		h0.2H250.7z"/>
	<path class="st0" d="M395.6,217c-1.6,0-3.3-0.4-4.8-1.3l-72-41.3c-4.6-2.6-6.2-8.5-3.6-13.1c2.6-4.7,8.5-6.2,13.1-3.6l72,41.3
		c4.6,2.6,6.2,8.5,3.6,13.1C402.1,215.3,398.9,217,395.6,217z"/>
	<path class="st0" d="M258.8,455.3c-1.6,0-3.3-0.4-4.8-1.3l-72-41.3c-4.6-2.6-6.2-8.5-3.6-13.1c2.6-4.7,8.6-6.2,13.1-3.6l72,41.3
		c4.6,2.6,6.2,8.5,3.6,13.1C265.3,453.5,262.1,455.3,258.8,455.3z"/>
</g>
</svg>
