<?xml version="1.0" encoding="utf-8"?>
<!-- Generator: Adobe Illustrator 24.3.0, SVG Export Plug-In . SVG Version: 6.00 Build 0)  -->
<svg version="1.1" id="Capa_1" xmlns="http://www.w3.org/2000/svg" xmlns:xlink="http://www.w3.org/1999/xlink" x="0px" y="0px"
	 viewBox="0 0 600 600" style="enable-background:new 0 0 600 600;" xml:space="preserve">
<style type="text/css">
	.st0{fill:#51CBD1;}
</style>
<g>
	<path class="st0" d="M538.9,488.8H56.4c-24.4,0-44.3-19.9-44.3-44.3V156.2c0-24.4,19.9-44.3,44.3-44.3h482.5
		c24.4,0,44.2,19.9,44.2,44.3v288.4C583.1,469,563.3,488.8,538.9,488.8z M56.4,130.4c-14.2,0-25.8,11.6-25.8,25.8v288.4
		c0,14.2,11.6,25.8,25.8,25.8h482.5c14.2,0,25.7-11.6,25.7-25.8V156.2c0-14.2-11.5-25.8-25.7-25.8H56.4z"/>
	<path class="st0" d="M295.4,363.1c-2.1,0-4.1-0.7-5.8-2.1L68.9,182.1c-4-3.2-4.6-9-1.4-13c3.3-4,9.1-4.5,13-1.4l214.9,174.1
		L506.4,166c3.9-3.3,9.7-2.8,13,1.2c3.3,3.9,2.7,9.8-1.2,13L301.4,361C299.6,362.4,297.5,363.1,295.4,363.1z"/>
</g>
</svg>
