<?xml version="1.0" encoding="utf-8"?>
<!-- Generator: Adobe Illustrator 24.3.0, SVG Export Plug-In . SVG Version: 6.00 Build 0)  -->
<svg version="1.1" id="Capa_1" xmlns="http://www.w3.org/2000/svg" xmlns:xlink="http://www.w3.org/1999/xlink" x="0px" y="0px"
	 viewBox="0 0 600 600" style="enable-background:new 0 0 600 600;" xml:space="preserve">
<style type="text/css">
	.st0{fill:#28C67A;}
</style>
<g>
	<path class="st0" d="M269,409.2c-3,0-5.9-1.3-7.9-3.6l-62.8-71.1c-3.8-4.4-3.4-11,0.9-14.9c4.3-3.8,11-3.5,14.9,0.9l51.6,58.5
		c15.2-34.6,56.3-118.1,123.2-178.3c4.3-3.9,11-3.5,14.9,0.8c3.9,4.3,3.5,11-0.8,14.9c-80.7,72.7-123.8,184.9-124.2,186
		c-1.3,3.5-4.3,6-7.9,6.7C270.3,409.1,269.6,409.2,269,409.2z"/>
	<path class="st0" d="M298,517.1c-113.4,0-205.7-92.3-205.7-205.7S184.5,105.7,298,105.7S503.6,198,503.6,311.4
		S411.4,517.1,298,517.1z M298,126.8c-101.8,0-184.6,82.8-184.6,184.6C113.4,413.2,196.2,496,298,496s184.6-82.8,184.6-184.6
		C482.6,209.6,399.7,126.8,298,126.8z"/>
</g>
</svg>
