<?xml version="1.0" encoding="utf-8"?>
<!-- Generator: Adobe Illustrator 24.3.0, SVG Export Plug-In . SVG Version: 6.00 Build 0)  -->
<svg version="1.1" id="Capa_1" xmlns="http://www.w3.org/2000/svg" xmlns:xlink="http://www.w3.org/1999/xlink" x="0px" y="0px"
	 viewBox="0 0 600 600" style="enable-background:new 0 0 600 600;" xml:space="preserve">
<style type="text/css">
	.st0{fill:#EF843C;}
</style>
<path class="st0" d="M502.2,350.2c-21.8-31.9-142-207.2-153.8-224.2l-0.8-1.2c0-0.1-0.1-0.1-0.1-0.1l-1.4-1.9h-0.2
	c-2.9-2.9-6.7-4.8-10.8-5.3c-5.1-0.7-9.9,0.7-13.8,3.7l-106.6,81.6c19.9-17.5,44.6-39.2,75.7-66.7c2.2-1.9,3.4-4.5,3.6-7.3
	c0.2-2.8-0.7-5.6-2.6-7.7c-1.9-2.2-4.5-3.5-7.3-3.6c-2.9-0.5-5.6,0.7-7.7,2.6c-23.3,20.6-50.5,44.5-75.5,66.4
	c12.2-16.2,26.5-35.1,43.8-58.1c3.5-4.7,2.6-11.4-2.2-15c-4.7-3.4-11.4-2.4-14.9,2.2c-20.2,26.8-41.2,54.7-59.3,78.5l33.3-60.8
	c2.4-4.4,3-9.5,1.5-14.2c-1.4-4.8-4.6-8.8-9-11.1c-4.4-2.4-9.5-3-14.2-1.6c-4.8,1.4-8.8,4.6-11.2,9L95.4,249.7l-1.1,2.8
	c-1.3,4.7-1.6,10-0.9,15.1c0.2,1.4,0.7,2.9,1.6,4.4l154.8,234.5c0.7,1.1,1.7,2.1,2.8,2.9c1.1,0.8,11.5,7.7,28.1,7.7
	c12.2,0,24.7-3.7,37.7-11.3l181.6-141.2C504.3,361.2,505.4,354.9,502.2,350.2z M478.9,354L306.4,488.2c-21,12.2-35.7,6.7-40.2,4.5
	L126.1,280.4c15,1.8,31.1-7.3,32.4-8L332,139.8C343.6,156.5,413.3,258.3,478.9,354z"/>
</svg>
