<?xml version="1.0" encoding="utf-8"?>
<!-- Generator: Adobe Illustrator 24.3.0, SVG Export Plug-In . SVG Version: 6.00 Build 0)  -->
<svg version="1.1" id="Capa_1" xmlns="http://www.w3.org/2000/svg" xmlns:xlink="http://www.w3.org/1999/xlink" x="0px" y="0px"
	 viewBox="0 0 600 600" style="enable-background:new 0 0 600 600;" xml:space="preserve">
<style type="text/css">
	.st0{fill:#E53341;}
</style>
<g>
	<path class="st0" d="M462.9,194.2H134.6c-4.8,0-8.7-3.9-8.7-8.7v-32.3c0-19.8,18-35.9,40.1-35.9h265.6c22.1,0,40.1,16.1,40.1,35.9
		v32.3C471.7,190.3,467.7,194.2,462.9,194.2z M143.3,176.8h310.9v-23.6c0-10.2-10.1-18.5-22.6-18.5H165.9
		c-12.5,0-22.6,8.3-22.6,18.5V176.8z"/>
	<path class="st0" d="M360.7,134.3H236.8c-4.8,0-8.7-3.9-8.7-8.7v-11.4c0-14.3,11.3-25.9,25.3-25.9h90.8c13.9,0,25.3,11.6,25.3,25.9
		v11.4C369.4,130.4,365.5,134.3,360.7,134.3z M245.5,116.9H352v-2.7c0-4.7-3.5-8.5-7.8-8.5h-90.8c-4.3,0-7.9,3.8-7.9,8.5V116.9z"/>
	<g>
		<path class="st0" d="M419,534.5H178.5c-19.9,0-36.2-16.2-36.2-36.1V185.6c0-4.8,3.9-8.7,8.7-8.7h295.5c4.8,0,8.7,3.9,8.7,8.7
			v312.8C455.2,518.3,439,534.5,419,534.5z M159.8,194.3v304.1c0,10.3,8.4,18.7,18.8,18.7H419c10.3,0,18.8-8.4,18.8-18.7V194.3
			H159.8z"/>
		<path class="st0" d="M228.2,460.2c-4.8,0-8.7-3.9-8.7-8.7V254.2c0-4.8,3.9-8.7,8.7-8.7s8.7,3.9,8.7,8.7v197.3
			C237,456.3,233,460.2,228.2,460.2z"/>
		<path class="st0" d="M300.7,460.2c-4.8,0-8.7-3.9-8.7-8.7V254.2c0-4.8,3.9-8.7,8.7-8.7s8.7,3.9,8.7,8.7v197.3
			C309.4,456.3,305.5,460.2,300.7,460.2z"/>
		<path class="st0" d="M373.1,460.2c-4.8,0-8.7-3.9-8.7-8.7V254.2c0-4.8,3.9-8.7,8.7-8.7s8.7,3.9,8.7,8.7v197.3
			C381.8,456.3,377.9,460.2,373.1,460.2z"/>
	</g>
</g>
</svg>
