<?xml version="1.0" encoding="utf-8"?>
<!-- Generator: Adobe Illustrator 24.3.0, SVG Export Plug-In . SVG Version: 6.00 Build 0)  -->
<svg version="1.1" id="Capa_1" xmlns="http://www.w3.org/2000/svg" xmlns:xlink="http://www.w3.org/1999/xlink" x="0px" y="0px"
	 viewBox="0 0 600 600" style="enable-background:new 0 0 600 600;" xml:space="preserve">
<style type="text/css">
	.st0{fill:#1C87A0;}
</style>
<g>
	<path class="st0" d="M381.7,326.7l-45.8,46L335.6,195c0-6.2-5-11.2-11.3-11.2c-6.2,0-11.2,5-11.2,11.3l0.5,204.7
		c0,4.5,2.7,8.6,7,10.3c4,1.7,8.9,0.8,12.2-2.4l64.9-65.2c1.8-1.8,4.4-2.8,7.2-2.8c2.8,0,5.5,1,7.3,2.8c4,4,4,10.6,0,14.6
		L310.9,458.7l-1.2,1c-0.2,0.2-0.5,0.4-0.8,0.6c-0.2,0.1-0.3,0.2-0.4,0.4c-0.2,0.1-0.5,0.2-0.7,0.3c-0.2,0.1-1.3,0.5-1.7,0.7
		c-0.3,0-0.7,0.1-1,0.2c-0.2,0-0.5,0-0.7,0c-0.4,0-1.1,0.2-3-0.2c-0.1,0-0.4,0-0.7-0.1c-0.4-0.2-0.8-0.4-1.2-0.4
		c-0.4-0.2-0.7-0.4-1.1-0.6h0c-0.3-0.2-0.6-0.4-1-0.6c0,0,0,0,0,0L194.6,357.6c-1.9-1.9-3-4.5-3-7.3c0-2.8,1-5.3,3-7.2
		c3.8-3.9,10.6-3.9,14.5,0l64.8,64.6c3.3,3.2,8.1,4.1,12.1,2.4c4.2-1.7,6.9-5.8,6.9-10.3V195.9c0-6.2-5-11.2-11.2-11.2
		s-11.2,5-11.2,11.2v176.9l-45.6-45.6c-12.7-12.7-33.5-12.7-46.3,0c-6.2,6.2-9.6,14.4-9.6,23.1c0,8.7,3.4,16.9,9.6,23.2l101.4,101.3
		c0.8,0.7,1.5,1.4,3.2,2.8c0.2,0.2,0.4,0.4,0.7,0.5l1,0.6c0.6,0.5,1.2,0.9,1.8,1.2l0,0c0.2,0.1,0.4,0.2,0.6,0.3
		c1.2,0.8,2.9,1.5,3.3,1.7c0.6,0.2,0.7,0.5,1.3,0.5c0.2,0.2,1.6,0.5,1.8,0.6l1.8,0.4c0.5,0.3,1,0.4,1.6,0.5l3.1,0.4
		c0.8,0,1.7,0.1,2.6,0.1c1.4,0,2.8,0,5-0.3l3.8-0.8c0.3-0.1,1-0.2,1.2-0.4l1-0.4c0.7-0.2,2.4-0.9,2.7-1c0.3-0.1,2-1,2.3-1.2
		c0.3-0.2,0.6-0.4,0.9-0.7c0,0,0,0,0,0c0.9-0.3,1.2-0.5,4-2.6c0.8-0.7,1.6-1.4,2.4-2.1L428,372.9c12.7-12.7,12.7-33.5,0-46.3
		C415.7,314.3,394.1,314.4,381.7,326.7z M329.1,404.1L329.1,404.1L329.1,404.1L329.1,404.1z"/>
	<path class="st0" d="M517.4,138.5H80.8c-6.2,0-11.2,5-11.2,11.2v91.9c0,6.2,5,11.2,11.2,11.2h107.8c6.2,0,11.2-5,11.2-11.2
		s-5-11.2-11.2-11.2H92v-69.6h414.3v69.6h-98.8c-6.2,0-11.2,5-11.2,11.2s5,11.2,11.2,11.2h110c6.2,0,11.2-5,11.2-11.2v-91.9
		C528.6,143.5,523.6,138.5,517.4,138.5z"/>
</g>
</svg>
