<?xml version="1.0" encoding="utf-8"?>
<!-- Generator: Adobe Illustrator 25.0.0, SVG Export Plug-In . SVG Version: 6.00 Build 0)  -->
<svg version="1.1" id="Capa_1" xmlns="http://www.w3.org/2000/svg" xmlns:xlink="http://www.w3.org/1999/xlink" x="0px" y="0px"
	 viewBox="0 0 600 600" style="enable-background:new 0 0 600 600;" xml:space="preserve">
<style type="text/css">
	.st0{fill:#006DD9;}
	.st1{fill:none;}
</style>
<g>
	<path class="st0" d="M408,322.1h-82.3c-3.7,0-6.8-3-6.8-6.8c0-3.7,3-6.8,6.8-6.8H408c3.7,0,6.8,3,6.8,6.8
		C414.8,319,411.7,322.1,408,322.1z"/>
	<path class="st0" d="M408,364.4h-82.3c-3.7,0-6.8-3-6.8-6.8s3-6.8,6.8-6.8H408c3.7,0,6.8,3,6.8,6.8S411.7,364.4,408,364.4z"/>
	<path class="st1" d="M275.9,203.1h77.5v-3.5l-92.1-92.9h-2.4v79.3C258.9,195.5,266.5,203.1,275.9,203.1z"/>
	<path class="st0" d="M353.4,437.8c0,10.2-8.2,18.4-18.4,18.4H96.2c-10.2,0-18.4-8.3-18.4-18.4V125.2c0-10.2,8.2-18.4,18.4-18.4
		h149.5v79.3c0,16.6,13.5,30.1,30.1,30.1h77.5v73.9h13.1v-79.9c0-0.2,0.2-0.3,0.2-0.5v-13.6c0-1.7-0.7-3.4-1.9-4.6l-96.1-96.1
		c-1.1-1.1-2.8-1.8-4.8-1.9c0,0-8.5,0.2-11.6,0.2H96.2c-17.4,0-31.5,14.1-31.5,31.5v312.6c0,17.4,14.1,31.5,31.5,31.5H335
		c17.4,0,31.5-14.1,31.5-31.5v-48.9h-13.1V437.8z M258.9,106.8h2.4l92.1,92.9v3.5h-77.5c-9.4,0-17.1-7.6-17.1-17V106.8z"/>
	<path class="st1" d="M425.4,144.9v79.3c0,9.4,7.6,17,17,17H520v-3.5l-92.1-92.9H425.4z"/>
	<path class="st0" d="M531.3,229.7l-96.1-96.1c-1.2-1.1-2.7-1.8-4.8-1.9c0,0-8.5,0.2-11.6,0.2h-121l13.1,13.1h101.3v79.3
		c0,16.6,13.5,30.1,30.1,30.1H520V476c0,10.2-8.3,18.4-18.4,18.4H262.8c-10.2,0-18.4-8.3-18.4-18.4v-13.9l-13.1,0.3V476
		c0,17.4,14.1,31.5,31.5,31.5h238.8c17.4,0,31.5-14.1,31.5-31.5V248.4c0-0.2,0.2-0.3,0.2-0.5v-13.6
		C533.3,232.6,532.6,230.9,531.3,229.7z M520,241.3h-77.6c-9.4,0-17-7.6-17-17v-79.3h2.4l92.1,92.9V241.3z"/>
</g>
</svg>
