<svg id="Capa_1" data-name="Capa 1" xmlns="http://www.w3.org/2000/svg" viewBox="0 0 317.95 395.71"><defs><style>.cls-1{fill:none;}.cls-2{fill:#006dd9;}</style></defs><path class="cls-1" d="M362.16,217.58h81.6v-3.66l-97-97.79h-2.55v83.53A18,18,0,0,0,362.16,217.58Z" transform="translate(-139.86 -102.12)"/><path class="cls-1" d="M344.21,116.13v83.53a18,18,0,0,0,18,17.92h81.6v-3.66l-97-97.79Z" transform="translate(-139.86 -102.12)"/><path class="cls-2" d="M455.75,205.31,354.62,104.14a7.59,7.59,0,0,0-5.05-2s-8.93.22-12.24.22H173a33.19,33.19,0,0,0-33.15,33.19V464.64A33.19,33.19,0,0,0,173,497.83H424.4a33.23,33.23,0,0,0,33.18-33.19V225c0-.21.23-.33.23-.53V210.17A6.81,6.81,0,0,0,455.75,205.31Zm-12,207.86v51.47A19.39,19.39,0,0,1,424.4,484H173a19.39,19.39,0,0,1-19.37-19.4V135.53A19.4,19.4,0,0,1,173,116.13H330.42v83.53a31.74,31.74,0,0,0,31.74,31.7h81.6Zm0-195.59h-81.6a18,18,0,0,1-18-17.92V116.13h2.55l97,97.79Z" transform="translate(-139.86 -102.12)"/><path class="cls-2" d="M213.27,408.58a6,6,0,0,1-4.08-10.34L377.1,240.82a6,6,0,1,1,8.17,8.73L217.36,407A6,6,0,0,1,213.27,408.58Z" transform="translate(-139.86 -102.12)"/><path class="cls-2" d="M381.18,408.58A6,6,0,0,1,377.1,407L209.19,249.55a6,6,0,0,1,8.17-8.73L385.27,398.24a6,6,0,0,1-4.09,10.34Z" transform="translate(-139.86 -102.12)"/></svg>