<?xml version="1.0" encoding="utf-8"?>
<!-- Generator: Adobe Illustrator 25.0.0, SVG Export Plug-In . SVG Version: 6.00 Build 0)  -->
<svg version="1.1" id="Capa_1" xmlns="http://www.w3.org/2000/svg" xmlns:xlink="http://www.w3.org/1999/xlink" x="0px" y="0px"
	 viewBox="0 0 600 600" style="enable-background:new 0 0 600 600;" xml:space="preserve">
<style type="text/css">
	.st0{fill:#2E68B0;}
	.st1{fill:none;stroke:#2E68B0;stroke-width:0.5;stroke-linecap:round;stroke-linejoin:round;stroke-miterlimit:10;}
</style>
<g>
	<path class="st0" d="M421.3,361.5c-18.9,0-37.4-3.2-55.1-9.4c-4.4-1.6-6.7-6.4-5.2-10.8c1.6-4.4,6.5-6.6,10.8-5.1
		c15.9,5.6,32.6,8.4,49.5,8.4c81.8,0,148.3-66.5,148.3-148.3S503.1,48,421.3,48c-75.3,0-138.7,56.4-147.3,131.1
		c-0.5,4.7-4.8,7.8-9.4,7.4c-4.6-0.5-7.9-4.7-7.4-9.3c9.6-83.3,80.2-146,164.1-146c91.1,0,165.2,74.1,165.2,165.2
		S512.4,361.5,421.3,361.5z"/>
	<g>
		<g>
			<path class="st0" d="M183.8,569.6c-1.6,0-3.1-0.4-4.4-1.3c-2.5-1.6-4-4.3-4-7.2V322.8c0-3.2,1.8-6.1,4.7-7.6l154.3-77.1
				c2.6-1.3,5.7-1.2,8.2,0.4c2.5,1.6,4,4.3,4,7.2V484c0,3.2-1.8,6.1-4.7,7.6l-154.3,77.1C186.4,569.3,185.1,569.6,183.8,569.6z
				 M192.3,328v219.5l137.4-68.7V259.4L192.3,328z M338.1,484h0.2H338.1z"/>
			<path class="st0" d="M183.8,569.6c-1.3,0-2.6-0.3-3.8-0.9L25.8,491.6c-2.9-1.4-4.7-4.4-4.7-7.6V245.7c0-2.9,1.5-5.6,4-7.2
				c2.5-1.5,5.6-1.6,8.2-0.4l154.2,77.1c2.9,1.4,4.7,4.4,4.7,7.6v238.3c0,2.9-1.5,5.6-4,7.2C186.9,569.2,185.4,569.6,183.8,569.6z
				 M38,478.8l137.4,68.7V328.1L38,259.4V478.8z"/>
			<path class="st0" d="M183.9,331.3c-1.3,0-2.6-0.3-3.8-0.9L25.8,253.2c-2.9-1.4-4.7-4.4-4.7-7.6s1.8-6.1,4.7-7.6l154.3-77
				c2.4-1.2,5.2-1.2,7.6,0l154.2,77.1c2.9,1.4,4.7,4.4,4.7,7.6s-1.8,6.1-4.7,7.6l-154.2,77.1C186.4,331,185.1,331.3,183.9,331.3z
				 M48.5,245.7l135.4,67.7l135.4-67.7L183.9,178L48.5,245.7z"/>
			<g>
				<path class="st0" d="M183.3,331.5c-1.1,0-2.2-0.2-3.3-0.8L25.8,253.6c-2.9-1.4-4.7-4.4-4.7-7.6c0-3.3,1.9-6.7,4.9-8
					c2.3-1.1,5.3-1.2,7.6,0L187.6,315c2.9,1.4,4.7,4.4,4.7,7.6c0,2.9-1.5,6-4,7.5C186.8,330.9,185.1,331.5,183.3,331.5z"/>
			</g>
			<g>
				<path class="st0" d="M183.8,331.6c-1.6,0-3.1-0.4-4.4-1.3c-2.5-1.6-4-4.3-4-7.2v-0.7c0-3.2,1.8-6.1,4.7-7.6L334,238
					c2.3-1.2,4.9-1.2,7.3-0.1c3,1.4,5.3,4.6,5.3,7.8c0,3.2-1.8,6.5-4.7,7.9l-154.3,77.1C186.4,331.3,185.1,331.6,183.8,331.6z"/>
			</g>
			<path class="st0" d="M183.8,331.3c-3.1,0-6.1-1.7-7.6-4.7c-0.6-1.2-0.9-2.5-0.9-3.8c0-3.1,1.7-6.1,4.7-7.6l154.3-77.1
				c4.2-2,9.2-0.4,11.3,3.8c0.6,1.2,0.9,2.5,0.9,3.8c0,3.1-1.7,6.1-4.7,7.6l-154.3,77.1C186.4,331,185.1,331.3,183.8,331.3z"/>
		</g>
		<path class="st0" d="M113,376c-1.3,0-2.6-0.3-3.8-0.9L86.9,364c-2.9-1.4-4.7-4.4-4.7-7.6v-79.7c0-2.9,1.5-5.6,4-7.2
			c2.5-1.5,5.6-1.7,8.2-0.4l22.3,11.1c2.9,1.4,4.7,4.4,4.7,7.6v79.7c0,2.9-1.5,5.6-4,7.2C116.1,375.6,114.5,376,113,376z
			 M99.2,351.2l5.4,2.7v-60.9l-5.4-2.7V351.2z"/>
		<path class="st0" d="M113,296.3c-1.3,0-2.6-0.3-3.8-0.9l-22.2-11.1c-2.9-1.4-4.7-4.4-4.7-7.6c0-3.2,1.8-6.1,4.7-7.6l155.7-76.8
			c2.4-1.1,5.1-1.2,7.5,0l22.3,11.1c2.9,1.4,4.7,4.4,4.7,7.6c0,3.2-1.8,6.1-4.7,7.6l-155.7,76.8C115.5,296,114.3,296.3,113,296.3z
			 M109.7,276.8l3.3,1.6L249.7,211l-3.3-1.6L109.7,276.8z"/>
	</g>
	<path class="st0" d="M512.3,189.8L433,120.6c-2-1.8-5-2.2-7.4-1.1c-2.6,1.2-4.2,4.3-4,6.3l0.2,29l-67.1,0.2c-3.8,0-6.8,3.1-6.8,6.9
		c0,3.8,3.1,6.9,6.9,6.9l74-0.3c1.8,0,3.6-0.7,4.9-2c1.6-1.6,2.2-3.5,1.9-4.9l-0.1-20.7l61.9,54.1l-61.5,54.4l0-20.8
		c0-1.9-0.7-3.6-2-4.9c-1.3-1.3-3.1-2-4.8-2l-74,0.3c-3.8,0-6.8,3.1-6.8,6.9c0,3.8,3.1,6.8,6.9,6.8l67.1-0.2v29.2
		c0,2.7,1.6,5.2,4,6.2c0.9,0.4,1.9,0.7,2.9,0.7c1.6,0,3.2-0.6,4.5-1.7l78.7-69.6c1.5-1.3,2.3-3.2,2.3-5.1v0
		C514.6,192.9,513.7,191.1,512.3,189.8z"/>
</g>
</svg>
