<?xml version="1.0" encoding="utf-8"?>
<!-- Generator: Adobe Illustrator 24.3.0, SVG Export Plug-In . SVG Version: 6.00 Build 0)  -->
<svg version="1.1" id="Capa_1" xmlns="http://www.w3.org/2000/svg" xmlns:xlink="http://www.w3.org/1999/xlink" x="0px" y="0px"
	 viewBox="0 0 600 600" style="enable-background:new 0 0 600 600;" xml:space="preserve">
<style type="text/css">
	.st0{fill:#414141;}
</style>
<g>
	<path class="st0" d="M438.5,517.1c-2.8,0-5.6-0.7-8.1-1.9L328,466.4c-9.8,1.3-19.9,1.9-30,1.9C185.6,468.3,94.2,387,94.2,287
		S185.6,105.7,298,105.7c112.4,0,203.9,81.3,203.9,181.3c0,42.8-16.9,84-47.7,116.6l2.8,94.5c0.2,6.5-2.9,12.4-8.3,16
		C445.6,516.1,442.1,517.1,438.5,517.1z M439.6,496.3h0.3H439.6z M329.6,445c1.6,0,3.1,0.3,4.5,1l102.9,49l-4.1-95.3
		c-0.1-2.9,1-5.7,3-7.7c28.9-29.1,44.8-66.5,44.8-105.1c0-88.4-82-160.3-182.8-160.3S115.2,198.6,115.2,287s82,160.3,182.8,160.3
		c10.2,0,20.4-0.7,30.1-2.1C328.6,445.1,329.1,445,329.6,445z"/>
</g>
</svg>
