<?xml version="1.0" encoding="utf-8"?>
<!-- Generator: Adobe Illustrator 24.3.0, SVG Export Plug-In . SVG Version: 6.00 Build 0)  -->
<svg version="1.1" id="Capa_1" xmlns="http://www.w3.org/2000/svg" xmlns:xlink="http://www.w3.org/1999/xlink" x="0px" y="0px"
	 viewBox="0 0 600 600" style="enable-background:new 0 0 600 600;" xml:space="preserve">
<style type="text/css">
	.st0{fill:#FFFFFF;}
</style>
<g>
	<g>
		<path class="st0" d="M316.1,498H128c-13.6,0-24.7-11.1-24.7-24.7v-90.6c0-2.2,0.3-4.4,0.9-6.4l13.1-48.8c0.1-0.5,0.2-1.1,0.3-1.7
			l10.7-70.9c3.4-22.7,22.5-39.2,45.4-39.4l232.1-1.6c0.1,0,0.1,0,0.2,0c12.2,0,22.6,9.1,24.4,21.2l11.4,77.9
			c0.4,2.7-1.5,5.2-4.1,5.6c-2.9,0.3-5.2-1.5-5.6-4.1l-11.4-77.9c-1.1-7.5-7-12.8-14.8-12.8l-232.1,1.6c-18,0.1-33.1,13.2-35.8,31.1
			l-10.7,70.9c-0.1,0.9-0.3,1.8-0.6,2.7l-13.1,48.9c-0.3,1.3-0.5,2.6-0.5,3.9v90.6c0,8.2,6.7,14.9,14.9,14.9h188
			c2.7,0,4.9,2.2,4.9,4.9S318.8,498,316.1,498z"/>
	</g>
	<g>
		<path class="st0" d="M232.3,220.5c-2.7,0-4.9-2.2-4.9-4.9v-30.3c0-2.7,2.2-4.9,4.9-4.9s4.9,2.2,4.9,4.9v30.3
			C237.2,218.3,235,220.5,232.3,220.5z"/>
	</g>
	<g>
		<path class="st0" d="M316.1,188.2H144.5c-2.7,0-4.9-2.2-4.9-4.9v-72.7c0-2.7,2.2-4.9,4.9-4.9h171.6c2.7,0,4.9,2.2,4.9,4.9v72.7
			C321,186,318.8,188.2,316.1,188.2z M149.4,178.4h161.8v-62.8H149.4V178.4z"/>
	</g>
	<g>
		<path class="st0" d="M382,330.5H180.5c-6.2,0-12.2-2.6-16.3-7.2c-4.2-4.6-6.2-10.8-5.7-16.9l4-42.4c1.1-11.4,10.5-20,22-20h191.4
			c10.9,0,20.3,8.1,21.8,18.9l6.1,42.4c0.9,6.3-1,12.8-5.2,17.6C394.5,327.7,388.4,330.5,382,330.5z M184.5,253.8
			c-6.4,0-11.6,4.8-12.2,11.1l-4,42.3c-0.3,3.5,0.8,6.8,3.1,9.4c2.4,2.6,5.6,4,9.1,4H382c3.6,0,6.9-1.5,9.3-4.2
			c2.3-2.7,3.4-6.3,2.9-9.8l-6.1-42.4c-0.9-6-6.1-10.5-12.1-10.5H184.5z"/>
	</g>
	<g>
		<path class="st0" d="M146.7,366.8c-6.9,0-12.5-4.9-12.5-11s5.6-11,12.5-11c6.9,0,12.5,4.9,12.5,11S153.6,366.8,146.7,366.8z
			 M146.7,354.7c-1.8,0-2.7,0.9-2.7,1.2c0,0.2,0.9,1.1,2.7,1.1c1.8,0,2.6-0.9,2.6-1.1C149.4,355.6,148.5,354.7,146.7,354.7z"/>
	</g>
	<g>
		<path class="st0" d="M197,366.8c-6.9,0-12.5-4.9-12.5-11s5.6-11,12.5-11s12.5,4.9,12.5,11S203.9,366.8,197,366.8z M197,354.7
			c-1.7,0-2.6,0.9-2.7,1.2c0,0.2,0.9,1.1,2.7,1.1s2.6-0.9,2.7-1.1h4.9h-4.9C199.6,355.6,198.7,354.7,197,354.7z"/>
	</g>
	<g>
		<path class="st0" d="M146.7,393.9c-6.9,0-12.5-4.9-12.5-11s5.6-11,12.5-11c6.9,0,12.5,4.9,12.5,11S153.6,393.9,146.7,393.9z
			 M146.7,381.8c-1.8,0-2.7,0.9-2.7,1.2s0.9,1.2,2.7,1.2c1.8,0,2.6-0.9,2.6-1.2S148.5,381.8,146.7,381.8z"/>
	</g>
	<g>
		<path class="st0" d="M197,393.9c-6.9,0-12.5-4.9-12.5-11s5.6-11,12.5-11s12.5,4.9,12.5,11S203.9,393.9,197,393.9z M197,381.8
			c-1.7,0-2.6,0.9-2.7,1.2c0,0.2,0.9,1.2,2.7,1.2s2.6-0.9,2.7-1.2h4.9h-4.9C199.6,382.7,198.7,381.8,197,381.8z"/>
	</g>
	<g>
		<path class="st0" d="M245.8,367.3c-6.9,0-12.5-4.9-12.5-11s5.6-11,12.5-11c6.9,0,12.5,4.9,12.5,11S252.7,367.3,245.8,367.3z
			 M245.8,355.2c-1.7,0-2.6,0.9-2.7,1.1c0,0.2,0.9,1.2,2.7,1.2c1.7,0,2.6-0.9,2.7-1.2h4.9h-4.9C248.4,356.1,247.5,355.2,245.8,355.2
			z"/>
	</g>
	<g>
		<path class="st0" d="M295.4,418.3H110.2c-2.7,0-4.9-2.2-4.9-4.9s2.2-4.9,4.9-4.9h185.2c2.7,0,4.9,2.2,4.9,4.9
			S298.1,418.3,295.4,418.3z"/>
	</g>
	<g>
		<path class="st0" d="M265.6,458.6h-114c-2.7,0-4.9-2.2-4.9-4.9c0-2.7,2.2-4.9,4.9-4.9h114c2.7,0,4.9,2.2,4.9,4.9
			C270.5,456.4,268.3,458.6,265.6,458.6z"/>
	</g>
	<g>
		<g>
			<path class="st0" d="M406.2,517.1c-48.3,0-87.7-39.3-87.7-87.7s39.3-87.7,87.7-87.7s87.7,39.3,87.7,87.7S454.6,517.1,406.2,517.1
				z M406.2,351.6c-42.9,0-77.9,34.9-77.9,77.9c0,42.9,34.9,77.8,77.9,77.8c42.9,0,77.8-34.9,77.8-77.8
				C484.1,386.5,449.1,351.6,406.2,351.6z"/>
		</g>
		<g>
			<g>
				<path class="st0" d="M407.6,477.5C407.6,477.5,407.6,477.5,407.6,477.5c-2.7,0-4.9-2.2-4.9-4.9l0.2-86.5c0-2.7,2.2-4.9,4.9-4.9
					c0,0,0,0,0,0c2.7,0,4.9,2.2,4.9,4.9l-0.2,86.5C412.5,475.3,410.3,477.5,407.6,477.5z"/>
			</g>
			<g>
				<path class="st0" d="M451,434.3C451,434.3,451,434.3,451,434.3l-86.5-0.2c-2.7,0-4.9-2.2-4.9-4.9c0-2.7,2.2-4.9,4.9-4.9
					c0,0,0,0,0,0l86.5,0.2c2.7,0,4.9,2.2,4.9,4.9C455.9,432.1,453.7,434.3,451,434.3z"/>
			</g>
		</g>
	</g>
</g>
</svg>
