<?xml version="1.0" encoding="utf-8"?>
<!-- Generator: Adobe Illustrator 25.0.0, SVG Export Plug-In . SVG Version: 6.00 Build 0)  -->
<svg version="1.1" id="Capa_1" xmlns="http://www.w3.org/2000/svg" xmlns:xlink="http://www.w3.org/1999/xlink" x="0px" y="0px"
	 viewBox="0 0 489.2 469.5" style="enable-background:new 0 0 489.2 469.5;" xml:space="preserve">
<style type="text/css">
	.st0{fill:#FFFFFF;}
</style>
<path class="st0" d="M483.2,469.5H6.6c-3,0-5.5-2.4-5.6-5.5l-1-54.4c0-1.1,0.3-2.3,0.9-3.2L39,349.5v-36.7c0-0.5,0.1-1,0.2-1.5
	l16.1-59.8l18.2-120.8c0-5.2,1.2-5.2,56.2-5.6l273.7-1.9l0,0c2.8,0,5.1,2,5.5,4.8l16.1,110.4l21.1,71.4c0.2,0.5,0.3,1.1,0.2,1.7
	l-0.6,37.1l42.3,62.3c0.7,0.9,1,2,1,3.2l-0.4,50C488.8,467.1,486.3,469.5,483.2,469.5z M12.1,458.4h465.6l0.4-42.7l-42.4-62.3
	c-0.7-0.9-1-2.1-1-3.2l0.6-38.1l-21-71.4l-15.5-106.4c-37.4,0.3-277.8,2-314.7,2.2L66.2,253.7l-16,59.7v37.7c0,1.1-0.3,2.2-0.9,3.1
	l-38,56.9L12.1,458.4z"/>
<path class="st0" d="M186.1,130.8c-3.1,0-5.6-2.5-5.6-5.6V90.7c0.1-3.1,2.7-5.5,5.8-5.4c2.9,0.1,5.2,2.5,5.4,5.4v34.5
	C191.7,128.3,189.2,130.8,186.1,130.8z"/>
<path class="st0" d="M281.6,94H86c-3.1,0-5.6-2.5-5.6-5.6V5.6C80.4,2.5,82.9,0,86,0h195.6c3.1,0,5.6,2.5,5.6,5.6v82.8
	C287.1,91.5,284.6,94,281.6,94z M91.6,82.8H276V11.2H91.6L91.6,82.8z"/>
<path class="st0" d="M379.3,256.2H105.6c-3.1,0-5.6-2.5-5.6-5.6c0-0.2,0-0.4,0-0.5l8.2-87.4c0.3-2.9,2.7-5.1,5.6-5.1h252.9
	c2.8,0,5.1,2,5.5,4.8l12.6,87.4c0.4,3.1-1.7,5.9-4.8,6.3C379.8,256.2,379.6,256.2,379.3,256.2z M111.7,245h261.2l-11-76.2h-243
	L111.7,245z"/>
<path class="st0" d="M315.5,297.6c-7.9,0-14.2-5.6-14.2-12.5s6.4-12.5,14.2-12.5s14.2,5.6,14.2,12.5S323.3,297.6,315.5,297.6z
	 M315.5,283.8c-2,0-3,1-3,1.3s1.1,1.3,3,1.3s3-1,3-1.3l0,0C318.5,284.8,317.5,283.8,315.5,283.8z"/>
<path class="st0" d="M372.9,297.6c-7.9,0-14.2-5.6-14.2-12.5s6.4-12.5,14.2-12.5s14.2,5.6,14.2,12.5S380.7,297.6,372.9,297.6z
	 M372.9,283.8c-2,0-3,1-3,1.3s1.1,1.3,3,1.3s3-1,3-1.3l0,0C375.8,284.8,374.8,283.8,372.9,283.8z"/>
<path class="st0" d="M315.5,328.5c-7.9,0-14.2-5.6-14.2-12.5s6.4-12.5,14.2-12.5s14.2,5.6,14.2,12.5S323.3,328.5,315.5,328.5z
	 M315.5,314.7c-2,0-3,1-3,1.3s1.1,1.3,3,1.3s3-1,3-1.3l0,0C318.5,315.7,317.5,314.7,315.5,314.7z"/>
<path class="st0" d="M372.9,328.5c-7.9,0-14.2-5.6-14.2-12.5s6.4-12.5,14.2-12.5s14.2,5.6,14.2,12.5S380.7,328.5,372.9,328.5z
	 M372.9,314.7c-2,0-3,1-3,1.3s1.1,1.3,3,1.3s3-1,3-1.3l0,0C375.8,315.7,374.8,314.7,372.9,314.7z"/>
<path class="st0" d="M392.5,452.6c-7.8,0-14.2-5.6-14.2-12.5s6.4-12.5,14.2-12.5s14.2,5.6,14.2,12.5S400.2,452.6,392.5,452.6z
	 M392.5,438.8c-2,0-3,1-3,1.3s1.1,1.3,3,1.3s3-1,3-1.3l0,0C395.4,439.9,394.4,438.8,392.5,438.8z"/>
<path class="st0" d="M434.6,356.3H46.9c-3.1,0-5.6-2.5-5.6-5.6c0-3.1,2.5-5.6,5.6-5.6h387.7c3.1,0,5.6,2.5,5.6,5.6
	C440.1,353.8,437.6,356.3,434.6,356.3z"/>
<path class="st0" d="M478.3,415.6H9.9c-3.1-0.1-5.5-2.7-5.4-5.8c0.1-2.9,2.5-5.2,5.4-5.4h468.4c3.1,0.1,5.5,2.7,5.4,5.8
	C483.6,413.2,481.2,415.5,478.3,415.6z"/>
<path class="st0" d="M191,442.2H61c-3.1-0.1-5.5-2.7-5.4-5.8c0.1-2.9,2.5-5.2,5.4-5.4h130c3.1,0.1,5.5,2.7,5.4,5.8
	C196.2,439.7,193.9,442,191,442.2z"/>
</svg>
