<?xml version="1.0" encoding="utf-8"?>
<!-- Generator: Adobe Illustrator 25.0.0, SVG Export Plug-In . SVG Version: 6.00 Build 0)  -->
<svg version="1.1" id="Capa_1" xmlns="http://www.w3.org/2000/svg" xmlns:xlink="http://www.w3.org/1999/xlink" x="0px" y="0px"
	 viewBox="0 0 600 600" style="enable-background:new 0 0 600 600;" xml:space="preserve">
<style type="text/css">
	.st0{fill:#006DD9;}
</style>
<g>
	<g>
		<path class="st0" d="M462.7,441.2H143.4c-4.1,0-7.4-3.3-7.5-7.3l-0.6-36.5c0-1.5,0.4-3,1.3-4.3l24.9-37.2v-23.5
			c0-0.7,0.1-1.3,0.3-1.9l10.8-40.1l12.1-80.2c0-6.9,2.8-6.9,116.1-7.7l108.6-0.8c0,0,0,0,0.1,0c3.7,0,6.9,2.7,7.4,6.4l10.8,74
			l14,47.3c0.2,0.7,0.3,1.5,0.3,2.2l-0.4,23.7l27.7,40.8c0.8,1.3,1.3,2.7,1.3,4.3l-0.3,33.5C470.1,437.9,466.8,441.2,462.7,441.2z
			 M150.8,426.3h304.5l0.2-23.8l-27.7-40.8c-0.9-1.3-1.3-2.8-1.3-4.3l0.4-24.9l-13.9-47.2l-10.1-68.6c-32,0.2-172.7,1.2-204.4,1.4
			l-11.4,75.4l-10.7,39.9v24.8c0,1.5-0.4,2.9-1.3,4.1l-24.8,37.1L150.8,426.3z"/>
		<path class="st0" d="M263.7,214.3c-4.1,0-7.5-3.3-7.5-7.5v-23.1c0-4.1,3.3-7.5,7.5-7.5c4.1,0,7.5,3.3,7.5,7.5v23.1
			C271.2,211,267.8,214.3,263.7,214.3z"/>
		<path class="st0" d="M327.6,189.7h-131c-4.1,0-7.5-3.3-7.5-7.5v-55.5c0-4.1,3.3-7.5,7.5-7.5h131c4.1,0,7.5,3.3,7.5,7.5v55.5
			C335.1,186.4,331.8,189.7,327.6,189.7z M204.1,174.8h116v-40.5h-116V174.8z"/>
		<path class="st0" d="M393.1,298.3H209.8c-2.1,0-4.1-0.9-5.5-2.4c-1.4-1.6-2.1-3.6-1.9-5.7l5.5-58.6c0.4-3.8,3.6-6.8,7.4-6.8h169.4
			c3.7,0,6.9,2.7,7.4,6.4l8.5,58.6c0.3,2.1-0.3,4.3-1.8,6C397.4,297.4,395.3,298.3,393.1,298.3z M217.9,283.4h166.5l-6.3-43.6H222.1
			L217.9,283.4z"/>
		<path class="st0" d="M350.4,326.1c-7.3,0-13.2-5.4-13.2-12.1s5.9-12.1,13.2-12.1c7.3,0,13.3,5.4,13.3,12.1
			S357.7,326.1,350.4,326.1z M350.4,311.1c-0.5,0-1.7,1.1-1.7,2.8c0,3.5,3.4,3.5,3.4,0C352,312.2,350.9,311.1,350.4,311.1z"/>
		<path class="st0" d="M388.8,326.1c-7.3,0-13.2-5.4-13.2-12.1s5.9-12.1,13.2-12.1S402,307.3,402,314S396.1,326.1,388.8,326.1z
			 M388.8,311.1c-0.5,0-1.7,1.1-1.7,2.8c0,3.5,3.4,3.5,3.4,0C390.5,312.2,389.3,311.1,388.8,311.1z"/>
		<path class="st0" d="M350.4,346.8c-7.3,0-13.2-5.4-13.2-12.1s5.9-12.1,13.2-12.1c7.3,0,13.3,5.4,13.3,12.1
			S357.7,346.8,350.4,346.8z M350.4,331.8c-0.5,0-1.7,1.1-1.7,2.8c0,3.5,3.4,3.5,3.4,0C352,332.9,350.9,331.8,350.4,331.8z"/>
		<path class="st0" d="M388.8,346.8c-7.3,0-13.2-5.4-13.2-12.1s5.9-12.1,13.2-12.1S402,328,402,334.7S396.1,346.8,388.8,346.8z
			 M388.8,331.8c-0.5,0-1.7,1.1-1.7,2.8c0,3.5,3.4,3.5,3.4,0C390.5,332.9,389.3,331.8,388.8,331.8z"/>
		<path class="st0" d="M401.9,429.9c-7.3,0-13.2-5.4-13.2-12.1c0-6.7,5.9-12.1,13.2-12.1s13.2,5.4,13.2,12.1
			C415.1,424.5,409.2,429.9,401.9,429.9z M401.9,415c-0.5,0-1.7,1.1-1.7,2.8c0,3.5,3.4,3.5,3.4,0C403.6,416.1,402.4,415,401.9,415z"
			/>
		<path class="st0" d="M430.1,365.4H170.5c-4.1,0-7.5-3.3-7.5-7.5c0-4.1,3.3-7.5,7.5-7.5h259.7c4.1,0,7.5,3.3,7.5,7.5
			C437.6,362,434.2,365.4,430.1,365.4z"/>
		<path class="st0" d="M459.4,405.1H145.7c-4.1,0-7.5-3.3-7.5-7.5c0-4.1,3.3-7.5,7.5-7.5h313.7c4.1,0,7.5,3.3,7.5,7.5
			C466.9,401.8,463.6,405.1,459.4,405.1z"/>
		<path class="st0" d="M266.9,422.9h-87.1c-4.1,0-7.5-3.3-7.5-7.5s3.3-7.5,7.5-7.5h87.1c4.1,0,7.5,3.3,7.5,7.5
			S271.1,422.9,266.9,422.9z"/>
	</g>
	<g>
		<path class="st0" d="M54.7,325.2c-4,0-7.3-3.1-7.5-7.1C41.5,196.2,123.7,87.8,242.8,60.3c135.8-31.3,271.7,53.5,303.1,189.3
			c0.9,4-1.6,8-5.6,9c-3.9,1-8-1.6-9-5.6C501.8,125.2,374,45.2,246.1,74.8c-112,25.9-189.4,127.9-184,242.6c0.2,4.1-3,7.6-7.1,7.8
			C54.9,325.2,54.8,325.2,54.7,325.2z"/>
	</g>
	<path class="st0" d="M57,333.5c-1.8,0-3.4-0.6-4.8-1.7L10,296.4c-3.2-2.7-3.6-7.4-0.9-10.5c2.7-3.1,7.4-3.5,10.5-0.9L56,315.5
		L86.6,279c2.7-3.2,7.4-3.6,10.5-0.9c3.2,2.7,3.6,7.4,0.9,10.5l-35.3,42.2c-1.3,1.5-3.1,2.5-5.1,2.6C57.4,333.5,57.2,333.5,57,333.5
		z"/>
	<g>
		<path class="st0" d="M301.6,561c-114.9,0-219.2-79.1-246.2-195.8c-0.9-4,1.6-8,5.6-9c4-0.9,8,1.6,9,5.6
			c29.5,127.7,157.3,207.6,285.2,178.1c112-25.9,189.4-127.9,184-242.6c-0.2-4.1,3-7.6,7.1-7.8c4.2-0.3,7.6,3,7.8,7.1
			c5.8,121.9-76.5,230.3-195.5,257.8C339.5,558.9,320.4,561,301.6,561z"/>
	</g>
	<path class="st0" d="M509,338.4c-1.7,0-3.4-0.6-4.8-1.7c-3.2-2.7-3.6-7.4-0.9-10.5l35.3-42.2c1.3-1.5,3.1-2.5,5.1-2.7
		c2-0.2,3.9,0.4,5.5,1.7l42.2,35.3c3.2,2.7,3.6,7.4,0.9,10.5c-2.7,3.2-7.3,3.6-10.5,0.9l-36.5-30.5l-30.5,36.5
		C513.3,337.5,511.1,338.4,509,338.4z"/>
</g>
</svg>
