<svg id="Capa_1" data-name="Capa 1" xmlns="http://www.w3.org/2000/svg" viewBox="0 0 400.86 400.85"><defs><style>.cls-1{fill:#006dd9;}</style></defs><path class="cls-1" d="M386.31,218.08a6,6,0,0,0-8.54,0l-84.94,84.58L208.25,217.7a6,6,0,0,0-4.27-1.78,6,6,0,0,0-4.29,10.3l84.58,84.94-84.94,84.59a6,6,0,1,0,8.52,8.56l84.94-84.59,84.58,84.93a6,6,0,0,0,8.56-8.51L301.35,311.2l84.93-84.58A6,6,0,0,0,386.31,218.08Z" transform="translate(-98.35 -105.44)"/><path class="cls-1" d="M440.59,164.06a200.8,200.8,0,0,0-283.6,0c-78.18,78.19-78.18,205.4,0,283.58a200.74,200.74,0,0,0,283.6,0C518.76,369.47,518.76,242.26,440.59,164.06Zm-8.54,275.05a188.65,188.65,0,0,1-266.52,0c-73.47-73.48-73.47-193,0-266.51a188.72,188.72,0,0,1,266.52,0C505.51,246.08,505.51,365.63,432.05,439.11Z" transform="translate(-98.35 -105.44)"/></svg>