<svg id="Capa_1" data-name="Capa 1" xmlns="http://www.w3.org/2000/svg" viewBox="0 0 437.85 461.15"><defs><style>.cls-1{fill:#fff;}</style></defs><path class="cls-1" d="M329.1,498.38h-233a5.5,5.5,0,0,1-5.5-5.5V366.18a5.36,5.36,0,0,1,.2-1.43l15.84-58.81,18-119.3c-.09-4.65-.09-4.65,55.23-5L449,179.69H449a5.5,5.5,0,0,1,5.44,4.71L470.29,293l7.41,21.14a5.5,5.5,0,1,1-10.4,3.59l-7.66-22.14L444.26,190.73c-36.81.25-273.2,1.93-309.51,2.2L117.34,308.18l-15.78,58.73V487.38H329.1a5.5,5.5,0,0,1,0,11Z" transform="translate(-90.56 -58.66)"/><path class="cls-1" d="M235.21,187.3a5.5,5.5,0,0,1-5.5-5.5V147.86a5.5,5.5,0,0,1,11,0V181.8A5.5,5.5,0,0,1,235.21,187.3Z" transform="translate(-90.56 -58.66)"/><path class="cls-1" d="M329.1,151.11H136.79a5.5,5.5,0,0,1-5.5-5.5V64.16a5.5,5.5,0,0,1,5.5-5.5H329.1a5.5,5.5,0,0,1,5.5,5.5v81.45A5.5,5.5,0,0,1,329.1,151.11Zm-186.81-11H323.6V69.66H142.29Z" transform="translate(-90.56 -58.66)"/><path class="cls-1" d="M425.24,310.6H156a5.48,5.48,0,0,1-5.48-6l8.11-86a5.51,5.51,0,0,1,5.48-5H412.8a5.52,5.52,0,0,1,5.45,4.71l12.44,86a5.51,5.51,0,0,1-5.45,6.28Zm-263.18-11H418.9l-10.85-75H169.13Z" transform="translate(-90.56 -58.66)"/><path class="cls-1" d="M139.25,351.33c-7.72,0-14-5.52-14-12.29s6.27-12.29,14-12.29,14,5.51,14,12.29S147,351.33,139.25,351.33Zm0-13.58c-2,0-3,1.07-3,1.29s1,1.28,3,1.28,3-1.07,3-1.28S141.22,337.75,139.25,337.75Z" transform="translate(-90.56 -58.66)"/><path class="cls-1" d="M195.65,351.33c-7.71,0-14-5.52-14-12.29s6.27-12.29,14-12.29,14,5.51,14,12.29S203.36,351.33,195.65,351.33Zm0-13.58c-2,0-3,1.07-3,1.29s1,1.28,3,1.28,3-1.07,3-1.28S197.63,337.75,195.65,337.75Z" transform="translate(-90.56 -58.66)"/><path class="cls-1" d="M139.25,381.69c-7.72,0-14-5.51-14-12.27s6.27-12.29,14-12.29,14,5.51,14,12.29S147,381.69,139.25,381.69Zm0-13.56c-2,0-3,1.07-3,1.29s1.09,1.27,3,1.27,2.92-1,3-1.27S141.22,368.13,139.25,368.13Z" transform="translate(-90.56 -58.66)"/><path class="cls-1" d="M195.65,381.69c-7.71,0-14-5.51-14-12.27s6.27-12.29,14-12.29,14,5.51,14,12.29S203.36,381.69,195.65,381.69Zm0-13.56c-2,0-3,1.07-3,1.29s1.08,1.27,3,1.27,2.93-1,3-1.27S197.63,368.13,195.65,368.13Z" transform="translate(-90.56 -58.66)"/><path class="cls-1" d="M250.32,351.91c-7.71,0-14-5.52-14-12.28s6.27-12.29,14-12.29,14,5.51,14,12.29S258,351.91,250.32,351.91Zm0-13.57c-1.93,0-2.94,1-3,1.29s1.07,1.28,3,1.28,2.94-1,3-1.28h0C253.27,339.36,252.26,338.34,250.32,338.34Z" transform="translate(-90.56 -58.66)"/><path class="cls-1" d="M306,409H98.33a5.5,5.5,0,1,1,0-11H306a5.5,5.5,0,0,1,0,11Z" transform="translate(-90.56 -58.66)"/><path class="cls-1" d="M272.54,454.26H144.7a5.5,5.5,0,0,1,0-11H272.54a5.5,5.5,0,0,1,0,11Z" transform="translate(-90.56 -58.66)"/><path class="cls-1" d="M430.15,519.81a98.26,98.26,0,1,1,98.26-98.26A98.37,98.37,0,0,1,430.15,519.81Zm0-185.52a87.26,87.26,0,1,0,87.26,87.26A87.36,87.36,0,0,0,430.15,334.29Z" transform="translate(-90.56 -58.66)"/><path class="cls-1" d="M429.1,356.39a3.72,3.72,0,0,1,2.77,1.24l49.71,56.23a3.69,3.69,0,0,1-2.77,6.14l-22,0,.16,49.13a3.68,3.68,0,0,1-3.68,3.71h0a3.7,3.7,0,0,1-3.69-3.68l-.17-52.84a3.72,3.72,0,0,1,1.07-2.62,3.68,3.68,0,0,1,2.62-1.08l17.54,0-41.51-46.94-41.27,47.24,17.43-.1a3.15,3.15,0,0,1,2.62,1.07,3.71,3.71,0,0,1,1.1,2.61l.17,52.85a3.69,3.69,0,0,1-3.68,3.71h0a3.69,3.69,0,0,1-3.69-3.68l-.16-49.15-21.91.13a3.94,3.94,0,0,1-3.39-2.15,3.68,3.68,0,0,1,.57-4l49.42-56.59a3.66,3.66,0,0,1,2.77-1.27Z" transform="translate(-90.56 -58.66)"/></svg>