<?xml version="1.0" encoding="utf-8"?>
<!-- Generator: Adobe Illustrator 25.0.0, SVG Export Plug-In . SVG Version: 6.00 Build 0)  -->
<svg version="1.1" id="Capa_1" xmlns="http://www.w3.org/2000/svg" xmlns:xlink="http://www.w3.org/1999/xlink" x="0px" y="0px"
	 viewBox="0 0 600 600" style="enable-background:new 0 0 600 600;" xml:space="preserve">
<style type="text/css">
	.st0{fill:#2E68B0;}
	.st1{fill:none;}
	.st2{fill:#173E71;}
</style>
<g>
	<path class="st0" d="M276.8,463.8H99.7c-4.6,0-8.3-3.7-8.3-8.3V44.7c0-4.6,3.7-8.3,8.3-8.3h329.7c4.6,0,8.3,3.7,8.3,8.3V327
		c0,4.6-3.7,8.3-8.3,8.3s-8.3-3.7-8.3-8.3V53H108v394.2h168.8c4.6,0,8.3,3.7,8.3,8.3S281.4,463.8,276.8,463.8z"/>
	<path class="st0" d="M322.2,106.3H201.6c-4.6,0-8.3-3.7-8.3-8.3s3.7-8.3,8.3-8.3h120.6c4.6,0,8.3,3.7,8.3,8.3
		S326.8,106.3,322.2,106.3z"/>
	<path class="st0" d="M291.7,179.7h-139c-4.6,0-8.3-3.7-8.3-8.3s3.7-8.3,8.3-8.3h139c4.6,0,8.3,3.7,8.3,8.3S296.2,179.7,291.7,179.7
		z"/>
	<path class="st0" d="M369.5,179.7h-39.3c-4.6,0-8.3-3.7-8.3-8.3s3.7-8.3,8.3-8.3h39.3c4.6,0,8.3,3.7,8.3,8.3S374,179.7,369.5,179.7
		z"/>
	<path class="st0" d="M368.6,252.3H153.8c-4.6,0-8.3-3.7-8.3-8.3c0-4.6,3.7-8.3,8.3-8.3h214.8c4.6,0,8.3,3.7,8.3,8.3
		C376.9,248.5,373.2,252.3,368.6,252.3z"/>
	<path class="st0" d="M331,364h-57.2c-4.6,0-8.3-3.7-8.3-8.3s3.7-8.3,8.3-8.3H331c4.6,0,8.3,3.7,8.3,8.3S335.6,364,331,364z"/>
	<g>
		<path class="st0" d="M417.9,575.7c-62.7,0-113.7-51-113.7-113.7s51-113.7,113.7-113.7s113.7,51,113.7,113.7
			S480.6,575.7,417.9,575.7z M417.9,365c-53.5,0-97,43.5-97,97s43.5,97,97,97s97-43.5,97-97S471.4,365,417.9,365z"/>
		<path class="st0" d="M406.2,505.5c-2.2,0-4.3-0.9-5.9-2.4l-35.1-35.1c-3.2-3.2-3.2-8.5,0-11.7s8.5-3.2,11.7,0l28.7,28.7l52.7-63.3
			c3-3.5,8.2-4,11.7-1.1c3.5,3,4,8.2,1.1,11.7l-58.5,70.2c-1.5,1.8-3.7,2.9-6,3C406.5,505.5,406.3,505.5,406.2,505.5z"/>
	</g>
	<path class="st0" d="M200.9,348.8c-7.3,0-13.3-5.7-13.3-12.6c0-7,5.9-12.6,13.3-12.6c7.3,0,13.2,5.7,13.2,12.6c0,3.5,3,6.4,6.7,6.4
		s6.7-2.9,6.7-6.4c0-11.8-8.6-21.2-20-24.2v-3c0-3.5-3-6.4-6.7-6.4s-6.7,2.9-6.7,6.4v3c-11.4,2.9-20,12.4-20,24.2
		c0,14,12,25.4,26.7,25.4c7.3,0,13.2,5.7,13.2,12.6c0,7-5.9,12.6-13.2,12.6c-7.3,0-13.3-5.7-13.3-12.6c0-3.5-3-6.4-6.7-6.4
		c-3.7,0-6.7,2.9-6.7,6.4c0,11.8,8.6,21.2,20,24.1v3c0,3.5,3,6.4,6.7,6.4s6.7-2.9,6.7-6.4v-3c11.4-2.9,20-12.4,20-24.1
		C227.6,360.2,215.6,348.8,200.9,348.8z"/>
</g>
</svg>
