<svg id="Capa_1" data-name="Capa 1" xmlns="http://www.w3.org/2000/svg" viewBox="0 0 200 200"><defs><style>.cls-1,.cls-2{fill:#006dd9;}.cls-1{stroke:#006dd9;stroke-miterlimit:10;}</style></defs><path class="cls-1" d="M109.56,180.47H23.4a2,2,0,0,1-2-2V131.59a1.93,1.93,0,0,1,.07-.53l5.86-21.74,6.64-44.11c0-1.71,0-1.71,20.42-1.87l99.52-.7h0a2,2,0,0,1,2,1.74l5.86,40.15,2.74,7.82a2,2,0,0,1-3.85,1.34l-2.83-8.19-5.69-38.78L37.7,67.53l-6.43,42.62-5.84,21.71V176.4h84.13a2,2,0,0,1,0,4.07Z"/><path class="cls-1" d="M74.84,65.45a2,2,0,0,1-2-2V50.87a2,2,0,0,1,4.07,0V63.42A2,2,0,0,1,74.84,65.45Z"/><path class="cls-1" d="M109.56,52.07H38.46a2,2,0,0,1-2-2V19.92a2,2,0,0,1,2-2h71.1a2,2,0,0,1,2,2V50A2,2,0,0,1,109.56,52.07ZM40.49,48h67V22h-67Z"/><path class="cls-1" d="M145.11,111H45.57a2,2,0,0,1-2-2.22l3-31.79a2,2,0,0,1,2-1.84h91.94a2,2,0,0,1,2,1.74l4.6,31.78a2.05,2.05,0,0,1-.48,1.63A2,2,0,0,1,145.11,111ZM47.8,107h95l-4-27.71H50.42Z"/><path class="cls-2" d="M39.36,126.1c-2.85,0-5.17-2-5.17-4.54S36.51,117,39.36,117s5.17,2,5.17,4.55S42.21,126.1,39.36,126.1Zm0-5c-.73,0-1.1.39-1.1.48a1.51,1.51,0,0,0,2.21,0h0C40.47,121.47,40.1,121.08,39.36,121.08Z"/><path class="cls-2" d="M60.22,126.1c-2.85,0-5.17-2-5.17-4.54S57.37,117,60.22,117s5.17,2,5.17,4.55S63.07,126.1,60.22,126.1Zm0-5c-.74,0-1.1.4-1.1.48a1.5,1.5,0,0,0,2.2,0A1.2,1.2,0,0,0,60.22,121.08Z"/><path class="cls-2" d="M39.36,137.33c-2.85,0-5.17-2-5.17-4.54s2.32-4.54,5.17-4.54,5.17,2,5.17,4.54S42.21,137.33,39.36,137.33Zm0-5c-.73,0-1.1.39-1.1.48a1.23,1.23,0,0,0,1.1.47,1.25,1.25,0,0,0,1.11-.47C40.47,132.7,40.1,132.31,39.36,132.31Z"/><path class="cls-2" d="M60.22,137.33c-2.85,0-5.17-2-5.17-4.54s2.32-4.54,5.17-4.54,5.17,2,5.17,4.54S63.07,137.33,60.22,137.33Zm0-5c-.74,0-1.1.4-1.1.48a1.52,1.52,0,0,0,2.2,0A1.2,1.2,0,0,0,60.22,132.31Z"/><path class="cls-2" d="M80.44,126.32c-2.85,0-5.17-2-5.17-4.55s2.32-4.54,5.17-4.54,5.17,2,5.17,4.54S83.29,126.32,80.44,126.32Zm0-5a1.24,1.24,0,0,0-1.11.47,1.51,1.51,0,0,0,2.21,0A1.21,1.21,0,0,0,80.44,121.3Z"/><path class="cls-1" d="M101,147.43H24.24a2,2,0,1,1,0-4.07H101a2,2,0,0,1,0,4.07Z"/><path class="cls-1" d="M88.65,164.16H41.38a2,2,0,0,1,0-4.07H88.65a2,2,0,0,1,0,4.07Z"/><path class="cls-1" d="M146.93,188.4a36.33,36.33,0,1,1,36.33-36.34A36.37,36.37,0,0,1,146.93,188.4Zm0-68.6a32.27,32.27,0,1,0,32.26,32.26A32.31,32.31,0,0,0,146.93,119.8Z"/><path class="cls-1" d="M147.51,172h0a2,2,0,0,1-2-2l.07-35.85a2,2,0,0,1,2-2h0a2,2,0,0,1,2,2.05l-.08,35.85A2,2,0,0,1,147.51,172Z"/><path class="cls-1" d="M165.47,154.08h0L129.61,154a2,2,0,0,1,0-4.07h0l35.86.08a2,2,0,1,1,0,4.07Z"/></svg>