<svg id="Capa_1" data-name="Capa 1" xmlns="http://www.w3.org/2000/svg" viewBox="0 0 200 200"><defs><style>.cls-1{fill:#006dd9;stroke:#006dd9;stroke-miterlimit:10;}</style></defs><path class="cls-1" d="M109.05,178H23.35V148.52h77a2.07,2.07,0,0,0,0-4.14h-77V132.67l5.95-22.13,6.55-43.41,116.57-.82,5.8,39.49,2.88,8.34a2,2,0,0,0,2.63,1.28,2.07,2.07,0,0,0,1.29-2.64l-2.79-8-6-40.89a2.08,2.08,0,0,0-2-1.78h0l-78.43.56V51.38h33.29a2.07,2.07,0,0,0,2.07-2.07V18.64a2.08,2.08,0,0,0-2.07-2.08H36.62a2.08,2.08,0,0,0-2.07,2.08V49.31a2.07,2.07,0,0,0,2.07,2.07h35V62.73l-18.79.14C32,63,32,63,32,64.77l-6.77,44.92-6,22.16a2,2,0,0,0-.07.54v47.72a2.07,2.07,0,0,0,2.07,2.07h87.77a2.07,2.07,0,0,0,0-4.14ZM38.69,20.71H107V47.24H38.69Z"/><path class="cls-1" d="M146.83,110.75a2.09,2.09,0,0,0,.48-1.66L142.63,76.7a2.08,2.08,0,0,0-2-1.77H46.92a2.08,2.08,0,0,0-2.07,1.88L41.8,109.19a2.1,2.1,0,0,0,.53,1.59,2,2,0,0,0,1.53.68h101.4A2.1,2.1,0,0,0,146.83,110.75ZM46.14,107.31,48.8,79.07h90l4.09,28.24Z"/><path class="cls-1" d="M37.54,117.53c-2.9,0-5.26,2.08-5.26,4.63s2.36,4.63,5.26,4.63,5.27-2.08,5.27-4.63S40.45,117.53,37.54,117.53Zm0,5.12c-.75,0-1.12-.4-1.12-.49a1.56,1.56,0,0,1,2.25,0C38.67,122.25,38.29,122.65,37.54,122.65Z"/><path class="cls-1" d="M58.79,117.53c-2.91,0-5.27,2.08-5.27,4.63s2.36,4.63,5.27,4.63,5.26-2.08,5.26-4.63S61.69,117.53,58.79,117.53Zm0,5.12a1.24,1.24,0,0,1-1.13-.49,1.27,1.27,0,0,1,1.13-.48,1.24,1.24,0,0,1,1.12.48A1.23,1.23,0,0,1,58.79,122.65Z"/><path class="cls-1" d="M37.54,129c-2.9,0-5.26,2.08-5.26,4.63s2.36,4.62,5.26,4.62,5.27-2.08,5.27-4.62S40.45,129,37.54,129Zm0,5.11c-.75,0-1.12-.4-1.12-.48a1.54,1.54,0,0,1,2.25,0A1.24,1.24,0,0,1,37.54,134.09Z"/><path class="cls-1" d="M58.79,129c-2.91,0-5.27,2.08-5.27,4.63s2.36,4.62,5.27,4.62,5.26-2.08,5.26-4.62S61.69,129,58.79,129Zm0,5.11a1.24,1.24,0,0,1-1.13-.48,1.24,1.24,0,0,1,1.13-.49,1.22,1.22,0,0,1,1.12.49A1.23,1.23,0,0,1,58.79,134.09Z"/><path class="cls-1" d="M74.11,122.39c0,2.55,2.37,4.62,5.27,4.62s5.27-2.07,5.27-4.62-2.36-4.63-5.27-4.63S74.11,119.84,74.11,122.39Zm6.4,0a1.27,1.27,0,0,1-1.13.48,1.23,1.23,0,0,1-1.12-.48,1.21,1.21,0,0,1,1.12-.49A1.24,1.24,0,0,1,80.51,122.39Z"/><path class="cls-1" d="M39.6,161.42a2.07,2.07,0,0,0,0,4.14H87.74a2.07,2.07,0,1,0,0-4.14Z"/><path class="cls-1" d="M147.11,116.23a37,37,0,1,0,37,37A37.05,37.05,0,0,0,147.11,116.23Zm0,69.88A32.87,32.87,0,1,1,180,153.24,32.91,32.91,0,0,1,147.11,186.11Z"/><path class="cls-1" d="M147.76,129.17a1.41,1.41,0,0,0-1-.47h0a1.38,1.38,0,0,0-1,.48l-18.62,21.31a1.41,1.41,0,0,0-.21,1.5,1.49,1.49,0,0,0,1.27.81l8.26-.05.06,18.51a1.38,1.38,0,0,0,1.39,1.38h0a1.39,1.39,0,0,0,1.39-1.39l-.07-19.91a1.39,1.39,0,0,0-.41-1,1.18,1.18,0,0,0-1-.4l-6.56,0,15.54-17.79,15.63,17.68h-6.6a1.4,1.4,0,0,0-1,.4,1.42,1.42,0,0,0-.4,1l.06,19.9a1.39,1.39,0,0,0,1.39,1.39h0a1.39,1.39,0,0,0,1.38-1.4l-.06-18.5h8.3a1.39,1.39,0,0,0,1-2.31Z"/></svg>