<svg id="Capa_1" data-name="Capa 1" xmlns="http://www.w3.org/2000/svg" viewBox="0 0 200 200"><defs><style>.cls-1{fill:#006dd9;}</style></defs><path class="cls-1" d="M110.13,188.66H13.76a4,4,0,0,1-4-4v-52.4a4.06,4.06,0,0,1,.13-1l6.49-24.1L23.79,58c.16-2.73,2.32-3.43,4-3.61v-.06a2.82,2.82,0,0,1,.41,0c.4,0,.76,0,1,0l130.45-.93h0a4,4,0,0,1,4,3.42l6.5,44.54,3,8.8a4,4,0,0,1-7.56,2.62l-3.17-9.16a3.68,3.68,0,0,1-.17-.73l-6.05-41.46-125,.88-7,46.21a3.58,3.58,0,0,1-.09.45l-6.41,23.81v47.87h92.37a4,4,0,0,1,0,8Z"/><path class="cls-1" d="M71.3,60a4,4,0,0,1-4-4V42a4,4,0,0,1,8,0V56A4,4,0,0,1,71.3,60Z"/><path class="cls-1" d="M110.13,45H30.6a4,4,0,0,1-4-4V7.36a4,4,0,0,1,4-4h79.53a4,4,0,0,1,4,4V41A4,4,0,0,1,110.13,45ZM34.6,37h71.53V11.36H34.6Z"/><path class="cls-1" d="M149.89,111H38.55a4,4,0,0,1-4-4.37l3.35-35.56a4,4,0,0,1,4-3.62H144.74a4,4,0,0,1,4,3.42l5.15,35.56a4,4,0,0,1-.94,3.19A4,4,0,0,1,149.89,111ZM42.94,103H145.27l-4-27.55H45.54Z"/><ellipse class="cls-1" cx="31.61" cy="121.03" rx="3.51" ry="2.81"/><ellipse class="cls-1" cx="54.94" cy="121.03" rx="3.51" ry="2.81"/><ellipse class="cls-1" cx="31.61" cy="133.6" rx="3.51" ry="2.81"/><ellipse class="cls-1" cx="54.94" cy="133.6" rx="3.51" ry="2.81"/><ellipse class="cls-1" cx="77.55" cy="121.28" rx="3.51" ry="2.81"/><path class="cls-1" d="M100.57,151.7H14.69a4,4,0,1,1,0-8h85.88a4,4,0,0,1,0,8Z"/><path class="cls-1" d="M86.73,170.41H33.87a4,4,0,1,1,0-8H86.73a4,4,0,0,1,0,8Z"/><path class="cls-1" d="M151.92,197.52a42.37,42.37,0,1,1,42.36-42.36A42.4,42.4,0,0,1,151.92,197.52Zm0-76.73a34.37,34.37,0,1,0,34.36,34.37A34.4,34.4,0,0,0,151.92,120.79Z"/><path class="cls-1" d="M151.48,128.21a1.56,1.56,0,0,1,1.15.51L173.19,152a1.56,1.56,0,0,1,.25,1.64,1.53,1.53,0,0,1-1.4.9h-9.1l.06,20.32a1.53,1.53,0,0,1-1.52,1.54h0a1.52,1.52,0,0,1-1.52-1.52L159.88,153a1.52,1.52,0,0,1,1.52-1.53h7.26l-17.17-19.42-17.07,19.54,7.21,0a1.31,1.31,0,0,1,1.09.44,1.56,1.56,0,0,1,.45,1.08l.07,21.86a1.53,1.53,0,0,1-1.52,1.53h0a1.52,1.52,0,0,1-1.53-1.52l-.07-20.33-9.06.06a1.64,1.64,0,0,1-1.4-.89,1.52,1.52,0,0,1,.24-1.64l20.43-23.4a1.51,1.51,0,0,1,1.15-.53Z"/></svg>