<?xml version="1.0" encoding="utf-8"?>
<!-- Generator: Adobe Illustrator 24.3.0, SVG Export Plug-In . SVG Version: 6.00 Build 0)  -->
<svg version="1.1" id="Capa_1" xmlns="http://www.w3.org/2000/svg" xmlns:xlink="http://www.w3.org/1999/xlink" x="0px" y="0px"
	 viewBox="0 0 600 600" style="enable-background:new 0 0 600 600;" xml:space="preserve">
<style type="text/css">
	.st0{fill:#2E68B0;}
</style>
<g>
	<g>
		<path class="st0" d="M348.7,389.7c0,23.8-16.2,43.7-38.4,49.3v11.6c0,7.1-5.6,12.6-12.4,12.6c-7.1,0-12.6-5.6-12.6-12.6v-11.9
			c-21.5-5.6-37.7-25.5-37.7-49.1c0-6.8,5.6-12.6,12.7-12.6c7.1,0,12.6,5.8,12.6,12.6c0,9.4,5,17.4,12.4,22v-49.1
			c-21.5-5.6-37.7-25.3-37.7-48.8c0-23.2,16.2-43.2,37.7-48.8V255c0-6.8,5.6-12.4,12.6-12.4c6.8,0,12.4,5.6,12.4,12.4v9.9
			c22.2,5.6,38.4,25.5,38.4,49c0,7.1-5.6,12.7-12.6,12.7c-6.8,0-12.6-5.6-12.6-12.7c0-9.6-5.3-17.9-13.2-22.2v49.1
			C332.5,346.2,348.7,366.2,348.7,389.7z M285.2,335.6v-43.5c-7.3,4.6-12.4,12.6-12.4,21.7C272.8,323,277.9,331.1,285.2,335.6z
			 M323.4,389.7c0-9.6-5.3-18-13.2-22.2v44.8C318.1,407.7,323.4,399.4,323.4,389.7z"/>
	</g>
	<path id="XMLID_99_" class="st0" d="M464.6,204c-0.1-19-15.6-34.5-34.6-34.5h-51.7V130c0-27.5-22.4-49.9-49.9-49.9h-60.4
		c-27.5,0-49.9,22.4-49.9,49.9v39.5h-51.7c-19,0-34.6,15.5-34.6,34.5l-10.6,304.3l0,0.2c0,19.1,15.5,34.6,34.6,34.6h284.6
		c19.1,0,34.6-15.5,34.6-34.6v-0.1L464.6,204z M234.5,130c0-18.5,15.1-33.6,33.6-33.6h60.4c18.5,0,33.6,15.1,33.6,33.6v39.5H234.5
		V130z M440.6,531.2H155.9c-12.4,0-22.5-10.1-22.6-22.5l10.6-304.3l0-0.2c0-12.5,10.1-22.6,22.6-22.6h51.7h16.3H362h16.3H430
		c12.5,0,22.6,10.1,22.6,22.6v0.1l10.6,304.4C463.1,521.1,453,531.2,440.6,531.2z"/>
</g>
</svg>
