<svg id="Capa_1" data-name="Capa 1" xmlns="http://www.w3.org/2000/svg" viewBox="0 0 200 200"><defs><style>.cls-1{fill:#006dd9;}.cls-2,.cls-3{fill:none;}.cls-2{stroke:#006dd9;stroke-linecap:round;stroke-linejoin:round;stroke-width:8px;}</style></defs><path class="cls-1" d="M114.1,110.23l.13,1.6a8.81,8.81,0,0,1,2.68.42,5.24,5.24,0,0,1,2,1.32,6.52,6.52,0,0,1,1.12,1.47,3.72,3.72,0,0,1,.48,1.43,1.79,1.79,0,0,1-.42,1.33,1.66,1.66,0,0,1-1.22.64A1.79,1.79,0,0,1,117,117a3.32,3.32,0,0,0-2.49-2.26l.53,6.15c1.21.24,2.18.46,2.9.68a5.88,5.88,0,0,1,2,1,5.43,5.43,0,0,1,1.53,1.83,6.07,6.07,0,0,1,.69,2.43,6.82,6.82,0,0,1-.49,3.23,6.28,6.28,0,0,1-2.05,2.6,8,8,0,0,1-3.43,1.41l.31,3.68a3.54,3.54,0,0,1-.06,1.29.68.68,0,0,1-.68.46.77.77,0,0,1-.75-.27,1.87,1.87,0,0,1-.3-1l-.34-4a8.84,8.84,0,0,1-3-.56,7.06,7.06,0,0,1-2.22-1.37,6.49,6.49,0,0,1-1.4-1.82,5.4,5.4,0,0,1-.57-1.93,1.8,1.8,0,0,1,.43-1.32,1.73,1.73,0,0,1,1.29-.68,1.82,1.82,0,0,1,1.11.21,1.69,1.69,0,0,1,.69.82,18.77,18.77,0,0,0,.83,1.8,3.72,3.72,0,0,0,1,1.11,3.89,3.89,0,0,0,1.61.68l-.59-6.88a17.12,17.12,0,0,1-3.3-.95,5.33,5.33,0,0,1-2.25-1.74,5.75,5.75,0,0,1-1.08-3.12,5.82,5.82,0,0,1,1.21-4.31,7,7,0,0,1,4.37-2.28l-.14-1.57c-.07-.83.2-1.27.8-1.32S114,109.42,114.1,110.23Zm-.95,10.3-.49-5.66a5,5,0,0,0-1.79,1.13,2.37,2.37,0,0,0-.51,1.89,2.31,2.31,0,0,0,.78,1.72A5.72,5.72,0,0,0,113.15,120.53Zm2.19,4.24.55,6.48a3.9,3.9,0,0,0,2.13-1.39,3.11,3.11,0,0,0,.6-2.17,2.56,2.56,0,0,0-.93-1.92A6.21,6.21,0,0,0,115.34,124.77Z"/><path class="cls-2" d="M185.44,89.87l-.65-7.58a4.1,4.1,0,0,0-4.37-3.81l-23.61,2L65.36,88.3l-23.61,2a4.1,4.1,0,0,0-3.65,4.5L44,164.34a4.1,4.1,0,0,0,4.37,3.81l23.61-2,91.45-7.81,23.61-2a4.1,4.1,0,0,0,3.65-4.5l-1.28-15.08Z"/><path class="cls-2" d="M161.08,91.54l-3.3.29-20.31,1.73L86.64,97.9,66.33,99.63l-3.3.28A14.7,14.7,0,0,1,49.92,116l2.17,25.4a14.69,14.69,0,0,1,15.65,13.66l3.3-.28,20.31-1.74,50.83-4.34L162.49,147l3.3-.28"/><path class="cls-2" d="M165.79,146.42c-.66-8.23,5.8-14.47,13.75-15.1l-2-25.41a14.59,14.59,0,0,1-15.05-10.78l-1.39-3.59"/><circle class="cls-2" cx="114.13" cy="123.89" r="20.83"/><path class="cls-2" d="M168.32,76.51l1.61-7.44a4.1,4.1,0,0,0-3.05-4.92l-23.16-5L54,39.72l-23.17-5A4.09,4.09,0,0,0,26,37.92L11.27,106.13a4.09,4.09,0,0,0,3.05,4.92l23.16,5"/><path class="cls-2" d="M144.55,71l-3.24-.7-19.92-4.31L71.53,55.14,51.61,50.83l-3.24-.7A14.69,14.69,0,0,1,31.1,61.68L25.71,86.59c7.79,1.69,12.1,8,12.53,16.67"/><path class="cls-2" d="M146.23,80.52c-3-2.55-1.68-9.57-1.68-9.57"/><path class="cls-2" d="M69.5,85.38a20.84,20.84,0,0,1,41.2-.85"/><path class="cls-3" d="M89.37,79.57a2.33,2.33,0,0,0-1.06,1.66,2.25,2.25,0,0,0,.26,1.86,5.58,5.58,0,0,0,1,.87l.81-.06L91.4,79A4.74,4.74,0,0,0,89.37,79.57Z"/><path class="cls-3" d="M93.18,79.44l-.93,4.31,3-.24a2.12,2.12,0,0,1-.35-1.15A3.41,3.41,0,0,0,93.18,79.44Z"/><path class="cls-3" d="M90.2,84.57l.14-.67-.81.06A4.47,4.47,0,0,0,90.2,84.57Z"/><path class="cls-1" d="M96.33,84.27A1.8,1.8,0,0,0,97.69,84a1.63,1.63,0,0,0,.49-.73l-2.93.23A1.67,1.67,0,0,0,96.33,84.27Z"/><path class="cls-1" d="M88.57,83.09a2.25,2.25,0,0,1-.26-1.86,2.33,2.33,0,0,1,1.06-1.66,4.74,4.74,0,0,1,2-.56L90.34,83.9l1.91-.15.93-4.31a3.41,3.41,0,0,1,1.72,2.92,2.12,2.12,0,0,0,.35,1.15l2.93-.23c.08-.15.25-.24.29-.42a3.87,3.87,0,0,0,0-1.51,6.4,6.4,0,0,0-.65-1.74,5.24,5.24,0,0,0-1.56-1.86,8.53,8.53,0,0,0-2.42-1.19L94.14,75c.17-.79,0-1.25-.64-1.37s-1,.21-1.14,1L92,76.18a7,7,0,0,0-4.84.89,6.54,6.54,0,0,0-2.31,7.06c0,.08.1.12.13.19L89.53,84A5.58,5.58,0,0,1,88.57,83.09Z"/></svg>