<?xml version="1.0" encoding="utf-8"?>
<!-- Generator: Adobe Illustrator 24.3.0, SVG Export Plug-In . SVG Version: 6.00 Build 0)  -->
<svg version="1.1" id="Capa_1" xmlns="http://www.w3.org/2000/svg" xmlns:xlink="http://www.w3.org/1999/xlink" x="0px" y="0px"
	 viewBox="0 0 200 200" style="enable-background:new 0 0 200 200;" xml:space="preserve">
<style type="text/css">
	.st0{fill:#006dd9;}
	.st1{fill:none;stroke:#006dd9;stroke-width:0.5;stroke-linecap:round;stroke-linejoin:round;stroke-miterlimit:10;}
	.st2{fill:#006dd9;stroke:#006dd9;stroke-miterlimit:10;}
</style>
<g>
	<path class="st2" d="M140.6,45.8c0.4-0.2,0.8-0.5,1.1-1l5.6-10.1c0.6-1.1,0.2-2.5-0.9-3.1c-1.1-0.6-2.5-0.2-3.1,0.9l-5.6,10.1
		c-0.2,0.3-0.3,0.7-0.3,1c-11.7-7.6-25.7-12-40.7-12c-41.4,0-75.1,33.7-75.1,75.1c0,41.4,33.7,75.1,75.1,75.1
		c41.4,0,75.1-33.7,75.1-75.1C171.8,81.7,159.5,59.5,140.6,45.8z M96.8,177.2c-38.9,0-70.5-31.6-70.5-70.5
		c0-38.9,31.6-70.5,70.5-70.5c38.9,0,70.5,31.6,70.5,70.5C167.3,145.6,135.6,177.2,96.8,177.2z"/>
	<path class="st2" d="M99.1,105.6V65.5c0-1.3-1-2.3-2.3-2.3c-1.3,0-2.3,1-2.3,2.3v41.1c0,0.7,0.3,1.3,0.8,1.7l29.1,25.5
		c0.4,0.4,1,0.6,1.5,0.6c0.6,0,1.3-0.3,1.7-0.8c0.8-0.9,0.7-2.4-0.2-3.2L99.1,105.6z"/>
	<path class="st2" d="M73.4,19.8H115c1.3,0,2.3-1,2.3-2.3c0-1.3-1-2.3-2.3-2.3H73.4c-1.3,0-2.3,1-2.3,2.3
		C71.1,18.8,72.2,19.8,73.4,19.8z"/>
</g>
</svg>
