<?xml version="1.0" encoding="utf-8"?>
<!-- Generator: Adobe Illustrator 24.3.0, SVG Export Plug-In . SVG Version: 6.00 Build 0)  -->
<svg version="1.1" id="Capa_1" xmlns="http://www.w3.org/2000/svg" xmlns:xlink="http://www.w3.org/1999/xlink" x="0px" y="0px"
	 viewBox="0 0 200 200" style="enable-background:new 0 0 200 200;" xml:space="preserve">
<style type="text/css">
	.st0{fill:#006dd9;}
</style>
<g>
	<path class="st0" d="M169.2,154.9H32.1c-7.7,0-14-6.3-14-14V58.3c0-7.7,6.3-14,14-14h137.1c7.7,0,14,6.3,14,14v82.6
		C183.2,148.6,176.9,154.9,169.2,154.9z M32.1,49.4c-4.9,0-8.9,4-8.9,8.9v82.6c0,4.9,4,8.9,8.9,8.9h137.1c4.9,0,8.9-4,8.9-8.9V58.3
		c0-4.9-4-8.9-8.9-8.9H32.1z"/>
	<path class="st0" d="M49,89c-8.1,0-14.6-6.6-14.6-14.6c0-8.1,6.6-14.6,14.6-14.6c8.1,0,14.6,6.6,14.6,14.6C63.6,82.4,57.1,89,49,89
		z M49,64.8c-5.3,0-9.6,4.3-9.6,9.6c0,5.3,4.3,9.6,9.6,9.6s9.6-4.3,9.6-9.6C58.6,69.1,54.3,64.8,49,64.8z"/>
	<path class="st0" d="M69.2,89c-1.4,0-2.5-1.1-2.5-2.5c0-1.4,1.1-2.5,2.5-2.5c5.3,0,9.6-4.3,9.6-9.6c0-5.3-4.3-9.6-9.6-9.6
		c-1.4,0-2.5-1.1-2.5-2.5c0-1.4,1.1-2.5,2.5-2.5c8.1,0,14.6,6.6,14.6,14.6C83.9,82.4,77.3,89,69.2,89z"/>
	<path class="st0" d="M160.2,105.2H40.9c-1.4,0-2.5-1.1-2.5-2.5c0-1.4,1.1-2.5,2.5-2.5h119.3c1.4,0,2.5,1.1,2.5,2.5
		C162.7,104.1,161.6,105.2,160.2,105.2z"/>
	<path class="st0" d="M160.4,142.1H136c-1.4,0-2.5-1.1-2.5-2.5V117c0-1.4,1.1-2.5,2.5-2.5h24.4c1.4,0,2.5,1.1,2.5,2.5v22.6
		C163,141,161.8,142.1,160.4,142.1z M138.6,137.1h19.3v-17.6h-19.3V137.1z"/>
</g>
</svg>
