<?xml version="1.0" encoding="utf-8"?>
<!-- Generator: Adobe Illustrator 24.3.0, SVG Export Plug-In . SVG Version: 6.00 Build 0)  -->
<svg version="1.1" id="Capa_1" xmlns="http://www.w3.org/2000/svg" xmlns:xlink="http://www.w3.org/1999/xlink" x="0px" y="0px"
	 viewBox="0 0 200 200" style="enable-background:new 0 0 200 200;" xml:space="preserve">
<style type="text/css">
	.st0{fill:#006dd9;}
	.st1{fill:none;stroke:#006dd9;stroke-width:0.5;stroke-linecap:round;stroke-linejoin:round;stroke-miterlimit:10;}
	.st2{fill:#006dd9;stroke:#006dd9;stroke-miterlimit:10;}
</style>
<g>
	<g>
		<g>
			<path class="st2" d="M124.2,187.9c-34.5,0-62.6-28.1-62.6-62.6s28.1-62.6,62.6-62.6s62.6,28.1,62.6,62.6S158.7,187.9,124.2,187.9
				z M124.2,67.1C92.1,67.1,66,93.2,66,125.3s26.1,58.2,58.2,58.2c32.1,0,58.2-26.1,58.2-58.2S156.3,67.1,124.2,67.1z"/>
		</g>
		<path class="st2" d="M148.4,148.6c-0.5,0-1-0.2-1.5-0.5l-24.2-21.1c-0.5-0.4-0.8-1-0.8-1.7V91.1c0-1.2,1-2.2,2.2-2.2
			s2.2,1,2.2,2.2v33.1l23.4,20.5c0.9,0.8,1,2.2,0.2,3.1C149.6,148.4,149,148.6,148.4,148.6z"/>
	</g>
	<path class="st2" d="M139.3,53.5h-34.5c-1.2,0-2.2-1-2.2-2.2s1-2.2,2.2-2.2h34.5c1.2,0,2.2,1,2.2,2.2S140.6,53.5,139.3,53.5z"/>
	<path class="st2" d="M159.9,75.3c-0.4,0-0.7-0.1-1.1-0.3c-1.1-0.6-1.5-1.9-0.9-3l4.7-8.4c0.6-1.1,1.9-1.4,3-0.9
		c1.1,0.6,1.5,1.9,0.9,3l-4.7,8.4C161.4,74.9,160.6,75.3,159.9,75.3z"/>
	<path class="st2" d="M50.9,145.3H25.5c-3.4,0-6.3-2.8-6.3-6.3V22.2c0-3.4,2.8-6.3,6.3-6.3h67.9c3.4,0,6.3,2.8,6.3,6.3v16
		c0,1.2-1,2.2-2.2,2.2s-2.2-1-2.2-2.2v-16c0-1-0.8-1.8-1.8-1.8H25.5c-1,0-1.8,0.8-1.8,1.8v116.9c0,1,0.8,1.8,1.8,1.8h25.4
		c1.2,0,2.2,1,2.2,2.2C53.1,144.4,52.1,145.3,50.9,145.3z"/>
	<path class="st2" d="M74.9,43H43c-1.2,0-2.2-1-2.2-2.2c0-1.2,1-2.2,2.2-2.2h31.9c1.2,0,2.2,1,2.2,2.2C77.1,42,76.1,43,74.9,43z"/>
	<path class="st2" d="M74.9,61.6H43c-1.2,0-2.2-1-2.2-2.2s1-2.2,2.2-2.2h31.9c1.2,0,2.2,1,2.2,2.2S76.1,61.6,74.9,61.6z"/>
	<path class="st2" d="M62.4,81.3H43c-1.2,0-2.2-1-2.2-2.2s1-2.2,2.2-2.2h19.4c1.2,0,2.2,1,2.2,2.2S63.6,81.3,62.4,81.3z"/>
</g>
</svg>
