<?xml version="1.0" encoding="utf-8"?>
<!-- Generator: Adobe Illustrator 24.3.0, SVG Export Plug-In . SVG Version: 6.00 Build 0)  -->
<svg version="1.1" id="Capa_1" xmlns="http://www.w3.org/2000/svg" xmlns:xlink="http://www.w3.org/1999/xlink" x="0px" y="0px"
	 viewBox="0 0 200 200" style="enable-background:new 0 0 200 200;" xml:space="preserve">
<style type="text/css">
	.st0{fill:none;stroke:#006dd9;stroke-width:8;stroke-linecap:round;stroke-linejoin:round;stroke-miterlimit:10;}
	.st1{fill:none;stroke:#006dd9;stroke-width:6;stroke-linecap:round;stroke-linejoin:round;stroke-miterlimit:10;}
	.st2{fill:none;stroke:#006dd9;stroke-width:0.5;stroke-linecap:round;stroke-linejoin:round;stroke-miterlimit:10;}
</style>
<g>
	<path class="st0" d="M175.3,80.8c-9.4-40.5-49.7-65.7-90.2-56.3C49.2,32.8,25.3,65.6,27,101.2"/>
</g>
<polyline class="st0" points="38.5,90.8 27.7,103.8 14.7,92.9 "/>
<g>
	<path class="st0" d="M29.4,115.3c9.4,40.5,49.7,65.7,90.2,56.3c35.9-8.3,59.9-41.1,58.2-76.7"/>
</g>
<polyline class="st0" points="166.3,105.3 177.1,92.3 190,103.2 "/>
<g>
	<path class="st1" d="M108.8,134.6v11.1h-9.4v-11.1c-14.2-1.5-22.8-8.3-25.8-20.5l16.2-3.7c1.8,6.9,6.9,10.4,15.2,10.4
		c4,0,7-0.8,9-2.3c2-1.5,3-3.4,3-5.5c0-2.2-0.9-3.9-2.6-5.1c-1.8-1.2-5.2-2.3-10.4-3.4c-11.1-2.3-18.3-5.4-21.6-9.3
		c-3.2-3.9-4.9-8.5-4.9-13.7c0-6.1,2-11.4,6.1-15.7c4.1-4.3,9.4-6.9,15.8-7.7v-9.3h9.4V58c12.1,1.1,20,6.9,23.8,17.4l-14.8,4.9
		c-2-5.9-6.3-8.8-12.8-8.8c-6.9,0-10.4,2.2-10.4,6.7c0,1.8,0.6,3.3,1.9,4.6c1.3,1.2,4.2,2.3,8.8,3.2c7.6,1.5,13.2,3.1,16.8,4.7
		c3.5,1.6,6.5,4.1,8.9,7.6c2.4,3.5,3.6,7.4,3.6,11.7c0,6-2.1,11.4-6.4,16.2C123.9,130.9,117.4,133.8,108.8,134.6z"/>
</g>
</svg>
