<svg id="Capa_1" data-name="Capa 1" xmlns="http://www.w3.org/2000/svg" viewBox="0 0 200 200"><defs><style>.cls-1{fill:#006dd9;}</style></defs><path class="cls-1" d="M191.68,189.9H9.62a4,4,0,0,1-4-3.93l-.37-20.79a4,4,0,0,1,.67-2.29l14.22-21.28V128.14a4.07,4.07,0,0,1,.14-1l6.09-22.63,7-46.09c.16-2.72,2.36-3.42,4-3.61v-.05a2.82,2.82,0,0,1,.41,0c.38,0,.71,0,1,0l122.52-.87h0a4,4,0,0,1,4,3.42l6.11,41.9,8,27.29a4,4,0,0,1,.17,1.2l-.21,13.59,15.84,23.32a3.93,3.93,0,0,1,.69,2.28l-.16,19.1A4,4,0,0,1,191.68,189.9Zm-178.13-8H187.71l.12-13.88L172,144.7a4,4,0,0,1-.69-2.31l.22-14.26-8-27a5.41,5.41,0,0,1-.12-.55l-5.64-38.74-117,.83-6.52,43.2a3.12,3.12,0,0,1-.09.44l-6,22.34v14.15a4,4,0,0,1-.67,2.22l-14.2,21.25Z"/><path class="cls-1" d="M78.19,60.52a4,4,0,0,1-4-4V43.34a4,4,0,0,1,8,0V56.52A4,4,0,0,1,78.19,60.52Z"/><path class="cls-1" d="M114.66,46.46H40a4,4,0,0,1-4-4V10.82a4,4,0,0,1,4-4h74.7a4,4,0,0,1,4,4V42.46A4,4,0,0,1,114.66,46.46Zm-70.7-8h66.7V14.82H44Z"/><path class="cls-1" d="M152,108.41H47.43a4,4,0,0,1-4-4.37l3.15-33.4a4,4,0,0,1,4-3.62h96.59a4,4,0,0,1,4,3.43L156,103.84a4,4,0,0,1-4,4.57Zm-100.18-8h95.56L143.71,75H54.22Z"/><ellipse class="cls-1" cx="127.62" cy="117.59" rx="3.3" ry="2.64"/><ellipse class="cls-1" cx="149.53" cy="117.59" rx="3.3" ry="2.64"/><ellipse class="cls-1" cx="127.62" cy="129.39" rx="3.3" ry="2.64"/><ellipse class="cls-1" cx="149.53" cy="129.39" rx="3.3" ry="2.64"/><ellipse class="cls-1" cx="157" cy="176.81" rx="3.3" ry="2.64"/><path class="cls-1" d="M173.09,146.64H25a4,4,0,0,1,0-8H173.09a4,4,0,1,1,0,8Z"/><path class="cls-1" d="M189.82,169.3H10.9a4,4,0,0,1,0-8H189.82a4,4,0,0,1,0,8Z"/><path class="cls-1" d="M80.05,179.45H30.4a4,4,0,0,1,0-8H80.05a4,4,0,1,1,0,8Z"/></svg>