<svg id="Capa_1" data-name="Capa 1" xmlns="http://www.w3.org/2000/svg" viewBox="0 0 200 200"><defs><style>.cls-1{fill:#006dd9;}</style></defs><path class="cls-1" d="M110.17,179.44H22.62a4,4,0,0,1-4-4v-47.6a3.67,3.67,0,0,1,.14-1l5.89-21.88,6.72-44.57c.17-2.74,2.37-3.43,4-3.61v-.06l.39,0,.92,0,118.52-.84h0a4,4,0,0,1,4,3.43l5.89,40.43,2.76,8a4,4,0,0,1-7.56,2.62L157.4,102a4.7,4.7,0,0,1-.18-.74l-5.45-37.35-113,.8-6.29,41.67a3.58,3.58,0,0,1-.09.45l-5.81,21.59v43.07h83.55a4,4,0,1,1,0,8Z"/><path class="cls-1" d="M74.9,62.56a4,4,0,0,1-4-4V45.81a4,4,0,0,1,8,0V58.56A4,4,0,0,1,74.9,62.56Z"/><path class="cls-1" d="M110.17,49H37.92a4,4,0,0,1-4-4V14.35a4,4,0,0,1,4-4h72.25a4,4,0,0,1,4,4V45A4,4,0,0,1,110.17,49ZM41.92,41h64.25V18.35H41.92Z"/><path class="cls-1" d="M146.3,108.89H45.14a4,4,0,0,1-4-4.38l3.05-32.3a4,4,0,0,1,4-3.63h93.44a4,4,0,0,1,4,3.43l4.67,32.3a4,4,0,0,1-.93,3.19A4,4,0,0,1,146.3,108.89Zm-96.76-8h92.14l-3.52-24.31H51.83Z"/><ellipse class="cls-1" cx="38.84" cy="117.64" rx="3.19" ry="2.55"/><ellipse class="cls-1" cx="60.03" cy="117.64" rx="3.19" ry="2.55"/><ellipse class="cls-1" cx="38.84" cy="129.05" rx="3.19" ry="2.55"/><ellipse class="cls-1" cx="60.03" cy="129.05" rx="3.19" ry="2.55"/><ellipse class="cls-1" cx="80.58" cy="117.86" rx="3.19" ry="2.55"/><path class="cls-1" d="M101.49,145.87h-78a4,4,0,0,1,0-8h78a4,4,0,1,1,0,8Z"/><path class="cls-1" d="M88.92,162.87h-48a4,4,0,1,1,0-8h48a4,4,0,1,1,0,8Z"/><path class="cls-1" d="M148.15,187.5A38.86,38.86,0,1,1,187,148.64,38.9,38.9,0,0,1,148.15,187.5Zm0-69.71A30.86,30.86,0,1,0,179,148.64,30.89,30.89,0,0,0,148.15,117.79Z"/><path class="cls-1" d="M148.74,170.8h0a4,4,0,0,1-4-4l.07-36.44a4,4,0,0,1,4-4h0a4,4,0,0,1,4,4l-.07,36.44A4,4,0,0,1,148.74,170.8Z"/><path class="cls-1" d="M167,152.62h0l-36.43-.08a4,4,0,0,1,0-8h0l36.43.08a4,4,0,0,1,0,8Z"/></svg>