<?xml version="1.0" encoding="utf-8"?>
<!-- Generator: Adobe Illustrator 24.3.0, SVG Export Plug-In . SVG Version: 6.00 Build 0)  -->
<svg version="1.1" id="Capa_1" xmlns="http://www.w3.org/2000/svg" xmlns:xlink="http://www.w3.org/1999/xlink" x="0px" y="0px"
	 viewBox="0 0 600 600" style="enable-background:new 0 0 600 600;" xml:space="preserve">
<style type="text/css">
	.st0{fill:#2E68B0;}
</style>
<g>
	<g>
		<g>
			<g>
				<path class="st0" d="M369.5,395L268.2,293.7c-1.2-1.2-1.8-2.9-1.7-4.6c0.1-1.7,1-3.3,2.4-4.3l58.1-42.9c2.3-1.7,5.6-1.5,7.6,0.6
					l86.1,86.1c2.1,2.1,2.3,5.3,0.6,7.6l-42.9,58.1c-1,1.4-2.6,2.2-4.3,2.4C372.4,396.8,370.7,396.2,369.5,395z M281.3,290.2
					l91.6,91.6l35.9-48.5l-79-79L281.3,290.2z"/>
			</g>
			<g>
				<path class="st0" d="M412.4,336.9l-86.1-86.1c-2.3-2.3-2.3-6,0-8.3l10-10c6.6-6.6,16.9-7.6,24.7-2.5l29.7,19.4l77.2-77.2
					c6.4-6.4,16.8-6.4,23.1,0c6.4,6.4,6.4,16.8,0,23.1l-77.2,77.2l19.4,29.7l0,0c5.1,7.8,4,18.1-2.5,24.7l-10,10
					C418.4,339.2,414.7,339.2,412.4,336.9z M338.7,246.7l77.8,77.8l5.9-5.9c2.6-2.6,3.1-6.8,1-10L401.4,275
					c-1.5-2.3-1.2-5.4,0.8-7.4l80.5-80.5c1.8-1.8,1.8-4.7,0-6.5c-1.8-1.8-4.7-1.8-6.5,0l-80.5,80.5c-2,2-5,2.3-7.4,0.8l-33.7-22.1
					c-3.1-2.1-7.3-1.6-10,1L338.7,246.7z"/>
			</g>
		</g>
	</g>
	<g>
		<g>
			<path class="st0" d="M407.9,529.4c-3.5,0-6.4-2.9-6.4-6.4V405.5c0-3.5,2.9-6.4,6.4-6.4c3.5,0,6.4,2.9,6.4,6.4V523
				C414.4,526.5,411.5,529.4,407.9,529.4z"/>
		</g>
		<g>
			<path class="st0" d="M407.9,199.4c-3.5,0-6.4-2.9-6.4-6.4v-39h-58.8c-3.5,0-6.4-2.9-6.4-6.4s2.9-6.4,6.4-6.4h65.2
				c3.5,0,6.4,2.9,6.4,6.4v45.4C414.4,196.5,411.5,199.4,407.9,199.4z"/>
		</g>
		<g>
			<path class="st0" d="M407.9,529.4H106.5c-3.6,0-6.4-2.9-6.4-6.4V147.5c0-3.6,2.9-6.4,6.4-6.4h62c3.6,0,6.4,2.9,6.4,6.4
				s-2.9,6.4-6.4,6.4h-55.6v362.6h295c3.5,0,6.4,2.9,6.4,6.4S411.5,529.4,407.9,529.4z"/>
		</g>
		<g>
			<path class="st0" d="M319.5,173.9H194.9c-3.6,0-6.4-2.9-6.4-6.4v-40c0-3.6,2.9-6.4,6.4-6.4h28.3c3.7-15.6,17.6-27.2,34-27.2
				s30.3,11.5,34,27.2h28.3c3.6,0,6.4,2.9,6.4,6.4v40C326,171,323.1,173.9,319.5,173.9z M201.3,161h111.8v-27.1h-27.4
				c-3.4,0-6.2-2.7-6.4-6.1c-0.7-11.8-10.4-21.1-22-21.1c-11.7,0-21.3,9.3-22,21.1c-0.2,3.4-3,6.1-6.4,6.1h-27.4V161z"/>
		</g>
	</g>
	<path class="st0" d="M351.1,400.6l-20.2-10.7l-10.7-20.3c-0.8-1.5-2.4-2.5-4.1-2.5c0,0,0,0,0,0c-1.7,0-3.3,1-4.1,2.5l-10.7,20.3
		l-20.3,10.7c-1.5,0.8-2.5,2.4-2.5,4.1c0,1.7,1,3.3,2.5,4.1l20.3,10.7l10.7,20.3c0.8,1.5,2.4,2.5,4.1,2.5h0c1.7,0,3.3-1,4.1-2.5
		l10.7-20.3l20.3-10.7c1.5-0.8,2.5-2.4,2.5-4.1C353.6,403,352.7,401.4,351.1,400.6L351.1,400.6z M325.3,412
		c-0.8,0.4-1.5,1.1-1.9,1.9l-7.2,13.7l-7.2-13.7c-0.4-0.8-1.1-1.5-1.9-1.9l-13.7-7.2l13.7-7.2c0.8-0.4,1.5-1.1,2-2l7.2-13.7
		l7.2,13.7c0.4,0.8,1.1,1.5,2,2l13.7,7.2L325.3,412z M325.3,412"/>
	<path class="st0" d="M149.2,278.1l22,11.6l11.6,22c0.8,1.5,2.4,2.5,4.1,2.5c1.7,0,3.3-1,4.1-2.5l11.6-22l22-11.6
		c1.5-0.8,2.5-2.4,2.5-4.1c0-1.7-1-3.3-2.5-4.1l-22-11.6l-11.6-22c-0.8-1.5-2.4-2.5-4.1-2.5c-1.7,0-3.3,1-4.1,2.5l-11.6,22l-22,11.6
		c-1.5,0.8-2.5,2.4-2.5,4.1C146.7,275.7,147.6,277.3,149.2,278.1L149.2,278.1z M176.8,265.9c0.8-0.4,1.5-1.1,1.9-1.9l8.2-15.5
		l8.2,15.5c0.4,0.8,1.1,1.5,1.9,1.9l15.5,8.2l-15.5,8.2c-0.8,0.4-1.5,1.1-1.9,1.9l-8.2,15.5l-8.2-15.5c-0.4-0.8-1.1-1.5-1.9-1.9
		l-15.5-8.2L176.8,265.9z M176.8,265.9"/>
	<path class="st0" d="M221.4,241.7l13.5,7.9l7.9,13.5c0.8,1.4,2.4,2.3,4,2.3s3.2-0.9,4-2.3l7.9-13.5l13.5-7.9c1.4-0.8,2.3-2.4,2.3-4
		c0-1.7-0.9-3.2-2.3-4l-13.5-7.9l-7.9-13.5c-0.8-1.4-2.4-2.3-4-2.3c-1.7,0-3.2,0.9-4,2.3l-7.9,13.5l-13.5,7.9
		c-1.4,0.8-2.3,2.4-2.3,4C219.1,239.4,220,240.9,221.4,241.7L221.4,241.7z M240.7,233.2c0.7-0.4,1.3-1,1.7-1.7l4.5-7.7l4.5,7.7
		c0.4,0.7,1,1.3,1.7,1.7l7.7,4.5l-7.7,4.5c-0.7,0.4-1.3,1-1.7,1.7l-4.5,7.7l-4.5-7.7c-0.4-0.7-1-1.3-1.7-1.7l-7.7-4.5L240.7,233.2z
		 M240.7,233.2"/>
</g>
</svg>
