<?xml version="1.0" encoding="utf-8"?>
<!-- Generator: Adobe Illustrator 24.3.0, SVG Export Plug-In . SVG Version: 6.00 Build 0)  -->
<svg version="1.1" id="Capa_1" xmlns="http://www.w3.org/2000/svg" xmlns:xlink="http://www.w3.org/1999/xlink" x="0px" y="0px"
	 viewBox="0 0 200 200" style="enable-background:new 0 0 200 200;" xml:space="preserve">
<style type="text/css">
	.st0{fill:#006dd9;}
	.st1{fill:none;stroke:#006dd9;stroke-width:0.5;stroke-linecap:round;stroke-linejoin:round;stroke-miterlimit:10;}
</style>
<g>
	<path class="st0" d="M105.1,118.3c0.7,0.8,1.5,1.5,2.5,1.9c0.8,0.4,1.8,0.7,3.1,0.9l0.5,5.8c-0.3-0.1-0.6-0.2-0.8-0.4
		c-0.4-0.3-0.6-0.6-0.8-1c-0.2-0.4-0.5-1-0.8-1.8c-0.2-0.5-0.5-0.8-0.9-1.1c-0.4-0.2-0.9-0.3-1.4-0.3c-0.7,0.1-1.2,0.3-1.6,0.9
		c-0.4,0.5-0.6,1.1-0.5,1.7c0.1,0.7,0.3,1.4,0.6,2.1c0.4,0.7,0.9,1.4,1.5,2c0.6,0.6,1.4,1.1,2.4,1.5c0.8,0.3,1.7,0.5,2.7,0.6
		l0.3,3.6c0.1,0.5,0.2,1,0.4,1.2c0.2,0.3,0.6,0.5,1,0.5c0.1,0,0.1,0,0.2,0c0.7-0.1,1-0.5,1.1-0.8c0.1-0.3,0.1-0.8,0.1-1.5l-0.3-3.3
		c1.2-0.3,2.3-0.7,3.2-1.4c1-0.8,1.7-1.7,2.2-2.8c0.5-1.1,0.6-2.3,0.5-3.5c-0.1-1-0.3-1.8-0.8-2.6c-0.4-0.8-1-1.5-1.7-2
		c-0.6-0.5-1.4-0.9-2.1-1.1c-0.6-0.2-1.5-0.4-2.6-0.6l-0.4-5.1c0.7,0.3,1.2,0.9,1.5,1.7c0.6,1.6,1.7,1.8,2.5,1.7
		c0.6-0.1,1.2-0.3,1.6-0.8c0.4-0.5,0.6-1.1,0.5-1.7c0-0.5-0.2-1-0.5-1.6c-0.3-0.6-0.7-1.1-1.2-1.6c-0.6-0.7-1.4-1.2-2.2-1.5
		c-0.7-0.2-1.5-0.4-2.4-0.4l-0.1-1.2v0c0-0.5-0.2-0.9-0.4-1.2c-0.2-0.2-0.5-0.5-1.1-0.4c-0.4,0-1.4,0.3-1.2,1.8l0.1,1.1
		c-1.9,0.4-3.3,1.2-4.2,2.4c-1,1.3-1.5,2.8-1.3,4.7C104.1,116.4,104.5,117.5,105.1,118.3z M115.3,126c-0.3,0.4-0.7,0.8-1.3,1
		l-0.4-5.2c0.6,0.2,1.2,0.4,1.5,0.7c0.4,0.3,0.7,0.9,0.7,1.6C115.8,124.8,115.7,125.4,115.3,126z M108.9,112.7
		c0.2-0.3,0.6-0.5,1-0.7l0.4,4.3c-0.5-0.2-0.9-0.4-1.2-0.6c-0.3-0.3-0.6-0.7-0.6-1.4C108.4,113.5,108.5,113,108.9,112.7z"/>
	<path class="st0" d="M191.1,147.8l-6-69.7c-0.3-3.9-3.6-6.6-7.3-6.3l-9.1,0.8l1.5-6.9c0.4-1.8,0.1-3.6-0.9-5.1
		c-1-1.6-2.5-2.6-4.3-3L28.6,27.9c-1.7-0.4-3.5-0.1-5,0.9c-1.6,1-2.6,2.6-3,4.4L5.7,101.7c-0.4,1.8-0.1,3.7,0.9,5.2
		c1,1.5,2.5,2.6,4.2,2.9l23.2,5c0.2,0,0.3,0.1,0.5,0.1l3.9,45.9c0.2,1.8,1,3.5,2.4,4.7c1.2,1.1,2.8,1.7,4.4,1.7c0.2,0,0.4,0,0.6,0
		l139.1-11.9c1.8-0.2,3.5-1,4.6-2.5C190.7,151.4,191.2,149.7,191.1,147.8z M164.8,64.5l-1.6,7.5c-0.1,0.4-0.1,0.7,0,1.1l-17.6,1.5
		c0,0,0,0-0.1-0.1c-1-0.9-1.2-4.4-0.8-7c0-0.1,0-0.2,0-0.3c0-0.1,0-0.2,0-0.2c0-0.1,0-0.2,0-0.3c0-0.1,0-0.2,0-0.3
		c0-0.1,0-0.1-0.1-0.2c0-0.1-0.1-0.2-0.1-0.3c0-0.1-0.1-0.1-0.1-0.2c0-0.1-0.1-0.2-0.1-0.2c0,0,0,0,0,0c0-0.1-0.1-0.1-0.1-0.2
		c-0.1-0.1-0.1-0.2-0.2-0.3c0,0-0.1-0.1-0.1-0.1c-0.1-0.1-0.2-0.1-0.3-0.2c-0.1,0-0.1-0.1-0.2-0.1c-0.1,0-0.2-0.1-0.2-0.1
		c-0.1,0-0.2-0.1-0.2-0.1c-0.1,0-0.2-0.1-0.2-0.1L46.2,43.4c-1.5-0.3-2.9,0.6-3.2,2.1c-1.4,6.6-7.7,10.8-14.1,9.5
		c-1.5-0.3-2.9,0.6-3.2,2.1l-5.4,25c-0.2,0.7,0,1.5,0.4,2.1c0.4,0.6,1,1,1.7,1.2c6.3,1.4,10,6.4,10.4,14.2c0,0.7,0.3,1.3,0.7,1.7
		l0.7,8.1L12,104.5c-0.3-0.1-0.6-0.3-0.8-0.6c-0.2-0.3-0.3-0.7-0.2-1.1l14.8-68.4c0.1-0.4,0.3-0.8,0.6-1c0.3-0.2,0.6-0.2,0.9-0.2
		l136.4,29.5c0.3,0.1,0.6,0.3,0.8,0.6C164.9,63.7,164.9,64.1,164.8,64.5z M87,79.5c0,0-0.1-0.1-0.1-0.1c-0.2-0.2-0.5-0.4-0.6-0.5
		C86,78.5,86,78,86.1,77.4c0.1-0.7,0.4-1.1,0.8-1.3c0.3-0.2,0.7-0.3,1.2-0.4l-0.8,3.9L87,79.5L87,79.5z M90.8,76.3
		c0.6,0.5,0.9,1.2,0.9,2.1c0,0.2,0,0.5,0.1,0.7l-1.7,0.1L90.8,76.3z M96.3,78.7c0.1-0.4,0.1-0.9-0.1-1.5c-0.1-0.6-0.4-1.3-0.7-1.9
		c-0.4-0.8-1-1.5-1.7-2c-0.6-0.4-1.3-0.8-2.2-1.1l0.2-1.1c0.1-0.6,0.1-1.1-0.1-1.4c-0.2-0.3-0.5-0.5-0.9-0.6c-0.5-0.1-0.8,0-1,0.1
		c-0.4,0.2-0.6,0.6-0.7,1.2L89,71.7c-1.9-0.2-3.5,0.2-4.7,1c-1.4,0.9-2.3,2.3-2.6,4.1c-0.3,1.2-0.2,2.3,0,3.2l-12,1
		c0.8-4.5,3.2-8.5,6.8-11.3c3.8-3,8.6-4.2,13.4-3.6c6.9,0.9,12.5,5.5,14.8,11.9L96.3,78.7z M26,80.7l4.3-20.1
		c7.4,0.4,14.4-4.3,17.1-11.4l91.6,19.8c-0.1,1.7,0,3.9,0.6,5.9l-29.5,2.5c-2.6-9-10.2-15.6-19.6-16.9C77.6,59,65.8,68.2,64.1,81.1
		c0,0.1,0,0.3,0,0.4l-25.4,2.2c-2,0.2-3.7,1.2-4.9,2.8C31.9,83.9,29.2,81.9,26,80.7z M39.2,89.1l68.4-5.8c0.3,0.1,0.6,0.1,0.9,0
		c0.2,0,0.3-0.1,0.4-0.1l69.3-5.9l0.1,0c0.7,0,1.3,0.6,1.3,1.3l6,69.7c0,0.4-0.1,0.8-0.3,1.1c-0.2,0.3-0.5,0.4-0.9,0.5L45.4,161.7
		c-0.3,0-0.7-0.1-0.9-0.3c-0.3-0.3-0.5-0.6-0.5-1l-6-69.8C37.9,89.9,38.5,89.2,39.2,89.1z"/>
	<path class="st0" d="M49.5,140.4C49.5,140.4,49.5,140.4,49.5,140.4c6.5-0.5,12.2,4.5,12.8,11.2c0.1,1.4,1.3,2.5,2.7,2.5
		c0.1,0,0.1,0,0.2,0l98.3-8.4c0.7-0.1,1.4-0.4,1.9-1c0.5-0.6,0.7-1.3,0.6-2c0,0,0,0,0,0c0-0.1,0-0.2,0-0.3
		c-0.5-6.3,4.5-11.7,11.3-12.2c0.7-0.1,1.4-0.4,1.9-0.9c0.5-0.6,0.7-1.3,0.6-2l-2-25.5c-0.1-1.5-1.3-2.5-2.9-2.5c0,0,0,0-0.1,0
		c-5.6,0.4-10.7-3.3-12.3-9.1l-1.4-3.6c0-0.1-0.1-0.1-0.1-0.1c0-0.1-0.1-0.2-0.1-0.2c-0.1-0.1-0.1-0.2-0.2-0.3
		c0-0.1-0.1-0.1-0.1-0.2c-0.1-0.1-0.1-0.1-0.2-0.2c0,0-0.1-0.1-0.1-0.1c0,0-0.1,0-0.1-0.1c0,0-0.1-0.1-0.1-0.1
		c-0.1-0.1-0.2-0.2-0.4-0.2c0,0,0,0,0,0c0,0,0,0,0,0c-0.2-0.1-0.3-0.1-0.5-0.2c0,0,0,0,0,0c-0.2,0-0.3-0.1-0.5-0.1
		c-0.1,0-0.1,0-0.2,0c-0.1,0-0.1,0-0.2,0l-98.3,8.4c-0.7,0.1-1.4,0.4-1.9,1c-0.5,0.6-0.7,1.3-0.6,2c0.6,6.7-4.2,12.7-10.7,13.2
		c-1.5,0.1-2.6,1.5-2.5,2.9l2.2,25.5C46.7,139.4,48.2,140.4,49.5,140.4z M156.8,90.5l0.6,1.5c2,7.1,8.1,12.2,15.2,12.8l1.6,20.5
		c-7.7,1.7-13.1,7.9-13.6,15.3l-93.3,8c-1.8-7.4-8.1-12.9-15.5-13.5l-1.7-20.5c7.2-1.8,12.5-8.3,13-15.9L156.8,90.5z"/>
	<path class="st0" d="M111.5,143.7c13,0,23.6-10.6,23.6-23.6c0-13-10.6-23.6-23.6-23.6c-13,0-23.6,10.6-23.6,23.6
		C87.9,133.1,98.5,143.7,111.5,143.7z M93.4,120.1c0-10,8.2-18.2,18.2-18.2c10,0,18.2,8.1,18.2,18.2c0,10-8.1,18.2-18.2,18.2
		C101.5,138.2,93.4,130.1,93.4,120.1z"/>
</g>
</svg>
