<?xml version="1.0" encoding="utf-8"?>
<!-- Generator: Adobe Illustrator 25.0.0, SVG Export Plug-In . SVG Version: 6.00 Build 0)  -->
<svg version="1.1" id="Capa_1" xmlns="http://www.w3.org/2000/svg" xmlns:xlink="http://www.w3.org/1999/xlink" x="0px" y="0px"
	 viewBox="0 0 600 600" style="enable-background:new 0 0 600 600;" xml:space="preserve">
<style type="text/css">
	.st0{fill:#173E71;}
</style>
<path class="st0" d="M325.5,490h-52c-2.2,0-4.2-1.5-4.7-3.6l-8.1-32.3c-14.9-3.8-29.1-9.7-42.3-17.5l-28.6,17.1
	c-1.9,1.1-4.3,0.8-5.9-0.7l-36.8-36.8c-1.6-1.6-1.9-4-0.7-5.9l17.1-28.6c-7.9-13.2-13.8-27.4-17.5-42.3l-32.3-8.1
	c-2.1-0.5-3.6-2.5-3.6-4.7v-52c0-2.2,1.5-4.2,3.6-4.7l32.3-8.1c3.8-14.9,9.7-29.1,17.5-42.3l-17.1-28.6c-1.1-1.9-0.8-4.3,0.7-5.9
	l36.8-36.8c1.5-1.6,4-1.9,5.9-0.7l28.6,17.1c13.2-7.9,27.4-13.8,42.3-17.5l8.1-32.3c0.5-2.1,2.5-3.6,4.7-3.6h52
	c2.2,0,4.2,1.5,4.7,3.6l8.1,32.3c14.9,3.8,29.1,9.7,42.3,17.5l28.6-17.1c1.9-1.1,4.3-0.8,5.9,0.7l36.8,36.8c1.6,1.6,1.9,4,0.7,5.9
	l-17.1,28.6c7.9,13.2,13.8,27.4,17.5,42.3l32.3,8.1c2.1,0.5,3.6,2.5,3.6,4.7v52c0,2.2-1.5,4.2-3.6,4.7l-32.3,8.1
	c-3.8,14.9-9.7,29.1-17.5,42.3l17.1,28.6c1.1,1.9,0.8,4.3-0.7,5.9l-36.8,36.8c-1.5,1.5-4,1.9-5.9,0.7l-28.6-17.1
	c-13.2,7.9-27.4,13.8-42.3,17.5l-8.1,32.3C329.6,488.5,327.7,490,325.5,490z M277.3,480.3h44.5l7.9-31.5c0.4-1.8,1.8-3.1,3.6-3.5
	c15.8-3.7,30.9-10,44.8-18.6c1.5-1,3.5-1,5-0.1l27.9,16.7l31.4-31.4l-16.7-27.9c-0.9-1.5-0.9-3.5,0.1-5c8.6-13.9,14.9-29,18.6-44.8
	c0.4-1.8,1.8-3.2,3.5-3.6l31.5-7.9v-44.5l-31.5-7.9c-1.8-0.4-3.1-1.8-3.5-3.6c-3.7-15.8-10-30.9-18.6-44.8c-1-1.5-1-3.5-0.1-5
	l16.7-27.9l-31.4-31.4l-27.9,16.7c-1.5,0.9-3.5,0.9-5-0.1c-13.9-8.6-29-14.9-44.8-18.6c-1.8-0.4-3.2-1.8-3.6-3.5l-7.9-31.5h-44.5
	l-7.9,31.5c-0.4,1.8-1.8,3.1-3.6,3.5c-15.8,3.7-30.9,10-44.8,18.6c-1.5,1-3.5,1-5,0.1l-27.9-16.7l-31.4,31.4l16.7,27.9
	c0.9,1.5,0.9,3.5-0.1,5c-8.6,13.9-14.9,29-18.6,44.8c-0.4,1.8-1.8,3.2-3.5,3.6l-31.5,7.9v44.5l31.5,7.9c1.8,0.4,3.1,1.8,3.5,3.6
	c3.7,15.8,10,30.9,18.6,44.8c1,1.5,1,3.5,0.1,5l-16.7,27.9l31.4,31.4l27.9-16.7c1.5-0.9,3.5-0.9,5,0.1c13.9,8.6,29,14.9,44.8,18.6
	c1.8,0.4,3.2,1.8,3.6,3.5L277.3,480.3z"/>
<path class="st0" d="M299.5,387.4c-47.9,0-86.9-39-86.9-86.9s39-86.9,86.9-86.9c20.5,0,40.4,7.3,56,20.4c2,1.7,2.3,4.8,0.6,6.8
	c-1.7,2-4.7,2.3-6.8,0.6c-13.9-11.7-31.6-18.2-49.8-18.2c-42.6,0-77.2,34.7-77.2,77.2s34.7,77.2,77.2,77.2s77.2-34.7,77.2-77.2
	c0-2.7,2.2-4.8,4.8-4.8s4.8,2.2,4.8,4.8C386.4,348.4,347.4,387.4,299.5,387.4z"/>
<path class="st0" d="M299.5,353.9c-29.5,0-53.4-24-53.4-53.4c0-12.6,4.5-24.8,12.6-34.4c1.7-2,4.8-2.3,6.8-0.6
	c2,1.7,2.3,4.8,0.6,6.8c-6.6,7.9-10.3,17.9-10.3,28.2c0,24.1,19.6,43.8,43.8,43.8s43.8-19.6,43.8-43.8s-19.6-43.8-43.8-43.8
	c-2.7,0-4.8-2.2-4.8-4.8c0-2.7,2.2-4.8,4.8-4.8c29.5,0,53.4,24,53.4,53.4S329,353.9,299.5,353.9z"/>
</svg>
