<svg id="Capa_1" data-name="Capa 1" xmlns="http://www.w3.org/2000/svg" viewBox="0 0 200 200"><defs><style>.cls-1{fill:none;stroke:#006dd9;stroke-linecap:round;stroke-linejoin:round;stroke-width:5px;}</style></defs><path class="cls-1" d="M77.44,151.94H63.75V135.76Q32.86,132.52,26.19,106l23.53-5.4q4,15.15,22.07,15.15,8.73,0,13-3.34t4.33-8a8.56,8.56,0,0,0-3.85-7.45q-3.85-2.64-15.07-4.86-24.3-5-31.36-13.53a30.25,30.25,0,0,1-7.06-19.91,32.15,32.15,0,0,1,8.9-22.83q8.91-9.45,23-11.17V11.09H77.44V24.44Q103.87,26.92,112,49.68L90.45,56.87Q86.09,44,71.88,44q-15.06,0-15.06,9.76a8.82,8.82,0,0,0,2.82,6.63q2.84,2.7,12.75,4.66Q89,68.43,96.74,71.85a31,31,0,0,1,13,11.05,29.94,29.94,0,0,1,3.56,6.93"/><path class="cls-1" d="M109.09,146.66l14.12,16s9.74-25.82,28.58-42.77"/><circle class="cls-1" cx="129.73" cy="143.05" r="43.91"/></svg>