<svg id="Capa_1" data-name="Capa 1" xmlns="http://www.w3.org/2000/svg" viewBox="0 0 200 200"><defs><style>.cls-1{fill:none;stroke:#006dd9;stroke-linecap:round;stroke-linejoin:round;stroke-width:5px;}</style></defs><polyline class="cls-1" points="30.27 110.28 30.27 183.76 169.27 183.76 169.27 110.28"/><polyline class="cls-1" points="171.27 42.46 171.27 15.74 28.27 15.74 28.27 42.46"/><rect class="cls-1" x="51.33" y="122.97" width="43.44" height="30.41"/><rect class="cls-1" x="120.83" y="122.97" width="26.06" height="60.79"/><line class="cls-1" x1="169.27" y1="74.19" x2="25.93" y2="74.19"/><line class="cls-1" x1="171.27" y1="42.46" x2="177.96" y2="74.19"/><polyline class="cls-1" points="21.59 74.19 28.27 39.46 171.27 39.46"/><path class="cls-1" d="M21.58,74.19v13a13,13,0,0,0,13,13c7.19,0,12.77-4,13-13a12.91,12.91,0,0,0,13,13c7.2,0,12.19-5.88,13-13-.93,7.87,5.83,13,13,13s13.31-5.84,13-13c.32,8.21,5.84,13,13,13a13.14,13.14,0,0,0,13-13c-.18,8,5.84,13,13,13a13,13,0,0,0,13-13,13,13,0,1,0,26.06,0v-13Z"/></svg>