<svg id="Capa_1" data-name="Capa 1" xmlns="http://www.w3.org/2000/svg" viewBox="0 0 200 200"><defs><style>.cls-1{fill:#006dd9;stroke:#006dd9;stroke-miterlimit:10;}</style></defs><path class="cls-1" d="M185.22,161.59l-14.94-22,.2-13.1a1.6,1.6,0,0,0-.08-.58L163,100.74l-5.68-38.95a2,2,0,0,0-2-1.69h0l-74.7.53V49.85h31.7a2,2,0,0,0,2-2V18.66a2,2,0,0,0-2-2h-69a2,2,0,0,0-2,2V47.88a2,2,0,0,0,2,2H76.66V60.66l-17.9.13c-19.41.14-19.83.14-19.83,2l-6.42,42.6-5.68,21.1a1.86,1.86,0,0,0-.07.52V140L13.33,160a2,2,0,0,0-.33,1.14l.34,19.19a2,2,0,0,0,2,1.94H183.44a2,2,0,0,0,2-2l.15-17.63A1.9,1.9,0,0,0,185.22,161.59ZM45.31,20.64h65V45.91h-65Zm-9,85.55L42.6,64.85l111-.79,5.49,37.52,7.43,25.17-.18,11.67H30.7V127.26ZM29.9,142.36H166.28a2,2,0,0,0,.93-.25l11.71,17.23H18.55Zm151.58,36H17.26L17,163.29H181.61Z"/><path class="cls-1" d="M50.23,107.06H146.8a2,2,0,0,0,1.49-.68,2,2,0,0,0,.46-1.58L144.29,74a2,2,0,0,0-1.95-1.68H53.14a2,2,0,0,0-2,1.78L48.27,104.9a2,2,0,0,0,2,2.16Zm4.71-30.84h85.69l3.89,26.89H52.4Z"/><path class="cls-1" d="M124.28,112.85c-2.77,0-5,2-5,4.41s2.25,4.41,5,4.41,5-2,5-4.41S127.05,112.85,124.28,112.85Zm0,4.87a1.17,1.17,0,0,1-1.07-.46,1.47,1.47,0,0,1,2.14,0A1.17,1.17,0,0,1,124.28,117.72Z"/><path class="cls-1" d="M144.51,112.85c-2.76,0-5,2-5,4.41s2.25,4.41,5,4.41,5-2,5-4.41S147.28,112.85,144.51,112.85Zm0,4.87a1.19,1.19,0,0,1-1.07-.46,1.16,1.16,0,0,1,1.07-.46,1.19,1.19,0,0,1,1.08.46A1.21,1.21,0,0,1,144.51,117.72Z"/><path class="cls-1" d="M124.28,123.75c-2.77,0-5,2-5,4.41s2.25,4.4,5,4.4,5-2,5-4.4S127.05,123.75,124.28,123.75Zm0,4.86a1.2,1.2,0,0,1-1.07-.45,1.45,1.45,0,0,1,2.14,0A1.2,1.2,0,0,1,124.28,128.61Z"/><path class="cls-1" d="M144.51,123.75c-2.76,0-5,2-5,4.41s2.25,4.4,5,4.4,5-2,5-4.4S147.28,123.75,144.51,123.75Zm0,4.86a1.22,1.22,0,0,1-1.07-.45,1.16,1.16,0,0,1,1.07-.47,1.18,1.18,0,0,1,1.08.47A1.23,1.23,0,0,1,144.51,128.61Z"/><path class="cls-1" d="M151.41,167.53c-2.77,0-5,2-5,4.41s2.25,4.41,5,4.41,5-2,5-4.41S154.18,167.53,151.41,167.53Zm0,4.88a1.17,1.17,0,0,1-1.07-.47,1.47,1.47,0,0,1,2.14,0A1.17,1.17,0,0,1,151.41,172.41Z"/><path class="cls-1" d="M80.36,168.71H34.51a2,2,0,0,0,0,3.94H80.36a2,2,0,0,0,0-3.94Z"/></svg>