<?xml version="1.0" encoding="utf-8"?>
<!-- Generator: Adobe Illustrator 24.3.0, SVG Export Plug-In . SVG Version: 6.00 Build 0)  -->
<svg version="1.1" id="Capa_1" xmlns="http://www.w3.org/2000/svg" xmlns:xlink="http://www.w3.org/1999/xlink" x="0px" y="0px"
	 viewBox="0 0 200 200" style="enable-background:new 0 0 200 200;" xml:space="preserve">
<style type="text/css">
	.st0{fill:none;stroke:#006dd9;stroke-width:8;stroke-linecap:round;stroke-linejoin:round;stroke-miterlimit:10;}
	
		.st1{fill-rule:evenodd;clip-rule:evenodd;fill:none;stroke:#006dd9;stroke-width:8;stroke-linecap:round;stroke-linejoin:round;stroke-miterlimit:10;}
	.st2{fill:none;stroke:#006dd9;stroke-width:0.5;stroke-linecap:round;stroke-linejoin:round;stroke-miterlimit:10;}
	.st3{fill:#006dd9;}
</style>
<g>
	<path class="st0" d="M127.3,160.3v18.5h-15.7v-18.5c-23.5-2.5-37.9-13.8-42.9-34l26.9-6.2c3.1,11.5,11.5,17.3,25.2,17.3
		c6.7,0,11.6-1.3,14.9-3.8c3.3-2.5,4.9-5.6,4.9-9.2c0-3.7-1.5-6.5-4.4-8.5c-2.9-2-8.7-3.9-17.2-5.6c-18.5-3.8-30.5-9-35.9-15.5
		c-5.4-6.5-8.1-14.1-8.1-22.8c0-10.2,3.4-18.9,10.2-26.1c6.8-7.2,15.6-11.5,26.3-12.8V17.7h15.7V33c20.1,1.9,33.3,11.5,39.5,28.9
		l-24.7,8.2c-3.3-9.8-10.4-14.7-21.2-14.7c-11.5,0-17.2,3.7-17.2,11.2c0,3,1.1,5.5,3.2,7.6c2.2,2.1,7,3.8,14.6,5.3
		c12.7,2.5,21.9,5.1,27.8,7.7c5.9,2.6,10.9,6.8,14.9,12.6s6,12.3,6,19.5c0,9.9-3.6,18.9-10.7,26.9
		C152.4,154.2,141.7,158.9,127.3,160.3z"/>
</g>
<path class="st1" d="M99.8,178.8c-0.9,0.2-44.3,0.5-54.9-36l-4.6-26.1l-16.5,3.2l16.4-33.4c1.2-2.4,4.4-3,6.4-1.1L73.7,111
	c0,0-15.1,2.4-16.9,2.7l1.1,6.3"/>
</svg>
