<svg id="Capa_1" data-name="Capa 1" xmlns="http://www.w3.org/2000/svg" viewBox="0 0 200 200"><defs><style>.cls-1{fill:#006dd9;stroke:#006dd9;stroke-miterlimit:10;}</style></defs><path class="cls-1" d="M126.64,184.66H110.42a2.11,2.11,0,0,1-2.11-2.12V165.26c-24.15-3.07-39.1-15.39-44.45-36.65A2.1,2.1,0,0,1,65.44,126l27.88-6.38a2.09,2.09,0,0,1,2.51,1.51c2.93,11,10.82,16.37,24.12,16.37,6.38,0,11.15-1.18,14.16-3.51s4.3-4.8,4.3-7.86a8,8,0,0,0-3.64-7.07c-2.79-1.93-8.53-3.75-17.06-5.44-19.89-4.1-32.44-9.58-38.38-16.75A38.14,38.14,0,0,1,70.49,72,40.22,40.22,0,0,1,81.61,43.48c7-7.39,15.92-12,26.7-13.64V15.67a2.11,2.11,0,0,1,2.11-2.12h16.22a2.12,2.12,0,0,1,2.11,2.12V29.59c20.59,2.46,34.33,12.91,40.84,31.09a2.12,2.12,0,0,1-1.32,2.72l-25.55,8.51a2.11,2.11,0,0,1-2.67-1.32c-3.15-9.27-9.7-13.78-20-13.78-14.1,0-15.73,5.39-15.73,9.44A8.35,8.35,0,0,0,107,72.59c1.32,1.26,4.83,3.15,14.06,5,13.41,2.7,23,5.37,29.28,8.15a38.87,38.87,0,0,1,16.29,13.83A36.87,36.87,0,0,1,173.26,121c0,10.76-3.91,20.6-11.62,29.26-7.38,8.3-18.44,13.36-32.89,15.06v17.26A2.12,2.12,0,0,1,126.64,184.66Zm-14.11-4.23h12V163.38a2.12,2.12,0,0,1,1.91-2.11c14.29-1.36,25.08-6,32.06-13.86S169,130.65,169,121a32.83,32.83,0,0,0-5.86-19,34.68,34.68,0,0,0-14.53-12.36c-5.92-2.63-15.48-5.28-28.4-7.88-8.32-1.65-13.6-3.63-16.15-6.07a12.53,12.53,0,0,1-4-9.39c0-6.23,3.46-13.67,20-13.67,11.42,0,19.24,4.94,23.27,14.67l21.52-7.17c-6.46-16-19-24.68-38.4-26.49a2.11,2.11,0,0,1-1.92-2.1V17.78h-12v13.9a2.11,2.11,0,0,1-1.85,2.1c-10.6,1.29-19.34,5.53-26,12.6A36.12,36.12,0,0,0,74.72,72a33.92,33.92,0,0,0,7.87,22.24c5.23,6.31,17.32,11.47,36,15.31,9.21,1.81,15.3,3.81,18.62,6.1a12.13,12.13,0,0,1,5.47,10.55c0,4.4-2,8.17-5.95,11.21-3.77,2.91-9.41,4.39-16.74,4.39-14.48,0-23.76-5.9-27.62-17.55l-23.8,5.45c5.5,18.86,19.3,29.2,42.11,31.61a2.11,2.11,0,0,1,1.89,2.1Z"/><path class="cls-1" d="M100.57,184.78c-10.27,0-47.2-5.06-57-38.89l-4.46-25.17-15,2.87a2.11,2.11,0,0,1-2.29-3l17-34.66a6.27,6.27,0,0,1,9.94-1.79l28.16,26.7a2.11,2.11,0,0,1,.56,2.16,2.09,2.09,0,0,1-1.68,1.46s-10.64,1.7-15.4,2.49l.77,4.44a2.12,2.12,0,1,1-4.17.72l-1.13-6.54a2.13,2.13,0,0,1,1.71-2.44c1.27-.22,8.55-1.4,13.32-2.16L45.82,87.2a2,2,0,0,0-1.77-.53,2,2,0,0,0-1.47,1.11L27.43,118.64l12.94-2.48a2.18,2.18,0,0,1,1.6.33,2.15,2.15,0,0,1,.88,1.38l4.79,27.07c10.46,35.88,54.14,35.7,54.53,35.54a2,2,0,0,1,2.46,1.52,2.22,2.22,0,0,1-1.62,2.61A12,12,0,0,1,100.57,184.78Z"/></svg>