<svg id="Capa_1" data-name="Capa 1" xmlns="http://www.w3.org/2000/svg" viewBox="0 0 200 200"><defs><style>.cls-1{fill:#006dd9;}</style></defs><path class="cls-1" d="M19.66,107.38a3,3,0,0,1-3-2.85A82.91,82.91,0,0,1,180.27,82,3,3,0,0,1,178,85.62a3,3,0,0,1-3.59-2.24,76.93,76.93,0,0,0-151.8,20.87,3,3,0,0,1-2.84,3.12Z"/><path class="cls-1" d="M20.4,110.07a3,3,0,0,1-1.92-.7L4.72,97.87a3,3,0,0,1,3.84-4.59L20,102.87l9.6-11.47a3,3,0,0,1,4.59,3.85L22.69,109A3,3,0,0,1,20.4,110.07Z"/><path class="cls-1" d="M100.13,184.22A83.06,83.06,0,0,1,19.36,120a3,3,0,1,1,5.83-1.35A76.93,76.93,0,0,0,177,97.77a3,3,0,0,1,2.84-3.13A2.88,2.88,0,0,1,183,97.49a83,83,0,0,1-82.82,86.73Z"/><path class="cls-1" d="M167.72,111.68a3,3,0,0,1-2.3-4.91L176.94,93a3,3,0,0,1,4.21-.37l13.76,11.51a3,3,0,0,1-3.85,4.59L179.6,99.15,170,110.61A3,3,0,0,1,167.72,111.68Z"/><path class="cls-1" d="M106.59,154.68h-10a3,3,0,0,1-3-3v-9.21c-14.78-2.3-24-10.25-27.37-23.67a3,3,0,0,1,2.23-3.64l17.22-3.94a3,3,0,0,1,3.55,2.15c1.6,6,5.8,8.85,13.25,8.85,3.57,0,6.16-.61,7.71-1.81a4.26,4.26,0,0,0,2-3.52,3.26,3.26,0,0,0-1.51-3c-.87-.6-3.31-1.79-9.91-3.09C88.07,108.22,80,104.65,76.1,99.9a25.08,25.08,0,0,1-5.85-16.45,26.5,26.5,0,0,1,7.32-18.74,29.2,29.2,0,0,1,16-8.68V48.69a3,3,0,0,1,3-3h10a3,3,0,0,1,3,3v7.12c12.57,1.92,21,8.67,25.1,20.1a3.06,3.06,0,0,1-.13,2.32,3,3,0,0,1-1.74,1.53L117,85a3,3,0,0,1-3.77-1.87c-1.71-5-5.12-7.37-10.75-7.37-8,0-8,2.91-8,4.15a3.45,3.45,0,0,0,1.13,2.68c.35.33,1.9,1.46,7.84,2.64,8.41,1.7,14.43,3.38,18.44,5.15a25.71,25.71,0,0,1,10.76,9.12,24.49,24.49,0,0,1,4.38,14.17,28.17,28.17,0,0,1-7.61,19.18c-4.58,5.14-11.25,8.38-19.86,9.65v9.18A3,3,0,0,1,106.59,154.68Zm-7-6h4v-8.84a3,3,0,0,1,2.71-3c8.37-.79,14.65-3.49,18.67-8a22.07,22.07,0,0,0,6.09-15.2,18.35,18.35,0,0,0-3.32-10.77,19.72,19.72,0,0,0-8.26-7c-3.56-1.57-9.34-3.17-17.19-4.75-5.53-1.1-9-2.43-10.79-4.18a9.47,9.47,0,0,1-3-7c0-3.78,1.82-10.12,14-10.12,7.13,0,12.35,3,15.25,8.67l10.1-3.37c-3.91-8.19-11-12.67-21.56-13.67a3,3,0,0,1-2.71-3V51.68h-4v6.91a3,3,0,0,1-2.62,3,23.71,23.71,0,0,0-15,7.26,20.4,20.4,0,0,0-5.69,14.64A19,19,0,0,0,80.7,96.09c2,2.48,7.4,6,21.23,8.88,5.89,1.16,9.87,2.48,12.12,4a9.24,9.24,0,0,1,4.1,7.91,10.23,10.23,0,0,1-4.32,8.24c-2.65,2.06-6.37,3.06-11.37,3.06-10.92,0-15.88-5.24-18.1-10.54l-11.47,2.62c3.52,9.83,11.4,15.27,24,16.61a3,3,0,0,1,2.67,3Z"/></svg>