<svg id="Capa_1" data-name="Capa 1" xmlns="http://www.w3.org/2000/svg" viewBox="0 0 437.31 422.98"><defs><style>.cls-1{fill:#006dd9;}</style></defs><path class="cls-1" d="M486.06,429.69H410.63a5.63,5.63,0,0,1-5.59-4.9l-5.11-39.28H190.61l-5.76,39.37a5.63,5.63,0,0,1-5.57,4.81H106a28.64,28.64,0,0,1-28.61-28.61V268.88A28.65,28.65,0,0,1,106,240.25H486.06a28.66,28.66,0,0,1,28.62,28.63v132.2A28.65,28.65,0,0,1,486.06,429.69Zm-70.49-11.25h70.49a17.38,17.38,0,0,0,17.37-17.36V268.88a17.39,17.39,0,0,0-17.37-17.37H106a17.38,17.38,0,0,0-17.36,17.37v132.2A17.37,17.37,0,0,0,106,418.44h68.42l5.76-39.37a5.63,5.63,0,0,1,5.57-4.82H404.88a5.63,5.63,0,0,1,5.58,4.9Z" transform="translate(-77.38 -92.22)"/><path class="cls-1" d="M220.23,301.81h-92a5.63,5.63,0,0,1,0-11.26h92a5.63,5.63,0,1,1,0,11.26Z" transform="translate(-77.38 -92.22)"/><path class="cls-1" d="M378.76,133.82l-39.7-39.7a5.49,5.49,0,0,0-3.65-1.45l-1.45,0c-.42-.1-.71-.48-1.15-.48H219.23a15.42,15.42,0,0,0-15.41,15.41v115a5.46,5.46,0,1,0,10.92,0v-115a4.49,4.49,0,0,1,4.49-4.49H325.57v30.79a15,15,0,0,0,14.94,14.94H370.6v71.5a5.46,5.46,0,1,0,10.92,0V138.16A5.13,5.13,0,0,0,378.76,133.82ZM335.54,104.7l34.2,34.21H340.51a5,5,0,0,1-5-5Z" transform="translate(-77.38 -92.22)"/><path class="cls-1" d="M396.25,515.2H195.08a5.6,5.6,0,0,1-4.29-2,5.69,5.69,0,0,1-1.26-4.58l19.4-115a5.75,5.75,0,0,1,6.49-4.61,5.62,5.62,0,0,1,4.61,6.48l-18.29,108.4H389.45l-21-110.43a5.63,5.63,0,1,1,11.06-2.11l22.27,117.11a5.65,5.65,0,0,1-5.53,6.69Z" transform="translate(-77.38 -92.22)"/><path class="cls-1" d="M333.74,413.89H256.87a5.63,5.63,0,0,1,0-11.26h76.87a5.63,5.63,0,0,1,0,11.26Z" transform="translate(-77.38 -92.22)"/><path class="cls-1" d="M347.39,448.38H243.94a5.63,5.63,0,0,1,0-11.26H347.39a5.63,5.63,0,0,1,0,11.26Z" transform="translate(-77.38 -92.22)"/><path class="cls-1" d="M358.89,480.7H232.44a5.63,5.63,0,0,1,0-11.25H358.89a5.63,5.63,0,1,1,0,11.25Z" transform="translate(-77.38 -92.22)"/></svg>