<?xml version="1.0" encoding="utf-8"?>
<!-- Generator: Adobe Illustrator 25.0.0, SVG Export Plug-In . SVG Version: 6.00 Build 0)  -->
<svg version="1.1" id="Capa_1" xmlns="http://www.w3.org/2000/svg" xmlns:xlink="http://www.w3.org/1999/xlink" x="0px" y="0px"
	 viewBox="0 0 600 600" style="enable-background:new 0 0 600 600;" xml:space="preserve">
<style type="text/css">
	.st0{fill:#006DD9;}
</style>
<g>
	<path class="st0" d="M458.2,563c-4.3,0-7.8-3.5-7.8-7.8V393.5c0-4.3,3.5-7.8,7.8-7.8s7.8,3.5,7.8,7.8v161.6
		C466,559.5,462.5,563,458.2,563z"/>
	<path class="st0" d="M458.2,168.8c-4.3,0-7.8-3.5-7.8-7.8v-55.6h-71.6c-4.3,0-7.8-3.5-7.8-7.8c0-4.3,3.5-7.8,7.8-7.8h79.5
		c4.3,0,7.8,3.5,7.8,7.8V161C466,165.3,462.5,168.8,458.2,168.8z"/>
	<path class="st0" d="M458.2,563H90.9c-4.3,0-7.8-3.5-7.8-7.8V97.6c0-4.3,3.5-7.8,7.8-7.8h75.6c4.3,0,7.8,3.5,7.8,7.8
		c0,4.3-3.5,7.8-7.8,7.8H98.7v441.9h359.4c4.3,0,7.8,3.5,7.8,7.8S462.5,563,458.2,563z"/>
	<path class="st0" d="M389.4,201.8H147c-4.3,0-7.8-3.5-7.8-7.8c0-4.3,3.5-7.8,7.8-7.8h242.4c4.3,0,7.8,3.5,7.8,7.8
		C397.2,198.3,393.7,201.8,389.4,201.8z"/>
	<path class="st0" d="M301.8,283.6H147c-4.3,0-7.8-3.5-7.8-7.8c0-4.3,3.5-7.8,7.8-7.8h154.8c4.3,0,7.8,3.5,7.8,7.8
		C309.6,280.1,306.1,283.6,301.8,283.6z"/>
	<path class="st0" d="M387.5,283.6h-43.8c-4.3,0-7.8-3.5-7.8-7.8c0-4.3,3.5-7.8,7.8-7.8h43.8c4.3,0,7.8,3.5,7.8,7.8
		C395.3,280.1,391.8,283.6,387.5,283.6z"/>
	<path class="st0" d="M326.8,364.4H147c-4.3,0-7.8-3.5-7.8-7.8s3.5-7.8,7.8-7.8h179.8c4.3,0,7.8,3.5,7.8,7.8
		S331.2,364.4,326.8,364.4z"/>
	<path class="st0" d="M312.1,488.9H232c-4.3,0-7.8-3.5-7.8-7.8c0-4.3,3.5-7.8,7.8-7.8h80.1c4.3,0,7.8,3.5,7.8,7.8
		C319.9,485.4,316.4,488.9,312.1,488.9z"/>
	<path class="st0" d="M350.5,129.8H198.6c-4.3,0-7.8-3.5-7.8-7.8V73.2c0-4.3,3.5-7.8,7.8-7.8h34.5c4.5-19.1,21.4-33.1,41.4-33.1
		s37,14,41.4,33.1h34.5c4.3,0,7.8,3.5,7.8,7.8v48.7C358.3,126.3,354.8,129.8,350.5,129.8z M206.4,114.1h136.2v-33h-33.4
		c-4.2,0-7.6-3.2-7.8-7.4C300.5,59.3,288.7,48,274.5,48c-14.2,0-26,11.3-26.8,25.7c-0.2,4.2-3.7,7.4-7.8,7.4h-33.4V114.1z"/>
	<g>
		<path class="st0" d="M366.2,441.8c-1.4,0-2.8-0.4-4-1.1c-2.5-1.5-4-4.3-3.8-7.2l4-65.6c0.1-1.2,0.4-2.3,1-3.4l125.4-223.1
			c1-1.8,2.7-3.2,4.7-3.7c2-0.5,4.2-0.3,6,0.8l54.6,31.3c3.8,2.2,5.1,6.9,2.9,10.7L430,402.7c-0.7,1.1-1.6,2.1-2.7,2.8l-57,35.1
			C369,441.4,367.6,441.8,366.2,441.8z M377.9,370.7l-3,48.7l42.5-26.2l122.1-213.7l-41-23.5L377.9,370.7z M423.2,398.8h0.2H423.2z"
			/>
		<path class="st0" d="M529.9,220.9c-1.3,0-2.7-0.3-3.9-1l-53-30.4c-3.8-2.2-5.1-7-2.9-10.7c2.2-3.8,7-5.1,10.7-2.9l53,30.4
			c3.8,2.2,5.1,7,2.9,10.7C535.2,219.5,532.6,220.9,529.9,220.9z"/>
		<path class="st0" d="M429.2,396.3c-1.3,0-2.7-0.3-3.9-1l-53-30.4c-3.8-2.2-5.1-7-2.9-10.7c2.2-3.8,7-5.1,10.7-2.9l53,30.4
			c3.8,2.2,5.1,7,2.9,10.7C434.5,394.9,431.9,396.3,429.2,396.3z"/>
	</g>
</g>
</svg>
