<svg id="Capa_1" data-name="Capa 1" xmlns="http://www.w3.org/2000/svg" viewBox="0 0 279.95 417.08"><defs><style>.cls-1{fill:#006dd9;}</style></defs><path class="cls-1" d="M402.93,509.3a10.62,10.62,0,0,1-9.42-5.65l-16-29.68-16,29.7c-3.62,6.92-15.16,6.94-18.82,0l-16.69-31-16.69,31a10.47,10.47,0,0,1-9.36,5.41h0a10.57,10.57,0,0,1-9.42-5.41L274,473.09l-16.47,30.58a10.5,10.5,0,0,1-9.4,5.41h0a10.51,10.51,0,0,1-9.38-5.43L222.07,472.7l-16.69,31a10.5,10.5,0,0,1-9.4,5.41h0a10.51,10.51,0,0,1-9.38-5.43l-25.79-47.9a10.55,10.55,0,0,1-1.31-5.05V102.91a10.72,10.72,0,0,1,10.71-10.69H428.72a10.7,10.7,0,0,1,10.69,10.69V450.7a10.37,10.37,0,0,1-1.31,5.09l-25.76,47.88A10.6,10.6,0,0,1,402.93,509.3ZM377.55,458h0a5.13,5.13,0,0,1,4.53,2.72L402.93,499a.38.38,0,0,0,.33-.18l25.8-47.94.05-348-258.94-.38-.4,348.17,25.87,48.09,21.9-39.39c1.78-3.34,7.29-3.34,9.06,0l21.22,39.39,21.68-39c1.77-3.34,7.29-3.34,9.06,0l21,39,21.9-39.41c1.77-3.34,7.29-3.34,9.06,0l21.24,39.41L373,460.67A5.12,5.12,0,0,1,377.55,458Z" transform="translate(-159.46 -92.22)"/><path class="cls-1" d="M379.78,367.54H219.11a5.16,5.16,0,0,1,0-10.31H379.78a5.16,5.16,0,1,1,0,10.31Z" transform="translate(-159.46 -92.22)"/><path class="cls-1" d="M379.78,405.16H219.11a5.15,5.15,0,0,1,0-10.3H379.78a5.15,5.15,0,1,1,0,10.3Z" transform="translate(-159.46 -92.22)"/><path class="cls-1" d="M297.23,218.87c-11.34,0-20.57-8.78-20.57-19.57s9.23-19.58,20.57-19.58,20.56,8.79,20.56,19.58a10.48,10.48,0,0,0,20.93,0c0-18.25-13.33-33-31-37.49V157.2a10.48,10.48,0,0,0-20.93,0v4.61c-17.7,4.51-31,19.24-31,37.49,0,21.78,18.62,39.5,41.5,39.5,11.34,0,20.56,8.78,20.56,19.58S308.57,278,297.23,278s-20.57-8.77-20.57-19.57a10.48,10.48,0,0,0-20.93,0c0,18.24,13.33,33,31,37.48v4.62a10.48,10.48,0,0,0,20.93,0v-4.62c17.7-4.52,31-19.24,31-37.48C338.72,236.59,320.11,218.87,297.23,218.87Z" transform="translate(-159.46 -92.22)"/></svg>