<?xml version="1.0" encoding="utf-8"?>
<!-- Generator: Adobe Illustrator 25.0.0, SVG Export Plug-In . SVG Version: 6.00 Build 0)  -->
<svg version="1.1" id="Capa_1" xmlns="http://www.w3.org/2000/svg" xmlns:xlink="http://www.w3.org/1999/xlink" x="0px" y="0px"
	 viewBox="0 0 600 600" style="enable-background:new 0 0 600 600;" xml:space="preserve">
<style type="text/css">
	.st0{fill:#FFFFFF;}
</style>
<g>
	<g>
		<path class="st0" d="M402.9,509.3c-4,0-7.6-2.2-9.4-5.7l-16-29.7l-16,29.7c-3.6,6.9-15.2,6.9-18.8,0l-16.7-31l-16.7,31
			c-1.7,3.3-5.3,5.4-9.4,5.4c0,0,0,0,0,0c-4,0-7.6-2.1-9.4-5.4L274,473.1l-16.5,30.6c-1.8,3.3-5.4,5.4-9.4,5.4c0,0,0,0,0,0
			c-4,0-7.6-2.1-9.4-5.4l-16.7-30.9l-16.7,31c-1.8,3.3-5.4,5.4-9.4,5.4c0,0,0,0,0,0c-4,0-7.6-2.1-9.4-5.4l-25.8-47.9
			c-0.8-1.5-1.3-3.3-1.3-5.1V102.9c0-5.9,4.8-10.7,10.7-10.7h258.5c5.9,0,10.7,4.8,10.7,10.7v347.8c0,1.8-0.4,3.5-1.3,5.1
			l-25.8,47.9C410.5,507.1,406.9,509.3,402.9,509.3z M377.5,457.9L377.5,457.9c1.9,0,3.6,1,4.5,2.7l20.9,38.3c0.1,0,0.3-0.1,0.3-0.2
			l25.8-47.9l0-348l-258.9-0.4l-0.4,348.2l25.9,48.1l21.9-39.4c1.8-3.3,7.3-3.3,9.1,0l21.2,39.4l21.7-39c1.8-3.3,7.3-3.3,9.1,0
			l21,39l21.9-39.4c1.8-3.3,7.3-3.3,9.1,0l21.2,39.4l21.2-38.1C373.9,459,375.7,457.9,377.5,457.9z"/>
	</g>
	<path class="st0" d="M379.8,367.5H219.1c-2.8,0-5.2-2.3-5.2-5.2s2.3-5.2,5.2-5.2h160.7c2.8,0,5.2,2.3,5.2,5.2
		S382.6,367.5,379.8,367.5z"/>
	<path class="st0" d="M379.8,405.2H219.1c-2.8,0-5.2-2.3-5.2-5.2s2.3-5.2,5.2-5.2h160.7c2.8,0,5.2,2.3,5.2,5.2
		S382.6,405.2,379.8,405.2z"/>
	<path class="st0" d="M297.2,218.9c-11.3,0-20.6-8.8-20.6-19.6c0-10.8,9.2-19.6,20.6-19.6c11.3,0,20.6,8.8,20.6,19.6
		c0,5.5,4.7,10,10.5,10s10.5-4.5,10.5-10c0-18.3-13.3-33-31-37.5v-4.6c0-5.5-4.7-10-10.5-10s-10.5,4.5-10.5,10v4.6
		c-17.7,4.5-31,19.2-31,37.5c0,21.8,18.6,39.5,41.5,39.5c11.3,0,20.6,8.8,20.6,19.6c0,10.8-9.2,19.6-20.6,19.6
		c-11.3,0-20.6-8.8-20.6-19.6c0-5.5-4.7-10-10.5-10c-5.8,0-10.5,4.5-10.5,10c0,18.2,13.3,33,31,37.5v4.6c0,5.5,4.7,10,10.5,10
		s10.5-4.5,10.5-10v-4.6c17.7-4.5,31-19.2,31-37.5C338.7,236.6,320.1,218.9,297.2,218.9z"/>
</g>
</svg>
