<?xml version="1.0" encoding="utf-8"?>
<!-- Generator: Adobe Illustrator 25.0.0, SVG Export Plug-In . SVG Version: 6.00 Build 0)  -->
<svg version="1.1" id="Capa_1" xmlns="http://www.w3.org/2000/svg" xmlns:xlink="http://www.w3.org/1999/xlink" x="0px" y="0px"
	 viewBox="0 0 600 600" style="enable-background:new 0 0 600 600;" xml:space="preserve">
<style type="text/css">
	.st0{fill:#006DD9;}
</style>
<path class="st0" d="M236.1,449.8h-140c-11.2,0-20.3-9.1-20.3-20.3V50.3C75.8,39.1,85,30,96.2,30h220.3c11.2,0,20.3,9.1,20.3,20.3
	v83.5c0,4-3.2,7.2-7.2,7.2s-7.2-3.2-7.2-7.2V50.3c0-3.3-2.7-5.9-5.9-5.9H96.2c-3.3,0-5.9,2.7-5.9,5.9v379.2c0,3.3,2.7,5.9,5.9,5.9
	h140c4,0,7.2,3.2,7.2,7.2S240.1,449.8,236.1,449.8z"/>
<path class="st0" d="M254.3,117.7H151c-4,0-7.2-3.2-7.2-7.2s3.2-7.2,7.2-7.2h103.4c4,0,7.2,3.2,7.2,7.2S258.3,117.7,254.3,117.7z"/>
<path class="st0" d="M232.2,178.3H151c-4,0-7.2-3.2-7.2-7.2c0-4,3.2-7.2,7.2-7.2h81.2c4,0,7.2,3.2,7.2,7.2
	C239.4,175.1,236.2,178.3,232.2,178.3z"/>
<path class="st0" d="M214,242.2h-63c-4,0-7.2-3.2-7.2-7.2c0-4,3.2-7.2,7.2-7.2h63c4,0,7.2,3.2,7.2,7.2
	C221.1,239,217.9,242.2,214,242.2z"/>
<path class="st0" d="M214,301.8h-63c-4,0-7.2-3.2-7.2-7.2s3.2-7.2,7.2-7.2h63c4,0,7.2,3.2,7.2,7.2S217.9,301.8,214,301.8z"/>
<path class="st0" d="M214,359.2h-63c-4,0-7.2-3.2-7.2-7.2s3.2-7.2,7.2-7.2h63c4,0,7.2,3.2,7.2,7.2S217.9,359.2,214,359.2z"/>
<g>
	<g>
		<path class="st0" d="M500.8,572.3c-3.9,0-7.5-2.2-9.3-5.6l-15.8-29.4l-15.9,29.4c-3.6,6.9-15,6.9-18.7,0L424.6,536l-16.5,30.7
			c-1.7,3.3-5.3,5.3-9.3,5.4c0,0,0,0,0,0c-4,0-7.6-2.1-9.3-5.4l-16.3-30.3l-16.3,30.3c-1.8,3.3-5.3,5.4-9.3,5.4c0,0,0,0,0,0
			c-4,0-7.6-2.1-9.3-5.4l-16.5-30.7l-16.5,30.7c-1.8,3.3-5.3,5.4-9.3,5.4c0,0,0,0,0,0c-4,0-7.6-2.1-9.3-5.4l-25.6-47.5
			c-0.8-1.5-1.3-3.3-1.3-5V169.6c0-5.8,4.8-10.6,10.6-10.6h256.2c5.8,0,10.6,4.7,10.6,10.6v344.7c0,1.8-0.4,3.5-1.3,5l-25.5,47.4
			C508.4,570.2,504.8,572.3,500.8,572.3z M475.7,521.4L475.7,521.4c1.9,0,3.6,1,4.5,2.7l20.7,38c0.1,0,0.3-0.1,0.3-0.2l25.6-47.5
			l0-344.9l-256.6-0.4l-0.4,345.1l25.6,47.7l21.7-39c1.8-3.3,7.2-3.3,9,0l21,39l21.5-38.7c1.8-3.3,7.2-3.3,9,0l20.8,38.7l21.7-39.1
			c1.8-3.3,7.2-3.3,9,0l21,39.1l21-37.8C472.1,522.5,473.8,521.4,475.7,521.4z"/>
	</g>
	<path class="st0" d="M477.9,431.8H318.7c-2.8,0-5.1-2.3-5.1-5.1s2.3-5.1,5.1-5.1h159.2c2.8,0,5.1,2.3,5.1,5.1
		S480.7,431.8,477.9,431.8z"/>
	<path class="st0" d="M477.9,469.1H318.7c-2.8,0-5.1-2.3-5.1-5.1c0-2.8,2.3-5.1,5.1-5.1h159.2c2.8,0,5.1,2.3,5.1,5.1
		C483,466.8,480.7,469.1,477.9,469.1z"/>
	<path class="st0" d="M396.1,284.5c-11.2,0-20.4-8.7-20.4-19.4c0-10.7,9.1-19.4,20.4-19.4c11.2,0,20.4,8.7,20.4,19.4
		c0,5.5,4.6,9.9,10.4,9.9s10.4-4.4,10.4-9.9c0-18.1-13.2-32.7-30.8-37.2v-4.6c0-5.5-4.6-9.9-10.4-9.9c-5.7,0-10.4,4.4-10.4,9.9v4.6
		c-17.5,4.5-30.8,19.1-30.8,37.2c0,21.6,18.5,39.1,41.1,39.1c11.2,0,20.4,8.7,20.4,19.4c0,10.7-9.1,19.4-20.4,19.4
		c-11.2,0-20.4-8.7-20.4-19.4c0-5.5-4.6-9.9-10.4-9.9c-5.7,0-10.4,4.4-10.4,9.9c0,18.1,13.2,32.7,30.8,37.1v4.6
		c0,5.5,4.6,9.9,10.4,9.9c5.7,0,10.4-4.4,10.4-9.9v-4.6c17.5-4.5,30.8-19.1,30.8-37.1C437.2,302.1,418.8,284.5,396.1,284.5z"/>
</g>
</svg>
