<?xml version="1.0" encoding="utf-8"?>
<!-- Generator: Adobe Illustrator 25.0.0, SVG Export Plug-In . SVG Version: 6.00 Build 0)  -->
<svg version="1.1" id="Capa_1" xmlns="http://www.w3.org/2000/svg" xmlns:xlink="http://www.w3.org/1999/xlink" x="0px" y="0px"
	 viewBox="0 0 600 600" style="enable-background:new 0 0 600 600;" xml:space="preserve">
<style type="text/css">
	.st0{fill:#FFFFFF;}
</style>
<g>
	<path class="st0" d="M330.9,530.7H78.2c-3.3,0-6-2.7-6-6V387.4c0-0.5,0.1-1,0.2-1.5l17.2-63.8l19.5-129.4c-0.1-5-0.1-5,59.9-5.5
		l291.9-2.1c0,0,0,0,0,0c3,0,5.5,2.2,5.9,5.1L484,308l8,22.9c1.1,3.1-0.6,6.5-3.7,7.6c-3.1,1.1-6.5-0.6-7.6-3.7l-8.3-24l-16.7-113.7
		c-39.9,0.3-296.3,2.1-335.6,2.4l-18.9,125l-17.1,63.7v130.6h246.7c3.3,0,6,2.7,6,6S334.2,530.7,330.9,530.7z"/>
	<path class="st0" d="M229,193.4c-3.3,0-6-2.7-6-6v-36.8c0-3.3,2.7-6,6-6c3.3,0,6,2.7,6,6v36.8C235,190.7,232.3,193.4,229,193.4z"/>
	<path class="st0" d="M330.9,154.2H122.3c-3.3,0-6-2.7-6-6V59.9c0-3.3,2.7-6,6-6h208.5c3.3,0,6,2.7,6,6v88.3
		C336.8,151.5,334.2,154.2,330.9,154.2z M128.3,142.2h196.6V65.8H128.3V142.2z"/>
	<path class="st0" d="M435.1,327.1H143.2c-1.7,0-3.3-0.7-4.4-1.9c-1.1-1.2-1.7-2.9-1.5-4.6l8.8-93.2c0.3-3.1,2.9-5.4,5.9-5.4h269.7
		c3,0,5.5,2.2,5.9,5.1l13.5,93.2c0.2,1.7-0.3,3.4-1.4,4.8C438.5,326.3,436.9,327.1,435.1,327.1z M149.7,315.2h278.5l-11.8-81.3
		H157.4L149.7,315.2z"/>
	<path class="st0" d="M125,371.3c-8.4,0-15.2-6-15.2-13.3c0-7.4,6.8-13.3,15.2-13.3s15.2,6,15.2,13.3
		C140.2,365.3,133.3,371.3,125,371.3z M125,356.5c-2.1,0-3.2,1.1-3.2,1.4c0,0.3,1.1,1.4,3.2,1.4s3.2-1.1,3.2-1.4h6h-6
		C128.2,357.6,127.1,356.5,125,356.5z"/>
	<path class="st0" d="M186.2,371.3c-8.4,0-15.2-6-15.2-13.3c0-7.4,6.8-13.3,15.2-13.3s15.2,6,15.2,13.3
		C201.3,365.3,194.5,371.3,186.2,371.3z M186.2,356.5c-2.1,0-3.2,1.1-3.2,1.4c0,0.3,1.1,1.4,3.2,1.4s3.2-1.1,3.2-1.4h6h-6
		C189.3,357.6,188.2,356.5,186.2,356.5z"/>
	<path class="st0" d="M125,404.2c-8.4,0-15.2-6-15.2-13.3c0-7.4,6.8-13.3,15.2-13.3s15.2,6,15.2,13.3
		C140.2,398.2,133.3,404.2,125,404.2z M125,389.5c-2.1,0-3.2,1.1-3.2,1.4c0.1,0.3,1.2,1.4,3.2,1.4s3.2-1.1,3.2-1.4h6h-6
		C128.2,390.6,127.1,389.5,125,389.5z"/>
	<path class="st0" d="M186.2,404.2c-8.4,0-15.2-6-15.2-13.3c0-7.4,6.8-13.3,15.2-13.3s15.2,6,15.2,13.3
		C201.3,398.2,194.5,404.2,186.2,404.2z M186.2,389.5c-2.1,0-3.2,1.1-3.2,1.4c0.1,0.3,1.2,1.4,3.2,1.4s3.2-1.1,3.2-1.4h6h-6
		C189.3,390.6,188.2,389.5,186.2,389.5z"/>
	<path class="st0" d="M245.4,371.9c-8.4,0-15.2-6-15.2-13.3c0-7.4,6.8-13.3,15.2-13.3c8.4,0,15.2,6,15.2,13.3
		C260.6,365.9,253.8,371.9,245.4,371.9z M245.4,357.2c-2.2,0-3.2,1.2-3.2,1.4c0,0.2,1.1,1.4,3.2,1.4c2.1,0,3.2-1.2,3.2-1.4
		C248.7,358.3,247.6,357.2,245.4,357.2z"/>
	<path class="st0" d="M305.8,433.8H80.6c-3.3,0-6-2.7-6-6s2.7-6,6-6h225.2c3.3,0,6,2.7,6,6S309.1,433.8,305.8,433.8z"/>
	<path class="st0" d="M269.5,482.9H130.9c-3.3,0-6-2.7-6-6c0-3.3,2.7-6,6-6h138.6c3.3,0,6,2.7,6,6
		C275.5,480.2,272.8,482.9,269.5,482.9z"/>
	<path class="st0" d="M440.4,554c-58.8,0-106.6-47.8-106.6-106.6s47.8-106.6,106.6-106.6S547,388.7,547,447.4S499.2,554,440.4,554z
		 M440.4,352.8c-52.2,0-94.6,42.4-94.6,94.6s42.4,94.6,94.6,94.6s94.6-42.4,94.6-94.6S492.6,352.8,440.4,352.8z"/>
	<path class="st0" d="M416.3,505.5c-0.8,0-1.7-0.2-2.5-0.5c-2.1-1-3.5-3.1-3.5-5.4V389.7c0-2.3,1.4-4.4,3.5-5.4
		c2.1-1,4.6-0.6,6.4,0.9l63.6,54.9c1.3,1.1,2.1,2.8,2.1,4.5s-0.8,3.4-2.1,4.5l-63.6,54.9C419.1,505,417.7,505.5,416.3,505.5z
		 M422.3,402.8v83.7l48.5-41.9L422.3,402.8z"/>
</g>
</svg>
