<?xml version="1.0" encoding="utf-8"?>
<!-- Generator: Adobe Illustrator 25.0.0, SVG Export Plug-In . SVG Version: 6.00 Build 0)  -->
<svg version="1.1" id="Capa_1" xmlns="http://www.w3.org/2000/svg" xmlns:xlink="http://www.w3.org/1999/xlink" x="0px" y="0px"
	 viewBox="0 0 600 600" style="enable-background:new 0 0 600 600;" xml:space="preserve">
<style type="text/css">
	.st0{fill:#FFFFFF;}
</style>
<g>
	<g>
		<g>
			<path class="st0" d="M305.9,503c-1,0-2-0.3-2.9-0.8c-1.7-1-2.7-2.8-2.7-4.8V318.9c0-2.1,1.2-4.1,3.1-5l121.2-60.6
				c1.7-0.9,3.8-0.8,5.4,0.2c1.7,1,2.7,2.8,2.7,4.8v178.5c0,2.1-1.2,4.1-3.1,5l-121.2,60.6C307.6,502.8,306.7,503,305.9,503z
				 M311.5,322.3v166l110-55v-166L311.5,322.3z M427.1,436.7h0.1H427.1z"/>
			<path class="st0" d="M305.9,503c-0.9,0-1.7-0.2-2.5-0.6l-121.2-60.6c-1.9-0.9-3.1-2.9-3.1-5V258.2c0-1.9,1-3.7,2.7-4.8
				c1.6-1,3.7-1.1,5.4-0.2l121.2,60.6c1.9,0.9,3.1,2.9,3.1,5v178.5c0,1.9-1,3.7-2.7,4.8C307.9,502.7,306.9,503,305.9,503z
				 M190.3,433.3l110,55v-166l-110-55L190.3,433.3L190.3,433.3z"/>
			<path class="st0" d="M305.9,324.4c-0.9,0-1.7-0.2-2.5-0.6l-121.2-60.6c-1.9-0.9-3.1-2.9-3.1-5s1.2-4.1,3.1-5l121.2-60.5
				c1.6-0.8,3.4-0.8,5,0l121.2,60.6c1.9,0.9,3.1,2.9,3.1,5s-1.2,4.1-3.1,5l-121.2,60.6C307.6,324.2,306.7,324.4,305.9,324.4z
				 M197.2,258.2l108.7,54.4l108.7-54.3L305.9,204L197.2,258.2z"/>
			<g>
				<path class="st0" d="M305.5,324.6c-0.7,0-1.5-0.2-2.1-0.5l-121.2-60.6c-1.9-0.9-3.1-2.9-3.1-5s1.1-4.2,2.9-5.2
					c1.6-0.9,3.8-1,5.4-0.2l120.9,60.5c1.9,0.9,3.1,2.9,3.1,5c0,1.9-1,4-2.7,5C307.8,324.2,306.6,324.6,305.5,324.6z"/>
			</g>
			<g>
				<path class="st0" d="M305.9,324.7c-1,0-2-0.3-2.9-0.8c-1.7-1-2.7-2.8-2.7-4.8v-0.5c0-2.1,1.2-4.1,3.1-5l120.9-60.5
					c1.7-0.8,3.6-0.8,5.2,0.1c1.8,1,3.1,3,3.1,5c0,2.1-1.2,4.3-3.1,5.3l-121.2,60.6C307.6,324.5,306.7,324.7,305.9,324.7z"/>
			</g>
			<path class="st0" d="M305.9,324.4c-2,0-4-1.1-5-3.1c-0.4-0.8-0.6-1.7-0.6-2.5c0-2.1,1.1-4,3.1-5l121.2-60.6
				c2.8-1.3,6.1-0.3,7.5,2.5c0.4,0.8,0.6,1.7,0.6,2.5c0,2.1-1.1,4-3.1,5l-121.2,60.6C307.6,324.3,306.7,324.4,305.9,324.4z"/>
		</g>
		<path class="st0" d="M250.2,359.6c-0.9,0-1.7-0.2-2.5-0.6l-17.5-8.8c-1.9-0.9-3.1-2.9-3.1-5v-62.6c0-1.9,1-3.7,2.7-4.8
			c1.6-1,3.7-1.1,5.4-0.2l17.5,8.8c1.9,0.9,3.1,2.9,3.1,5V354c0,1.9-1,3.7-2.7,4.8C252.3,359.3,251.2,359.6,250.2,359.6z
			 M238.3,341.7l6.3,3.2v-50.1l-6.3-3.2V341.7z"/>
		<path class="st0" d="M250.2,296.9c-0.9,0-1.7-0.2-2.5-0.6l-17.5-8.8c-1.9-1-3.1-2.9-3.1-5s1.2-4.1,3.1-5l122.3-60.3
			c1.6-0.7,3.4-0.8,5,0l17.5,8.7c1.9,0.9,3.1,2.9,3.1,5s-1.2,4.1-3.1,5l-122.3,60.4C251.9,296.7,251.1,296.9,250.2,296.9z
			 M245.3,282.6l4.9,2.5L359.9,231l-4.9-2.5L245.3,282.6z"/>
	</g>
	<path class="st0" d="M299.1,70.7c0,30.5,0,61.1,0,91.6c0,7.2,11.2,7.2,11.2,0c0-30.5,0-61.1,0-91.6
		C310.3,63.5,299.1,63.5,299.1,70.7L299.1,70.7z"/>
	<path class="st0" d="M104,356.9c-30.6,0-61.2,0-91.9,0c-7.2,0-7.2,11.2,0,11.2c30.6,0,61.2,0,91.9,0
		C111.2,368.1,111.2,356.9,104,356.9L104,356.9z"/>
	<path class="st0" d="M93.9,160.1c18,17.9,35.9,35.8,53.9,53.7c3.7,3.7,7.4,7.4,11.1,11.1c5.1,5.1,13-2.8,7.9-7.9
		c-18-17.9-35.9-35.8-53.9-53.7c-3.7-3.7-7.4-7.4-11.1-11C96.7,147.1,88.8,155,93.9,160.1L93.9,160.1z"/>
	<path class="st0" d="M187.4,94.4c11.7,28.2,23.4,56.4,35.1,84.6c1.2,2.8,3.7,4.8,6.9,3.9c2.6-0.7,5.1-4.1,3.9-6.9
		c-11.7-28.2-23.4-56.4-35.1-84.6c-1.2-2.8-3.7-4.8-6.9-3.9C188.7,88.2,186.2,91.6,187.4,94.4L187.4,94.4z"/>
	<path class="st0" d="M117.8,433.7c-28.3,11.7-56.6,23.4-84.9,35.1c-2.8,1.2-4.8,3.7-3.9,6.9c0.7,2.7,4.1,5.1,6.9,3.9
		c28.3-11.7,56.6-23.4,84.9-35.1c2.8-1.2,4.8-3.7,3.9-6.9C124,435,120.6,432.6,117.8,433.7L117.8,433.7z"/>
	<path class="st0" d="M32.9,256.2c28.3,11.7,56.6,23.4,84.9,35.1c2.8,1.2,6.1-1.3,6.9-3.9c0.9-3.2-1.1-5.7-3.9-6.9
		c-28.3-11.7-56.6-23.4-84.9-35.1c-2.8-1.2-6.1,1.3-6.9,3.9C28.1,252.6,30.2,255.1,32.9,256.2L32.9,256.2z"/>
	<path class="st0" d="M494.9,368.1c30.6,0,61.2,0,91.9,0c7.2,0,7.2-11.2,0-11.2c-30.6,0-61.2,0-91.9,0
		C487.6,356.9,487.6,368.1,494.9,368.1L494.9,368.1z"/>
	<path class="st0" d="M440,224.9c18-17.9,35.9-35.8,53.9-53.7c3.7-3.7,7.4-7.4,11.1-11.1c5.1-5.1-2.8-13-7.9-7.9
		c-17.9,17.9-35.9,35.8-53.9,53.7c-3.7,3.7-7.4,7.4-11.1,11C427,222.1,434.9,230,440,224.9L440,224.9z"/>
	<path class="st0" d="M481,291.3c28.3-11.7,56.6-23.4,84.9-35.1c2.8-1.2,4.8-3.7,3.9-6.9c-0.7-2.7-4.1-5.1-6.9-3.9
		c-28.3,11.7-56.6,23.4-84.9,35.1c-2.8,1.2-4.8,3.7-3.9,6.9C474.9,290,478.2,292.5,481,291.3L481,291.3z"/>
	<path class="st0" d="M565.9,468.8c-28.3-11.7-56.6-23.4-84.9-35.1c-2.8-1.2-6.1,1.3-6.9,3.9c-0.9,3.2,1.1,5.7,3.9,6.9
		c28.3,11.7,56.6,23.4,84.9,35.1c2.8,1.2,6.1-1.3,6.9-3.9C570.8,472.5,568.7,469.9,565.9,468.8L565.9,468.8z"/>
	<path class="st0" d="M376.3,179.1c11.7-28.2,23.5-56.4,35.1-84.7c1.2-2.8-1.3-6.1-3.9-6.9c-3.2-0.9-5.7,1.1-6.9,3.9
		c-11.7,28.2-23.4,56.4-35.1,84.7c-1.2,2.8,1.3,6.1,3.9,6.9C372.7,183.9,375.2,181.8,376.3,179.1L376.3,179.1z"/>
</g>
</svg>
