<?xml version="1.0" encoding="utf-8"?>
<!-- Generator: Adobe Illustrator 25.0.0, SVG Export Plug-In . SVG Version: 6.00 Build 0)  -->
<svg version="1.1" id="Capa_1" xmlns="http://www.w3.org/2000/svg" xmlns:xlink="http://www.w3.org/1999/xlink" x="0px" y="0px"
	 viewBox="0 0 134.2 137.9" style="enable-background:new 0 0 134.2 137.9;" xml:space="preserve">
<style type="text/css">
	.st0{fill:#FFFFFF;}
</style>
<g>
	<g>
		<path class="st0" d="M52.6,104.5h-8.5c-0.8,0-1.4-0.6-1.4-1.4v-8.8C30.1,92.7,22.2,86.2,19.4,75c-0.1-0.4,0-0.8,0.2-1.1
			c0.2-0.3,0.5-0.6,0.9-0.6L35.1,70c0.7-0.2,1.5,0.3,1.7,1c1.5,5.6,5.5,8.3,12.3,8.3c3.3,0,5.7-0.6,7.2-1.8c1.4-1.1,2.1-2.4,2.1-3.9
			c0-1.5-0.6-2.6-1.8-3.5c-1-0.7-3.3-1.7-8.8-2.8c-10.5-2.2-17.1-5.1-20.2-8.9c-3.1-3.8-4.7-8.2-4.7-13.2c0-5.9,2-10.9,5.9-15.1
			c3.6-3.9,8.3-6.3,13.9-7.2v-7.2c0-0.8,0.6-1.4,1.4-1.4h8.5c0.8,0,1.4,0.6,1.4,1.4v7c10.7,1.4,17.9,6.9,21.3,16.4
			c0.1,0.4,0.1,0.8-0.1,1.1s-0.5,0.6-0.8,0.7L61,45.6c-0.7,0.2-1.5-0.1-1.8-0.9c-1.6-4.7-4.9-7-10.2-7c-7.9,0-7.9,3.4-7.9,4.6
			c0,1.2,0.4,2.2,1.3,3.1c0.5,0.5,2.2,1.5,7.2,2.5c6.9,1.4,12.1,2.8,15.4,4.3c3.4,1.5,6.3,4,8.6,7.3c1,1.5,1.8,3,2.4,4.6
			c0.3,0.7-0.1,1.5-0.9,1.8c-0.8,0.3-1.5-0.1-1.8-0.9c-0.5-1.4-1.2-2.7-2-4c-2-2.9-4.5-5.1-7.5-6.4c-3.1-1.4-8.1-2.7-14.8-4.1
			c-4.5-0.9-7.2-1.9-8.6-3.2c-1.4-1.4-2.2-3.1-2.2-5.1c0-3.4,1.9-7.5,10.7-7.5c6,0,10.1,2.6,12.3,7.6l10.7-3.6
			c-3.4-8.1-9.8-12.4-19.7-13.4c-0.7-0.1-1.3-0.7-1.3-1.4v-6.9h-5.7v7c0,0.7-0.5,1.3-1.2,1.4c-5.5,0.7-10,2.8-13.4,6.5
			c-3.5,3.7-5.1,8-5.1,13.2c0,4.3,1.4,8.2,4,11.4c2.7,3.2,9,5.9,18.6,7.9c4.8,1,8.1,2,9.8,3.2c2,1.3,3,3.3,3,5.8
			c0,2.4-1.1,4.4-3.2,6.1c-2.1,1.6-5,2.4-8.9,2.4c-7.6,0-12.5-3.1-14.6-9.1l-11.9,2.7c2.9,9.5,10,14.8,21.7,16
			c0.7,0.1,1.3,0.7,1.3,1.4v8.6h7.1c0.8,0,1.4,0.6,1.4,1.4S53.3,104.5,52.6,104.5z"/>
	</g>
	<g>
		<g>
			<path class="st0" d="M82.8,111.8c-0.4,0-0.8-0.2-1.1-0.5l-8.7-9.9c-0.5-0.6-0.5-1.5,0.1-2c0.6-0.5,1.5-0.5,2,0.1l7.3,8.2
				c2.1-4.8,7.8-16.5,17.2-24.9c0.6-0.5,1.5-0.5,2,0.1c0.5,0.6,0.5,1.5-0.1,2c-11.3,10.2-17.3,25.8-17.3,25.9
				c-0.2,0.5-0.6,0.8-1.1,0.9C82.9,111.8,82.8,111.8,82.8,111.8z"/>
			<path class="st0" d="M86.8,126.8c-15.8,0-28.6-12.8-28.6-28.6S71,69.6,86.8,69.6s28.6,12.8,28.6,28.6S102.6,126.8,86.8,126.8z
				 M86.8,72.5C72.6,72.5,61,84,61,98.2c0,14.2,11.6,25.8,25.8,25.8s25.8-11.6,25.8-25.8C112.6,84,101,72.5,86.8,72.5z"/>
		</g>
	</g>
</g>
</svg>
