<?xml version="1.0" encoding="utf-8"?>
<!-- Generator: Adobe Illustrator 24.0.0, SVG Export Plug-In . SVG Version: 6.00 Build 0)  -->
<svg version="1.1" id="Capa_1" xmlns="http://www.w3.org/2000/svg" xmlns:xlink="http://www.w3.org/1999/xlink" x="0px" y="0px"
	 viewBox="0 0 10 10" style="enable-background:new 0 0 10 10;" xml:space="preserve">
<style type="text/css">
	.st0{fill:#FFFFFF;}
</style>
<g>
	<path class="st0" d="M8.94,9.05H1.02c-0.37,0-0.67-0.3-0.67-0.67V5.02c0-0.06,0.03-0.11,0.07-0.15c0.05-0.04,0.11-0.05,0.16-0.03
		c1.04,0.29,2.18,0.47,3.36,0.53c0.1,0.01,0.18,0.09,0.18,0.19v0.36c0,0.12,0.1,0.22,0.22,0.22H5.6c0.12,0,0.22-0.1,0.22-0.22V5.56
		c0-0.1,0.08-0.18,0.18-0.19c1.19-0.07,2.32-0.25,3.36-0.53c0.06-0.01,0.12,0,0.16,0.03S9.6,4.97,9.6,5.02V8.4
		C9.6,8.76,9.3,9.05,8.94,9.05z M0.72,5.27v3.11c0,0.16,0.13,0.3,0.3,0.3h7.92c0.16,0,0.28-0.13,0.28-0.28V5.27
		c-0.95,0.24-1.97,0.4-3.03,0.47v0.19c0,0.32-0.26,0.59-0.59,0.59H4.34c-0.32,0-0.59-0.26-0.59-0.59V5.74
		C2.69,5.67,1.67,5.51,0.72,5.27z"/>
	<path class="st0" d="M6.01,5.75c-0.1,0-0.18-0.08-0.19-0.18C5.82,5.47,5.89,5.38,6,5.38c1.14-0.06,2.22-0.23,3.23-0.5V2.4
		c0-0.12-0.1-0.22-0.22-0.22H0.92c-0.11,0-0.2,0.09-0.2,0.2v2.5c1.01,0.26,2.09,0.43,3.23,0.5c0.1,0.01,0.18,0.09,0.18,0.2
		c-0.01,0.1-0.09,0.18-0.2,0.18C2.71,5.68,1.56,5.5,0.49,5.2c-0.08-0.02-0.14-0.1-0.14-0.18V2.38c0-0.31,0.26-0.57,0.57-0.57H9
		c0.33,0,0.6,0.27,0.6,0.6v2.62c0,0.08-0.06,0.16-0.14,0.18C8.39,5.5,7.23,5.68,6.02,5.75C6.01,5.75,6.01,5.75,6.01,5.75z"/>
	<path class="st0" d="M6.01,5.75c-0.1,0-0.19-0.08-0.19-0.19v-0.3c0-0.12-0.1-0.22-0.22-0.22H4.34c-0.12,0-0.22,0.1-0.22,0.22v0.3
		c0,0.1-0.08,0.19-0.19,0.19S3.75,5.67,3.75,5.56v-0.3c0-0.32,0.26-0.59,0.59-0.59H5.6c0.32,0,0.59,0.26,0.59,0.59v0.3
		C6.19,5.67,6.11,5.75,6.01,5.75z"/>
	<path class="st0" d="M7.45,2.16H2.49c-0.06,0-0.12-0.03-0.15-0.08C2.3,2.02,2.3,1.96,2.32,1.9c0.31-0.77,0.81-1.16,1.51-1.16h2.18
		c0.73,0,1.33,0.43,1.62,1.16c0.02,0.06,0.02,0.12-0.02,0.17C7.57,2.13,7.51,2.16,7.45,2.16z M2.78,1.78h4.37
		C6.9,1.35,6.49,1.11,6.01,1.11H3.83C3.37,1.11,3.03,1.33,2.78,1.78z"/>
</g>
</svg>
