<?xml version="1.0" encoding="utf-8"?>
<!-- Generator: Adobe Illustrator 24.3.0, SVG Export Plug-In . SVG Version: 6.00 Build 0)  -->
<svg version="1.1" id="Capa_1" xmlns="http://www.w3.org/2000/svg" xmlns:xlink="http://www.w3.org/1999/xlink" x="0px" y="0px"
	 viewBox="0 0 30 30" style="enable-background:new 0 0 30 30;" xml:space="preserve">
<style type="text/css">
	.st0{fill:#006dd9;}
</style>
<g>
	<path class="st0" d="M5.6,22.7c0,0-0.1,0-0.1,0c-0.1,0-0.2-0.2-0.2-0.3V10.1c0-0.1,0.1-0.2,0.1-0.3c0,0,0.9-0.6,1.8-0.6l0-1.8
		c0-0.1,0-0.2,0-0.2C7.4,7,7.7,6.8,10,7.1c2.8,0.4,5.2,2.7,5.3,2.8c0.1,0.1,0.1,0.1,0.1,0.2v12.2c0,0.1-0.1,0.2-0.2,0.3
		c-0.1,0.1-0.2,0-0.3,0c0,0-1.8-1.2-4.9-1.2c-3,0-4.3,1.2-4.3,1.2C5.8,22.7,5.7,22.7,5.6,22.7z M5.9,10.3v11.5c0.7-0.4,2-1,4.2-1
		c2.3,0,4,0.6,4.8,1V10.3C14.4,9.9,12.2,8,10,7.7C8.6,7.5,8.1,7.5,7.9,7.6v2c0,0,0,0,0,0v9.6c1.1,0,4.6,0.3,6.6,1.7
		c0.1,0.1,0.2,0.3,0.1,0.4c-0.1,0.1-0.3,0.2-0.4,0.1c-2.1-1.6-6.5-1.6-6.6-1.6c-0.2,0-0.3-0.1-0.3-0.3V9.9
		C6.7,9.9,6.2,10.2,5.9,10.3z"/>
	<path class="st0" d="M14,12c-0.1,0-0.1,0-0.2-0.1c0,0-1.5-1.2-2.5-1.5c-1.1-0.4-2.1-0.4-2.1-0.4c-0.2,0-0.3-0.1-0.3-0.3
		c0-0.2,0.1-0.3,0.3-0.3c0,0,1.2,0,2.3,0.4c1.2,0.4,2.7,1.6,2.7,1.6c0.1,0.1,0.1,0.3,0,0.4C14.2,12,14.1,12,14,12z"/>
	<path class="st0" d="M14,13.8c-0.1,0-0.1,0-0.2-0.1c0,0-1.5-1.2-2.5-1.5c-1.1-0.4-2.1-0.4-2.1-0.4c-0.2,0-0.3-0.1-0.3-0.3
		c0-0.2,0.1-0.3,0.3-0.3c0,0,1.2,0,2.3,0.4c1.2,0.4,2.7,1.6,2.7,1.6c0.1,0.1,0.1,0.3,0,0.4C14.2,13.8,14.1,13.8,14,13.8z"/>
	<g>
		<path class="st0" d="M16,21.5c-0.1,0-0.2,0-0.2-0.1c-0.1-0.1-0.1-0.3,0.1-0.4c2-1.5,5.6-1.7,6.6-1.7v-1.6c0-0.2,0.1-0.3,0.3-0.3
			s0.3,0.1,0.3,0.3v1.9c0,0.2-0.1,0.3-0.3,0.3c0,0-4.4,0-6.6,1.6C16.1,21.5,16.1,21.5,16,21.5z"/>
		<path class="st0" d="M24.7,22.7c-0.1,0-0.2,0-0.2-0.1c0,0-1.3-1.2-4.3-1.2c-3,0-4.9,1.2-4.9,1.2c-0.1,0.1-0.2,0.1-0.3,0
			c-0.1-0.1-0.2-0.2-0.2-0.3V10.1c0-0.1,0-0.2,0.1-0.2c0.1-0.1,2.5-2.4,5.3-2.8C22.5,6.8,22.9,7,23,7.2c0,0.1,0,0.1,0,0.2h0v1.8
			c0.9,0,1.8,0.6,1.8,0.6C24.9,9.9,25,10,25,10.1v12.3c0,0.1-0.1,0.2-0.2,0.3C24.8,22.7,24.7,22.7,24.7,22.7z M20.2,20.8
			c2.2,0,3.5,0.6,4.2,1V10.3c-0.3-0.1-0.8-0.4-1.4-0.4v5c0,0.2-0.1,0.3-0.3,0.3s-0.3-0.1-0.3-0.3V9.6c0,0,0,0,0,0v-2
			c-0.2,0-0.7,0-2.1,0.1C18,8,15.9,9.9,15.4,10.3v11.5C16.2,21.4,17.9,20.8,20.2,20.8z"/>
		<path class="st0" d="M16.6,12c-0.1,0-0.2,0-0.2-0.1c-0.1-0.1-0.1-0.3,0-0.4c0.1-0.1,1.6-1.3,2.7-1.6c1.2-0.4,2.3-0.4,2.3-0.4
			c0.2,0,0.3,0.1,0.3,0.3c0,0.2-0.1,0.3-0.3,0.3c0,0-1.1,0-2.1,0.4c-1.1,0.4-2.5,1.5-2.5,1.5C16.8,12,16.7,12,16.6,12z"/>
		<path class="st0" d="M16.6,13.8c-0.1,0-0.2,0-0.2-0.1c-0.1-0.1-0.1-0.3,0-0.4c0.1-0.1,1.6-1.3,2.7-1.6c1.2-0.4,2.3-0.4,2.3-0.4
			c0.2,0,0.3,0.1,0.3,0.3c0,0.2-0.1,0.3-0.3,0.3c0,0-1.1,0-2.1,0.4c-1.1,0.4-2.5,1.5-2.5,1.5C16.8,13.8,16.7,13.8,16.6,13.8z"/>
		<path class="st0" d="M16.6,15.6c-0.1,0-0.2,0-0.2-0.1c-0.1-0.1-0.1-0.3,0-0.4c0.1-0.1,1.6-1.3,2.7-1.6c1.2-0.4,2.3-0.4,2.3-0.4
			c0.2,0,0.3,0.1,0.3,0.3c0,0.2-0.1,0.3-0.3,0.3c0,0-1.1,0-2.1,0.4c-1.1,0.4-2.5,1.5-2.5,1.5C16.8,15.6,16.7,15.6,16.6,15.6z"/>
	</g>
</g>
</svg>
