<?xml version="1.0" encoding="utf-8"?>
<!-- Generator: Adobe Illustrator 24.3.0, SVG Export Plug-In . SVG Version: 6.00 Build 0)  -->
<svg version="1.1" id="Capa_1" xmlns="http://www.w3.org/2000/svg" xmlns:xlink="http://www.w3.org/1999/xlink" x="0px" y="0px"
	 viewBox="0 0 30 30" style="enable-background:new 0 0 30 30;" xml:space="preserve">
<style type="text/css">
	.st0{fill:#FFFFFF;}
	.st1{fill:#E43341;}
	.st2{fill:#EDEDA8;}
	.st3{fill:#4AB177;}
</style>
<g>
	<path class="st0" d="M2.5,25c-0.1,0-0.1,0-0.2,0c-0.1-0.1-0.2-0.2-0.2-0.4V8.5c0-0.1,0.1-0.3,0.2-0.3c0.1,0,1.2-0.7,2.4-0.8l0-2.4
		c0-0.1,0-0.2,0.1-0.3c0.2-0.3,0.6-0.5,3.6-0.1c3.6,0.5,6.8,3.5,7,3.7c0.1,0.1,0.1,0.2,0.1,0.3v16c0,0.1-0.1,0.3-0.2,0.3
		c-0.1,0.1-0.3,0.1-0.4,0c0,0-2.4-1.5-6.4-1.5c-3.9,0-5.6,1.6-5.6,1.6C2.7,25,2.6,25,2.5,25z M2.9,8.8v15.1c0.9-0.5,2.6-1.3,5.5-1.3
		c3.1,0,5.2,0.8,6.2,1.3V8.7C14,8.2,11.2,5.8,8.2,5.4C6.5,5.1,5.8,5.1,5.5,5.2v2.6c0,0,0,0,0,0v12.6c1.4,0,6.1,0.3,8.7,2.3
		c0.2,0.1,0.2,0.4,0.1,0.6c-0.1,0.2-0.4,0.2-0.6,0.1c-2.8-2.1-8.5-2.1-8.6-2.1c-0.2,0-0.4-0.2-0.4-0.4V8.2C4,8.2,3.2,8.6,2.9,8.8z"
		/>
	<path class="st0" d="M13.6,11c-0.1,0-0.2,0-0.3-0.1c0,0-1.9-1.6-3.3-2C8.6,8.4,7.2,8.4,7.2,8.4C7,8.4,6.8,8.3,6.8,8
		c0-0.2,0.2-0.4,0.4-0.4c0.1,0,1.6,0,3.1,0.5c1.5,0.5,3.5,2.1,3.6,2.2c0.2,0.1,0.2,0.4,0.1,0.6C13.8,11,13.7,11,13.6,11z"/>
	<path class="st0" d="M13.6,13.4c-0.1,0-0.2,0-0.3-0.1c0,0-1.9-1.6-3.3-2c-1.4-0.5-2.8-0.5-2.8-0.5c-0.2,0-0.4-0.2-0.4-0.4
		C6.8,10.2,7,10,7.2,10c0.1,0,1.6,0,3.1,0.5c1.5,0.5,3.5,2.1,3.6,2.2c0.2,0.1,0.2,0.4,0.1,0.6C13.8,13.3,13.7,13.4,13.6,13.4z"/>
	<g>
		<path class="st0" d="M16.2,23.4c-0.1,0-0.2-0.1-0.3-0.2c-0.1-0.2-0.1-0.4,0.1-0.6c2.6-2,7.3-2.2,8.7-2.3v-2.1
			c0-0.2,0.2-0.4,0.4-0.4c0.2,0,0.4,0.2,0.4,0.4v2.5c0,0.2-0.2,0.4-0.4,0.4c-0.1,0-5.8,0-8.6,2.1C16.3,23.4,16.2,23.4,16.2,23.4z"/>
		<path class="st0" d="M27.6,25c-0.1,0-0.2,0-0.3-0.1c0,0-1.7-1.6-5.6-1.6c-4,0-6.4,1.5-6.4,1.5c-0.1,0.1-0.3,0.1-0.4,0
			c-0.1-0.1-0.2-0.2-0.2-0.3v-16c0-0.1,0-0.2,0.1-0.3c0.1-0.1,3.3-3.2,7-3.7c3-0.4,3.4-0.2,3.6,0.1c0,0.1,0.1,0.2,0.1,0.3h0v2.4
			c1.2,0.1,2.3,0.8,2.4,0.8C27.9,8.3,28,8.4,28,8.5v16.1c0,0.2-0.1,0.3-0.2,0.4C27.7,25,27.6,25,27.6,25z M21.7,22.5
			c2.9,0,4.6,0.8,5.5,1.3V8.8c-0.3-0.2-1.1-0.5-1.8-0.6v6.6c0,0.2-0.2,0.4-0.4,0.4c-0.2,0-0.4-0.2-0.4-0.4v-7c0,0,0,0,0,0V5.2
			c-0.3,0-1,0-2.7,0.2c-3,0.4-5.8,2.8-6.4,3.3v15.1C16.4,23.3,18.6,22.5,21.7,22.5z"/>
		<path class="st0" d="M17,11c-0.1,0-0.2-0.1-0.3-0.1c-0.1-0.2-0.1-0.4,0.1-0.6c0.1-0.1,2-1.6,3.6-2.2c1.5-0.5,3-0.5,3.1-0.5
			c0.2,0,0.4,0.2,0.4,0.4c0,0.2-0.2,0.4-0.4,0.4c0,0-1.4,0-2.8,0.5c-1.4,0.5-3.3,2-3.3,2C17.2,11,17.1,11,17,11z"/>
		<path class="st0" d="M17,13.4c-0.1,0-0.2-0.1-0.3-0.1c-0.1-0.2-0.1-0.4,0.1-0.6c0.1-0.1,2-1.6,3.6-2.2c1.5-0.5,3-0.5,3.1-0.5
			c0.2,0,0.4,0.2,0.4,0.4c0,0.2-0.2,0.4-0.4,0.4c0,0-1.4,0-2.8,0.5c-1.4,0.5-3.3,2-3.3,2C17.2,13.3,17.1,13.4,17,13.4z"/>
		<path class="st0" d="M17,15.7c-0.1,0-0.2-0.1-0.3-0.1c-0.1-0.2-0.1-0.4,0.1-0.6c0.1-0.1,2-1.6,3.6-2.2c1.5-0.5,3-0.5,3.1-0.5
			c0.2,0,0.4,0.2,0.4,0.4c0,0.2-0.2,0.4-0.4,0.4c0,0-1.4,0-2.8,0.5c-1.4,0.5-3.3,2-3.3,2C17.2,15.7,17.1,15.7,17,15.7z"/>
	</g>
</g>
</svg>
