<svg id="Capa_1" data-name="Capa 1" xmlns="http://www.w3.org/2000/svg" viewBox="0 0 400 400"><defs><style>.cls-1{fill:#006dd9;}</style></defs><path class="cls-1" d="M322,117.34V171.8a6.06,6.06,0,0,1-12.11,0V117.34a6.06,6.06,0,1,1,12.11,0Zm-1.72,69.27a6.2,6.2,0,0,1,0,8.57,6.06,6.06,0,1,1-8.56-8.57,6.21,6.21,0,0,1,8.56,0Z"/><path class="cls-1" d="M314.3,222.21a67.43,67.43,0,0,1-26.5-5.41,4.21,4.21,0,0,1-2.23-5.5,4.27,4.27,0,0,1,5.51-2.23,60.38,60.38,0,0,0,27.4,4.62,59.71,59.71,0,1,0-60.86-77.94,4.2,4.2,0,1,1-8-2.59A68.1,68.1,0,1,1,319,222.05C317.45,222.16,315.87,222.21,314.3,222.21Z"/><path class="cls-1" d="M151.87,200.53v2.76a14.69,14.69,0,0,1,4.51,1.1,9.09,9.09,0,0,1,3.31,2.54,10.25,10.25,0,0,1,1.7,2.67,6.22,6.22,0,0,1,.63,2.52,3,3,0,0,1-.91,2.21,3,3,0,0,1-2.18.94c-1.6,0-2.63-.9-3.11-2.69a5.73,5.73,0,0,0-3.93-4.23l0,10.6c2,.58,3.66,1.1,4.85,1.58a10.1,10.1,0,0,1,3.26,2.05,9.44,9.44,0,0,1,2.36,3.34,10.65,10.65,0,0,1,.84,4.28,11.42,11.42,0,0,1-1.31,5.42,10.51,10.51,0,0,1-3.85,4.16,13.85,13.85,0,0,1-6.08,1.94l0,6.34a5.88,5.88,0,0,1-.3,2.19,1.16,1.16,0,0,1-1.22.69,1.35,1.35,0,0,1-1.25-.57,3.13,3.13,0,0,1-.36-1.72l0-6.89a14.61,14.61,0,0,1-5-1.39,11.4,11.4,0,0,1-3.61-2.64,11.14,11.14,0,0,1-2.15-3.29,9.73,9.73,0,0,1-.7-3.38,3.22,3.22,0,0,1,.93-2.23,3,3,0,0,1,2.3-1,3.15,3.15,0,0,1,1.87.54,2.82,2.82,0,0,1,1.06,1.49,33.74,33.74,0,0,0,1.16,3.2,6.08,6.08,0,0,0,1.5,2,6.26,6.26,0,0,0,2.65,1.4l0-11.85a29.82,29.82,0,0,1-5.52-2.06,9.51,9.51,0,0,1-3.61-3.32A11.23,11.23,0,0,1,141,206.58c1.78-1.87,4.39-3,7.78-3.29v-2.71c0-1.42.49-2.13,1.54-2.13S151.86,199.14,151.87,200.53ZM148.79,218l0-9.77a8.68,8.68,0,0,0-3.23,1.71,4.11,4.11,0,0,0-1.15,3.16,3.86,3.86,0,0,0,1.12,3A9.5,9.5,0,0,0,148.79,218Zm3.15,7.57,0,11.16a6.69,6.69,0,0,0,3.83-2.08,5.29,5.29,0,0,0,1.35-3.62,4.39,4.39,0,0,0-1.33-3.43A10.39,10.39,0,0,0,151.94,225.59Z"/><path class="cls-1" d="M232.59,276.4H63.74a4.21,4.21,0,0,1-4.19-3.72l-.66-5.8A20.58,20.58,0,0,0,39,250.77a4.2,4.2,0,0,1-4.2-4.19V202.82a4.2,4.2,0,0,1,4.2-4.19A20,20,0,0,0,52.73,193a20.68,20.68,0,0,0,2.07-2.31l4.13,1.55-3.41-2.44a23.66,23.66,0,0,0,1.77-3.06,22.36,22.36,0,0,0,2.22-9.57,4.21,4.21,0,0,1,4.2-4.2H232.56a4.24,4.24,0,0,1,4.23,4.2,22.33,22.33,0,0,0,1.88,8.93,29.92,29.92,0,0,0,2.12,3.7l-2.59,3.48,3.31-2.59a20.59,20.59,0,0,0,2.06,2.31,20.11,20.11,0,0,0,13.77,5.62,4.2,4.2,0,0,1,4.19,4.19v43.76a4.2,4.2,0,0,1-4.19,4.19c-9.59,0-17.8,6.8-20,16.55l-.59,5.36A4.19,4.19,0,0,1,232.59,276.4ZM67.45,268H228.84l.25-2.08c2.8-12.57,12.37-21.5,24-23.24v-36a28.71,28.71,0,0,1-15.33-7.59h0a30.74,30.74,0,0,1-2.92-3.22c-.44-.55-.72-.89-1-1.27a28.85,28.85,0,0,1-2.42-4.19c0-.08-.49-.95-.52-1a30.25,30.25,0,0,1-2.27-8H67.61a30.1,30.1,0,0,1-2.31,8.11c0,.09-.46.91-.49,1a29.75,29.75,0,0,1-2.48,4.23c0,.08-.7.9-.77,1a31,31,0,0,1-3.06,3.42,28.74,28.74,0,0,1-15.34,7.59v36a29.17,29.17,0,0,1,24,22.8Z"/><path class="cls-1" d="M149.66,264.47a39.78,39.78,0,0,1-.39-79.56h.41a39.78,39.78,0,0,1,.39,79.56Zm0-71.17h-.32a31.39,31.39,0,0,0,.3,62.78H150a31.39,31.39,0,0,0-.29-62.78Z"/><path class="cls-1" d="M266.92,296.29H29.46a12,12,0,0,1-12-12V165.08a12,12,0,0,1,12-12H266.92a12,12,0,0,1,12,12V284.3A12,12,0,0,1,266.92,296.29ZM29.46,161.5a3.58,3.58,0,0,0-3.59,3.58V284.3a3.6,3.6,0,0,0,3.59,3.6H266.92a3.6,3.6,0,0,0,3.59-3.6V165.08a3.58,3.58,0,0,0-3.59-3.58Z"/></svg>