<?xml version="1.0" encoding="UTF-8" standalone="no"?>
<!-- Generator: Adobe Illustrator 24.0.0, SVG Export Plug-In . SVG Version: 6.00 Build 0)  -->

<svg
   xmlns:dc="http://purl.org/dc/elements/1.1/"
   xmlns:cc="http://creativecommons.org/ns#"
   xmlns:rdf="http://www.w3.org/1999/02/22-rdf-syntax-ns#"
   xmlns:svg="http://www.w3.org/2000/svg"
   xmlns="http://www.w3.org/2000/svg"
   xmlns:sodipodi="http://sodipodi.sourceforge.net/DTD/sodipodi-0.dtd"
   xmlns:inkscape="http://www.inkscape.org/namespaces/inkscape"
   version="1.1"
   id="Capa_1"
   x="0px"
   y="0px"
   viewBox="0 0 30 30"
   style="enable-background:new 0 0 30 30;"
   xml:space="preserve"
   sodipodi:docname="dashboard.svg"
   inkscape:version="0.92.5 (2060ec1f9f, 2020-04-08)"><metadata
   id="metadata27"><rdf:RDF><cc:Work
       rdf:about=""><dc:format>image/svg+xml</dc:format><dc:type
         rdf:resource="http://purl.org/dc/dcmitype/StillImage" /><dc:title></dc:title></cc:Work></rdf:RDF></metadata><defs
   id="defs25" /><sodipodi:namedview
   pagecolor="#dc3a20"
   bordercolor="#a96666"
   borderopacity="1"
   objecttolerance="10"
   gridtolerance="10"
   guidetolerance="10"
   inkscape:pageopacity="0"
   inkscape:pageshadow="2"
   inkscape:window-width="1920"
   inkscape:window-height="1017"
   id="namedview23"
   showgrid="false"
   inkscape:zoom="7.8666667"
   inkscape:cx="-21.101695"
   inkscape:cy="15"
   inkscape:window-x="-8"
   inkscape:window-y="-7"
   inkscape:window-maximized="1"
   inkscape:current-layer="Capa_1" />
<style
   type="text/css"
   id="style2">
	.st0{fill:#FFFFFF;}
	.st1{fill:#B2B2B2;}
	.st2{fill:#28C67A;}
	.st3{fill:#E53341;}
	.st4{fill:#EFEFA8;}
</style>
<g
   id="g20"
   style="fill:#ffffff">
	<path
   class="st1"
   d="M5.27,18.8c-0.2,0-0.37-0.16-0.37-0.37c0-0.2,0.16-0.37,0.37-0.37c7.14,0,13.39-2.9,17.59-8.18   c0.13-0.16,0.36-0.18,0.52-0.06c0.16,0.13,0.19,0.36,0.06,0.52C19.1,15.8,12.65,18.8,5.27,18.8z"
   id="path4"
   style="fill:#ffffff" />
	<path
   class="st1"
   d="M23.15,13.26c-0.2,0-0.37-0.16-0.37-0.37v-2.4H20.5c-0.2,0-0.37-0.16-0.37-0.37c0-0.2,0.16-0.37,0.37-0.37   h2.65c0.2,0,0.37,0.16,0.37,0.37v2.77C23.52,13.09,23.35,13.26,23.15,13.26z"
   id="path6"
   style="fill:#ffffff" />
	<path
   class="st1"
   d="M6.6,25.3c-0.2,0-0.37-0.16-0.37-0.37v-2.34c0-0.2,0.16-0.37,0.37-0.37c0.2,0,0.37,0.16,0.37,0.37v2.34   C6.97,25.14,6.8,25.3,6.6,25.3z"
   id="path8"
   style="fill:#ffffff" />
	<path
   class="st1"
   d="M11.89,25.3c-0.2,0-0.37-0.16-0.37-0.37v-3.73c0-0.2,0.16-0.37,0.37-0.37c0.2,0,0.37,0.16,0.37,0.37v3.73   C12.26,25.14,12.1,25.3,11.89,25.3z"
   id="path10"
   style="fill:#ffffff" />
	<path
   class="st1"
   d="M17.19,25.3c-0.2,0-0.37-0.16-0.37-0.37v-5.12c0-0.2,0.16-0.37,0.37-0.37s0.37,0.16,0.37,0.37v5.12   C17.56,25.14,17.4,25.3,17.19,25.3z"
   id="path12"
   style="fill:#ffffff" />
	<path
   class="st1"
   d="M21.83,25.3c-0.2,0-0.37-0.16-0.37-0.37v-6.5c0-0.2,0.16-0.37,0.37-0.37c0.2,0,0.37,0.16,0.37,0.37v6.5   C22.19,25.14,22.03,25.3,21.83,25.3z"
   id="path14"
   style="fill:#ffffff" />
	<path
   class="st1"
   d="M27.63,7.99H2.08c-0.2,0-0.37-0.16-0.37-0.37s0.16-0.37,0.37-0.37h25.55c0.2,0,0.37,0.16,0.37,0.37   S27.84,7.99,27.63,7.99z"
   id="path16"
   style="fill:#ffffff" />
	<path
   class="st1"
   d="M25.24,25.32H4.48c-1.52,0-2.76-1.18-2.76-2.63V6.11c0-1.45,1.24-2.63,2.76-2.63h20.76   c1.52,0,2.76,1.18,2.76,2.63v16.58C28,24.14,26.76,25.32,25.24,25.32z M4.48,4.22c-1.12,0-2.03,0.85-2.03,1.89v16.58   c0,1.04,0.91,1.89,2.03,1.89h20.76c1.12,0,2.03-0.85,2.03-1.89V6.11c0-1.04-0.91-1.89-2.03-1.89H4.48z"
   id="path18"
   style="fill:#ffffff" />
</g>
</svg>