<?xml version="1.0" encoding="utf-8"?>
<!-- Generator: Adobe Illustrator 24.3.0, SVG Export Plug-In . SVG Version: 6.00 Build 0)  -->
<svg version="1.1" id="Capa_1" xmlns="http://www.w3.org/2000/svg" xmlns:xlink="http://www.w3.org/1999/xlink" x="0px" y="0px"
	 viewBox="0 0 30 30" style="enable-background:new 0 0 30 30;" xml:space="preserve">
<style type="text/css">
	.st0{fill:#006dd9;}
</style>
<g>
	<path class="st0" d="M21.9,21.7h-2.8c-0.2,0-0.3-0.1-0.3-0.3s0.1-0.3,0.3-0.3h2.8c0.6,0,1.1-0.5,1.1-1.1v-13L17.9,2h-9
		C8.3,2,7.8,2.5,7.8,3v17c0,0.6,0.5,1.1,1.1,1.1h3.4c0.2,0,0.3,0.1,0.3,0.3s-0.1,0.3-0.3,0.3H8.9c-0.9,0-1.7-0.7-1.7-1.7V3
		c0-0.9,0.7-1.7,1.7-1.7h9.1c0.1,0,0.2,0,0.2,0.1l5.2,5.3c0.1,0.1,0.1,0.1,0.1,0.2v13.1C23.6,21,22.8,21.7,21.9,21.7z"/>
	<path class="st0" d="M23.3,7.9h-4.6c-0.9,0-1.6-0.7-1.6-1.6V1.7c0-0.2,0.1-0.3,0.3-0.3c0.2,0,0.6,0,0.6,0c0.1,0,0.2,0,0.2,0.1
		l5.2,5.2c0.1,0.1,0.1,0.1,0.1,0.2v0.7C23.6,7.8,23.5,7.9,23.3,7.9z M17.7,2v4.4c0,0.5,0.4,1,1,1H23V7L17.9,2C17.9,2,17.8,2,17.7,2z
		"/>
	<g>
		<g>
			<path class="st0" d="M14,12.3c0.1,0.1,0.1,0.3-0.1,0.4c-0.1,0-0.1,0.1-0.2,0.1c-0.1,0-0.2,0-0.2-0.1l-1.2-1.5l-1.2,1.5
				c-0.1,0.1-0.1,0.1-0.2,0.1c-0.1,0-0.1,0-0.2-0.1c-0.1-0.1-0.2-0.3-0.1-0.4l1.3-1.6l-1.3-1.6c-0.1-0.1-0.1-0.3,0.1-0.4
				c0.1-0.1,0.3-0.1,0.4,0.1l1.2,1.5l1.2-1.5c0.1-0.1,0.3-0.2,0.4-0.1c0.1,0.1,0.2,0.3,0.1,0.4l-1.3,1.6L14,12.3z"/>
			<path class="st0" d="M17.2,12.5c0,0.2-0.1,0.3-0.3,0.3h-2.1c0,0,0,0,0,0h0c-0.2,0-0.3-0.1-0.3-0.3V8.9c0-0.2,0.1-0.3,0.3-0.3
				c0.2,0,0.3,0.1,0.3,0.3v3.3h1.8C17,12.2,17.2,12.3,17.2,12.5z"/>
			<path class="st0" d="M19.7,11.6c0,0.7-0.5,1.2-1.2,1.2c-0.7,0-1.2-0.5-1.2-1.2c0-0.2,0.1-0.3,0.3-0.3c0.2,0,0.3,0.1,0.3,0.3
				c0,0.3,0.3,0.6,0.6,0.6s0.6-0.3,0.6-0.6c0-0.3-0.3-0.6-0.6-0.6c-0.7,0-1.2-0.5-1.2-1.2c0-0.7,0.5-1.2,1.2-1.2
				c0.7,0,1.2,0.5,1.2,1.2c0,0.2-0.1,0.3-0.3,0.3c-0.2,0-0.3-0.1-0.3-0.3c0-0.3-0.3-0.6-0.6-0.6s-0.6,0.3-0.6,0.6s0.3,0.6,0.6,0.6
				C19.2,10.4,19.7,10.9,19.7,11.6z"/>
		</g>
	</g>
	<path class="st0" d="M13.2,15h-2.7c-0.1,0-0.1-0.1-0.1-0.1v-1c0-0.1,0.1-0.1,0.1-0.1h2.7c0.1,0,0.1,0.1,0.1,0.1v1
		C13.3,14.9,13.2,15,13.2,15z M10.6,14.7H13V14h-2.4V14.7z"/>
	<path class="st0" d="M16.6,15h-2.7c-0.1,0-0.1-0.1-0.1-0.1v-1c0-0.1,0.1-0.1,0.1-0.1h2.7c0.1,0,0.1,0.1,0.1,0.1v1
		C16.7,14.9,16.6,15,16.6,15z M14,14.7h2.4V14H14V14.7z"/>
	<path class="st0" d="M19.9,15h-2.7c-0.1,0-0.1-0.1-0.1-0.1v-1c0-0.1,0.1-0.1,0.1-0.1h2.7c0.1,0,0.1,0.1,0.1,0.1v1
		C20.1,14.9,20,15,19.9,15z M17.4,14.7h2.4V14h-2.4V14.7z"/>
	<path class="st0" d="M13.2,16.5h-2.7c-0.1,0-0.1-0.1-0.1-0.1v-1c0-0.1,0.1-0.1,0.1-0.1h2.7c0.1,0,0.1,0.1,0.1,0.1v1
		C13.3,16.4,13.2,16.5,13.2,16.5z M10.6,16.2H13v-0.7h-2.4V16.2z"/>
	<path class="st0" d="M16.6,16.5h-2.7c-0.1,0-0.1-0.1-0.1-0.1v-1c0-0.1,0.1-0.1,0.1-0.1h2.7c0.1,0,0.1,0.1,0.1,0.1v1
		C16.7,16.4,16.6,16.5,16.6,16.5z M14,16.2h2.4v-0.7H14V16.2z"/>
	<path class="st0" d="M19.9,16.5h-2.7c-0.1,0-0.1-0.1-0.1-0.1v-1c0-0.1,0.1-0.1,0.1-0.1h2.7c0.1,0,0.1,0.1,0.1,0.1v1
		C20.1,16.4,20,16.5,19.9,16.5z M17.4,16.2h2.4v-0.7h-2.4V16.2z"/>
	<path class="st0" d="M13.2,18h-2.7c-0.1,0-0.1-0.1-0.1-0.1v-1c0-0.1,0.1-0.1,0.1-0.1h2.7c0.1,0,0.1,0.1,0.1,0.1v1
		C13.3,17.9,13.2,18,13.2,18z M10.6,17.7H13V17h-2.4V17.7z"/>
	<path class="st0" d="M16.6,18h-2.7c-0.1,0-0.1-0.1-0.1-0.1v-1c0-0.1,0.1-0.1,0.1-0.1h2.7c0.1,0,0.1,0.1,0.1,0.1v1
		C16.7,17.9,16.6,18,16.6,18z M14,17.7h2.4V17H14V17.7z"/>
	<path class="st0" d="M19.9,18h-2.7c-0.1,0-0.1-0.1-0.1-0.1v-1c0-0.1,0.1-0.1,0.1-0.1h2.7c0.1,0,0.1,0.1,0.1,0.1v1
		C20.1,17.9,20,18,19.9,18z M17.4,17.7h2.4V17h-2.4V17.7z"/>
	<path class="st0" d="M15.7,28.3c-0.1,0-0.2,0-0.2-0.1l-3.9-4.4c-0.1-0.1-0.1-0.2,0-0.3c0-0.1,0.2-0.2,0.3-0.2l1.7,0l0-3.9
		c0-0.2,0.1-0.3,0.3-0.3c0,0,0,0,0,0c0.2,0,0.3,0.1,0.3,0.3l0,4.2c0,0.1,0,0.2-0.1,0.2c-0.1,0.1-0.1,0.1-0.2,0.1l-1.4,0l3.3,3.7
		l3.2-3.7l-1.4,0c0,0,0,0,0,0c-0.1,0-0.1,0-0.2-0.1c-0.1-0.1-0.1-0.1-0.1-0.2l0-4.2c0-0.2,0.1-0.3,0.3-0.3c0,0,0,0,0,0
		c0.2,0,0.3,0.1,0.3,0.3l0,3.9l1.7,0c0.1,0,0.2,0.1,0.3,0.2c0,0.1,0,0.2,0,0.3l-3.9,4.4C15.8,28.2,15.8,28.3,15.7,28.3
		C15.7,28.3,15.7,28.3,15.7,28.3z"/>
</g>
</svg>
