<?xml version="1.0" encoding="utf-8"?>
<!-- Generator: Adobe Illustrator 24.3.0, SVG Export Plug-In . SVG Version: 6.00 Build 0)  -->
<svg version="1.1" id="Capa_1" xmlns="http://www.w3.org/2000/svg" xmlns:xlink="http://www.w3.org/1999/xlink" x="0px" y="0px"
	 viewBox="0 0 30 30" style="enable-background:new 0 0 30 30;" xml:space="preserve">
<style type="text/css">
	.st0{fill:#E43341;}
	.st1{fill:#EDEDA8;}
	.st2{fill:#FFFFFF;}
	.st3{fill:#4AB177;}
</style>
<g>
	<g id="XMLID_27971_">
		<path class="st2" d="M9.4,26H3.5c-0.5,0-0.9-0.4-0.9-0.9v-5.7c0-0.3,0.1-0.5,0.3-0.7l5.9-4.9c0.3-0.2,0.6-0.3,0.9-0.1
			c0.3,0.2,0.5,0.5,0.5,0.8v10.6C10.3,25.6,9.9,26,9.4,26z M9.4,14.4C9.4,14.4,9.4,14.4,9.4,14.4C9.4,14.4,9.4,14.4,9.4,14.4l-6,4.9
			c0,0,0,0.1,0,0.1v5.7c0,0.1,0.1,0.1,0.1,0.1h5.9c0.1,0,0.1-0.1,0.1-0.1V14.5C9.6,14.5,9.5,14.4,9.4,14.4
			C9.5,14.4,9.4,14.4,9.4,14.4z M9.1,14.1L9.1,14.1L9.1,14.1z"/>
		<path class="st2" d="M18,26h-5.9c-0.5,0-0.9-0.4-0.9-0.9V12.4c0-0.3,0.2-0.6,0.4-0.8l1.5-1c0.4-0.2,0.8-0.2,1.1,0.1l4.4,4.7
			c0.2,0.2,0.2,0.4,0.2,0.6v9C18.9,25.6,18.5,26,18,26z M13.6,11.3C13.6,11.3,13.6,11.3,13.6,11.3C13.6,11.3,13.6,11.3,13.6,11.3
			l-1.6,1c0,0-0.1,0.1-0.1,0.1v12.7c0,0.1,0.1,0.1,0.1,0.1H18c0.1,0,0.1-0.1,0.1-0.1v-9L13.6,11.3C13.7,11.3,13.7,11.3,13.6,11.3z
			 M13.4,10.9L13.4,10.9L13.4,10.9z"/>
		<path class="st2" d="M24.5,26h-3.9c-0.4,0-0.7-0.3-0.7-0.8v-8.9c0-0.2,0.1-0.4,0.2-0.5l3.9-4c0.2-0.2,0.5-0.3,0.8-0.2
			c0.3,0.1,0.5,0.4,0.5,0.7v12.9C25.2,25.7,24.9,26,24.5,26z M24.5,12.4l-3.8,3.9l0,8.9l3.9,0L24.5,12.4z"/>
		<path class="st2" d="M2.7,15.5c-0.1,0-0.2-0.1-0.3-0.2c-0.1-0.2-0.1-0.4,0.1-0.5L13.3,7c0.4-0.3,0.9-0.2,1.2,0.1l4.7,5
			c1.3-1,6.9-5.6,7.4-6c0,0,0,0,0.1-0.1c0.2-0.1,0.4-0.1,0.5,0.1c0.3,0.4,0.3,0.4-4.9,4.6c-0.8,0.6-1.5,1.2-2,1.6
			c-1.1,0.9-1.2,0.9-1.4,0.6L14,7.7c-0.1-0.1-0.2-0.1-0.2,0L2.9,15.4C2.8,15.4,2.8,15.5,2.7,15.5z"/>
	</g>
	<path class="st2" d="M27.9,5.4c-0.1-0.1-0.3-0.2-0.5-0.1l-1.4,0.3c-0.2,0-0.3,0.2-0.4,0.4c0,0.2,0.1,0.4,0.3,0.5l0.5,0.2l0.1,0.6
		c0.1,0.2,0.2,0.4,0.4,0.4c0,0,0,0,0,0c0.2,0,0.4-0.1,0.5-0.3L28,5.9C28.1,5.7,28,5.5,27.9,5.4z"/>
</g>
</svg>
