<?xml version="1.0" encoding="utf-8"?>
<!-- Generator: Adobe Illustrator 25.0.0, SVG Export Plug-In . SVG Version: 6.00 Build 0)  -->
<svg version="1.1" id="Capa_1" xmlns="http://www.w3.org/2000/svg" xmlns:xlink="http://www.w3.org/1999/xlink" x="0px" y="0px"
	 viewBox="0 0 600 600" style="enable-background:new 0 0 600 600;" xml:space="preserve">
<style type="text/css">
	.st0{fill:#FFFFFF;}
</style>
<g>
	<g id="XMLID_25_">
		<path class="st0" d="M166.3,544.5H29.6c-10.7,0-19.3-8.7-19.3-19.5V397.1c0-5.9,2.7-11.4,7.2-15.1L154,271.8l0,0
			c5.8-4.7,13.8-5.5,20.5-2.4c6.8,3.2,11,10,11,17.5V525C185.8,535.7,177,544.5,166.3,544.5z M163.8,283.7L27.2,393.9
			c-1,0.8-1.6,2-1.6,3.1v127.9c0,2.3,1.8,4.1,4.1,4.1h136.8c2.3,0,4.1-1.8,4.1-4.1V286.9c0-1.6-0.8-3-2.3-3.7
			C166.6,282.5,165,282.7,163.8,283.7z"/>
		<path class="st0" d="M364.9,544.5H228.3c-10.7,0-19.5-8.7-19.5-19.5V238.4c0-6.8,3.4-12.8,9.2-16.5l35.3-22l0,0
			c7.8-4.8,17.9-3.5,24.3,3.1L379,308.8c3.5,3.7,5.4,8.5,5.4,13.4V525C384.2,535.7,375.5,544.5,364.9,544.5z M261.1,212.8l-35.3,22
			c-1.1,0.7-2,2.1-2,3.5V525c0,2.3,1.8,4.1,4.1,4.1h136.6c2.3,0,4.1-1.8,4.1-4.1V322.2c0-1.1-0.4-2.1-1.1-2.8L266.4,213.5
			C265.1,212.1,262.8,211.8,261.1,212.8z"/>
		<path class="st0" d="M513.8,544.5h-89.6c-8.7,0-15.9-7.1-15.9-15.9V327.7c0-4.2,1.7-8.2,4.7-11.3l89.6-89.6l0,0
			c4.7-4.5,11.3-5.9,17.4-3.4c5.9,2.4,9.7,8.2,9.7,14.7v290.4C529.6,537.3,522.5,544.5,513.8,544.5z M507.8,232.2l5.4,5.4
			l-89.6,89.6l-0.1,201.2l90.2,0.6l0.6-291.1L507.8,232.2z"/>
		<path class="st0" d="M10.9,307c-2.4,0-4.8-1.1-6.4-3.2c-2.4-3.5-1.6-8.2,2-10.6L257,118.8c7.6-5.4,19.9-4,26.7,3.1L392,235.4
			c27.5-20.5,162-127.3,171.9-136.8c0.4-0.6,0.8-1,1.4-1.4c3.4-2.7,8.2-2.1,10.7,1.3c5.1,6.4,5.1,6.4-25.4,31
			c-14.8,12.1-35,28.2-55.9,44.7c-104.2,83-104.2,83-109.7,75.8L272.7,132.5c-1.6-1.6-5.4-2.3-6.8-1.1L15.3,305.5
			C14,306.5,12.5,307,10.9,307z"/>
	</g>
	<path class="st0" d="M592.8,81.6c-2.7-3-6.8-4.2-10.6-3.2L549.9,86c-4.7,1.1-8,5.1-8.5,9.9c-0.3,4.8,2.5,9.2,6.9,11l12,4.7
		l3.4,12.7c1.3,4.7,5.4,8,10.3,8.2c0.1,0,0.1,0,0.3,0c4.8,0,8.9-3.1,10.4-7.6l10.4-32.3C596.3,88.6,595.3,84.5,592.8,81.6z"/>
</g>
</svg>
