<?xml version="1.0" encoding="utf-8"?>
<!-- Generator: Adobe Illustrator 24.0.0, SVG Export Plug-In . SVG Version: 6.00 Build 0)  -->
<svg version="1.1" id="Capa_1" xmlns="http://www.w3.org/2000/svg" xmlns:xlink="http://www.w3.org/1999/xlink" x="0px" y="0px"
	 viewBox="0 0 30 30" style="enable-background:new 0 0 30 30;" xml:space="preserve">
<style type="text/css">
	.st0{fill:#B2B2B2;}
	.st1{fill:#FFFFFF;}
</style>
<g>
	<path class="st0" d="M28.12,21.19h-0.97c-0.44,0-0.85-0.26-1.04-0.65l-1.19-2.44c-0.05-0.09-0.14-0.15-0.25-0.15h-3.01
		c-0.64,0-1.16-0.52-1.16-1.16V8.94c0-0.64,0.52-1.16,1.16-1.16h3.77c0.43,0,0.82,0.23,1.02,0.61l2.68,5.03
		c0.09,0.17,0.14,0.36,0.14,0.55v6.06C29.28,20.67,28.76,21.19,28.12,21.19z M21.66,8.66c-0.15,0-0.28,0.12-0.28,0.28v7.85
		c0,0.15,0.12,0.28,0.28,0.28h3.01c0.44,0,0.85,0.26,1.04,0.65l1.19,2.44c0.05,0.09,0.14,0.15,0.25,0.15h0.97
		c0.15,0,0.28-0.12,0.28-0.28v-6.06c0-0.05-0.01-0.09-0.03-0.13l-2.68-5.03c-0.05-0.09-0.14-0.15-0.24-0.15H21.66z"/>
	<path class="st0" d="M26.33,13.2h-2.68c-0.64,0-1.16-0.52-1.16-1.16v-1.48c0-0.64,0.52-1.16,1.16-1.16h1.01
		c0.38,0,0.74,0.19,0.96,0.51l0.95,1.41c0.13,0.19,0.2,0.42,0.2,0.65v0.8C26.77,13,26.57,13.2,26.33,13.2z M23.65,10.28
		c-0.15,0-0.28,0.12-0.28,0.28v1.48c0,0.15,0.12,0.28,0.28,0.28h2.24v-0.36c0-0.05-0.02-0.11-0.05-0.15l-0.95-1.41
		c-0.05-0.07-0.14-0.12-0.23-0.12H23.65z"/>
	<path class="st0" d="M23.17,23.46c-1.27,0-2.31-1.04-2.31-2.31c0-1.27,1.04-2.31,2.31-2.31c1.27,0,2.31,1.04,2.31,2.31
		C25.48,22.42,24.44,23.46,23.17,23.46z M23.17,19.72c-0.79,0-1.43,0.64-1.43,1.43s0.64,1.43,1.43,1.43c0.79,0,1.43-0.64,1.43-1.43
		S23.95,19.72,23.17,19.72z"/>
	<path class="st0" d="M11.68,23.46c-1.28,0-2.31-1.04-2.31-2.31c0-1.27,1.04-2.31,2.31-2.31c1.27,0,2.31,1.04,2.31,2.31
		C13.99,22.42,12.95,23.46,11.68,23.46z M11.68,19.72c-0.79,0-1.43,0.64-1.43,1.43s0.64,1.43,1.43,1.43c0.79,0,1.43-0.64,1.43-1.43
		S12.46,19.72,11.68,19.72z"/>
	<path class="st0" d="M6.39,23.46c-1.28,0-2.31-1.04-2.31-2.31c0-1.27,1.04-2.31,2.31-2.31c1.27,0,2.31,1.04,2.31,2.31
		C8.7,22.42,7.66,23.46,6.39,23.46z M6.39,19.72c-0.79,0-1.43,0.64-1.43,1.43s0.64,1.43,1.43,1.43c0.79,0,1.43-0.64,1.43-1.43
		S7.17,19.72,6.39,19.72z"/>
	<path class="st0" d="M18.34,17.68H2.53c-0.64,0-1.16-0.52-1.16-1.16V5.35c0-0.64,0.52-1.16,1.16-1.16h21.98
		c0.64,0,1.16,0.52,1.16,1.16s-0.52,1.16-1.16,1.16h-4.74c-0.15,0-0.28,0.12-0.28,0.28v9.74C19.5,17.16,18.98,17.68,18.34,17.68z
		 M2.53,5.07c-0.15,0-0.28,0.12-0.28,0.28v11.18c0,0.15,0.12,0.28,0.28,0.28h15.81c0.15,0,0.28-0.12,0.28-0.28V6.78
		c0-0.64,0.52-1.16,1.16-1.16h4.74c0.15,0,0.28-0.12,0.28-0.28c0-0.15-0.12-0.28-0.28-0.28H2.53z"/>
	<path class="st0" d="M3.32,21.08H2.61c-0.64,0-1.16-0.52-1.16-1.16v-0.78c0-0.25,0.2-0.44,0.44-0.44s0.44,0.2,0.44,0.44v0.78
		c0,0.15,0.12,0.28,0.28,0.28h0.71c0.24,0,0.44,0.2,0.44,0.44S3.56,21.08,3.32,21.08z"/>
	<path class="st0" d="M20.41,21.01h-5.24c-0.24,0-0.44-0.2-0.44-0.44c0-0.25,0.2-0.44,0.44-0.44h5.24c0.24,0,0.44,0.2,0.44,0.44
		C20.86,20.81,20.66,21.01,20.41,21.01z"/>
</g>
</svg>
