<?xml version="1.0" encoding="utf-8"?>
<!-- Generator: Adobe Illustrator 24.0.0, SVG Export Plug-In . SVG Version: 6.00 Build 0)  -->
<svg version="1.1" id="Capa_1" xmlns="http://www.w3.org/2000/svg" xmlns:xlink="http://www.w3.org/1999/xlink" x="0px" y="0px"
	 viewBox="0 0 30 30" style="enable-background:new 0 0 30 30;" xml:space="preserve">
<style type="text/css">
	.st0{fill:#B2B2B2;}
	.st1{fill:#FFFFFF;}
</style>
<g>
	<path class="st0" d="M25.68,26.3c-0.59,0-1.36-0.01-2.35-0.05c-0.22-0.01-0.39-0.19-0.39-0.4V15.81H7.58v9.94
		c0,0.22-0.18,0.4-0.4,0.4H3.23c-0.22,0-0.4-0.18-0.4-0.4V13.63H1.89c-0.22,0-0.4-0.18-0.4-0.4v-4c0-0.15,0.08-0.29,0.22-0.36
		l13.45-6.93c0.12-0.06,0.25-0.06,0.37,0L29,8.86c0.13,0.07,0.22,0.21,0.22,0.36v4c0,0.22-0.18,0.4-0.4,0.4h-0.93v12.13
		c0,0.11-0.05,0.24-0.13,0.31C27.66,26.16,27.51,26.3,25.68,26.3z M27.42,25.8L27.42,25.8L27.42,25.8z M23.75,25.45
		c1.36,0.04,2.77,0.05,3.34,0V13.22c0-0.22,0.18-0.4,0.4-0.4h0.93V9.47L15.35,2.75L2.3,9.47v3.35h0.93c0.22,0,0.4,0.18,0.4,0.4
		v12.13h3.14v-9.94c0-0.22,0.18-0.4,0.4-0.4h16.16c0.22,0,0.4,0.18,0.4,0.4V25.45z"/>
	<path class="st0" d="M10.38,13.79H6.76c-0.22,0-0.4-0.18-0.4-0.4v-2.02c0-0.22,0.18-0.4,0.4-0.4h3.62c0.22,0,0.4,0.18,0.4,0.4v2.02
		C10.78,13.61,10.6,13.79,10.38,13.79z M7.16,12.98h2.81v-1.21H7.16V12.98z"/>
	<path class="st0" d="M14.91,13.79h-3.62c-0.22,0-0.4-0.18-0.4-0.4v-2.02c0-0.22,0.18-0.4,0.4-0.4h3.62c0.22,0,0.4,0.18,0.4,0.4
		v2.02C15.31,13.61,15.13,13.79,14.91,13.79z M11.69,12.98h2.81v-1.21h-2.81V12.98z"/>
	<path class="st0" d="M19.44,13.79h-3.62c-0.22,0-0.4-0.18-0.4-0.4v-2.02c0-0.22,0.18-0.4,0.4-0.4h3.62c0.22,0,0.4,0.18,0.4,0.4
		v2.02C19.85,13.61,19.66,13.79,19.44,13.79z M16.23,12.98h2.81v-1.21h-2.81V12.98z"/>
	<path class="st0" d="M23.97,13.79h-3.62c-0.22,0-0.4-0.18-0.4-0.4v-2.02c0-0.22,0.18-0.4,0.4-0.4h3.62c0.22,0,0.4,0.18,0.4,0.4
		v2.02C24.38,13.61,24.2,13.79,23.97,13.79z M20.76,12.98h2.81v-1.21h-2.81V12.98z"/>
	<path class="st0" d="M21.83,18.03H8.6c-0.22,0-0.4-0.18-0.4-0.4s0.18-0.4,0.4-0.4h13.22c0.22,0,0.4,0.18,0.4,0.4
		S22.05,18.03,21.83,18.03z"/>
	<path class="st0" d="M21.83,20.55H8.6c-0.22,0-0.4-0.18-0.4-0.4c0-0.22,0.18-0.4,0.4-0.4h13.22c0.22,0,0.4,0.18,0.4,0.4
		C22.23,20.37,22.05,20.55,21.83,20.55z"/>
	<path class="st0" d="M21.83,23.08H8.6c-0.22,0-0.4-0.18-0.4-0.4s0.18-0.4,0.4-0.4h13.22c0.22,0,0.4,0.18,0.4,0.4
		S22.05,23.08,21.83,23.08z"/>
	<path class="st0" d="M21.83,25.6H8.6c-0.22,0-0.4-0.18-0.4-0.4s0.18-0.4,0.4-0.4h13.22c0.22,0,0.4,0.18,0.4,0.4
		S22.05,25.6,21.83,25.6z"/>
</g>
</svg>
