<?xml version="1.0" encoding="utf-8"?>
<!-- Generator: Adobe Illustrator 24.0.0, SVG Export Plug-In . SVG Version: 6.00 Build 0)  -->
<svg version="1.1" id="Capa_1" xmlns="http://www.w3.org/2000/svg" xmlns:xlink="http://www.w3.org/1999/xlink" x="0px" y="0px"
	 viewBox="0 0 30 30" style="enable-background:new 0 0 30 30;" xml:space="preserve">
<style type="text/css">
	.st0{fill:#006dd9;}
</style>
<g>
	<path class="st0" d="M28.07,14.84c-1-0.47-1.8,0.22-2.1,0.69c-1.72,3.41-2.22,4.43-2.36,4.78c-0.14,0.08-0.54,0.26-0.88,0.4
		c-0.17,0.07-0.25,0.26-0.19,0.43c0.07,0.17,0.26,0.25,0.43,0.19c1.06-0.43,1.21-0.57,1.23-0.75c0.16-0.38,1.51-3.07,2.34-4.71
		c0.05-0.08,0.54-0.75,1.25-0.42c0.6,0.28,0.83,0.71,0.7,1.29c-0.08,0.31-1.58,3.6-2.54,5.67l-7.47,4.23
		c-0.01,0.01-1.4,0.46-3.43,0.61c-2.81,0.21-4.25-0.32-5.41-0.75C8.86,26.21,8.19,25.97,7.36,26H6.35v-6.49
		c0.42,0.04,1.46,0.11,2.88,0.06c0.9-0.03,1.42-0.26,1.93-0.49c0.56-0.25,1.09-0.49,2.2-0.45c1.98,0.06,2.78,1.24,2.81,1.29
		c0.06,0.1,0.17,0.15,0.28,0.15l4.17,0c0.14,0.02,0.85,0.16,0.78,1.13c-0.07,0.95-1.1,0.93-1.24,0.92l-6.79,0.06
		c-0.18,0-0.33,0.15-0.33,0.33c0,0.18,0.15,0.33,0.33,0.33c0,0,0,0,0,0l6.77-0.06c0.63,0.04,1.84-0.23,1.92-1.53
		c0.09-1.32-0.85-1.78-1.4-1.83h-4.05c-0.32-0.39-1.31-1.39-3.24-1.45c-1.26-0.03-1.92,0.26-2.49,0.51
		c-0.47,0.21-0.91,0.4-1.68,0.43c-1.45,0.05-2.51-0.03-2.86-0.06V18.6c0-0.62-0.51-1.13-1.13-1.13H2.4c-0.62,0-1.13,0.51-1.13,1.13
		v8.07c0,0.62,0.51,1.13,1.13,1.13h2.82c0.62,0,1.13-0.51,1.13-1.13v0h1.03c0.7-0.04,1.29,0.18,2.02,0.45
		c1.03,0.38,2.27,0.84,4.4,0.84c0.4,0,0.83-0.02,1.3-0.05c2.12-0.16,3.53-0.63,3.64-0.67l7.63-4.31c0.06-0.03,0.11-0.09,0.14-0.15
		c0.42-0.91,2.53-5.48,2.63-5.9C29.23,16.46,29.32,15.43,28.07,14.84z M5.68,26.67c0,0.26-0.21,0.47-0.47,0.47H2.4
		c-0.26,0-0.47-0.21-0.47-0.47V18.6c0-0.26,0.21-0.47,0.47-0.47h2.82c0.26,0,0.47,0.21,0.47,0.47V26.67z"/>
	<path class="st0" d="M15.27,9.8c1.29,0,2.47-0.66,3.14-1.76c0.35-0.57,0.54-1.23,0.54-1.91c0-2.02-1.65-3.67-3.67-3.67
		S11.6,4.1,11.6,6.13c0,0.67,0.19,1.34,0.53,1.91C12.81,9.14,13.98,9.8,15.27,9.8z M15.27,3.12c1.66,0,3.01,1.35,3.01,3.01
		c0,0.55-0.15,1.09-0.44,1.56c-0.55,0.9-1.51,1.44-2.57,1.44c-1.06,0-2.02-0.54-2.57-1.44c-0.29-0.47-0.44-1.01-0.44-1.56
		C12.26,4.47,13.61,3.12,15.27,3.12z"/>
	<path class="st0" d="M9.85,17.06c0.01,0,0.03,0,0.04,0c0.16,0,0.31-0.12,0.33-0.29c0.42-3.28,2.54-5.67,5.05-5.67
		s4.63,2.38,5.05,5.67c0.02,0.18,0.17,0.31,0.37,0.29c0.18-0.02,0.31-0.19,0.29-0.37c-0.46-3.62-2.86-6.25-5.71-6.25
		c-2.85,0-5.25,2.63-5.71,6.25C9.54,16.87,9.67,17.03,9.85,17.06z"/>
</g>
</svg>
