<?xml version="1.0" encoding="utf-8"?>
<!-- Generator: Adobe Illustrator 24.0.0, SVG Export Plug-In . SVG Version: 6.00 Build 0)  -->
<svg version="1.1" id="Capa_1" xmlns="http://www.w3.org/2000/svg" xmlns:xlink="http://www.w3.org/1999/xlink" x="0px" y="0px"
	 viewBox="0 0 30 30" style="enable-background:new 0 0 30 30;" xml:space="preserve">
<style type="text/css">
	.st0{fill:#B2B2B2;}
	.st1{fill:#FFFFFF;}
	.st2{fill:#28C67A;}
	.st3{fill:#E53341;}
	.st4{fill:#EFEFA8;}
</style>
<g>
	<path class="st0" d="M26.12,26H3.82c-1.04,0-1.89-0.85-1.89-1.89v-9.45c0-0.16,0.08-0.32,0.21-0.42c0.13-0.1,0.3-0.13,0.46-0.09
		c2.94,0.81,6.13,1.31,9.47,1.5c0.28,0.02,0.5,0.25,0.5,0.52v1.03c0,0.34,0.27,0.61,0.61,0.61h3.56c0.34,0,0.61-0.27,0.61-0.61
		v-1.03c0-0.28,0.22-0.51,0.5-0.52c3.35-0.19,6.53-0.7,9.47-1.5c0.16-0.04,0.33-0.01,0.46,0.09c0.13,0.1,0.21,0.25,0.21,0.42v9.5
		C27.96,25.17,27.13,26,26.12,26z M2.97,15.34v8.77c0,0.46,0.38,0.84,0.84,0.84h22.3c0.44,0,0.79-0.36,0.79-0.79v-8.82
		c-2.68,0.68-5.54,1.13-8.53,1.33v0.53c0,0.91-0.74,1.66-1.66,1.66h-3.56c-0.91,0-1.66-0.74-1.66-1.66v-0.53
		C8.52,16.47,5.65,16.02,2.97,15.34z"/>
	<path class="st0" d="M17.85,16.7c-0.28,0-0.51-0.22-0.52-0.5c-0.02-0.29,0.2-0.54,0.49-0.55c3.2-0.18,6.26-0.65,9.09-1.4V7.28
		c0-0.35-0.28-0.63-0.63-0.63H3.53c-0.31,0-0.56,0.25-0.56,0.56v7.05c2.83,0.74,5.89,1.21,9.09,1.4c0.29,0.02,0.51,0.26,0.49,0.55
		c-0.02,0.29-0.26,0.52-0.55,0.49c-3.42-0.19-6.68-0.71-9.69-1.53c-0.23-0.06-0.39-0.27-0.39-0.51V7.21c0-0.89,0.72-1.61,1.61-1.61
		h22.75c0.93,0,1.68,0.75,1.68,1.68v7.38c0,0.24-0.16,0.44-0.39,0.51c-3.01,0.82-6.27,1.34-9.69,1.53
		C17.87,16.7,17.86,16.7,17.85,16.7z"/>
	<path class="st0" d="M17.85,16.7c-0.29,0-0.52-0.24-0.52-0.52v-0.84c0-0.34-0.27-0.61-0.61-0.61h-3.56c-0.34,0-0.61,0.27-0.61,0.61
		v0.84c0,0.29-0.24,0.52-0.52,0.52c-0.29,0-0.52-0.24-0.52-0.52v-0.84c0-0.91,0.74-1.66,1.66-1.66h3.56c0.91,0,1.66,0.74,1.66,1.66
		v0.84C18.38,16.47,18.14,16.7,17.85,16.7z"/>
	<path class="st0" d="M21.92,6.59H7.96c-0.17,0-0.34-0.09-0.43-0.23c-0.1-0.14-0.12-0.33-0.05-0.49c0.86-2.17,2.29-3.27,4.25-3.27
		h6.13c2.05,0,3.75,1.22,4.56,3.27c0.06,0.16,0.04,0.34-0.05,0.49C22.26,6.5,22.1,6.59,21.92,6.59z M8.78,5.54h12.31
		c-0.72-1.21-1.86-1.89-3.24-1.89h-6.13C10.42,3.64,9.47,4.25,8.78,5.54z"/>
</g>
</svg>
