<?xml version="1.0" encoding="utf-8"?>
<!-- Generator: Adobe Illustrator 24.0.0, SVG Export Plug-In . SVG Version: 6.00 Build 0)  -->
<svg version="1.1" id="Capa_1" xmlns="http://www.w3.org/2000/svg" xmlns:xlink="http://www.w3.org/1999/xlink" x="0px" y="0px"
	 viewBox="0 0 30 30" style="enable-background:new 0 0 30 30;" xml:space="preserve">
<style type="text/css">
	.st0{fill:#FFFFFF;}
	.st1{fill:#B2B2B2;}
</style>
<path class="st1" d="M26.24,23.47H3.78c-1.08,0-1.95-0.88-1.95-1.95V6.17c0-1.08,0.88-1.95,1.95-1.95h22.46
	c1.08,0,1.95,0.88,1.95,1.95v15.35C28.19,22.59,27.32,23.47,26.24,23.47z M3.78,4.98c-0.66,0-1.19,0.53-1.19,1.19v15.35
	c0,0.66,0.53,1.19,1.19,1.19h22.46c0.66,0,1.19-0.53,1.19-1.19V6.17c0-0.66-0.53-1.19-1.19-1.19H3.78z"/>
<path class="st1" d="M22.16,10.73H7.41c-0.42,0-0.76-0.34-0.76-0.76c0-0.42,0.34-0.76,0.76-0.76h14.75c0.42,0,0.76,0.34,0.76,0.76
	C22.92,10.39,22.58,10.73,22.16,10.73z"/>
<path class="st1" d="M19.55,14.68H7.41c-0.42,0-0.76-0.34-0.76-0.76s0.34-0.76,0.76-0.76h12.15c0.42,0,0.76,0.34,0.76,0.76
	S19.98,14.68,19.55,14.68z"/>
<path class="st1" d="M15.6,18.66H7.41c-0.42,0-0.76-0.34-0.76-0.76s0.34-0.76,0.76-0.76h8.19c0.42,0,0.76,0.34,0.76,0.76
	S16.02,18.66,15.6,18.66z"/>
</svg>
