<?xml version="1.0" encoding="utf-8"?>
<!-- Generator: Adobe Illustrator 24.0.0, SVG Export Plug-In . SVG Version: 6.00 Build 0)  -->
<svg version="1.1" id="Capa_1" xmlns="http://www.w3.org/2000/svg" xmlns:xlink="http://www.w3.org/1999/xlink" x="0px" y="0px"
	 viewBox="0 0 30 30" style="enable-background:new 0 0 30 30;" xml:space="preserve">
<style type="text/css">
	.st0{fill:#FFFFFF;}
</style>
<path class="st0" d="M22.08,26.63H8.57c-0.26,0-0.47-0.21-0.47-0.47V15.19c-3.82,0.06-3.85,0.03-4.02-0.14
	c-0.08-0.08-0.13-0.13-2.52-5.34c-0.1-0.22-0.02-0.48,0.19-0.6l8.32-4.85c0.12-0.07,0.27-0.09,0.4-0.04
	c0.13,0.05,0.23,0.15,0.28,0.28c0.04,0.1,0.97,2.45,4.58,2.44c0.04,0,0.08,0,0.12,0c3.54,0,4.44-2.35,4.47-2.45
	c0.05-0.13,0.15-0.23,0.28-0.28c0.13-0.05,0.27-0.04,0.4,0.04l8.32,4.85c0.21,0.12,0.29,0.38,0.19,0.6
	c-2.4,5.21-2.44,5.26-2.52,5.33c-0.18,0.17-0.21,0.2-4.02,0.15v10.96C22.55,26.42,22.34,26.63,22.08,26.63z M9.04,25.69h12.58V14.72
	c0-0.13,0.05-0.25,0.14-0.34c0.09-0.09,0.19-0.12,0.34-0.13c1.55,0.02,3.28,0.04,3.87,0.02c0.25-0.54,1.3-2.83,2.1-4.56l-7.51-4.38
	c-0.51,0.87-1.91,2.57-5.1,2.57c-0.09,0-0.18,0-0.26,0c-3.18,0-4.58-1.7-5.09-2.57L2.58,9.71c0.77,1.68,1.79,3.87,2.12,4.56
	c0.61,0.02,2.32,0,3.85-0.02c0.16,0.03,0.25,0.05,0.34,0.13c0.09,0.09,0.14,0.21,0.14,0.34V25.69z"/>
</svg>
