<svg id="Capa_1" data-name="Capa 1" xmlns="http://www.w3.org/2000/svg" viewBox="0 0 30 30"><defs><style>.cls-1{fill:#fff;}</style></defs><title>ICONO RECURSOS HUMANOS 30X30</title><path class="cls-1" d="M14.67,15.2a6.88,6.88,0,0,1-5.91-3.32A6.92,6.92,0,1,1,21.59,8.29a6.92,6.92,0,0,1-6.92,6.91Zm0-12.7a5.79,5.79,0,1,0,5.79,5.79A5.79,5.79,0,0,0,14.67,2.5Z"/><path class="cls-1" d="M24.9,29H4.45A.57.57,0,0,1,4,28.81a.55.55,0,0,1-.13-.45c.87-6.84,5.41-11.81,10.78-11.81s9.92,5,10.79,11.81a.56.56,0,0,1-.14.45A.57.57,0,0,1,24.9,29ZM5.1,27.87H24.25c-1-5.94-4.94-10.19-9.58-10.19S6.08,21.93,5.1,27.87Z"/></svg>