<?xml version="1.0" encoding="utf-8"?>
<!-- Generator: Adobe Illustrator 24.3.0, SVG Export Plug-In . SVG Version: 6.00 Build 0)  -->
<svg version="1.1" id="Capa_1" xmlns="http://www.w3.org/2000/svg" xmlns:xlink="http://www.w3.org/1999/xlink" x="0px" y="0px"
	 viewBox="0 0 30 30" style="enable-background:new 0 0 30 30;" xml:space="preserve">
<style type="text/css">
	.st0{fill:#FFFFFF;}
	.st1{fill:#E43341;}
	.st2{fill:#EDEDA8;}
	.st3{fill:#4AB177;}
</style>
<g>
	<path class="st0" d="M23.9,24.9c-0.5,0-1.1,0-2,0c-0.2,0-0.3-0.1-0.3-0.3v-8.6H8.4v8.5c0,0.2-0.1,0.3-0.3,0.3H4.7
		c-0.2,0-0.3-0.1-0.3-0.3V14H3.6c-0.2,0-0.3-0.1-0.3-0.3v-3.4c0-0.1,0.1-0.2,0.2-0.3l11.5-5.9c0.1,0,0.2,0,0.3,0L26.7,10
		c0.1,0.1,0.2,0.2,0.2,0.3v3.4c0,0.2-0.1,0.3-0.3,0.3h-0.8v10.4c0,0.1,0,0.2-0.1,0.2C25.6,24.7,25.4,24.9,23.9,24.9z M25.4,24.5
		L25.4,24.5L25.4,24.5z M22.2,24.2c1.2,0,2.4,0,2.9,0V13.7c0-0.2,0.1-0.3,0.3-0.3h0.8v-2.9L15.1,4.8L3.9,10.5v2.9h0.8
		c0.2,0,0.3,0.1,0.3,0.3v10.4h2.7v-8.5c0-0.2,0.1-0.3,0.3-0.3h13.8c0.2,0,0.3,0.1,0.3,0.3V24.2z"/>
	<path class="st0" d="M10.8,14.2H7.7c-0.2,0-0.3-0.1-0.3-0.3v-1.7c0-0.2,0.1-0.3,0.3-0.3h3.1c0.2,0,0.3,0.1,0.3,0.3v1.7
		C11.1,14,11,14.2,10.8,14.2z M8.1,13.5h2.4v-1.1H8.1V13.5z"/>
	<path class="st0" d="M14.7,14.2h-3.1c-0.2,0-0.3-0.1-0.3-0.3v-1.7c0-0.2,0.1-0.3,0.3-0.3h3.1c0.2,0,0.3,0.1,0.3,0.3v1.7
		C15,14,14.9,14.2,14.7,14.2z M11.9,13.5h2.4v-1.1h-2.4V13.5z"/>
	<path class="st0" d="M18.6,14.2h-3.1c-0.2,0-0.3-0.1-0.3-0.3v-1.7c0-0.2,0.1-0.3,0.3-0.3h3.1c0.2,0,0.3,0.1,0.3,0.3v1.7
		C18.9,14,18.7,14.2,18.6,14.2z M15.8,13.5h2.4v-1.1h-2.4V13.5z"/>
	<path class="st0" d="M22.4,14.2h-3.1c-0.2,0-0.3-0.1-0.3-0.3v-1.7c0-0.2,0.1-0.3,0.3-0.3h3.1c0.2,0,0.3,0.1,0.3,0.3v1.7
		C22.7,14,22.6,14.2,22.4,14.2z M19.7,13.5h2.4v-1.1h-2.4V13.5z"/>
	<path class="st0" d="M20.6,17.8H9.3c-0.2,0-0.3-0.1-0.3-0.3c0-0.2,0.1-0.3,0.3-0.3h11.3c0.2,0,0.3,0.1,0.3,0.3
		C20.9,17.7,20.8,17.8,20.6,17.8z"/>
	<path class="st0" d="M20.6,20H9.3C9.1,20,9,19.8,9,19.6c0-0.2,0.1-0.3,0.3-0.3h11.3c0.2,0,0.3,0.1,0.3,0.3
		C20.9,19.8,20.8,20,20.6,20z"/>
	<path class="st0" d="M20.6,22.1H9.3C9.1,22.1,9,22,9,21.8c0-0.2,0.1-0.3,0.3-0.3h11.3c0.2,0,0.3,0.1,0.3,0.3
		C20.9,22,20.8,22.1,20.6,22.1z"/>
	<path class="st0" d="M20.6,24.3H9.3c-0.2,0-0.3-0.1-0.3-0.3c0-0.2,0.1-0.3,0.3-0.3h11.3c0.2,0,0.3,0.1,0.3,0.3
		C20.9,24.1,20.8,24.3,20.6,24.3z"/>
</g>
</svg>
