<?xml version="1.0" encoding="utf-8"?>
<!-- Generator: Adobe Illustrator 24.0.0, SVG Export Plug-In . SVG Version: 6.00 Build 0)  -->
<svg version="1.1" id="Capa_1" xmlns="http://www.w3.org/2000/svg" xmlns:xlink="http://www.w3.org/1999/xlink" x="0px" y="0px"
	 viewBox="0 0 30 30" style="enable-background:new 0 0 30 30;" xml:space="preserve">
<style type="text/css">
	.st0{fill:#FFFFFF;}
</style>
<g>
	<path class="st0" d="M25.64,27.51c-0.6,0-1.38-0.01-2.39-0.05c-0.21-0.01-0.37-0.18-0.37-0.38v-10.3H7.11v10.2
		c0,0.21-0.17,0.38-0.38,0.38H2.68c-0.21,0-0.38-0.17-0.38-0.38V14.54H1.32c-0.21,0-0.38-0.17-0.38-0.38v-4.09
		c0-0.14,0.08-0.27,0.21-0.34l13.76-7.09c0.11-0.06,0.24-0.06,0.35,0l13.79,7.09c0.13,0.07,0.21,0.2,0.21,0.34v4.09
		c0,0.21-0.17,0.38-0.38,0.38h-0.98v12.44c0,0.1-0.05,0.22-0.13,0.3C27.67,27.36,27.52,27.51,25.64,27.51z M27.44,27.03L27.44,27.03
		L27.44,27.03z M23.65,26.7c1.42,0.05,2.91,0.05,3.48-0.01V14.16c0-0.21,0.17-0.38,0.38-0.38h0.98V10.3l-13.4-6.9L1.7,10.3v3.48
		h0.98c0.21,0,0.38,0.17,0.38,0.38v12.44h3.28v-10.2c0-0.21,0.17-0.38,0.38-0.38h16.54c0.21,0,0.38,0.17,0.38,0.38V26.7z"/>
	<path class="st0" d="M10,14.71H6.3c-0.21,0-0.38-0.17-0.38-0.38v-2.07c0-0.21,0.17-0.38,0.38-0.38H10c0.21,0,0.38,0.17,0.38,0.38
		v2.07C10.38,14.53,10.21,14.71,10,14.71z M6.68,13.94h2.94v-1.3H6.68V13.94z"/>
	<path class="st0" d="M14.64,14.71h-3.7c-0.21,0-0.38-0.17-0.38-0.38v-2.07c0-0.21,0.17-0.38,0.38-0.38h3.7
		c0.21,0,0.38,0.17,0.38,0.38v2.07C15.02,14.53,14.85,14.71,14.64,14.71z M11.32,13.94h2.94v-1.3h-2.94V13.94z"/>
	<path class="st0" d="M19.27,14.71h-3.7c-0.21,0-0.38-0.17-0.38-0.38v-2.07c0-0.21,0.17-0.38,0.38-0.38h3.7
		c0.21,0,0.38,0.17,0.38,0.38v2.07C19.66,14.53,19.48,14.71,19.27,14.71z M15.95,13.94h2.94v-1.3h-2.94V13.94z"/>
	<path class="st0" d="M23.91,14.71h-3.7c-0.21,0-0.38-0.17-0.38-0.38v-2.07c0-0.21,0.17-0.38,0.38-0.38h3.7
		c0.21,0,0.38,0.17,0.38,0.38v2.07C24.29,14.53,24.12,14.71,23.91,14.71z M20.59,13.94h2.94v-1.3h-2.94V13.94z"/>
	<path class="st0" d="M21.72,19.04H8.18c-0.21,0-0.38-0.17-0.38-0.38c0-0.21,0.17-0.38,0.38-0.38h13.53c0.21,0,0.38,0.17,0.38,0.38
		C22.1,18.87,21.93,19.04,21.72,19.04z"/>
	<path class="st0" d="M21.72,21.63H8.18c-0.21,0-0.38-0.17-0.38-0.38c0-0.21,0.17-0.38,0.38-0.38h13.53c0.21,0,0.38,0.17,0.38,0.38
		C22.1,21.45,21.93,21.63,21.72,21.63z"/>
	<path class="st0" d="M21.72,24.21H8.18c-0.21,0-0.38-0.17-0.38-0.38c0-0.21,0.17-0.38,0.38-0.38h13.53c0.21,0,0.38,0.17,0.38,0.38
		C22.1,24.04,21.93,24.21,21.72,24.21z"/>
	<path class="st0" d="M21.72,26.79H8.18c-0.21,0-0.38-0.17-0.38-0.38c0-0.21,0.17-0.38,0.38-0.38h13.53c0.21,0,0.38,0.17,0.38,0.38
		C22.1,26.62,21.93,26.79,21.72,26.79z"/>
</g>
</svg>
