<?xml version="1.0" encoding="utf-8"?>
<!-- Generator: Adobe Illustrator 24.3.0, SVG Export Plug-In . SVG Version: 6.00 Build 0)  -->
<svg version="1.1" id="Capa_1" xmlns="http://www.w3.org/2000/svg" xmlns:xlink="http://www.w3.org/1999/xlink" x="0px" y="0px"
	 viewBox="0 0 30 30" style="enable-background:new 0 0 30 30;" xml:space="preserve">
<style type="text/css">
	.st0{fill:#E43341;}
	.st1{fill:#EDEDA8;}
	.st2{fill:#FFFFFF;}
	.st3{fill:#4AB177;}
</style>
<g>
	<g>
		<g>
			<path class="st2" d="M20.6,22.9c-3.7,0-6.7-3-6.7-6.7s3-6.7,6.7-6.7s6.7,3,6.7,6.7S24.3,22.9,20.6,22.9z M20.6,10.1
				c-3.3,0-6,2.7-6,6c0,3.3,2.7,6,6,6s6-2.7,6-6C26.6,12.8,23.9,10.1,20.6,10.1z"/>
		</g>
		<path class="st2" d="M23.1,18.7c-0.1,0-0.2,0-0.2-0.1l-2.6-2.2c-0.1-0.1-0.1-0.2-0.1-0.3v-3.6c0-0.2,0.2-0.3,0.3-0.3
			c0.2,0,0.3,0.2,0.3,0.3V16l2.4,2.1c0.1,0.1,0.2,0.3,0,0.5C23.3,18.7,23.2,18.7,23.1,18.7z"/>
	</g>
	<g>
		<path class="st2" d="M9.6,22.9c-3.7,0-6.7-3-6.7-6.7s3-6.7,6.7-6.7c1.7,0,3.4,0.7,4.6,1.8c0.1,0.1,0.1,0.3,0,0.5
			c-0.1,0.1-0.3,0.1-0.5,0c-1.1-1.1-2.6-1.7-4.2-1.7c-3.3,0-6,2.7-6,6c0,3.3,2.7,6,6,6c1.6,0,3.1-0.6,4.3-1.8c0.1-0.1,0.3-0.1,0.5,0
			c0.1,0.1,0.1,0.3,0,0.5C13.1,22.2,11.4,22.9,9.6,22.9z"/>
	</g>
	<path class="st2" d="M22.2,8.7h-3.6c-0.2,0-0.3-0.2-0.3-0.3c0-0.2,0.2-0.3,0.3-0.3h3.6c0.2,0,0.3,0.2,0.3,0.3
		C22.5,8.5,22.4,8.7,22.2,8.7z"/>
	<path class="st2" d="M24.3,11c-0.1,0-0.1,0-0.2,0c-0.2-0.1-0.2-0.3-0.1-0.5l0.5-0.9c0.1-0.2,0.3-0.2,0.5-0.1
		c0.2,0.1,0.2,0.3,0.1,0.5l-0.5,0.9C24.6,10.9,24.5,11,24.3,11z"/>
	<path class="st2" d="M8.4,19.5c-0.1,0-0.2,0-0.3-0.1l-2.6-2.9c-0.1-0.1-0.1-0.4,0-0.5c0.1-0.1,0.4-0.1,0.5,0l2.2,2.5
		c0.5-1.2,1.9-4.1,4.1-6.5c0.1-0.1,0.3-0.1,0.5,0c0.1,0.1,0.1,0.3,0,0.5c-2.7,2.9-4.2,6.7-4.2,6.8C8.7,19.4,8.6,19.4,8.4,19.5
		C8.5,19.5,8.4,19.5,8.4,19.5z"/>
</g>
</svg>
