<?xml version="1.0" encoding="utf-8"?>
<!-- Generator: Adobe Illustrator 24.3.0, SVG Export Plug-In . SVG Version: 6.00 Build 0)  -->
<svg version="1.1" id="Capa_1" xmlns="http://www.w3.org/2000/svg" xmlns:xlink="http://www.w3.org/1999/xlink" x="0px" y="0px"
	 viewBox="0 0 30 30" style="enable-background:new 0 0 30 30;" xml:space="preserve">
<style type="text/css">
	.st0{fill:#006dd9;}
</style>
<g>
	<g>
		<g>
			<path class="st0" d="M19.5,21.4c-3.1,0-5.6-2.5-5.6-5.6s2.5-5.6,5.6-5.6s5.6,2.5,5.6,5.6S22.6,21.4,19.5,21.4z M19.5,10.8
				c-2.8,0-5,2.3-5,5c0,2.8,2.3,5,5,5s5-2.3,5-5C24.6,13,22.3,10.8,19.5,10.8z"/>
		</g>
		<path class="st0" d="M21.7,17.9c-0.1,0-0.1,0-0.2-0.1L19.4,16c-0.1-0.1-0.1-0.1-0.1-0.2v-3c0-0.2,0.1-0.3,0.3-0.3s0.3,0.1,0.3,0.3
			v2.9l2,1.8c0.1,0.1,0.1,0.3,0,0.4C21.8,17.9,21.7,17.9,21.7,17.9z"/>
	</g>
	<g>
		<path class="st0" d="M10.4,21.4c-3.1,0-5.6-2.5-5.6-5.6s2.5-5.6,5.6-5.6c1.4,0,2.8,0.5,3.8,1.5c0.1,0.1,0.1,0.3,0,0.4
			c-0.1,0.1-0.3,0.1-0.4,0c-0.9-0.9-2.2-1.4-3.5-1.4c-2.8,0-5,2.3-5,5c0,2.8,2.3,5,5,5c1.3,0,2.6-0.5,3.6-1.5c0.1-0.1,0.3-0.1,0.4,0
			c0.1,0.1,0.1,0.3,0,0.4C13.3,20.8,11.9,21.4,10.4,21.4z"/>
	</g>
	<path class="st0" d="M20.9,9.6h-3c-0.2,0-0.3-0.1-0.3-0.3S17.7,9,17.8,9h3c0.2,0,0.3,0.1,0.3,0.3S21,9.6,20.9,9.6z"/>
	<path class="st0" d="M22.7,11.5c0,0-0.1,0-0.1,0c-0.1-0.1-0.2-0.2-0.1-0.4l0.4-0.7c0.1-0.1,0.2-0.2,0.4-0.1
		c0.1,0.1,0.2,0.2,0.1,0.4l-0.4,0.7C22.9,11.4,22.8,11.5,22.7,11.5z"/>
	<path class="st0" d="M9.4,18.5c-0.1,0-0.2,0-0.2-0.1L7.1,16c-0.1-0.1-0.1-0.3,0-0.4c0.1-0.1,0.3-0.1,0.4,0l1.8,2.1
		c0.4-1,1.6-3.4,3.4-5.4c0.1-0.1,0.3-0.1,0.4,0c0.1,0.1,0.1,0.3,0,0.4c-2.3,2.4-3.5,5.6-3.5,5.6C9.7,18.5,9.6,18.5,9.4,18.5
		C9.5,18.5,9.4,18.5,9.4,18.5z"/>
</g>
</svg>
