<?xml version="1.0" encoding="utf-8"?>
<!-- Generator: Adobe Illustrator 24.3.0, SVG Export Plug-In . SVG Version: 6.00 Build 0)  -->
<svg version="1.1" id="Capa_1" xmlns="http://www.w3.org/2000/svg" xmlns:xlink="http://www.w3.org/1999/xlink" x="0px" y="0px"
	 viewBox="0 0 30 30" style="enable-background:new 0 0 30 30;" xml:space="preserve">
<style type="text/css">
	.st0{fill:#E43341;}
	.st1{fill:#EDEDA8;}
	.st2{fill:#FFFFFF;}
	.st3{fill:#4AB177;}
</style>
<g>
	<g>
		<path class="st2" d="M15,16.9c-2,0-3.9-1-4.9-2.8c-0.5-0.9-0.8-1.9-0.8-3c0-0.2,0.2-0.4,0.4-0.4c0.2,0,0.4,0.2,0.4,0.4
			c0,0.9,0.2,1.8,0.7,2.5c0.9,1.5,2.4,2.3,4.1,2.3s3.3-0.9,4.1-2.3c0.5-0.8,0.7-1.6,0.7-2.5c0-0.2,0.2-0.4,0.4-0.4
			c0.2,0,0.4,0.2,0.4,0.4c0,1.1-0.3,2.1-0.8,3C18.8,15.9,17,16.9,15,16.9z"/>
		<path class="st2" d="M23.5,28.5H6.4c-0.1,0-0.3-0.1-0.3-0.2C6,28.2,6,28.1,6,27.9c0.7-5.7,4.5-9.9,9-9.9s8.3,4.1,9,9.9
			c0,0.1,0,0.3-0.1,0.4C23.8,28.4,23.7,28.5,23.5,28.5z M7,27.6h16c-0.8-5-4.1-8.6-8-8.6S7.8,22.6,7,27.6z"/>
	</g>
	<g>
		<path class="st2" d="M21.3,10.9H8.7c-0.4,0-0.7-0.3-0.7-0.7V8.7C8,8.3,8.3,8,8.7,8h12.6C21.7,8,22,8.3,22,8.7v1.4
			C22,10.6,21.7,10.9,21.3,10.9z M8.9,10h12.2V8.9H8.9V10z"/>
		<path class="st2" d="M21.1,8.9C21.1,8.9,21.1,8.9,21.1,8.9c-0.3,0-0.5-0.3-0.4-0.5c0,0,0.2-1.2-0.2-2.3c-0.8-2.2-2.5-3.2-3-3.4
			c-0.2-0.1-0.3-0.4-0.2-0.6c0.1-0.2,0.4-0.3,0.6-0.2c0.6,0.3,2.5,1.4,3.5,3.9c0.5,1.4,0.3,2.7,0.3,2.7C21.5,8.7,21.4,8.9,21.1,8.9z
			"/>
		<path class="st2" d="M8.9,8.9c-0.2,0-0.4-0.2-0.4-0.4c0-0.1-0.2-1.4,0.3-2.7c0.8-2.2,2.7-3.8,3.9-4.1c0.2-0.1,0.5,0.1,0.6,0.3
			c0.1,0.2-0.1,0.5-0.3,0.6c-0.8,0.2-2.5,1.5-3.3,3.6C9.2,7.2,9.3,8.4,9.3,8.4C9.4,8.6,9.2,8.8,8.9,8.9C8.9,8.9,8.9,8.9,8.9,8.9z"/>
		<path class="st2" d="M16.8,6.9C16.7,6.9,16.7,6.9,16.8,6.9c-0.3-0.1-0.5-0.3-0.4-0.5c0.4-1.8,0.8-3.8,0.8-4.4
			c-0.2-0.1-0.9-0.3-2.1-0.3l-0.2,0c-0.9,0-1.4,0.2-1.6,0.3c0.1,0.6,0.4,2.6,0.8,4.4c0.1,0.2-0.1,0.5-0.3,0.5
			c-0.2,0.1-0.5-0.1-0.5-0.3c-1-4.7-0.9-4.9-0.8-5c0.3-0.6,1.8-0.7,2.4-0.7l0.3,0c0,0,0,0,0,0c1.2,0,2.6,0.2,3,0.7
			c0.1,0.2,0.2,0.4-0.8,5C17.2,6.8,17,6.9,16.8,6.9z"/>
	</g>
</g>
</svg>
