<?xml version="1.0" encoding="utf-8"?>
<!-- Generator: Adobe Illustrator 25.0.0, SVG Export Plug-In . SVG Version: 6.00 Build 0)  -->
<svg version="1.1" id="Capa_1" xmlns="http://www.w3.org/2000/svg" xmlns:xlink="http://www.w3.org/1999/xlink" x="0px" y="0px"
	 viewBox="0 0 600 600" style="enable-background:new 0 0 600 600;" xml:space="preserve">
<style type="text/css">
	.st0{fill:#FFFFFF;}
</style>
<g>
	<path class="st0" d="M452,558H144.8c-38.5,0-69.9-32.9-69.9-73.2l-0.4-184.2c-9.7-14.1-15-31.4-15-48.9v-45.8
		c0-8.7,1.8-15.7,6.1-23.6L141,42.8c7.3-13.5,16.2-16.3,27.3-16.3h260.3c11.1,0,20,2.8,27.3,16.3l0,0l75,138.9
		c5.6,10.3,6.4,15.4,6.4,27.3v42.7c0,17.5-5.3,34.8-15,48.9l-0.4,184.3C521.9,525.2,490.5,558,452,558z M168.3,44.5
		c-7.4,0-9.6,1.2-12.8,7.3L80.1,191.4c-2.7,5.1-3.8,9.1-3.8,14.5v45.8c0,14.5,4.7,28.8,13.2,40.2c1.2,1.6,1.8,3.6,1.8,5.6l0.4,187.3
		c0,30.5,23.8,55.2,53.1,55.2H452c29.3,0,53.1-24.8,53.1-55.2l0.4-187.3c0-2,0.7-4,1.8-5.6c8.5-11.4,13.2-25.7,13.2-40.2V209
		c0-9.2-0.3-11-4.2-18.2l-75-138.9c-3.3-6.1-5.5-7.3-12.8-7.3H168.3V44.5z"/>
	<path class="st0" d="M510.3,304.6H79.7c-4.6,0-8.4-4-8.4-9s3.7-9,8.4-9h430.6c4.6,0,8.4,4,8.4,9S514.9,304.6,510.3,304.6z"/>
	<path class="st0" d="M467.4,199.7H112.8c-4.6,0-8.4-4-8.4-9s3.7-9,8.4-9h354.6c4.6,0,8.4,4,8.4,9
		C475.8,195.7,472.1,199.7,467.4,199.7z"/>
	<path class="st0" d="M299.9,556.2H183c-4.6,0-8.4-4-8.4-9V371.1c0-5,3.7-9,8.4-9h116.9c4.6,0,8.4,4,8.4,9v176.2
		C308.2,552.2,304.5,556.2,299.9,556.2z M191.3,538.2h100.2V380.1H191.3V538.2z"/>
	<path class="st0" d="M441.1,472.3h-89.6c-4.6,0-8.4-4-8.4-9v-96.5c0-5,3.7-9,8.4-9h89.6c4.6,0,8.4,4,8.4,9v96.5
		C449.5,468.3,445.8,472.3,441.1,472.3z M359.9,454.3h72.9v-78.4h-72.9V454.3z"/>
</g>
</svg>
