<?xml version="1.0" encoding="utf-8"?>
<!-- Generator: Adobe Illustrator 24.0.0, SVG Export Plug-In . SVG Version: 6.00 Build 0)  -->
<svg version="1.1" id="Capa_1" xmlns="http://www.w3.org/2000/svg" xmlns:xlink="http://www.w3.org/1999/xlink" x="0px" y="0px"
	 viewBox="0 0 30 30" style="enable-background:new 0 0 30 30;" xml:space="preserve">
<style type="text/css">
	.st0{fill:#006dd9;}
</style>
<g>
	<g>
		<path class="st0" d="M13.85,14.66c-2.51,0-4.79-1.28-6.1-3.43c-0.68-1.12-1.04-2.4-1.04-3.71c0-3.94,3.2-7.14,7.14-7.14
			s7.14,3.2,7.14,7.14c0,1.31-0.36,2.6-1.04,3.71C18.64,13.38,16.36,14.66,13.85,14.66z M13.85,1.16c-3.51,0-6.36,2.85-6.36,6.36
			c0,1.17,0.32,2.31,0.92,3.31c1.17,1.91,3.2,3.05,5.43,3.05c2.24,0,4.27-1.14,5.43-3.05c0.61-0.99,0.93-2.14,0.93-3.31
			C20.21,4.01,17.36,1.16,13.85,1.16z"/>
		<path class="st0" d="M24.72,29.33H2.98c-0.11,0-0.22-0.05-0.29-0.13c-0.07-0.08-0.11-0.2-0.09-0.31
			c0.91-7.17,5.65-12.38,11.26-12.38c2.65,0,5.23,1.2,7.27,3.39c0.15,0.16,0.14,0.41-0.02,0.55c-0.16,0.15-0.41,0.14-0.55-0.02
			c-1.89-2.02-4.26-3.14-6.69-3.14c-5.1,0-9.43,4.71-10.42,11.25h20.84c-0.18-1.19-0.48-2.35-0.9-3.45c-0.07-0.2,0.03-0.43,0.23-0.5
			c0.2-0.08,0.43,0.03,0.5,0.23c0.48,1.29,0.82,2.66,1,4.07c0.01,0.11-0.02,0.22-0.09,0.31C24.94,29.28,24.84,29.33,24.72,29.33z"/>
	</g>
	<path class="st0" d="M20.17,26.99c-0.11,0-0.22-0.05-0.29-0.13l-3.21-3.64c-0.14-0.16-0.13-0.41,0.03-0.55
		c0.16-0.14,0.41-0.13,0.55,0.04l2.8,3.17c0.68-1.61,2.81-6.09,6.36-9.29c0.16-0.15,0.41-0.13,0.55,0.03
		c0.15,0.16,0.13,0.41-0.03,0.55c-4.16,3.75-6.37,9.52-6.4,9.58c-0.05,0.13-0.16,0.22-0.29,0.25
		C20.22,26.99,20.19,26.99,20.17,26.99z"/>
</g>
</svg>
