<?xml version="1.0" encoding="utf-8"?>
<!-- Generator: Adobe Illustrator 24.3.0, SVG Export Plug-In . SVG Version: 6.00 Build 0)  -->
<svg version="1.1" id="Capa_1" xmlns="http://www.w3.org/2000/svg" xmlns:xlink="http://www.w3.org/1999/xlink" x="0px" y="0px"
	 viewBox="0 0 30 30" style="enable-background:new 0 0 30 30;" xml:space="preserve">
<style type="text/css">
	.st0{fill:#FFFFFF;}
	.st1{fill:#E43341;}
	.st2{fill:#EDEDA8;}
	.st3{fill:#4AB177;}
</style>
<g>
	<g>
		<path class="st0" d="M13.9,14.7c-2.5,0-4.8-1.3-6.1-3.4c-0.7-1.1-1-2.4-1-3.7c0-3.9,3.2-7.1,7.1-7.1S21,3.6,21,7.5
			c0,1.3-0.4,2.6-1,3.7C18.6,13.4,16.4,14.7,13.9,14.7z M13.9,1.2c-3.5,0-6.4,2.8-6.4,6.4c0,1.2,0.3,2.3,0.9,3.3
			c1.2,1.9,3.2,3.1,5.4,3.1c2.2,0,4.3-1.1,5.4-3.1c0.6-1,0.9-2.1,0.9-3.3C20.2,4,17.4,1.2,13.9,1.2z"/>
		<path class="st0" d="M24.7,29.3H3c-0.1,0-0.2,0-0.3-0.1S2.6,29,2.6,28.9c0.9-7.2,5.6-12.4,11.3-12.4c2.6,0,5.2,1.2,7.3,3.4
			c0.1,0.2,0.1,0.4,0,0.5c-0.2,0.1-0.4,0.1-0.5,0c-1.9-2-4.3-3.1-6.7-3.1c-5.1,0-9.4,4.7-10.4,11.2h20.8c-0.2-1.2-0.5-2.4-0.9-3.5
			c-0.1-0.2,0-0.4,0.2-0.5c0.2-0.1,0.4,0,0.5,0.2c0.5,1.3,0.8,2.7,1,4.1c0,0.1,0,0.2-0.1,0.3C24.9,29.3,24.8,29.3,24.7,29.3z"/>
	</g>
	<path class="st0" d="M20.2,27c-0.1,0-0.2,0-0.3-0.1l-3.2-3.6c-0.1-0.2-0.1-0.4,0-0.5s0.4-0.1,0.5,0l2.8,3.2
		c0.7-1.6,2.8-6.1,6.4-9.3c0.2-0.1,0.4-0.1,0.5,0c0.1,0.2,0.1,0.4,0,0.5c-4.2,3.8-6.4,9.5-6.4,9.6C20.5,26.9,20.4,27,20.2,27
		C20.2,27,20.2,27,20.2,27z"/>
</g>
</svg>
