<?xml version="1.0" encoding="utf-8"?>
<!-- Generator: Adobe Illustrator 25.0.0, SVG Export Plug-In . SVG Version: 6.00 Build 0)  -->
<svg version="1.1" id="Capa_1" xmlns="http://www.w3.org/2000/svg" xmlns:xlink="http://www.w3.org/1999/xlink" x="0px" y="0px"
	 viewBox="0 0 600 600" style="enable-background:new 0 0 600 600;" xml:space="preserve">
<style type="text/css">
	.st0{fill:#FFFFFF;}
</style>
<g>
	<g>
		<path class="st0" d="M286.2,436.5H55c-15.7,0-28.4-12.7-28.4-28.4V262.3c0-2.3,1.1-4.4,2.9-5.8s4.2-1.8,6.4-1.3
			c45.5,12.4,94.7,20.2,146.3,23.1c3.9,0.2,6.9,3.4,6.9,7.3v15.8c0,5.6,4.6,10.2,10.2,10.2h54.8c5.6,0,10.2-4.6,10.2-10.2v-15.8
			c0-4,3.3-7.3,7.3-7.3s7.3,3.3,7.3,7.3v15.8c0,13.7-11.1,24.8-24.8,24.8h-54.8c-13.7,0-24.8-11.1-24.8-24.8v-8.9
			c-46.7-3.1-91.4-10-133.2-20.8V408c0,7.6,6.2,13.8,13.8,13.8h231.2c4,0,7.3,3.3,7.3,7.3S290.2,436.5,286.2,436.5z"/>
		<path class="st0" d="M181.8,293c-0.1,0-0.3,0-0.4,0c-52.6-3-102.9-11-149.3-23.7c-3.2-0.9-5.4-3.8-5.4-7.1v-115
			c0-13.2,10.8-24,24-24h351c13.8,0,25.1,11.3,25.1,25.1v21.6c0,4-3.3,7.3-7.3,7.3s-7.3-3.3-7.3-7.3v-21.6c0-5.8-4.7-10.5-10.5-10.5
			h-351c-5.2,0-9.4,4.2-9.4,9.4v109.4c43.9,11.6,91.3,18.9,140.9,21.7c4,0.2,7.1,3.7,6.9,7.7C188.9,290,185.6,293,181.8,293z"/>
		<path class="st0" d="M271.6,293c-3.9,0-7.1-3-7.3-6.9c-0.2-4,2.9-7.5,6.9-7.7c6.8-0.4,13.5-0.8,20.2-1.4c4-0.4,7.6,2.7,7.9,6.7
			s-2.7,7.6-6.7,7.9c-6.8,0.5-13.7,1-20.5,1.4C271.9,293,271.8,293,271.6,293z"/>
		<path class="st0" d="M271.6,293c-4,0-7.3-3.3-7.3-7.3v-12.9c0-5.6-4.6-10.2-10.2-10.2h-54.8c-5.6,0-10.2,4.6-10.2,10.2v12.9
			c0,4-3.3,7.3-7.3,7.3s-7.3-3.3-7.3-7.3v-12.9c0-13.7,11.1-24.8,24.8-24.8h54.8c13.7,0,24.8,11.1,24.8,24.8v12.9
			C278.9,289.8,275.7,293,271.6,293z"/>
		<path class="st0" d="M334.4,137H119c-2.4,0-4.7-1.2-6.1-3.2s-1.6-4.6-0.7-6.8c13.2-33.2,34.9-50,64.8-50h94.6
			c31.2,0,57.2,18.7,69.7,50c0.9,2.2,0.6,4.8-0.7,6.8C339.1,135.8,336.9,137,334.4,137z M130.3,122.4h192.5
			c-11.2-19.5-29.7-30.8-51.2-30.8H177C156.1,91.6,141.1,101.5,130.3,122.4z"/>
	</g>
	<path class="st0" d="M568.4,515.1L568.4,515.1l-248.7-0.7c-4,0-7.3-3.3-7.3-7.3V197.2c0-4,3.3-7.3,7.3-7.3h248.7
		c4,0,7.3,3.3,7.3,7.3v310.5c0,1.9-0.8,3.8-2.1,5.2S570.3,515.1,568.4,515.1z M327,499.8l234.1,0.7v-296H327V499.8z"/>
	<path class="st0" d="M464.5,300.1H359.7c-4,0-7.3-3.3-7.3-7.3s3.3-7.3,7.3-7.3h104.8c4,0,7.3,3.3,7.3,7.3
		C471.8,296.8,468.5,300.1,464.5,300.1z"/>
	<path class="st0" d="M523.2,300.1h-29.7c-4,0-7.3-3.3-7.3-7.3s3.3-7.3,7.3-7.3h29.7c4,0,7.3,3.3,7.3,7.3
		C530.5,296.8,527.2,300.1,523.2,300.1z"/>
	<path class="st0" d="M522.5,354.8h-162c-4,0-7.3-3.3-7.3-7.3s3.3-7.3,7.3-7.3h162c4,0,7.3,3.3,7.3,7.3S526.5,354.8,522.5,354.8z"/>
	<path class="st0" d="M522.5,404.9h-162c-4,0-7.3-3.3-7.3-7.3s3.3-7.3,7.3-7.3h162c4,0,7.3,3.3,7.3,7.3S526.5,404.9,522.5,404.9z"/>
</g>
</svg>
