<?xml version="1.0" encoding="utf-8"?>
<!-- Generator: Adobe Illustrator 24.3.0, SVG Export Plug-In . SVG Version: 6.00 Build 0)  -->
<svg version="1.1" id="Capa_1" xmlns="http://www.w3.org/2000/svg" xmlns:xlink="http://www.w3.org/1999/xlink" x="0px" y="0px"
	 viewBox="0 0 30 30" style="enable-background:new 0 0 30 30;" xml:space="preserve">
<style type="text/css">
	.st0{fill:#ffffff;}
	.st1{font-family:'Arciform';}
	.st2{font-size:4.7538px;}
</style>
<g>
	<path class="st0" d="M22.8,25.3c-0.2,0-0.3-0.1-0.3-0.3V6.6h-2.9c-0.2,0-0.3-0.1-0.3-0.3S19.4,6,19.5,6h3.2c0.2,0,0.3,0.1,0.3,0.3
		V25C23.1,25.2,23,25.3,22.8,25.3z"/>
	<path class="st0" d="M22.8,25.3h-15c-0.2,0-0.3-0.1-0.3-0.3V6.3C7.5,6.1,7.6,6,7.8,6h3.1c0.2,0,0.3,0.1,0.3,0.3s-0.1,0.3-0.3,0.3
		H8.1v18h14.7c0.2,0,0.3,0.1,0.3,0.3S23,25.3,22.8,25.3z"/>
	<path class="st0" d="M20,10.6h-9.9c-0.2,0-0.3-0.1-0.3-0.3c0-0.2,0.1-0.3,0.3-0.3H20c0.2,0,0.3,0.1,0.3,0.3
		C20.3,10.4,20.2,10.6,20,10.6z"/>
	<path class="st0" d="M16.4,13.9h-6.3c-0.2,0-0.3-0.1-0.3-0.3s0.1-0.3,0.3-0.3h6.3c0.2,0,0.3,0.1,0.3,0.3S16.6,13.9,16.4,13.9z"/>
	<path class="st0" d="M19.9,13.9h-1.8c-0.2,0-0.3-0.1-0.3-0.3s0.1-0.3,0.3-0.3h1.8c0.2,0,0.3,0.1,0.3,0.3S20.1,13.9,19.9,13.9z"/>
	<path class="st0" d="M19.8,17.2h-9.8c-0.2,0-0.3-0.1-0.3-0.3s0.1-0.3,0.3-0.3h9.8c0.2,0,0.3,0.1,0.3,0.3S20,17.2,19.8,17.2z"/>
	<path class="st0" d="M18.1,22.3h-3.3c-0.2,0-0.3-0.1-0.3-0.3s0.1-0.3,0.3-0.3h3.3c0.2,0,0.3,0.1,0.3,0.3S18.3,22.3,18.1,22.3z"/>
	<text transform="matrix(1 0 0 1 11.7286 23.2266)" class="st0 st1 st2">$</text>
	<path class="st0" d="M18.4,7.6h-6.2c-0.2,0-0.3-0.1-0.3-0.3v-2C11.9,5.1,12,5,12.2,5h1.4c0.2-0.8,0.9-1.4,1.7-1.4
		c0.8,0,1.5,0.6,1.7,1.4h1.4c0.2,0,0.3,0.1,0.3,0.3v2C18.7,7.5,18.6,7.6,18.4,7.6z M12.5,7h5.6V5.6h-1.4c-0.2,0-0.3-0.1-0.3-0.3
		c0-0.6-0.5-1-1.1-1c-0.6,0-1.1,0.5-1.1,1c0,0.2-0.1,0.3-0.3,0.3h-1.4V7z"/>
</g>
</svg>
