<?xml version="1.0" encoding="UTF-8" standalone="no"?>
<!-- Generator: Adobe Illustrator 24.0.0, SVG Export Plug-In . SVG Version: 6.00 Build 0)  -->

<svg
   xmlns:dc="http://purl.org/dc/elements/1.1/"
   xmlns:cc="http://creativecommons.org/ns#"
   xmlns:rdf="http://www.w3.org/1999/02/22-rdf-syntax-ns#"
   xmlns:svg="http://www.w3.org/2000/svg"
   xmlns="http://www.w3.org/2000/svg"
   xmlns:sodipodi="http://sodipodi.sourceforge.net/DTD/sodipodi-0.dtd"
   xmlns:inkscape="http://www.inkscape.org/namespaces/inkscape"
   version="1.1"
   id="Capa_1"
   x="0px"
   y="0px"
   viewBox="0 0 30 30"
   style="enable-background:new 0 0 30 30;"
   xml:space="preserve"
   sodipodi:docname="ICONO RECURSOS HUMANOS 30X30 GRIS_Mesa de trabajo 1.svg"
   inkscape:version="0.92.5 (2060ec1f9f, 2020-04-08)"><metadata
   id="metadata15"><rdf:RDF><cc:Work
       rdf:about=""><dc:format>image/svg+xml</dc:format><dc:type
         rdf:resource="http://purl.org/dc/dcmitype/StillImage" /><dc:title></dc:title></cc:Work></rdf:RDF></metadata><defs
   id="defs13" /><sodipodi:namedview
   pagecolor="#a086ff"
   bordercolor="#666666"
   borderopacity="1"
   objecttolerance="10"
   gridtolerance="10"
   guidetolerance="10"
   inkscape:pageopacity="0"
   inkscape:pageshadow="2"
   inkscape:window-width="1920"
   inkscape:window-height="1017"
   id="namedview11"
   showgrid="false"
   inkscape:zoom="7.8666667"
   inkscape:cx="-0.82627119"
   inkscape:cy="15"
   inkscape:window-x="-8"
   inkscape:window-y="-7"
   inkscape:window-maximized="1"
   inkscape:current-layer="Capa_1" />
<style
   type="text/css"
   id="style2">
	.st0{fill:#B2B2B2;}
	.st1{fill:#FFFFFF;}
	.st2{fill:#28C67A;}
	.st3{fill:#E53341;}
	.st4{fill:#EFEFA8;}
</style>
<g
   id="g8"
   style="fill:#ffffff">
	<path
   class="st0"
   d="M14.67,15.2c-2.43,0-4.64-1.24-5.91-3.32C8.11,10.8,7.76,9.56,7.76,8.29c0-3.81,3.1-6.91,6.91-6.91   s6.91,3.1,6.91,6.91c0,1.27-0.35,2.51-1.01,3.59C19.31,13.96,17.1,15.2,14.67,15.2z M14.67,2.5c-3.19,0-5.79,2.6-5.79,5.79   c0,1.06,0.29,2.1,0.84,3.01c1.06,1.74,2.91,2.78,4.94,2.78c2.04,0,3.88-1.04,4.94-2.78c0.55-0.9,0.84-1.94,0.84-3.01   C20.46,5.1,17.86,2.5,14.67,2.5z"
   id="path4"
   style="fill:#ffffff" />
	<path
   class="st0"
   d="M24.9,29H4.45c-0.16,0-0.32-0.07-0.42-0.19c-0.11-0.12-0.16-0.28-0.14-0.44c0.87-6.85,5.41-11.82,10.79-11.82   c5.38,0,9.91,4.97,10.79,11.82c0.02,0.16-0.03,0.32-0.14,0.44C25.21,28.93,25.06,29,24.9,29z M5.1,27.87h19.15   c-0.98-5.95-4.94-10.2-9.57-10.2S6.08,21.93,5.1,27.87z"
   id="path6"
   style="fill:#ffffff" />
</g>
</svg>