<?xml version="1.0" encoding="UTF-8" standalone="no"?>
<!-- Generator: Adobe Illustrator 24.0.0, SVG Export Plug-In . SVG Version: 6.00 Build 0)  -->

<svg
   xmlns:dc="http://purl.org/dc/elements/1.1/"
   xmlns:cc="http://creativecommons.org/ns#"
   xmlns:rdf="http://www.w3.org/1999/02/22-rdf-syntax-ns#"
   xmlns:svg="http://www.w3.org/2000/svg"
   xmlns="http://www.w3.org/2000/svg"
   xmlns:sodipodi="http://sodipodi.sourceforge.net/DTD/sodipodi-0.dtd"
   xmlns:inkscape="http://www.inkscape.org/namespaces/inkscape"
   version="1.1"
   id="Capa_1"
   x="0px"
   y="0px"
   viewBox="0 0 30 30"
   style="enable-background:new 0 0 30 30;"
   xml:space="preserve"
   sodipodi:docname="ICONO TEXTIL GRIS_Mesa de trabajo 1.svg"
   inkscape:version="0.92.5 (2060ec1f9f, 2020-04-08)"><metadata
   id="metadata11"><rdf:RDF><cc:Work
       rdf:about=""><dc:format>image/svg+xml</dc:format><dc:type
         rdf:resource="http://purl.org/dc/dcmitype/StillImage" /><dc:title></dc:title></cc:Work></rdf:RDF></metadata><defs
   id="defs9" /><sodipodi:namedview
   pagecolor="#93adff"
   bordercolor="#666666"
   borderopacity="1"
   objecttolerance="10"
   gridtolerance="10"
   guidetolerance="10"
   inkscape:pageopacity="0"
   inkscape:pageshadow="2"
   inkscape:window-width="1920"
   inkscape:window-height="1017"
   id="namedview7"
   showgrid="false"
   inkscape:zoom="7.8666667"
   inkscape:cx="-0.82627119"
   inkscape:cy="15"
   inkscape:window-x="-8"
   inkscape:window-y="-7"
   inkscape:window-maximized="1"
   inkscape:current-layer="Capa_1" />
<style
   type="text/css"
   id="style2">
	.st0{fill:#B2B2B2;}
</style>
<path
   class="st0"
   d="M22.08,26.63H8.57c-0.26,0-0.47-0.21-0.47-0.47V15.19c-3.82,0.06-3.85,0.03-4.02-0.14  c-0.08-0.08-0.13-0.13-2.52-5.34c-0.1-0.22-0.02-0.48,0.19-0.6l8.32-4.85c0.12-0.07,0.27-0.09,0.4-0.04  c0.13,0.05,0.23,0.15,0.28,0.28c0.04,0.1,0.97,2.45,4.58,2.44c0.04,0,0.08,0,0.12,0c3.54,0,4.44-2.35,4.47-2.45  c0.05-0.13,0.15-0.23,0.28-0.28c0.13-0.05,0.27-0.04,0.4,0.04l8.32,4.85c0.21,0.12,0.29,0.38,0.19,0.6  c-2.4,5.21-2.44,5.26-2.52,5.33c-0.18,0.17-0.21,0.2-4.02,0.15v10.96C22.55,26.42,22.34,26.63,22.08,26.63z M9.04,25.69h12.58V14.72  c0-0.13,0.05-0.25,0.14-0.34c0.09-0.09,0.19-0.12,0.34-0.13c1.55,0.02,3.28,0.04,3.87,0.02c0.25-0.54,1.3-2.83,2.1-4.56l-7.51-4.38  c-0.51,0.87-1.91,2.57-5.1,2.57c-0.09,0-0.18,0-0.26,0c-3.18,0-4.58-1.7-5.09-2.57L2.58,9.71c0.77,1.68,1.79,3.87,2.12,4.56  c0.61,0.02,2.32,0,3.85-0.02c0.16,0.03,0.25,0.05,0.34,0.13c0.09,0.09,0.14,0.21,0.14,0.34V25.69z"
   id="path4"
   style="fill:#ffffff" />
</svg>