<?xml version="1.0" encoding="utf-8"?>
<!-- Generator: Adobe Illustrator 24.3.0, SVG Export Plug-In . SVG Version: 6.00 Build 0)  -->
<svg version="1.1" id="Capa_1" xmlns="http://www.w3.org/2000/svg" xmlns:xlink="http://www.w3.org/1999/xlink" x="0px" y="0px"
	 viewBox="0 0 30 30" style="enable-background:new 0 0 30 30;" xml:space="preserve">
<style type="text/css">
	.st0{fill:#E43341;}
	.st1{fill:#EDEDA8;}
	.st2{fill:#FFFFFF;}
	.st3{fill:#4AB177;}
</style>
<g>
	<path class="st0" d="M18.4,15.7H8.2c-0.3,0-0.6-0.3-0.6-0.6c0-0.3,0.3-0.6,0.6-0.6h10.3c0.3,0,0.6,0.3,0.6,0.6
		C19,15.4,18.8,15.7,18.4,15.7z"/>
	<path class="st1" d="M15.1,19.1H8.2c-0.3,0-0.6-0.3-0.6-0.6s0.3-0.6,0.6-0.6h6.9c0.3,0,0.6,0.3,0.6,0.6S15.4,19.1,15.1,19.1z"/>
	<path class="st2" d="M24,23.1H5.2c-0.9,0-1.6-0.7-1.6-1.6V8.6C3.5,7.7,4.3,7,5.2,7H24c0.9,0,1.6,0.7,1.6,1.6v12.9
		C25.7,22.4,24.9,23.1,24,23.1z M5.2,7.6c-0.6,0-1,0.4-1,1v12.9c0,0.6,0.4,1,1,1H24c0.6,0,1-0.4,1-1V8.6c0-0.6-0.4-1-1-1H5.2z"/>
	<path class="st3" d="M20.2,12.4H8.2c-0.3,0-0.6-0.3-0.6-0.6c0-0.3,0.3-0.6,0.6-0.6h12.1c0.3,0,0.6,0.3,0.6,0.6
		C20.8,12.1,20.6,12.4,20.2,12.4z"/>
</g>
</svg>
