<?xml version="1.0" encoding="utf-8"?>
<!-- Generator: Adobe Illustrator 24.0.0, SVG Export Plug-In . SVG Version: 6.00 Build 0)  -->
<svg version="1.1" id="Capa_1" xmlns="http://www.w3.org/2000/svg" xmlns:xlink="http://www.w3.org/1999/xlink" x="0px" y="0px"
	 viewBox="0 0 30 30" style="enable-background:new 0 0 30 30;" xml:space="preserve">
<style type="text/css">
	.st0{fill:#E53341;}
	.st1{fill:#EFEFA8;}
	.st2{fill:#006dd9;}
	.st3{fill:#28C67A;}
</style>
<g>
	<path class="st0" d="M20,15.95H7.01c-0.42,0-0.76-0.34-0.76-0.76s0.34-0.76,0.76-0.76H20c0.42,0,0.76,0.34,0.76,0.76
		S20.42,15.95,20,15.95z"/>
	<path class="st1" d="M15.78,20.28H7.01c-0.42,0-0.76-0.34-0.76-0.76c0-0.42,0.34-0.76,0.76-0.76h8.77c0.42,0,0.76,0.34,0.76,0.76
		C16.54,19.94,16.2,20.28,15.78,20.28z"/>
	<path class="st2" d="M27.07,25.35H3.23c-1.15,0-2.07-0.92-2.07-2.07V6.99c0-1.15,0.92-2.07,2.07-2.07h23.84
		c1.15,0,2.07,0.92,2.07,2.07v16.29C29.14,24.41,28.2,25.35,27.07,25.35z M3.22,5.73c-0.7,0-1.26,0.57-1.26,1.26v16.29
		c0,0.7,0.57,1.26,1.26,1.26h23.84c0.7,0,1.26-0.57,1.26-1.26V6.99c0-0.7-0.57-1.26-1.26-1.26H3.22z"/>
	<path class="st3" d="M22.28,11.78H7.01c-0.42,0-0.76-0.34-0.76-0.76c0-0.42,0.34-0.76,0.76-0.76h15.26c0.42,0,0.76,0.34,0.76,0.76
		C23.04,11.44,22.7,11.78,22.28,11.78z"/>
</g>
</svg>
