<?xml version="1.0" encoding="utf-8"?>
<!-- Generator: Adobe Illustrator 24.3.0, SVG Export Plug-In . SVG Version: 6.00 Build 0)  -->
<svg version="1.1" id="Capa_1" xmlns="http://www.w3.org/2000/svg" xmlns:xlink="http://www.w3.org/1999/xlink" x="0px" y="0px"
	 viewBox="0 0 30 30" style="enable-background:new 0 0 30 30;" xml:space="preserve">
<style type="text/css">
	.st0{fill:#FFFFFF;}
	.st1{fill:#E43341;}
	.st2{fill:#EDEDA8;}
	.st3{fill:#4AB177;}
</style>
<g>
	<path class="st0" d="M25.1,25H5.1c-0.8,0-1.5-0.7-1.5-1.5V15c0-0.1,0-0.2,0.1-0.2c0.1-0.1,0.2-0.1,0.3-0.1c2.6,0.7,5.5,1.2,8.5,1.3
		c0.2,0,0.3,0.1,0.3,0.3v0.9c0,0.4,0.3,0.7,0.7,0.7h3.2c0.4,0,0.7-0.3,0.7-0.7v-0.9c0-0.2,0.1-0.3,0.3-0.3c3-0.2,5.9-0.6,8.5-1.3
		c0.1,0,0.2,0,0.3,0.1c0.1,0.1,0.1,0.1,0.1,0.2v8.5C26.5,24.3,25.9,25,25.1,25z M4.2,15.4v8c0,0.5,0.4,0.9,0.9,0.9h19.9
		c0.5,0,0.9-0.4,0.9-0.9v-8.1c-2.5,0.7-5.2,1.1-7.9,1.2v0.6c0,0.7-0.6,1.3-1.3,1.3h-3.2c-0.7,0-1.3-0.6-1.3-1.3v-0.6
		C9.4,16.4,6.7,16,4.2,15.4z"/>
	<path class="st0" d="M17.7,16.6c-0.2,0-0.3-0.1-0.3-0.3c0-0.2,0.1-0.3,0.3-0.3c2.9-0.2,5.7-0.6,8.3-1.3V8.4c0-0.4-0.3-0.7-0.7-0.7
		H4.9c-0.4,0-0.7,0.3-0.7,0.7v6.4c2.6,0.7,5.4,1.1,8.3,1.3c0.2,0,0.3,0.2,0.3,0.3c0,0.2-0.2,0.3-0.3,0.3c-3-0.2-5.9-0.6-8.6-1.4
		c-0.1,0-0.2-0.2-0.2-0.3V8.3C3.6,7.6,4.2,7,4.9,7h20.3c0.7,0,1.3,0.6,1.3,1.3V15c0,0.1-0.1,0.3-0.2,0.3
		C23.6,16,20.7,16.5,17.7,16.6C17.7,16.6,17.7,16.6,17.7,16.6z"/>
	<path class="st0" d="M17.7,16.6c-0.2,0-0.3-0.1-0.3-0.3v-0.7c0-0.4-0.3-0.7-0.7-0.7h-3.2c-0.4,0-0.7,0.3-0.7,0.7v0.7
		c0,0.2-0.1,0.3-0.3,0.3c-0.2,0-0.3-0.1-0.3-0.3v-0.7c0-0.7,0.6-1.3,1.3-1.3h3.2c0.7,0,1.3,0.6,1.3,1.3v0.7
		C18,16.5,17.8,16.6,17.7,16.6z"/>
	<path class="st0" d="M21.3,7.6H8.8c-0.1,0-0.2-0.1-0.3-0.1c-0.1-0.1-0.1-0.2,0-0.3c0.7-1.9,2-2.8,3.6-2.8h5.5
		c1.8,0,3.2,1.1,3.9,2.8c0,0.1,0,0.2,0,0.3C21.5,7.5,21.4,7.6,21.3,7.6z M9.3,7h11.5c-0.7-1.3-1.8-2-3.2-2h-5.5C10.9,5,10,5.6,9.3,7
		z"/>
</g>
</svg>
