<?xml version="1.0" encoding="utf-8"?>
<!-- Generator: Adobe Illustrator 24.0.0, SVG Export Plug-In . SVG Version: 6.00 Build 0)  -->
<svg version="1.1" id="Capa_1" xmlns="http://www.w3.org/2000/svg" xmlns:xlink="http://www.w3.org/1999/xlink" x="0px" y="0px"
	 viewBox="0 0 30 30" style="enable-background:new 0 0 30 30;" xml:space="preserve">
<style type="text/css">
	.st0{fill:#006dd9;}
</style>
<path class="st0" d="M27.45,5.64h-4.46c-0.88-2.04-2.62-3.26-4.69-3.26h-6.66c-1.98,0-3.44,1.1-4.35,3.26H2.75
	c-0.86,0-1.55,0.7-1.55,1.55v7.66v0.43v10.37c0,1,0.81,1.81,1.81,1.81h24.27c1,0,1.81-0.81,1.81-1.81V15.29v-0.43V7.27
	C29.08,6.37,28.35,5.64,27.45,5.64z M11.64,3.13h6.66c1.64,0,3.04,0.9,3.84,2.44H8.13C8.92,3.93,10.07,3.13,11.64,3.13z
	 M12.35,16.93v-0.3v-0.61c0-0.47,0.38-0.85,0.86-0.85h3.86c0.47,0,0.86,0.38,0.86,0.85v0.61v0.3v1.17c0,0.47-0.38,0.86-0.86,0.86
	h-3.86c-0.47,0-0.86-0.38-0.86-0.86V16.93z M1.95,7.19c0-0.44,0.36-0.8,0.8-0.8h24.71c0.48,0,0.88,0.39,0.88,0.88V15
	c-3.01,0.8-6.26,1.31-9.65,1.53v-0.5c0-0.89-0.72-1.61-1.61-1.61h-3.86c-0.89,0-1.61,0.72-1.61,1.61v0.5
	C8.21,16.31,4.96,15.8,1.95,15V7.19z M28.33,25.66c0,0.58-0.47,1.06-1.06,1.06H3c-0.58,0-1.06-0.47-1.06-1.06v-9.82
	c3.01,0.79,6.26,1.3,9.65,1.51v0.76c0,0.89,0.72,1.61,1.61,1.61h3.86c0.89,0,1.61-0.72,1.61-1.61v-0.76
	c3.39-0.21,6.64-0.72,9.65-1.51V25.66z"/>
</svg>
