<?xml version="1.0" encoding="utf-8"?>
<!-- Generator: Adobe Illustrator 25.0.0, SVG Export Plug-In . SVG Version: 6.00 Build 0)  -->
<svg version="1.1" id="Capa_1" xmlns="http://www.w3.org/2000/svg" xmlns:xlink="http://www.w3.org/1999/xlink" x="0px" y="0px"
	 viewBox="0 0 600 600" style="enable-background:new 0 0 600 600;" xml:space="preserve">
<style type="text/css">
	.st0{fill:#FFFFFF;}
	.st1{font-family:'ArialRoundedMTBold';}
	.st2{font-size:86.5924px;}
</style>
<g>
	<g>
		<text transform="matrix(0.9664 -6.381373e-04 6.603515e-04 1 195.8639 390.5719)" class="st0 st1 st2">$</text>
		<path class="st0" d="M417.3,476.7h-0.1L20.9,477c-10.2,0-18.3-8.5-18.5-18.8L2.2,259.5c0-4.9,1.8-9.7,5.4-13.3
			c3.5-3.7,7.9-5.9,13.1-5.6l396.3-0.3c10.2,0,18.3,8.5,18.3,18.8v21.7l0,0l0.1,177c0,5.1-2,9.9-5.5,13.4
			C426.4,474.9,421.9,476.7,417.3,476.7z M20.6,254.5c-1.1,0-2.3,0.4-3.1,1.4c-0.8,1-1.4,2.3-1.4,3.5l0.1,198.8
			c0,2.7,2.1,4.9,4.5,4.9l396.3-0.3l0,0c1.1,0,2.3-0.4,3-1.3c1-1,1.4-2.3,1.4-3.7l-0.1-198.8c0-2.7-2-4.9-4.5-4.9L20.6,254.5
			L20.6,254.5z M428.4,280.9h0.1H428.4z"/>
		<path class="st0" d="M359,444.4L359,444.4l-280.2,0.1c-1.8,0-3.7-0.7-4.9-2c-1.3-1.3-2-3.1-2-4.9c0-9.6-3.7-18.5-10.2-25.3
			c-6.5-6.6-15-10.3-24.1-10.3c-1.8,0-3.5-0.7-4.9-2c-1.3-1.3-2-3.1-2-4.9v-72.7c0-3.8,3.1-6.9,6.9-6.9c0,0,0.1,0,0.3,0
			c18.8-0.1,34-16.1,34-35.7c0-1.8,0.7-3.7,2-4.9c1.3-1.3,3.4-1.3,4.9-2l280.2-0.1c3.8,0,6.9,3.1,6.9,6.9c0,3.8-3.1,6.9-6.9,6.9l0,0
			l-273.8,0.1c-3,21.7-19.6,38.9-40.6,42v59.7c10.3,1.6,19.8,6.3,27.1,14.1c7.3,7.6,12.1,17.5,13.5,27.9l273.7-0.1
			c3.8,0,6.9,3.1,6.9,6.9C365.8,441.2,362.8,444.4,359,444.4z"/>
		<path class="st0" d="M359.1,443.6C359,443.6,359,443.6,359.1,443.6c-4,0-7.1-3.1-7.1-6.9c0.1-24,18.3-43,42.6-46L395,331
			c-19.8-3.1-36-18.6-39.9-39.2l-3-9.9c-1.1-3.7,1-7.5,4.7-8.6c3.8-1.1,7.5,1,8.6,4.7l3.1,10.6c3.4,17.1,17.4,29.1,33.4,29.2
			c1.8,0,3.7,0.7,4.9,2.1c1.3,1.3,2,3.1,2,4.9l-0.4,72.7c0,3.8-3.1,6.9-6.9,6.9c-0.3,0-0.3,0-0.6,0c-17.4,0.1-35.1,12.3-35.3,32.6
			C365.9,440.5,362.8,443.6,359.1,443.6z"/>
		<path class="st0" d="M218.5,426.5c-2.1,0-4.1,0-6.2-0.3c-36.4-3.1-63.5-35.3-60.4-71.7s34.7-63.5,71.7-60.4
			c17.6,1.6,33.6,9.7,45,23.3c11.4,13.5,16.9,30.6,15.4,48.2c-1.6,17.6-9.7,33.6-23.3,45C248.7,421,233.9,426.5,218.5,426.5z
			 M217.4,307.9c-12.3,0.1-23.8,4.4-33.3,12.3c-10.7,9-17.2,21.7-18.5,35.7c-1.1,14,3.1,27.5,12.1,38.2c9,10.7,21.7,17.2,35.7,18.5
			c14.1,1.4,27.5-3.1,38.2-12.1c10.7-9,17.2-21.7,18.5-35.7l0,0c1.1-14-3.1-27.5-12.1-38.2c-9-10.7-21.7-17.2-35.7-18.5
			C220.6,308,219.1,307.9,217.4,307.9z"/>
	</g>
	<path class="st0" d="M159.4,243l0.6-1.8h-2.4C158.3,241.7,158.5,242.4,159.4,243z"/>
	<path class="st0" d="M176.9,243.7c1.4,0.4,2.7,0.3,4-0.4c0.8-0.4,1.1-1.3,1.6-2h-8.3C174.6,242.3,175.5,243.1,176.9,243.7z"/>
	<path class="st0" d="M484,339c-13.1,0.1-25.8-2-38.1-6.2c-3.7-1.3-5.5-5.2-4.2-8.9c1.3-3.5,5.1-5.5,8.9-4.2
		c10.7,3.7,21.9,5.5,33.4,5.5c55.2-0.4,99.6-45.6,99.2-100.7s-45.6-99.6-100.7-99.2c-50.8,0.4-93.1,38.7-98.6,89
		c-0.4,3.8-4,6.5-7.6,6.2c-3.8-0.4-6.6-3.8-6.2-7.6c6.2-57.4,54.5-101,112.3-101.4c62.8-0.4,114.1,50.2,114.7,112.9
		S546.8,338.6,484,339z"/>
	<path class="st0" d="M482.6,161.4c1,0,2,0.4,2.7,1.1l47.8,53.3c1,1,1.1,2.5,0.6,3.8s-1.8,2.1-3.2,2.1l-21,0.1l0.6,46.8
		c0,2-1.6,3.5-3.5,3.5l0,0c-2,0-3.5-1.6-3.5-3.5l-0.6-50.4c0-1,0.3-1.8,1-2.5c0.7-0.7,1.6-1,2.5-1l16.8-0.1l-39.9-44.4l-39.1,45.4
		l16.6-0.3c1-0.1,1.8,0.3,2.5,1c0.7,0.7,1,1.6,1.1,2.5l0.4,50.4c0,2-1.6,3.5-3.5,3.5l0,0c-2,0-3.5-1.6-3.5-3.5l-0.6-46.8l-20.9,0.3
		c-1,0.1-2.7-0.7-3.2-2c-0.6-1.3-0.4-2.7,0.6-3.8l46.7-54.3C480.6,161.8,481.6,161.4,482.6,161.4L482.6,161.4z"/>
</g>
</svg>
