<?xml version="1.0" encoding="utf-8"?>
<!-- Generator: Adobe Illustrator 25.0.0, SVG Export Plug-In . SVG Version: 6.00 Build 0)  -->
<svg version="1.1" id="Capa_1" xmlns="http://www.w3.org/2000/svg" xmlns:xlink="http://www.w3.org/1999/xlink" x="0px" y="0px"
	 viewBox="0 0 600 600" style="enable-background:new 0 0 600 600;" xml:space="preserve">
<style type="text/css">
	.st0{fill:#006dd9;}
</style>
<g>
	<path class="st0" d="M545.9,506H396.1c-5.4,0-9.8-4.5-9.8-9.8c0-5.4,4.5-9.8,9.8-9.8h149.8c15.8,0,28.6-12.9,28.6-28.6V55
		c0-11.8-9.7-21.5-21.5-21.5H346.4c-11.8,0-21.5,9.7-21.5,21.5v47.7c0,5.4-4.5,9.8-9.8,9.8H52.2c-15.8,0-28.6,12.9-28.6,28.6v316.6
		c0,15.8,12.9,28.6,28.6,28.6h148c5.4,0,9.8,4.5,9.8,9.8c0,5.4-4.5,9.8-9.8,9.8h-148C25.6,505.9,4,484.2,4,457.5V141.1
		c0-26.6,21.6-48.2,48.2-48.2h252.9V55c0-22.7,18.4-41.3,41.3-41.3H553c22.7,0,41.3,18.4,41.3,41.3v402.7
		C594.3,484.2,572.7,506,545.9,506z"/>
	<path class="st0" d="M584.5,112.5H315c-5.4,0-9.8-4.5-9.8-9.8c0-5.4,4.5-9.8,9.8-9.8h269.4c5.4,0,9.8,4.5,9.8,9.8
		C594.3,108.1,589.8,112.5,584.5,112.5z"/>
	<path class="st0" d="M297.7,588.6L297.7,588.6c-8.3,0-16.1-3.2-21.8-9.1L140.5,442.8c-22.1-22.4-34.1-51.9-33.9-83.4
		c0.2-31.3,12.6-60.8,34.8-82.9c43-42.5,111.9-45,157.8-6.9c46.2-38.4,115.6-35.6,158.6,7.8c45.6,46.1,45.1,120.7-0.9,166.3
		L319.3,579.9C313.5,585.6,305.8,588.6,297.7,588.6z M224.2,262.2c-25,0-49.9,9.4-68.9,28.1c-18.6,18.4-28.9,43-29,69.1
		c-0.2,26.1,9.8,50.8,28.2,69.4l135.4,136.8c2.1,2.1,4.8,3.2,7.7,3.2l0.2,9.8v-9.8c2.9,0,5.7-1.1,7.7-3.2l137.6-136.2
		c38.4-37.9,38.7-100.1,0.8-138.5c-37.6-38.1-99.5-38.5-137.7-1.4c-3.8,3.7-10,3.7-13.7,0C273.4,271.4,248.9,262.2,224.2,262.2z"/>
</g>
</svg>
