<?xml version="1.0" encoding="utf-8"?>
<!-- Generator: Adobe Illustrator 25.0.0, SVG Export Plug-In . SVG Version: 6.00 Build 0)  -->
<svg version="1.1" id="Capa_1" xmlns="http://www.w3.org/2000/svg" xmlns:xlink="http://www.w3.org/1999/xlink" x="0px" y="0px"
	 viewBox="0 0 600 600" style="enable-background:new 0 0 600 600;" xml:space="preserve">
<style type="text/css">
	.st0{fill:#006dd9;}
</style>
<g>
	<path class="st0" d="M303.4,231.6c-62.4,0-113.1-50.8-113.1-113.1C190.3,56,241.1,5.2,303.4,5.2c62.4,0,113.3,50.8,113.3,113.3
		C416.7,180.8,365.8,231.6,303.4,231.6z M303.4,21.5c-53.5,0-97,43.5-97,97s43.5,97,97,97s97-43.5,97-97
		C400.5,65,357,21.5,303.4,21.5z"/>
	<path class="st0" d="M494.8,498.1c-3.6,0-6.8-2.3-7.7-6c-1.2-4.3,1.4-8.8,5.7-9.9c26.7-7.3,21.7-29.9,21.1-32.5
		c-0.3-1.9-17.8-112.6-61.8-149.2c-29-24.2-77.3-30.2-77.8-30.4c-0.5,0-74.4-5.6-126.7-2.8c-51.3,2.6-91,26.8-106,48.2
		C125.5,338,92.5,440.8,91,462c-1.1,15.5,24.2,17.8,24.5,17.8c4.5,0.3,7.7,4.3,7.4,8.8c-0.5,4.5-4.3,8.1-8.7,7.4
		C99.8,494.8,73.3,486,75,460.9c1.7-23.7,35.5-129.4,53.3-154.8c17.8-25.3,61.4-52.1,118.4-55c53.5-2.6,128.3,2.8,129.1,2.8
		c2.5,0.3,53.9,6.7,86.6,33.9c48.7,40.6,66.6,153.7,67.2,158.5c3.4,13.3,1.2,42.1-32.7,51.3C496.1,497.9,495.5,498.1,494.8,498.1z"
		/>
	<path class="st0" d="M436.2,594H170c-4.5,0-8.1-3.6-8.1-8.1v-35.6c0-4.5,3.6-8.1,8.1-8.1c4.5,0,8.1,3.6,8.1,8.1v27.4h250.1v-30.4
		c0-4.5,3.6-8.1,8.1-8.1c4.5,0,8.1,3.6,8.1,8.1v38.4C444.2,590.3,440.7,594,436.2,594z"/>
	<path class="st0" d="M436.2,441.2c-4.5,0-8.1-3.6-8.1-8.1v-68.6h-85.7l-7.3,3.3c-19.8,8.8-43.4,8.7-63.4-0.3l-6.5-2.9H178v67.2
		c0,4.5-3.6,8.1-8.1,8.1c-4.5,0-8.1-3.6-8.1-8.1v-75.3c0-4.5,3.6-8.1,8.1-8.1h97.2c1.1,0,2.3,0.3,3.4,0.8l8.1,3.7
		c15.6,7,34.4,7.1,50,0.2l8.8-3.9c1.1-0.5,2.2-0.6,3.3-0.6h95.4c4.5,0,8.1,3.6,8.1,8.1v76.7C444.2,437.5,440.7,441.2,436.2,441.2z"
		/>
	<path class="st0" d="M436.2,549.5H170c-4.5,0-8.1-3.6-8.1-8.1c0-4.5,3.6-8.1,8.1-8.1h266.2c4.5,0,8.1,3.6,8.1,8.1
		C444.2,546,440.7,549.5,436.2,549.5z"/>
	<path class="st0" d="M153.7,549.5c-1.5,0-3.1,0-4.5-0.2h-3.4c-15.3,0-28.2-10.7-33.9-27.9c-5-15.3-6.8-59.7,12.6-75.8
		c16.9-14.1,36.7-18.9,49.3-12.1c1.1,0.6,1.9,1.4,2.6,2.2c4.3,5.7,4.2,12.4,2,17.4c7,2.2,14.1,5.4,20.1,10.5
		c6.7,5.6,12.1,20.5,12.4,33.9c0.3,13-3.9,23.9-12.1,31.3C178.8,547.4,164.1,549.5,153.7,549.5z M144.1,451.8
		c-2.9,1.7-6,3.7-9.1,6.4c-11.5,9.5-12.1,44.5-7.6,58.3c3.6,10.7,10.2,16.7,18.6,16.7l3.9,0.2c9.3,0.2,19.8,0.6,38.1-16.1
		c4.5-4.2,6.8-10.2,6.8-18c0-11-4.6-21.1-6.7-22.8c-11.3-9.5-28.8-10.5-35.3-10.7c-1.9,0.2-2.9,0-3.4,0c-4.3-0.3-7.6-3.9-7.6-8.1
		C141.8,455.3,142.7,453.3,144.1,451.8z M160.5,446.6c-3.3,0-7.3,0.9-11.8,2.8c0.3,0,0-0.2,3.1-0.2c0.2,0,0.3,0,0.5,0
		c2.3-0.2,6.4-0.6,10.2-2.5C162.1,446.6,161.3,446.6,160.5,446.6z M163.5,447.1L163.5,447.1L163.5,447.1z"/>
	<path class="st0" d="M451.2,549.5c-10.4,0-25.1-2-45.2-20.5c-8.2-7.6-12.4-18.4-12.1-31.3c0.3-13.5,5.7-28.4,12.4-33.9
		c6.2-5.1,13.3-8.4,20.1-10.5c-2.2-5-2.3-11.6,2-17.4c0.6-0.9,1.5-1.7,2.6-2.2c12.6-6.8,32.4-2,49.3,12.1
		c19.4,16.1,17.5,60.4,12.6,75.8c-5.6,17.2-18.6,27.9-33.9,27.9h-3.4C454.3,549.4,452.8,549.5,451.2,549.5z M452.1,465.5
		c-6.5,0.2-24.2,1.2-35.5,10.7c-2,1.9-6.7,11.8-6.7,22.8c0,7.7,2.3,13.9,6.8,18c18.3,16.7,28.8,16.3,38.1,16.1l3.9-0.2
		c8.2,0,15-6,18.6-16.7c4.5-13.8,3.9-48.7-7.6-58.3c-3.1-2.6-6.2-4.6-9.1-6.4c1.4,1.4,2.3,3.4,2.3,5.7c0,4.3-3.4,7.9-7.6,8.1
		C455.1,465.5,454,465.7,452.1,465.5z M453.1,449.3c3.1,0,2.8,0,3.1,0.2c-5.4-2.3-10.1-3.1-13.8-2.6c3.9,1.9,7.9,2.3,10.2,2.5
		C452.8,449.3,452.9,449.3,453.1,449.3z"/>
	<path class="st0" d="M251.6,364.4h-73.3c-4.5,0-8.1-3.6-8.1-8.1v-54.4c0-4.5,3.6-8.1,8.1-8.1h73.3c4.5,0,8.1,3.6,8.1,8.1v54.4
		C259.7,360.8,256,364.4,251.6,364.4z M186.4,348.3h57V310h-57V348.3z"/>
	<path class="st0" d="M319,369c-1.7,0-3.4-0.5-4.8-1.5c-2-1.5-3.3-4-3.3-6.5v-59c0-4.5,3.6-8.1,8.1-8.1h101.3c4.5,0,8.1,3.6,8.1,8.1
		v54.4c0,4.5-3.6,8.1-8.1,8.1h-85.1l-13.9,4.2C320.6,368.9,319.8,369,319,369z M327.1,310v40l4.6-1.4c0.8-0.2,1.5-0.3,2.3-0.3h78.1
		V310L327.1,310L327.1,310z"/>
	<path class="st0" d="M286.8,369c-0.9,0-1.9-0.2-2.6-0.5c-1.5-0.5-3.1-0.9-4.3-1.2c-5.3-1.4-14.1-3.9-14.1-15.5v-33.3
		c0-4.5,3.6-8.1,8.1-8.1h20.9c4.5,0,8.1,3.6,8.1,8.1v41.2c0,4-2.8,7.3-6.7,7.9l-7.9,1.4C287.7,369,287.3,369,286.8,369z
		 M294.7,359.6h0.2H294.7z M282,351.2c0.5,0,1.2,0.2,2,0.5c0.8,0.2,1.7,0.5,2.6,0.8v-25.9h-4.8v24.8C282,351.2,282,351.2,282,351.2z
		"/>
	<g>
		<g>
			<path class="st0" d="M331.9,478.3c0,13.8-9.5,25.4-22.3,28.7v6.8c0,4.2-3.3,7.4-7.3,7.4c-4,0-7.3-3.3-7.3-7.4v-7
				c-12.6-3.3-21.8-14.9-21.8-28.5c0-4,3.3-7.3,7.3-7.3c4.2,0,7.4,3.4,7.4,7.3c0,5.4,2.9,10.1,7.3,12.9v-28.5
				c-12.6-3.3-21.8-14.7-21.8-28.4c0-13.5,9.5-25.1,21.8-28.4V400c0-4,3.3-7.3,7.3-7.3c4,0,7.3,3.3,7.3,7.3v5.7
				c13,3.3,22.3,14.9,22.3,28.5c0,4-3.3,7.3-7.4,7.3c-4,0-7.4-3.3-7.4-7.3c0-5.6-3.1-10.4-7.6-13v28.5
				C322.5,453,331.9,464.6,331.9,478.3z M295,446.8v-25.3c-4.3,2.6-7.3,7.3-7.3,12.7C287.7,439.5,290.7,444.2,295,446.8z
				 M317.2,478.3c0-5.6-3.1-10.4-7.6-12.9v26C314.1,488.6,317.2,483.8,317.2,478.3z"/>
		</g>
	</g>
</g>
</svg>
