<?xml version="1.0" encoding="utf-8"?>
<!-- Generator: Adobe Illustrator 25.0.0, SVG Export Plug-In . SVG Version: 6.00 Build 0)  -->
<svg version="1.1" id="Capa_1" xmlns="http://www.w3.org/2000/svg" xmlns:xlink="http://www.w3.org/1999/xlink" x="0px" y="0px"
	 viewBox="0 0 600 600" style="enable-background:new 0 0 600 600;" xml:space="preserve">
<style type="text/css">
	.st0{fill:#006dd9;}
</style>
<g>
	<path class="st0" d="M128.6,201.4c-19.2,0-34.8-15.6-34.8-34.8s15.6-34.8,34.8-34.8s34.8,15.6,34.8,34.8S147.7,201.4,128.6,201.4z
		 M128.6,148.3c-10.1,0-18.3,8.2-18.3,18.3s8.2,18.3,18.3,18.3s18.3-8.2,18.3-18.3S138.6,148.3,128.6,148.3z"/>
	<path class="st0" d="M498.3,172.4h-295c-4.5,0-8.2-3.7-8.2-8.2s3.7-8.2,8.2-8.2h295c4.5,0,8.2,3.7,8.2,8.2S502.9,172.4,498.3,172.4
		z"/>
	<path class="st0" d="M128.6,333.2c-19.2,0-34.8-15.6-34.8-34.8s15.6-34.8,34.8-34.8s34.8,15.6,34.8,34.8S147.7,333.2,128.6,333.2z
		 M128.6,280.2c-10.1,0-18.3,8.2-18.3,18.3c0,10.1,8.2,18.3,18.3,18.3s18.3-8.2,18.3-18.3C146.8,288.4,138.6,280.2,128.6,280.2z"/>
	<path class="st0" d="M498.3,304.3h-295c-4.5,0-8.2-3.7-8.2-8.2s3.7-8.2,8.2-8.2h295c4.5,0,8.2,3.7,8.2,8.2S502.9,304.3,498.3,304.3
		z"/>
	<path class="st0" d="M128.6,465c-19.2,0-34.8-15.6-34.8-34.8s15.6-34.8,34.8-34.8s34.8,15.6,34.8,34.8S147.7,465,128.6,465z
		 M128.6,412c-10.1,0-18.3,8.2-18.3,18.3c0,10.1,8.2,18.3,18.3,18.3s18.3-8.2,18.3-18.3C146.8,420.2,138.6,412,128.6,412z"/>
	<path class="st0" d="M399.5,436.1H203.3c-4.5,0-8.2-3.7-8.2-8.2s3.7-8.2,8.2-8.2h196.2c4.5,0,8.2,3.7,8.2,8.2
		S404,436.1,399.5,436.1z"/>
	<g>
		<g>
			<path class="st0" d="M469.5,459.6c-18.3,0-33.2-14.2-33.2-31.6c0-4.4,3.7-8,8.4-8c4.6,0,8.4,3.6,8.4,8c0,8.6,7.4,15.6,16.4,15.6
				c9.1,0,16.4-7,16.4-15.6c0-8.6-7.4-15.6-16.4-15.6c-18.3,0-33.2-14.2-33.2-31.6c0-17.4,14.9-31.6,33.2-31.6
				c18.3,0,33.2,14.2,33.2,31.6c0,4.4-3.7,8-8.4,8c-4.6,0-8.4-3.6-8.4-8c0-8.6-7.4-15.6-16.4-15.6c-9.1,0-16.4,7-16.4,15.6
				c0,8.6,7.4,15.6,16.4,15.6c18.3,0,33.2,14.2,33.2,31.6C502.7,445.5,487.8,459.6,469.5,459.6z"/>
			<path class="st0" d="M469.5,365.2c-4.6,0-8.4-3.6-8.4-8v-10c0-4.4,3.7-8,8.4-8c4.6,0,8.4,3.6,8.4,8v10
				C477.9,361.7,474.1,365.2,469.5,365.2z"/>
			<path class="st0" d="M469.5,469.7c-4.6,0-8.4-3.6-8.4-8v-10c0-4.4,3.7-8,8.4-8c4.6,0,8.4,3.6,8.4,8v10
				C477.9,466.1,474.1,469.7,469.5,469.7z"/>
		</g>
	</g>
</g>
</svg>
