<?xml version="1.0" encoding="utf-8"?>
<!-- Generator: Adobe Illustrator 24.3.0, SVG Export Plug-In . SVG Version: 6.00 Build 0)  -->
<svg version="1.1" id="Capa_1" xmlns="http://www.w3.org/2000/svg" xmlns:xlink="http://www.w3.org/1999/xlink" x="0px" y="0px"
	 viewBox="0 0 600 600" style="enable-background:new 0 0 600 600;" xml:space="preserve">
<style type="text/css">
	.st0{fill:#FFFFFF;}
</style>
<g>
	<path class="st0" d="M347.9,420.2h-99.8c-7.4,0-13.4,6-13.4,13.5c0,7.4,6,13.4,13.4,13.4h99.8c7.4,0,13.5-6,13.5-13.4
		C361.3,426.2,355.3,420.2,347.9,420.2z"/>
	<path class="st0" d="M271.8,494.8v7.3c0,8.3,6.7,15,15,15h22.4c8.3,0,15-6.7,15-15v-7.3c16.9-1.2,30.4-15.2,30.4-32.4h-113
		C241.4,479.6,254.9,493.6,271.8,494.8z"/>
	<g>
		<path class="st0" d="M359.8,404.1H236.1c-2.8,0-5.4-1.5-6.8-3.9c-12.7-21.7-27.8-43.8-43.5-63.7c-20-25.4-30.5-55.8-30.5-88.1
			c0-78.7,64-142.7,142.7-142.7s142.7,64,142.7,142.7c0,32.2-10.6,62.7-30.5,88c-16,20.3-30.6,41.7-43.5,63.7
			C365.2,402.6,362.6,404.1,359.8,404.1z M240.7,388.2h114.6c12.7-21.2,27-41.9,42.5-61.6c17.8-22.5,27.1-49.6,27.1-78.2
			c0-69.9-56.9-126.9-126.9-126.9s-126.9,56.9-126.9,126.9c0,28.7,9.4,55.7,27.1,78.3C213.5,346,228.1,367.2,240.7,388.2z"/>
	</g>
	<g>
		<path class="st0" d="M311.6,404.1h-25.8c-3.6,0-6.8-2.4-7.7-6l-44.3-172.8c-0.8-3.3,0.5-6.7,3.3-8.6s6.5-1.7,9.2,0.3l52.4,40
			l51-38.3c2.7-2,6.4-2.2,9.2-0.3c2.8,1.9,4.1,5.3,3.3,8.5l-42.9,171C318.4,401.6,315.2,404.1,311.6,404.1z M291.9,388.2h13.5
			l36-143.4l-37.9,28.5c-2.9,2.2-6.7,2.1-9.6,0l-39.1-29.8L291.9,388.2z"/>
	</g>
</g>
</svg>
