<?xml version="1.0" encoding="utf-8"?>
<!-- Generator: Adobe Illustrator 25.0.0, SVG Export Plug-In . SVG Version: 6.00 Build 0)  -->
<svg version="1.1" id="Capa_1" xmlns="http://www.w3.org/2000/svg" xmlns:xlink="http://www.w3.org/1999/xlink" x="0px" y="0px"
	 viewBox="0 0 600 600" style="enable-background:new 0 0 600 600;" xml:space="preserve">
<style type="text/css">
	.st0{fill:#006dd9;}
</style>
<g>
	<g>
		<g>
			<path class="st0" d="M361.9,253.3c0,28.3-19.3,52.3-45.9,58.9V326c0,8.4-6.7,15.1-14.8,15.1c-8.4,0-15.1-6.7-15.1-15.1v-14.2
				c-25.7-6.7-45-30.5-45-58.5c0-8.1,6.7-15.1,15.1-15.1c8.4,0,15.1,7,15.1,15.1c0,11.2,6.1,20.9,14.8,26.3V221
				c-25.7-6.7-45-30.2-45-58.4c0-27.7,19.3-51.7,45-58.2V92.3c0-8.1,6.7-14.8,15.1-14.8c8.1,0,14.8,6.7,14.8,14.8v11.8
				c26.6,6.7,45.9,30.5,45.9,58.5c0,8.4-6.7,15.1-15.1,15.1c-8.1,0-15.1-6.7-15.1-15.1c0-11.5-6.4-21.5-15.7-26.6v58.5
				C342.6,201.3,361.9,225.2,361.9,253.3z M286.1,188.6v-52c-8.7,5.4-14.8,15.1-14.8,26C271.3,173.5,277.3,183.2,286.1,188.6z
				 M331.7,253.3c0-11.5-6.4-21.5-15.7-26.6V280C325.3,274.7,331.7,264.8,331.7,253.3z"/>
		</g>
	</g>
	<g>
		<path class="st0" d="M447.2,593c-5.6,0-10.7-3.1-13.2-7.9l-22.4-41.7L389,585.1c-5.1,9.7-21.3,9.8-26.5,0L339,541.5l-23.5,43.6
			c-2.5,4.7-7.6,7.6-13.2,7.6l0,0c-5.6,0-10.7-3-13.2-7.6l-23.2-43l-23.2,43c-2.5,4.7-7.5,7.6-13.2,7.6l0,0c-5.6,0-10.7-3-13.2-7.6
			l-23.5-43.6l-23.5,43.6c-5,9.3-21.5,9.3-26.5,0l-36.3-67.4c-1.2-2.2-1.9-4.7-1.9-7.2V21.1c0-8.3,6.7-15.1,15.1-15.1h363.9
			c8.3,0,15.1,6.7,15.1,15.1v489.4c0,2.5-0.6,5-1.9,7.2l-36.3,67.4C457.8,589.9,452.7,593,447.2,593z M411.4,520.8L411.4,520.8
			c2.6,0,5.1,1.4,6.4,3.7l29.4,53.9c0.2,0,0.3-0.2,0.5-0.3l36.3-67.4l0.2-489.7l-364.5-0.6L119,510.5l36.4,67.7l30.8-55.4
			c1.2-2.3,3.7-3.7,6.4-3.7l0,0c2.6,0,5.1,1.4,6.4,3.7l29.9,55.4l30.5-55c2.5-4.7,10.3-4.7,12.8,0l29.6,55l30.8-55.4
			c2.5-4.7,10.3-4.7,12.8,0l29.9,55.4l29.7-53.7C406.3,522.2,408.8,520.8,411.4,520.8z"/>
	</g>
	<path class="st0" d="M414.5,393.5H188.4c-4,0-7.3-3.3-7.3-7.3s3.3-7.3,7.3-7.3h226.1c4,0,7.3,3.3,7.3,7.3S418.6,393.5,414.5,393.5z
		"/>
	<path class="st0" d="M414.5,446.5H188.4c-4,0-7.3-3.3-7.3-7.3s3.3-7.3,7.3-7.3h226.1c4,0,7.3,3.3,7.3,7.3S418.6,446.5,414.5,446.5z
		"/>
</g>
</svg>
