<?xml version="1.0" encoding="utf-8"?>
<!-- Generator: Adobe Illustrator 25.0.0, SVG Export Plug-In . SVG Version: 6.00 Build 0)  -->
<svg version="1.1" id="Capa_1" xmlns="http://www.w3.org/2000/svg" xmlns:xlink="http://www.w3.org/1999/xlink" x="0px" y="0px"
	 viewBox="0 0 600 600" style="enable-background:new 0 0 600 600;" xml:space="preserve">
<style type="text/css">
	.st0{fill:#FFFFFF;}
</style>
<g>
	<g>
		<path class="st0" d="M376.5,596H99.4c-24.1,0-43.8-19.6-43.8-43.8V47.8C55.6,23.7,75.2,4,99.4,4h399.2c24.1,0,43.8,19.6,43.8,43.8
			v382.4C542.4,521.6,467.9,596,376.5,596z M99.4,24c-13.1,0-23.8,10.6-23.8,23.8v504.5c0,13.1,10.6,23.8,23.8,23.8h277.1
			c80.5,0,145.9-65.4,145.9-145.9V47.8c0-13.1-10.6-23.8-23.8-23.8H99.4z"/>
		<path class="st0" d="M395.6,594.9c-5.3,0-9.7-4.2-10-9.5l-4.1-98.8c-0.6-17.4,12.2-32.4,29.4-34.1c13.8-1.4,28.8-2.7,43.7-3.9
			c25.8-2.2,52.4-4.4,72.3-7.7c5.9-0.8,10.6,2.8,11.4,8.3s-2.8,10.6-8.3,11.4c-20.5,3.3-47.6,5.6-73.7,7.8
			c-14.9,1.3-29.7,2.5-43.4,3.9c-6.7,0.6-11.9,6.6-11.6,13.3l4.1,98.8c0.2,5.5-4.1,10.2-9.5,10.5
			C395.9,594.9,395.7,594.9,395.6,594.9z"/>
	</g>
	<path class="st0" d="M484.8,392.7h-195c-5.5,0-10-4.5-10-10c0-5.5,4.5-10,10-10h195c5.5,0,10,4.5,10,10
		C494.8,388.1,490.3,392.7,484.8,392.7z"/>
	<path class="st0" d="M360.5,220.5H135.7c-5.5,0-10-4.5-10-10c0-5.5,4.5-10,10-10h224.6c5.5,0,10,4.5,10,10
		C370.4,215.9,366,220.5,360.5,220.5z"/>
	<path class="st0" d="M486.2,220.5h-63.6c-5.5,0-10-4.5-10-10c0-5.5,4.5-10,10-10h63.6c5.5,0,10,4.5,10,10
		C496.2,215.9,491.7,220.5,486.2,220.5z"/>
	<path class="st0" d="M484.8,290.8H137.6c-5.5,0-10-4.5-10-10c0-5.5,4.5-10,10-10H485c5.5,0,10,4.5,10,10
		C495,286.2,490.3,290.8,484.8,290.8z"/>
	<path class="st0" d="M309,146.4H95.8c-5.5,0-10-4.5-10-10V72.2c0-5.5,4.5-10,10-10h213.4c5.5,0,10,4.5,10,10v64.2
		C319,142.1,314.7,146.4,309,146.4z M105.8,126.6h193.3V82.4H105.8V126.6z"/>
	<g>
		<g>
			<path class="st0" d="M259.2,395.8c0,11.4-7.8,21.1-18.5,23.8v5.6c0,3.4-2.7,6.1-5.9,6.1c-3.4,0-6.1-2.7-6.1-6.1v-5.8
				c-10.3-2.7-18.2-12.4-18.2-23.6c0-3.3,2.7-6.1,6.1-6.1c3.4,0,6.1,2.8,6.1,6.1c0,4.5,2.3,8.5,5.9,10.6v-23.6
				c-10.3-2.7-18.2-12.2-18.2-23.5c0-11.3,7.8-20.8,18.2-23.5V331c0-3.3,2.7-5.9,6.1-5.9c3.3,0,5.9,2.7,5.9,5.9v4.7
				c10.8,2.7,18.5,12.4,18.5,23.6c0,3.4-2.7,6.1-6.1,6.1c-3.3,0-6.1-2.7-6.1-6.1c0-4.7-2.5-8.6-6.3-10.8v23.6
				C251.4,374.8,259.2,384.4,259.2,395.8z M228.7,369.7v-21c-3.6,2.2-5.9,6.1-5.9,10.5C222.8,363.6,225.1,367.5,228.7,369.7z
				 M247,395.8c0-4.7-2.5-8.6-6.3-10.6v21.6C244.5,404.4,247,400.3,247,395.8z"/>
		</g>
	</g>
</g>
</svg>
