<?xml version="1.0" encoding="utf-8"?>
<!-- Generator: Adobe Illustrator 25.0.0, SVG Export Plug-In . SVG Version: 6.00 Build 0)  -->
<svg version="1.1" id="Capa_1" xmlns="http://www.w3.org/2000/svg" xmlns:xlink="http://www.w3.org/1999/xlink" x="0px" y="0px"
	 viewBox="0 0 600 600" style="enable-background:new 0 0 600 600;" xml:space="preserve">
<style type="text/css">
	.st0{fill:#ffffff;}
</style>
<g>
	<path class="st0" d="M303.2,255.7c-40.3,0-73-32.8-73-73c0-40.3,32.8-73.1,73-73.1c40.3,0,73.1,32.8,73.1,73.1
		C376.3,222.9,343.5,255.7,303.2,255.7z M303.2,120.1c-34.5,0-62.6,28.1-62.6,62.6c0,34.5,28.1,62.6,62.6,62.6
		c34.5,0,62.6-28.1,62.6-62.6C365.9,148.2,337.8,120.1,303.2,120.1z"/>
	<path class="st0" d="M426.7,427.7c-2.3,0-4.4-1.5-5-3.9c-0.8-2.8,0.9-5.7,3.7-6.4c17.2-4.7,14-19.3,13.6-21
		c-0.2-1.2-11.5-72.7-39.9-96.3c-18.7-15.6-49.9-19.5-50.2-19.6c-0.3,0-48-3.6-81.8-1.8c-33.1,1.7-58.7,17.3-68.4,31.1
		c-10.3,14.6-31.6,80.9-32.6,94.6c-0.7,10,15.6,11.5,15.8,11.5c2.9,0.2,5,2.8,4.8,5.7c-0.3,2.9-2.8,5.2-5.6,4.8
		c-9.3-0.8-26.4-6.5-25.3-22.7c1.1-15.3,22.9-83.5,34.4-99.9c11.5-16.3,39.6-33.6,76.4-35.5c34.5-1.7,82.8,1.8,83.3,1.8
		c1.6,0.2,34.8,4.3,55.9,21.9c31.4,26.2,43,99.2,43.4,102.3c2.2,8.6,0.8,27.2-21.1,33.1C427.6,427.6,427.2,427.7,426.7,427.7z"/>
	<path class="st0" d="M388.9,489.6H217.1c-2.9,0-5.2-2.3-5.2-5.2v-23c0-2.9,2.3-5.2,5.2-5.2c2.9,0,5.2,2.3,5.2,5.2v17.7h161.4v-19.6
		c0-2.9,2.3-5.2,5.2-5.2s5.2,2.3,5.2,5.2v24.8C394.1,487.2,391.8,489.6,388.9,489.6z"/>
	<path class="st0" d="M388.9,391c-2.9,0-5.2-2.3-5.2-5.2v-44.3h-55.3l-4.7,2.1c-12.8,5.7-28,5.6-40.9-0.2l-4.2-1.9h-56.3v43.4
		c0,2.9-2.3,5.2-5.2,5.2c-2.9,0-5.2-2.3-5.2-5.2v-48.6c0-2.9,2.3-5.2,5.2-5.2h62.7c0.7,0,1.5,0.2,2.2,0.5l5.2,2.4
		c10.1,4.5,22.2,4.6,32.3,0.1l5.7-2.5c0.7-0.3,1.4-0.4,2.1-0.4h61.6c2.9,0,5.2,2.3,5.2,5.2v49.5C394.1,388.6,391.8,391,388.9,391z"
		/>
	<path class="st0" d="M388.9,460.9H217.1c-2.9,0-5.2-2.3-5.2-5.2s2.3-5.2,5.2-5.2h171.8c2.9,0,5.2,2.3,5.2,5.2
		S391.8,460.9,388.9,460.9z"/>
	<path class="st0" d="M206.6,460.9c-1,0-2,0-2.9-0.1l-2.2,0c-9.9,0-18.2-6.9-21.9-18c-3.2-9.9-4.4-38.5,8.1-48.9
		c10.9-9.1,23.7-12.2,31.8-7.8c0.7,0.4,1.2,0.9,1.7,1.4c2.8,3.7,2.7,8,1.3,11.2c4.5,1.4,9.1,3.5,13,6.8c4.3,3.6,7.8,13.2,8,21.9
		c0.2,8.4-2.5,15.4-7.8,20.2C222.8,459.5,213.3,460.9,206.6,460.9z M200.4,397.8c-1.9,1.1-3.9,2.4-5.9,4.1
		c-7.4,6.1-7.8,28.7-4.9,37.6c2.3,6.9,6.6,10.8,12,10.8l2.5,0.1c6,0.1,12.8,0.4,24.6-10.4c2.9-2.7,4.4-6.6,4.4-11.6
		c0-7.1-3-13.6-4.3-14.7c-7.3-6.1-18.6-6.8-22.8-6.9c-1.2,0.1-1.9,0-2.2,0c-2.8-0.2-4.9-2.5-4.9-5.2
		C198.9,400.1,199.5,398.8,200.4,397.8z M211,394.5c-2.1,0-4.7,0.6-7.6,1.8c0.2,0,0-0.1,2-0.1c0.1,0,0.2,0,0.3,0
		c1.5-0.1,4.1-0.4,6.6-1.6C212,394.5,211.5,394.5,211,394.5z M212.9,394.8L212.9,394.8L212.9,394.8z"/>
	<path class="st0" d="M398.6,460.9c-6.7,0-16.2-1.3-29.2-13.2c-5.3-4.9-8-11.9-7.8-20.2c0.2-8.7,3.7-18.3,8-21.9
		c4-3.3,8.6-5.4,13-6.8c-1.4-3.2-1.5-7.5,1.3-11.2c0.4-0.6,1-1.1,1.7-1.4c8.1-4.4,20.9-1.3,31.8,7.8c12.5,10.4,11.3,39,8.1,48.9
		c-3.6,11.1-12,18-21.9,18l-2.2,0C400.6,460.8,399.6,460.9,398.6,460.9z M399.2,406.7c-4.2,0.1-15.6,0.8-22.9,6.9
		c-1.3,1.2-4.3,7.6-4.3,14.7c0,5,1.5,9,4.4,11.6c11.8,10.8,18.6,10.5,24.6,10.4l2.5-0.1c5.3,0,9.7-3.9,12-10.8
		c2.9-8.9,2.5-31.4-4.9-37.6c-2-1.7-4-3-5.9-4.1c0.9,0.9,1.5,2.2,1.5,3.7c0,2.8-2.2,5.1-4.9,5.2
		C401.1,406.7,400.4,406.8,399.2,406.7z M399.8,396.2c2,0,1.8,0,2,0.1c-3.5-1.5-6.5-2-8.9-1.7c2.5,1.2,5.1,1.5,6.6,1.6
		C399.6,396.2,399.7,396.2,399.8,396.2z"/>
	<path class="st0" d="M269.8,341.4h-47.3c-2.9,0-5.2-2.3-5.2-5.2v-35.1c0-2.9,2.3-5.2,5.2-5.2h47.3c2.9,0,5.2,2.3,5.2,5.2v35.1
		C275,339.1,272.6,341.4,269.8,341.4z M227.7,331h36.8v-24.7h-36.8V331z"/>
	<path class="st0" d="M313.3,344.4c-1.1,0-2.2-0.3-3.1-1c-1.3-1-2.1-2.6-2.1-4.2v-38.1c0-2.9,2.3-5.2,5.2-5.2h65.4
		c2.9,0,5.2,2.3,5.2,5.2v35.1c0,2.9-2.3,5.2-5.2,5.2h-54.9l-9,2.7C314.3,344.3,313.8,344.4,313.3,344.4z M318.5,306.3v25.8l3-0.9
		c0.5-0.1,1-0.2,1.5-0.2h50.4v-24.7H318.5z"/>
	<path class="st0" d="M292.5,344.4c-0.6,0-1.2-0.1-1.7-0.3c-1-0.3-2-0.6-2.8-0.8c-3.4-0.9-9.1-2.5-9.1-10v-21.5
		c0-2.9,2.3-5.2,5.2-5.2h13.5c2.9,0,5.2,2.3,5.2,5.2v26.6c0,2.6-1.8,4.7-4.3,5.1l-5.1,0.9C293.1,344.4,292.8,344.4,292.5,344.4z
		 M297.6,338.3h0.1H297.6z M289.4,332.9c0.3,0,0.8,0.1,1.3,0.3c0.5,0.1,1.1,0.3,1.7,0.5v-16.7h-3.1v16
		C289.4,332.9,289.4,332.9,289.4,332.9z"/>
	<g>
		<g>
			<path class="st0" d="M321.6,414.9c0,8.9-6.1,16.4-14.4,18.5v4.4c0,2.7-2.1,4.8-4.7,4.8c-2.6,0-4.7-2.1-4.7-4.8v-4.5
				c-8.1-2.1-14.1-9.6-14.1-18.4c0-2.6,2.1-4.7,4.7-4.7c2.7,0,4.8,2.2,4.8,4.7c0,3.5,1.9,6.5,4.7,8.3v-18.4
				c-8.1-2.1-14.1-9.5-14.1-18.3c0-8.7,6.1-16.2,14.1-18.3v-3.8c0-2.6,2.1-4.7,4.7-4.7c2.6,0,4.7,2.1,4.7,4.7v3.7
				c8.4,2.1,14.4,9.6,14.4,18.4c0,2.6-2.1,4.7-4.8,4.7c-2.6,0-4.8-2.1-4.8-4.7c0-3.6-2-6.7-4.9-8.4v18.4
				C315.5,398.6,321.6,406.1,321.6,414.9z M297.8,394.6v-16.3c-2.8,1.7-4.7,4.7-4.7,8.2C293.1,389.9,295,392.9,297.8,394.6z
				 M312.1,414.9c0-3.6-2-6.7-4.9-8.3v16.8C310.1,421.6,312.1,418.5,312.1,414.9z"/>
		</g>
	</g>
</g>
</svg>
