<?xml version="1.0" encoding="utf-8"?>
<!-- Generator: Adobe Illustrator 25.0.0, SVG Export Plug-In . SVG Version: 6.00 Build 0)  -->
<svg version="1.1" id="Capa_1" xmlns="http://www.w3.org/2000/svg" xmlns:xlink="http://www.w3.org/1999/xlink" x="0px" y="0px"
	 viewBox="0 0 600 600" style="enable-background:new 0 0 600 600;" xml:space="preserve">
<style type="text/css">
	.st0{fill:#FFFFFF;}
	.st1{font-family:'Arciform';}
	.st2{font-size:113.8489px;}
</style>
<g>
	<g>
		<path class="st0" d="M261.7,472.1H69c-5,0-9-4-9-9V16c0-5,4-9,9-9h358.9c5,0,9,4,9,9v307.3c0,5-4,9-9,9c-5,0-9-4-9-9V25.1H78.1
			v429h183.7c5,0,9,4,9,9C270.8,468.1,266.6,472.1,261.7,472.1z"/>
		<path class="st0" d="M311.2,83H179.9c-5,0-9-4-9-9c0-5,4-9,9-9h131.3c5,0,9,4,9,9C320.2,79,316.2,83,311.2,83z"/>
		<path class="st0" d="M277.9,163H126.6c-5,0-9-4-9-9s4-9,9-9h151.3c5,0,9,4,9,9C286.9,158.9,282.9,163,277.9,163z"/>
		<path class="st0" d="M362.5,163h-42.7c-5,0-9-4-9-9s4-9,9-9h42.7c5,0,9,4,9,9C371.6,158.9,367.6,163,362.5,163z"/>
		<path class="st0" d="M361.6,242H127.9c-5,0-9-4-9-9c0-5,4-9,9-9h233.7c5,0,9,4,9,9C370.7,237.9,366.5,242,361.6,242z"/>
		<path class="st0" d="M320.7,363.5h-62.3c-5,0-9-4-9-9c0-5,4-9,9-9h62.3c5,0,9,4,9,9C329.7,359.5,325.6,363.5,320.7,363.5z"/>
		<text transform="matrix(1 0 0 1 158.3247 384.8965)" class="st0 st1 st2">$</text>
	</g>
	<g>
		<path class="st0" d="M415.3,594c-68.1,0-123.8-55.4-123.8-123.8S347,346.5,415.3,346.5s123.8,55.4,123.8,123.8
			S483.6,594,415.3,594z M415.3,364.6c-58.2,0-105.6,47.4-105.6,105.6c0,58.2,47.4,105.6,105.6,105.6S521,528.5,521,470.2
			S473.6,364.6,415.3,364.6z"/>
		<path class="st0" d="M402.6,517.6c-2.3,0-4.6-0.9-6.4-2.6L358,476.8c-3.6-3.6-3.6-9.3,0-12.9c3.6-3.6,9.3-3.6,12.9,0l31.3,31.3
			l57.3-68.9c3.3-3.9,9-4.3,12.7-1.2c3.9,3.3,4.3,8.8,1.2,12.7l-63.7,76.5c-1.5,2-4,3.1-6.5,3.3
			C402.9,517.6,402.8,517.6,402.6,517.6z"/>
	</g>
</g>
</svg>
