<?xml version="1.0" encoding="utf-8"?>
<!-- Generator: Adobe Illustrator 25.0.0, SVG Export Plug-In . SVG Version: 6.00 Build 0)  -->
<svg version="1.1" id="Capa_1" xmlns="http://www.w3.org/2000/svg" xmlns:xlink="http://www.w3.org/1999/xlink" x="0px" y="0px"
	 viewBox="0 0 600 600" style="enable-background:new 0 0 600 600;" xml:space="preserve">
<style type="text/css">
	.st0{fill:#006dd9;}
</style>
<g>
	<path class="st0" d="M498.3,233.6l-29.8-102c-1.4-4.7-6.6-7.6-11.7-6.3c-5,1.3-8,6.1-6.6,11l29.8,102c1.7,6.1,0.9,12.3-2.2,17.3
		L280.5,567.3c-3.3,5.4-9.1,9-16.1,10.2c-7.4,1.4-15.3,0-22.1-3.8L71.9,478.6c-13.9-7.7-19.4-23.3-12.1-34.7L257,132.2
		c3.2-5,8.7-8.7,15.1-10.1L417.6,90c6-1.3,12.6,0.5,17.3,4.4c-8.8,12.6-18.6,23.8-27.4,31.2c-3.9,3.3-4.3,9-0.6,12.6
		c1.9,1.9,4.4,3,7.1,3c2.2,0,4.6-0.8,6.3-2.4c12.5-10.6,25.5-26.3,37-44.5c11.3-18,19.9-36.3,23.8-51.4c4.9-19.1,2.5-31.5-7.3-37
		c-22.2-12.5-54.5,27.4-64,40c-3,4.1-2,9.6,2.4,12.5c4.3,2.8,10.2,1.9,13.2-2.2c19.5-26.2,34.4-34.2,38.6-34.7
		c2,4.7-0.6,26.2-19.1,57.4c-9-6.3-20.7-8.8-31.7-6.5l-145.5,32.2c-11.7,2.5-21.3,9.1-27.1,18.4L43.4,434.7
		c-12.6,19.9-4.1,46.3,18.8,59.1l170.4,95.2c8,4.6,17.2,6.9,26.2,6.9c3.2,0,6.3-0.3,9.5-0.9c12.3-2.4,22.5-9,28.7-18.8l197.2-311.6
		C500.1,255.5,501.5,244.5,498.3,233.6z"/>
	<path class="st0" d="M537.3,210.4L498,131c-2.2-4.4-7.9-6.5-12.6-4.4c-4.7,2-6.8,7.4-4.6,11.8l39.3,79.4c3,6,3.3,12.8,1.1,19.1
		L402.8,569.8c-1.1,3.2-3.5,5.7-6.6,7.1c-3.2,1.4-6.8,1.6-10.1,0.5l-46-16.1c-4.9-1.7-10.4,0.6-12.3,5.2c-1.9,4.6,0.6,9.8,5.7,11.5
		l46,16.1c3.6,1.3,7.4,1.9,11.2,1.9c4.7,0,9.3-0.9,13.7-3c7.9-3.5,13.7-9.8,16.4-17.5l118.4-332.9
		C542.9,231.9,542.2,220.5,537.3,210.4z"/>
	<path class="st0" d="M411,176.7c-18.9,0-34.4-15.4-34.4-34.4c0-19.1,15.4-34.5,34.4-34.5c18.9,0,34.4,15.4,34.4,34.5
		C445.5,161.2,430.1,176.7,411,176.7z M411,125.3c-9.3,0-16.9,7.6-16.9,16.9S401.7,159,411,159c9.3,0,16.9-7.6,16.9-16.9
		S420.3,125.3,411,125.3z"/>
</g>
</svg>
