<?xml version="1.0" encoding="utf-8"?>
<!-- Generator: Adobe Illustrator 25.0.0, SVG Export Plug-In . SVG Version: 6.00 Build 0)  -->
<svg version="1.1" id="Capa_1" xmlns="http://www.w3.org/2000/svg" xmlns:xlink="http://www.w3.org/1999/xlink" x="0px" y="0px"
	 viewBox="0 0 600 600" style="enable-background:new 0 0 600 600;" xml:space="preserve">
<style type="text/css">
	.st0{fill:#006dd9;}
	.st1{font-family:'ArialRoundedMTBold';}
	.st2{font-size:86.252px;}
	.st3{fill:none;}
	.st4{font-family:'Arciform';}
	.st5{font-size:187.6311px;}
</style>
<g>
	<g>
		<text transform="matrix(0.9664 2.486327e-04 -2.572879e-04 1 196.2597 376.423)" class="st0 st1 st2">$</text>
		<path class="st0" d="M416.7,462.3C416.7,462.3,416.5,462.3,416.7,462.3l-394.9-0.1c-9.9,0-18-8.4-18-18.4V245.9
			c0-5,1.8-9.5,5.2-13c3.4-3.5,7.9-5.4,12.6-5.5h0.1l394.7,0.1c9.9,0,18,8.4,18,18.4v197.9C434.5,453.9,426.6,462.2,416.7,462.3z
			 M21.8,240.5c-1.3,0-2.4,0.6-3.3,1.4c-1,1-1.6,2.4-1.6,3.8v197.9c0,2.8,2.1,5.2,4.8,5.2l394.7,0.1l0,0c2.7,0,4.8-2.4,4.8-5.2
			V267.4l0,0v-21.5c0-2.8-2.1-5.2-4.8-5.2L21.8,240.5L21.8,240.5z"/>
		<path class="st0" d="M358.7,430L358.7,430l-279.2-0.1c-1.7,0-3.4-0.7-4.7-2c-1.3-1.3-2-3-2-4.7c0-9.6-3.5-18.6-10.1-25.4
			c-6.5-6.7-15-10.3-24.2-10.3c-3.7,0-6.7-3-6.7-6.7v-72.4c0-1.7,0.7-3.4,2-4.7s3.7-1.6,4.7-2c0.1,0,0.1,0,0.3,0
			c18.8-0.1,34.1-16.1,34.1-35.7c0-1.7,0.7-3.4,2-4.7s2.8-1.7,4.7-2l279,0.1c3.7,0,6.7,3,6.7,6.7c0,3.7-3,6.7-6.5,6.7l0,0H86
			c-2.8,21.7-19.5,38.8-40.5,41.9v60.1c10.2,1.4,19.7,6.2,27.1,14c7.4,7.6,12,17.4,13.5,27.9l272.9,0.1c3.7,0,6.7,3,6.7,6.7
			C365.4,427,362.4,430,358.7,430z"/>
		<path class="st0" d="M358.9,429.2C358.7,429.2,358.7,429.2,358.9,429.2c-3.7,0-6.7-3-6.7-6.7c0.1-23.8,18.4-42.8,42.6-45.6
			l0.3-59.9c-19.7-3-35.8-18.4-39.8-38.9l-2.8-9.9c-1-3.5,1-7.2,4.5-8.2c3.7-1,7.2,1,8.2,4.5l3.1,10.5c3.3,17.1,17.4,29.2,33.6,29.3
			c3.7,0,6.7,3,6.7,6.7l-0.4,72.2c0,1.7-0.7,3.4-2,4.7c-1.3,1.3-2.7,2.7-4.7,2c-20.1-0.3-35.7,14-35.8,32.7
			C365.4,426.2,362.4,429.2,358.9,429.2z"/>
		<path class="st0" d="M218.8,412c-2,0-4.1-0.1-6.2-0.3c-17.4-1.6-33.3-9.8-44.6-23.1c-11.3-13.5-16.7-30.5-15.2-48
			c1.6-17.4,9.8-33.3,23.1-44.6c13.5-11.3,30.5-16.7,48-15.2c17.4,1.6,33.3,9.8,44.6,23.1c11.3,13.5,16.7,30.5,15.2,48
			c-1.6,17.4-9.8,33.3-23.1,44.6C248.7,406.5,234.1,411.9,218.8,412z M217.8,293.9c-12.2,0.1-23.9,4.4-33.3,12.3
			c-10.8,9.1-17.3,21.7-18.6,35.7c-2.4,28.8,19,54.2,47.9,56.8c28.3,2.5,54.2-19,56.8-47.9c2.4-28.8-19-54.2-47.9-56.8
			C221.1,293.9,219.4,293.9,217.8,293.9z"/>
	</g>
	<path class="st3" d="M160.2,229.4l0.6-1.8h-2.3C159,228.2,159.3,228.7,160.2,229.4z"/>
	<path class="st0" d="M177.6,230c1.4,0.4,2.7,0.3,3.8-0.4c0.8-0.4,1.1-1.3,1.6-2h-8.4C175.2,228.7,176.2,229.6,177.6,230z"/>
	<path class="st0" d="M483.4,325.1c-12.9,0.1-25.6-2-37.8-6.2c-3.5-1.1-5.2-5-4.1-8.4c1.1-3.4,5-5.4,8.4-4.1
		c10.8,3.7,22,5.5,33.4,5.5c55.1-0.4,99.4-45.5,99.1-100.4c-0.4-55.1-45.5-99.6-100.4-99.1c-50.7,0.3-93.1,38.5-98.6,88.8
		c-0.4,3.7-3.4,6.2-7.2,5.8c-3.7-0.4-6.2-3.7-5.8-7.2C376.6,142.6,424.5,99.4,482,99c62.3-0.4,113.3,50,113.7,112.3
		S545.7,324.6,483.4,325.1z"/>
	<text transform="matrix(1 -6.682539e-03 6.682539e-03 1 466.1697 279.1861)" class="st0 st4 st5">!</text>
</g>
</svg>
