<?xml version="1.0" encoding="utf-8"?>
<!-- Generator: Adobe Illustrator 25.0.0, SVG Export Plug-In . SVG Version: 6.00 Build 0)  -->
<svg version="1.1" id="Capa_1" xmlns="http://www.w3.org/2000/svg" xmlns:xlink="http://www.w3.org/1999/xlink" x="0px" y="0px"
	 viewBox="0 0 600 600" style="enable-background:new 0 0 600 600;" xml:space="preserve">
<style type="text/css">
	.st0{fill:#006dd9;}
</style>
<g>
	<g>
		<path class="st0" d="M228.9,596.3c-1.4,0-3-0.3-4.3-1c-3.2-1.6-5.2-4.9-5.2-8.4L218,459.7c0-1.4,0.3-2.9,1-4.1L430.1,7.3
			c1.1-2.4,3-4.1,5.4-4.9s5.1-0.6,7.3,0.5l109.8,53c4.8,2.2,6.8,7.9,4.4,12.7L342.8,515.1c-0.6,1.4-1.7,2.7-3,3.6l-105.2,75.8
			C232.7,595.7,230.8,596.3,228.9,596.3z M237.2,461.6l1.1,106.6l88.2-63.6L535.7,68.7l-92.5-44.6L237.2,461.6z M334.1,510.9h0.2
			H334.1z"/>
		<path class="st0" d="M514.2,147c-1.4,0-2.9-0.3-4.1-1L403.4,94.7c-4.8-2.2-6.8-8.1-4.4-12.8c2.4-4.8,8.1-6.8,12.8-4.4l106.6,51.4
			c4.8,2.2,6.8,8.1,4.4,12.8C521.2,145,517.8,147,514.2,147z"/>
		<path class="st0" d="M344.1,499.7c-1.4,0-2.9-0.3-4.1-1l-106.6-51.4c-4.8-2.2-6.8-8.1-4.4-12.8c2.4-4.8,7.9-6.8,12.8-4.4
			l106.6,51.4c4.8,2.2,6.8,8.1,4.4,12.8C351.1,497.6,347.8,499.7,344.1,499.7z"/>
	</g>
	<path class="st0" d="M228.9,597.2H29.8c-5.2,0-9.5-4.3-9.5-9.5c0-5.2,4.3-9.5,9.5-9.5h199.1c5.2,0,9.5,4.3,9.5,9.5
		C238.6,593,234.2,597.2,228.9,597.2z"/>
</g>
</svg>
