<?xml version="1.0" encoding="utf-8"?>
<!-- Generator: Adobe Illustrator 25.0.0, SVG Export Plug-In . SVG Version: 6.00 Build 0)  -->
<svg version="1.1" id="Capa_1" xmlns="http://www.w3.org/2000/svg" xmlns:xlink="http://www.w3.org/1999/xlink" x="0px" y="0px"
	 viewBox="0 0 600 600" style="enable-background:new 0 0 600 600;" xml:space="preserve">
<style type="text/css">
	.st0{fill:#006dd9;}
</style>
<path class="st0" d="M340.1,596.2h-81.2c-3.4,0-6.6-2.3-7.3-5.6l-12.6-50.4c-23.3-5.9-45.4-15.1-66-27.3l-44.6,26.7
	c-3,1.7-6.7,1.2-9.2-1.1L61.6,481c-2.5-2.5-3-6.2-1.1-9.2l26.7-44.6c-12.3-20.6-21.5-42.8-27.3-66L9.5,348.5
	c-3.3-0.8-5.6-3.9-5.6-7.3V260c0-3.4,2.3-6.6,5.6-7.3L59.9,240c5.9-23.3,15.1-45.4,27.3-66l-26.7-44.6c-1.7-3-1.2-6.7,1.1-9.2
	l57.4-57.4c2.3-2.5,6.2-3,9.2-1.1l44.6,26.7c20.6-12.3,42.8-21.5,66-27.3l12.6-50.4c0.8-3.3,3.9-5.6,7.3-5.6h81.2
	c3.4,0,6.6,2.3,7.3,5.6L360.1,61c23.3,5.9,45.4,15.1,66,27.3l44.6-26.7c3-1.7,6.7-1.2,9.2,1.1l57.4,57.4c2.5,2.5,3,6.2,1.1,9.2
	L511.8,174c12.3,20.6,21.5,42.8,27.3,66l50.4,12.6c3.3,0.8,5.6,3.9,5.6,7.3v81.2c0,3.4-2.3,6.6-5.6,7.3l-50.4,12.6
	c-5.9,23.3-15.1,45.4-27.3,66l26.7,44.6c1.7,3,1.2,6.7-1.1,9.2l-57.4,57.4c-2.3,2.3-6.2,3-9.2,1.1l-44.6-26.7
	c-20.6,12.3-42.8,21.5-66,27.3l-12.6,50.4C346.5,593.9,343.5,596.2,340.1,596.2z M264.9,581.1h69.5l12.3-49.2
	c0.6-2.8,2.8-4.8,5.6-5.5c24.7-5.8,48.2-15.6,69.9-29c2.3-1.6,5.5-1.6,7.8-0.2l43.5,26.1l49-49l-26.1-43.5c-1.4-2.3-1.4-5.5,0.2-7.8
	c13.4-21.7,23.3-45.3,29-69.9c0.6-2.8,2.8-5,5.5-5.6l49.2-12.3v-69.5l-49.2-12.3c-2.8-0.6-4.8-2.8-5.5-5.6
	c-5.8-24.7-15.6-48.2-29-69.9c-1.6-2.3-1.6-5.5-0.2-7.8l26.1-43.5l-49-49L430,103.5c-2.3,1.4-5.5,1.4-7.8-0.2
	c-21.7-13.4-45.3-23.3-69.9-29c-2.8-0.6-5-2.8-5.6-5.5l-12.3-49.2h-69.5l-12.3,49.2c-0.6,2.8-2.8,4.8-5.6,5.5
	c-24.7,5.8-48.2,15.6-69.9,29c-2.3,1.6-5.5,1.6-7.8,0.2l-43.5-26.1l-49,49l26.1,43.5c1.4,2.3,1.4,5.5-0.2,7.8
	c-13.4,21.7-23.3,45.3-29,69.9c-0.6,2.8-2.8,5-5.5,5.6l-49.2,12.3v69.5L68,347.4c2.8,0.6,4.8,2.8,5.5,5.6
	c5.8,24.7,15.6,48.2,29,69.9c1.6,2.3,1.6,5.5,0.2,7.8l-26.1,43.5l49,49l43.5-26.1c2.3-1.4,5.5-1.4,7.8,0.2
	c21.7,13.4,45.3,23.3,69.9,29c2.8,0.6,5,2.8,5.6,5.5L264.9,581.1z"/>
<path class="st0" d="M299.5,436.1c-74.8,0-135.6-60.9-135.6-135.6s60.9-135.6,135.6-135.6c32,0,63.1,11.4,87.4,31.8
	c3.1,2.7,3.6,7.5,0.9,10.6c-2.7,3.1-7.3,3.6-10.6,0.9c-21.7-18.3-49.3-28.4-77.7-28.4C233,179.8,179,234,179,300.3
	s54.2,120.5,120.5,120.5S420,366.6,420,300.3c0-4.2,3.4-7.5,7.5-7.5s7.5,3.4,7.5,7.5C435.1,375.2,374.3,436.1,299.5,436.1z"/>
<path class="st0" d="M299.5,383.8c-46,0-83.3-37.5-83.3-83.3c0-19.7,7-38.7,19.7-53.7c2.7-3.1,7.5-3.6,10.6-0.9
	c3.1,2.7,3.6,7.5,0.9,10.6c-10.3,12.3-16.1,27.9-16.1,44c0,37.6,30.6,68.4,68.4,68.4s68.4-30.6,68.4-68.4s-30.6-68.4-68.4-68.4
	c-4.2,0-7.5-3.4-7.5-7.5c0-4.2,3.4-7.5,7.5-7.5c46,0,83.3,37.5,83.3,83.3S345.5,383.8,299.5,383.8z"/>
</svg>
