<?xml version="1.0" encoding="utf-8"?>
<!-- Generator: Adobe Illustrator 25.0.0, SVG Export Plug-In . SVG Version: 6.00 Build 0)  -->
<svg version="1.1" id="Capa_1" xmlns="http://www.w3.org/2000/svg" xmlns:xlink="http://www.w3.org/1999/xlink" x="0px" y="0px"
	 viewBox="0 0 600 600" style="enable-background:new 0 0 600 600;" xml:space="preserve">
<style type="text/css">
	.st0{fill:#FFFFFF;}
</style>
<g>
	<path class="st0" d="M300.4,594c-2.6,0-5-1.2-6.5-3.4l-58.3-86.3H75.2c-26.8,0-48.7-21.8-48.7-48.7v-399C26.6,29.8,48.4,8,75.2,8
		h450.4c26.8,0,48.7,21.8,48.7,48.7v399c0,26.8-21.8,48.7-48.7,48.7H365.1l-58.3,86.3C305.5,592.8,303,594,300.4,594z M75.2,23.6
		c-18.3,0-33,14.9-33,33.2v399c0,18.3,14.9,33.2,33,33.2h164.6c2.6,0,5,1.2,6.5,3.4l54.1,80.1l54.1-80.1c1.4-2.2,3.9-3.4,6.5-3.4
		h164.7c18.3,0,33-14.9,33-33.2V56.7c0-18.3-14.9-33.2-33-33.2H75.2V23.6z"/>
	<g>
		<path class="st0" d="M334.9,427.6H162c-4.3,0-7.7-3.4-7.7-7.7c0-4.3,3.6-7.7,7.7-7.7h172.9c83.1,0,150.6-64.1,150.6-143
			s-67.6-143-150.6-143H162c-4.3,0-7.7-3.4-7.7-7.7s3.6-7.7,7.7-7.7h172.9c91.6,0,166.1,71.1,166.1,158.5
			C501.2,356.5,426.7,427.6,334.9,427.6z"/>
		<g>
			<g>
				<path class="st0" d="M355.2,356.6c-29,0-52.7-22.5-52.7-50c0-7,5.9-12.7,13.3-12.7c7.3,0,13.3,5.7,13.3,12.7
					c0,13.6,11.8,24.8,26,24.8c14.4,0,26-11.2,26-24.8s-11.8-24.8-26-24.8c-29,0-52.7-22.5-52.7-50s23.6-50.2,52.7-50.2
					c29,0,52.7,22.5,52.7,50.2c0,7-5.9,12.7-13.3,12.7c-7.3,0-13.3-5.7-13.3-12.7c0-13.6-11.8-24.8-26-24.8c-14.4,0-26,11.2-26,24.8
					s11.8,24.8,26,24.8c29,0,52.7,22.5,52.7,50.2C407.9,334.2,384.2,356.6,355.2,356.6z"/>
				<path class="st0" d="M355.2,206.6c-7.3,0-13.3-5.7-13.3-12.7v-16c0-7,5.9-12.7,13.3-12.7c7.4,0,13.3,5.7,13.3,12.7v16.1
					C368.5,201.1,362.5,206.6,355.2,206.6z"/>
				<path class="st0" d="M355.2,372.6c-7.3,0-13.3-5.7-13.3-12.7v-16c0-7,5.9-12.7,13.3-12.7c7.4,0,13.3,5.7,13.3,12.7v16
					C368.5,366.9,362.5,372.6,355.2,372.6z"/>
			</g>
		</g>
		<path class="st0" d="M237.8,279.6H72.3c-4.3,0-7.7-3.4-7.7-7.7c0-4.3,3.6-7.7,7.7-7.7h165.5c4.3,0,7.7,3.4,7.7,7.7
			C245.5,276.1,242.1,279.6,237.8,279.6z"/>
		<path class="st0" d="M261.8,344.7H114.6c-4.3,0-7.7-3.4-7.7-7.7c0-4.3,3.6-7.7,7.7-7.7h147.2c4.3,0,7.7,3.4,7.7,7.7
			C269.5,341.3,266,344.7,261.8,344.7z"/>
		<path class="st0" d="M261.8,214.4H114.6c-4.3,0-7.7-3.4-7.7-7.7s3.6-7.7,7.7-7.7h147.2c4.3,0,7.7,3.4,7.7,7.7
			S266,214.4,261.8,214.4z"/>
	</g>
</g>
</svg>
