<?xml version="1.0" encoding="utf-8"?>
<!-- Generator: Adobe Illustrator 25.0.0, SVG Export Plug-In . SVG Version: 6.00 Build 0)  -->
<svg version="1.1" id="Capa_1" xmlns="http://www.w3.org/2000/svg" xmlns:xlink="http://www.w3.org/1999/xlink" x="0px" y="0px"
	 viewBox="0 0 600 600" style="enable-background:new 0 0 600 600;" xml:space="preserve">
<style type="text/css">
	.st0{fill:#006dd9;}
</style>
<g>
	<g>
		<path class="st0" d="M252.5,254.2c-43.4,0-82.9-22.2-105.4-59.2c-11.8-19.3-18-41.5-18-64.2C129,62.7,184.4,7.3,252.5,7.3
			S376,62.7,376,130.8c0,22.7-6.2,44.9-17.9,64.2C335.5,232,296.1,254.2,252.5,254.2z M252.5,23.8c-58.9,0-107,48-107,107
			c0,19.7,5.4,38.9,15.5,55.7c19.6,32.2,53.8,51.5,91.4,51.5s71.8-19.3,91.4-51.5c10.1-16.6,15.5-35.9,15.5-55.7
			C359.7,71.7,311.6,23.8,252.5,23.8z"/>
		<path class="st0" d="M267,504.7H67c-2.3,0-4.7-1.1-6.2-2.8s-2.3-4.2-2-6.5c15.7-123.3,97.2-212.7,193.8-212.7
			c34.8,0,69,12,98.9,34.5c3.6,2.8,4.4,7.9,1.6,11.5c-2.8,3.7-7.9,4.4-11.5,1.6c-26.9-20.4-57.7-31.1-88.9-31.1
			c-85.7,0-158.8,79-176.2,189.1h190.5c4.5,0,8.2,3.7,8.2,8.2C275.1,501,271.5,504.7,267,504.7z"/>
	</g>
	<g>
		<path class="st0" d="M415.2,594h-38.6c-3.7,0-7-2.5-7.9-6.2l-5.4-21.3c-9.6-2.6-18.8-6.5-27.5-11.4l-18.8,11.4
			c-3.3,1.9-7.5,1.4-10.1-1.2L279.4,538c-2.6-2.6-3.3-6.8-1.2-10.1l11.4-18.8c-5-8.7-8.7-17.9-11.4-27.5l-21.3-5.4
			c-3.6-0.9-6.2-4.2-6.2-7.9v-38.6c0-3.7,2.6-7,6.2-7.9l21.3-5.4c2.6-9.6,6.5-18.8,11.4-27.5l-11.4-18.8c-1.9-3.3-1.4-7.3,1.2-10.1
			l27.4-27.2c2.6-2.6,6.8-3.1,10.1-1.2l18.8,11.4c8.7-5,17.9-8.7,27.5-11.4l5.4-21.3c0.9-3.7,4.2-6.2,7.9-6.2h38.6
			c3.7,0,7,2.5,7.9,6.2l5.4,21.3c9.6,2.6,18.8,6.5,27.5,11.4l18.8-11.4c3.3-1.9,7.5-1.4,10.1,1.2l27.2,27.2
			c2.6,2.6,3.3,6.8,1.2,10.1l-11.4,18.8c5,8.7,8.7,17.9,11.4,27.5l21.3,5.4c3.6,0.9,6.2,4.2,6.2,7.9v38.6c0,3.7-2.6,7-6.2,7.9
			l-21.3,5.4c-2.6,9.6-6.5,18.8-11.4,27.5l11.4,18.8c1.9,3.3,1.4,7.3-1.2,10.1L485,565.2c-2.6,2.6-6.8,3.1-10.1,1.2l-18.8-11.4
			c-8.7,5-17.9,8.7-27.5,11.4l-5.4,21.3C422.2,591.5,418.9,594,415.2,594z M383,577.5h25.7l5-19.9c0.8-3,3.1-5.3,6.1-6.1
			c11.2-2.6,21.9-7,31.9-13.2c2.6-1.7,5.9-1.7,8.6-0.2l17.6,10.6l18.2-18.2L485.3,513c-1.6-2.6-1.6-5.9,0.2-8.6
			c6.2-9.8,10.6-20.5,13.2-31.9c0.6-3,3-5.4,6.1-6.1l19.7-5v-25.7l-19.7-5c-3-0.8-5.3-3.1-6.1-6.1c-2.6-11.2-7-21.9-13.2-31.9
			c-1.7-2.6-1.7-5.9-0.2-8.6l10.6-17.6l-18.2-18.2l-17.6,10.6c-2.6,1.6-6.1,1.6-8.6-0.2c-10-6.1-20.5-10.6-31.9-13.2
			c-3-0.8-5.4-3-6.1-6.1l-5-19.9H383l-5,19.9c-0.8,3-3.1,5.3-6.1,6.1c-11.2,2.6-21.9,7-31.9,13.2c-2.6,1.7-5.9,1.7-8.6,0.2
			l-17.6-10.6l-18.2,18.2l10.6,17.6c1.6,2.6,1.6,5.9-0.2,8.6c-6.2,9.8-10.6,20.5-13.2,31.9c-0.6,3-3,5.4-6.1,6.1l-19.7,5v25.7
			l19.7,5c3,0.8,5.3,3.1,6.1,6.1c2.6,11.2,7,21.9,13.2,31.9c1.7,2.6,1.7,5.9,0.2,8.6l-10.6,17.6l18.2,18.2l17.6-10.6
			c2.6-1.6,6.1-1.6,8.6,0.2c9.8,6.1,20.5,10.6,31.9,13.2c3,0.8,5.4,3,6.1,6.1L383,577.5z"/>
		<path class="st0" d="M395.9,518c-38.1,0-69.2-31.1-69.2-69.2s31.1-69.2,69.2-69.2c16.3,0,32.2,5.8,44.6,16.3
			c3.4,3,3.9,8.1,0.9,11.7c-3,3.4-8.1,3.9-11.7,0.9c-9.5-7.9-21.5-12.4-33.9-12.4c-29.1,0-52.7,23.6-52.7,52.7
			c0,29.1,23.6,52.7,52.7,52.7c29.1,0,52.7-23.6,52.7-52.7c0-4.5,3.7-8.2,8.2-8.2c4.5,0,8.2,3.7,8.2,8.2
			C464.9,486.9,434,518,395.9,518z"/>
	</g>
</g>
</svg>
