<?xml version="1.0" encoding="utf-8"?>
<!-- Generator: Adobe Illustrator 25.0.0, SVG Export Plug-In . SVG Version: 6.00 Build 0)  -->
<svg version="1.1" id="Capa_1" xmlns="http://www.w3.org/2000/svg" xmlns:xlink="http://www.w3.org/1999/xlink" x="0px" y="0px"
	 viewBox="0 0 600 600" style="enable-background:new 0 0 600 600;" xml:space="preserve">
<style type="text/css">
	.st0{fill:#006dd9;}
</style>
<g>
	<path class="st0" d="M424.5,362.5c-19.8,0-39.3-3.3-57.7-9.9c-3.7-1.3-5.7-5.4-4.3-9.1c1.3-3.7,5.5-5.7,9.1-4.3
		c16.9,6,34.8,9,52.9,9c87.4,0,158.4-71,158.4-158.4s-71-158.4-158.4-158.4c-80.5,0-148,60.1-157.3,139.9c-0.4,3.9-3.9,6.9-7.9,6.3
		c-3.9-0.4-6.7-4-6.3-7.9c10-86.9,83.8-152.5,171.4-152.5c95.1,0,172.6,77.5,172.6,172.6C597.1,285,519.7,362.5,424.5,362.5z"/>
	<path class="st0" d="M533.2,189.6c0,1.5-0.6,3-1.8,4L448.2,267c-1.6,1.3-3.9,1.8-5.8,0.9c-1.9-0.9-3.1-2.8-3.1-4.9v-32.5l-72.7,0.3
		c-3,0-5.5-2.4-5.5-5.4l0,0c0-3,2.4-5.4,5.4-5.4l78.1-0.3c1.5,0,2.8,0.6,3.9,1.6c1,1,1.6,2.4,1.6,3.9v25.9l69.4-61.4l-69.8-61
		l0.1,25.8c0.3,1.5-0.6,2.8-1.6,3.9c-1,1-2.4,1.6-3.9,1.6l-78.1,0.3c-3,0-5.5-2.4-5.5-5.4l0,0c0-3,2.4-5.4,5.4-5.4l72.7-0.3
		l-0.1-32.4c-0.1-1.6,1.2-4,3.1-4.9c1.9-0.9,4.2-0.6,5.8,0.9l83.6,73C532.4,186.6,533.2,188.1,533.2,189.6L533.2,189.6z"/>
	<g>
		<g>
			<path class="st0" d="M173.9,582.1c-1.3,0-2.5-0.3-3.7-1c-2.1-1.3-3.4-3.6-3.4-6V323.4c0-2.7,1.5-5.2,3.9-6.4l162.9-81.4
				c2.2-1,4.9-1,6.9,0.3c2.1,1.3,3.4,3.6,3.4,6v251.7c0,2.7-1.5,5.2-3.9,6.4L177,581.4C176.1,581.8,175.1,582.1,173.9,582.1z
				 M181.1,327.8v235.7l148.5-74.3V253.5L181.1,327.8z M336.7,493.6h0.1H336.7z"/>
			<path class="st0" d="M173.9,582.1c-1,0-2.2-0.3-3.1-0.7L8,500c-2.4-1.2-3.9-3.7-3.9-6.4V242c0-2.4,1.3-4.8,3.4-6
				c2.1-1.3,4.8-1.3,6.9-0.3l162.7,81.4c2.4,1.2,3.9,3.7,3.9,6.4v251.6c0,2.4-1.3,4.8-3.4,6C176.6,581.8,175.2,582.1,173.9,582.1z
				 M18.4,489.2l148.5,74.3V327.8L18.4,253.5V489.2z"/>
			<path class="st0" d="M173.9,330.5c-1,0-2.2-0.3-3.1-0.7L8,248.3c-2.4-1.2-3.9-3.7-3.9-6.4s1.5-5.2,3.9-6.4L170.7,154
				c1.9-1,4.3-1,6.4,0L340,235.4c2.4,1.2,3.9,3.7,3.9,6.4s-1.5,5.2-3.9,6.4l-162.9,81.4C176.1,330.4,175.1,330.5,173.9,330.5z
				 M27,242l146.8,73.6l146.8-73.4l-146.8-73.4L27,242z"/>
			<g>
				<path class="st0" d="M173.4,330.8c-0.9,0-1.8-0.1-2.7-0.6L8,248.9c-2.4-1.2-3.9-3.7-3.9-6.4c0-2.5,1.5-5.4,3.7-6.6
					c2.1-1.2,4.9-1.3,7-0.3l162.3,81.2c2.4,1.2,3.9,3.7,3.9,6.4c0,2.4-1.3,5.1-3.4,6.4C176.4,330.4,174.9,330.8,173.4,330.8z"/>
			</g>
			<g>
				<path class="st0" d="M173.9,331c-1.3,0-2.5-0.3-3.7-1c-2.1-1.3-3.4-3.6-3.4-6v-0.7c0-2.7,1.5-5.2,3.9-6.4L333,235.6
					c1.9-1,4.3-1,6.4,0c2.4,1.2,4.3,3.9,4.3,6.6s-1.5,5.5-3.9,6.7l-162.7,81.4C176.1,330.7,175.1,331,173.9,331z"/>
			</g>
			<path class="st0" d="M173.9,330.5c-2.5,0-5.1-1.5-6.4-3.9c-0.4-1-0.7-2.1-0.7-3.1c0-2.5,1.5-5.1,3.9-6.4l162.9-81.4
				c3.4-1.8,7.8-0.3,9.6,3.1c0.4,1,0.7,2.1,0.7,3.1c0,2.5-1.5,5.1-3.9,6.4L177,329.8C176.1,330.4,175.1,330.5,173.9,330.5z"/>
		</g>
		<path class="st0" d="M99.1,377.7c-1,0-2.2-0.3-3.1-0.7l-23.5-11.7c-2.4-1.2-3.9-3.7-3.9-6.4v-84.1c0-2.4,1.3-4.8,3.4-6
			c2.1-1.3,4.8-1.3,6.9-0.3l23.5,11.7c2.4,1.2,3.9,3.7,3.9,6.4v84.1c0,2.4-1.3,4.8-3.4,6C101.8,377.4,100.5,377.7,99.1,377.7z
			 M82.8,354.5l9.3,4.6V291l-9.3-4.6V354.5z"/>
		<path class="st0" d="M99.1,293.7c-1,0-2.2-0.3-3.1-0.7l-23.5-11.7c-2.4-1.2-3.9-3.7-3.9-6.4c0-2.7,1.5-5.2,3.9-6.4l164.4-81.1
			c1.9-1,4.3-1,6.4,0l23.5,11.7c2.4,1.2,3.9,3.7,3.9,6.4c0,2.7-1.5,5.2-3.9,6.4l-164.4,81.1C101.4,293.4,100.3,293.7,99.1,293.7z
			 M91.6,274.8l7.5,3.7l148.3-73.1l-7.5-3.7L91.6,274.8z"/>
	</g>
</g>
</svg>
