<?xml version="1.0" encoding="utf-8"?>
<!-- Generator: Adobe Illustrator 25.0.0, SVG Export Plug-In . SVG Version: 6.00 Build 0)  -->
<svg version="1.1" id="Capa_1" xmlns="http://www.w3.org/2000/svg" xmlns:xlink="http://www.w3.org/1999/xlink" x="0px" y="0px"
	 viewBox="0 0 600 600" style="enable-background:new 0 0 600 600;" xml:space="preserve">
<style type="text/css">
	.st0{fill:#006dd9;}
</style>
<g>
	<g>
		<g>
			<path class="st0" d="M239.7,582.9c-1.2,0-2.4-0.3-3.4-0.9c-1.9-1.2-3-3.3-3-5.4V346.1c0-2.4,1.3-4.6,3.6-5.7l149-74.4
				c1.9-1,4.3-0.9,6.3,0.3c1.9,1.2,3,3.3,3,5.4v230.2c0,2.4-1.3,4.6-3.6,5.7l-149,74.6C241.6,582.6,240.7,582.9,239.7,582.9z
				 M246.1,350.1v216L382.3,498V282.1L246.1,350.1z M388.7,501.9h0.1H388.7z"/>
			<path class="st0" d="M239.7,582.9c-0.9,0-1.9-0.3-2.8-0.7l-149-74.6c-2.1-1-3.6-3.3-3.6-5.7V271.7c0-2.2,1.2-4.3,3-5.4
				c1.9-1.2,4.3-1.3,6.3-0.3l149,74.6c2.1,1,3.6,3.3,3.6,5.7v230.2c0,2.2-1.2,4.3-3,5.4C242.1,582.6,240.9,582.9,239.7,582.9z
				 M97.1,498l136.2,68.2v-216L97.1,282L97.1,498L97.1,498z"/>
			<path class="st0" d="M239.7,352.7c-0.9,0-1.9-0.3-2.8-0.7l-149-74.6c-2.1-1-3.6-3.3-3.6-5.7c0-2.4,1.3-4.6,3.6-5.7l149-74.4
				c1.8-0.9,3.9-0.9,5.8,0l149,74.6c2.1,1,3.6,3.3,3.6,5.7c0,2.4-1.3,4.6-3.6,5.7l-149,74.4C241.6,352.4,240.7,352.7,239.7,352.7z
				 M105,271.7l134.7,67.4l134.7-67.3l-134.7-67.4L105,271.7z"/>
			<g>
				<path class="st0" d="M239.2,352.8c-0.7,0-1.6-0.1-2.4-0.6l-149-74.6c-2.1-1-3.6-3.3-3.6-5.7c0-2.4,1.3-4.9,3.6-6.1
					c1.8-0.9,4.3-1,6.1-0.1l148.7,74.4c2.1,1,3.6,3.3,3.6,5.7c0,2.2-1.2,4.6-3,5.8C241.9,352.4,240.6,352.8,239.2,352.8z"/>
			</g>
			<g>
				<path class="st0" d="M239.7,353c-1.2,0-2.4-0.3-3.4-0.9c-1.9-1.2-3-3.3-3-5.4V346c0-2.4,1.3-4.6,3.6-5.7l148.7-74.4
					c1.8-0.9,3.9-0.9,5.8,0c2.1,1,3.9,3.4,3.9,5.8c0,2.4-1.3,4.9-3.6,6.1l-149,74.6C241.6,352.7,240.7,353,239.7,353z"/>
			</g>
			<path class="st0" d="M239.7,352.7c-2.4,0-4.6-1.3-5.7-3.6c-0.4-0.9-0.7-1.9-0.7-2.8c0-2.4,1.3-4.6,3.6-5.7l149-74.6
				c3.1-1.6,7-0.3,8.7,2.8c0.4,0.9,0.7,1.9,0.7,2.8c0,2.4-1.3,4.6-3.6,5.7l-149,74.6C241.6,352.4,240.7,352.7,239.7,352.7z"/>
		</g>
		<path class="st0" d="M171.2,395.8c-0.9,0-1.9-0.3-2.8-0.7l-21.6-10.8c-2.1-1-3.6-3.3-3.6-5.7v-77c0-2.2,1.2-4.3,3-5.4
			c1.9-1.2,4.3-1.2,6.3-0.3l21.6,10.8c2.2,1,3.6,3.3,3.6,5.7v77c0,2.2-1.2,4.3-3,5.4C173.6,395.5,172.4,395.8,171.2,395.8z
			 M156.1,374.7l8.7,4.3v-62.6l-8.7-4.3V374.7z"/>
		<path class="st0" d="M171.2,318.8c-0.9,0-1.9-0.3-2.8-0.7l-21.6-10.8c-2.1-1-3.6-3.3-3.6-5.7c0-2.4,1.3-4.6,3.6-5.7l150.5-74.3
			c1.8-0.9,3.9-0.9,5.7,0l21.6,10.8c2.2,1,3.6,3.3,3.6,5.7c0,2.4-1.3,4.6-3.6,5.7l-150.5,74.3C173.2,318.5,172.3,318.8,171.2,318.8z
			 M164.2,301.6l7,3.6l136-67.1l-7-3.6L164.2,301.6z"/>
	</g>
	<g>
		<path class="st0" d="M439.4,465.3c-1.2,0-2.4-0.3-3.4-0.9c-1.9-1.2-3-3.3-3-5.4V228.5c0-2.4,1.3-4.6,3.6-5.7l149-74.4
			c1.9-1,4.3-0.9,6.3,0.3c1.9,1.2,3,3.3,3,5.4v230.2c0,2.4-1.3,4.6-3.6,5.7l-149,74.6C441.3,465,440.4,465.3,439.4,465.3z
			 M445.8,232.6v216L582,380.4v-216L445.8,232.6z M588.4,384.3h0.1H588.4z"/>
		<path class="st0" d="M439.4,465.3c-0.9,0-1.9-0.3-2.8-0.7l-42.4-21.1c-3.1-1.6-4.5-5.4-2.8-8.7c1.6-3.1,5.4-4.5,8.7-2.8l33,16.5
			V232.6l-136.2-68.2v52.4c0,3.6-2.8,6.4-6.4,6.4c-3.6,0-6.4-2.8-6.4-6.4v-62.9c0-2.2,1.2-4.3,3-5.4c1.9-1.2,4.3-1.2,6.3-0.3
			l149,74.6c2.1,1,3.6,3.3,3.6,5.7v230.2c0,2.2-1.2,4.3-3,5.4C441.8,465,440.6,465.3,439.4,465.3z"/>
		<path class="st0" d="M439.4,235c-0.9,0-1.9-0.3-2.8-0.7l-149-74.6c-2.1-1-3.6-3.3-3.6-5.7s1.3-4.6,3.6-5.7l149-74.4
			c1.8-0.9,3.9-0.9,5.8,0l149,74.6c2.1,1,3.6,3.3,3.6,5.7c0,2.4-1.3,4.6-3.6,5.7l-149,74.6C441.3,234.8,440.4,235,439.4,235z
			 M304.7,153.9l134.7,67.4L574,153.9L439.4,86.5L304.7,153.9z"/>
		<g>
			<path class="st0" d="M438.9,235.3c-0.7,0-1.6-0.1-2.4-0.6l-149-74.6c-2.1-1-3.6-3.3-3.6-5.7s1.3-4.9,3.6-6.1
				c1.8-0.9,4.2-1,6.1-0.1l148.7,74.4c2.1,1,3.6,3.3,3.6,5.7c0,2.2-1.2,4.6-3,5.8C441.6,234.8,440.3,235.3,438.9,235.3z"/>
		</g>
		<g>
			<path class="st0" d="M439.4,235.4c-1.2,0-2.4-0.3-3.4-0.9c-1.9-1.2-3-3.3-3-5.4v-0.7c0-2.4,1.3-4.6,3.6-5.7l148.7-74.4
				c1.8-0.9,3.9-0.9,5.8,0c2.1,1,3.9,3.4,3.9,5.8s-1.3,4.9-3.6,6.1l-149,74.6C441.3,235.1,440.4,235.4,439.4,235.4z"/>
		</g>
		<path class="st0" d="M439.4,235.1c-2.4,0-4.6-1.3-5.7-3.6c-0.4-0.9-0.7-1.9-0.7-2.8c0-2.4,1.3-4.6,3.6-5.7l149-74.6
			c3.1-1.6,7-0.3,8.7,2.8c0.4,0.9,0.7,1.9,0.7,2.8c0,2.4-1.3,4.6-3.6,5.7l-149,74.6C441.3,234.8,440.4,235.1,439.4,235.1z"/>
	</g>
	<path class="st0" d="M370.9,269.7c-0.9,0-1.9-0.3-2.8-0.7l-21.6-10.8c-2.1-1-3.6-3.3-3.6-5.7V184c0-2.2,1.2-4.3,3-5.4
		c1.9-1.2,4.3-1.2,6.3-0.3l21.6,10.8c2.1,1,3.6,3.3,3.6,5.7v68.5c0,2.2-1.2,4.3-3,5.4C373.3,269.4,372.1,269.7,370.9,269.7z
		 M355.8,248.6l8.7,4.3v-54.1l-8.7-4.3V248.6z"/>
	<path class="st0" d="M370.9,201.2c-0.9,0-1.9-0.3-2.8-0.7l-21.6-10.8c-2.1-1-3.6-3.3-3.6-5.7s1.3-4.6,3.6-5.7L497,104
		c1.8-0.9,3.9-0.9,5.7,0l21.6,10.8c2.1,1,3.6,3.3,3.6,5.7s-1.3,4.6-3.6,5.7l-150.5,74.3C372.9,200.9,371.8,201.2,370.9,201.2z
		 M363.9,184l7,3.6l136-67.1l-7-3.6L363.9,184z"/>
	<g>
		<g>
			<path class="st0" d="M165.2,180.1c-2.4,0-4.6-1.3-5.7-3.6c-1.6-3.1-0.3-7,2.8-8.7l149-74.4c1.9-1,4.3-0.9,6.3,0.3
				c1.9,1.2,3,3.3,3,5.4v42.8c0,3.6-2.8,6.4-6.4,6.4c-3.6,0-6.4-2.8-6.4-6.4v-32.4l-139.8,69.8C167.2,179.8,166.1,180.1,165.2,180.1
				z"/>
			<path class="st0" d="M90.6,373.2c-0.9,0-1.9-0.1-2.8-0.7l-74.6-37.3c-2.1-1-3.6-3.3-3.6-5.7V99.2c0-2.2,1.2-4.3,3-5.4
				c1.9-1.2,4.3-1.2,6.3-0.3l149,74.6c2.1,1,3.6,3.3,3.6,5.7V229c0,3.6-2.8,6.4-6.4,6.4c-3.6,0-6.4-2.8-6.4-6.4v-51.2L22.5,109.6
				v215.9l71,35.5c3.1,1.6,4.5,5.4,2.8,8.7C95.3,371.9,93,373.2,90.6,373.2z"/>
			<path class="st0" d="M165.2,180.1c-0.9,0-1.9-0.3-2.8-0.7L13.2,104.9c-2.1-1-3.6-3.3-3.6-5.7s1.3-4.6,3.6-5.7l149-74.4
				c1.8-0.9,3.9-0.9,5.8,0l149,74.6c2.1,1,3.6,3.3,3.6,5.7c0,2.4-1.3,4.6-3.6,5.7l-149,74.6C167.2,180,166.1,180.1,165.2,180.1z
				 M30.6,99.1l134.7,67.4l134.7-67.4L165.2,31.7L30.6,99.1z"/>
			<g>
				<path class="st0" d="M164.8,180.4c-0.7,0-1.6-0.1-2.4-0.6l-149-74.6c-2.1-1-3.6-3.3-3.6-5.7c0-2.4,1.3-4.9,3.6-6.1
					c1.8-0.9,4.2-1,6.1-0.1l148.7,74.4c2.1,1,3.6,3.3,3.6,5.7c0,2.2-1.2,4.6-3,5.8C167.3,180,166,180.4,164.8,180.4z"/>
			</g>
			<g>
				<path class="st0" d="M165.2,180.6c-1.2,0-2.4-0.3-3.4-0.9c-1.9-1.2-3-3.3-3-5.4v-0.7c0-2.4,1.3-4.6,3.6-5.7l148.7-74.4
					c1.9-0.9,4-0.9,6,0.1c2.1,1.2,3.6,3.4,3.6,5.8c0,2.4-1.3,4.9-3.6,6.1l-149,74.3C167.2,180.3,166.1,180.6,165.2,180.6z"/>
			</g>
			<path class="st0" d="M165.2,180.1c-2.4,0-4.6-1.3-5.7-3.6c-0.4-0.9-0.7-1.9-0.7-2.8c0-2.4,1.3-4.6,3.6-5.7l149-74.6
				c3.1-1.6,7-0.3,8.7,2.8c0.4,0.9,0.7,1.9,0.7,2.8c0,2.4-1.3,4.6-3.6,5.7l-149,74.6C167.2,180,166.1,180.1,165.2,180.1z"/>
		</g>
		<path class="st0" d="M96.8,223.4c-0.9,0-1.9-0.3-2.8-0.7l-21.6-10.8c-2.1-1-3.6-3.3-3.6-5.7v-77c0-2.2,1.2-4.3,3-5.4
			c1.9-1.2,4.3-1.2,6.3-0.3l21.6,10.8c2.1,1,3.6,3.3,3.6,5.7v77c0,2.2-1.2,4.3-3,5.4C99,223,97.8,223.4,96.8,223.4z M81.7,202.1
			l8.7,4.3v-62.6l-8.7-4.3V202.1z"/>
		<path class="st0" d="M96.6,146.3c-0.9,0-1.9-0.3-2.8-0.7l-21.6-10.8c-2.1-1-3.6-3.3-3.6-5.7c0-2.4,1.3-4.6,3.6-5.7l150.5-74.3
			c1.8-0.9,3.9-0.9,5.7,0L250,59.8c2.2,1,3.6,3.3,3.6,5.7c0,2.4-1.3,4.6-3.6,5.7L99.6,145.7C98.6,146.1,97.7,146.3,96.6,146.3z
			 M89.6,129.2l7,3.6l136-67.1l-7-3.6L89.6,129.2z"/>
	</g>
</g>
</svg>
