<?xml version="1.0" encoding="utf-8"?>
<!-- Generator: Adobe Illustrator 25.0.0, SVG Export Plug-In . SVG Version: 6.00 Build 0)  -->
<svg version="1.1" id="Capa_1" xmlns="http://www.w3.org/2000/svg" xmlns:xlink="http://www.w3.org/1999/xlink" x="0px" y="0px"
	 viewBox="0 0 600 600" style="enable-background:new 0 0 600 600;" xml:space="preserve">
<style type="text/css">
	.st0{fill:#FFFFFF;}
</style>
<g>
	<path class="st0" d="M387.2,309.6H347c-3.9,0-7.4-2.6-8.3-6.5l-5.5-22.2c-10-2.8-19.6-6.8-28.7-11.9l-19.7,11.7
		c-3.4,2-7.7,1.5-10.5-1.2l-28.4-28.5c-2.8-2.8-3.4-7.1-1.2-10.5l11.7-19.7c-5.1-9.1-9.1-18.6-11.9-28.7l-22.2-5.5
		c-3.9-0.9-6.5-4.3-6.5-8.3v-40.2c0-4,2.6-7.4,6.5-8.3l22.2-5.5c2.8-10,6.8-19.6,11.9-28.7l-11.7-19.7c-2-3.4-1.5-7.7,1.2-10.5
		L274.3,37c2.8-2.8,7.1-3.2,10.5-1.2l19.7,11.7c9.1-5.1,18.6-9.1,28.7-11.9l5.5-22.2C339.6,9.6,343,7,347,7h40.2
		c3.9,0,7.4,2.6,8.3,6.5l5.5,22.2c10,2.8,19.6,6.8,28.7,11.9l19.7-11.7c3.4-2,7.7-1.5,10.5,1.2l28.4,28.4c2.8,2.8,3.4,7.1,1.2,10.5
		l-11.7,19.7c5.1,9.1,9.1,18.6,11.9,28.7l22.2,5.5c3.9,0.9,6.5,4.3,6.5,8.3v40.2c0,4-2.6,7.4-6.5,8.3l-22.2,5.5
		c-2.8,10-6.8,19.6-11.9,28.7l11.7,19.7c2,3.4,1.5,7.7-1.2,10.5L460,279.4c-2.8,2.8-7.1,3.2-10.5,1.2L429.8,269
		c-9.1,5.1-18.6,9.1-28.7,11.9l-5.5,22.2C394.6,306.9,391.1,309.6,387.2,309.6z M353.8,292.4h26.8l5.2-20.6c0.8-3.1,3.2-5.5,6.3-6.3
		c11.7-2.8,22.8-7.4,33.1-13.7c2.6-1.7,6.2-1.7,8.9-0.2l18.3,10.9l19-19l-10.9-18.3c-1.7-2.8-1.5-6.2,0.2-8.9
		c6.3-10.3,10.9-21.4,13.7-33.1c0.8-3.1,3.1-5.5,6.2-6.3l20.6-5.2v-26.8l-20.6-5.2c-3.1-0.8-5.5-3.2-6.2-6.3
		c-2.8-11.7-7.4-23-13.7-33.1c-1.7-2.8-1.7-6.2-0.2-8.9l10.9-18.3l-19-19l-18.3,10.9c-2.8,1.7-6.2,1.5-8.9-0.2
		c-10.3-6.5-21.4-11.1-33.1-13.7c-3.1-0.8-5.5-3.1-6.3-6.3L380.6,24h-26.8l-5.2,20.6c-0.8,3.1-3.2,5.5-6.3,6.3
		c-11.7,2.8-22.8,7.4-33.1,13.7c-2.8,1.7-6.2,1.7-8.9,0.2l-18.3-10.9l-19,19.1l10.9,18.3c1.7,2.8,1.5,6.2-0.2,8.9
		c-6.3,10.2-10.9,21.4-13.7,33.1c-0.8,3.1-3.1,5.5-6.2,6.3l-20.6,5.2v26.8l20.6,5.2c3.1,0.8,5.5,3.2,6.2,6.3
		c2.8,11.7,7.4,23,13.7,33.1c1.7,2.8,1.7,6.2,0.2,8.9l-10.9,18.3l19,19l18.3-10.9c2.8-1.7,6.2-1.7,8.9,0.2
		c10.2,6.5,21.4,11.1,33.1,13.7c3.1,0.8,5.5,3.1,6.3,6.3L353.8,292.4z"/>
	<path class="st0" d="M367.2,230.3c-39.8,0-72-32.4-72-72s32.4-72,72-72c17,0,33.4,6,46.4,17c3.5,3.1,4,8.5,1.1,12
		c-2.9,3.5-8.5,4-12,1.1c-9.9-8.3-22.5-12.9-35.3-12.9c-30.2,0-54.9,24.7-54.9,54.9s24.7,54.9,54.9,54.9c30.2,0,54.9-24.7,54.9-54.9
		c0-4.8,3.9-8.6,8.6-8.6s8.6,3.9,8.6,8.6C439.2,197.9,406.8,230.3,367.2,230.3z"/>
	<g>
		<path class="st0" d="M482.6,468.3c-3.9,0-7.2-2.6-8.3-6.3l-3.5-12.8c-5.7-1.5-11.1-3.7-16.3-6.5l-11.2,6.9
			c-3.4,2-7.7,1.7-10.5-1.1l-18.8-18.2c-2.8-2.8-3.4-7.1-1.5-10.5l6.6-11.6c-2.9-5.1-5.2-10.5-6.9-16l-12.9-2.9
			c-3.9-0.9-6.6-4.3-6.6-8.2l-0.5-26.2c0-3.9,2.6-7.4,6.3-8.5l12.8-3.4c1.5-5.7,3.7-11.1,6.5-16.3l-6.9-11.2
			c-2-3.4-1.7-7.7,1.1-10.5l18.2-18.8c2.8-2.8,6.9-3.4,10.5-1.5l11.6,6.6c5.1-2.9,10.5-5.2,16-6.9l3.1-12.9c0.9-3.9,4.3-6.6,8.2-6.6
			l26.2-0.5h0.2c3.9,0,7.2,2.6,8.3,6.3l3.5,12.8c5.7,1.5,11.1,3.7,16.3,6.5l11.2-6.9c3.4-2.2,7.7-1.5,10.5,1.1l18.8,18.2
			c2.8,2.8,3.4,7.1,1.5,10.5l-6.6,11.6c2.9,5.1,5.2,10.5,6.9,16l12.9,2.9c3.9,0.9,6.6,4.3,6.6,8.2l0.5,26.2c0,3.9-2.6,7.4-6.3,8.5
			l-12.8,3.4c-1.5,5.7-3.7,11.1-6.5,16.3l6.9,11.2c2,3.4,1.7,7.7-1.1,10.5l-18.3,18.8c-2.8,2.8-6.9,3.4-10.5,1.5l-11.6-6.6
			c-5.1,2.9-10.5,5.2-16,6.9l-3.1,12.9c-0.9,3.9-4.3,6.5-8.2,6.6L482.6,468.3C482.6,468.3,482.6,468.3,482.6,468.3z M454.3,424.3
			c1.5,0,3.1,0.5,4.5,1.2c6.5,3.9,13.4,6.6,20.8,8.2c3.1,0.6,5.7,3.1,6.5,6.2l3.1,11.2l12.8-0.3l2.6-11.2c0.8-3.1,3.1-5.5,6.2-6.3
			c7.4-1.8,14.3-4.9,20.6-8.9c2.6-1.7,6.2-1.8,8.9-0.3l10,5.7l8.9-9.2l-6.2-9.9c-1.7-2.8-1.7-6.2,0-8.9c3.9-6.5,6.6-13.4,8.2-21
			c0.6-3.1,3.1-5.7,6.2-6.5l11.2-3.1l-0.2-12.9l-11.2-2.6c-3.1-0.8-5.5-3.1-6.3-6.3c-1.8-7.4-4.9-14.3-8.9-20.6
			c-1.7-2.6-1.8-6.2-0.3-8.9l5.7-10l-9.2-8.9l-9.9,6.2c-2.8,1.7-6.2,1.7-8.9,0c-6.5-3.9-13.4-6.6-20.8-8.2c-3.1-0.6-5.7-3.1-6.5-6.2
			l-3.1-11.2l-12.8,0.3l-2.6,11.2c-0.8,3.1-3.1,5.5-6.2,6.3c-7.4,1.8-14.3,4.9-20.6,8.9c-2.6,1.7-6.2,1.8-8.9,0.3l-10-5.7l-8.9,9.2
			l6.2,9.9c1.7,2.8,1.7,6.2,0,8.9c-3.9,6.5-6.6,13.4-8.2,21c-0.6,3.1-3.1,5.7-6.2,6.5l-11.2,3.1l0.2,12.9l11.2,2.6
			c3.1,0.8,5.5,3.1,6.3,6.3c1.8,7.4,4.9,14.3,8.9,20.6c1.7,2.6,1.8,6.2,0.3,8.9l-5.7,10l9.2,8.9l9.9-6.2
			C451.2,424.7,452.7,424.3,454.3,424.3z"/>
		<path class="st0" d="M494,416.4c-12.5,0-25-4.6-34.7-14c-8.5-8.2-13.7-19.1-14.9-30.8c-0.5-4.8,2.9-8.9,7.7-9.4
			c4.8-0.5,8.9,2.9,9.4,7.7c0.8,7.7,4.3,14.9,9.9,20.3c13.1,12.6,33.9,12.2,46.4-0.8c12.5-12.9,12.2-33.9-0.8-46.4
			c-12.9-12.5-33.7-12.2-46.4,0.8c-3.2,3.4-8.6,3.5-12.2,0.2c-3.4-3.2-3.5-8.6-0.2-12.2c19.1-19.7,50.9-20.3,70.7-1.2
			c19.7,19.1,20.3,50.9,1.2,70.7C520.2,411.2,507.1,416.4,494,416.4z"/>
	</g>
	<path class="st0" d="M518.8,502.9H46.1c-23,0-41.6-18.6-41.6-41.6V138c0-23,18.6-41.6,41.6-41.6h189.4c4.8,0,8.6,3.9,8.6,8.6
		s-3.9,8.6-8.6,8.6H46.1c-13.6,0-24.5,10.9-24.5,24.5v323.1c0,13.6,10.9,24.5,24.5,24.5h472.8c13.6,0,24.5-10.9,24.5-24.5
		c0-4.8,3.9-8.6,8.6-8.6c4.8,0,8.6,3.9,8.6,8.6C560.6,484.1,541.8,502.9,518.8,502.9z"/>
	<path class="st0" d="M552,276.8c-4.8,0-8.6-3.9-8.6-8.6V138c0-13.6-10.9-24.5-24.5-24.5h-20.3c-4.8,0-8.6-3.9-8.6-8.6
		s3.9-8.6,8.6-8.6h20.3c23,0,41.6,18.6,41.6,41.6V268C560.6,273.1,556.7,276.8,552,276.8z"/>
	<path class="st0" d="M389.4,442.9H12.9c-4.8,0-8.6-3.9-8.6-8.6s3.9-8.6,8.6-8.6h376.4c4.8,0,8.6,3.9,8.6,8.6
		S394.2,442.9,389.4,442.9z"/>
	<path class="st0" d="M401.7,592.7c-0.3,0-0.5,0-0.8,0H162.7c-4.6,0-8.5-3.7-8.6-8.5c0-4.6,3.7-8.5,8.3-8.6
		c5.5-0.2,21.7-1.4,29.6-5.5l31.9-22.7c2.6-1.8,5.1-7.1,4.9-13.6v-39.4c0-4.8,3.9-8.6,8.6-8.6l0,0c4.8,0,8.6,3.9,8.6,8.5v39.3
		c0.2,11.7-4.6,22.3-12.2,27.7l-20.2,14.2h137.4L331,561.1c-7.6-5.4-12.2-15.9-12.2-27.6v-39.4c0-4.8,3.9-8.6,8.6-8.6l0,0
		c4.8,0,8.6,3.9,8.6,8.6v39.4c0,6.9,2.6,11.9,4.9,13.6l31.9,22.5c16,5.1,26,5.7,28.5,5.7h0.9c4.6,0,8.5,3.7,8.6,8.5
		c0.2,4.6-3.5,8.5-8.2,8.8C402.3,592.7,402,592.7,401.7,592.7z"/>
	<path class="st0" d="M94.8,315.6H64.9c-4.8,0-8.6-3.9-8.6-8.6s3.9-8.6,8.6-8.6h29.9c4.8,0,8.6,3.9,8.6,8.6S99.5,315.6,94.8,315.6z"
		/>
	<path class="st0" d="M259.5,315.6H139.8c-4.8,0-8.6-3.9-8.6-8.6s3.9-8.6,8.6-8.6h119.7c4.8,0,8.6,3.9,8.6,8.6
		S264.3,315.6,259.5,315.6z"/>
	<path class="st0" d="M94.8,367.1H64.9c-4.8,0-8.6-3.9-8.6-8.6s3.9-8.6,8.6-8.6h29.9c4.8,0,8.6,3.9,8.6,8.6S99.5,367.1,94.8,367.1z"
		/>
	<path class="st0" d="M259.5,367.1H139.8c-4.8,0-8.6-3.9-8.6-8.6s3.9-8.6,8.6-8.6h119.7c4.8,0,8.6,3.9,8.6,8.6
		S264.3,367.1,259.5,367.1z"/>
</g>
</svg>
