<?xml version="1.0" encoding="utf-8"?>
<!-- Generator: Adobe Illustrator 25.0.0, SVG Export Plug-In . SVG Version: 6.00 Build 0)  -->
<svg version="1.1" id="Capa_1" xmlns="http://www.w3.org/2000/svg" xmlns:xlink="http://www.w3.org/1999/xlink" x="0px" y="0px"
	 viewBox="0 0 600 600" style="enable-background:new 0 0 600 600;" xml:space="preserve">
<style type="text/css">
	.st0{fill:#006dd9;}
</style>
<g>
	<path class="st0" d="M370.2,506.3H137.1c-4.6,0-8.2-3.8-8.2-8.2c0-4.6,3.8-8.2,8.2-8.2h233.2c113.2,0,205.2-87.5,205.2-195.1
		s-92-195.1-205.2-195.1H137.1c-4.6,0-8.2-3.8-8.2-8.2c0-4.4,3.8-8.2,8.2-8.2h233.2c122.4,0,221.8,95,221.8,211.5
		S492.6,506.3,370.2,506.3z"/>
	<g>
		<g>
			<path class="st0" d="M397.5,413c-39.2,0-71-30.3-71-67.6c0-9.5,8.1-17.1,17.9-17.1s17.9,7.6,17.9,17.1
				c0,18.5,15.9,33.5,35.2,33.5c19.5,0,35.2-15,35.2-33.5c0-18.5-15.9-33.5-35.2-33.5c-39.2,0-71-30.3-71-67.6s31.8-67.6,71-67.6
				s71,30.3,71,67.6c0,9.5-8.1,17.1-17.9,17.1c-9.9,0-17.9-7.6-17.9-17.1c0-18.5-15.9-33.5-35.2-33.5c-19.5,0-35.2,15-35.2,33.5
				s15.9,33.5,35.2,33.5c39.2,0,71,30.3,71,67.6C468.5,382.5,436.7,413,397.5,413z"/>
			<path class="st0" d="M397.5,210.8c-9.9,0-17.9-7.6-17.9-17.1v-21.4c0-9.5,8.1-17.1,17.9-17.1c9.9,0,17.9,7.6,17.9,17.1v21.4
				C415.4,203.2,407.4,210.8,397.5,210.8z"/>
			<path class="st0" d="M397.5,434.4c-9.9,0-17.9-7.6-17.9-17.1v-21.6c0-9.5,8.1-17.1,17.9-17.1c9.9,0,17.9,7.6,17.9,17.1v21.7
				C415.4,426.7,407.4,434.4,397.5,434.4z"/>
		</g>
	</g>
	<path class="st0" d="M239.3,306.9H16.1c-4.6,0-8.2-3.8-8.2-8.2c0-4.6,3.8-8.2,8.2-8.2h223.2c4.6,0,8.2,3.8,8.2,8.2
		C247.5,303.1,243.7,306.9,239.3,306.9z"/>
	<path class="st0" d="M271.5,394.6H73c-4.6,0-8.2-3.8-8.2-8.2c0-4.6,3.8-8.2,8.2-8.2h198.5c4.6,0,8.2,3.8,8.2,8.2
		C279.7,391,276,394.6,271.5,394.6z"/>
	<path class="st0" d="M271.5,219H73c-4.6,0-8.2-3.8-8.2-8.2c0-4.4,3.8-8.2,8.2-8.2h198.5c4.6,0,8.2,3.8,8.2,8.2
		C279.7,215.3,276,219,271.5,219z"/>
</g>
</svg>
