<?xml version="1.0" encoding="utf-8"?>
<!-- Generator: Adobe Illustrator 25.0.0, SVG Export Plug-In . SVG Version: 6.00 Build 0)  -->
<svg version="1.1" id="Capa_1" xmlns="http://www.w3.org/2000/svg" xmlns:xlink="http://www.w3.org/1999/xlink" x="0px" y="0px"
	 viewBox="0 0 600 600" style="enable-background:new 0 0 600 600;" xml:space="preserve">
<style type="text/css">
	.st0{fill:#ffffff;}
	.st1{font-family:'ArialRoundedMTBold';}
	.st2{font-size:117.6233px;}
</style>
<g>
	<g>
		<text transform="matrix(0.9663 -5.111953e-03 5.289906e-03 1 268.5682 262.5231)" class="st0 st1 st2">$</text>
		<path class="st0" d="M31.6,382.4c-6.4,0-12.6-2.7-17.2-7.3c-4.5-4.6-7-10.8-7-17.4L6,87.9C6,74.3,16.8,63.1,30.1,63l538.3-2.8l0,0
			c13.3,0,24.2,11.1,24.2,24.6l1.4,269.9c0,13.6-10.8,24.8-24.1,24.9L31.6,382.4L31.6,382.4z M568.5,77.4
			C568.4,77.4,568.4,77.4,568.5,77.4L30.2,80.2c-3.8,0-6.9,3.4-6.9,7.6l1.4,269.9c0,2.1,0.8,3.9,2.1,5.5c1.3,1.3,2.9,2.1,4.8,2.1
			l0,0l538.3-2.8c3.8,0,6.9-3.4,6.9-7.6l-1.3-240.5l0,0l-0.1-29.4C575.4,80.7,572.3,77.4,568.5,77.4z"/>
		<path class="st0" d="M110.3,337.9c-4.8,0-8.5-3.8-8.7-8.5c0-13.2-5-25.5-14.1-34.8c-9-9.1-20.9-13.6-33.4-14.1l0,0
			c-2.2,0-4.5-0.8-6-2.5c-1.7-1.7-2.5-3.8-2.5-6.2l-0.6-98.7c0-4.8,3.8-8.7,8.5-8.7c26-0.1,47.2-22.4,47-49.4c0-2.2,0.8-4.5,2.5-6.2
			c1.7-1.7,3.8-2.5,6.2-2.5l380.6-2l0,0c4.8,0,8.5,3.8,8.7,8.5c0,4.8-3.8,8.7-8.5,8.7l-372.5,2c-3.6,29.7-26.3,53.3-55,57.5
			l0.4,82.6c14,1.8,27,8.4,37.2,18.8c10.2,10.4,16.5,23.6,18.5,38.1l372.5-2l0,0c4.8,0,8.5,3.8,8.7,8.5c0.1,4.8-3.8,8.7-8.5,8.7
			L110.3,337.9L110.3,337.9z"/>
		<path class="st0" d="M491,334.9L491,334.9c-4.8,0-8.7-3.9-8.7-8.7c0-32.3,24.8-58.2,57.7-62.1v-82.4c-26.9-3.8-49-24.6-54.6-52.5
			l-4.1-13.4c-1.4-4.5,1.3-9.4,5.7-10.8c4.5-1.4,9.4,1.3,10.8,5.7l4.2,14.3c4.6,23.5,24.1,40,46.5,40c2.2,0,4.5,0.8,6.2,2.5
			c1.7,1.7,2.5,3.8,2.5,6.2v98.7c0,4.8-3.9,8.7-8.7,8.7c-28,0-49,19.5-49,45.3C499.7,330.9,495.8,334.9,491,334.9z"/>
		<path class="st0" d="M298.9,312.6c-2.4,0-4.9-0.1-7.3-0.3c-23.8-1.8-45.3-12.9-60.7-31.1c-15.4-18.1-22.9-41.1-21-64.9
			c1.8-23.8,12.9-45.3,31.1-60.7s41.1-22.8,64.9-21c23.6,1.8,45.3,12.9,60.7,31.1c15.4,18.1,22.9,41.1,21,64.9
			c-1.8,23.8-12.9,45.3-31.1,60.7C340.3,305.2,320.2,312.6,298.9,312.6z M298.6,151.4c-17.1,0-33.4,6-46.5,17.2
			c-14.6,12.5-23.5,29.9-25,49c-1.5,19,4.5,37.8,16.9,52.5c12.5,14.6,29.9,23.5,49,25c19.3,1.7,37.8-4.5,52.5-16.9
			c14.6-12.5,23.5-29.9,25-49c1.5-19.2-4.5-37.8-16.9-52.5c-12.5-14.6-29.9-23.5-49-25C302.5,151.6,300.6,151.4,298.6,151.4z"/>
	</g>
	<path class="st0" d="M71.2,466.3c-5.9,0-11.3-2.4-15.5-6.6c-4.1-4.2-6.3-9.8-6.3-15.7l-1.3-65.1c-0.1-4.8,3.6-8.7,8.4-8.8
		c4.8,0.6,8.7,3.6,8.8,8.4l1.3,65.2c0,1.5,0.6,2.9,1.5,3.8c0.6,0.6,1.5,1.4,3.2,1.4l0,0l459-2.4c2.5,0,4.6-2.4,4.6-5.2l-0.8-70.4
		c0-4.8,3.8-8.7,8.5-8.7c5.6,0.1,8.7,3.8,8.7,8.5l0.8,70.5c0,12.5-9.8,22.5-21.8,22.5L71.2,466.3L71.2,466.3z"/>
	<path class="st0" d="M138.2,428.5c-4.8,0-8.5-3.8-8.7-8.5c0-10.9-3.8-20.7-10.4-27.4c-6.6-6.7-15.5-10.4-25.9-10.4c0,0-0.1,0-0.3,0
		l0,0c-4.8,0-8.5-3.8-8.7-8.5c0-4.9,4.3-8.7,9-8.7c15,0,28.5,5.5,38.3,15.5c7.8,8.1,12.9,18.9,14.6,30.8l316.4-1.7l0,0
		c4.8,0,8.5,3.8,8.7,8.5c0,4.8-3.8,8.7-8.5,8.7L138.2,428.5L138.2,428.5z"/>
	<path class="st0" d="M462.9,425.8L462.9,425.8c-4.8,0-8.7-3.9-8.7-8.7c0-30.4,25.6-54.2,58.4-54.2c4.8,0,8.7,3.9,8.7,8.7
		c0,4.8-3.9,8.7-8.7,8.7c-19.9,0-41,12.9-41.1,36.8C471.4,421.9,467.6,425.8,462.9,425.8z"/>
	<path class="st0" d="M298.9,406.8c-2,0-4.1,0-6-0.3c-20.2-1.7-38.5-10.8-51.9-26c-3.1-3.6-2.8-9,0.8-12.2c3.5-3.2,9-2.8,12.2,0.8
		c10.4,11.8,24.6,18.9,40.3,20.2c19.2,1.7,38.2-6.3,50.7-21.1c3.1-3.6,8.5-4.1,12.2-1c3.6,3.1,4.1,8.5,1,12.2
		C343.2,396.9,321.5,406.8,298.9,406.8z"/>
	<path class="st0" d="M109,537.6c-5.3,0-10.4-2.1-14-6c-3.6-3.8-5.7-8.8-5.7-14.1l-1-54.9c-0.1-4.8,3.6-8.7,8.4-8.8
		c4.9,0.1,8.7,3.6,8.8,8.4l1,55c0,1.4,1.3,3.1,2.5,3.1l0,0l387.5-2c1.4,0,2.5-1.4,2.5-3.1l-0.8-59.5c0-4.8,3.8-8.7,8.5-8.7
		c0,0,0,0,0.1,0c4.8,0,8.5,3.8,8.7,8.5l0.8,59.5c0,11.2-8.8,20.3-19.7,20.4L109,537.6C109.1,537.6,109.1,537.6,109,537.6z"/>
	<path class="st0" d="M165.7,505.6c-4.8,0-8.5-3.8-8.7-8.5c0-9.1-3.1-17.1-8.7-22.5c-5.3-5.3-12.3-8.1-20.9-8l0,0
		c-4.8,0-8.5-3.8-8.7-8.5c0-4.8,3.8-8.7,8.5-8.7c0.1,0,0.3,0,0.3,0c12.7,0,24.2,4.6,32.7,12.9c7,6.9,11.5,16,13,26.2l266-1.4
		c4.6-0.4,8.7,3.8,8.7,8.5s-3.8,8.7-8.5,8.7L165.7,505.6L165.7,505.6z"/>
	<path class="st0" d="M439.8,503.3c-4.8,0-8.7-3.9-8.7-8.7c0-12.2,4.8-23.6,13.3-32.2c9.5-9.5,23.1-14.8,37.2-14.8l0,0
		c4.8,0,8.7,3.9,8.7,8.7c0,4.8-3.9,8.7-8.7,8.7l0,0l0,0c-9.7,0-18.8,3.6-25,9.8c-5.5,5.3-8.3,12.3-8.3,19.9
		C448.3,499.4,444.6,503.3,439.8,503.3z"/>
	<path class="st0" d="M301.4,487.4c-1.8,0-3.5,0-5.3-0.1c-17.4-1.4-33.2-9.4-44.6-22.4c-3.2-3.6-2.8-9,0.8-12.2
		c3.5-3.2,9-2.8,12.2,0.8c8.5,9.7,20.3,15.5,33.2,16.5c16.2,1.4,31.3-5.2,41.7-17.4c3.1-3.6,8.5-4.1,12.2-1c3.6,3.1,4.1,8.5,1,12.2
		C339.5,478.7,320.9,487.4,301.4,487.4z"/>
</g>
</svg>
