<?xml version="1.0" encoding="utf-8"?>
<!-- Generator: Adobe Illustrator 25.0.0, SVG Export Plug-In . SVG Version: 6.00 Build 0)  -->
<svg version="1.1" id="Capa_1" xmlns="http://www.w3.org/2000/svg" xmlns:xlink="http://www.w3.org/1999/xlink" x="0px" y="0px"
	 viewBox="0 0 600 600" style="enable-background:new 0 0 600 600;" xml:space="preserve">
<style type="text/css">
	.st0{fill:#FFFFFF;}
</style>
<g>
	<path class="st0" d="M296.8,596c-2.5,0-5-1.3-6.4-3.4l-58.9-87.2H69.1c-27.1,0-49-21.9-49-49V53c0-27.1,22.1-49,49-49h455.3
		c27.1,0,49,21.9,49,49v403.3c0,27.1-22.1,49-49,49H362.1l-58.9,87.2C301.8,594.7,299.3,596,296.8,596z M69.1,19.5
		c-18.5,0-33.5,15-33.5,33.5v403.3c0,18.5,15,33.5,33.5,33.5h166.5c2.5,0,5,1.3,6.4,3.4l54.8,81.1l54.8-81.1
		c1.4-2.2,3.9-3.4,6.4-3.4h166.5c18.5,0,33.5-15,33.5-33.5V53c0-18.5-15-33.5-33.5-33.5H69.1z"/>
	<g>
		<g>
			<path class="st0" d="M291.7,431.6c-1.1,0-2.2-0.3-3.3-0.9c-1.9-1.1-3-3.1-3-5.3V224.4c0-2.3,1.3-4.5,3.4-5.5l130-65
				c1.9-0.9,4.2-0.8,6.1,0.3c1.9,1.1,3,3.1,3,5.3v200.8c0,2.3-1.3,4.5-3.4,5.5l-130,65C293.5,431.4,292.6,431.6,291.7,431.6z
				 M297.8,228.3v187l117.6-58.9V169.5L297.8,228.3z M421.6,360.3L421.6,360.3L421.6,360.3z"/>
			<path class="st0" d="M291.7,431.6c-0.9,0-1.9-0.2-2.8-0.6l-130-65c-2-1.1-3.4-3.1-3.4-5.5V159.5c0-2.2,1.1-4.1,3-5.3
				c1.9-1.1,4.1-1.3,6.1-0.3l130,65c2,1.1,3.4,3.1,3.4,5.5v200.8c0,2.2-1.1,4.1-3,5.3C293.9,431.2,292.8,431.6,291.7,431.6z
				 M167.8,356.5l117.6,58.9v-187l-117.6-58.9V356.5z"/>
			<path class="st0" d="M291.7,230.8c-0.9,0-1.9-0.2-2.8-0.6l-130-65c-2-1.1-3.4-3.1-3.4-5.5s1.3-4.5,3.4-5.5l130-65
				c1.7-0.9,3.8-0.9,5.6,0l130,65c2,1.1,3.4,3.1,3.4,5.5s-1.3,4.5-3.4,5.5l-130,65C293.5,230.5,292.6,230.8,291.7,230.8z
				 M175.5,159.5l116.2,58.1l116.2-58.1l-116.2-58.1L175.5,159.5z"/>
			<g>
				<path class="st0" d="M291.2,230.9c-0.8,0-1.6-0.2-2.3-0.5l-130-65c-2-1.1-3.4-3.1-3.4-5.5c0-2.3,1.3-4.9,3.4-5.8
					c1.7-0.9,4.1-1.1,5.8-0.2l129.7,64.8c2,1.1,3.4,3.1,3.4,5.5c0,2.2-1.1,4.4-3,5.6C293.7,230.5,292.4,230.9,291.2,230.9z"/>
			</g>
			<g>
				<path class="st0" d="M291.7,231.1c-1.1,0-2.2-0.3-3.3-0.9c-1.9-1.1-3-3.1-3-5.3v-0.6c0-2.3,1.3-4.5,3.4-5.5l129.7-64.8
					c1.7-0.9,3.8-0.9,5.6,0c2,1.1,3.8,3.3,3.8,5.6c0,2.3-1.3,4.9-3.4,5.8l-130,65C293.5,230.8,292.6,231.1,291.7,231.1z"/>
			</g>
			<path class="st0" d="M291.7,230.8c-2.2,0-4.4-1.3-5.5-3.4c-0.5-0.9-0.6-1.9-0.6-2.8c0-2.2,1.3-4.4,3.4-5.5l130-65
				c3.1-1.6,6.7-0.3,8.3,2.8c0.5,0.9,0.6,1.9,0.6,2.8c0,2.2-1.3,4.4-3.4,5.5l-130,65C293.5,230.5,292.6,230.8,291.7,230.8z"/>
		</g>
		<path class="st0" d="M231.8,268.4c-0.9,0-1.9-0.2-2.8-0.6l-18.8-9.4c-2-1.1-3.4-3.1-3.4-5.5v-67.2c0-2.2,1.1-4.1,3-5.3
			c1.9-1.1,4.1-1.3,6.1-0.3l18.8,9.4c2,1.1,3.4,3.1,3.4,5.5v67.2c0,2.2-1.1,4.1-3,5.3C234.2,268.1,232.9,268.4,231.8,268.4z
			 M219.3,248.9l6.4,3.1v-53.4l-6.4-3.1V248.9z"/>
		<path class="st0" d="M231.8,201.2c-0.9,0-1.9-0.2-2.8-0.6l-18.8-9.4c-2-1.1-3.4-3.1-3.4-5.5c0-2.3,1.4-4.5,3.4-5.5l131.2-64.7
			c1.7-0.9,3.8-0.9,5.5,0l18.8,9.4c2.2,1.1,3.4,3.1,3.4,5.5c0,2.3-1.4,4.5-3.4,5.5l-131.2,64.7C233.7,201,232.8,201.2,231.8,201.2z
			 M227,185.7l4.9,2.5l117.3-57.9l-4.9-2.5L227,185.7z"/>
	</g>
</g>
</svg>
