<?xml version="1.0" encoding="utf-8"?>
<!-- Generator: Adobe Illustrator 25.0.0, SVG Export Plug-In . SVG Version: 6.00 Build 0)  -->
<svg version="1.1" id="Capa_1" xmlns="http://www.w3.org/2000/svg" xmlns:xlink="http://www.w3.org/1999/xlink" x="0px" y="0px"
	 viewBox="0 0 600 600" style="enable-background:new 0 0 600 600;" xml:space="preserve">
<style type="text/css">
	.st0{fill:#006dd9;}
</style>
<g>
	<path class="st0" d="M583.8,165.4H18.5c-5,0-9-4.1-9-9s4.1-9,9-9h565.3c5,0,9,4.1,9,9S588.8,165.4,583.8,165.4z"/>
	<path class="st0" d="M102.5,104.2c-0.5,0-1.1,0-1.7-0.2c-25-4.7-41.6-29-36.9-54c2.3-12.2,9.2-22.7,19.4-29.6
		c10.2-7,22.6-9.6,34.6-7.2c25.6,4.9,41.9,28.1,37.4,52.9c-0.9,4.9-5.5,8.2-10.5,7.2c-4.9-0.9-8.1-5.6-7.2-10.5
		c2.7-14.8-7.2-28.8-22.9-31.7c-15.1-3.1-30.1,7.2-32.9,22.4c-2.9,15.3,7.2,30.1,22.4,32.9c4.9,0.9,8.1,5.6,7.2,10.5
		C110.6,101.1,106.8,104.2,102.5,104.2z"/>
	<path class="st0" d="M225.5,104.2c-0.5,0-1.1,0-1.7-0.2c-12.2-2.3-22.7-9.2-29.6-19.4c-7-10.2-9.6-22.6-7.3-34.6
		c2.3-12.2,9.2-22.7,19.4-29.6c10.2-7,22.6-9.5,34.6-7.2s22.7,8.8,29.7,18.6c7.2,9.9,9.9,22.1,7.6,34.3c-0.9,4.9-5.5,8.2-10.5,7.2
		c-4.9-0.9-8.1-5.6-7.2-10.5c1.4-7.2-0.2-14.5-4.4-20.3c-4.3-5.9-10.8-10.1-18.5-11.4c-7.3-1.4-14.8,0.2-21.1,4.4
		c-6.3,4.3-10.4,10.7-11.7,18c-1.4,7.5,0.2,14.9,4.4,21.1c4.3,6.3,10.7,10.4,18,11.7c4.9,0.9,8.1,5.6,7.2,10.5
		C233.5,101.1,229.7,104.2,225.5,104.2z"/>
	<path class="st0" d="M348.4,104.2c-0.5,0-1.1,0-1.7-0.2c-12.2-2.3-22.7-9.2-29.6-19.4c-7-10.2-9.5-22.6-7.2-34.6
		c2.3-12.2,9.2-22.6,19.4-29.6s22.4-9.6,34.6-7.3s22.7,8.8,29.7,18.6c7.2,9.9,9.9,22.1,7.6,34.3c-0.9,4.9-5.5,8.2-10.5,7.2
		c-4.9-0.9-8.1-5.6-7.2-10.5c1.4-7.2-0.2-14.5-4.4-20.3c-4.3-5.9-10.8-10.1-18.3-11.4c-7.5-1.4-14.9,0.2-21.1,4.4
		c-6.3,4.3-10.4,10.7-11.7,18c-1.4,7.5,0.2,14.9,4.4,21.1c4.3,6.3,10.7,10.4,18,11.7c4.9,0.9,8.1,5.6,7.2,10.5
		C356.5,101.1,352.7,104.2,348.4,104.2z"/>
	<path class="st0" d="M471.3,104.2c-0.5,0-1.1,0-1.7-0.2c-12.2-2.3-22.7-9.2-29.6-19.4c-7-10.2-9.6-22.6-7.3-34.6
		c2.3-12.2,9.2-22.7,19.4-29.6c10.2-7,22.6-9.6,34.6-7.2c25.6,4.9,41.9,28.1,37.2,52.9c-0.9,4.9-5.5,8.2-10.5,7.2
		c-4.9-0.9-8.1-5.6-7.2-10.5c2.9-14.8-7.2-28.8-22.9-31.7c-15.1-3.1-30.1,7.2-32.9,22.4c-1.4,7.5,0.2,14.9,4.4,21.1
		c4.3,6.3,10.7,10.4,18,11.7c4.9,0.9,8.1,5.6,7.2,10.5C479.4,101.1,475.6,104.2,471.3,104.2z"/>
	<path class="st0" d="M525.2,585.2H75.7c-38.6,0-69.9-31.4-69.9-70V129.5c0-38.6,31.4-70,69.9-70h449.5c38.6,0,70,31.4,70,70v385.8
		C595.2,553.7,563.8,585.2,525.2,585.2z M75.7,77.7c-28.5,0-51.9,23.3-51.9,51.9v385.8c0,28.5,23.3,51.9,51.9,51.9h449.5
		c28.7,0,51.9-23.3,51.9-51.9V129.5c0-28.5-23.3-51.9-51.9-51.9H75.7z"/>
	<path class="st0" d="M195.9,333.8H69.1c-5,0-9-4.1-9-9v-99.6c0-5,4.1-9,9-9h126.8c5,0,9,4.1,9,9v99.6
		C204.9,329.6,200.7,333.8,195.9,333.8z M78.1,315.6h108.8V234H78.1V315.6z"/>
	<path class="st0" d="M363,333.8H236.3c-5,0-9-4.1-9-9v-99.6c0-5,4.1-9,9-9H363c5,0,9,4.1,9,9v99.6C372,329.6,368.1,333.8,363,333.8
		z M245.3,315.6h108.6V234H245.3V315.6z"/>
	<path class="st0" d="M530.4,333.8H403.6c-5,0-9-4.1-9-9v-99.6c0-5,4.1-9,9-9h85.6c5,0,9,4.1,9,9c0,4.9-4.1,9-9,9h-76.6v81.6h108.6
		v-50.2c0-5,4.1-9,9-9c5,0,9,4.1,9,9v59.2C539.4,329.6,535.3,333.8,530.4,333.8z"/>
	<path class="st0" d="M195.9,498.4H69.1c-5,0-9-4.1-9-9v-99.6c0-5,4.1-9,9-9h126.8c5,0,9,4.1,9,9v99.6
		C204.9,494.4,200.7,498.4,195.9,498.4z M78.1,480.4h108.8v-81.6H78.1V480.4z"/>
	<path class="st0" d="M363,498.4H236.3c-5,0-9-4.1-9-9v-99.6c0-5,4.1-9,9-9H363c5,0,9,4.1,9,9v99.6C372,494.4,368.1,498.4,363,498.4
		z M245.3,480.4h108.6v-81.6H245.3V480.4z"/>
	<path class="st0" d="M530.4,498.4H403.6c-5,0-9-4.1-9-9v-99.6c0-5,4.1-9,9-9h126.8c5,0,9,4.1,9,9v99.6
		C539.4,494.4,535.3,498.4,530.4,498.4z M412.6,480.4h108.6v-81.6H412.6V480.4z"/>
	<path class="st0" d="M466.6,306.6c-2.3,0-4.6-0.9-6.3-2.4l-24.7-23.6c-3.7-3.5-3.8-9.2-0.3-12.8s9.3-3.7,12.8-0.3l17.7,16.9
		l69.3-84.4c3.2-3.8,8.8-4.4,12.8-1.2c3.8,3.2,4.4,8.8,1.2,12.7l-75.5,91.8c-1.7,2-4,3.2-6.4,3.4
		C466.9,306.6,466.8,306.6,466.6,306.6z"/>
</g>
</svg>
