<?xml version="1.0" encoding="utf-8"?>
<!-- Generator: Adobe Illustrator 25.0.0, SVG Export Plug-In . SVG Version: 6.00 Build 0)  -->
<svg version="1.1" id="Capa_1" xmlns="http://www.w3.org/2000/svg" xmlns:xlink="http://www.w3.org/1999/xlink" x="0px" y="0px"
	 viewBox="0 0 600 600" style="enable-background:new 0 0 600 600;" xml:space="preserve">
<style type="text/css">
	.st0{fill:#006dd9;}
</style>
<g>
	<path class="st0" d="M556.8,564.8H45c-21.6,0-39.3-17.7-39.3-39.3V308.7c0-2.5,1.1-4.8,3.1-6.3c2-1.5,4.5-2,6.9-1.4
		c67.7,18.5,141.1,30.2,218.2,34.5c4.2,0.3,7.4,3.8,7.4,8v23.6c0,10,8.1,18.1,18.1,18.1H341c10,0,18.1-8.1,18.1-18.1v-23.6
		c0-4.2,3.2-7.7,7.4-8c77.1-4.4,150.5-16,218.2-34.5c2.4-0.7,4.9-0.1,6.9,1.4c2,1.5,3.1,3.8,3.1,6.3v217.9
		C595,547.7,577.9,564.8,556.8,564.8z M21.7,319.1v206.5c0,12.9,10.5,23.4,23.4,23.4h511.7c12.4,0,22.3-10,22.3-22.3V319.1
		c-63.7,16.7-132.3,27.4-204,32v16c0,18.7-15.3,34-34,34h-81.6c-18.8,0-34-15.3-34-34v-16C154,346.5,85.5,335.7,21.7,319.1z"/>
	<path class="st0" d="M367.3,351.5c-4.2,0-7.7-3.2-8-7.6c-0.3-4.4,3.1-8.1,7.4-8.4c74.8-4.2,146.3-15.3,212.4-33V139.4
		c0-10.2-8.3-18.5-18.5-18.5h-522c-9.3,0-16.8,7.6-16.8,16.8v164.8c66.1,17.7,137.5,28.8,212.4,33c4.4,0.3,7.7,4.1,7.4,8.4
		s-4.2,7.9-8.4,7.4c-78.2-4.5-152.8-16.3-221.6-35.1c-3.5-1-5.9-4.1-5.9-7.7V137.7c0-18.1,14.7-32.9,32.9-32.9h522
		c19,0,34.4,15.4,34.4,34.4v169.3c0,3.7-2.4,6.7-5.9,7.7c-68.8,18.8-143.4,30.6-221.6,35.1C367.5,351.5,367.4,351.5,367.3,351.5z"/>
	<path class="st0" d="M367.3,351.5c-4.4,0-8-3.5-8-8v-19.2c0-10-8.1-18.1-18.1-18.1h-81.6c-10,0-18.1,8.1-18.1,18.1v19.2
		c0,4.4-3.5,8-8,8c-4.5,0-8-3.5-8-8v-19.2c0-18.7,15.3-34,34-34H341c18.8,0,34,15.3,34,34v19.2C375.3,347.9,371.6,351.5,367.3,351.5
		z"/>
	<path class="st0" d="M460.6,119.4H140.2c-2.7,0-5.1-1.3-6.6-3.5c-1.4-2.2-1.8-4.9-0.8-7.4c19.1-48.2,50.5-72.6,93.7-72.6h140.8
		c45.2,0,82.8,27.1,101,72.6c1,2.5,0.7,5.2-0.8,7.4C465.7,118,463.3,119.4,460.6,119.4z M152.3,103.4h296
		c-16.8-32.6-46.5-51.7-81.2-51.7H226.4C193.3,51.8,169,68.7,152.3,103.4z"/>
</g>
</svg>
