<?xml version="1.0" encoding="utf-8"?>
<!-- Generator: Adobe Illustrator 25.0.0, SVG Export Plug-In . SVG Version: 6.00 Build 0)  -->
<svg version="1.1" id="Capa_1" xmlns="http://www.w3.org/2000/svg" xmlns:xlink="http://www.w3.org/1999/xlink" x="0px" y="0px"
	 viewBox="0 0 600 600" style="enable-background:new 0 0 600 600;" xml:space="preserve">
<style type="text/css">
	.st0{fill:#006dd9;}
</style>
<g>
	<path class="st0" d="M482.1,595.3H114.4c-46,0-83.7-36.5-83.7-81.5l-0.5-204.9c-11.5-15.8-17.9-35-17.9-54.3v-51
		c0-9.5,2.2-17.5,7.2-26.2l90.2-155.1c8.7-15,19.4-18.1,32.6-18.1H454c13.3,0,23.9,3.1,32.6,18.1l0,0l89.7,154.5
		c6.7,11.4,7.6,17,7.6,30.3v47.6c0,19.5-6.4,38.7-17.9,54.3L565.7,514C565.7,558.8,528.3,595.3,482.1,595.3z M142.5,24.2
		c-8.9,0-11.4,1.4-15.3,8.1L37,187.5c-3.3,5.8-4.5,10.1-4.5,16.1v51c0,16.2,5.6,32,15.8,44.6c1.4,1.7,2.2,3.9,2.2,6.2l0.5,208.2
		c0,33.9,28.6,61.3,63.7,61.3h367.6c35.1,0,63.7-27.5,63.7-61.3l0.5-208.4c0-2.3,0.8-4.5,2.2-6.2c10.1-12.6,15.8-28.6,15.8-44.6
		v-47.6c0-10.3-0.3-12.3-5-20.3L469.4,32c-3.9-6.7-6.6-8.1-15.3-8.1H142.5V24.2z"/>
	<path class="st0" d="M551.8,313.4H36.5c-5.5,0-10-4.5-10-10c0-5.5,4.5-10,10-10H552c5.5,0,10,4.5,10,10
		C562,308.9,557.5,313.4,551.8,313.4z"/>
	<path class="st0" d="M500.7,196.8H76.1c-5.5,0-10-4.5-10-10s4.5-10,10-10h424.4c5.5,0,10,4.5,10,10
		C510.6,192.3,506.1,196.8,500.7,196.8z"/>
	<path class="st0" d="M300.1,593.3H160.3c-5.5,0-10-4.5-10-10V387.4c0-5.5,4.5-10,10-10h139.8c5.5,0,10,4.5,10,10v195.9
		C310.1,588.7,305.6,593.3,300.1,593.3z M170.1,573.3H290V397.4H170.1L170.1,573.3L170.1,573.3z"/>
	<path class="st0" d="M469.1,499.9H361.9c-5.5,0-10-4.5-10-10V382.7c0-5.5,4.5-10,10-10h107.2c5.5,0,10,4.5,10,10V490
		C479.1,495.6,474.6,499.9,469.1,499.9z M371.9,480h87.2v-87.2h-87.2V480z"/>
</g>
</svg>
