<?xml version="1.0" encoding="utf-8"?>
<!-- Generator: Adobe Illustrator 25.0.0, SVG Export Plug-In . SVG Version: 6.00 Build 0)  -->
<svg version="1.1" id="Capa_1" xmlns="http://www.w3.org/2000/svg" xmlns:xlink="http://www.w3.org/1999/xlink" x="0px" y="0px"
	 viewBox="0 0 600 600" style="enable-background:new 0 0 600 600;" xml:space="preserve">
<style type="text/css">
	.st0{fill:#FFFFFF;}
</style>
<g>
	<g>
		<path class="st0" d="M298.4,291.2c-29.7,0-56.6-15.2-72.3-40.6c-8.1-13.2-12.4-28.4-12.4-44c0-46.6,37.9-84.5,84.5-84.5
			c46.6,0,84.5,37.9,84.5,84.5c0,15.6-4.3,30.8-12.4,44C355,276,328.1,291.2,298.4,291.2z M298.4,136.6c-38.6,0-70.1,31.4-70.1,70.1
			c0,12.9,3.5,25.6,10.2,36.5c12.9,21,35.2,33.6,59.9,33.6c24.7,0,47-12.6,59.9-33.6c6.7-10.9,10.2-23.6,10.2-36.5
			C368.4,168,337,136.6,298.4,136.6z"/>
		<path class="st0" d="M422.8,459.1H173.9c-2.1,0-4.1-0.9-5.4-2.4c-1.4-1.6-2-3.5-1.7-5.7c10.6-83.5,66-144.1,131.6-144.1
			S419.4,367.5,430,451c0.3,2-0.4,4.1-1.7,5.7C426.9,458.2,424.9,459.1,422.8,459.1z M182.1,444.6h232.2
			c-12.1-72-59.9-123.4-116.1-123.4C242.2,321.3,194.2,372.6,182.1,444.6z"/>
	</g>
	<g>
		<path class="st0" d="M488.2,321.7c-24.8,0-47.3-12.6-60.2-33.8c-6.7-10.9-10.2-23.7-10.2-36.6c0-38.8,31.5-70.4,70.4-70.4
			c38.8,0,70.4,31.5,70.4,70.4c0,12.9-3.5,25.6-10.2,36.6C535.5,309.1,512.9,321.7,488.2,321.7z M488.2,195.3
			c-30.9,0-56.1,25.1-56.1,56.1c0,10.2,2.8,20.3,8.1,29.1c10.2,16.9,28.1,27,47.8,27c19.7,0,37.6-10.1,47.8-27
			c5.3-8.7,8.1-18.7,8.1-29.1C544.1,220.5,519,195.3,488.2,195.3z"/>
		<path class="st0" d="M590,459.1H455.4c-4,0-7.2-3.3-7.2-7.2c0-4,3.3-7.2,7.2-7.2h126.2c-10.2-57.5-48.5-98.2-93.4-98.2
			c-20.6,0-40.3,8.7-56.9,25c-2.8,2.8-7.4,2.8-10.2-0.1c-2.8-2.8-2.7-7.4,0-10.2c19.3-19,42.6-29.1,67-29.1
			c54.4,0,100.1,50.1,108.9,119c0.3,2-0.4,4.1-1.7,5.7C594,458.2,592,459.1,590,459.1z"/>
	</g>
	<g>
		<path class="st0" d="M110.6,321.7c-24.8,0-47.3-12.6-60.2-33.8c-6.7-10.9-10.2-23.6-10.2-36.6c0-38.8,31.5-70.4,70.4-70.4
			s70.4,31.5,70.4,70.4c0,12.9-3.5,25.6-10.2,36.6C157.9,309.1,135.4,321.7,110.6,321.7z M110.6,195.3c-30.9,0-55.9,25.1-55.9,56.1
			c0,10.4,2.8,20.4,8.1,29.1c10.2,16.9,28.1,27,47.8,27s37.6-10.1,47.8-26.8c5.4-8.8,8.1-18.7,8.1-29.1
			C166.7,220.5,141.5,195.3,110.6,195.3z"/>
		<path class="st0" d="M143.5,459.1H9c-2.1,0-4-0.9-5.4-2.4c-1.4-1.6-2-3.5-1.7-5.7c8.8-69,54.7-119,108.9-119
			c24.6,0,47.7,10.1,67,29.1c2.8,2.8,2.8,7.4,0,10.2c-2.8,2.8-7.4,2.8-10.2,0.1c-16.6-16.3-36.2-25-56.9-25
			c-44.9,0-83.2,40.9-93.4,98.2h126.2c4,0,7.2,3.3,7.2,7.2C150.8,455.8,147.5,459.1,143.5,459.1z"/>
	</g>
</g>
</svg>
