<?xml version="1.0" encoding="utf-8"?>
<!-- Generator: Adobe Illustrator 25.0.0, SVG Export Plug-In . SVG Version: 6.00 Build 0)  -->
<svg version="1.1" id="Capa_1" xmlns="http://www.w3.org/2000/svg" xmlns:xlink="http://www.w3.org/1999/xlink" x="0px" y="0px"
	 viewBox="0 0 600 600" style="enable-background:new 0 0 600 600;" xml:space="preserve">
<style type="text/css">
	.st0{fill:#E43341;}
	.st1{fill:#EDEDA8;}
	.st2{fill:#006dd9;}
	.st3{fill:#4AB177;}
</style>
<g>
	<path class="st0" d="M401.8,313.1H127.7c-8.9,0-16.1-7.2-16.1-16.1s7.2-16.1,16.1-16.1h274.1c8.9,0,16.1,7.2,16.1,16.1
		S410.8,313.1,401.8,313.1z"/>
	<path class="st1" d="M312.7,404.6h-185c-8.9,0-16.1-7.2-16.1-16.1c0-8.9,7.2-16.1,16.1-16.1h185c8.9,0,16.1,7.2,16.1,16.1
		C329,397.4,321.6,404.6,312.7,404.6z"/>
	<path class="st2" d="M551.1,511.6H48c-24.3,0-43.8-19.5-43.8-43.8v-344c0-24.3,19.5-43.8,43.8-43.8h503.3
		c24.3,0,43.8,19.5,43.8,43.8v344C594.9,491.7,575.1,511.6,551.1,511.6z M47.5,97.2c-14.7,0-26.7,12-26.7,26.7v344
		c0,14.7,12,26.7,26.7,26.7h503.3c14.7,0,26.7-12,26.7-26.7v-344c0-14.7-12-26.7-26.7-26.7H47.5z"/>
	<path class="st3" d="M449.9,225.1H127.7c-8.9,0-16.1-7.2-16.1-16.1c0-8.9,7.2-16.1,16.1-16.1h322.2c8.9,0,16.1,7.2,16.1,16.1
		C466,217.9,458.8,225.1,449.9,225.1z"/>
</g>
</svg>
