<?xml version="1.0" encoding="utf-8"?>
<!-- Generator: Adobe Illustrator 25.0.0, SVG Export Plug-In . SVG Version: 6.00 Build 0)  -->
<svg version="1.1" id="Capa_1" xmlns="http://www.w3.org/2000/svg" xmlns:xlink="http://www.w3.org/1999/xlink" x="0px" y="0px"
	 viewBox="0 0 600 600" style="enable-background:new 0 0 600 600;" xml:space="preserve">
<style type="text/css">
	.st0{fill:#006dd9;}
</style>
<g>
	<path class="st0" d="M482.1,595.7H114.9c-46.1,0-83.5-36.4-83.5-81.3l-0.5-204.7C19.2,294,13,274.8,13,255.4v-50.9
		c0-9.5,2.2-17.4,7.3-26.2l90-155c8.7-15,19.3-18.1,32.6-18.1h311.2c13.4,0,24,3.1,32.6,18.1l89.7,154.4c6.7,11.5,7.6,17,7.6,30.4
		v47.5c0,19.5-6.4,38.6-17.9,54.4l-0.5,204.7C565.8,559.2,528.2,595.7,482.1,595.7z M142.9,25.3c-8.9,0-11.4,1.2-15.4,8.1l-90,155
		c-3.3,5.8-4.5,10.1-4.5,16v50.9c0,16.4,5.5,31.8,15.7,44.7c1.4,1.7,2.2,3.9,2.2,6.2l0.5,208.1c0,33.8,28.5,61.4,63.5,61.4h367.3
		c35,0,63.5-27.6,63.5-61.4l0.5-208.1c0-2.3,0.8-4.5,2.2-6.2c10.1-12.6,15.7-28.5,15.7-44.7v-47.5c0-10.3-0.3-12.3-5-20.2
		L469.5,33.4l0,0c-3.9-6.9-6.4-8.1-15.3-8.1H142.9z"/>
	<path class="st0" d="M551.9,314.1H37c-5.5,0-10-4.5-10-10s4.5-10,10-10h514.9c5.5,0,10,4.5,10,10S557.4,314.1,551.9,314.1z"/>
	<path class="st0" d="M500.7,197.7h-424c-5.5,0-10-4.5-10-10s4.5-10,10-10h424c5.5,0,10,4.5,10,10S506.1,197.7,500.7,197.7z"/>
	<path class="st0" d="M300.4,593.7H160.7c-5.5,0-10-4.5-10-10V388.1c0-5.5,4.5-10,10-10h139.7c5.5,0,10,4.5,10,10v195.6
		C310.3,589.1,305.8,593.7,300.4,593.7z M170.5,573.7h119.8V398H170.5L170.5,573.7L170.5,573.7z"/>
	<path class="st0" d="M469.2,500.5H362c-5.5,0-10-4.5-10-10V383.4c0-5.5,4.5-10,10-10h107.2c5.5,0,10,4.5,10,10v107.2
		C479.2,496,474.7,500.5,469.2,500.5z M372,480.4h87.1v-87.2H372V480.4z"/>
</g>
</svg>
