<?xml version="1.0" encoding="utf-8"?>
<!-- Generator: Adobe Illustrator 25.0.0, SVG Export Plug-In . SVG Version: 6.00 Build 0)  -->
<svg version="1.1" id="Capa_1" xmlns="http://www.w3.org/2000/svg" xmlns:xlink="http://www.w3.org/1999/xlink" x="0px" y="0px"
	 viewBox="0 0 600 600" style="enable-background:new 0 0 600 600;" xml:space="preserve">
<style type="text/css">
	.st0{fill:#FFFFFF;}
</style>
<g>
	<g>
		<g>
			<g>
				<path class="st0" d="M573.9,446.6c-2.8,0-5.5-1.6-6.9-4.2c-1.8-3.8-0.4-8.5,3.4-10.3l9.5-4.8v-10.6c0-4.2,3.4-7.6,7.6-7.6
					s7.6,3.4,7.6,7.6V432c0,3-1.7,5.5-4.2,6.9l-13.9,6.9C576.2,446.3,575.1,446.6,573.9,446.6z"/>
				<path class="st0" d="M462.4,502.2c-2.8,0-5.5-1.6-6.9-4.2c-1.8-3.8-0.4-8.5,3.4-10.3l27.9-13.9c3.7-1.8,8.5-0.3,10.3,3.4
					c1.8,3.8,0.4,8.5-3.4,10.3l-27.9,13.9C464.8,502,463.7,502.2,462.4,502.2z M518.2,474.4c-2.8,0-5.5-1.6-6.9-4.2
					c-1.8-3.8-0.4-8.5,3.4-10.3l27.9-13.9c3.7-1.8,8.5-0.3,10.3,3.4c1.8,3.8,0.4,8.5-3.4,10.3l-27.9,13.9
					C520.6,474.2,519.3,474.4,518.2,474.4z"/>
				<path class="st0" d="M420.8,523.1c-1.4,0-2.8-0.4-4.1-1.1c-2.3-1.4-3.7-4-3.7-6.5v-15.4c0-4.2,3.4-7.6,7.6-7.6s7.6,3.4,7.6,7.6
					v3l2.7-1.3c3.7-1.8,8.4-0.4,10.3,3.4c1.8,3.8,0.4,8.5-3.4,10.3l-13.9,6.9C423.2,522.9,422.1,523.1,420.8,523.1z"/>
				<path class="st0" d="M420.8,477c-4.2,0-7.6-3.4-7.6-7.6v-30.7c0-4.2,3.4-7.6,7.6-7.6s7.6,3.4,7.6,7.6v30.7
					C428.6,473.5,425,477,420.8,477z M420.8,415.6c-4.2,0-7.6-3.4-7.6-7.6v-30.7c0-4.2,3.4-7.6,7.6-7.6s7.6,3.4,7.6,7.6v30.7
					C428.6,412,425,415.6,420.8,415.6z M420.8,354.1c-4.2,0-7.6-3.4-7.6-7.6v-30.7c0-4.2,3.4-7.6,7.6-7.6s7.6,3.4,7.6,7.6v30.7
					C428.6,350.6,425,354.1,420.8,354.1z"/>
				<path class="st0" d="M420.8,292.7c-4.2,0-7.6-3.4-7.6-7.6v-15.4c0-3,1.7-5.7,4.2-6.9l13.9-6.9c3.7-1.8,8.5-0.3,10.3,3.4
					c1.8,3.8,0.4,8.5-3.4,10.3l-9.5,4.8v10.6C428.6,289.2,425,292.7,420.8,292.7L420.8,292.7z"/>
				<path class="st0" d="M462.4,256.5c-2.8,0-5.5-1.6-6.9-4.2c-1.8-3.8-0.4-8.5,3.4-10.3l27.9-13.9c3.7-1.8,8.4-0.4,10.3,3.4
					c1.8,3.8,0.4,8.5-3.4,10.3l-27.9,13.9C464.8,256.2,463.7,256.5,462.4,256.5z M518.2,228.6c-2.8,0-5.5-1.6-6.9-4.2
					c-1.8-3.8-0.4-8.5,3.4-10.3l27.9-13.9c3.7-1.8,8.5-0.4,10.3,3.4c1.8,3.8,0.4,8.5-3.4,10.3l-27.9,13.9
					C520.6,228.3,519.3,228.6,518.2,228.6z"/>
				<path class="st0" d="M587.7,209.4c-4.2,0-7.6-3.4-7.6-7.6v-3.1l-2.7,1.3c-3.7,2-8.4,0.4-10.3-3.4c-1.8-3.8-0.4-8.5,3.4-10.3
					l13.9-6.9c2.4-1.3,5.1-1,7.5,0.3c2.3,1.4,3.7,4,3.7,6.5v15.4C595.4,205.8,591.9,209.4,587.7,209.4z"/>
				<path class="st0" d="M587.7,393.5c-4.2,0-7.6-3.4-7.6-7.6v-30.7c0-4.2,3.4-7.6,7.6-7.6s7.6,3.4,7.6,7.6v30.7
					C595.4,390.1,591.9,393.5,587.7,393.5z M587.7,332.1c-4.2,0-7.6-3.4-7.6-7.6v-30.7c0-4.2,3.4-7.6,7.6-7.6s7.6,3.4,7.6,7.6v30.7
					C595.4,328.7,591.9,332.1,587.7,332.1z M587.7,270.8c-4.2,0-7.6-3.4-7.6-7.6v-30.7c0-4.2,3.4-7.6,7.6-7.6s7.6,3.4,7.6,7.6v30.7
					C595.4,267.2,591.9,270.8,587.7,270.8z"/>
			</g>
			<g>
				<path class="st0" d="M420.8,523.1c-1.1,0-2.4-0.3-3.4-0.8l-13.9-6.9c-3.8-2-5.4-6.5-3.4-10.3c2-3.8,6.7-5.4,10.3-3.4l2.7,1.3v-3
					c0-4.2,3.4-7.6,7.6-7.6s7.6,3.4,7.6,7.6v15.4c0,2.7-1.4,5.1-3.7,6.5C423.6,522.7,422.2,523.1,420.8,523.1z"/>
				<path class="st0" d="M379.2,502.2c-1.1,0-2.4-0.3-3.4-0.8l-27.9-13.9c-3.8-2-5.4-6.5-3.4-10.3c2-3.8,6.7-5.4,10.3-3.4l27.9,13.9
					c3.8,2,5.4,6.5,3.4,10.3C384.7,500.6,382,502.2,379.2,502.2z M323.6,474.4c-1.1,0-2.4-0.3-3.4-0.8l-27.9-13.9
					c-3.8-1.8-5.4-6.5-3.4-10.3c2-3.8,6.7-5.4,10.3-3.4l27.9,13.9c3.8,1.8,5.4,6.5,3.4,10.3C329.1,472.9,326.4,474.4,323.6,474.4z"
					/>
				<path class="st0" d="M267.8,446.6c-1.1,0-2.4-0.3-3.4-0.8l-13.9-6.9c-2.7-1.3-4.2-4-4.2-6.9v-15.3c0-4.2,3.4-7.6,7.6-7.6
					c4.2,0,7.6,3.4,7.6,7.6v10.6l9.5,4.8c3.8,2,5.4,6.5,3.4,10.3C273.3,445,270.6,446.6,267.8,446.6z"/>
				<path class="st0" d="M254.1,393.5c-4.2,0-7.6-3.4-7.6-7.6v-30.7c0-4.2,3.4-7.6,7.6-7.6c4.2,0,7.6,3.4,7.6,7.6v30.7
					C261.7,390.1,258.3,393.5,254.1,393.5z M254.1,332.1c-4.2,0-7.6-3.4-7.6-7.6v-30.7c0-4.2,3.4-7.6,7.6-7.6c4.2,0,7.6,3.4,7.6,7.6
					v30.7C261.7,328.7,258.3,332.1,254.1,332.1z M254.1,270.8c-4.2,0-7.6-3.4-7.6-7.6v-30.7c0-4.2,3.4-7.6,7.6-7.6
					c4.2,0,7.6,3.4,7.6,7.6v30.7C261.7,267.2,258.3,270.8,254.1,270.8z"/>
				<path class="st0" d="M254.1,209.4c-4.2,0-7.6-3.4-7.6-7.6v-15.4c0-2.7,1.4-5.1,3.7-6.5s5.1-1.6,7.5-0.3l13.9,6.9
					c3.8,2,5.4,6.5,3.4,10.3c-2,3.8-6.7,5.4-10.3,3.4l-2.7-1.3v3C261.7,205.8,258.3,209.4,254.1,209.4z"/>
				<path class="st0" d="M379.2,256.5c-1.1,0-2.4-0.3-3.4-0.8l-27.9-13.9c-3.8-1.8-5.4-6.5-3.4-10.3c2-3.8,6.7-5.4,10.3-3.4
					l27.9,13.9c3.8,1.8,5.4,6.5,3.4,10.3C384.7,254.9,382,256.5,379.2,256.5z M323.4,228.6c-1.1,0-2.4-0.3-3.4-0.8l-27.9-13.9
					c-3.8-2-5.4-6.5-3.4-10.3c2-3.8,6.7-5.4,10.3-3.4L327,214c3.8,2,5.4,6.5,3.4,10.3C329.1,227,326.3,228.6,323.4,228.6z"/>
				<path class="st0" d="M420.8,292.7c-4.2,0-7.6-3.4-7.6-7.6v-10.6l-9.5-4.8c-3.8-2-5.4-6.5-3.4-10.3c2-3.8,6.7-5.4,10.3-3.4
					l13.9,6.9c2.7,1.3,4.2,4,4.2,6.9v15.4C428.6,289.3,425,292.7,420.8,292.7z"/>
				<path class="st0" d="M420.8,477c-4.2,0-7.6-3.4-7.6-7.6v-30.7c0-4.2,3.4-7.6,7.6-7.6s7.6,3.4,7.6,7.6v30.7
					C428.6,473.5,425,477,420.8,477z M420.8,415.6c-4.2,0-7.6-3.4-7.6-7.6v-30.7c0-4.2,3.4-7.6,7.6-7.6s7.6,3.4,7.6,7.6v30.7
					C428.6,412,425,415.6,420.8,415.6z M420.8,354.1c-4.2,0-7.6-3.4-7.6-7.6v-30.7c0-4.2,3.4-7.6,7.6-7.6s7.6,3.4,7.6,7.6v30.7
					C428.6,350.7,425,354.1,420.8,354.1z"/>
			</g>
			<g>
				<path class="st0" d="M573.9,200.7c-2.8,0-5.5-1.6-6.9-4.2c-1.8-3.8-0.4-8.5,3.4-10.3l0,0c-3.8-2-5.4-6.5-3.4-10.3
					c1.8-3.8,6.7-5.4,10.3-3.4l13.9,6.9c2.7,1.3,4.2,4,4.2,6.9c0,3-1.7,5.5-4.2,6.9l-13.9,6.9C576.2,200.6,575.1,200.7,573.9,200.7z
					"/>
				<path class="st0" d="M462.4,256.5c-2.8,0-5.5-1.6-6.9-4.2c-1.8-3.8-0.4-8.5,3.4-10.3l27.9-13.9c3.7-1.8,8.5-0.4,10.3,3.4
					c1.8,3.8,0.4,8.5-3.4,10.3l-27.9,13.9C464.8,256.2,463.7,256.5,462.4,256.5z M518.2,228.6c-2.8,0-5.5-1.6-6.9-4.2
					c-1.8-3.8-0.4-8.5,3.4-10.3l27.9-13.9c3.7-1.8,8.5-0.4,10.3,3.4c1.8,3.8,0.4,8.5-3.4,10.3l-27.9,13.9
					C520.6,228.3,519.3,228.6,518.2,228.6z"/>
				<path class="st0" d="M420.8,277.3c-1.1,0-2.4-0.3-3.4-0.8l-13.9-6.9c-3.8-2-5.4-6.5-3.4-10.3c2-3.8,6.7-5.4,10.3-3.4l10.3,5.2
					l10.3-5.2c3.7-1.8,8.4-0.4,10.3,3.4c1.8,3.8,0.4,8.5-3.4,10.3l-13.9,6.9C423.2,277,422.1,277.3,420.8,277.3z"/>
				<path class="st0" d="M379.2,256.5c-1.1,0-2.4-0.3-3.4-0.8l-27.9-13.9c-3.8-2-5.4-6.5-3.4-10.3c2-3.8,6.5-5.4,10.3-3.4l27.9,13.9
					c3.8,2,5.4,6.5,3.4,10.3C384.7,254.9,382,256.5,379.2,256.5z M323.6,228.6c-1.1,0-2.4-0.3-3.4-0.8l-27.9-13.9
					c-3.8-2-5.4-6.5-3.4-10.3c2-3.8,6.7-5.4,10.3-3.4l27.9,13.9c3.8,2,5.4,6.5,3.4,10.3C329.1,227,326.4,228.6,323.6,228.6z"/>
				<path class="st0" d="M267.8,200.7c-1.1,0-2.4-0.3-3.4-0.8l-13.9-6.9c-2.5-1.3-4.2-4-4.2-6.9c0-3,1.7-5.7,4.2-6.9l13.9-6.9
					c3.7-1.8,8.5-0.4,10.3,3.4c1.8,3.8,0.4,8.5-3.4,10.3l0,0c3.8,2,5.4,6.5,3.4,10.3C273.3,199.2,270.6,200.7,267.8,200.7z"/>
				<path class="st0" d="M295.7,173c-2.8,0-5.5-1.6-6.9-4.2c-1.8-3.8-0.4-8.5,3.4-10.3l27.9-13.9c3.7-1.8,8.5-0.4,10.3,3.4
					c1.8,3.8,0.4,8.5-3.4,10.3l-27.9,13.9C297.9,172.7,296.8,173,295.7,173z M351.3,145.2c-2.8,0-5.5-1.6-6.9-4.2
					c-1.8-3.8-0.4-8.5,3.4-10.3l27.9-13.9c3.7-1.8,8.5-0.4,10.3,3.4s0.4,8.5-3.4,10.3l-27.9,13.9C353.7,145,352.4,145.2,351.3,145.2
					z"/>
				<path class="st0" d="M434.7,117.4c-1.1,0-2.4-0.3-3.4-0.8l-10.3-5.2l-10.3,5.2c-3.7,2-8.4,0.4-10.3-3.4
					c-1.8-3.8-0.4-8.5,3.4-10.3l13.9-6.9c2.1-1.1,4.7-1.1,6.9,0l13.9,6.9c3.8,2,5.4,6.5,3.4,10.3
					C440.2,115.8,437.5,117.4,434.7,117.4z"/>
				<path class="st0" d="M546.1,173.1c-1.1,0-2.4-0.3-3.4-0.8l-27.9-13.9c-3.8-2-5.4-6.5-3.4-10.3c1.8-3.8,6.7-5.4,10.3-3.4
					l27.9,13.9c3.8,2,5.4,6.5,3.4,10.3C551.6,171.4,548.9,173.1,546.1,173.1z M490.3,145.2c-1.1,0-2.4-0.3-3.4-0.8L459,130.5
					c-3.8-2-5.4-6.5-3.4-10.3c1.8-3.8,6.7-5.4,10.3-3.4l27.9,13.9c3.8,2,5.4,6.5,3.4,10.3C495.8,143.7,493.1,145.2,490.3,145.2z"/>
			</g>
			<g>
				<g>
					<path class="st0" d="M420.2,277.6c-1,0-2-0.1-2.8-0.7l-13.9-6.9c-2.8-1.4-4.4-4.4-4.2-7.2c0-1.3,0.1-2.5,0.8-3.8
						c2-3.8,6.7-5.4,10.3-3.4l13.9,6.9c2.7,1.3,4.2,4,4.2,6.9c0,2.7-1.4,5.5-3.7,6.9C423.5,277,421.9,277.6,420.2,277.6z"/>
					<path class="st0" d="M379.2,256.9c-1.1,0-2.4-0.3-3.4-0.8l-27.9-13.9c-3.8-2-5.4-6.5-3.4-10.3c2-3.8,6.7-5.4,10.3-3.4
						l27.9,13.9c3.8,2,5.4,6.5,3.4,10.3C384.7,255.4,382,256.9,379.2,256.9z M323.6,229c-1.1,0-2.4-0.3-3.4-0.8l-27.9-13.9
						c-3.8-1.8-5.4-6.5-3.4-10.3c2-3.8,6.7-5.4,10.3-3.4l27.9,13.9c3.8,1.8,5.4,6.5,3.4,10.3C329.1,227.5,326.4,229,323.6,229z"/>
					<path class="st0" d="M267.8,201.1c-1.1,0-2.4-0.3-3.4-0.8l-13.9-6.9c-2.7-1.3-4.2-4-4.2-6.9s1.7-5.9,4.2-7.2
						c2.1-1.1,5.1-1.3,7.4-0.1l13.9,6.9c3.8,2,5.4,6.5,3.4,10.3c-0.3,0.4-0.6,0.8-0.8,1.3C272.9,199.9,270.3,201.1,267.8,201.1z"/>
					<path class="st0" d="M379.2,256.2c-1.1,0-2.4-0.3-3.4-0.8L348,241.5c-3.8-2-5.4-6.5-3.4-10.3c2-3.8,6.7-5.4,10.3-3.4l27.7,13.9
						c3.8,2,5.4,6.5,3.4,10.3C384.8,254.6,382,256.2,379.2,256.2z M323.7,228.3c-1.1,0-2.4-0.3-3.4-0.8l-27.7-13.9
						c-3.8-2-5.4-6.5-3.4-10.3c2-3.8,6.7-5.4,10.3-3.4l27.7,13.9c3.8,2,5.4,6.5,3.4,10.3C329.2,226.8,326.5,228.3,323.7,228.3z"/>
				</g>
			</g>
			<g>
				<g>
					<path class="st0" d="M420.8,277.7c-1.4,0-2.8-0.4-4.1-1.1c-2.3-1.4-3.7-4-3.7-6.5c0-3,1.7-6.4,4.2-7.6l13.9-6.9
						c3.7-1.8,8.4-0.4,10.3,3.4c0.6,1.3,0.8,2.5,0.8,3.8c0.1,3-1.4,5.8-4.2,7.2l-13.9,6.9C423.2,277.4,422.1,277.7,420.8,277.7z"/>
					<path class="st0" d="M462.4,256.9c-2.8,0-5.5-1.6-6.9-4.2c-1.8-3.8-0.4-8.5,3.4-10.3l27.9-13.9c3.7-1.8,8.4-0.4,10.3,3.4
						c1.8,3.8,0.4,8.5-3.4,10.3l-27.9,13.9C464.8,256.6,463.7,256.9,462.4,256.9z M518.2,229c-2.8,0-5.5-1.6-6.9-4.2
						c-1.8-3.8-0.4-8.5,3.4-10.3l27.9-13.9c3.7-1.8,8.5-0.3,10.3,3.4c1.8,3.8,0.4,8.5-3.4,10.3l-27.9,13.9
						C520.4,228.7,519.3,229,518.2,229z"/>
					<path class="st0" d="M573.9,201.1c-2.5,0-5.1-1.3-6.5-3.7c-0.3-0.4-0.6-0.7-0.7-1.1c-1.8-3.8-0.4-8.5,3.4-10.3l13.9-6.9
						c2.1-1.1,4.7-1.1,6.9,0c2.7,1.3,4.7,4.1,4.7,7.1c0,3-1.7,5.9-4.2,7.2l-13.9,6.9C576.2,200.9,575.1,201.1,573.9,201.1z"/>
					<path class="st0" d="M462.4,256.2c-2.8,0-5.5-1.6-6.9-4.2c-1.8-3.8-0.4-8.5,3.4-10.3l27.7-13.9c3.7-1.8,8.5-0.3,10.3,3.4
						c1.8,3.8,0.4,8.5-3.4,10.3l-27.7,13.9C464.8,255.9,463.5,256.2,462.4,256.2z M517.9,228.3c-2.8,0-5.5-1.6-6.9-4.2
						c-1.8-3.8-0.4-8.5,3.4-10.3l27.7-13.9c3.7-1.8,8.5-0.4,10.3,3.4c1.8,3.8,0.4,8.5-3.4,10.3l-27.7,13.9
						C520.3,228.2,519.2,228.3,517.9,228.3z"/>
				</g>
			</g>
			<g>
				<path class="st0" d="M420.8,277.3c-2.8,0-5.5-1.6-6.9-4.2c-0.6-1.1-0.8-2.3-0.8-3.4c0-2.8,1.6-5.5,4.2-6.9l13.9-6.9
					c3.7-1.8,8.4-0.4,10.3,3.4c0.6,1.1,0.8,2.3,0.8,3.4c0,2.8-1.6,5.5-4.2,6.9l-13.9,6.9C423.2,277,422.1,277.3,420.8,277.3z"/>
				<path class="st0" d="M462.4,256.5c-2.8,0-5.5-1.6-6.9-4.2c-1.8-3.8-0.4-8.5,3.4-10.3l27.9-13.9c3.7-1.8,8.4-0.4,10.3,3.4
					c1.8,3.8,0.4,8.5-3.4,10.3l-27.9,13.9C464.8,256.2,463.7,256.5,462.4,256.5z M518.2,228.6c-2.8,0-5.5-1.6-6.9-4.2
					c-1.8-3.8-0.4-8.5,3.4-10.3l27.9-13.9c3.7-1.8,8.5-0.3,10.3,3.4c1.8,3.8,0.4,8.5-3.4,10.3l-27.9,13.9
					C520.4,228.3,519.3,228.6,518.2,228.6z"/>
				<path class="st0" d="M573.9,200.7c-2.8,0-5.5-1.6-6.9-4.2c-0.6-1.1-0.8-2.3-0.8-3.4c0-2.8,1.6-5.5,4.2-6.9l13.9-6.9
					c3.7-1.8,8.5-0.4,10.3,3.4c0.6,1.1,0.8,2.3,0.8,3.4c0,2.8-1.6,5.5-4.2,6.9l-13.9,6.9C576.2,200.6,575.1,200.7,573.9,200.7z"/>
				<path class="st0" d="M462.4,256.5c-2.8,0-5.5-1.6-6.9-4.2c-1.8-3.8-0.4-8.5,3.4-10.3l27.9-13.9c3.7-1.8,8.5-0.3,10.3,3.4
					c1.8,3.8,0.4,8.5-3.4,10.3l-27.9,13.9C464.8,256.2,463.7,256.5,462.4,256.5z M518.2,228.6c-2.8,0-5.5-1.6-6.9-4.2
					c-1.8-3.8-0.4-8.5,3.4-10.3l27.9-13.9c3.7-1.8,8.5-0.4,10.3,3.4c1.8,3.8,0.4,8.5-3.4,10.3l-27.9,13.9
					C520.6,228.3,519.3,228.6,518.2,228.6z"/>
			</g>
		</g>
		<g>
			<path class="st0" d="M344.2,325.7c-1.1,0-2.4-0.3-3.4-0.8l-24.1-12c-2.7-1.3-4.2-4-4.2-6.9v-15.4c0-4.2,3.4-7.6,7.6-7.6
				s7.6,3.4,7.6,7.6v10.6l8.6,4.4v-3c0-4.2,3.4-7.6,7.6-7.6s7.6,3.4,7.6,7.6v15.4c0,2.7-1.4,5.1-3.7,6.5
				C347.1,325.3,345.6,325.7,344.2,325.7z"/>
			<path class="st0" d="M320.2,279.7c-4.2,0-7.6-3.4-7.6-7.6v-18.4c0-4.2,3.4-7.6,7.6-7.6s7.6,3.4,7.6,7.6v18.4
				C327.8,276.3,324.4,279.7,320.2,279.7z"/>
			<path class="st0" d="M344.2,254.9c-4.2,0-7.6-3.4-7.6-7.6v-10.6l-8.6-4.4v3c0,4.2-3.4,7.6-7.6,7.6s-7.6-3.4-7.6-7.6v-15.4
				c0-2.7,1.4-5.1,3.7-6.5c2.3-1.4,5.1-1.6,7.5-0.3l24.1,12c2.5,1.3,4.2,4,4.2,6.9v15.4C351.9,251.4,348.5,254.9,344.2,254.9z"/>
			<path class="st0" d="M344.2,291.7c-4.2,0-7.6-3.4-7.6-7.6v-18.4c0-4.2,3.4-7.6,7.6-7.6s7.6,3.4,7.6,7.6v18.4
				C351.9,288.3,348.5,291.7,344.2,291.7z"/>
		</g>
		<g>
			<path class="st0" d="M344.2,239.5c-1.1,0-2.4-0.3-3.4-0.8l-24.1-12c-2.7-1.3-4.2-4-4.2-6.9c0-3,1.7-5.7,4.2-6.9l13.9-6.8
				c3.8-1.8,8.5-0.3,10.3,3.5c1.8,3.8,0.3,8.4-3.4,10.3l6.8,3.4l10.3-5.1c3.8-1.8,8.5-0.3,10.3,3.5c1.8,3.8,0.3,8.5-3.5,10.3
				l-13.9,6.8C346.5,239.2,345.4,239.5,344.2,239.5z"/>
			<path class="st0" d="M386.1,218.7c-2.8,0-5.5-1.6-6.9-4.2c-1.8-3.8-0.3-8.5,3.5-10.3l28.2-13.9c3.8-1.8,8.5-0.3,10.3,3.5
				c1.8,3.8,0.3,8.5-3.5,10.3L389.5,218C388.5,218.4,387.4,218.7,386.1,218.7z M442.4,191c-2.8,0-5.5-1.6-6.9-4.2
				c-1.8-3.8-0.3-8.5,3.5-10.3l28.2-13.9c3.8-1.8,8.5-0.3,10.3,3.5c1.8,3.8,0.3,8.5-3.5,10.3l-28.2,13.9
				C444.9,190.7,443.6,191,442.4,191z"/>
			<path class="st0" d="M498.8,163.2c-2.8,0-5.5-1.6-6.9-4.2c-1.8-3.8-0.3-8.4,3.4-10.3l-6.8-3.4l-10.3,5.1c-3.7,2-8.4,0.3-10.3-3.5
				c-1.8-3.8-0.3-8.5,3.5-10.3l13.9-6.8c2.1-1,4.7-1.1,6.8,0l24.1,12c2.7,1.3,4.2,4,4.2,6.9c0,3-1.7,5.7-4.2,6.9l-13.9,6.8
				C501,162.9,499.9,163.2,498.8,163.2z"/>
			<path class="st0" d="M362.1,206.7c-2.8,0-5.5-1.6-6.9-4.2c-1.8-3.8-0.3-8.5,3.5-10.3l28.2-13.9c3.8-1.8,8.5-0.3,10.3,3.5
				c1.8,3.8,0.3,8.5-3.5,10.3L365.5,206C364.5,206.4,363.2,206.7,362.1,206.7z M418.4,178.9c-2.8,0-5.5-1.6-6.9-4.2
				c-1.8-3.8-0.3-8.5,3.5-10.3l28.2-13.9c3.8-1.8,8.5-0.3,10.3,3.5c1.8,3.8,0.3,8.5-3.5,10.3l-28.2,13.9
				C420.8,178.6,419.5,178.9,418.4,178.9z"/>
		</g>
	</g>
	<path class="st0" d="M211.9,297.2c0,1.4-0.6,2.7-1.6,3.5l-71.9,63.5c-1.4,1.3-3.4,1.6-5.1,0.7c-1.7-0.7-2.8-2.4-2.8-4.2v-28.2
		l-62.8,0.1c-2.7,0-4.7-2.1-4.7-4.7l0,0c0-2.5,2.1-4.7,4.7-4.7l67.7-0.3c1.3,0,2.4,0.4,3.4,1.4c0.8,0.8,1.4,2.1,1.4,3.4v22.5
		l60-53.1l-60.6-52.9l0.1,22.4c0.3,1.3-0.4,2.4-1.4,3.4c-0.8,0.8-2.1,1.4-3.4,1.4l-67.7,0.3c-2.7,0-4.7-2.1-4.7-4.7l0,0
		c0-2.5,2.1-4.7,4.7-4.7l62.8-0.1l-0.1-28c-0.1-1.4,1-3.5,2.7-4.4c1.7-0.7,3.7-0.4,5.1,0.7l72.3,63.3
		C211.3,294.6,211.9,295.8,211.9,297.2L211.9,297.2z"/>
	<path class="st0" d="M129,428.9C59,428.9,2,372,2,301.9s56.9-127,127-127c31.3,0,61.4,11.5,84.8,32.4c2.5,2.3,2.7,6.2,0.4,8.8
		c-2.3,2.5-6.2,2.7-8.8,0.4c-21.1-18.8-48.1-29.3-76.4-29.3c-63.1,0-114.5,51.4-114.5,114.5S65.8,416.3,129,416.3
		c29.7,0,57.9-11.3,79.4-32c2.5-2.4,6.4-2.3,8.8,0.1s2.3,6.4-0.1,8.8C193.2,416.3,161.9,428.9,129,428.9z"/>
</g>
</svg>
