<?xml version="1.0" encoding="utf-8"?>
<!-- Generator: Adobe Illustrator 25.0.0, SVG Export Plug-In . SVG Version: 6.00 Build 0)  -->
<svg version="1.1" id="Capa_1" xmlns="http://www.w3.org/2000/svg" xmlns:xlink="http://www.w3.org/1999/xlink" x="0px" y="0px"
	 viewBox="0 0 600 600" style="enable-background:new 0 0 600 600;" xml:space="preserve">
<style type="text/css">
	.st0{fill:#006dd9;}
</style>
<g>
	<g>
		<path class="st0" d="M454,393.2H201.5c-4.2,0-7.7-3.4-7.7-7.7V120.1c0-4.2,3.4-7.7,7.7-7.7H454c4.2,0,7.7,3.4,7.7,7.7v265.5
			C461.8,389.8,458.4,393.2,454,393.2z M209.3,377.9h237.2V127.7H209.3V377.9z"/>
		<path class="st0" d="M197,393.4h-86.3c-4.2,0-7.7-3.4-7.7-7.7V266.4c0-2.3,1.1-4.5,2.8-6l90.9-73.9c3.3-2.6,8.1-2.2,10.8,1.1
			c2.6,3.3,2.2,8.2-1.1,10.8l-88.2,71.6v108H197c4.2,0,7.7,3.4,7.7,7.7C204.6,390,201.2,393.4,197,393.4z"/>
		<path class="st0" d="M264.1,210.6c-4.2,0-7.7-3.4-7.7-7.7V176h-19.1c-4.2,0-7.7-3.4-7.7-7.7s3.4-7.7,7.7-7.7h26.8
			c4.2,0,7.7,3.4,7.7,7.7v34.5C271.7,207,268.3,210.6,264.1,210.6z"/>
		<path class="st0" d="M341.9,210.6c-4.2,0-7.7-3.4-7.7-7.7V176h-19.1c-4.2,0-7.7-3.4-7.7-7.7s3.4-7.7,7.7-7.7h26.8
			c4.2,0,7.7,3.4,7.7,7.7v34.5C349.6,207,346.2,210.6,341.9,210.6z"/>
		<path class="st0" d="M426.2,210.6c-4.2,0-7.7-3.4-7.7-7.7V176h-19.1c-4.2,0-7.7-3.4-7.7-7.7s3.4-7.7,7.7-7.7h26.8
			c4.2,0,7.7,3.4,7.7,7.7v34.5C433.9,207,430.3,210.6,426.2,210.6z"/>
		<path class="st0" d="M264.1,282.2c-4.2,0-7.7-3.4-7.7-7.7v-26.8h-19.1c-4.2,0-7.7-3.4-7.7-7.7c0-4.3,3.4-7.7,7.7-7.7h26.8
			c4.2,0,7.7,3.4,7.7,7.7v34.5C271.7,278.6,268.3,282.2,264.1,282.2z"/>
		<path class="st0" d="M341.9,282.2c-4.2,0-7.7-3.4-7.7-7.7v-26.8h-19.1c-4.2,0-7.7-3.4-7.7-7.7c0-4.3,3.4-7.7,7.7-7.7h26.8
			c4.2,0,7.7,3.4,7.7,7.7v34.5C349.6,278.6,346.2,282.2,341.9,282.2z"/>
		<path class="st0" d="M426.2,282.2c-4.2,0-7.7-3.4-7.7-7.7v-26.8h-19.1c-4.2,0-7.7-3.4-7.7-7.7c0-4.3,3.4-7.7,7.7-7.7h26.8
			c4.2,0,7.7,3.4,7.7,7.7v34.5C433.9,278.6,430.3,282.2,426.2,282.2z"/>
		<path class="st0" d="M264.1,356.2c-4.2,0-7.7-3.4-7.7-7.7v-26.8h-19.1c-4.2,0-7.7-3.4-7.7-7.7s3.4-7.7,7.7-7.7h26.8
			c4.2,0,7.7,3.4,7.7,7.7v34.5C271.7,352.8,268.3,356.2,264.1,356.2z"/>
		<path class="st0" d="M341.9,356.2c-4.2,0-7.7-3.4-7.7-7.7v-26.8h-19.1c-4.2,0-7.7-3.4-7.7-7.7s3.4-7.7,7.7-7.7h26.8
			c4.2,0,7.7,3.4,7.7,7.7v34.5C349.6,352.8,346.2,356.2,341.9,356.2z"/>
		<path class="st0" d="M426.2,356.2c-4.2,0-7.7-3.4-7.7-7.7v-26.8h-19.1c-4.2,0-7.7-3.4-7.7-7.7s3.4-7.7,7.7-7.7h26.8
			c4.2,0,7.7,3.4,7.7,7.7v34.5C433.9,352.8,430.3,356.2,426.2,356.2z"/>
		<path class="st0" d="M139.1,306.3c-4.2,0-7.7-3.4-7.7-7.7v-29.3c0-4.2,3.4-7.7,7.7-7.7c4.2,0,7.7,3.4,7.7,7.7v29.3
			C146.7,302.9,143.3,306.3,139.1,306.3z"/>
		<path class="st0" d="M168.4,306.3c-4.2,0-7.7-3.4-7.7-7.7v-29.3c0-4.2,3.4-7.7,7.7-7.7c4.2,0,7.7,3.4,7.7,7.7v29.3
			C176.1,302.9,172.5,306.3,168.4,306.3z"/>
		<path class="st0" d="M139.1,366c-4.2,0-7.7-3.4-7.7-7.7v-29.3c0-4.2,3.4-7.7,7.7-7.7c4.2,0,7.7,3.4,7.7,7.7v29.3
			C146.7,362.4,143.3,366,139.1,366z"/>
		<path class="st0" d="M168.4,366c-4.2,0-7.7-3.4-7.7-7.7v-29.3c0-4.2,3.4-7.7,7.7-7.7c4.2,0,7.7,3.4,7.7,7.7v29.3
			C176.1,362.4,172.5,366,168.4,366z"/>
	</g>
	<path class="st0" d="M295.4,593.1c-2.6,0-5-1.2-6.4-3.4l-58.3-86.3H70.1c-26.8,0-48.6-21.8-48.6-48.6V55.6C21.5,28.8,43.3,7,70.1,7
		h450.5c26.8,0,48.6,21.8,48.6,48.6v399.1c0,26.8-21.8,48.6-48.6,48.6H360.2l-58.4,86.3C300.4,591.9,298,593.1,295.4,593.1z
		 M70.1,22.5C51.9,22.5,37,37.4,37,55.6v399.1c0,18.3,14.9,33.2,33.2,33.2h164.7c2.6,0,5,1.2,6.4,3.4l54.2,80.3l54.2-80.3
		c1.4-2.2,3.9-3.4,6.4-3.4h164.7c18.3,0,33.2-14.9,33.2-33.2V55.6c0-18.3-14.9-33.2-33.2-33.2H70.1z"/>
</g>
</svg>
