<?xml version="1.0" encoding="utf-8"?>
<!-- Generator: Adobe Illustrator 25.0.0, SVG Export Plug-In . SVG Version: 6.00 Build 0)  -->
<svg version="1.1" id="Capa_1" xmlns="http://www.w3.org/2000/svg" xmlns:xlink="http://www.w3.org/1999/xlink" x="0px" y="0px"
	 viewBox="0 0 600 600" style="enable-background:new 0 0 600 600;" xml:space="preserve">
<style type="text/css">
	.st0{fill:#006dd9;}
	.st1{font-family:'Arciform';}
	.st2{font-size:82.8477px;}
</style>
<path class="st0" d="M519.4,509.5H68.7c-21.9,0-39.6-17.8-39.6-39.6v-308c0-21.9,17.8-39.6,39.6-39.6h77.1c4.5,0,8.1,3.6,8.1,8.1
	s-3.6,8.1-8.1,8.1H68.7c-13,0-23.4,10.5-23.4,23.4v308c0,13,10.5,23.4,23.4,23.4h450.6c13,0,23.4-10.5,23.4-23.4v-308
	c0-13-10.5-23.4-23.4-23.4h-71c-4.5,0-8.1-3.6-8.1-8.1s3.6-8.1,8.1-8.1h71c21.9,0,39.6,17.8,39.6,39.6v308
	C559,491.5,541.2,509.5,519.4,509.5z"/>
<path class="st0" d="M550.9,452.3H37.2c-4.5,0-8.1-3.6-8.1-8.1c0-4.5,3.6-8.1,8.1-8.1h513.7c4.5,0,8.1,3.6,8.1,8.1
	C559,448.6,555.3,452.3,550.9,452.3z"/>
<path class="st0" d="M407.6,595c-0.2,0-0.5,0-0.8,0H179.9c-4.4,0-8.1-3.6-8.1-8c0-4.4,3.4-8.1,8-8.3c5.3-0.2,20.6-1.4,28.3-5.3
	l30.4-21.5c2.3-1.7,4.8-6.4,4.7-13v-37.6c0-4.5,3.6-8.1,8.1-8.1l0,0c4.5,0,8.1,3.6,8.1,8.1v37.5c0.2,11.1-4.4,21.2-11.6,26.4
	l-19.4,13.6h131.3L340.3,565c-7.2-5.2-11.7-15.1-11.6-26.2v-37.5c0-4.5,3.6-8.1,8.1-8.1l0,0c4.5,0,8.1,3.6,8.1,8.1V539
	c0,6.6,2.3,11.2,4.7,13l30.4,21.4c15.5,5,24.8,5.5,27.2,5.5h0.8c4.4,0,8,3.6,8.1,8c0.2,4.4-3.4,8.1-7.8,8.3
	C408.4,595,408.1,595,407.6,595z"/>
<path class="st0" d="M427.6,348.4C427.6,348.4,427.4,348.4,427.6,348.4l-121-1.9H166.5c-4.5,0-8.1-3.6-8.1-8.1V13.1
	c0-4.5,3.6-8.1,8.1-8.1h261.1c4.5,0,8.1,3.6,8.1,8.1v327.2c0,2.2-0.8,4.2-2.3,5.8C431.8,347.6,429.8,348.4,427.6,348.4z
	 M174.6,330.3h132.2h0.2l112.7,1.7V21.2H174.6V330.3z"/>
<path class="st0" d="M342.7,63.5h-95.5c-4.5,0-8.1-3.6-8.1-8.1s3.6-8.1,8.1-8.1h95.5c4.5,0,8.1,3.6,8.1,8.1S347.2,63.5,342.7,63.5z"
	/>
<path class="st0" d="M318.5,121.6h-110c-4.5,0-8.1-3.6-8.1-8.1s3.6-8.1,8.1-8.1h110c4.5,0,8.1,3.6,8.1,8.1S323,121.6,318.5,121.6z"
	/>
<path class="st0" d="M380.1,121.6h-31.2c-4.5,0-8.1-3.6-8.1-8.1s3.6-8.1,8.1-8.1h31.2c4.5,0,8.1,3.6,8.1,8.1
	S384.5,121.6,380.1,121.6z"/>
<path class="st0" d="M379.4,179H209.2c-4.5,0-8.1-3.6-8.1-8.1s3.6-8.1,8.1-8.1h170.1c4.5,0,8.1,3.6,8.1,8.1S383.9,179,379.4,179z"/>
<path class="st0" d="M349.5,267.5h-45.3c-4.5,0-8.1-3.6-8.1-8.1c0-4.5,3.6-8.1,8.1-8.1h45.3c4.5,0,8.1,3.6,8.1,8.1
	C357.8,263.9,354.1,267.5,349.5,267.5z"/>
<text transform="matrix(1 0 0 1 231.4658 281.5342)" class="st0 st1 st2">$</text>
</svg>
