<?xml version="1.0" encoding="utf-8"?>
<!-- Generator: Adobe Illustrator 25.0.0, SVG Export Plug-In . SVG Version: 6.00 Build 0)  -->
<svg version="1.1" id="Capa_1" xmlns="http://www.w3.org/2000/svg" xmlns:xlink="http://www.w3.org/1999/xlink" x="0px" y="0px"
	 viewBox="0 0 600 600" style="enable-background:new 0 0 600 600;" xml:space="preserve">
<style type="text/css">
	.st0{fill:#FFFFFF;}
	.st1{font-family:'ArialRoundedMTBold';}
	.st2{font-size:96.4806px;}
</style>
<g>
	<path class="st0" d="M466.2,449c-6.5,0-13.2-0.4-19.9-1.1c-19.8-2.1-35.6-6.8-49.4-14.5c-6.5-3.7-14.8-9.1-20.2-18.5
		c-2.8-5.1-6.3-11.1-6.3-17.1l-4.1-2c-8.1-4-14.8-8.7-20.3-14.2c-5.7-5.7-9.4-12.5-11.2-20.3l-0.1-23.9c0-0.7,0.1-1.4,0.3-2
		c1.4-4.7,3.1-10,7-14.9c5.8-7.5,13.4-13.5,23.3-18.4c1.6-0.9,2.1-1.1,2.3-1.3c0-2,0.9-3.6,1.3-4.4c6-12.4,16.4-19.3,23.5-23.5
		c13.9-8,29.9-12.8,49.9-15.5c3.3-0.4,6.4-0.7,9.5-1.1l3.7-0.4h20.2c0.6,0,1.8,0.3,2.6,0.4c10.4,0.6,20.8,2.1,30.7,4.7
		c3.6,0.9,7.4,2,11.2,3.3c2.6,0.7,5.3,1.6,8.1,2.4c7.5,2.8,29,12.1,32.2,24.3c3.8,5.7,5.8,12,5.7,18.5c0,1.4,0.1,3.1,0.1,5
		c0.3,5,0.6,11.4-0.6,17.8c8.1,4,14.8,8.7,20.2,14.2c5.7,5.7,9.4,12.5,11.2,20.3l0.1,23.9c-2.7,12.7-9.4,21.9-20.8,29.6l-11.5,6.4
		c-3.4,1.8-7.7,0.7-9.7-2.7c-1.8-3.4-0.7-7.7,2.7-9.7l11-6.1c7.8-5.3,12.5-11.4,14.2-19.1v-1c-0.9,1-1.7,2-2.7,3
		c-8.3,8.4-18.8,14.4-33.1,19.1c-24.2,7.7-49.9,9.7-76.4,5.5c-5.7-0.9-11.4-2.3-17.1-3.7l-7.1-1.7c-0.3-0.1-2-0.6-2.3-0.7
		c-3-1.1-5.3-4.4-5-7.5c0.4-3.3,2.4-6,5.7-6.4l6.4-0.9c4.3-0.6,8.5-1,12.7-1.8c17.5-3,30.9-8,42-15.6c9.1-7.1,12.7-14.2,13.1-15.2
		c2.3-6.4,5.5-8.1,11.7-11.2c5-2.4,10.7-7.4,13.7-10.1c0.4-0.4,0.9-0.9,1.4-1.1c0.3-0.4,0.6-0.9,1-1.1c3.3-3.3,4.4-7.8,4.7-12.7
		c-7.1,8.8-16.2,13.8-22.6,16.9c-12.4,5.8-25.8,9.5-41.1,11.4c-5.3,0.6-10.4,1-15.6,1.4l-6.4,0.4c-0.3,0-0.4,0-0.7,0
		c-22.2-0.6-40.1-3.8-56.3-10l-2.6-1c-8.7-3.3-18.6-7.1-26-14.8c-0.1-0.1-0.3-0.3-0.4-0.4c1.3,4.8,4.4,9.2,9.2,13.4
		c9.1,7.8,20.5,13.1,36.4,17.1c17.9,4.4,36.7,5.7,55.6,3.8c6.3-0.7,8.7,0,10.5,1.3c2.3,1.6,3.4,4.3,3,7s-2.4,5-5.1,5.7l-5.5,1.6
		c-5,1.4-10.1,2.8-14.4,3.7c-17.6,3.8-36.3,4.7-55.3,2.6c-19.8-2.3-35.3-6.8-49.1-14.5c-7.3-4-12.8-8.5-17.2-13.9v2.6
		c1,3.7,3.4,8.1,7.3,12c4.4,4.4,9.8,8.1,16.5,11.4l5.7,2.7c0.7,0.3,1.4,0.7,1.8,1.3c4.4,1,10,2.3,15.4,3.7c4.6,1.1,9,2.3,12.7,3
		c2.4,0.6,4.8,2.1,6.3,4.1c5.1,7.4,12.7,13.1,24.6,18.2c14.4,6.3,29.9,9.7,46.4,10.2c6.8,0.3,13.8,0,20.6-0.1l9.4-0.3
		c4,0.4,8.1,2.7,8.5,6.3c0.9,3.7-1.4,7.4-5.1,8.4l-5.3,1.4c-4.1,1.1-8.3,2.3-12.4,3.3C489.8,447.7,478.1,449,466.2,449z
		 M386.4,403.2c0.7,1.4,1.4,2.7,1.8,3.6c3.6,6.3,8,10.1,15.5,14.4c11.2,6.3,24.3,10.2,40.5,12.4c-3.7-1.3-7.4-2.7-11.1-4.3
		c-9.4-4.1-21.2-10.2-29.7-21.8c-3.4-0.7-7.4-1.8-11.5-2.8C390.2,404,388.2,403.6,386.4,403.2z M484.3,403.2
		c20.5,1.8,40.3-0.4,59-6.4c12.1-3.8,20.8-8.8,27.3-15.5c6.1-6.3,6.3-11.5,0.4-18.1c-4.8-5.3-10.8-8.8-16.6-11.5
		c-4.1,3.6-10.1,8.8-15.4,11.4c-3.1,1.6-5.3,2.7-5.7,3.1c0,2.6-7,13.7-18.5,22.6C505.9,395.1,495.9,399.8,484.3,403.2z M365.6,326.1
		c-2.8,3-5.3,6.1-7,8.8c-3.1,4.7-2.8,8.5,0.9,13.2c3.1,4.1,7.4,7.5,13.2,10.8c11.4,6.3,24.3,10.2,40.8,12.4
		c-13.5-4.3-24-9.8-32.9-17.4C371.3,346,366.3,336.8,365.6,326.1z M465.8,270.9c-12.5,0-24.6,1.4-36.3,4.3
		c-12,2.8-24.5,6.5-33.6,15.1c-9.1,8.5-10,11.7-11.1,15.9c-1.3,4.4,1,8.8,6.3,14.4c5.1,5.4,12.7,8.3,20.8,11.4l2.7,1
		c14.7,5.7,30.9,8.5,51.2,9.1l6.1-0.4c5-0.4,10.1-0.7,15.1-1.3c13.7-1.6,25.6-4.8,36.6-10c8.4-4,13.9-8.1,18.1-13.4
		c4.7-6.1,7.7-15.2,6.1-18.2c-0.4-0.6-0.6-1.3-0.7-1.8c-1.3-1.6-2.8-3-4.6-4.6c-7.1-6.1-15.8-10.7-27.2-14.5
		c-10.4-3-18.4-4.4-30.4-5.7C478.3,271.2,472,270.9,465.8,270.9z"/>
	<path class="st0" d="M482.5,378.2c-3.8,0-7-3-7.1-7c-0.1-3.8,3-7.1,7-7.3c0.3,0,23.9-0.7,45.1-11c3.6-1.7,7.7-0.1,9.4,3.3
		c1.7,3.6,0.3,7.7-3.3,9.4c-23.9,11.5-49.8,12.2-50.9,12.4C482.7,378.2,482.7,378.2,482.5,378.2z"/>
	<path class="st0" d="M434.9,410.6c-16.6,0-29.3-3-30-3.1c-3.8-1-6.1-4.7-5.3-8.5c0.9-3.8,4.8-6,8.5-5.3c0.3,0,23.3,5.4,46.4,1
		c3.8-0.7,7.5,1.8,8.3,5.5c0.7,3.8-1.7,7.5-5.5,8.3C449.4,410,441.9,410.6,434.9,410.6z"/>
	<path class="st0" d="M515.1,440.9c-3.6,0-6.7-2.7-7.1-6.4c-0.4-3.8,2.4-7.4,6.4-7.7c0.3,0,22.8-2.3,44.1-12.5
		c3.6-1.7,7.7-0.1,9.4,3.3c1.7,3.4,0.1,7.7-3.3,9.4c-23.8,11.2-47.8,13.7-48.9,13.8C515.6,440.9,515.4,440.9,515.1,440.9z"/>
	<g>
		<path class="st0" d="M501.5,307.6c3.8,4.1-1.7,9.5-12.8,12.9l1.8,2c1.1,1.3-1,2.8-4.7,3.6c-3.8,0.7-7.7,0.4-8.8-0.9l-1.8-2.1
			c-12.4,1.4-27.2-7.4-23.3-8.1s7.7-0.4,8.8,0.9c1.4,1.7,5.5,2.6,10.2,2.6l-7.8-8.7c-12.4,1.4-24.3-0.3-28-4.4
			c-3.7-4.1,1.8-9.4,12.5-12.8l-1.6-1.8c-1.1-1.1,1-2.8,4.8-3.6c3.7-0.7,7.5-0.4,8.7,0.9l1.6,1.7c12.8-1.4,24.8,0.3,28.6,4.4
			c1.1,1.3-1,2.8-4.8,3.6c-3.7,0.7-7.7,0.4-8.8-0.9c-1.6-1.7-5.7-2.6-10.7-2.4l7.8,8.7C485.8,301.8,497.8,303.5,501.5,307.6z
			 M458.8,305l-7-7.7c-3.3,1.6-4.7,3.6-3.1,5.3C450.1,304.2,454.1,305,458.8,305z M488,310.4c-1.6-1.7-5.7-2.6-10.7-2.4l7.1,8
			C488,314.1,489.5,312.1,488,310.4z"/>
	</g>
	<g>
		<g>
			<text transform="matrix(0.9663 -6.802973e-03 7.039792e-03 1 217.4077 310.5596)" class="st0 st1 st2">$</text>
			<path class="st0" d="M24.2,407.7c-5.1,0-10.1-2-13.8-5.7c-3.8-3.8-6-9-6.1-14.5L2.7,166.2c0-5.5,2-10.7,5.8-14.5
				c3.7-3.7,8.7-5.8,13.8-5.8l441.6-3.1c5.1,0.4,10.2,2,13.9,5.7c3.8,3.8,6,9,6.1,14.5l0.6,81.1c0,4-3.3,7-7.1,7.1
				c-3.8,0-7.1-3.1-7.1-7l-0.6-81.1c0-1.7-0.7-3.3-1.8-4.6c-1-1-2.4-1.6-3.8-1.6l0,0l-441.5,3c-1.4,0-2.8,0.6-3.8,1.7
				c-1.1,1.1-1.8,2.8-1.8,4.6l1.6,221.4c0,1.7,0.7,3.3,1.8,4.6c1,1,2.4,1.6,3.8,1.6l0,0l325.9-2.3l0,0c3.8,0,7.1,3.1,7.1,7
				c0,3.8-3.1,7.1-7,7.1l-325.9,2.3C24.3,407.7,24.2,407.7,24.2,407.7z"/>
			<path class="st0" d="M88.6,371.2c-3.8,0-7.1-3.1-7.1-7C81.4,342,64,324.1,42.8,324.1c-0.1,0-0.3,0-0.3,0c-3.8,0-7.1-3.1-7.1-7
				l-0.6-80.8c0-1.8,0.7-3.7,2-5c1.3-1.3,3.1-2.1,5-2.1c10.2,0,19.9-4.3,27.2-12s11.2-17.9,11.2-28.7c0-3.8,3.1-7.1,7-7.1l312.1-2.1
				c3.3-0.7,7.1,3.1,7.1,7c0,3.8-3.1,7.1-7,7.1l-305.6,2.1c-1.4,11.8-6.5,22.8-14.8,31.4c-8.3,8.7-18.8,14.1-30.3,15.8l0.4,67.7
				c23.6,3.1,42.4,22.3,45.7,46.7l230.5-1.6l0,0c3.8,0,7.1,3.1,7.1,7.1c0,3.8-3.1,7.1-7.1,7.1L88.6,371.2
				C88.8,371.2,88.8,371.2,88.6,371.2z"/>
			<path class="st0" d="M448.1,255.8c-3.8,0-7.1-3.1-7.1-7.1v-6.4c-22.1-3-40.3-20.2-44.8-43l-3.3-11.1c-1.1-3.7,1-7.7,4.7-8.8
				c3.8-1.1,7.7,1,8.8,4.7l3.6,11.7c3.8,19.2,19.8,32.7,38.1,32.7l0,0l0,0c3.8,0,7.1,3.1,7.1,7.1v12.9
				C455.1,252.7,452,255.8,448.1,255.8L448.1,255.8z"/>
			<path class="st0" d="M243.3,350.1c-2,0-3.8,0-5.8-0.3c-19.5-1.6-37.3-10.5-49.9-25.3s-18.8-33.7-17.4-53.2
				c1.4-19.5,10.5-37.3,25.3-49.9c14.8-12.7,33.7-18.9,53.2-17.4c40.3,3.1,70.4,38.4,67.1,78.7l0,0c-1.6,19.5-10.5,37.1-25.3,49.9
				C277.3,344,260.6,350.1,243.3,350.1z M243,218c-14.1,0-27.5,5-38.3,14.2c-12,10.2-19.2,24.6-20.5,40.3c-1.3,15.6,3.7,31,13.9,43
				c10.2,12,24.6,19.2,40.3,20.5s31-3.7,43-13.9c12-10.2,19.2-24.5,20.5-40.3l7.1,0.6l-7.1-0.6c2.6-32.4-21.8-60.9-54.2-63.5
				C246.1,218,244.5,218,243,218z"/>
		</g>
		<path class="st0" d="M177.1,146.7l0.6-2.1h-2.6C176,145.3,176.2,146,177.1,146.7z"/>
		<path class="st0" d="M196.6,147.3c1.6,0.4,3,0.3,4.4-0.4c0.9-0.4,1.3-1.4,1.7-2.1h-9.4C194,145.8,195,146.7,196.6,147.3z"/>
	</g>
</g>
</svg>
