<?xml version="1.0" encoding="utf-8"?>
<!-- Generator: Adobe Illustrator 25.0.0, SVG Export Plug-In . SVG Version: 6.00 Build 0)  -->
<svg version="1.1" id="Capa_1" xmlns="http://www.w3.org/2000/svg" xmlns:xlink="http://www.w3.org/1999/xlink" x="0px" y="0px"
	 viewBox="0 0 600 600" style="enable-background:new 0 0 600 600;" xml:space="preserve">
<style type="text/css">
	.st0{fill:#006dd9;}
</style>
<g>
	<path class="st0" d="M248.1,530.8L248.1,530.8c-2.6,0-5-1.2-6.3-3.3l-50.9-75.4H50.2c-24,0-43.5-19.5-43.5-43.5V57.8
		c0-24,19.5-43.5,43.5-43.5h395.9c24,0,43.5,19.5,43.5,43.5v350.7c0,24-19.5,43.5-43.5,43.5H305.6l-51.1,75.4
		C253.1,529.6,250.7,530.8,248.1,530.8z M50.2,29.5C34.7,29.5,22,42.2,22,57.8v350.7c0,15.6,12.7,28.3,28.3,28.3h144.7
		c2.6,0,5,1.2,6.3,3.3l46.9,69.4l46.9-69.4c1.4-2.1,3.8-3.3,6.3-3.3H446c15.6,0,28.3-12.7,28.3-28.3V57.8
		c0-15.6-12.7-28.3-28.3-28.3C446,29.5,50.2,29.5,50.2,29.5z"/>
	<path class="st0" d="M385.7,585.8L385.7,585.8c-2.6,0-5-1.2-6.3-3.3l-50.9-75.4h-38.5c-4.2,0-7.7-3.5-7.7-7.7s3.5-7.7,7.7-7.7h42.6
		c2.6,0,5,1.2,6.3,3.3l46.9,69.4l46.9-69.4c1.4-2.1,3.8-3.3,6.3-3.3h111.6c15.6,0,28.3-12.7,28.3-28.3V179
		c0-15.6-12.7-28.3-28.3-28.3h-67.1c-4.2,0-7.7-3.5-7.7-7.7c0-4.2,3.5-7.7,7.7-7.7h67.1c24,0,43.5,19.5,43.5,43.5v284.4
		c0,24-19.5,43.5-43.5,43.5H443L392,582.5C390.5,584.6,388.3,585.8,385.7,585.8z"/>
	<path class="st0" d="M212,507.1h-24.3c-24,0-43.5-19.5-43.5-43.5c0-4.2,3.5-7.7,7.7-7.7c4.2,0,7.7,3.5,7.7,7.7
		c0,15.6,12.7,28.3,28.3,28.3h24.3c4.2,0,7.7,3.5,7.7,7.7S216.2,507.1,212,507.1z"/>
	<g>
		<path class="st0" d="M278.5,384.6H126.6c-4.2,0-7.7-3.5-7.7-7.7s3.5-7.7,7.7-7.7h152.1c72.6,0,131.5-56.1,131.5-124.9
			s-59-124.9-131.5-124.9H126.6c-4.2,0-7.7-3.5-7.7-7.7s3.5-7.7,7.7-7.7h152.1c81,0,146.9,62.9,146.9,140.1
			C425.4,321.7,359.5,384.6,278.5,384.6z"/>
		<g>
			<g>
				<path class="st0" d="M296.3,321.4c-25.5,0-46.3-19.8-46.3-44c0-6.2,5.3-11.2,11.6-11.2c6.5,0,11.6,5,11.6,11.2
					c0,12.1,10.3,21.8,23,21.8c12.7,0,23-9.8,23-21.8c0-12.1-10.3-21.8-23-21.8c-25.5,0-46.3-19.8-46.3-44
					c0-24.3,20.7-44.1,46.3-44.1s46.3,19.8,46.3,44.1c0,6.2-5.3,11.2-11.6,11.2c-6.5,0-11.6-5-11.6-11.2c0-12.1-10.3-21.8-23-21.8
					s-23,9.8-23,21.8c0,12.1,10.3,21.8,23,21.8c25.5,0,46.3,19.8,46.3,44C342.6,301.6,321.9,321.4,296.3,321.4z"/>
				<path class="st0" d="M296.3,189.6c-6.5,0-11.6-5-11.6-11.2v-14.1c0-6.2,5.3-11.2,11.6-11.2c6.3,0,11.6,5,11.6,11.2v14.1
					C308,184.6,302.8,189.6,296.3,189.6z"/>
				<path class="st0" d="M296.3,335.3c-6.5,0-11.6-5-11.6-11.2v-14.1c0-6.2,5.3-11.2,11.6-11.2c6.3,0,11.6,5,11.6,11.2v14.1
					C308,330.4,302.8,335.3,296.3,335.3z"/>
			</g>
		</g>
		<path class="st0" d="M193.1,254.5H47.5c-4.2,0-7.7-3.5-7.7-7.7s3.5-7.7,7.7-7.7h145.6c4.2,0,7.7,3.5,7.7,7.7
			S197.3,254.5,193.1,254.5z"/>
		<path class="st0" d="M214.1,311.8H84.7c-4.2,0-7.7-3.5-7.7-7.7s3.5-7.7,7.7-7.7h129.4c4.2,0,7.7,3.5,7.7,7.7
			S218.3,311.8,214.1,311.8z"/>
		<path class="st0" d="M214.1,197.3H84.7c-4.2,0-7.7-3.5-7.7-7.7c0-4.2,3.5-7.7,7.7-7.7h129.4c4.2,0,7.7,3.5,7.7,7.7
			C221.8,193.9,218.3,197.3,214.1,197.3z"/>
	</g>
</g>
</svg>
