<?xml version="1.0" encoding="utf-8"?>
<!-- Generator: Adobe Illustrator 25.0.0, SVG Export Plug-In . SVG Version: 6.00 Build 0)  -->
<svg version="1.1" id="Capa_1" xmlns="http://www.w3.org/2000/svg" xmlns:xlink="http://www.w3.org/1999/xlink" x="0px" y="0px"
	 viewBox="0 0 600 600" style="enable-background:new 0 0 600 600;" xml:space="preserve">
<style type="text/css">
	.st0{fill:#006dd9;}
</style>
<path class="st0" d="M305.9,521c-1.1,0-2.1-0.3-3-0.8c-1.7-1-2.7-2.9-2.7-4.8V335.1c0-2.1,1.2-4.1,3.1-5.1l122.4-61.1
	c1.7-0.9,3.8-0.8,5.5,0.3c1.7,1,2.7,2.9,2.7,4.8v180.3c0,2.1-1.2,4.1-3.1,5.1l-122.4,61.2C307.7,520.8,306.8,521,305.9,521z
	 M311.6,338.6v167.7l111.1-55.5V283.1L311.6,338.6z M428.3,454.2L428.3,454.2z"/>
<path class="st0" d="M305.9,521c-0.9,0-1.7-0.2-2.5-0.6l-122.3-61.2c-1.9-1-3.1-2.9-3.1-5.1V273.9c0-3.1,2.6-5.7,5.7-5.7
	c0.9,0,1.7,0.2,2.5,0.6l122.4,61.2c1.9,1,3.1,2.9,3.1,5.1v180.3c0,2-1,3.8-2.7,4.8C308.1,520.7,307,521,305.9,521z M189.2,450.7
	l111,55.5V338.6l-111-55.5L189.2,450.7z"/>
<path class="st0" d="M305.9,340.7c-0.9,0-1.8-0.2-2.5-0.6l-122.3-61.2c-2.8-1.4-3.9-4.8-2.5-7.6c0.5-1.1,1.4-2,2.5-2.5l122.4-61.1
	c1.6-0.8,3.4-0.8,5,0l122.4,61.2c2.8,1.4,3.9,4.8,2.5,7.6c-0.5,1.1-1.4,2-2.5,2.5l-122.4,61.2C307.7,340.5,306.8,340.8,305.9,340.7z
	 M196.2,273.9l109.7,54.9l109.7-54.8l-109.7-54.9L196.2,273.9z"/>
<path class="st0" d="M305.5,340.9c-0.7,0-1.5-0.2-2.1-0.5l-122.3-61.2c-1.9-1-3.1-2.9-3.1-5.1c0-2.2,1.2-4.3,3.1-5.3
	c1.7-0.8,3.6-0.9,5.3-0.1l122,61c1.9,1,3.1,2.9,3.1,5c0,2-1,3.9-2.7,5.1C307.9,340.5,306.7,340.9,305.5,340.9z"/>
<path class="st0" d="M305.9,341.1c-1.1,0-2.1-0.3-3-0.8c-1.7-1-2.7-2.9-2.7-4.8v-0.6c0-2.1,1.2-4.1,3.1-5l122.1-61
	c1.5-0.8,3.3-0.8,4.9-0.1c3,1.3,4.4,4.7,3.1,7.7c-0.5,1.2-1.5,2.3-2.7,2.9l-122.3,61.2C307.7,340.9,306.8,341.1,305.9,341.1z"/>
<path class="st0" d="M305.9,340.8c-2.1,0-4.1-1.2-5.1-3.1c-0.4-0.8-0.6-1.6-0.6-2.5c0-2.1,1.2-4.1,3.1-5.1l122.4-61.2
	c2.9-1.3,6.2,0,7.5,2.9c1.2,2.7,0.2,5.8-2.4,7.3l-122.4,61.2C307.7,340.6,306.8,340.8,305.9,340.8z"/>
<path class="st0" d="M249.7,376.2c-0.9,0-1.7-0.2-2.5-0.6l-17.7-8.8c-1.9-1-3.1-2.9-3.1-5.1v-63.2c0-3.1,2.6-5.7,5.7-5.6
	c0.9,0,1.7,0.2,2.5,0.6l17.7,8.8c1.9,1,3.1,2.9,3.1,5.1v63.2c0,2-1,3.8-2.7,4.8C251.8,376,250.8,376.2,249.7,376.2z M237.7,358.2
	l6.3,3.2v-50.6l-6.3-3.2L237.7,358.2z"/>
<path class="st0" d="M249.7,313c-0.9,0-1.7-0.2-2.5-0.6l-17.7-8.8c-2.8-1.4-3.9-4.8-2.5-7.6c0.5-1.1,1.4-2,2.5-2.5l123.5-61
	c1.6-0.8,3.4-0.8,5,0l17.7,8.8c2.8,1.4,3.9,4.8,2.5,7.6c-0.5,1.1-1.4,2-2.5,2.5l-123.5,61C251.4,312.8,250.6,313,249.7,313z
	 M244.8,298.6l4.9,2.5l110.8-54.6l-5-2.5L244.8,298.6z"/>
<path class="st0" d="M299.1,84.6v92.5c0,7.3,11.3,7.3,11.3,0V84.6C310.5,77.3,299.1,77.3,299.1,84.6z"/>
<path class="st0" d="M102.1,373.6H9.4c-7.3,0-7.3,11.3,0,11.3h92.7C109.4,384.9,109.4,373.6,102.1,373.6z"/>
<path class="st0" d="M91.9,174.8c18.1,18.1,36.3,36.2,54.4,54.3l11.2,11.2c5.2,5.1,13.2-2.8,8-8c-18.2-18.1-36.3-36.2-54.4-54.3
	l-11.2-11.1C94.7,161.7,86.7,169.7,91.9,174.8L91.9,174.8z"/>
<path class="st0" d="M186.3,108.5c11.8,28.5,23.6,57,35.5,85.5c1.2,2.8,3.7,4.8,7,4c2.7-0.7,5.1-4.1,3.9-7
	c-11.8-28.5-23.7-57-35.5-85.5c-1.2-2.8-3.7-4.8-6.9-3.9C187.6,102.3,185.1,105.7,186.3,108.5L186.3,108.5z"/>
<path class="st0" d="M116.1,451.1c-28.6,11.8-57.2,23.6-85.7,35.5c-2.8,1.2-4.8,3.8-3.9,7c0.7,2.7,4.1,5.1,6.9,4
	c28.6-11.8,57.2-23.6,85.7-35.5c2.8-1.2,4.8-3.7,3.9-6.9C122.3,452.4,118.9,450,116.1,451.1L116.1,451.1z"/>
<path class="st0" d="M30.3,271.9l85.7,35.5c2.8,1.2,6.2-1.3,6.9-4c0.9-3.2-1.1-5.8-3.9-6.9L33.3,261c-2.8-1.2-6.2,1.3-6.9,4
	C25.5,268.2,27.5,270.7,30.3,271.9z"/>
<path class="st0" d="M496.8,384.9h92.8c7.3,0,7.3-11.3,0-11.3h-92.7C489.5,373.5,489.5,384.9,496.8,384.9L496.8,384.9z"/>
<path class="st0" d="M441.4,240.3l54.4-54.2l11.2-11.2c5.2-5.1-2.8-13.1-8-8c-18.1,18.1-36.2,36.2-54.4,54.3l-11.2,11.1
	C428.2,237.4,436.2,245.4,441.4,240.3z"/>
<path class="st0" d="M482.8,307.3c28.6-11.8,57.2-23.6,85.7-35.5c2.8-1.2,4.8-3.7,3.9-7c-0.7-2.7-4.1-5.1-6.9-3.9
	c-28.6,11.8-57.2,23.6-85.7,35.5c-2.8,1.2-4.8,3.7-4,7C476.6,306,480,308.5,482.8,307.3z"/>
<path class="st0" d="M568.5,486.5l-85.7-35.5c-2.8-1.2-6.2,1.3-7,3.9c-0.9,3.2,1.1,5.8,4,7l85.7,35.5c2.8,1.2,6.2-1.3,6.9-3.9
	C573.4,490.2,571.3,487.7,568.5,486.5z"/>
<path class="st0" d="M377.1,194c11.8-28.5,23.6-57,35.5-85.5c1.2-2.8-1.3-6.2-4-7c-3.2-0.9-5.8,1.1-7,4
	c-11.8,28.5-23.6,57-35.5,85.5c-1.2,2.8,1.3,6.2,4,7C373.4,198.8,375.9,196.8,377.1,194z"/>
</svg>
