<?xml version="1.0" encoding="utf-8"?>
<!-- Generator: Adobe Illustrator 25.0.0, SVG Export Plug-In . SVG Version: 6.00 Build 0)  -->
<svg version="1.1" id="Capa_1" xmlns="http://www.w3.org/2000/svg" xmlns:xlink="http://www.w3.org/1999/xlink" x="0px" y="0px"
	 viewBox="0 0 600 600" style="enable-background:new 0 0 600 600;" xml:space="preserve">
<style type="text/css">
	.st0{fill:#006dd9;}
</style>
<g>
	<path class="st0" d="M102.4,188.1c-4.5,0-8.2-3.7-8.2-8.2s3.7-8.2,8.2-8.2c0.7,0,64.9,0,81.6-1.1c17.2-1.1,30.3-2.4,30.3-2.4
		c4.8-0.3,8.5,3,8.9,7.3c0.4,4.5-3,8.5-7.3,8.7c0,0-13.4,1.1-30.7,2.4C167.9,188.1,105.1,188.1,102.4,188.1z"/>
	<path class="st0" d="M358.3,433.2c-3.7,0-7-2.5-7.9-6.2c-1-4.4,1.7-8.7,6.1-9.7c22.8-5.5,97.8-26.9,105.5-74.9
		c-0.1-3.9-12.4-15.6-25.5-23.8c-45.5-27.9-119.8-73-131-78.1c-2.1-0.1-4.2-0.7-6.5-1.3c-5.5-1.4-11.7-3.1-17.8,0.7
		c-6.5,3.9-19.5,13.8-30.9,22.4c-10.2,7.8-19,14.4-23,16.8c-7,4.2-19,2.8-29.3-3.5c-11.4-6.9-17.5-18-16.8-30.6
		c1.6-27.8,64.6-78.4,81.5-84.7c19.6-7.3,82.3-6.8,102.9-2.1c20.6,4.8,115.2,32.7,119.3,33.8l8.7,0.3c4.5,0.3,7.9,4.1,7.6,8.6
		c-0.3,4.5-4.4,8-8.6,7.6l-10.6-0.6c-2.8-0.6-100-29.3-120.1-34c-19.2-4.4-78.2-4.4-93.5,1.4c-15.9,6.1-70.1,53-71.1,70.5
		c-0.3,5.9,2.1,10.9,7.3,14.7c6.2,4.5,13,5.1,14.4,4.5c3.1-1.8,12.3-8.9,21.3-15.6c12.3-9.3,25-18.9,32.1-23.3
		c11.8-7.3,23.8-4.2,30.3-2.5c1.3,0.3,2.4,0.7,3.2,0.7c3-0.4,5.2-1.4,138.7,80.6c10.9,6.8,35.5,24.1,33,40.2
		c-9,56.3-85.3,80.4-117.7,88.1C359.6,433.2,359,433.2,358.3,433.2z"/>
	<path class="st0" d="M148.6,361.4c-1.3,0-2.7-0.3-3.9-1c-25.7-14.2-44.3-24.8-44.3-24.8c-3.9-2.3-5.2-7.2-3.1-11
		c2.3-3.9,7.2-5.2,11.1-3.1c0,0,18.6,10.4,44.1,24.7c3.9,2.1,5.4,7.2,3.2,11C154.3,359.9,151.6,361.4,148.6,361.4z"/>
	<path class="st0" d="M102.4,188.6v-16.2c0,0,103.2-0.3,105.9-0.3c4.5,0,8.2,3.7,8.2,8.2s-3.7,8.2-8.2,8.2
		C205.5,188.3,102.4,188.6,102.4,188.6z"/>
	<path class="st0" d="M468.3,333.9c-3.4,0-6.5-2.1-7.6-5.4c-1.6-4.2,0.7-8.9,4.9-10.4l28.3-10.3c4.1-1.6,8.9,0.7,10.4,4.8
		c1.6,4.2-0.7,8.9-4.9,10.4l-28.3,10.3C470.1,333.8,469.1,333.9,468.3,333.9z"/>
	<path class="st0" d="M82.9,363.8H34.6c-15.2,0-27.8-12.4-27.8-27.6V183.8c0-15.2,12.4-27.8,27.8-27.8h48.4
		c15.2,0,27.6,12.4,27.6,27.8v152.4C110.6,351.4,98.2,363.8,82.9,363.8z M34.6,172.3c-6.3,0-11.4,5.1-11.4,11.4v152.4
		c0,6.3,5.1,11.4,11.4,11.4h48.4c6.3,0,11.4-5.1,11.4-11.4V183.8c0-6.3-5.1-11.4-11.4-11.4H34.6z"/>
	<path class="st0" d="M567.2,363.8h-48.4c-15.2,0-27.8-12.4-27.8-27.6V183.8c0-15.2,12.4-27.8,27.8-27.8h48.4
		c15.2,0,27.8,12.4,27.8,27.8v152.4C594.9,351.4,582.5,363.8,567.2,363.8z M518.9,172.3c-6.3,0-11.4,5.1-11.4,11.4v152.4
		c0,6.3,5.1,11.4,11.4,11.4h48.4c6.3,0,11.4-5.1,11.4-11.4V183.8c0-6.3-5.1-11.4-11.4-11.4H518.9z"/>
	<path class="st0" d="M308.8,456c-40.7,0-114.5-24.4-156.8-69.2c-7.5-7.9-1-20.9,3.7-27.9c0-0.1,0.1-0.3,0.3-0.3
		c1.6-2.1,37.1-50.9,76.7-29.6c33.8,18.2,102.6,69.1,105.5,71.2c0.6,0.4,1.1,0.8,1.6,1.4c0.6,0.8,15.1,19.3-0.6,43.7
		c-3.8,5.9-11.3,9.4-22.6,10.4C314.2,456,311.6,456,308.8,456z M165.1,376.9c40.9,42.3,115.5,65.3,149.3,62.6
		c7.8-0.6,10.7-2.5,11.1-3.1c8-12.4,3.5-21.6,2-24c-8.9-6.5-71.9-52.7-102.5-69.2c-26.2-14.1-53.7,21.9-55.7,24.7
		C167.2,371,165.6,374.8,165.1,376.9z M165,377.9h0.1H165z"/>
</g>
</svg>
