<?xml version="1.0" encoding="utf-8"?>
<!-- Generator: Adobe Illustrator 25.0.0, SVG Export Plug-In . SVG Version: 6.00 Build 0)  -->
<svg version="1.1" id="Capa_1" xmlns="http://www.w3.org/2000/svg" xmlns:xlink="http://www.w3.org/1999/xlink" x="0px" y="0px"
	 viewBox="0 0 600 600" style="enable-background:new 0 0 600 600;" xml:space="preserve">
<style type="text/css">
	.st0{fill:#006dd9;}
	.st1{font-family:'Arciform';}
	.st2{font-size:81.2789px;}
</style>
<g>
	<g>
		<path class="st0" d="M285.2,448.2H17.1c-4.5,0-8.1-3.7-8.1-8.1c0-4.5,3.7-8.1,8.1-8.1h268.1c4.5,0,8.1,3.7,8.1,8.1
			C293.3,444.5,289.6,448.2,285.2,448.2z"/>
		<path class="st0" d="M380.4,588.2c-0.2,0-0.5,0-0.8,0H156.9c-4.5,0-8.1-3.5-8.1-8.1s3.5-8.1,8-8.3c5.2-0.2,20.1-1.4,27.6-5.2
			l29.8-21.2c2.3-1.7,4.6-6.4,4.6-12.6v-36.9c0-4.5,3.7-8.1,8.1-8.1l0,0c4.5,0,8.1,3.7,8.1,8.1v36.9c0.2,10.9-4.3,20.9-11.5,26
			l-18.4,13.1h127.4l-18.4-13.1c-7.2-5.1-11.5-15-11.5-26v-36.9c0-4.6,3.7-8.1,8.1-8.1l0,0c4.6,0,8.1,3.7,8.1,8.1v36.9
			c0,6.1,2.3,10.9,4.6,12.6l29.8,21c14.7,4.8,24,5.4,26.4,5.4h0.9c4.5,0,8.1,3.5,8.1,8c0.2,4.5-3.4,8.1-7.8,8.3
			C381.1,588.2,380.8,588.2,380.4,588.2z"/>
		<g>
			<path class="st0" d="M316.8,66.7h-93.7c-4.5,0-8.1-3.7-8.1-8.1s3.7-8.1,8.1-8.1h93.7c4.5,0,8.1,3.7,8.1,8.1
				S321.2,66.7,316.8,66.7z"/>
			<path class="st0" d="M293,123.7H185c-4.5,0-8.1-3.7-8.1-8.1c0-4.5,3.7-8.1,8.1-8.1H293c4.5,0,8.1,3.7,8.1,8.1
				C301.1,120,297.4,123.7,293,123.7z"/>
			<path class="st0" d="M353.3,123.7h-30.6c-4.5,0-8.1-3.7-8.1-8.1c0-4.5,3.7-8.1,8.1-8.1h30.6c4.5,0,8.1,3.7,8.1,8.1
				C361.6,120,357.9,123.7,353.3,123.7z"/>
			<path class="st0" d="M352.7,180.1H185.8c-4.5,0-8.1-3.7-8.1-8.1c0-4.5,3.7-8.1,8.1-8.1h166.9c4.5,0,8.1,3.7,8.1,8.1
				C360.9,176.4,357.2,180.1,352.7,180.1z"/>
			<path class="st0" d="M323.5,267h-44.4c-4.5,0-8.1-3.7-8.1-8.1c0-4.5,3.7-8.1,8.1-8.1h44.4c4.5,0,8.1,3.7,8.1,8.1
				C331.7,263.3,328,267,323.5,267z"/>
			<text transform="matrix(1 0 0 1 207.561 280.4268)" class="st0 st1 st2">$</text>
		</g>
	</g>
	<g>
		<path class="st0" d="M521,305.4c-4.5,0-8.1-3.7-8.1-8.1V163c0-12.6-10.3-22.7-22.7-22.7h-69.7c-4.5,0-8.1-3.7-8.1-8.1
			c0-4.5,3.7-8.1,8.1-8.1h69.7c21.7,0,39.2,17.5,39.2,39.2v134.2C529.2,301.7,525.5,305.4,521,305.4z"/>
		<path class="st0" d="M326.2,504.2H47.9c-21.5,0-39.2-17.5-39.2-39.2V163c0-21.5,17.5-39.2,39.2-39.2h75.7c4.5,0,8.1,3.7,8.1,8.1
			c0,4.5-3.7,8.1-8.1,8.1H47.9c-12.6,0-22.7,10.3-22.7,22.7v302.2c0,12.6,10.3,22.7,22.7,22.7h278.2c4.5,0,8.1,3.7,8.1,8.1
			C334.3,500.5,330.8,504.2,326.2,504.2z"/>
		<path class="st0" d="M380.4,588.2c-0.2,0-0.5,0-0.8,0H156.9c-4.5,0-8.1-3.5-8.1-8.1s3.5-8.1,8-8.3c5.2-0.2,20.1-1.4,27.6-5.2
			l29.8-21.2c2.3-1.7,4.6-6.4,4.6-12.6v-36.9c0-4.5,3.7-8.1,8.1-8.1l0,0c4.5,0,8.1,3.7,8.1,8.1v36.9c0.2,10.9-4.3,20.9-11.5,26
			l-18.4,13.1h127.4l-18.4-13.1c-7.2-5.1-11.5-15-11.5-26v-36.9c0-4.6,3.7-8.1,8.1-8.1l0,0c4.6,0,8.1,3.7,8.1,8.1v36.9
			c0,6.1,2.3,10.9,4.6,12.6l29.8,21c14.7,4.8,24,5.4,26.4,5.4h0.9c4.5,0,8.1,3.5,8.1,8c0.2,4.5-3.4,8.1-7.8,8.3
			C381.1,588.2,380.8,588.2,380.4,588.2z"/>
		<g>
			<path class="st0" d="M301.9,344.5H143.7c-4.5,0-8.1-3.7-8.1-8.1V17.1c0-4.5,3.7-8.1,8.1-8.1h256.1c4.5,0,8.1,3.7,8.1,8.1V267
				c0,4.5-3.7,8.1-8.1,8.1s-8.1-3.7-8.1-8.1V25.3H152v302.8h149.9c4.5,0,8.1,3.7,8.1,8.1C310,340.8,306.3,344.5,301.9,344.5z"/>
			<path class="st0" d="M316.8,66.7h-93.7c-4.5,0-8.1-3.7-8.1-8.1s3.7-8.1,8.1-8.1h93.7c4.5,0,8.1,3.7,8.1,8.1
				S321.2,66.7,316.8,66.7z"/>
			<path class="st0" d="M293,123.7H185c-4.5,0-8.1-3.7-8.1-8.1c0-4.5,3.7-8.1,8.1-8.1H293c4.5,0,8.1,3.7,8.1,8.1
				C301.1,120,297.4,123.7,293,123.7z"/>
			<path class="st0" d="M353.3,123.7h-30.6c-4.5,0-8.1-3.7-8.1-8.1c0-4.5,3.7-8.1,8.1-8.1h30.6c4.5,0,8.1,3.7,8.1,8.1
				C361.6,120,357.9,123.7,353.3,123.7z"/>
			<path class="st0" d="M352.7,180.1H185.8c-4.5,0-8.1-3.7-8.1-8.1c0-4.5,3.7-8.1,8.1-8.1h166.9c4.5,0,8.1,3.7,8.1,8.1
				C360.9,176.4,357.2,180.1,352.7,180.1z"/>
			<path class="st0" d="M323.5,267h-44.4c-4.5,0-8.1-3.7-8.1-8.1c0-4.5,3.7-8.1,8.1-8.1h44.4c4.5,0,8.1,3.7,8.1,8.1
				C331.7,263.3,328,267,323.5,267z"/>
			<text transform="matrix(1 0 0 1 207.561 280.4268)" class="st0 st1 st2">$</text>
		</g>
	</g>
	<g>
		<g>
			<path class="st0" d="M429.8,490.4c-2.3,0-4.6-0.9-6.1-2.8l-44.4-50.2c-3.1-3.4-2.6-8.6,0.8-11.5c3.4-3.1,8.6-2.8,11.5,0.8
				l35.6,40.4c11.1-25.2,40.1-83.1,86.8-125.1c3.4-3.1,8.6-2.8,11.5,0.6c3.1,3.4,2.8,8.6-0.6,11.5c-56.8,51.1-87.2,130.2-87.4,131
				c-1.1,2.6-3.4,4.6-6.1,5.2C430.7,490.4,430.3,490.4,429.8,490.4z"/>
			<path class="st0" d="M450.2,566.5c-80.5,0-145.9-65.4-145.9-145.9s65.4-145.9,145.9-145.9s145.9,65.4,145.9,145.9
				S530.7,566.5,450.2,566.5z M450.2,291.1c-71.4,0-129.6,58-129.6,129.6s58.2,129.6,129.6,129.6s129.6-58.2,129.6-129.6
				S521.6,291.1,450.2,291.1z"/>
		</g>
	</g>
</g>
</svg>
