<?xml version="1.0" encoding="utf-8"?>
<!-- Generator: Adobe Illustrator 25.0.0, SVG Export Plug-In . SVG Version: 6.00 Build 0)  -->
<svg version="1.1" id="Capa_1" xmlns="http://www.w3.org/2000/svg" xmlns:xlink="http://www.w3.org/1999/xlink" x="0px" y="0px"
	 viewBox="0 0 600 600" style="enable-background:new 0 0 600 600;" xml:space="preserve">
<style type="text/css">
	.st0{fill:#FFFFFF;}
</style>
<g>
	<path class="st0" d="M422.4,362.1c-19.6,0-38.9-3.2-57.1-9.7c-3.8-1.3-5.7-5.4-4.4-9.3c1.3-3.8,5.6-5.7,9.3-4.4
		c16.8,5.9,34.3,9,52.3,9c86.3,0,156.5-70.2,156.5-156.5S508.7,34.7,422.4,34.7c-79.5,0-146.3,59.5-155.5,138.2
		c-0.4,4-4.4,6.9-7.9,6.3c-4-0.4-6.8-4-6.3-8.1C262.5,85.1,335.5,20,422.6,20c94.2,0,170.9,76.7,170.9,170.9
		S516.8,362.1,422.4,362.1z"/>
	<path class="st0" d="M422.8,284.4c-1.6,0-2.9-0.6-4-1.8l-72.7-82.3c-1.5-1.6-1.8-3.8-0.9-5.7c0.9-1.9,2.8-3.2,4.9-3.2h32.2
		l-0.3-71.8c0-2.9,2.4-5.4,5.4-5.4l0,0c2.9,0,5.4,2.4,5.4,5.4l0.3,77.3c0,1.5-0.6,2.8-1.6,3.8c-1,1-2.4,1.6-3.8,1.6h-25.6l60.7,68.6
		l60.4-69l-25.5,0.1c-1.5,0.3-2.8-0.6-3.8-1.6c-1-1-1.6-2.4-1.6-3.8l-0.3-77.3c0-2.9,2.4-5.4,5.4-5.4l0,0c2.9,0,5.4,2.4,5.4,5.4
		l0.3,71.8l32.1-0.1c1.6-0.1,4.1,1.2,5,3.1c0.9,1.9,0.6,4.3-0.9,5.7l-72.6,82.7C425.8,283.7,424.3,284.4,422.8,284.4L422.8,284.4z"
		/>
	<g>
		<g>
			<path class="st0" d="M174.5,579.4c-1.3,0-2.6-0.4-3.8-1c-2.1-1.3-3.4-3.7-3.4-6.2V323.3c0-2.8,1.6-5.3,4-6.5l161-80.5
				c2.2-1,5-1,7.1,0.3c2.1,1.3,3.4,3.7,3.4,6.2v248.8c0,2.8-1.6,5.3-4,6.5l-161,80.5C176.7,579.1,175.7,579.4,174.5,579.4z
				 M181.7,327.7v232.7l146.6-73.3V254.5L181.7,327.7z M335.5,491.5h0.1H335.5z"/>
			<path class="st0" d="M174.5,579.4c-1,0-2.2-0.3-3.2-0.7l-161-80.5c-2.5-1.2-4-3.7-4-6.5V242.7c0-2.5,1.3-4.9,3.4-6.2
				c2.2-1.3,4.9-1.3,7.1-0.3l161,80.5c2.5,1.2,4,3.7,4,6.5V572c0,2.5-1.3,4.9-3.4,6.2C177.2,579,175.8,579.4,174.5,579.4z
				 M20.7,487.1l146.6,73.3V327.7L20.7,254.5V487.1z"/>
			<path class="st0" d="M174.5,330.5c-1,0-2.2-0.3-3.2-0.7l-161-80.7c-2.5-1.2-4-3.7-4-6.5c0-2.8,1.6-5.3,4-6.5l161-80.5
				c2.1-1,4.4-1,6.5,0l161,80.5c2.5,1.2,4,3.7,4,6.5c0,2.8-1.6,5.3-4,6.5l-161,80.5C176.7,330.2,175.7,330.5,174.5,330.5z
				 M29.6,242.6l144.9,72.6l144.9-72.4l-144.9-72.4L29.6,242.6z"/>
			<g>
				<path class="st0" d="M174.1,330.8c-0.9,0-1.9-0.1-2.8-0.6l-161-80.5c-2.5-1.2-4-3.7-4-6.5c0-2.6,1.5-5.4,3.7-6.8
					c2.2-1.2,5-1.5,7.1-0.3l160.8,80.4c2.5,1.2,4,3.7,4,6.5c0,2.5-1.3,5.2-3.4,6.5C177,330.3,175.5,330.8,174.1,330.8z"/>
			</g>
			<g>
				<path class="st0" d="M174.5,330.9c-1.3,0-2.6-0.4-3.8-1c-2.1-1.3-3.4-3.7-3.4-6.2V323c0-2.8,1.6-5.3,4-6.5L332,236.1
					c2.1-1,4.6-1,6.8,0.1c2.4,1.3,4.1,4,4.1,6.5c0,2.8-1.6,5.6-4,6.8l-161,80.5C176.7,330.6,175.7,330.9,174.5,330.9z"/>
			</g>
			<path class="st0" d="M174.5,330.5c-2.6,0-5.2-1.5-6.5-4c-0.6-1-0.7-2.1-0.7-3.2c0-2.6,1.5-5.2,4-6.5l161-80.5
				c3.5-1.9,7.9-0.4,9.7,3.2c0.6,1,0.7,2.1,0.7,3.2c0,2.6-1.5,5.2-4,6.5l-161,80.5C176.7,330.3,175.7,330.5,174.5,330.5z"/>
		</g>
		<path class="st0" d="M100.5,377.1c-1,0-2.2-0.3-3.2-0.7L74,364.8c-2.5-1.2-4-3.7-4-6.5v-83.2c0-2.5,1.3-4.9,3.4-6.2
			c2.2-1.3,4.9-1.5,7.1-0.3l23.3,11.6c2.5,1.2,4,3.7,4,6.5v83.2c0,2.5-1.3,4.9-3.4,6.2C103.1,376.8,101.8,377.1,100.5,377.1z
			 M84.6,353.9l8.7,4.4v-67.1l-8.7-4.4V353.9z"/>
		<path class="st0" d="M100.5,294c-1,0-2.2-0.3-3.2-0.7L74,281.6c-2.5-1.2-4-3.7-4-6.5c0-2.8,1.6-5.3,4-6.5l162.7-80.2
			c2.1-1,4.4-1,6.5,0l23.3,11.6c2.5,1.2,4,3.7,4,6.5s-1.6,5.3-4,6.5l-162.7,80.2C102.7,293.7,101.6,294,100.5,294z M93.5,275.1
			l7.1,3.5l146.3-72.1l-7.1-3.5L93.5,275.1z"/>
	</g>
</g>
</svg>
