<?xml version="1.0" encoding="utf-8"?>
<!-- Generator: Adobe Illustrator 25.0.0, SVG Export Plug-In . SVG Version: 6.00 Build 0)  -->
<svg version="1.1" id="Capa_1" xmlns="http://www.w3.org/2000/svg" xmlns:xlink="http://www.w3.org/1999/xlink" x="0px" y="0px"
	 viewBox="0 0 600 600" style="enable-background:new 0 0 600 600;" xml:space="preserve">
<style type="text/css">
	.st0{fill:#006dd9;}
</style>
<g>
	<path class="st0" d="M260.2,463.2c-5,0-9.2-4-9.2-9.2s4-9.3,9.2-9.3l143.1-1.3c4.2,0.4,22.8,0.3,24.1-17.2
		c1.3-17.9-10.8-20.8-14.5-21.4l-87.8,0.1c-3.2,0-6-1.6-7.7-4.3c-0.7-1-16.9-25.1-57.4-26.2c-23.2-0.4-34,4.2-45.5,9.5
		c-10.8,4.9-21.9,9.9-41.4,10.5c-39,1.4-64.4-1.6-65.5-1.7c-5-0.6-8.7-5.2-8-10.2c0.6-5,5.3-8.6,10.2-8c0.3,0,25.4,3,62.7,1.6
		c15.9-0.6,24.5-4.4,34.6-8.9c12.3-5.4,26.4-11.5,53.5-11c40.1,1.1,61.7,21.4,69.3,30.5H414c12.5,1.3,33.8,11.5,31.7,41
		c-2,29.3-28.7,35.6-42.9,34.4L260.2,463.2L260.2,463.2z"/>
	<path class="st0" d="M269.2,571c-45.3,0-71.5-9.8-93.5-17.9c-15.2-5.6-27.1-10.8-41.7-9.5h-27.7c-5,0-9.2-4.2-9.2-9.2
		s4.2-9.2,9.2-9.2h27.2c17.5-1.1,32.1,4.4,48.6,10.6c24.2,9,54.3,19.9,113,15.6c42.4-3.3,71.4-12.8,71.7-12.8l156.4-88.6
		c20.1-43.3,51.2-111.6,53.2-118.6c2.6-11-1.9-19.1-13.5-24.5c-13.2-6.2-22.5,6.6-23.5,8c-17.1,33.8-45.2,89.9-49,98.6
		c-0.9,5.3-5.7,8.6-27.2,17.2c-4.7,1.7-10-0.4-12-5.2c-1.9-4.7,0.4-10,5.2-12c6.5-2.6,14.3-6,17.6-7.9c3.6-8.5,14.9-31.3,49.6-100.1
		c6.9-10.6,24.7-26,47.3-15.5c19.5,9.2,28.1,25.8,23.7,45.6c-2,8.9-43,97.8-55.6,124.7c-0.9,1.7-2.2,3.2-3.9,4.2l-160.7,90.8
		c-2.9,1.1-32.8,10.9-77.7,14.3C286.7,570.6,277.6,571,269.2,571z"/>
	<path class="st0" d="M82.9,567.6H34.3c-17.3,0-31.4-14.1-31.4-31.4V376.9c0-17.3,14.1-31.4,31.4-31.4h48.6
		c17.3,0,31.4,14.1,31.4,31.4v159.3C114.3,553.5,100.3,567.6,82.9,567.6z M34.3,363.8c-7.2,0-13,5.9-13,13v159.3c0,7.2,5.9,13,13,13
		h48.6c7.2,0,13-5.9,13-13V376.9c0-7.2-5.9-13-13-13H34.3z"/>
	<g>
		<path class="st0" d="M300.3,188.3c-28.1,0-53.5-14.3-68.1-38.3c-7.6-12.5-11.6-26.8-11.6-41.4c0-43.9,35.7-79.6,79.6-79.6
			s79.6,35.7,79.6,79.6c0,14.6-4,29-11.6,41.4C353.6,174,328.3,188.3,300.3,188.3z M300.3,47.5c-33.7,0-61.2,27.4-61.2,61.2
			c0,11.2,3,22.2,8.9,31.8c11.2,18.4,30.8,29.4,52.3,29.4s41-11,52.2-29.4c5.9-9.6,8.9-20.5,8.9-31.8
			C361.4,74.9,334,47.5,300.3,47.5z"/>
		<path class="st0" d="M413.6,341.3c-4.6,0-8.6-3.4-9.2-8c-8.7-68.1-52.5-117.4-104.2-117.4s-95.6,49.5-104.2,117.4
			c-0.7,5-4.9,8.3-10.3,8c-5-0.7-8.6-5.3-8-10.3c9.9-77.4,61.4-133.6,122.6-133.6c61.1,0,112.7,56.2,122.6,133.6
			c0.7,5-2.9,9.6-8,10.3C414.4,341.3,414,341.3,413.6,341.3z"/>
	</g>
</g>
</svg>
