<?xml version="1.0" encoding="utf-8"?>
<!-- Generator: Adobe Illustrator 25.0.0, SVG Export Plug-In . SVG Version: 6.00 Build 0)  -->
<svg version="1.1" id="Capa_1" xmlns="http://www.w3.org/2000/svg" xmlns:xlink="http://www.w3.org/1999/xlink" x="0px" y="0px"
	 viewBox="0 0 600 600" style="enable-background:new 0 0 600 600;" xml:space="preserve">
<style type="text/css">
	.st0{fill:#FFFFFF;}
	.st1{font-family:'Arciform';}
	.st2{font-size:130.5779px;}
</style>
<g>
	<path class="st0" d="M505.8,597.9c-4.9,0-8.8-3.9-8.8-8.8V85h-80.3c-4.9,0-8.8-3.9-8.8-8.8s3.9-8.8,8.8-8.8h89.1
		c4.9,0,8.8,3.9,8.8,8.8v512.9C514.4,594,510.5,597.9,505.8,597.9z"/>
	<path class="st0" d="M505.8,597.9H94c-4.9,0-8.8-3.9-8.8-8.8V76.4c0-4.9,3.9-8.8,8.8-8.8h84.7c4.9,0,8.8,3.9,8.8,8.8
		c0,4.9-3.9,8.8-8.8,8.8h-75.9v495.2h402.9c4.9,0,8.8,3.9,8.8,8.8S510.5,597.9,505.8,597.9z"/>
	<path class="st0" d="M428.6,193.1H157c-4.9,0-8.8-3.9-8.8-8.8c0-4.9,3.9-8.8,8.8-8.8h271.7c4.9,0,8.8,3.9,8.8,8.8
		C437.5,189.2,433.5,193.1,428.6,193.1z"/>
	<path class="st0" d="M330.5,284.8H157c-4.9,0-8.8-3.9-8.8-8.8c0-4.9,3.9-8.8,8.8-8.8h173.5c4.9,0,8.8,3.9,8.8,8.8
		C339.3,280.8,335.2,284.8,330.5,284.8z"/>
	<path class="st0" d="M426.4,284.8h-49.1c-4.9,0-8.8-3.9-8.8-8.8c0-4.9,3.9-8.8,8.8-8.8h49.1c4.9,0,8.8,3.9,8.8,8.8
		C435.3,280.8,431.3,284.8,426.4,284.8z"/>
	<path class="st0" d="M425.2,375.3H157c-4.9,0-8.8-3.9-8.8-8.8s3.9-8.8,8.8-8.8h268.2c4.9,0,8.8,3.9,8.8,8.8
		S429.9,375.3,425.2,375.3z"/>
	<path class="st0" d="M377.2,514.8h-89.8c-4.9,0-8.8-3.9-8.8-8.8s3.9-8.8,8.8-8.8h89.8c4.9,0,8.8,3.9,8.8,8.8
		S381.9,514.8,377.2,514.8z"/>
	<text transform="matrix(1 0 0 1 202.043 540.833)" class="st0 st1 st2">$</text>
	<path class="st0" d="M384.9,112.3H214.9c-4.9,0-8.8-3.9-8.8-8.8V48.9c0-4.9,3.9-8.8,8.8-8.8h38.7c5-21.3,24-37.1,46.4-37.1
		s41.5,15.8,46.4,37.1h38.7c4.9,0,8.8,3.9,8.8,8.8v54.6C393.8,108.4,389.8,112.3,384.9,112.3z M223.5,94.8h152.6V57.7h-37.4
		c-4.7,0-8.5-3.6-8.8-8.2c-0.9-16.1-14.2-28.9-30.1-28.9c-15.9,0-29.2,12.6-30.1,28.9c-0.3,4.6-4.1,8.2-8.8,8.2h-37.4v37.1H223.5z"
		/>
</g>
</svg>
