<?xml version="1.0" encoding="utf-8"?>
<!-- Generator: Adobe Illustrator 25.0.0, SVG Export Plug-In . SVG Version: 6.00 Build 0)  -->
<svg version="1.1" id="Capa_1" xmlns="http://www.w3.org/2000/svg" xmlns:xlink="http://www.w3.org/1999/xlink" x="0px" y="0px"
	 viewBox="0 0 600 600" style="enable-background:new 0 0 600 600;" xml:space="preserve">
<style type="text/css">
	.st0{fill:#FFFFFF;}
</style>
<g>
	<path class="st0" d="M520.6,564.6c-12.6,0-28.8-0.3-49.7-1.1c-4.2-0.1-7.8-3.7-7.8-8.1V340.7H133.9v212.9c0,4.4-3.5,8.1-8.1,8.1
		H41.5c-4.4,0-8.1-3.5-8.1-8.1V294.1H13.1c-4.4,0-8.1-3.5-8.1-8.1v-85.3c0-3,1.7-5.8,4.4-7.1L296.6,45.7c2.3-1.1,4.9-1.1,7.3,0
		l287.7,147.9c2.7,1.4,4.4,4.1,4.4,7.1V286c0,4.4-3.5,8.1-8.1,8.1h-20.5v259.5c0,2.1-1.1,4.7-2.7,6.2
		C562.9,561.7,559.8,564.6,520.6,564.6z M558.1,554.6h0.1H558.1z M479,547.8c29.7,1,60.8,1.1,72.5-0.1V286c0-4.4,3.5-8.1,8.1-8.1
		H580v-72.5L300.3,61.7L21.1,205.5V278h20.5c4.4,0,8.1,3.5,8.1,8.1v259.5H118V332.6c0-4.4,3.5-8.1,8.1-8.1h345.2
		c4.4,0,8.1,3.5,8.1,8.1v215.2H479z"/>
	<path class="st0" d="M194.3,297.6H117c-4.4,0-8.1-3.5-8.1-8.1v-43.1c0-4.4,3.5-8.1,8.1-8.1h77.3c4.4,0,8.1,3.5,8.1,8.1v43.1
		C202.2,293.9,198.7,297.6,194.3,297.6z M125,281.6h61.3v-27.1H125V281.6z"/>
	<path class="st0" d="M291,297.6h-77.3c-4.4,0-8.1-3.5-8.1-8.1v-43.1c0-4.4,3.5-8.1,8.1-8.1H291c4.4,0,8.1,3.5,8.1,8.1v43.1
		C299,293.9,295.5,297.6,291,297.6z M221.7,281.6h61.3v-27.1h-61.3V281.6z"/>
	<path class="st0" d="M387.7,297.6h-77.3c-4.4,0-8.1-3.5-8.1-8.1v-43.1c0-4.4,3.5-8.1,8.1-8.1h77.3c4.4,0,8.1,3.5,8.1,8.1v43.1
		C395.8,293.9,392.3,297.6,387.7,297.6z M318.5,281.6h61.3v-27.1h-61.3V281.6z"/>
	<path class="st0" d="M484.5,297.6h-77.3c-4.4,0-8.1-3.5-8.1-8.1v-43.1c0-4.4,3.5-8.1,8.1-8.1h77.3c4.4,0,8.1,3.5,8.1,8.1v43.1
		C492.6,293.9,488.9,297.6,484.5,297.6z M415.3,281.6h61.3v-27.1h-61.3V281.6z"/>
	<path class="st0" d="M438.7,388H156.3c-4.4,0-8.1-3.5-8.1-8.1c0-4.4,3.5-8.1,8.1-8.1h282.4c4.4,0,8.1,3.5,8.1,8.1
		C446.7,384.4,443.1,388,438.7,388z"/>
	<path class="st0" d="M438.7,442H156.3c-4.4,0-8.1-3.5-8.1-8.1c0-4.4,3.5-8.1,8.1-8.1h282.4c4.4,0,8.1,3.5,8.1,8.1
		C446.7,438.3,443.1,442,438.7,442z"/>
	<path class="st0" d="M438.7,495.8H156.3c-4.4,0-8.1-3.5-8.1-8.1c0-4.4,3.5-8.1,8.1-8.1h282.4c4.4,0,8.1,3.5,8.1,8.1
		C446.7,492.3,443.1,495.8,438.7,495.8z"/>
	<path class="st0" d="M438.7,549.8H156.3c-4.4,0-8.1-3.5-8.1-8.1c0-4.4,3.5-8.1,8.1-8.1h282.4c4.4,0,8.1,3.5,8.1,8.1
		C446.7,546.3,443.1,549.8,438.7,549.8z"/>
</g>
</svg>
