<?xml version="1.0" encoding="utf-8"?>
<!-- Generator: Adobe Illustrator 25.0.0, SVG Export Plug-In . SVG Version: 6.00 Build 0)  -->
<svg version="1.1" id="Capa_1" xmlns="http://www.w3.org/2000/svg" xmlns:xlink="http://www.w3.org/1999/xlink" x="0px" y="0px"
	 viewBox="0 0 600 600" style="enable-background:new 0 0 600 600;" xml:space="preserve">
<style type="text/css">
	.st0{fill:#006dd9;}
</style>
<g>
	<path class="st0" d="M297.5,598c-2.7,0-5.2-1.3-6.6-3.5L232,507H69.1c-27.2,0-49.4-22.2-49.4-49.4V53.1c0-27.2,22.2-49.4,49.4-49.4
		h456.8c27.2,0,49.4,22.2,49.4,49.4v404.6c0,27.2-22.2,49.4-49.4,49.4H363.2l-59.1,87.5C302.7,596.7,300.2,598,297.5,598z
		 M69.1,19.6c-18.5,0-33.5,15.1-33.5,33.5v404.6c0,18.5,15.1,33.5,33.5,33.5H236c2.7,0,5.2,1.3,6.6,3.5l54.9,81.3l54.9-81.3
		c1.4-2.2,3.9-3.5,6.6-3.5h166.9c18.5,0,33.5-15.1,33.5-33.5V53.1c0-18.5-15.1-33.5-33.5-33.5C525.9,19.6,69.1,19.6,69.1,19.6z"/>
	<g>
		<path class="st0" d="M297.5,248.3c-30.8,0-58.9-15.7-75.1-42.1c-8.3-13.8-12.7-29.5-12.7-45.7c0-48.4,39.5-87.9,87.9-87.9
			s87.9,39.5,87.9,87.9c0,16.2-4.4,31.9-12.7,45.7C356.4,232.4,328.5,248.3,297.5,248.3z M297.5,88.4c-39.6,0-72,32.2-72,72
			c0,13.2,3.6,26.1,10.5,37.4c13.2,21.7,36.2,34.6,61.5,34.6s48.3-12.9,61.5-34.6c6.9-11.2,10.5-24.2,10.5-37.4
			C369.5,120.6,337.3,88.4,297.5,88.4z"/>
		<path class="st0" d="M426.2,422H168.9c-2.4,0-4.4-0.9-6-2.7s-2.2-3.9-1.9-6.3c11-86.6,68.5-149.5,136.6-149.5
			S423.1,326.4,434.2,413c0.3,2.2-0.5,4.6-1.9,6.3C430.6,420.9,428.6,422,426.2,422z M178,406.1H417
			c-12.6-73.9-61.8-126.7-119.5-126.7C239.8,279.4,190.6,332.2,178,406.1z"/>
	</g>
</g>
</svg>
