<?xml version="1.0" encoding="utf-8"?>
<!-- Generator: Adobe Illustrator 25.0.0, SVG Export Plug-In . SVG Version: 6.00 Build 0)  -->
<svg version="1.1" id="Capa_1" xmlns="http://www.w3.org/2000/svg" xmlns:xlink="http://www.w3.org/1999/xlink" x="0px" y="0px"
	 viewBox="0 0 600 600" style="enable-background:new 0 0 600 600;" xml:space="preserve">
<style type="text/css">
	.st0{fill:#006dd9;}
	.st1{font-family:'ArialRoundedMTBold';}
	.st2{font-size:90.7459px;}
</style>
<g>
	<g>
		<text transform="matrix(0.9559 -0.142 0.147 0.9891 264.6564 194.6213)" class="st0 st1 st2">$</text>
		<path class="st0" d="M95.2,314.7c-4.4,0-8.6-1.4-12.2-4.1c-4.5-3.4-7.5-8.3-8.3-14l-30.7-206C43.3,85,44.6,79.4,48,74.7
			c3.3-4.4,8.1-7.3,13.4-8.1L472.2,5.6c5.5-0.9,11.1,0.6,15.4,4.1c4.4,3.4,7.2,8.3,8.1,13.7l30.5,206c0.8,5.5-0.5,11.1-3.7,15.4
			c-3.3,4.5-8.1,7.5-13.6,8.4L98.2,314.2C97.3,314.7,96.3,314.7,95.2,314.7z M475.1,22.8c-0.2,0-0.2,0-0.3,0L63.9,83.9
			c-1.1,0.2-1.7,0.8-2,1.2c-0.3,0.5-0.9,1.6-0.8,3l30.7,206c0.3,1.6,1.1,2.3,1.6,2.6c0.5,0.3,1.4,0.6,2.3,0.6l410.7-61.1
			c1.7-0.3,3-2.6,2.8-4.2L482,48.6l0,0l-3.3-22.4C478.5,24.6,476.8,22.8,475.1,22.8z"/>
		<path class="st0" d="M152.3,272.2c-1.9,0-3.6-0.6-5.1-1.7c-1.9-1.4-3-3.4-3.4-5.6c-3-19.6-19.9-33.2-39.4-30.5
			c-4.7,0.6-9-2.5-9.8-7.3l-11.2-75.3c-0.8-4.7,2.5-9,7.3-9.8c18.9-2.8,31.8-21,28.8-40.7c-0.8-4.7,2.5-9,7.3-9.8l290.4-43.2
			c5-0.8,9,2.5,9.8,7.3c0.8,4.7-2.5,9-7.3,9.8L137,107.5c-0.3,22.6-14.6,42.7-35.5,49.5l8.9,59.7c22,0.5,41.6,15.6,48.5,37.1
			l282.5-41.9c5-0.8,9,2.5,9.8,7.3c0.8,4.7-2.5,9-7.3,9.8l-290.3,43C153,272.2,152.6,272.2,152.3,272.2z"/>
		<path class="st0" d="M442.7,228.1c-4.2,0-7.9-3.1-8.6-7.5c-3.6-25.1,12.3-48.1,37.1-55.5l-8.6-59.5c-21-0.6-40.2-14.6-47.5-35.5
			l-4.5-9.7c-2-4.4,0-9.5,4.2-11.5c4.4-2,9.5-0.2,11.5,4.2l4.8,10.4c5.9,16.7,21.3,26.5,37.7,24.3c4.7-0.8,9,2.5,9.8,7.3l10.8,75.3
			c0.6,4.7-2.6,9-7.3,9.8c-20.3,3-33.5,19.2-30.9,37.7c0.6,4.7-2.6,9-7.3,9.8C443.5,228.1,443,228.1,442.7,228.1z"/>
		<path class="st0" d="M284.5,232.7c-37.1,0-68.4-29-70.7-66.4c-2.3-39,27.3-72.6,66.2-75.1c39.6-2.3,72.6,27.3,75.1,66.2l0,0
			c1.2,18.9-5,37.1-17.6,51.3c-12.5,14.2-29.8,22.6-48.6,23.8C287.5,232.7,285.9,232.7,284.5,232.7z M284.5,108.4
			c-1.1,0-2.2,0-3.3,0.2c-29.4,1.9-51.9,27.3-50,56.7c1.9,29.4,27.3,52.7,56.7,50.2c14.3-0.9,27.4-7.3,36.8-18.1
			c9.5-10.8,14.2-24.5,13.2-38.8l0,0C336.3,130.2,312.6,108.4,284.5,108.4z"/>
	</g>
	<path class="st0" d="M260.7,487c-4.7,0-8.6-3.7-8.6-8.6s3.7-8.7,8.6-8.7l142.9-1.2c4.1,0.3,23.2,0.3,24.5-17.8
		c1.2-18.9-12.2-21.5-14.8-22h-87.6c-3,0-5.8-1.6-7.3-4.1c-0.6-0.9-17-25.2-57.8-26.5c-23.4-0.5-34,4.2-45.7,9.3
		c-10.8,4.8-21.8,9.8-41.1,10.4c-38.6,1.2-64.2-1.6-65.3-1.7c-4.7-0.5-8.1-4.8-7.5-9.5c0.5-4.8,4.8-8.1,9.5-7.6
		c0.3,0,25.6,3,62.6,1.6c15.9-0.5,24.6-4.4,34.7-8.9c12.3-5.5,26.2-11.7,53.1-10.9c40.2,1.1,61.5,21.5,68.9,30.4h84.3
		c12.3,1.2,33.2,11.2,31,40.4c-2,28.8-28.5,35.1-42.2,33.8L260.7,487C260.9,487,260.7,487,260.7,487z"/>
	<path class="st0" d="M269.7,594.5c-45,0-71.2-9.7-93-17.8c-15.3-5.6-27.1-10.4-41.9-9.3h-27.6c-4.8,0-8.6-3.9-8.6-8.6
		c0-4.7,3.9-8.6,8.6-8.6h27.3c18.4-0.9,31.9,4.4,48.3,10.4c24.3,9,54.4,20.1,113.1,15.6c42.5-3.3,71.4-12.8,71.7-12.8L524,475
		c20.1-43.3,51.3-111.7,53.1-118.6c2.6-11.4-1.9-19.6-13.9-25.2c-14.2-6.9-23.7,7.5-24.2,8.1c-17.1,34-45.3,90.2-48.9,98.6
		c-0.8,5-5.6,8.3-27,16.8c-4.4,1.7-9.5-0.5-11.2-4.8c-1.7-4.4,0.5-9.5,4.8-11.2c6.5-2.6,14.6-6.2,17.8-7.9
		c3.4-8.1,14.5-30.7,49.5-100c6.7-10.3,24.3-25.4,46.4-15.1c27.4,12.8,25.4,35.7,23.2,44.9c-2,8.7-43,97.4-55.5,124.3
		c-0.8,1.6-2,3-3.6,3.9l-160.3,90.7c-2.8,1.1-32.6,10.9-77.3,14.3C287.2,594.2,278.2,594.5,269.7,594.5z"/>
	<path class="st0" d="M85.3,591.1H34c-16.2,0-29.4-13.2-29.4-29.4V400.1c0-16.2,13.2-29.4,29.4-29.4h51.3
		c16.2,0,29.4,13.2,29.4,29.4v161.7C114.7,577.9,101.5,591.1,85.3,591.1z M34,387.9c-6.7,0-12.2,5.5-12.2,12.2v161.7
		c0,6.7,5.5,12.2,12.2,12.2h51.3c6.7,0,12.2-5.5,12.2-12.2V400.1c0-6.7-5.5-12.2-12.2-12.2L34,387.9L34,387.9z"/>
</g>
</svg>
