<?xml version="1.0" encoding="utf-8"?>
<!-- Generator: Adobe Illustrator 25.0.0, SVG Export Plug-In . SVG Version: 6.00 Build 0)  -->
<svg version="1.1" id="Capa_1" xmlns="http://www.w3.org/2000/svg" xmlns:xlink="http://www.w3.org/1999/xlink" x="0px" y="0px"
	 viewBox="0 0 600 600" style="enable-background:new 0 0 600 600;" xml:space="preserve">
<style type="text/css">
	.st0{fill:#006dd9;}
</style>
<g>
	<path class="st0" d="M398,492.6h-60.7c-4.1,0-7.4-3.3-7.4-7.4c0-4.1,3.3-7.4,7.4-7.4H398c101,0,183.3-78.1,183.3-174.1
		S499.1,129.8,398,129.8H248.9c-4.1,0-7.4-3.3-7.4-7.4s3.3-7.4,7.4-7.4H398c109.1,0,198,84.8,198,188.8S507.3,492.6,398,492.6z"/>
	<g>
		<g>
			<path class="st0" d="M422.4,409.3c-35,0-63.4-27-63.4-60.3c0-8.3,7.2-15.3,16-15.3c8.8,0,16,6.8,16,15.3
				c0,16.4,14.2,29.9,31.4,29.9s31.4-13.4,31.4-29.9c0-16.4-14.2-29.9-31.4-29.9c-35,0-63.4-27-63.4-60.3s28.4-60.3,63.4-60.3
				c35,0,63.4,27,63.4,60.3c0,8.3-7.2,15.1-16,15.1c-8.8,0-16-6.8-16-15.1c0-16.4-14.2-29.9-31.4-29.9s-31.4,13.4-31.4,29.9
				s14.2,29.9,31.4,29.9c35,0,63.4,27,63.4,60.3C485.8,382.3,457.3,409.3,422.4,409.3z"/>
			<path class="st0" d="M422.4,228.9c-8.8,0-16-6.8-16-15.3v-19.1c0-8.3,7.2-15.1,16-15.1c8.8,0,16,6.8,16,15.1v19.1
				C438.4,222.1,431.3,228.9,422.4,228.9z"/>
			<path class="st0" d="M422.4,428.5c-8.8,0-16-6.8-16-15.3V394c0-8.3,7.2-15.1,16-15.1c8.8,0,16,6.8,16,15.1v19.2
				C438.4,421.6,431.3,428.5,422.4,428.5z"/>
		</g>
	</g>
	<path class="st0" d="M310.6,314.6h-51.8c-4.1,0-7.4-3.3-7.4-7.4c0-4.1,3.3-7.4,7.4-7.4h51.8c4.1,0,7.4,3.3,7.4,7.4
		S314.7,314.6,310.6,314.6z"/>
	<path class="st0" d="M339.4,393H293c-4.1,0-7.4-3.3-7.4-7.4c0-4.1,3.3-7.4,7.4-7.4h46.4c4.1,0,7.4,3.3,7.4,7.4
		C346.8,389.8,343.4,393,339.4,393z"/>
	<path class="st0" d="M339.4,236.2H293c-4.1,0-7.4-3.3-7.4-7.4s3.3-7.4,7.4-7.4h46.4c4.1,0,7.4,3.3,7.4,7.4S343.4,236.2,339.4,236.2
		z"/>
	<g>
		<path class="st0" d="M153.5,303.7c-33.8,0-64.7-17.3-82.2-46.3c-9.2-15-14-32.4-14-50.1c0-53.1,43.2-96.2,96.2-96.2
			s96.4,43.2,96.4,96.2c0,17.7-4.8,35-14,50.1C218,286.5,187.3,303.7,153.5,303.7z M153.5,125.8c-45,0-81.5,36.7-81.5,81.5
			c0,15,4.1,29.6,11.9,42.5c15,24.5,41,39.2,69.6,39.2c28.7,0,54.8-14.6,69.6-39.2c7.8-12.7,11.9-27.5,11.9-42.5
			C235,162.5,198.5,125.8,153.5,125.8z"/>
		<path class="st0" d="M296.7,496.9H10.3c-2.1,0-4.1-0.8-5.5-2.5c-1.4-1.6-2-3.7-1.8-5.8c12.2-95.7,75.4-165,150.6-165
			s138.3,69.3,150.6,165c0.3,2.1-0.4,4.2-1.8,5.8C300.8,496,298.8,496.9,296.7,496.9z M18.8,482.2h269.3
			c-13.7-83.8-69.3-143.8-134.7-143.8C88.1,338.4,32.5,398.4,18.8,482.2z"/>
	</g>
</g>
</svg>
