<?xml version="1.0" encoding="utf-8"?>
<!-- Generator: Adobe Illustrator 24.3.0, SVG Export Plug-In . SVG Version: 6.00 Build 0)  -->
<svg version="1.1" id="Capa_1" xmlns="http://www.w3.org/2000/svg" xmlns:xlink="http://www.w3.org/1999/xlink" x="0px" y="0px"
	 viewBox="0 0 30 30" style="enable-background:new 0 0 30 30;" xml:space="preserve">
<style type="text/css">
	.st0{fill:#006dd9;}
</style>
<g>
	<path class="st0" d="M19.8,9.8H9.4c-0.1,0-0.2-0.1-0.3-0.2c0-0.1,0-0.2,0.1-0.3l5.2-5.3c0.1-0.1,0.3-0.1,0.4,0L20,9.3
		c0.1,0.1,0.1,0.2,0.1,0.3C20,9.7,19.9,9.8,19.8,9.8z M10,9.3h9.1l-4.6-4.6L10,9.3z"/>
	<path class="st0" d="M14.6,25.7c-0.1,0-0.1,0-0.2-0.1l-5.2-5.3c-0.1-0.1-0.1-0.2-0.1-0.3c0-0.1,0.1-0.2,0.3-0.2h10.4
		c0.1,0,0.2,0.1,0.3,0.2c0,0.1,0,0.2-0.1,0.3l-5.2,5.3C14.7,25.7,14.7,25.7,14.6,25.7z M10,20.5l4.6,4.6l4.6-4.6H10z"/>
	<path class="st0" d="M14.6,17.7c-1.5,0-2.8-1.3-2.8-2.8c0-1.5,1.3-2.8,2.8-2.8s2.8,1.3,2.8,2.8C17.4,16.4,16.1,17.7,14.6,17.7z
		 M14.6,12.6c-1.2,0-2.2,1-2.2,2.2c0,1.2,1,2.2,2.2,2.2s2.2-1,2.2-2.2C16.8,13.6,15.8,12.6,14.6,12.6z"/>
</g>
</svg>
