<?xml version="1.0" encoding="utf-8"?>
<!-- Generator: Adobe Illustrator 24.3.0, SVG Export Plug-In . SVG Version: 6.00 Build 0)  -->
<svg version="1.1" id="Capa_1" xmlns="http://www.w3.org/2000/svg" xmlns:xlink="http://www.w3.org/1999/xlink" x="0px" y="0px"
	 viewBox="0 0 30 30" style="enable-background:new 0 0 30 30;" xml:space="preserve">
<style type="text/css">
	.st0{fill:#006dd9;}
</style>
<g>
	<path class="st0" d="M19,22.9c-0.2,0-0.4,0-0.6,0c-0.4,0-0.7-0.3-0.7-0.7c0-0.3-0.1-0.5-0.3-0.5c-0.4-0.1-0.6-0.1-0.8,0.1
		c-0.1,0.1-0.2,0.3-0.2,0.5c-0.1,0.4-0.2,0.6-0.8,0.7c-0.4,0-0.8,0-1.1,0c-0.5,0-0.7-0.3-0.8-0.7c0-0.4-0.2-0.5-0.6-0.5
		c-0.5,0-0.6,0.2-0.7,0.5c-0.1,0.5-0.3,0.7-0.9,0.7c-0.4,0-0.7,0-1.1,0c-0.4,0-0.7-0.3-0.8-0.7c0-0.2-0.1-0.4-0.3-0.5
		c-0.2-0.1-0.5-0.1-0.7,0c-0.1,0-0.1,0.1-0.1,0.3c0,0.3,0,0.5-0.2,0.7c-0.2,0.2-0.4,0.2-0.7,0.2c0,0,0,0,0,0l-2.3,0
		c-0.5,0-0.8-0.3-0.8-0.7c0-0.8,0-1.6,0-2.3c0-0.5,0.2-0.7,0.7-0.8c0.3,0,0.5-0.2,0.6-0.4c0.1-0.2,0-0.4-0.1-0.6
		c-0.1-0.1-0.3-0.2-0.5-0.2c-0.4-0.1-0.7-0.2-0.7-0.8c0-0.4,0-0.8,0-1.1c0-0.4,0.3-0.7,0.7-0.7c0.4,0,0.6-0.2,0.6-0.5
		c0-0.4-0.1-0.6-0.5-0.7l-0.1,0c-0.1,0-0.3,0-0.4-0.1c-0.2-0.1-0.3-0.4-0.3-0.5c0-0.3,0-0.6,0-0.9l0-0.3c0-0.4,0.3-0.7,0.7-0.7
		c0.2,0,0.4-0.1,0.5-0.2c0.1-0.1,0.1-0.3,0.1-0.5c0-0.3-0.2-0.4-0.5-0.5c-0.6-0.1-0.8-0.3-0.8-0.9l0-2.2c0-0.3,0.1-0.7,0.8-0.7
		c0.8,0,1.7,0,2.5,0c0.4,0,0.7,0.2,0.7,0.7c0,0.3,0.2,0.5,0.4,0.6c0.2,0.1,0.5,0.1,0.7-0.1c0,0,0.1-0.1,0.2-0.4
		c0.1-0.3,0.2-0.7,0.8-0.7c0.4,0,0.7,0,1.1,0c0.5,0,0.7,0.2,0.8,0.7c0,0.3,0.1,0.5,0.4,0.5c0.3,0.1,0.6,0,0.7-0.2
		c0.1-0.1,0.1-0.3,0.1-0.4c0.1-0.4,0.3-0.6,0.7-0.6c0.3,0,0.7,0,1,0l0.1,0c0.6,0,0.8,0.4,0.8,0.7c0,0.3,0.1,0.4,0.3,0.5
		c0.3,0.1,0.7,0.1,0.8-0.2c0,0,0.1-0.1,0.1-0.3c0.1-0.6,0.3-0.8,0.9-0.8c0,0,0,0,0,0H19c0.2,0,0.4,0,0.7,0c0.4,0,0.7,0.3,0.7,0.7
		c0,0.2,0.1,0.4,0.2,0.4c0.2,0.1,0.4,0.2,0.8,0.1c0.2-0.1,0.3-0.2,0.3-0.4c0.1-0.6,0.3-0.8,0.9-0.8c0,0,0,0,0,0H23c0.7,0,1.4,0,2,0
		c0.5,0,0.8,0.3,0.8,0.7c0,0.8,0,1.6,0,2.4c0,0.4-0.2,0.7-0.6,0.7c0,0-0.1,0-0.2,0c-0.1,0-0.1,0-0.2,0c-0.3,0.1-0.4,0.4-0.3,0.8
		c0,0.2,0.1,0.3,0.6,0.4c0.5,0,0.7,0.3,0.7,0.8c0,0.4,0,0.7,0,1.1c0,0.4-0.3,0.7-0.7,0.7c-0.3,0-0.5,0.1-0.5,0.2
		c-0.1,0.3-0.1,0.6,0,0.8c0.1,0.1,0.2,0.2,0.5,0.2c0.5,0.1,0.7,0.3,0.7,0.7c0,0.3,0,0.7,0,1c0,0.5-0.3,0.7-0.7,0.8
		c-0.4,0-0.5,0.2-0.5,0.4c-0.1,0.3,0,0.6,0.2,0.7c0.1,0,0.2,0.1,0.4,0.1c0.5,0.1,0.7,0.3,0.7,0.8c0,0.8,0,1.5,0,2.3
		c0,0.5-0.3,0.8-0.8,0.8c-0.3,0-0.6,0-0.9,0l-0.8,0c-0.3,0-0.6,0-0.9,0c-0.5,0-0.7-0.2-0.8-0.7c0-0.3-0.2-0.5-0.4-0.6
		c-0.2-0.1-0.5-0.1-0.7,0.1c-0.1,0.1-0.2,0.2-0.2,0.4c0,0.5-0.3,0.7-0.8,0.7C19.4,22.9,19.2,22.9,19,22.9z M17,21.2
		c0.2,0,0.4,0,0.6,0.1c0.5,0.2,0.6,0.7,0.6,0.9c0,0.1,0.1,0.2,0.2,0.2c0.4,0,0.8,0,1.2,0c0.2,0,0.2,0,0.3-0.2c0-0.2,0.1-0.6,0.4-0.8
		c0.4-0.3,0.8-0.3,1.2-0.1c0.4,0.2,0.6,0.5,0.7,1c0,0.2,0,0.2,0.3,0.2c0.3,0,0.6,0,0.9,0l0.8,0c0.3,0,0.6,0,0.9,0
		c0.2,0,0.3-0.1,0.3-0.3c0-0.8,0-1.5,0-2.3c0-0.2,0-0.3-0.3-0.3c-0.2,0-0.4-0.1-0.5-0.1c-0.4-0.2-0.6-0.7-0.5-1.3
		c0.1-0.5,0.4-0.7,1-0.8c0.2,0,0.3-0.1,0.3-0.3c0-0.3,0-0.7,0-1c0-0.2,0-0.2-0.3-0.3c-0.3,0-0.7-0.1-0.9-0.4
		c-0.2-0.4-0.3-0.8-0.1-1.3c0.2-0.5,0.7-0.5,0.9-0.5c0.2,0,0.3-0.1,0.3-0.2c0-0.4,0-0.7,0-1.1c0-0.2,0-0.2-0.3-0.3
		c-0.5-0.1-0.9-0.3-1-0.7c-0.2-0.6,0.1-1.2,0.6-1.4c0.1,0,0.2-0.1,0.3-0.1c0,0,0.1,0,0.1,0c0.2,0,0.2-0.1,0.2-0.2c0-0.8,0-1.6,0-2.4
		c0-0.2,0-0.2-0.3-0.2c-0.7,0-1.4,0-2,0h-0.3c0,0,0,0,0,0c-0.4,0-0.4,0-0.4,0.4c0,0.4-0.3,0.7-0.7,0.8C21,8.2,20.6,8.2,20.3,8
		c-0.2-0.1-0.4-0.4-0.4-0.8c0-0.2-0.2-0.2-0.2-0.2c-0.2,0-0.4,0-0.7,0h-0.4c-0.3,0-0.3,0-0.4,0.3c0,0.2-0.1,0.4-0.2,0.5
		c-0.3,0.4-0.8,0.5-1.4,0.3C16.3,8,16,7.7,16,7.2c0-0.2-0.1-0.2-0.3-0.2l-0.1,0c-0.3,0-0.7,0-1,0c-0.2,0-0.2,0-0.2,0.2
		c0,0.2-0.1,0.4-0.2,0.6c-0.2,0.4-0.8,0.6-1.3,0.4c-0.5-0.1-0.8-0.4-0.8-1c0-0.2,0-0.2-0.3-0.2c-0.4,0-0.7,0-1.1,0
		c-0.2,0-0.2,0-0.3,0.3C10.3,7.6,10.2,7.8,10,8C9.6,8.2,9.2,8.3,8.8,8.1c-0.4-0.2-0.6-0.5-0.7-1C8.1,7,8,6.9,7.8,6.9
		c-0.8,0-1.7,0-2.5,0c-0.2,0-0.3,0-0.3,0.2l0,2.2c0,0.3,0,0.3,0.4,0.4c0.5,0,0.9,0.4,0.9,0.9c0,0.4,0,0.7-0.2,0.9
		c-0.2,0.2-0.5,0.3-0.9,0.3c-0.1,0-0.2,0.1-0.2,0.2l0,0.3c0,0.3,0,0.6,0,0.9c0,0,0.1,0.1,0.1,0.2c0,0,0.1,0,0.2,0c0,0,0.1,0,0.1,0
		c0.6,0.1,1,0.5,0.9,1.2c0,0.6-0.4,0.9-1.1,1c-0.2,0-0.2,0.1-0.2,0.2c0,0.4,0,0.8,0,1.1c0,0.2,0,0.2,0.3,0.3c0.2,0,0.6,0.1,0.8,0.4
		c0.3,0.3,0.3,0.7,0.2,1.1c-0.2,0.4-0.5,0.7-1,0.7c-0.3,0-0.3,0.1-0.3,0.3c0,0.8,0,1.6,0,2.3c0,0.2,0,0.2,0.3,0.2l2.3,0
		c0.3,0,0.3,0,0.4,0c0,0,0-0.1,0-0.3c0-0.1,0-0.5,0.4-0.7c0.4-0.2,0.8-0.2,1.2-0.1c0.4,0.2,0.6,0.5,0.6,0.9c0,0.2,0.1,0.2,0.3,0.2
		c0.4,0,0.7,0,1.1,0c0.3,0,0.3,0,0.4-0.3c0.1-0.7,0.5-0.9,1.2-1c0.8,0,1.1,0.5,1.1,1c0,0.2,0.1,0.3,0.3,0.3c0.4,0,0.7,0,1.1,0
		c0.2,0,0.2,0,0.3-0.3c0.1-0.3,0.1-0.6,0.3-0.7C16.4,21.3,16.7,21.2,17,21.2z"/>
	<path class="st0" d="M21.8,20.1H8.9c-0.6,0-1.1-0.5-1.1-1.1v-8.3c0-0.6,0.5-1.1,1.1-1.1h12.9c0.6,0,1.1,0.5,1.1,1.1V19
		C22.8,19.6,22.4,20.1,21.8,20.1z M8.9,10.1c-0.3,0-0.6,0.3-0.6,0.6V19c0,0.3,0.3,0.6,0.6,0.6h12.9c0.3,0,0.6-0.3,0.6-0.6v-8.3
		c0-0.3-0.3-0.6-0.6-0.6H8.9z"/>
</g>
</svg>
