<?xml version="1.0" encoding="utf-8"?>
<!-- Generator: Adobe Illustrator 24.3.0, SVG Export Plug-In . SVG Version: 6.00 Build 0)  -->
<svg version="1.1" id="Capa_1" xmlns="http://www.w3.org/2000/svg" xmlns:xlink="http://www.w3.org/1999/xlink" x="0px" y="0px"
	 viewBox="0 0 30 30" style="enable-background:new 0 0 30 30;" xml:space="preserve">
<style type="text/css">
	.st0{fill:#006dd9;}
</style>
<g>
	<g>
		<g>
			<path class="st0" d="M15.1,25.4c0,0-0.1,0-0.1,0c-0.1,0-0.1-0.1-0.1-0.2V13.4c0-0.1,0-0.2,0.1-0.2l4.6-2.3c0.1,0,0.1,0,0.2,0
				c0.1,0,0.1,0.1,0.1,0.2v11.8c0,0.1,0,0.2-0.1,0.2L15.1,25.4C15.2,25.4,15.1,25.4,15.1,25.4z M15.3,13.5v11.3l4.1-2.1V11.5
				L15.3,13.5z M19.7,22.9L19.7,22.9L19.7,22.9z"/>
			<path class="st0" d="M15.1,25.4C15.1,25.4,15,25.4,15.1,25.4l-4.7-2.3c-0.1,0-0.1-0.1-0.1-0.2V11.1c0-0.1,0-0.1,0.1-0.2
				c0.1,0,0.1,0,0.2,0l4.6,2.3c0.1,0,0.1,0.1,0.1,0.2v11.8c0,0.1,0,0.1-0.1,0.2C15.2,25.4,15.2,25.4,15.1,25.4z M10.8,22.8l4.1,2.1
				V13.5l-4.1-2.1V22.8z"/>
			<path class="st0" d="M15.1,13.6C15.1,13.6,15,13.6,15.1,13.6l-4.7-2.3c-0.1,0-0.1-0.1-0.1-0.2s0-0.2,0.1-0.2L15,8.6
				c0.1,0,0.1,0,0.2,0l4.6,2.3c0.1,0,0.1,0.1,0.1,0.2s0,0.2-0.1,0.2L15.1,13.6C15.2,13.6,15.1,13.6,15.1,13.6z M11,11.1l4.1,2.1
				l4.1-2l-4.1-2.1L11,11.1z"/>
			<g>
				<path class="st0" d="M15.1,13.6C15.1,13.6,15,13.6,15.1,13.6l-4.7-2.3c-0.1,0-0.1-0.1-0.1-0.2c0-0.1,0-0.2,0.1-0.2
					c0.1,0,0.1,0,0.2,0l4.6,2.3c0.1,0,0.1,0.1,0.1,0.2c0,0.1,0,0.2-0.1,0.2C15.2,13.6,15.1,13.6,15.1,13.6z"/>
			</g>
			<g>
				<path class="st0" d="M15.1,13.6c0,0-0.1,0-0.1,0c-0.1,0-0.1-0.1-0.1-0.2v0c0-0.1,0-0.2,0.1-0.2l4.6-2.3c0.1,0,0.1,0,0.2,0
					c0.1,0,0.1,0.1,0.1,0.2c0,0.1,0,0.2-0.1,0.2L15.1,13.6C15.2,13.6,15.1,13.6,15.1,13.6z"/>
			</g>
			<path class="st0" d="M15.1,13.6c-0.1,0-0.2,0-0.2-0.1c0,0,0-0.1,0-0.1c0-0.1,0-0.2,0.1-0.2l4.6-2.3c0.1-0.1,0.2,0,0.3,0.1
				c0,0,0,0.1,0,0.1c0,0.1,0,0.2-0.1,0.2L15.1,13.6C15.2,13.6,15.1,13.6,15.1,13.6z"/>
		</g>
		<path class="st0" d="M13,14.9C13,14.9,12.9,14.9,13,14.9l-0.8-0.4c-0.1,0-0.1-0.1-0.1-0.2V12c0-0.1,0-0.1,0.1-0.2
			c0.1,0,0.1,0,0.2,0l0.7,0.3c0.1,0,0.1,0.1,0.1,0.2v2.4c0,0.1,0,0.1-0.1,0.2C13.1,14.9,13.1,14.9,13,14.9z M12.6,14.3l0.2,0.1v-1.9
			l-0.2-0.1V14.3z"/>
		<path class="st0" d="M13,12.6C13,12.6,12.9,12.6,13,12.6l-0.8-0.4c-0.1,0-0.1-0.1-0.1-0.2c0-0.1,0-0.2,0.1-0.2l4.6-2.3
			c0.1,0,0.1,0,0.2,0l0.7,0.3c0.1,0,0.1,0.1,0.1,0.2c0,0.1,0,0.2-0.1,0.2L13,12.6C13.1,12.6,13,12.6,13,12.6z M12.8,12l0.2,0.1
			l4.1-2L17,10L12.8,12z"/>
	</g>
	<path class="st0" d="M14.9,4c0,1.2,0,2.3,0,3.5c0,0.3,0.4,0.3,0.4,0c0-1.2,0-2.3,0-3.5C15.3,3.8,14.9,3.8,14.9,4L14.9,4z"/>
	<path class="st0" d="M7.5,14.8c-1.2,0-2.3,0-3.5,0c-0.3,0-0.3,0.4,0,0.4c1.2,0,2.3,0,3.5,0C7.8,15.3,7.8,14.8,7.5,14.8L7.5,14.8z"
		/>
	<path class="st0" d="M7.1,7.4c0.7,0.7,1.4,1.4,2,2c0.1,0.1,0.3,0.3,0.4,0.4c0.2,0.2,0.5-0.1,0.3-0.3c-0.7-0.7-1.4-1.4-2-2
		C7.7,7.4,7.6,7.3,7.4,7.1C7.2,6.9,6.9,7.2,7.1,7.4L7.1,7.4z"/>
	<path class="st0" d="M9.6,20.2c-0.7,0.7-1.4,1.4-2,2c-0.1,0.1-0.3,0.3-0.4,0.4c-0.2,0.2,0.1,0.5,0.3,0.3c0.7-0.7,1.4-1.4,2-2
		c0.1-0.1,0.3-0.3,0.4-0.4C10.1,20.3,9.8,20,9.6,20.2L9.6,20.2z"/>
	<path class="st0" d="M10.6,4.9C11.1,6,11.5,7.1,12,8.1c0,0.1,0.1,0.2,0.3,0.1c0.1,0,0.2-0.2,0.1-0.3c-0.4-1.1-0.9-2.1-1.3-3.2
		c0-0.1-0.1-0.2-0.3-0.1C10.7,4.7,10.6,4.8,10.6,4.9L10.6,4.9z"/>
	<path class="st0" d="M8,17.7c-1.1,0.4-2.1,0.9-3.2,1.3c-0.1,0-0.2,0.1-0.1,0.3c0,0.1,0.2,0.2,0.3,0.1C6,19,7.1,18.6,8.1,18.1
		c0.1,0,0.2-0.1,0.1-0.3C8.3,17.8,8.1,17.7,8,17.7L8,17.7z"/>
	<path class="st0" d="M4.8,11c1.1,0.4,2.1,0.9,3.2,1.3c0.1,0,0.2,0,0.3-0.1c0-0.1,0-0.2-0.1-0.3c-1.1-0.4-2.1-0.9-3.2-1.3
		c-0.1,0-0.2,0-0.3,0.1C4.6,10.9,4.7,11,4.8,11L4.8,11z"/>
	<path class="st0" d="M22.2,15.3c1.2,0,2.3,0,3.5,0c0.3,0,0.3-0.4,0-0.4c-1.2,0-2.3,0-3.5,0C22,14.8,22,15.3,22.2,15.3L22.2,15.3z"
		/>
	<path class="st0" d="M20.2,9.9c0.7-0.7,1.4-1.4,2-2c0.1-0.1,0.3-0.3,0.4-0.4c0.2-0.2-0.1-0.5-0.3-0.3c-0.7,0.7-1.4,1.4-2,2
		c-0.1,0.1-0.3,0.3-0.4,0.4C19.7,9.7,20,10,20.2,9.9L20.2,9.9z"/>
	<path class="st0" d="M21.7,12.4c1.1-0.4,2.1-0.9,3.2-1.3c0.1,0,0.2-0.1,0.1-0.3c0-0.1-0.2-0.2-0.3-0.1c-1.1,0.4-2.1,0.9-3.2,1.3
		c-0.1,0-0.2,0.1-0.1,0.3C21.5,12.3,21.6,12.4,21.7,12.4L21.7,12.4z"/>
	<path class="st0" d="M24.9,19.1c-1.1-0.4-2.1-0.9-3.2-1.3c-0.1,0-0.2,0-0.3,0.1c0,0.1,0,0.2,0.1,0.3c1.1,0.4,2.1,0.9,3.2,1.3
		c0.1,0,0.2,0,0.3-0.1C25.1,19.2,25,19.1,24.9,19.1L24.9,19.1z"/>
	<path class="st0" d="M17.8,8.1c0.4-1.1,0.9-2.1,1.3-3.2c0-0.1,0-0.2-0.1-0.3c-0.1,0-0.2,0-0.3,0.1c-0.4,1.1-0.9,2.1-1.3,3.2
		c0,0.1,0,0.2,0.1,0.3C17.6,8.3,17.7,8.2,17.8,8.1L17.8,8.1z"/>
</g>
</svg>
