<?xml version="1.0" encoding="utf-8"?>
<!-- Generator: Adobe Illustrator 24.3.0, SVG Export Plug-In . SVG Version: 6.00 Build 0)  -->
<svg version="1.1" id="Capa_1" xmlns="http://www.w3.org/2000/svg" xmlns:xlink="http://www.w3.org/1999/xlink" x="0px" y="0px"
	 viewBox="0 0 784.6 269" style="enable-background:new 0 0 784.6 269;" xml:space="preserve">
<style type="text/css">
	.st0{fill:#2E68B0;}
	.st1{fill:#FFFFFF;}
</style>
<path class="st0" d="M715.3,197.2H69.1c-34.4,0-62.2-27.9-62.2-62.2v0c0-34.4,27.9-62.2,62.2-62.2h646.3c34.4,0,62.2,27.9,62.2,62.2
	v0C777.6,169.3,749.7,197.2,715.3,197.2z"/>
<g>
	<g>
		<g>
			<g>
				<g>
					<g>
						<path class="st1" d="M98.6,171.4c-0.4,0-0.7-0.1-1-0.4c-0.3-0.4-0.5-0.9-0.3-1.4l4.1-12.2c0.1-0.2,0.2-0.4,0.3-0.5l35-35.6
							c0.2-0.3,0.6-0.4,1-0.4c0,0,0,0,0,0c0.4,0,0.7,0.1,1,0.4l8.7,8.7c0.5,0.5,0.5,1.4,0,1.9l-35.3,35.4c-0.2,0.2-0.4,0.3-0.6,0.3
							L99,171.3C98.9,171.4,98.7,171.4,98.6,171.4z M103.9,158.6l-3.2,9.4l9.7-2.9l34.1-34.2l-6.8-6.8L103.9,158.6z M111.1,166.3
							L111.1,166.3L111.1,166.3z"/>
					</g>
					<g>
						<path class="st1" d="M140.7,138.1c-0.3,0-0.7-0.1-1-0.4l-8.4-8.4c-0.5-0.5-0.5-1.4,0-1.9c0.5-0.5,1.4-0.5,1.9,0l8.4,8.4
							c0.5,0.5,0.5,1.4,0,1.9C141.4,138,141.1,138.1,140.7,138.1z"/>
					</g>
					<g>
						<path class="st1" d="M112.8,166c-0.3,0-0.7-0.1-1-0.4l-8.4-8.4c-0.5-0.5-0.5-1.4,0-1.9c0.5-0.5,1.4-0.5,1.9,0l8.4,8.4
							c0.5,0.5,0.5,1.4,0,1.9C113.5,165.9,113.1,166,112.8,166z"/>
					</g>
				</g>
				<g>
					<path class="st1" d="M92.2,168H72c-3.6,0-6.6-3-6.6-6.6v-43.3c0-3.6,3-6.6,6.6-6.6h34.6v-5.2c0-3.1,2.5-5.6,5.6-5.6h28.2
						c3.1,0,5.6,2.5,5.6,5.6v11.8c0,0.7-0.6,1.3-1.3,1.3s-1.3-0.6-1.3-1.3v-11.8c0-1.6-1.3-2.9-2.9-2.9h-28.2
						c-1.6,0-2.9,1.3-2.9,2.9v6.5c0,0.7-0.6,1.3-1.3,1.3H72c-2.2,0-3.9,1.8-3.9,3.9v43.3c0,2.2,1.8,3.9,3.9,3.9h20.2
						c0.7,0,1.3,0.6,1.3,1.3S93,168,92.2,168z"/>
				</g>
			</g>
			<g>
				<path class="st1" d="M139.5,168H119c-0.7,0-1.3-0.6-1.3-1.3s0.6-1.3,1.3-1.3h20.5c2.2,0,3.9-1.8,3.9-3.9v-18.2
					c0-0.7,0.6-1.3,1.3-1.3s1.3,0.6,1.3,1.3v18.2C146.1,165.1,143.1,168,139.5,168z"/>
			</g>
		</g>
		<g>
			<path class="st1" d="M144.7,114.2h-36.8c-0.7,0-1.3-0.6-1.3-1.3s0.6-1.3,1.3-1.3h36.8c0.7,0,1.3,0.6,1.3,1.3
				S145.5,114.2,144.7,114.2z"/>
		</g>
	</g>
	<g>
		<path class="st1" d="M209.1,158.5v3.4h-35.6v-51.6H208v3.4h-30.7V134h27.5v3.3h-27.5v21.2H209.1z"/>
		<path class="st1" d="M255.2,107.2v54.7h-3.6v-9.1c-1.5,3-3.7,5.3-6.4,6.9c-2.8,1.6-5.9,2.4-9.4,2.4c-3.6,0-6.8-0.8-9.7-2.5
			c-2.9-1.7-5.2-4-6.8-6.9c-1.6-2.9-2.5-6.3-2.5-10.1c0-3.8,0.8-7.2,2.5-10.1c1.6-3,3.9-5.3,6.8-6.9c2.9-1.6,6.1-2.5,9.7-2.5
			c3.4,0,6.5,0.8,9.2,2.4c2.7,1.6,4.9,3.9,6.4,6.8v-25.1H255.2z M244,156.8c2.3-1.4,4.2-3.3,5.5-5.7c1.4-2.5,2-5.3,2-8.4
			c0-3.1-0.7-5.9-2-8.4c-1.4-2.5-3.2-4.4-5.5-5.7c-2.3-1.4-5-2.1-7.9-2.1c-2.9,0-5.6,0.7-7.9,2.1c-2.3,1.4-4.2,3.3-5.5,5.7
			c-1.4,2.5-2,5.3-2,8.4c0,3.1,0.7,5.9,2,8.4c1.4,2.5,3.2,4.4,5.5,5.7c2.3,1.4,5,2.1,7.9,2.1C239,158.8,241.6,158.1,244,156.8z"/>
		<path class="st1" d="M270.5,113.2c-0.6-0.6-0.9-1.3-0.9-2.1c0-0.8,0.3-1.5,0.9-2.1c0.6-0.6,1.3-0.9,2.1-0.9c0.8,0,1.5,0.3,2.1,0.8
			c0.6,0.6,0.9,1.3,0.9,2.1c0,0.8-0.3,1.5-0.9,2.1c-0.6,0.6-1.3,0.9-2.1,0.9C271.8,114,271,113.7,270.5,113.2z M270.7,123.4h3.7
			v38.5h-3.7V123.4z"/>
		<path class="st1" d="M309.1,159.4c-0.9,0.9-2.1,1.6-3.5,2c-1.4,0.5-2.9,0.7-4.4,0.7c-3.3,0-5.9-0.9-7.7-2.8
			c-1.8-1.8-2.7-4.4-2.7-7.7v-25.1h-7.1v-3.2h7.1V115h3.7v8.4h12.2v3.2h-12.2v24.8c0,2.5,0.6,4.4,1.8,5.7c1.2,1.3,3,2,5.3,2
			c2.4,0,4.4-0.7,6-2.1L309.1,159.4z"/>
		<path class="st1" d="M343.3,126.7c2.6,2.4,3.8,6,3.8,10.7v24.4h-3.5V155c-1.2,2.3-3,4-5.4,5.3c-2.4,1.3-5.2,1.9-8.5,1.9
			c-4.3,0-7.7-1-10.1-3c-2.5-2-3.7-4.7-3.7-8c0-3.2,1.1-5.8,3.4-7.8c2.3-2,5.9-3,10.9-3h13.2v-3.1c0-3.6-1-6.3-2.9-8.2
			c-1.9-1.9-4.8-2.8-8.5-2.8c-2.6,0-5,0.4-7.3,1.3c-2.3,0.9-4.3,2.1-5.9,3.5l-1.8-2.7c1.9-1.7,4.2-3.1,6.9-4c2.7-1,5.5-1.4,8.5-1.4
			C337.1,123.1,340.7,124.3,343.3,126.7z M338.4,156.9c2.2-1.5,3.9-3.6,5-6.4v-7.2h-13.1c-3.8,0-6.5,0.7-8.2,2.1
			c-1.7,1.4-2.5,3.3-2.5,5.7c0,2.5,0.9,4.5,2.8,5.9c1.9,1.4,4.5,2.2,7.9,2.2C333.4,159.1,336.1,158.4,338.4,156.9z"/>
		<path class="st1" d="M371.3,125.3c2.5-1.5,5.6-2.2,9.1-2.2v3.6l-0.9-0.1c-4.3,0-7.6,1.3-10,4c-2.4,2.7-3.6,6.4-3.6,11.2v20h-3.7
			v-38.5h3.5v8.4C367,129,368.8,126.8,371.3,125.3z"/>
		<path class="st1" d="M445.2,114.9c3.7,3.1,5.5,7.3,5.5,12.8c0,5.4-1.8,9.6-5.5,12.7c-3.7,3.1-8.8,4.6-15.3,4.6h-14.7v16.9h-3.8
			v-51.6h18.5C436.4,110.3,441.5,111.8,445.2,114.9z M442.5,138c2.9-2.4,4.3-5.8,4.3-10.3c0-4.5-1.4-7.9-4.3-10.4s-7.1-3.6-12.6-3.6
			h-14.7v27.9h14.7C435.4,141.6,439.6,140.4,442.5,138z"/>
		<path class="st1" d="M470.1,125.3c2.5-1.5,5.6-2.2,9.1-2.2v3.6l-0.9-0.1c-4.3,0-7.6,1.3-10,4c-2.4,2.7-3.6,6.4-3.6,11.2v20H461
			v-38.5h3.5v8.4C465.8,129,467.6,126.8,470.1,125.3z"/>
		<path class="st1" d="M494.2,159.6c-2.9-1.7-5.2-4-6.9-7c-1.7-3-2.5-6.3-2.5-10.1c0-3.7,0.8-7.1,2.5-10.1c1.7-3,4-5.3,6.9-7
			c2.9-1.7,6.2-2.5,9.8-2.5c3.6,0,6.9,0.8,9.8,2.5c2.9,1.7,5.2,4,6.9,7c1.7,3,2.5,6.3,2.5,10.1c0,3.7-0.8,7.1-2.5,10.1
			c-1.7,3-4,5.3-6.9,7c-2.9,1.7-6.2,2.5-9.8,2.5C500.4,162.2,497.2,161.3,494.2,159.6z M512,156.8c2.3-1.4,4.2-3.3,5.5-5.7
			c1.4-2.5,2-5.3,2-8.4c0-3.1-0.7-5.9-2-8.4c-1.4-2.5-3.2-4.4-5.5-5.7c-2.3-1.4-5-2.1-7.9-2.1c-2.9,0-5.6,0.7-7.9,2.1
			c-2.3,1.4-4.2,3.3-5.5,5.7c-1.4,2.5-2,5.3-2,8.4c0,3.1,0.7,5.9,2,8.4c1.4,2.5,3.2,4.4,5.5,5.7c2.3,1.4,5,2.1,7.9,2.1
			C507,158.8,509.7,158.1,512,156.8z"/>
		<path class="st1" d="M564.5,123.4l-19.8,43.7c-1.5,3.4-3.2,5.8-5.1,7.2c-1.9,1.4-4.2,2.1-6.9,2.1c-1.8,0-3.4-0.3-5-0.9
			c-1.5-0.6-2.9-1.5-3.9-2.6l1.8-2.8c2,2,4.3,3,7.1,3c1.9,0,3.5-0.5,4.8-1.5c1.3-1,2.6-2.8,3.7-5.3l2.1-4.6L526,123.4h3.9l15.4,34.4
			l15.4-34.4H564.5z"/>
		<path class="st1" d="M603.9,143.5h-33.1c0.1,3,0.9,5.7,2.3,8c1.4,2.3,3.4,4.1,5.8,5.4c2.4,1.3,5.2,1.9,8.2,1.9
			c2.5,0,4.8-0.5,7-1.4c2.1-0.9,3.9-2.2,5.3-4l2.1,2.4c-1.7,2-3.8,3.6-6.3,4.6c-2.5,1.1-5.3,1.6-8.2,1.6c-3.8,0-7.2-0.8-10.2-2.5
			c-3-1.7-5.3-4-7-6.9c-1.7-2.9-2.5-6.3-2.5-10.1c0-3.7,0.8-7.1,2.4-10.1c1.6-3,3.8-5.3,6.6-7c2.8-1.7,5.9-2.5,9.4-2.5
			c3.5,0,6.6,0.8,9.4,2.5c2.8,1.6,5,3.9,6.6,6.9s2.4,6.3,2.4,10L603.9,143.5z M578.4,128.1c-2.2,1.2-3.9,2.9-5.2,5.1
			c-1.3,2.2-2.1,4.7-2.2,7.4h29.5c-0.1-2.8-0.9-5.2-2.2-7.4c-1.3-2.2-3.1-3.9-5.2-5.1c-2.2-1.2-4.6-1.8-7.3-1.8
			C583,126.3,580.5,126.9,578.4,128.1z"/>
		<path class="st1" d="M620.7,159.6c-2.9-1.7-5.3-4-6.9-7c-1.7-3-2.5-6.3-2.5-10.1c0-3.8,0.8-7.2,2.5-10.1c1.7-3,4-5.3,6.9-6.9
			c2.9-1.6,6.3-2.5,10-2.5c3.1,0,5.9,0.6,8.4,1.8c2.5,1.2,4.6,3,6.2,5.3l-2.7,2c-1.4-1.9-3.1-3.4-5.1-4.3c-2-1-4.3-1.4-6.7-1.4
			c-3,0-5.7,0.7-8.1,2c-2.4,1.4-4.3,3.3-5.6,5.7c-1.4,2.5-2,5.3-2,8.5c0,3.2,0.7,6,2,8.5c1.4,2.5,3.2,4.4,5.6,5.7
			c2.4,1.4,5.1,2,8.1,2c2.5,0,4.7-0.5,6.7-1.4c2-1,3.7-2.4,5.1-4.3l2.7,2c-1.6,2.3-3.6,4.1-6.2,5.3c-2.5,1.2-5.3,1.8-8.4,1.8
			C627,162.2,623.6,161.3,620.7,159.6z"/>
		<path class="st1" d="M675.9,159.4c-0.9,0.9-2.1,1.6-3.5,2c-1.4,0.5-2.9,0.7-4.4,0.7c-3.3,0-5.9-0.9-7.7-2.8
			c-1.8-1.8-2.7-4.4-2.7-7.7v-25.1h-7.1v-3.2h7.1V115h3.7v8.4h12.2v3.2h-12.2v24.8c0,2.5,0.6,4.4,1.8,5.7c1.2,1.3,3,2,5.3,2
			c2.4,0,4.4-0.7,6-2.1L675.9,159.4z"/>
		<path class="st1" d="M689.9,159.6c-2.9-1.7-5.2-4-6.9-7c-1.7-3-2.5-6.3-2.5-10.1c0-3.7,0.8-7.1,2.5-10.1c1.7-3,4-5.3,6.9-7
			c2.9-1.7,6.2-2.5,9.8-2.5c3.6,0,6.9,0.8,9.8,2.5c2.9,1.7,5.2,4,6.9,7c1.7,3,2.5,6.3,2.5,10.1c0,3.7-0.8,7.1-2.5,10.1
			c-1.7,3-4,5.3-6.9,7c-2.9,1.7-6.2,2.5-9.8,2.5C696.1,162.2,692.8,161.3,689.9,159.6z M707.7,156.8c2.3-1.4,4.2-3.3,5.5-5.7
			c1.4-2.5,2-5.3,2-8.4c0-3.1-0.7-5.9-2-8.4c-1.4-2.5-3.2-4.4-5.5-5.7c-2.3-1.4-5-2.1-7.9-2.1s-5.6,0.7-7.9,2.1
			c-2.3,1.4-4.2,3.3-5.5,5.7c-1.4,2.5-2,5.3-2,8.4c0,3.1,0.7,5.9,2,8.4c1.4,2.5,3.2,4.4,5.5,5.7c2.3,1.4,5,2.1,7.9,2.1
			S705.3,158.1,707.7,156.8z"/>
	</g>
</g>
<rect x="-45.5" y="110.1" class="st1" width="11.1" height="51.9"/>
</svg>
