<?xml version="1.0" encoding="utf-8"?>
<!-- Generator: Adobe Illustrator 24.0.0, SVG Export Plug-In . SVG Version: 6.00 Build 0)  -->
<svg version="1.1" id="Capa_1" xmlns="http://www.w3.org/2000/svg" xmlns:xlink="http://www.w3.org/1999/xlink" x="0px" y="0px"
	 viewBox="0 0 30 30" style="enable-background:new 0 0 30 30;" xml:space="preserve">
<style type="text/css">
	.st0{fill:#006dd9;}
	.st1{fill:#FFFFFF;}
</style>
<g>
	<circle class="st0" cx="15.2" cy="15.1" r="14.1"/>
	<path class="st1" d="M14.6,16.7l4.9,4.9c0.4,0.4,1,0.4,1.4,0s0.4-1,0-1.4l-4.9-4.9l4.9-4.9c0.4-0.4,0.4-1,0-1.4
		c-0.4-0.4-1-0.4-1.4,0l-4.9,4.9L9.7,9c-0.4-0.4-1-0.4-1.4,0c-0.4,0.4-0.4,1,0,1.4l4.9,4.9l-4.9,4.9c-0.4,0.4-0.4,1,0,1.4
		c0.4,0.4,1,0.4,1.4,0L14.6,16.7L14.6,16.7z"/>
</g>
</svg>
