<?xml version="1.0" encoding="utf-8"?>
<!-- Generator: Adobe Illustrator 24.0.0, SVG Export Plug-In . SVG Version: 6.00 Build 0)  -->
<svg version="1.1" id="Capa_1" xmlns="http://www.w3.org/2000/svg" xmlns:xlink="http://www.w3.org/1999/xlink" x="0px" y="0px"
	 viewBox="0 0 30 30" style="enable-background:new 0 0 30 30;" xml:space="preserve">
<style type="text/css">
	.st0{fill:#006dd9;}
</style>
<path class="st0" d="M28.08,15.59H2.71c-0.25,0-0.45-0.2-0.45-0.45c0-0.25,0.2-0.45,0.45-0.45h25.38c0.25,0,0.45,0.2,0.45,0.45
	C28.53,15.39,28.33,15.59,28.08,15.59z"/>
<path class="st0" d="M15.39,8.39C15.39,8.39,15.39,8.39,15.39,8.39c-0.34,0-0.67-0.16-0.9-0.42l-5.46-6.3
	C8.87,1.48,8.89,1.2,9.08,1.04C9.26,0.88,9.54,0.9,9.71,1.09l5.46,6.3c0.07,0.07,0.14,0.12,0.23,0.12l0,0
	c0.08,0,0.17-0.04,0.23-0.12l5.46-6.3c0.16-0.19,0.44-0.21,0.63-0.05c0.19,0.16,0.21,0.44,0.04,0.63l-5.46,6.3
	C16.06,8.24,15.73,8.39,15.39,8.39z"/>
<path class="st0" d="M9.37,29.35c-0.1,0-0.21-0.04-0.29-0.11c-0.19-0.16-0.21-0.44-0.04-0.63l5.46-6.3c0.23-0.27,0.56-0.42,0.9-0.42
	c0,0,0,0,0,0c0.34,0,0.67,0.15,0.9,0.42l5.46,6.3c0.16,0.19,0.14,0.47-0.04,0.63c-0.19,0.16-0.47,0.14-0.63-0.04l-5.46-6.3
	c-0.06-0.07-0.15-0.12-0.23-0.12l0,0c-0.08,0-0.16,0.04-0.23,0.11l-5.46,6.3C9.62,29.3,9.49,29.35,9.37,29.35z"/>
</svg>
