<?xml version="1.0" encoding="utf-8"?>
<!-- Generator: Adobe Illustrator 24.0.0, SVG Export Plug-In . SVG Version: 6.00 Build 0)  -->
<svg version="1.1" id="Capa_1" xmlns="http://www.w3.org/2000/svg" xmlns:xlink="http://www.w3.org/1999/xlink" x="0px" y="0px"
	 viewBox="0 0 30 30" style="enable-background:new 0 0 30 30;" xml:space="preserve">
<style type="text/css">
	.st0{fill:#006dd9;}
</style>
<g>
	<g>
		<path class="st0" d="M14.92,19.37c-1.24,0-2.42-0.42-3.39-1.22c-1.1-0.91-1.79-2.19-1.93-3.62c-0.14-1.42,0.29-2.81,1.19-3.92
			c1.87-2.28,5.25-2.61,7.53-0.73c1.1,0.91,1.79,2.19,1.93,3.62c0.14,1.42-0.29,2.81-1.19,3.92l0,0c-0.91,1.1-2.19,1.79-3.62,1.93
			C15.27,19.36,15.09,19.37,14.92,19.37z M14.93,9.14c-1.41,0-2.81,0.61-3.78,1.78c-0.83,1.01-1.22,2.28-1.09,3.58
			c0.13,1.3,0.75,2.47,1.76,3.3c1.01,0.83,2.27,1.21,3.58,1.09c1.3-0.13,2.47-0.75,3.3-1.76l0,0c0.83-1.01,1.22-2.28,1.09-3.58
			c-0.13-1.3-0.75-2.47-1.76-3.3C17.12,9.5,16.02,9.14,14.93,9.14z M18.88,17.27L18.88,17.27L18.88,17.27z"/>
		<path class="st0" d="M11.94,16.04c-0.08,0-0.16-0.04-0.2-0.11c-0.65-1.09-0.7-2.41-0.14-3.55c0.06-0.12,0.2-0.16,0.31-0.11
			c0.11,0.06,0.16,0.2,0.1,0.31c-0.48,0.98-0.44,2.17,0.12,3.1c0.07,0.11,0.03,0.25-0.08,0.32C12.02,16.03,11.98,16.04,11.94,16.04z
			"/>
		<path class="st0" d="M14.93,17.74c-0.64,0-1.27-0.16-1.85-0.49c-0.11-0.06-0.15-0.21-0.09-0.32c0.06-0.11,0.21-0.15,0.32-0.09
			c1.04,0.6,2.31,0.57,3.33-0.06c0.11-0.07,0.25-0.03,0.32,0.07c0.07,0.11,0.03,0.25-0.07,0.32C16.29,17.55,15.61,17.74,14.93,17.74
			z"/>
		<path class="st0" d="M17.95,15.98c-0.04,0-0.08-0.01-0.12-0.03c-0.11-0.06-0.15-0.21-0.09-0.32c0.58-1.01,0.57-2.27-0.03-3.27
			c-0.07-0.11-0.03-0.25,0.08-0.32c0.11-0.07,0.25-0.03,0.32,0.08c0.68,1.15,0.7,2.58,0.03,3.74
			C18.11,15.94,18.03,15.98,17.95,15.98z"/>
		<path class="st0" d="M16.7,11.26c-0.04,0-0.08-0.01-0.12-0.03c-0.98-0.58-2.21-0.6-3.22-0.05c-0.11,0.06-0.25,0.02-0.32-0.09
			c-0.06-0.11-0.02-0.25,0.09-0.32c1.15-0.63,2.56-0.61,3.68,0.06c0.11,0.07,0.15,0.21,0.08,0.32
			C16.85,11.21,16.77,11.26,16.7,11.26z"/>
		<path class="st0" d="M7.18,25.01c-0.34,0-0.68-0.11-0.97-0.34l0,0c-0.33-0.26-0.53-0.64-0.57-1.06c-0.04-0.42,0.08-0.83,0.35-1.15
			l3.54-4.27c0.08-0.1,0.23-0.11,0.33-0.03l2.11,1.74c0.05,0.04,0.08,0.1,0.08,0.16c0.01,0.06-0.01,0.12-0.06,0.17l-3.63,4.23
			C8.05,24.83,7.62,25.01,7.18,25.01z M9.73,18.67l-3.39,4.09c-0.19,0.23-0.28,0.51-0.25,0.81c0.03,0.29,0.17,0.56,0.4,0.74l0,0
			c0.46,0.37,1.12,0.31,1.51-0.14l3.48-4.05L9.73,18.67z"/>
		<path class="st0" d="M10.74,21.39c-0.05,0-0.1-0.02-0.15-0.05l-2-1.65c-0.1-0.08-0.11-0.23-0.03-0.33
			c0.08-0.1,0.23-0.11,0.33-0.03l2,1.65c0.1,0.08,0.11,0.23,0.03,0.33C10.87,21.36,10.81,21.39,10.74,21.39z"/>
		<path class="st0" d="M10.19,18.99c-0.05,0-0.1-0.02-0.15-0.05c-0.1-0.08-0.11-0.23-0.03-0.33l0.94-1.15
			c0.08-0.1,0.23-0.11,0.33-0.03c0.1,0.08,0.11,0.23,0.03,0.33l-0.94,1.15C10.32,18.96,10.26,18.99,10.19,18.99z"/>
		<path class="st0" d="M11.38,19.97c-0.05,0-0.1-0.02-0.15-0.05c-0.1-0.08-0.11-0.23-0.03-0.33l0.94-1.14
			c0.08-0.1,0.23-0.11,0.33-0.03c0.1,0.08,0.11,0.23,0.03,0.33l-0.94,1.14C11.51,19.94,11.44,19.97,11.38,19.97z"/>
		<g>
			<path class="st0" d="M11.66,17.34c-0.06,0-0.12-0.02-0.17-0.07c-0.09-0.09-0.08-0.24,0.01-0.33l6.37-6.01
				c0.09-0.09,0.24-0.08,0.33,0.01c0.09,0.09,0.08,0.24-0.01,0.33l-6.37,6C11.78,17.31,11.72,17.34,11.66,17.34z"/>
			<path class="st0" d="M18.02,17.35c-0.06,0-0.12-0.02-0.16-0.06l-6.35-6.03c-0.09-0.09-0.1-0.24-0.01-0.33
				c0.09-0.09,0.24-0.1,0.33-0.01l6.35,6.03c0.09,0.09,0.1,0.24,0.01,0.33C18.15,17.32,18.09,17.35,18.02,17.35z"/>
		</g>
	</g>
	<path class="st0" d="M26.68,27.1H3.17c-0.92,0-1.76-0.51-2.25-1.38c-0.58-1.01-0.56-2.26,0.03-3.25L12.7,2.7
		c0.5-0.83,1.33-1.33,2.23-1.33c0.9,0,1.73,0.5,2.23,1.33L28.9,22.47c0.59,1,0.6,2.24,0.03,3.25C28.44,26.59,27.59,27.1,26.68,27.1z
		 M14.92,1.83c-0.74,0-1.41,0.4-1.82,1.1l0,0L1.35,22.71c-0.51,0.85-0.51,1.92-0.02,2.78c0.41,0.73,1.09,1.14,1.85,1.14h23.5
		c0.76,0,1.43-0.42,1.85-1.14c0.49-0.87,0.48-1.93-0.02-2.78L16.75,2.94C16.33,2.24,15.67,1.83,14.92,1.83z M12.9,2.82L12.9,2.82
		L12.9,2.82z"/>
</g>
</svg>
