<?xml version="1.0" encoding="utf-8"?>
<!-- Generator: Adobe Illustrator 24.0.0, SVG Export Plug-In . SVG Version: 6.00 Build 0)  -->
<svg version="1.1" id="Capa_1" xmlns="http://www.w3.org/2000/svg" xmlns:xlink="http://www.w3.org/1999/xlink" x="0px" y="0px"
	 viewBox="0 0 30 30" style="enable-background:new 0 0 30 30;" xml:space="preserve">
<style type="text/css">
	.st0{fill:#006dd9;}
</style>
<g>
	<path class="st0" d="M25.73,3.67h-0.58c0.01-0.43-0.12-0.85-0.37-1.2c-0.32-0.44-0.79-0.74-1.34-0.84
		c-0.55-0.1-1.11,0.01-1.57,0.33C21.41,2.27,21.1,2.74,21,3.29c-0.02,0.13-0.03,0.25-0.03,0.38h-1.5c0.01-0.43-0.12-0.85-0.37-1.2
		c-0.32-0.44-0.79-0.74-1.34-0.84c-0.55-0.1-1.11,0.01-1.57,0.33c-0.46,0.32-0.77,0.79-0.88,1.34c-0.02,0.13-0.03,0.25-0.03,0.38
		h-1.5c0.01-0.43-0.12-0.85-0.37-1.2c-0.32-0.44-0.79-0.74-1.34-0.84c-0.55-0.1-1.1,0.01-1.57,0.33c-0.46,0.32-0.77,0.79-0.88,1.34
		C9.6,3.42,9.59,3.55,9.59,3.67h-1.5c0.01-0.43-0.12-0.85-0.37-1.2C7.4,2.03,6.93,1.73,6.38,1.63c-0.55-0.1-1.1,0.01-1.57,0.33
		C4.35,2.27,4.04,2.74,3.94,3.29C3.91,3.43,3.9,3.56,3.9,3.69c-1.49,0.1-2.68,1.33-2.68,2.85v18.31c0,1.58,1.29,2.87,2.87,2.87
		h17.02c4.13,0,7.49-3.36,7.49-7.49V6.54C28.6,4.96,27.31,3.67,25.73,3.67z M21.73,3.43c0.07-0.35,0.27-0.66,0.57-0.87
		c0.3-0.2,0.66-0.28,1.01-0.21c0.68,0.13,1.13,0.69,1.11,1.32H21.7C21.71,3.59,21.71,3.51,21.73,3.43z M16.04,3.43
		c0.07-0.35,0.27-0.66,0.57-0.87c0.3-0.2,0.66-0.28,1.01-0.21c0.36,0.07,0.67,0.26,0.88,0.55c0.16,0.23,0.22,0.5,0.21,0.77h-2.69
		C16.02,3.59,16.02,3.51,16.04,3.43z M10.35,3.43c0.07-0.35,0.27-0.66,0.57-0.87c0.3-0.2,0.66-0.28,1.01-0.21
		c0.36,0.07,0.67,0.26,0.88,0.55c0.16,0.23,0.22,0.5,0.21,0.77h-2.69C10.33,3.59,10.33,3.51,10.35,3.43z M5.23,2.56
		c0.3-0.2,0.66-0.28,1.01-0.21C6.6,2.42,6.92,2.62,7.12,2.9c0.16,0.23,0.22,0.5,0.21,0.77H4.64c0-0.08,0.01-0.16,0.02-0.24
		C4.73,3.07,4.93,2.77,5.23,2.56z M4.04,4.42C4.29,5.07,4.86,5.59,5.6,5.73c0.02,0,0.05,0.01,0.07,0.01c0.17,0,0.33-0.12,0.36-0.3
		c0.04-0.2-0.09-0.39-0.29-0.43c-0.38-0.07-0.69-0.3-0.88-0.6h4.87c0.06,0.16,0.13,0.31,0.23,0.45c0.32,0.46,0.79,0.77,1.34,0.88
		c0.02,0,0.05,0.01,0.07,0.01c0.17,0,0.33-0.12,0.36-0.3c0.04-0.2-0.09-0.39-0.29-0.43c-0.38-0.07-0.69-0.3-0.88-0.6h4.87
		c0.06,0.16,0.13,0.31,0.23,0.45c0.32,0.46,0.79,0.77,1.34,0.88c0.02,0,0.05,0.01,0.07,0.01c0.17,0,0.33-0.12,0.36-0.3
		c0.04-0.2-0.09-0.39-0.29-0.43c-0.38-0.07-0.69-0.3-0.88-0.6h4.87c0.25,0.66,0.82,1.18,1.56,1.32c0.02,0,0.05,0.01,0.07,0.01
		c0.17,0,0.33-0.12,0.36-0.3c0.04-0.2-0.1-0.39-0.29-0.43c-0.38-0.07-0.69-0.3-0.88-0.6h3.81c1.17,0,2.13,0.95,2.13,2.13v1.29H1.96
		V6.54C1.96,5.38,2.89,4.44,4.04,4.42z M4.09,26.98c-1.17,0-2.13-0.95-2.13-2.13V8.57h25.9v11.38c-0.41,0.18-1.66,0.63-4.12,0.54
		c-0.36,0.01-0.68,0.13-0.93,0.4c-1.09,1.2-0.71,5.04-0.59,5.99c-0.36,0.06-0.73,0.1-1.11,0.1H4.09z M22.95,26.72
		c-0.21-1.76-0.27-4.58,0.41-5.33c0.11-0.12,0.21-0.17,0.36-0.16c2.14,0.07,3.44-0.23,4.12-0.47
		C27.61,23.61,25.62,25.96,22.95,26.72z"/>
	<path class="st0" d="M20.5,22.26H8.55c-0.2,0-0.37,0.17-0.37,0.37c0,0.2,0.17,0.37,0.37,0.37H20.5c0.2,0,0.37-0.17,0.37-0.37
		C20.87,22.43,20.71,22.26,20.5,22.26z"/>
	<path class="st0" d="M9.01,18.6h10.98c0.2,0,0.37-0.17,0.37-0.37v-5.61c0-0.2-0.17-0.37-0.37-0.37H9.01c-0.2,0-0.37,0.17-0.37,0.37
		v5.61C8.64,18.43,8.81,18.6,9.01,18.6z M9.38,12.99h10.24v4.87H9.38V12.99z"/>
</g>
</svg>
