<?xml version="1.0" encoding="utf-8"?>
<!-- Generator: Adobe Illustrator 24.0.0, SVG Export Plug-In . SVG Version: 6.00 Build 0)  -->
<svg version="1.1" id="Capa_1" xmlns="http://www.w3.org/2000/svg" xmlns:xlink="http://www.w3.org/1999/xlink" x="0px" y="0px"
	 viewBox="0 0 30 30" style="enable-background:new 0 0 30 30;" xml:space="preserve">
<style type="text/css">
	.st0{fill:#006dd9;}
</style>
<g>
	<g>
		<path class="st0" d="M21.37,12.86H8.57c-0.34,0-0.64-0.19-0.78-0.5c-0.14-0.31-0.09-0.66,0.13-0.92l6.08-7.02
			c0.25-0.29,0.6-0.45,0.96-0.45c0,0,0,0,0,0c0.36,0,0.71,0.16,0.96,0.45c0,0,0,0,0,0l6.08,7.02c0.22,0.26,0.27,0.61,0.13,0.92
			C22,12.67,21.71,12.86,21.37,12.86z M14.97,4.84L14.97,4.84c-0.11,0-0.22,0.05-0.3,0.15l-6.08,7.02l12.78-0.03l-6.1-7v0
			C15.19,4.89,15.08,4.84,14.97,4.84z"/>
		<path class="st0" d="M14.97,25.89C14.97,25.89,14.97,25.89,14.97,25.89c-0.36,0-0.71-0.16-0.96-0.45l-6.08-7.02
			c-0.22-0.26-0.27-0.61-0.13-0.92C7.93,17.19,8.23,17,8.57,17h12.79c0.34,0,0.64,0.19,0.78,0.5c0.14,0.31,0.09,0.66-0.13,0.92
			l-6.09,7.02l0,0C15.68,25.73,15.33,25.89,14.97,25.89z M15.6,25.16h0.01H15.6z M21.36,17.85L8.57,17.88l6.1,6.99
			c0.08,0.1,0.19,0.15,0.3,0.15l0,0c0.11,0,0.22-0.05,0.3-0.15L21.36,17.85z"/>
	</g>
	<path class="st0" d="M14.97,29.3C7.05,29.3,0.6,22.85,0.6,14.93c0-7.92,6.45-14.37,14.37-14.37s14.37,6.45,14.37,14.37
		C29.34,22.85,22.89,29.3,14.97,29.3z M14.97,1.44c-7.44,0-13.49,6.05-13.49,13.49c0,7.44,6.05,13.49,13.49,13.49
		s13.49-6.05,13.49-13.49C28.46,7.49,22.41,1.44,14.97,1.44z"/>
</g>
</svg>
