<?xml version="1.0" encoding="utf-8"?>
<!-- Generator: Adobe Illustrator 24.0.0, SVG Export Plug-In . SVG Version: 6.00 Build 0)  -->
<svg version="1.1" id="Capa_1" xmlns="http://www.w3.org/2000/svg" xmlns:xlink="http://www.w3.org/1999/xlink" x="0px" y="0px"
	 viewBox="0 0 30 30" style="enable-background:new 0 0 30 30;" xml:space="preserve">
<style type="text/css">
	.st0{fill:#006dd9;}
</style>
<path class="st0" d="M11.78,25.08c-6.19,0-11.23-5.04-11.23-11.23c0-6.19,5.04-11.23,11.23-11.23s11.23,5.04,11.23,11.23
	c0,0.38-0.02,0.77-0.06,1.15c-0.02,0.17-0.15,0.29-0.34,0.27c-0.17-0.02-0.29-0.17-0.27-0.33c0.04-0.36,0.06-0.72,0.06-1.09
	c0-5.85-4.76-10.62-10.62-10.62c-5.86,0-10.62,4.76-10.62,10.62s4.76,10.62,10.62,10.62c1.82,0,3.61-0.47,5.19-1.35
	c0.14-0.08,0.33-0.03,0.42,0.12c0.08,0.15,0.03,0.33-0.12,0.42C15.6,24.58,13.7,25.08,11.78,25.08z"/>
<g>
	<path class="st0" d="M11.78,13.84c-1.34,0-2.56-0.69-3.26-1.83c-0.36-0.6-0.56-1.28-0.56-1.99c0-2.11,1.71-3.82,3.82-3.82
		c2.11,0,3.82,1.71,3.82,3.82c0,0.7-0.19,1.39-0.56,1.99C14.34,13.15,13.12,13.84,11.78,13.84z M11.78,6.79
		c-1.78,0-3.23,1.45-3.23,3.23c0,0.59,0.16,1.17,0.47,1.68c0.59,0.97,1.62,1.55,2.76,1.55c1.13,0,2.17-0.58,2.76-1.55
		c0.31-0.5,0.47-1.08,0.47-1.68C15,8.24,13.56,6.79,11.78,6.79z"/>
	<path class="st0" d="M17.45,21.49H6.1c-0.08,0-0.17-0.04-0.22-0.1c-0.06-0.06-0.08-0.15-0.07-0.23c0.48-3.79,2.99-6.54,5.97-6.54
		c2.97,0,5.48,2.75,5.97,6.54c0.01,0.08-0.02,0.17-0.07,0.23C17.62,21.46,17.54,21.49,17.45,21.49z M6.45,20.9h10.66
		c-0.54-3.32-2.75-5.69-5.33-5.69C9.19,15.21,6.99,17.58,6.45,20.9z"/>
</g>
<path class="st0" d="M23.68,27.58c-3.27,0-5.93-2.66-5.93-5.93s2.66-5.93,5.93-5.93s5.93,2.66,5.93,5.93S26.95,27.58,23.68,27.58z
	 M23.68,16.33c-2.93,0-5.32,2.39-5.32,5.32s2.39,5.32,5.32,5.32S29,24.58,29,21.65S26.62,16.33,23.68,16.33z"/>
<path class="st0" d="M21.81,25.16c-0.16,0-0.33-0.05-0.46-0.15c-0.25-0.18-0.36-0.47-0.31-0.77l0.28-1.6
	c0.01-0.06-0.01-0.12-0.05-0.16l-1.17-1.14c-0.22-0.21-0.29-0.52-0.2-0.81c0.09-0.29,0.34-0.49,0.64-0.54l1.61-0.23
	c0.06-0.01,0.11-0.05,0.13-0.1L23,18.2c0.14-0.27,0.41-0.44,0.71-0.44c0,0,0,0,0,0c0.3,0,0.57,0.17,0.71,0.44l0.72,1.46
	c0.03,0.05,0.08,0.09,0.13,0.1l1.61,0.23c0.3,0.04,0.54,0.25,0.64,0.54c0.09,0.29,0.02,0.6-0.2,0.81l-1.17,1.14
	c-0.04,0.04-0.06,0.1-0.05,0.16l0.28,1.6c0.05,0.3-0.07,0.59-0.31,0.77c-0.25,0.18-0.57,0.2-0.83,0.06l-1.44-0.76
	c-0.05-0.03-0.11-0.03-0.16,0l-1.44,0.76C22.06,25.13,21.94,25.16,21.81,25.16z M23.7,18.37c-0.03,0-0.11,0.01-0.16,0.1l-0.72,1.46
	c-0.12,0.23-0.34,0.4-0.6,0.43l-1.61,0.23c-0.1,0.01-0.13,0.09-0.14,0.12c-0.01,0.03-0.03,0.11,0.05,0.18l1.17,1.14
	c0.19,0.18,0.27,0.44,0.23,0.7l-0.28,1.6c-0.02,0.1,0.04,0.15,0.07,0.17c0.03,0.02,0.1,0.06,0.19,0.01l1.44-0.76
	c0.23-0.12,0.51-0.12,0.73,0l1.44,0.76c0.09,0.04,0.16,0.01,0.19-0.01c0.03-0.02,0.09-0.08,0.07-0.17l-0.28-1.61
	c-0.04-0.26,0.04-0.52,0.23-0.7l1.17-1.14c0.07-0.07,0.06-0.15,0.05-0.18c-0.01-0.03-0.05-0.11-0.14-0.12l-1.61-0.23
	c-0.26-0.04-0.48-0.2-0.59-0.43l-0.72-1.46l0,0C23.82,18.38,23.74,18.37,23.7,18.37L23.7,18.37z"/>
</svg>
