<?xml version="1.0" encoding="utf-8"?>
<!-- Generator: Adobe Illustrator 24.0.0, SVG Export Plug-In . SVG Version: 6.00 Build 0)  -->
<svg version="1.1" id="Capa_1" xmlns="http://www.w3.org/2000/svg" xmlns:xlink="http://www.w3.org/1999/xlink" x="0px" y="0px"
	 viewBox="0 0 30 30" style="enable-background:new 0 0 30 30;" xml:space="preserve">
<style type="text/css">
	.st0{fill:#006dd9;}
</style>
<g>
	<path class="st0" d="M24.43,9.64H5.64c-0.18,0-0.33-0.15-0.33-0.33s0.15-0.33,0.33-0.33h18.79c0.18,0,0.33,0.15,0.33,0.33
		S24.61,9.64,24.43,9.64z"/>
	<path class="st0" d="M24.43,14.93H5.64c-0.18,0-0.33-0.15-0.33-0.33s0.15-0.33,0.33-0.33h18.79c0.18,0,0.33,0.15,0.33,0.33
		S24.61,14.93,24.43,14.93z"/>
	<path class="st0" d="M24.43,20.22H5.64c-0.18,0-0.33-0.15-0.33-0.33s0.15-0.33,0.33-0.33h18.79c0.18,0,0.33,0.15,0.33,0.33
		S24.61,20.22,24.43,20.22z"/>
	<path class="st0" d="M19.5,5.91c-0.09,0-0.18-0.04-0.25-0.11l-4.04-4.66c-0.1-0.11-0.24-0.11-0.34,0L10.83,5.8
		c-0.12,0.14-0.33,0.15-0.47,0.03c-0.14-0.12-0.15-0.33-0.03-0.47l4.04-4.66c0.35-0.4,0.99-0.4,1.34,0l4.04,4.66
		c0.12,0.14,0.11,0.35-0.03,0.47C19.65,5.89,19.57,5.91,19.5,5.91z"/>
	<path class="st0" d="M15.04,29.36c-0.25,0-0.5-0.11-0.67-0.31l-4.04-4.66c-0.12-0.14-0.1-0.35,0.03-0.47
		c0.14-0.12,0.35-0.1,0.47,0.03l4.04,4.66c0.09,0.11,0.24,0.11,0.34,0l4.04-4.66c0.12-0.14,0.33-0.15,0.47-0.03
		c0.14,0.12,0.15,0.33,0.03,0.47l-4.04,4.66C15.53,29.25,15.29,29.36,15.04,29.36z"/>
</g>
</svg>
