<?xml version="1.0" encoding="utf-8"?>
<!-- Generator: Adobe Illustrator 24.0.0, SVG Export Plug-In . SVG Version: 6.00 Build 0)  -->
<svg version="1.1" id="Capa_1" xmlns="http://www.w3.org/2000/svg" xmlns:xlink="http://www.w3.org/1999/xlink" x="0px" y="0px"
	 viewBox="0 0 30 30" style="enable-background:new 0 0 30 30;" xml:space="preserve">
<style type="text/css">
	.st0{fill:#1C87A0;}
	.st1{fill:#FFFFFF;}
	.st2{fill:#F26608;}
</style>
<g>
	<circle class="st0" cx="12.06" cy="14.01" r="11.1"/>
	<g>
		<path class="st1" d="M12.06,14.07c-1.39,0-2.65-0.71-3.38-1.9c-0.38-0.62-0.58-1.33-0.58-2.06c0-2.18,1.77-3.95,3.95-3.95
			s3.95,1.77,3.95,3.95c0,0.73-0.2,1.44-0.58,2.06C14.72,13.36,13.45,14.07,12.06,14.07z M12.06,6.91c-1.77,0-3.21,1.44-3.21,3.21
			c0,0.59,0.16,1.17,0.47,1.67c0.59,0.96,1.61,1.54,2.74,1.54s2.15-0.58,2.74-1.54c0.31-0.5,0.47-1.08,0.47-1.67
			C15.27,8.35,13.83,6.91,12.06,6.91z"/>
		<path class="st1" d="M17.83,21.86H6.29c-0.11,0-0.21-0.05-0.28-0.13c-0.07-0.08-0.1-0.19-0.09-0.29c0.5-3.89,3.08-6.71,6.14-6.71
			c3.06,0,5.64,2.82,6.14,6.71c0.01,0.11-0.02,0.21-0.09,0.29C18.04,21.81,17.93,21.86,17.83,21.86z M6.73,21.11h10.66
			c-0.57-3.29-2.76-5.64-5.33-5.64C9.49,15.47,7.3,17.82,6.73,21.11z"/>
	</g>
</g>
<circle class="st2" cx="23.74" cy="21.84" r="5.72"/>
<path class="st1" d="M24.2,18.47l0.73,1.48c0.07,0.14,0.21,0.25,0.37,0.27l1.64,0.24c0.4,0.06,0.56,0.55,0.27,0.84l-1.18,1.15
	c-0.12,0.11-0.17,0.28-0.14,0.43l0.28,1.63c0.07,0.4-0.35,0.71-0.71,0.52l-1.46-0.77c-0.14-0.08-0.31-0.08-0.46,0l-1.46,0.77
	c-0.36,0.19-0.78-0.12-0.71-0.52l0.28-1.63c0.03-0.16-0.03-0.32-0.14-0.43l-1.18-1.15c-0.29-0.28-0.13-0.78,0.27-0.84l1.64-0.24
	c0.16-0.02,0.3-0.12,0.37-0.27l0.73-1.48C23.5,18.11,24.02,18.11,24.2,18.47z"/>
</svg>
