<?xml version="1.0" encoding="utf-8"?>
<!-- Generator: Adobe Illustrator 25.0.0, SVG Export Plug-In . SVG Version: 6.00 Build 0)  -->
<svg version="1.1" id="Capa_1" xmlns="http://www.w3.org/2000/svg" xmlns:xlink="http://www.w3.org/1999/xlink" x="0px" y="0px"
	 viewBox="0 0 600 600" style="enable-background:new 0 0 600 600;" xml:space="preserve">
<style type="text/css">
	.st0{fill:#FFFFFF;}
</style>
<g>
	<g>
		<g>
			<path class="st0" d="M71,133.8c-2.3,0-4.5-1-6-2.9c-2.7-3.3-2.2-8.3,1.1-11C125.6,71,200.8,44.1,277.9,44.1
				c76.6,0,151.4,26.6,210.7,74.8c3.4,2.7,3.9,7.7,1.1,11c-2.7,3.4-7.7,3.8-11,1.1c-56.5-46-127.8-71.3-200.8-71.3
				c-73.5,0-145.2,25.6-201.9,72.2C74.5,133.3,72.7,133.8,71,133.8z"/>
			<path class="st0" d="M490,142.9c-0.1,0-0.2,0-0.4,0l-55.8-2.6c-4.3-0.2-7.7-3.8-7.4-8.2c0.2-4.3,3.8-7.7,8.2-7.4l48.2,2.2
				l2.9-44.8c0.3-4.3,3.7-7.5,8.3-7.3c4.3,0.3,7.6,4,7.3,8.3l-3.3,52.5C497.6,139.7,494.1,142.9,490,142.9z"/>
		</g>
		<g>
			<path class="st0" d="M286.5,565.7c-76.6,0-151.4-26.6-210.6-74.8c-3.4-2.7-3.9-7.7-1.1-11c2.7-3.4,7.7-3.8,11-1.1
				c56.5,46,127.8,71.3,200.8,71.3c73.5,0,145.2-25.6,201.9-72.2c3.3-2.7,8.2-2.3,11,1.1c2.7,3.3,2.3,8.3-1.1,11
				C438.9,538.8,363.7,565.7,286.5,565.7z"/>
			<path class="st0" d="M71,535.2c-0.2,0-0.3,0-0.5,0c-4.3-0.3-7.6-4-7.3-8.3l3.4-52.5c0.3-4.2,3.5-8,8.2-7.3l55.8,2.6
				c4.3,0.2,7.7,3.8,7.4,8.2c-0.2,4.3-3.9,7.8-8.2,7.4L81.6,483l-2.9,44.8C78.5,532,75.1,535.2,71,535.2z"/>
		</g>
	</g>
	<g>
		<path class="st0" d="M301.1,272.5c-0.9,0-1.8-0.2-2.7-0.5l-61.3-22.6c-4.1-1.5-6.1-6-4.6-10s6-6.1,10-4.6l58.6,21.6l134.8-49.2
			l-133.9-50l-135.4,51.1l37.3,14.3c4,1.5,6,6.1,4.5,10.1c-1.6,4-6,6.1-10.1,4.5l-56.5-21.7c-3-1.2-5-4.1-5-7.3c0-3.3,2-6.2,5.1-7.3
			l157.4-59.4c1.8-0.7,3.7-0.7,5.5,0l156.4,58.4c3.1,1.1,5.1,4.1,5.1,7.4s-2.1,6.2-5.1,7.3L303.8,272
			C302.9,272.3,302,272.5,301.1,272.5z"/>
		<path class="st0" d="M301.6,461.2c-0.9,0-1.9-0.2-2.7-0.5L140,401.1c-3.1-1.1-5.1-4.1-5.1-7.3V211.9c0-4.3,3.5-7.8,7.8-7.8
			s7.8,3.5,7.8,7.8v176.4L293.7,442V265.8c0-4.3,3.5-7.8,7.8-7.8s7.8,3.5,7.8,7.8v187.5c0,2.6-1.3,5-3.4,6.4
			C304.7,460.7,303.1,461.2,301.6,461.2z"/>
		<path class="st0" d="M235.1,312.1c-0.9,0-1.8-0.2-2.7-0.5l-33.9-12.2c-3.1-1.1-5.2-4.1-5.2-7.5l0.9-62.2c0-3.1,2-6,4.9-7.1
			l61.3-24.5c1.9-0.8,4-0.8,5.9,0l29.2,12.2c2.9,1.2,4.7,4,4.8,7.1c0,3.1-1.8,6-4.6,7.2c-13.3,6-41,18.4-52.9,23.5v56.1
			c0,2.6-1.2,4.9-3.3,6.4C238.3,311.6,236.7,312.1,235.1,312.1z M209.1,286.5l18.2,6.6V243c0-3.4,2.2-6.4,5.3-7.4
			c2.1-0.8,21.9-9.6,40.3-17.8l-9.6-4l-53.4,21.4L209.1,286.5z"/>
		<g>
			<path class="st0" d="M35.8,385.1c-4.3,0-7.8-3.5-7.8-7.8V189.7c0-4.3,3.5-7.8,7.8-7.8s7.8,3.5,7.8,7.8v187.5
				C43.6,381.6,40.1,385.1,35.8,385.1z"/>
			<g>
				<path class="st0" d="M37.7,197.6c-3.2,0-6.2-2-7.3-5.1c-1.5-4.1,0.6-8.6,4.7-10L192.5,125c4.1-1.5,8.6,0.6,10,4.7
					c1.5,4.1-0.6,8.6-4.7,10L40.3,197.1C39.5,197.4,38.5,197.6,37.7,197.6z"/>
			</g>
			<path class="st0" d="M196,178.4c-4.3,0-7.8-3.5-7.8-7.8v-38.3c0-4.3,3.5-7.8,7.8-7.8s7.8,3.5,7.8,7.8v38.3
				C203.8,174.9,200.3,178.4,196,178.4z"/>
			<g>
				<path class="st0" d="M36.7,385.1c-3.2,0-6.2-2-7.3-5.1c-1.5-4.1,0.6-8.6,4.7-10l81.4-29.7c4.1-1.5,8.5,0.6,10,4.7
					s-0.6,8.6-4.7,10l-81.4,29.7C38.5,384.9,37.6,385.1,36.7,385.1z"/>
			</g>
		</g>
		<g>
			<g>
				<path class="st0" d="M301.1,272.5c-3.2,0-6.2-2-7.3-5.1c-1.5-4.1,0.6-8.6,4.7-10l157.4-57.5c4.1-1.5,8.6,0.6,10,4.7
					c1.5,4.1-0.6,8.6-4.7,10L303.8,272C302.9,272.3,302,272.5,301.1,272.5z"/>
			</g>
			<path class="st0" d="M458.5,253.3c-4.3,0-7.8-3.5-7.8-7.8v-38.3c0-4.3,3.5-7.8,7.8-7.8s7.8,3.5,7.8,7.8v38.3
				C466.3,249.8,462.8,253.3,458.5,253.3z"/>
			<g>
				<path class="st0" d="M301.8,461.3c-3.2,0-6.2-2-7.3-5.1c-1.5-4.1,0.6-8.6,4.7-10l81.4-29.7c4.1-1.5,8.6,0.6,10,4.7
					c1.5,4.1-0.6,8.6-4.7,10l-81.4,29.7C303.7,461.1,302.7,461.3,301.8,461.3z"/>
			</g>
		</g>
		<path class="st0" d="M405.5,485.5c-1.6,0-3.1-0.5-4.5-1.4c-2.1-1.5-3.4-3.8-3.4-6.4V291.1c0-3.3,2-6.2,5.1-7.3L558.1,226
			c2.4-0.9,5.1-0.6,7.2,0.9c2.1,1.5,3.4,3.8,3.4,6.4v186.6c0,3.3-2,6.2-5.1,7.3L408.2,485C407.3,485.3,406.4,485.5,405.5,485.5z
			 M413.3,296.5v169.9L553,414.5V244.6L413.3,296.5z M560.9,419.9h0.2H560.9z"/>
	</g>
</g>
</svg>
