<svg id="Capa_1" data-name="Capa 1" xmlns="http://www.w3.org/2000/svg" viewBox="0 0 400 400"><defs><style>.cls-1{fill:#006dd9;}</style></defs><path class="cls-1" d="M289.27,362.62h-36a3.77,3.77,0,0,1,0-7.53h36a13.92,13.92,0,0,0,13.91-13.9V172.34l-65.71-66.22H214.18a3.77,3.77,0,1,1,0-7.53H239a3.75,3.75,0,0,1,2.68,1.12l67.9,68.44a3.8,3.8,0,0,1,1.09,2.65V341.19A21.46,21.46,0,0,1,289.27,362.62Z"/><path class="cls-1" d="M266.91,362.62H120.37a21.46,21.46,0,0,1-21.43-21.43V120a21.45,21.45,0,0,1,21.43-21.42h14.72a3.77,3.77,0,0,1,0,7.53H120.37A13.91,13.91,0,0,0,106.47,120V341.19a13.92,13.92,0,0,0,13.9,13.9H266.91a3.77,3.77,0,1,1,0,7.53Z"/><path class="cls-1" d="M307.07,183.56H247.46A20.5,20.5,0,0,1,227,163.1V102.36a3.78,3.78,0,0,1,3.77-3.77c2.24,0,8.24-.15,8.25-.15a4.93,4.93,0,0,1,2.76,1.11l68,68a3.77,3.77,0,0,1,1.1,2.66v9.61A3.78,3.78,0,0,1,307.07,183.56Zm-72.54-77.48v57A12.93,12.93,0,0,0,247.46,176h55.85v-4.28L237.57,106Z"/><path class="cls-1" d="M186.65,240.08a3.8,3.8,0,0,1-.7,5.43,3.74,3.74,0,0,1-2.36.87,4,4,0,0,1-3.06-1.5l-15.25-19.41-16,19.64a3.92,3.92,0,0,1-3.06,1.5,3.93,3.93,0,0,1-3.07-6.28l17.14-21.23-17-21.07a3.9,3.9,0,0,1,.71-5.51,3.81,3.81,0,0,1,5.42.72l15.81,19.49,15.49-19.49a3.8,3.8,0,0,1,5.41-.72,3.89,3.89,0,0,1,.71,5.51L170.23,219.1Z"/><path class="cls-1" d="M227.6,242.68a3.94,3.94,0,0,1-3.93,3.93H196.32a3.9,3.9,0,0,1-3.94-3.93v-47a3.89,3.89,0,0,1,3.94-3.92,3.94,3.94,0,0,1,3.93,3.92v43.1h23.42A3.93,3.93,0,0,1,227.6,242.68Z"/><path class="cls-1" d="M260.7,230.89a15.73,15.73,0,1,1-31.45,0,3.94,3.94,0,0,1,7.87,0A7.86,7.86,0,1,0,245,223,15.73,15.73,0,1,1,260.7,207.3a3.93,3.93,0,0,1-7.86,0,7.86,7.86,0,1,0-7.87,7.87A15.76,15.76,0,0,1,260.7,230.89Z"/><path class="cls-1" d="M175.63,274.63H140.82a1.88,1.88,0,0,1-1.88-1.89V260.22a1.88,1.88,0,0,1,1.88-1.88h34.81a1.88,1.88,0,0,1,1.89,1.88v12.52A1.88,1.88,0,0,1,175.63,274.63Zm-32.92-3.77h31v-8.75h-31Z"/><path class="cls-1" d="M219.79,274.63H185a1.88,1.88,0,0,1-1.88-1.89V260.22a1.88,1.88,0,0,1,1.88-1.88h34.83a1.88,1.88,0,0,1,1.88,1.88v12.52A1.88,1.88,0,0,1,219.79,274.63Zm-32.95-3.77H217.9v-8.75H186.84Z"/><path class="cls-1" d="M263.2,274.63H228.39a1.88,1.88,0,0,1-1.88-1.89V260.22a1.88,1.88,0,0,1,1.88-1.88H263.2a1.88,1.88,0,0,1,1.89,1.88v12.52A1.88,1.88,0,0,1,263.2,274.63Zm-32.92-3.77h31v-8.75h-31Z"/><path class="cls-1" d="M175.63,294.16H140.82a1.87,1.87,0,0,1-1.88-1.88v-12.5a1.88,1.88,0,0,1,1.88-1.89h34.81a1.88,1.88,0,0,1,1.89,1.89v12.5A1.87,1.87,0,0,1,175.63,294.16Zm-32.92-3.76h31v-8.74h-31Z"/><path class="cls-1" d="M219.79,294.16H185a1.87,1.87,0,0,1-1.88-1.88v-12.5a1.88,1.88,0,0,1,1.88-1.89h34.83a1.88,1.88,0,0,1,1.88,1.89v12.5A1.87,1.87,0,0,1,219.79,294.16Zm-32.95-3.76H217.9v-8.74H186.84Z"/><path class="cls-1" d="M263.2,294.16H228.39a1.87,1.87,0,0,1-1.88-1.88v-12.5a1.88,1.88,0,0,1,1.88-1.89H263.2a1.88,1.88,0,0,1,1.89,1.89v12.5A1.87,1.87,0,0,1,263.2,294.16Zm-32.92-3.76h31v-8.74h-31Z"/><path class="cls-1" d="M175.63,313.86H140.82a1.87,1.87,0,0,1-1.88-1.88v-12.5a1.88,1.88,0,0,1,1.88-1.89h34.81a1.88,1.88,0,0,1,1.89,1.89V312A1.87,1.87,0,0,1,175.63,313.86Zm-32.92-3.76h31v-8.74h-31Z"/><path class="cls-1" d="M219.79,313.86H185a1.87,1.87,0,0,1-1.88-1.88v-12.5a1.88,1.88,0,0,1,1.88-1.89h34.83a1.88,1.88,0,0,1,1.88,1.89V312A1.87,1.87,0,0,1,219.79,313.86Zm-32.95-3.76H217.9v-8.74H186.84Z"/><path class="cls-1" d="M263.2,313.86H228.39a1.87,1.87,0,0,1-1.88-1.88v-12.5a1.88,1.88,0,0,1,1.88-1.89H263.2a1.88,1.88,0,0,1,1.89,1.89V312A1.87,1.87,0,0,1,263.2,313.86Zm-32.92-3.76h31v-8.74h-31Z"/><path class="cls-1" d="M151.37,136.2a3.76,3.76,0,0,1-3.76-3.76l-.17-50.14-22.36.14c-1.82-.21-2.84-.84-3.46-2.2a3.77,3.77,0,0,1,.59-4l50.42-57.75a3.77,3.77,0,0,1,2.83-1.29h0a3.78,3.78,0,0,1,2.83,1.26L229,75.79a3.77,3.77,0,0,1-2.83,6.26l-22.48,0,.17,50.14a3.77,3.77,0,0,1-3.76,3.78h0a3.76,3.76,0,0,1-3.77-3.75l-.17-53.92a3.81,3.81,0,0,1,1.1-2.68,3.74,3.74,0,0,1,2.66-1.1l17.91,0L175.49,26.63,133.38,74.84l17.79-.1h0A3.77,3.77,0,0,1,155,78.49l.18,53.92a3.77,3.77,0,0,1-3.75,3.79Z"/></svg>