<?xml version="1.0" encoding="utf-8"?>
<!-- Generator: Adobe Illustrator 24.0.0, SVG Export Plug-In . SVG Version: 6.00 Build 0)  -->
<svg version="1.1" id="Capa_1" xmlns="http://www.w3.org/2000/svg" xmlns:xlink="http://www.w3.org/1999/xlink" x="0px" y="0px"
	 viewBox="0 0 30 30" style="enable-background:new 0 0 30 30;" xml:space="preserve">
<style type="text/css">
	.st0{fill:#15589b;}
</style>
<g>
	<path class="st0" d="M24.2,2.37h-4.23V1.99c0-0.83-0.66-1.51-1.47-1.51h-5.92c-0.81,0-1.47,0.68-1.47,1.51v0.38H6.88
		c-1.34,0-2.43,0.97-2.43,2.16v2.11c0,0.22,0.17,0.39,0.39,0.39h0.68v20.01c0,1.2,0.98,2.18,2.18,2.18h15.68
		c1.2,0,2.18-0.98,2.18-2.18V7.03h0.68c0.21,0,0.39-0.17,0.39-0.39V4.54C26.63,3.34,25.54,2.37,24.2,2.37z M11.89,1.99
		c0-0.4,0.31-0.73,0.69-0.73h5.92c0.38,0,0.69,0.33,0.69,0.73v0.35h-7.3V1.99z M24.78,27.04c0,0.77-0.63,1.4-1.4,1.4H7.7
		c-0.77,0-1.4-0.63-1.4-1.4V7.04h18.49V27.04z M25.85,6.26H5.22V4.54c0-0.76,0.74-1.39,1.65-1.39H24.2c0.91,0,1.65,0.62,1.65,1.39
		V6.26z"/>
	<path class="st0" d="M10.94,24.37c0.22,0,0.39-0.17,0.39-0.39V11.12c0-0.22-0.17-0.39-0.39-0.39s-0.39,0.17-0.39,0.39v12.86
		C10.55,24.2,10.73,24.37,10.94,24.37z"/>
	<path class="st0" d="M15.66,24.37c0.22,0,0.39-0.17,0.39-0.39V11.12c0-0.22-0.17-0.39-0.39-0.39c-0.22,0-0.39,0.17-0.39,0.39v12.86
		C15.27,24.2,15.45,24.37,15.66,24.37z"/>
	<path class="st0" d="M20.39,24.37c0.21,0,0.39-0.17,0.39-0.39V11.12c0-0.22-0.17-0.39-0.39-0.39S20,10.91,20,11.12v12.86
		C20,24.2,20.17,24.37,20.39,24.37z"/>
</g>
</svg>
