<svg id="Capa_1" data-name="Capa 1" xmlns="http://www.w3.org/2000/svg" viewBox="0 0 400 400"><defs><style>.cls-1{fill:#006dd9;}</style></defs><path class="cls-1" d="M305.76,209.87a61.37,61.37,0,0,1-24.17-4.94,3.83,3.83,0,1,1,3-7.05,54.7,54.7,0,0,0,25,4.21A54.47,54.47,0,1,0,254.06,131a3.89,3.89,0,0,1-4.83,2.46,3.85,3.85,0,0,1-2.47-4.82A61.87,61.87,0,0,1,301.7,85.78a62.11,62.11,0,0,1,66.15,57.76,62.16,62.16,0,0,1-57.75,66.18C308.65,209.82,307.21,209.87,305.76,209.87Z"/><path class="cls-1" d="M159.77,198a3.81,3.81,0,0,1-1.33-.24L118,182.84a3.82,3.82,0,1,1,2.66-7.17l39.09,14.42,92.81-33.9-92.19-34.43L67.3,156.89l27.94,10.7a3.83,3.83,0,0,1-2.75,7.15L55.16,160.43a3.83,3.83,0,0,1,0-7.16L159.05,114.1a3.83,3.83,0,0,1,2.69,0L265,152.65a3.85,3.85,0,0,1,2.48,3.6,3.79,3.79,0,0,1-2.51,3.57L161.08,197.76A3.74,3.74,0,0,1,159.77,198Z"/><path class="cls-1" d="M158.53,321.75a3.7,3.7,0,0,1-1.35-.24L54,283a3.84,3.84,0,0,1-2.48-3.59v-120a3.83,3.83,0,1,1,7.65,0V276.71l95.58,35.7V194.17a3.83,3.83,0,1,1,7.65,0V317.92a3.8,3.8,0,0,1-1.64,3.14A3.86,3.86,0,0,1,158.53,321.75Z"/><path class="cls-1" d="M161.63,322.38a3.83,3.83,0,0,1-1.34-7.42L261,277.18V157.49a3.83,3.83,0,1,1,7.65,0V279.82a3.84,3.84,0,0,1-2.48,3.59L163,322.14A4,4,0,0,1,161.63,322.38Z"/><path class="cls-1" d="M134.83,163.27l.09,0c-10.24,4.56-19.84,8.82-21.09,9.3a7.65,7.65,0,0,0-5.24,7.26v29.52l-7-2.53.46-30.48,32.78-13.11m.07-8.27L94.48,171.17l-.62,41,22.38,8.08V179.87c1.87-.62,37.94-16.79,37.94-16.79L134.9,155Z"/><path class="cls-1" d="M299.5,176.52a3.83,3.83,0,0,1-2.87-1.3l-16.56-18.78a3.82,3.82,0,0,1,5.74-5.05l12.54,14.2c4.48-9.94,15.2-30.7,32.09-45.9a3.82,3.82,0,1,1,5.11,5.68c-21.09,19-32.36,48.38-32.48,48.67a3.82,3.82,0,0,1-2.88,2.42A4.11,4.11,0,0,1,299.5,176.52Z"/></svg>