<svg id="Capa_1" data-name="Capa 1" xmlns="http://www.w3.org/2000/svg" viewBox="0 0 400 400"><defs><style>.cls-1{fill:#006dd9;}</style></defs><path class="cls-1" d="M91.08,87.57a4.24,4.24,0,0,1-2.68-7.52,176.57,176.57,0,0,1,223.32-.52,4.25,4.25,0,0,1-5.37,6.59,168.06,168.06,0,0,0-212.58.48A4.2,4.2,0,0,1,91.08,87.57Z"/><path class="cls-1" d="M312.47,92.34h-.2L282.77,91a4.27,4.27,0,0,1-4-4.44,4.46,4.46,0,0,1,4.44-4l25.34,1.19L310,60.11c.14-2.32,2.37-4.38,4.49-4a4.22,4.22,0,0,1,4,4.49l-1.77,27.72A4.23,4.23,0,0,1,312.47,92.34Z"/><path class="cls-1" d="M214,360a176.94,176.94,0,0,1-111.35-39.53,4.25,4.25,0,1,1,5.37-6.59,168,168,0,0,0,212.55-.48A4.24,4.24,0,1,1,326,320,176.82,176.82,0,0,1,214,360Z"/><path class="cls-1" d="M100.14,343.87a1.14,1.14,0,0,1-.26,0,4.22,4.22,0,0,1-4-4.49l1.77-27.72a4.41,4.41,0,0,1,4.42-4l29.5,1.38a4.24,4.24,0,1,1-.4,8.48l-25.34-1.19-1.5,23.56A4.24,4.24,0,0,1,100.14,343.87Z"/><path class="cls-1" d="M206.83,180.82a4.2,4.2,0,0,1-1.47-.27L160.58,164a4.24,4.24,0,1,1,2.95-8l43.3,16,102.84-37.57L207.53,96.35,104.38,135.27l31,11.86a4.24,4.24,0,0,1-3.05,7.92L90.93,139.2a4.25,4.25,0,0,1,0-7.94L206,87.86a4.25,4.25,0,0,1,3,0L323.4,130.57a4.28,4.28,0,0,1,2.75,4,4.2,4.2,0,0,1-2.79,4l-115.07,42A4.1,4.1,0,0,1,206.83,180.82Z"/><path class="cls-1" d="M205.46,317.93a4.25,4.25,0,0,1-1.49-.26L89.59,275a4.24,4.24,0,0,1-2.75-4V138a4.24,4.24,0,1,1,8.48,0V268l105.9,39.55v-131a4.24,4.24,0,1,1,8.48,0V313.69a4.24,4.24,0,0,1-4.24,4.24Z"/><path class="cls-1" d="M208.9,318.61a4.24,4.24,0,0,1-1.49-8.21L319,268.55V135.92a4.24,4.24,0,0,1,8.48,0V271.48a4.24,4.24,0,0,1-2.75,4L210.4,318.35A4.39,4.39,0,0,1,208.9,318.61Z"/><path class="cls-1" d="M179.21,142.33l.1,0c-11.35,5.06-22,9.77-23.38,10.31a8.48,8.48,0,0,0-5.8,8v32.71l-7.75-2.8.51-33.78,36.32-14.53m.07-9.16L134.5,151.08l-.69,45.48,24.8,9V160.73c2.07-.69,42-18.6,42-18.6l-21.36-9Z"/></svg>