<?xml version="1.0" encoding="utf-8"?>
<!-- Generator: Adobe Illustrator 24.3.0, SVG Export Plug-In . SVG Version: 6.00 Build 0)  -->
<svg version="1.1" id="Capa_1" xmlns="http://www.w3.org/2000/svg" xmlns:xlink="http://www.w3.org/1999/xlink" x="0px" y="0px"
	 viewBox="0 0 9.6 10.9" style="enable-background:new 0 0 9.6 10.9;" xml:space="preserve">
<style type="text/css">
	.st0{fill:#FFFFFF;}
</style>
<g>
	<path class="st0" d="M4.8,9.9C2.4,9.9,0.5,8,0.5,5.5s1.9-4.3,4.4-4.3s4.3,1.9,4.3,4.3S7.2,9.9,4.8,9.9z M4.8,1.4
		c-2.3,0-4.1,1.9-4.1,4.1s1.8,4.1,4.1,4.1s4.1-1.9,4.1-4.1S7.1,1.4,4.8,1.4z"/>
	<g>
		<g>
			<path class="st0" d="M5.1,3.6v2.9c0,0.2-0.1,0.3-0.3,0.3c-0.2,0-0.3-0.1-0.3-0.3V3.6c0-0.2,0.1-0.3,0.3-0.3
				C5,3.2,5.1,3.4,5.1,3.6z M5.1,7.3c0.1,0.1,0.1,0.1,0.1,0.2c0,0.1,0,0.2-0.1,0.2C5,7.8,4.9,7.9,4.8,7.9c-0.1,0-0.2,0-0.2-0.1
				C4.5,7.7,4.5,7.6,4.5,7.5c0-0.1,0-0.2,0.1-0.2c0.1-0.1,0.1-0.1,0.2-0.1C4.9,7.2,5,7.2,5.1,7.3z"/>
		</g>
	</g>
</g>
</svg>
