<?xml version="1.0" encoding="utf-8"?>
<!-- Generator: Adobe Illustrator 24.3.0, SVG Export Plug-In . SVG Version: 6.00 Build 0)  -->
<svg version="1.1" id="Capa_1" xmlns="http://www.w3.org/2000/svg" xmlns:xlink="http://www.w3.org/1999/xlink" x="0px" y="0px"
	 viewBox="0 0 30 30" style="enable-background:new 0 0 30 30;" xml:space="preserve">
<style type="text/css">
	.st0{fill:#FFFFFF;}
</style>
<g>
	<path class="st0" d="M23.8,28.4H6.5c-0.2,0-0.3-0.1-0.3-0.3v-7.8c0-0.2,0.1-0.3,0.3-0.3s0.3,0.1,0.3,0.3v7.5h16.7v-7.5
		c0-0.2,0.1-0.3,0.3-0.3c0.2,0,0.3,0.1,0.3,0.3V28C24.1,28.2,24,28.4,23.8,28.4z"/>
	<path class="st0" d="M25.4,20.5H4.9c-0.1,0-0.2-0.1-0.3-0.1c-0.1-0.1-0.1-0.2,0-0.3l1.6-4.2c0-0.1,0.2-0.2,0.3-0.2h17.3
		c0.1,0,0.3,0.1,0.3,0.2l1.6,4.2c0,0.1,0,0.2,0,0.3C25.7,20.5,25.6,20.5,25.4,20.5z M5.3,19.9H25l-1.4-3.6H6.7L5.3,19.9z"/>
	<path class="st0" d="M9.5,5.4L9.2,5.5l1.6,7.8l0.3-0.1c0.1,0,0.2,0,0.3,0.1c0,0,0.1,0.1,0.1,0.2L9.7,5C9.8,5.2,9.7,5.4,9.5,5.4z"/>
	<path class="st0" d="M7.5,14.4c0-0.1,0.1-0.2,0.2-0.2L8,14.1L6.3,6.3l1.4-0.4L6,6.3c-0.2,0-0.3-0.1-0.4-0.2l1.8,8.5c0,0,0,0,0,0
		C7.4,14.5,7.4,14.5,7.5,14.4z"/>
	<rect x="9.5" y="13" class="st0" width="0" height="2.7"/>
	<path class="st0" d="M5.9,5.7l3.5-0.9c0.2,0,0.3,0.1,0.4,0.2L9.4,3.4C9.2,2.7,8.6,2.2,8,2.4L6.2,2.8C5.6,3,5.2,3.7,5.3,4.5l0.3,1.6
		C5.6,5.9,5.7,5.7,5.9,5.7z M6.4,3.5L8.1,3C8.4,3,8.7,3.2,8.8,3.5l0.3,1.3L6.2,5.6L5.9,4.3C5.8,3.9,6,3.6,6.4,3.5z"/>
	<polygon class="st0" points="9.2,5.5 7.8,5.9 9.2,5.5 	"/>
	<path class="st0" d="M6,6.3l1.7-0.5l1.4-0.4l0,0l0.3-0.1c0.2,0,0.3-0.2,0.2-0.4c0-0.2-0.2-0.3-0.4-0.2L5.9,5.7
		c-0.2,0-0.3,0.2-0.2,0.4C5.7,6.3,5.9,6.4,6,6.3z"/>
	<path class="st0" d="M8.3,14.7l-0.5,0.1c-0.2,0-0.3-0.1-0.3-0.2c0,0,0,0.1,0,0.1l0.8,1.1H9L8.3,14.7z"/>
	<path class="st0" d="M11.5,13.5c0,0.2-0.1,0.4-0.2,0.4L10.8,14l-0.3,1.8h0.6l0.4-2.2C11.5,13.6,11.5,13.5,11.5,13.5z"/>
	<rect x="7.9" y="13.7" transform="matrix(0.9664 -0.257 0.257 0.9664 -3.2087 2.88)" class="st0" width="3" height="0"/>
	<path class="st0" d="M7.8,14.8l0.5-0.1l0,0l2.6-0.7l0,0l0.5-0.1c0.2,0,0.3-0.2,0.2-0.4c0-0.1,0-0.1-0.1-0.2
		c-0.1-0.1-0.2-0.1-0.3-0.1l-0.3,0.1v0L8,14.1l0,0l-0.3,0.1c-0.1,0-0.2,0.1-0.2,0.2c0,0.1,0,0.1,0,0.2C7.5,14.8,7.7,14.9,7.8,14.8z"
		/>
	<path class="st0" d="M7.6,6.6c0-0.2-0.2-0.3-0.4-0.2C7.1,6.4,7,6.6,7,6.8L8.3,13c0,0.2,0.2,0.3,0.4,0.2c0.2,0,0.3-0.2,0.2-0.4
		L7.6,6.6z"/>
	<path class="st0" d="M14,3.1c0-0.2-0.1-0.3-0.3-0.3h-1.2v0.7h1.2C13.8,3.4,14,3.3,14,3.1z"/>
	<path class="st0" d="M13.4,4.4c0-0.2-0.1-0.3-0.3-0.3h-0.6v0.7h0.6C13.2,4.8,13.4,4.6,13.4,4.4z"/>
	<path class="st0" d="M14,5.8c0-0.2-0.1-0.3-0.3-0.3h-1.2v0.7h1.2C13.8,6.1,14,5.9,14,5.8z"/>
	<path class="st0" d="M13.4,7.1c0-0.2-0.1-0.3-0.3-0.3h-0.6v0.7h0.6C13.2,7.4,13.4,7.3,13.4,7.1z"/>
	<path class="st0" d="M14,8.4c0-0.2-0.1-0.3-0.3-0.3h-1.2v0.7h1.2C13.8,8.8,14,8.6,14,8.4z"/>
	<path class="st0" d="M13.4,9.8c0-0.2-0.1-0.3-0.3-0.3h-0.6v0.7h0.6C13.2,10.1,13.4,10,13.4,9.8z"/>
	<path class="st0" d="M14,11.1c0-0.2-0.1-0.3-0.3-0.3h-1.2v0.7h1.2C13.8,11.5,14,11.3,14,11.1z"/>
	<path class="st0" d="M13.4,12.5c0-0.2-0.1-0.3-0.3-0.3h-0.6v0.7h0.6C13.2,12.8,13.4,12.7,13.4,12.5z"/>
	<path class="st0" d="M14,13.8c0-0.2-0.1-0.3-0.3-0.3h-1.2v0.7h1.2C13.8,14.2,14,14,14,13.8z"/>
	<path class="st0" d="M13.4,15.2c0-0.2-0.1-0.3-0.3-0.3h-0.6v0.7h0.6C13.2,15.5,13.4,15.3,13.4,15.2z"/>
	<path class="st0" d="M12.2,5.4h0.3V4.8h-0.3c-0.2,0-0.3-0.2-0.3-0.3v1.3C11.9,5.6,12,5.4,12.2,5.4z"/>
	<path class="st0" d="M12.2,13.5h0.3v-0.7h-0.3c-0.2,0-0.3-0.2-0.3-0.3v1.3C11.9,13.6,12,13.5,12.2,13.5z"/>
	<path class="st0" d="M12.5,15.5h-0.3c-0.2,0-0.3-0.2-0.3-0.3v0.7h0.6V15.5z"/>
	<path class="st0" d="M12.2,4.1h0.3V3.4h-0.3c-0.2,0-0.3-0.2-0.3-0.3v1.3C11.9,4.2,12,4.1,12.2,4.1z"/>
	<path class="st0" d="M12.2,14.8h0.3v-0.7h-0.3c-0.2,0-0.3-0.2-0.3-0.3v1.3C11.9,15,12,14.8,12.2,14.8z"/>
	<path class="st0" d="M12.2,12.1h0.3v-0.7h-0.3c-0.2,0-0.3-0.2-0.3-0.3v1.3C11.9,12.3,12,12.1,12.2,12.1z"/>
	<path class="st0" d="M12.2,2.7h0.3V2.4h3v13.4h0.3l0.3-1.5V2.1c0-0.2-0.1-0.3-0.3-0.3h-3.6c-0.2,0-0.3,0.2-0.3,0.3v1
		C11.9,2.9,12,2.7,12.2,2.7z"/>
	<path class="st0" d="M12.2,6.8h0.3V6.1h-0.3c-0.2,0-0.3-0.2-0.3-0.3v1.3C11.9,6.9,12,6.8,12.2,6.8z"/>
	<path class="st0" d="M12.2,9.5h0.3V8.8h-0.3c-0.2,0-0.3-0.2-0.3-0.3v1.3C11.9,9.6,12,9.5,12.2,9.5z"/>
	<path class="st0" d="M12.2,8.1h0.3V7.4h-0.3c-0.2,0-0.3-0.2-0.3-0.3v1.3C11.9,8.3,12,8.1,12.2,8.1z"/>
	<path class="st0" d="M12.2,10.8h0.3v-0.7h-0.3c-0.2,0-0.3-0.2-0.3-0.3v1.3C11.9,10.9,12,10.8,12.2,10.8z"/>
	<path class="st0" d="M12.2,3.4h0.3V2.7h-0.3c-0.2,0-0.3,0.2-0.3,0.3S12,3.4,12.2,3.4z"/>
	<path class="st0" d="M12.2,4.8h0.3V4.1h-0.3c-0.2,0-0.3,0.2-0.3,0.3C11.9,4.6,12,4.8,12.2,4.8z"/>
	<path class="st0" d="M12.2,6.1h0.3V5.4h-0.3c-0.2,0-0.3,0.2-0.3,0.3C11.9,5.9,12,6.1,12.2,6.1z"/>
	<path class="st0" d="M12.2,7.4h0.3V6.8h-0.3c-0.2,0-0.3,0.2-0.3,0.3C11.9,7.3,12,7.4,12.2,7.4z"/>
	<path class="st0" d="M12.2,8.8h0.3V8.1h-0.3c-0.2,0-0.3,0.1-0.3,0.3C11.9,8.6,12,8.8,12.2,8.8z"/>
	<path class="st0" d="M12.2,10.1h0.3V9.5h-0.3c-0.2,0-0.3,0.2-0.3,0.3C11.9,10,12,10.1,12.2,10.1z"/>
	<path class="st0" d="M12.2,11.5h0.3v-0.7h-0.3c-0.2,0-0.3,0.2-0.3,0.3C11.9,11.3,12,11.5,12.2,11.5z"/>
	<path class="st0" d="M12.2,12.8h0.3v-0.7h-0.3c-0.2,0-0.3,0.2-0.3,0.3C11.9,12.7,12,12.8,12.2,12.8z"/>
	<path class="st0" d="M12.2,14.2h0.3v-0.7h-0.3c-0.2,0-0.3,0.2-0.3,0.3C11.9,14,12,14.2,12.2,14.2z"/>
	<path class="st0" d="M12.2,15.5h0.3v-0.7h-0.3c-0.2,0-0.3,0.2-0.3,0.3S12,15.5,12.2,15.5z"/>
	<path class="st0" d="M16.3,15.8l0.8-3.8l1.1-0.7c0,0,0,0,0,0l1.3-0.9c0.1,0,0.1-0.1,0.1-0.2l0.3-1.4l0.5,0.1c0,0,0,0,0,0L20.6,9
		l1,0.3l0.8,3l-0.7,3.6h0.6l0.7-3.5c0-0.1,0-0.1,0-0.2L22.2,9l0.4-1.8c0-0.1,0-0.2-0.1-0.3L22.6,6l0.2,0c0.2,0.1,0.5,0,0.7-0.1
		c0.2-0.1,0.3-0.4,0.4-0.6C24,4.7,23.7,4.1,23.2,4l-3.4-0.9c0,0,0,0-0.1,0c0,0,0,0-0.1,0l-1.1-0.3c0,0,0,0,0,0l-0.9-0.2
		c-0.1,0-0.2,0-0.2,0c-0.1,0-0.1,0.1-0.1,0.2L17,4.2c0,0.1,0,0.2,0,0.2s0.1,0.1,0.2,0.1l0.9,0.2l0.5,0.1L19,5.4c0,0-0.1,0-0.1,0
		c-0.1,0-0.1,0.1-0.2,0.1c-0.3,0.4-0.6,0.9-1.1,1.4c-0.1,0.1-0.2,0.3-0.2,0.5c0,0.2,0.1,0.4,0.2,0.5c0.1,0.1,0.2,0.2,0.3,0.2
		c0,0,0.1,0,0.1,0c0.2,0,0.3-0.1,0.4-0.2c0.5-0.6,0.9-1.1,1.3-1.6c0,0,0,0,0,0l-0.4,1.9c0,0,0,0,0,0L19,9.9l-1.2,0.8c0,0,0,0,0,0
		l-1.2,0.8c-0.1,0-0.1,0.1-0.1,0.2L16,14.3v1.5H16.3z M20.2,8.2l-0.2-0.1l0.3-1.3L20.4,7L20.2,8.2z M20.9,8.4l-0.1,0l0,0L21,7.1
		l0.1,0l0.1,0L20.9,8.4z M21.7,8.6l-0.2-0.1l0.3-1.3l0.2,0.1L21.7,8.6z M18,3.9L18,4.1L17.6,4l0.2-0.8l0.4,0.1L18,3.9z M19.2,5.7
		l0.1,0.2c-0.3,0.5-0.7,1-1.3,1.6c0,0,0,0-0.1,0c0,0,0,0,0,0c0,0,0,0,0-0.1c0,0,0,0,0-0.1 M19,4.4c0-0.1-0.1-0.1-0.2-0.1l-0.3-0.1
		l0.1-0.4l0.1-0.4l0.9,0.2c0,0,0,0,0.1,0c0,0,0,0,0.1,0l3.4,0.9c0.2,0,0.3,0.3,0.3,0.5c0,0.2-0.2,0.3-0.4,0.3l-0.5-0.1
		c-0.2,0-0.3,0.1-0.3,0.2l-0.2,1.2l-0.4-0.1c0,0,0,0,0,0l-0.4-0.1l-0.8-0.2L19,4.4z"/>
	<polygon class="st0" points="16,15.8 16,14.3 15.7,15.8 	"/>
</g>
</svg>
