<?xml version="1.0" encoding="utf-8"?>
<!-- Generator: Adobe Illustrator 24.0.0, SVG Export Plug-In . SVG Version: 6.00 Build 0)  -->
<svg version="1.1" id="Capa_1" xmlns="http://www.w3.org/2000/svg" xmlns:xlink="http://www.w3.org/1999/xlink" x="0px" y="0px"
	 viewBox="0 0 100 130.2" style="enable-background:new 0 0 100 130.2;" xml:space="preserve">
<style type="text/css">
	.st0{fill:#5EC1CA;}
	.st1{fill:#1A599C;}
	.st2{fill:#3F5CA7;}
	.st3{fill:#FFFFFF;}
</style>
<g>
	<g>
		<path class="st0" d="M96.3,46.4C96.3,5.7,55.6,4,55.6,4S14.8,5.7,14.8,46.4c0,9.8,3.2,16.8,7.7,21.9h66.2
			C93.1,63.2,96.3,56.2,96.3,46.4z"/>
		<path class="st1" d="M88.7,68.3H22.5C32.6,79.7,49,80.9,49,80.9l0,0.1h0v7.5h13v-7.6h0.5C64.9,80.7,79.4,78.8,88.7,68.3z"/>
		<path class="st2" d="M49.1,99.2v20.3c0,3.5,2.8,6.3,6.3,6.3h0.2h0.1c3.5,0,6.3-2.8,6.3-6.3V99.2H49.1z"/>
		<rect x="49.1" y="88.5" class="st0" width="13" height="10.7"/>
	</g>
	<path class="st3" d="M26.7,40.8c0,6.5-5.3,11.8-11.8,11.8c-6.5,0-11.8-5.3-11.8-11.8S8.4,29,14.9,29C21.4,29,26.7,34.3,26.7,40.8z"
		/>
</g>
</svg>
