<?xml version="1.0" encoding="utf-8"?>
<!-- Generator: Adobe Illustrator 25.0.0, SVG Export Plug-In . SVG Version: 6.00 Build 0)  -->
<svg version="1.1" id="Capa_1" xmlns="http://www.w3.org/2000/svg" xmlns:xlink="http://www.w3.org/1999/xlink" x="0px" y="0px"
	 viewBox="0 0 600 600" style="enable-background:new 0 0 600 600;" xml:space="preserve">
<style type="text/css">
	.st0{fill:#2E68B0;}
</style>
<g>
	<path class="st0" d="M567.8,150.9H381c-4.4,0-7.9-3.6-7.9-7.9c0-4.4,3.6-7.9,7.9-7.9h186.8c4.4,0,7.9,3.6,7.9,7.9
		C575.7,147.3,572.2,150.9,567.8,150.9z"/>
	<path class="st0" d="M567.8,261.8H381c-4.4,0-7.9-3.6-7.9-7.9c0-4.4,3.6-7.9,7.9-7.9h186.8c4.4,0,7.9,3.6,7.9,7.9
		C575.7,258.2,572.2,261.8,567.8,261.8z"/>
	<path class="st0" d="M567.8,372.7H381c-4.4,0-7.9-3.6-7.9-7.9c0-4.4,3.6-7.9,7.9-7.9h186.8c4.4,0,7.9,3.6,7.9,7.9
		C575.7,369.1,572.2,372.7,567.8,372.7z"/>
	<path class="st0" d="M567.8,483.5H381c-4.4,0-7.9-3.6-7.9-7.9c0-4.4,3.6-7.9,7.9-7.9h186.8c4.4,0,7.9,3.6,7.9,7.9
		C575.7,480,572.2,483.5,567.8,483.5z"/>
	<g>
		<path class="st0" d="M169.4,298c-35.4,0-67.5-18.1-86-48.3c-9.6-15.7-14.7-33.8-14.7-52.3c0-55.5,45.1-100.6,100.6-100.6
			S270,141.9,270,197.4c0,18.5-5.1,36.6-14.6,52.3C236.9,279.9,204.8,298,169.4,298z M169.4,112.6c-46.7,0-84.7,38-84.7,84.7
			c0,15.6,4.3,30.8,12.3,44.1c15.5,25.5,42.6,40.7,72.4,40.7s56.9-15.2,72.4-40.7c8.1-13.3,12.3-28.5,12.3-44.1
			C254.2,150.6,216.1,112.6,169.4,112.6z"/>
		<path class="st0" d="M318.7,499.4H20.1c-2.3,0-4.5-1-6-2.7s-2.2-4-1.9-6.2C25,390.7,91.1,318.2,169.4,318.2
			s144.4,72.4,157.2,172.3c0.3,2.3-0.4,4.5-1.9,6.2C323.1,498.4,321,499.4,318.7,499.4z M29.3,483.5h280.2
			c-14.3-87.1-72.2-149.4-140.1-149.4S43.6,396.4,29.3,483.5z"/>
	</g>
</g>
</svg>
