<?xml version="1.0" encoding="utf-8"?>
<!-- Generator: Adobe Illustrator 24.3.0, SVG Export Plug-In . SVG Version: 6.00 Build 0)  -->
<svg version="1.1" id="Capa_1" xmlns="http://www.w3.org/2000/svg" xmlns:xlink="http://www.w3.org/1999/xlink" x="0px" y="0px"
	 viewBox="0 0 30 30" style="enable-background:new 0 0 30 30;" xml:space="preserve">
<style type="text/css">
	.st0{fill:#006dd9;}
</style>
<g>
	<g>
		<path class="st0" d="M10.3,20.5H7.9c-0.2,0-0.3-0.1-0.3-0.3V13c0-0.2,0.1-0.3,0.3-0.3h2.5c0.2,0,0.3,0.1,0.3,0.3v7.2
			C10.6,20.3,10.5,20.5,10.3,20.5z M8.2,19.9H10v-6.6H8.2V19.9z"/>
		<path class="st0" d="M16.3,20.5h-2.5c-0.2,0-0.3-0.1-0.3-0.3V13c0-0.2,0.1-0.3,0.3-0.3h2.5c0.2,0,0.3,0.1,0.3,0.3v7.2
			C16.6,20.3,16.5,20.5,16.3,20.5z M14.1,19.9H16v-6.6h-1.9V19.9z"/>
		<path class="st0" d="M22.3,20.5h-2.5c-0.2,0-0.3-0.1-0.3-0.3V13c0-0.2,0.1-0.3,0.3-0.3h2.5c0.2,0,0.3,0.1,0.3,0.3v7.2
			C22.6,20.3,22.5,20.5,22.3,20.5z M20.1,19.9H22v-6.6h-1.9V19.9z"/>
	</g>
	<path class="st0" d="M23.6,23.6H6.5c-0.2,0-0.3-0.1-0.3-0.3v-2c0-0.2,0.1-0.3,0.3-0.3h17.1c0.2,0,0.3,0.1,0.3,0.3v2
		C23.9,23.5,23.8,23.6,23.6,23.6z M6.8,23h16.5v-1.4H6.8V23z"/>
	<path class="st0" d="M23.8,12H6.3c-0.1,0-0.2-0.1-0.3-0.2c0-0.1,0-0.3,0.1-0.3l8.8-5.6c0.1-0.1,0.2-0.1,0.3,0l8.8,5.6
		c0.1,0.1,0.2,0.2,0.1,0.3C24.1,11.9,24,12,23.8,12z M7.3,11.4h15.5l-7.8-5L7.3,11.4z M15.1,10.4c-0.8,0-1.5-0.7-1.5-1.5
		c0-0.8,0.7-1.5,1.5-1.5c0.8,0,1.5,0.7,1.5,1.5C16.6,9.7,15.9,10.4,15.1,10.4z M15.1,7.9c-0.5,0-0.9,0.4-0.9,0.9
		c0,0.5,0.4,0.9,0.9,0.9c0.5,0,0.9-0.4,0.9-0.9C16,8.3,15.6,7.9,15.1,7.9z"/>
</g>
</svg>
