<?xml version="1.0" encoding="utf-8"?>
<!-- Generator: Adobe Illustrator 24.3.0, SVG Export Plug-In . SVG Version: 6.00 Build 0)  -->
<svg version="1.1" id="Capa_1" xmlns="http://www.w3.org/2000/svg" xmlns:xlink="http://www.w3.org/1999/xlink" x="0px" y="0px"
	 viewBox="0 0 30 30" style="enable-background:new 0 0 30 30;" xml:space="preserve">
<style type="text/css">
	.st0{fill:#006dd9;}
</style>
<g>
	<path class="st0" d="M14.3,23.8c0,0-0.1,0-0.1,0c-0.7,0-1.4-0.1-2-0.3c-1.2-0.3-2.1-0.7-2.7-1.3c-0.6-0.6-0.9-1.2-0.9-2
		c0-0.2,0-0.4,0-0.6l0-0.1c0-0.4,0.1-0.8,0.3-1.1c-0.2-0.3-0.3-0.7-0.3-1c0-0.1,0-0.3,0-0.4c0-0.4,0-0.8,0.1-1.2l-0.2-0.1
		c-0.5-0.3-0.9-0.5-1.3-0.9c-0.3-0.3-0.6-0.8-0.7-1.2c0,0,0,0,0-0.1V12c0,0,0-0.1,0-0.1c0.1-0.3,0.2-0.6,0.4-0.9
		c0.4-0.5,0.8-0.9,1.5-1.2c0.2-0.1,0.3-0.2,0.3-0.3c0-0.1,0-0.2,0.1-0.2c0.4-0.8,1-1.2,1.5-1.5c0.9-0.5,1.9-0.8,3.2-1
		c0.2,0,0.4,0,0.6-0.1l0.3,0l1.3,0c0,0,0.1,0,0.1,0c0.7,0,1.4,0.1,2,0.3c1.2,0.3,2.1,0.7,2.7,1.3c0.6,0.5,0.9,1.1,0.9,1.7
		c0,0.1,0,0.2,0,0.3c0,0.4,0,0.9-0.1,1.3c0,0,0.1,0,0.1,0c0.5,0.3,0.9,0.5,1.3,0.9c0.3,0.3,0.6,0.8,0.7,1.2l0,1.5
		c-0.2,0.7-0.6,1.3-1.3,1.8c-0.2,0.1-0.3,0.2-0.5,0.3c-0.1,0.1-0.2,0.1-0.3,0.2c0,0,0,0-0.1,0.1c0,0.1-0.1,0.1-0.1,0.2
		c0,0.1-0.1,0.2-0.2,0.3c0.2,0.3,0.3,0.7,0.3,1.1V20c0,0.2,0,0.3,0,0.5c0,0.3-0.1,0.6-0.2,0.9c-0.4,0.7-1,1.1-1.4,1.4
		c-0.9,0.5-1.9,0.8-3.2,1c-0.2,0-0.4,0-0.6,0.1l-0.3,0L14.3,23.8z M9.1,19.7c0,0.2,0,0.4,0,0.5c0,0.6,0.2,1.1,0.7,1.5
		c0.6,0.5,1.4,0.9,2.5,1.2c0.6,0.2,1.3,0.2,1.9,0.3c0.1,0,0.1,0,0.1,0l1.5,0c0.2,0,0.4,0,0.6-0.1c1.2-0.2,2.2-0.5,3-0.9
		c0.6-0.4,1-0.7,1.2-1.2c0.1-0.2,0.2-0.4,0.2-0.7c0-0.2,0-0.3,0-0.5v-0.1c-0.1,0.2-0.2,0.4-0.3,0.5c-0.3,0.4-0.8,0.8-1.5,1.1
		c-0.8,0.4-1.7,0.6-2.7,0.7c-1.7,0.2-3.3,0.1-4.8-0.4c-0.9-0.3-1.6-0.7-2.1-1.2c-0.2-0.2-0.3-0.4-0.4-0.7
		C9.1,19.8,9.1,19.8,9.1,19.7z M9.4,19.1c0,0.1,0.1,0.3,0.2,0.6c0.1,0.2,0.2,0.4,0.3,0.5c0.4,0.5,1,0.8,1.9,1.1
		c1.4,0.5,2.9,0.6,4.5,0.4c1-0.1,1.8-0.3,2.5-0.7c0.6-0.3,1-0.6,1.3-1c0.2-0.3,0.4-0.6,0.5-1c-0.3,0.2-0.6,0.4-0.8,0.5
		c-1.1,0.6-2.4,1-4,1.1c-1,0.1-2,0-3-0.2c-1.2-0.2-2.2-0.6-2.9-1.1C9.8,19.4,9.6,19.2,9.4,19.1z M9.4,18.4
		C9.4,18.4,9.4,18.4,9.4,18.4c0.1,0,0.2,0.1,0.3,0.2c0.2,0.1,0.4,0.3,0.5,0.4c0.7,0.5,1.6,0.8,2.7,1c0.9,0.2,1.9,0.2,2.9,0.2
		c1.5-0.1,2.7-0.4,3.7-1c0.3-0.2,0.8-0.5,1-0.8c0-0.1,0-0.2,0.1-0.2c0.1-0.1,0.1-0.2,0.1-0.3c0-0.1,0.1-0.2,0.1-0.2
		c0-0.1,0.1-0.2,0.3-0.3c0.1-0.1,0.2-0.1,0.3-0.2c0.1-0.1,0.3-0.2,0.4-0.3c0.6-0.4,0.9-0.9,1.1-1.4l0-1c0,0.3-0.2,0.7-0.5,1
		c-0.5,0.5-1.2,0.9-2.1,1.2c-1.6,0.5-3.2,0.6-5,0.4c-0.4-0.1-0.7-0.2-1.1-0.2c-0.2,0-0.3-0.1-0.5-0.1c0,0-0.1,0-0.1,0
		c-0.1,0-0.2-0.2-0.2-0.3c0-0.1,0.1-0.2,0.2-0.2l0.4-0.1c0.3,0,0.6-0.1,0.8-0.1c1.2-0.2,2.1-0.5,2.9-1.1c0.5-0.3,0.8-0.7,0.9-1.1
		c0-0.4,0.4-0.6,0.6-0.7c0.4-0.2,0.8-0.5,1.1-0.8c0,0,0.1-0.1,0.2-0.1c0.4-0.4,0.3-1.1,0.3-1.6c0-0.1,0-0.1,0-0.2
		c0,0.2-0.1,0.5-0.3,0.7c-0.3,0.4-0.8,0.8-1.5,1.1c-0.8,0.4-1.7,0.6-2.7,0.7c-0.3,0-0.7,0.1-1,0.1L15,13c0,0,0,0,0,0
		c-1.4,0-2.6-0.2-3.7-0.7c-0.8-0.3-1.3-0.6-1.7-1.1c-0.2-0.2-0.3-0.4-0.4-0.7c0,0,0,0,0,0c0,0.1-0.1,0.2-0.1,0.3
		c0,0.6,0.2,1.1,0.7,1.5c0.6,0.5,1.4,0.9,2.5,1.2c1.2,0.3,2.5,0.4,3.8,0.3c0.1,0,0.1,0,0.2,0c0,0,0.2,0,0.2,0.1
		c0.1,0.1,0.1,0.2,0.1,0.3s-0.1,0.2-0.2,0.2L16,14.6c-0.3,0.1-0.5,0.2-0.8,0.2c-1.2,0.3-2.4,0.3-3.6,0.2c-1.3-0.1-2.3-0.4-3.2-0.9
		c-0.5-0.3-0.8-0.6-1.1-0.9C7.2,12.9,7,12.7,7,12.4v1c0.1,0.4,0.3,0.7,0.5,1c0.3,0.3,0.7,0.6,1.2,0.8l0.4,0.2c0,0,0.1,0.1,0.1,0.1
		c0,0,0,0,0.1,0c0.3,0.1,0.7,0.2,1,0.2c0.3,0.1,0.6,0.1,0.8,0.2c0.1,0,0.2,0.1,0.3,0.2c0.4,0.5,0.9,0.9,1.7,1.3c1,0.4,2,0.7,3.2,0.7
		c0.5,0,0.9,0,1.4,0c0.2,0,0.4,0,0.6,0c0.1,0,0.3,0.1,0.4,0.2c0,0,0,0.1,0,0.1c0,0.1-0.1,0.3-0.2,0.3l-0.4,0.1
		c-0.3,0.1-0.5,0.1-0.8,0.2c-1.1,0.2-2.3,0.3-3.6,0.2c-1.3-0.1-2.3-0.4-3.2-0.9c-0.4-0.2-0.9-0.6-1.3-1.1l0-0.1
		c0-0.1-0.1-0.2-0.1-0.3c0,0.1,0,0.2,0,0.3c0,0.2,0,0.3,0,0.5c0,0.2,0.1,0.5,0.2,0.7C9.4,18.2,9.4,18.3,9.4,18.4z M9.4,16.1
		c0,0.2,0.2,0.4,0.3,0.6l0,0.1c0.3,0.5,0.7,0.7,1.1,0.9c0.8,0.5,1.8,0.7,3,0.9c0.7,0.1,1.5,0.1,2.2,0c-1.1-0.1-2.1-0.3-3-0.7
		c-0.6-0.3-1.4-0.7-1.9-1.5c-0.2,0-0.5-0.1-0.8-0.2C9.9,16.2,9.6,16.1,9.4,16.1z M15.1,16.4c0.1,0,0.2,0,0.4,0.1
		c1.6,0.2,3.2,0.1,4.7-0.3c0.8-0.3,1.4-0.6,1.9-1.1c0.5-0.5,0.5-1,0-1.5c-0.4-0.4-0.9-0.7-1.3-0.9c-0.3,0.4-0.8,0.7-1.2,0.9
		c-0.2,0.1-0.3,0.2-0.3,0.3c0,0,0,0.1,0,0.1c-0.2,0.5-0.6,0.9-1.1,1.3C17.3,15.8,16.3,16.2,15.1,16.4z M8.6,10.7
		c-0.3,0.3-0.7,0.7-0.9,1c-0.2,0.4-0.2,0.7,0.1,1.1c0.2,0.3,0.5,0.5,0.9,0.8c0.8,0.5,1.8,0.7,3,0.9c0.7,0.1,1.5,0.1,2.2,0
		c-0.6-0.1-1.1-0.1-1.7-0.3c-1.2-0.3-2-0.7-2.7-1.3c-0.7-0.6-1-1.2-0.9-2C8.5,10.9,8.6,10.8,8.6,10.7z M22.9,13.8
		c0,0.1,0.1,0.2,0.1,0.3v-0.1C23,14,22.9,13.9,22.9,13.8z M21.4,12.4c0.4,0.2,0.8,0.5,1.2,0.8c0.1,0.1,0.1,0.1,0.2,0.2
		c-0.1-0.1-0.2-0.2-0.2-0.3C22.1,12.8,21.8,12.6,21.4,12.4C21.4,12.4,21.4,12.4,21.4,12.4z M15,7.8c-0.8,0-1.7,0.1-2.5,0.3
		c-1,0.2-1.7,0.6-2.3,1.1C9.9,9.4,9.7,9.7,9.6,9.9c-0.1,0.3,0,0.6,0.3,1c0.4,0.4,0.8,0.7,1.5,1c1,0.4,2.1,0.6,3.5,0.6l0.4,0
		c0.3,0,0.7,0,1-0.1c0.9-0.1,1.7-0.3,2.5-0.7c0.6-0.3,1-0.6,1.3-0.9c0.3-0.3,0.3-0.7,0.1-1.1c-0.3-0.4-0.7-0.7-1-0.9
		c-0.8-0.5-1.8-0.7-3-0.9C15.8,7.9,15.4,7.8,15,7.8z M7,12L7,12C7,12,7,12,7,12C7,12,7,12,7,12z M8.9,9.5l0.2,0.1c0,0,0-0.1,0-0.1
		L8.9,9.5z"/>
	<path class="st0" d="M16.1,14.5c-0.1,0-0.3-0.1-0.3-0.3c0-0.1,0.1-0.3,0.3-0.3c0,0,1.6,0,3.1-0.7c0.1-0.1,0.3,0,0.4,0.1
		c0.1,0.1,0,0.3-0.1,0.4C17.8,14.4,16.2,14.5,16.1,14.5C16.1,14.5,16.1,14.5,16.1,14.5z"/>
	<path class="st0" d="M12.9,16.6c-1.1,0-1.9-0.2-1.9-0.2c-0.1,0-0.2-0.2-0.2-0.3c0-0.1,0.2-0.2,0.3-0.2c0,0,1.6,0.4,3.2,0.1
		c0.1,0,0.3,0.1,0.3,0.2c0,0.1-0.1,0.3-0.2,0.3C13.9,16.6,13.4,16.6,12.9,16.6z"/>
	<path class="st0" d="M18.3,18.7c-0.1,0-0.3-0.1-0.3-0.2c0-0.1,0.1-0.3,0.2-0.3c0,0,1.5-0.2,3-0.8c0.1-0.1,0.3,0,0.4,0.1
		c0.1,0.1,0,0.3-0.1,0.4C19.9,18.5,18.4,18.6,18.3,18.7C18.3,18.7,18.3,18.7,18.3,18.7z"/>
	<g>
		<path class="st0" d="M17.4,10c0.3,0.3-0.1,0.6-0.8,0.9l0.1,0.1c0.1,0.1-0.1,0.2-0.3,0.2c-0.3,0.1-0.5,0-0.6-0.1L15.6,11
			c-0.8,0.1-1.6,0-1.9-0.3c-0.1-0.1,0.1-0.2,0.3-0.2c0.3-0.1,0.5,0,0.6,0.1c0.1,0.1,0.4,0.2,0.7,0.2l-0.5-0.6
			c-0.8,0.1-1.6,0-1.9-0.3c-0.2-0.3,0.1-0.6,0.8-0.8l-0.1-0.1c-0.1-0.1,0.1-0.2,0.3-0.2c0.2-0.1,0.5,0,0.6,0.1l0.1,0.1
			c0.9-0.1,1.6,0,1.9,0.3c0.1,0.1-0.1,0.2-0.3,0.2c-0.2,0.1-0.5,0-0.6-0.1c-0.1-0.1-0.4-0.2-0.7-0.2l0.5,0.6
			C16.3,9.6,17.1,9.7,17.4,10z M14.5,9.8l-0.5-0.5c-0.2,0.1-0.3,0.2-0.2,0.3S14.2,9.8,14.5,9.8z M16.5,10.2
			c-0.1-0.1-0.4-0.2-0.7-0.2l0.5,0.5C16.5,10.4,16.6,10.3,16.5,10.2z"/>
	</g>
</g>
</svg>
