<?xml version="1.0" encoding="utf-8"?>
<!-- Generator: Adobe Illustrator 24.3.0, SVG Export Plug-In . SVG Version: 6.00 Build 0)  -->
<svg version="1.1" id="Capa_1" xmlns="http://www.w3.org/2000/svg" xmlns:xlink="http://www.w3.org/1999/xlink" x="0px" y="0px"
	 viewBox="0 0 30 30" style="enable-background:new 0 0 30 30;" xml:space="preserve">
<style type="text/css">
	.st0{fill:#006dd9;}
</style>
<g>
	<path class="st0" d="M21,24.8H9c-1.5,0-2.7-1.2-2.7-2.6l0-6.6c-0.4-0.5-0.6-1.1-0.6-1.8v-1.6c0-0.3,0.1-0.6,0.2-0.8l2.9-5
		C9.2,5.7,9.5,5.6,10,5.6H20c0.4,0,0.8,0.1,1.1,0.6c0,0,0,0,0,0l2.9,5c0.2,0.4,0.2,0.6,0.2,1v1.5c0,0.6-0.2,1.3-0.6,1.8l0,6.6
		C23.7,23.6,22.5,24.8,21,24.8z M10,6.3c-0.3,0-0.4,0-0.5,0.3l-2.9,5c-0.1,0.2-0.1,0.3-0.1,0.5v1.6c0,0.5,0.2,1,0.5,1.4
		c0,0.1,0.1,0.1,0.1,0.2l0,6.7c0,1.1,0.9,2,2.1,2H21c1.1,0,2.1-0.9,2.1-2l0-6.7c0-0.1,0-0.1,0.1-0.2c0.3-0.4,0.5-0.9,0.5-1.4v-1.5
		c0-0.3,0-0.4-0.2-0.7l-2.9-5c-0.1-0.2-0.2-0.3-0.5-0.3H10z"/>
	<path class="st0" d="M23.2,15.7H6.5c-0.2,0-0.3-0.1-0.3-0.3S6.3,15,6.5,15h16.7c0.2,0,0.3,0.1,0.3,0.3S23.4,15.7,23.2,15.7z"/>
	<path class="st0" d="M21.6,11.9H7.8c-0.2,0-0.3-0.1-0.3-0.3c0-0.2,0.1-0.3,0.3-0.3h13.7c0.2,0,0.3,0.1,0.3,0.3
		C21.9,11.7,21.7,11.9,21.6,11.9z"/>
	<path class="st0" d="M15.1,24.7h-4.5c-0.2,0-0.3-0.1-0.3-0.3V18c0-0.2,0.1-0.3,0.3-0.3h4.5c0.2,0,0.3,0.1,0.3,0.3v6.3
		C15.4,24.6,15.2,24.7,15.1,24.7z M10.9,24.1h3.9v-5.7h-3.9V24.1z"/>
	<path class="st0" d="M20.5,21.7h-3.5c-0.2,0-0.3-0.1-0.3-0.3v-3.5c0-0.2,0.1-0.3,0.3-0.3h3.5c0.2,0,0.3,0.1,0.3,0.3v3.5
		C20.9,21.6,20.7,21.7,20.5,21.7z M17.4,21h2.8v-2.8h-2.8V21z"/>
</g>
</svg>
