<?xml version="1.0" encoding="utf-8"?>
<!-- Generator: Adobe Illustrator 24.3.0, SVG Export Plug-In . SVG Version: 6.00 Build 0)  -->
<svg version="1.1" id="Capa_1" xmlns="http://www.w3.org/2000/svg" xmlns:xlink="http://www.w3.org/1999/xlink" x="0px" y="0px"
	 viewBox="0 0 30 30" style="enable-background:new 0 0 30 30;" xml:space="preserve">
<style type="text/css">
	.st0{fill:#006dd9;}
</style>
<path class="st0" d="M8,14.4c-0.9,0-1.6-0.7-1.6-1.6c0-0.9,0.7-1.6,1.6-1.6s1.6,0.7,1.6,1.6C9.5,13.7,8.8,14.4,8,14.4z M8,11.7
	c-0.6,0-1.1,0.5-1.1,1.1c0,0.6,0.5,1.1,1.1,1.1S9,13.4,9,12.8C9,12.2,8.5,11.7,8,11.7z"/>
<path class="st0" d="M12.4,14.4c-0.9,0-1.6-0.7-1.6-1.6c0-0.9,0.7-1.6,1.6-1.6c0.9,0,1.6,0.7,1.6,1.6C13.9,13.7,13.2,14.4,12.4,14.4
	z M12.4,11.7c-0.6,0-1.1,0.5-1.1,1.1c0,0.6,0.5,1.1,1.1,1.1s1.1-0.5,1.1-1.1C13.4,12.2,12.9,11.7,12.4,11.7z"/>
<path class="st0" d="M8,18.8c-0.9,0-1.6-0.7-1.6-1.6c0-0.9,0.7-1.6,1.6-1.6s1.6,0.7,1.6,1.6C9.5,18.1,8.8,18.8,8,18.8z M8,16.1
	c-0.6,0-1.1,0.5-1.1,1.1c0,0.6,0.5,1.1,1.1,1.1S9,17.8,9,17.2C9,16.6,8.5,16.1,8,16.1z"/>
<g>
	<circle class="st0" cx="12.4" cy="17.2" r="1.3"/>
	<path class="st0" d="M12.4,18.8c-0.9,0-1.6-0.7-1.6-1.6c0-0.9,0.7-1.6,1.6-1.6c0.9,0,1.6,0.7,1.6,1.6
		C13.9,18.1,13.2,18.8,12.4,18.8z M12.4,16.1c-0.6,0-1.1,0.5-1.1,1.1c0,0.6,0.5,1.1,1.1,1.1s1.1-0.5,1.1-1.1
		C13.4,16.6,12.9,16.1,12.4,16.1z"/>
</g>
<g>
	<path class="st0" d="M16.6,13.3c0.2,0,0.6-0.1,0.9-0.1c0.5,0,0.8,0.1,1,0.2c0.2,0.1,0.3,0.4,0.3,0.7c0,0.4-0.3,0.7-0.6,0.8v0
		c0.2,0.1,0.3,0.3,0.4,0.6c0.1,0.4,0.2,0.8,0.3,0.9h-0.7c-0.1-0.1-0.1-0.3-0.2-0.7c-0.1-0.4-0.2-0.5-0.5-0.5h-0.2v1.2h-0.7V13.3z
		 M17.3,14.6h0.3c0.4,0,0.6-0.2,0.6-0.4c0-0.3-0.2-0.4-0.5-0.4c-0.2,0-0.3,0-0.3,0V14.6z"/>
	<path class="st0" d="M19.3,13.2h1.9v0.6H20v0.7h1.1v0.6H20v1.3h-0.7V13.2z"/>
	<path class="st0" d="M24,16.3c-0.1,0.1-0.4,0.1-0.8,0.1c-1.1,0-1.6-0.7-1.6-1.6c0-1.1,0.8-1.7,1.7-1.7c0.4,0,0.6,0.1,0.8,0.1
		l-0.1,0.6c-0.1-0.1-0.3-0.1-0.6-0.1c-0.6,0-1,0.3-1,1c0,0.6,0.4,1,1,1c0.2,0,0.4,0,0.6-0.1L24,16.3z"/>
</g>
<path class="st0" d="M24.1,20.5H5.6c-0.9,0-1.7-0.7-1.7-1.7v-8c0-0.9,0.7-1.7,1.7-1.7h18.5c0.9,0,1.7,0.7,1.7,1.7v8
	C25.8,19.8,25.1,20.5,24.1,20.5z M5.6,9.7c-0.6,0-1.1,0.5-1.1,1.1v8C4.5,19.5,5,20,5.6,20h18.5c0.6,0,1.1-0.5,1.1-1.1v-8
	c0-0.6-0.5-1.1-1.1-1.1H5.6z"/>
</svg>
