<?xml version="1.0" encoding="utf-8"?>
<!-- Generator: Adobe Illustrator 24.3.0, SVG Export Plug-In . SVG Version: 6.00 Build 0)  -->
<svg version="1.1" id="Capa_1" xmlns="http://www.w3.org/2000/svg" xmlns:xlink="http://www.w3.org/1999/xlink" x="0px" y="0px"
	 viewBox="0 0 30 30" style="enable-background:new 0 0 30 30;" xml:space="preserve">
<style type="text/css">
	.st0{fill:#006dd9;}
</style>
<g>
	<path class="st0" d="M21.3,22.3H20c-0.1,0-0.3-0.1-0.3-0.3v-5.5l-4.4-4.4c0,0-0.1,0-0.1,0l-4.4,4.4V22c0,0.1-0.1,0.3-0.3,0.3H9.3
		C9.1,22.3,9,22.2,9,22v-5.5l-4.6-4.6c-0.1-0.1-0.1-0.1-0.1-0.2V9.9c0-0.1,0.1-0.2,0.2-0.3c0.1,0,0.2,0,0.3,0.1l5.2,5.2l4.9-4.9
		c0.2-0.2,0.6-0.2,0.8,0l4.9,4.9l5.2-5.2c0.1-0.1,0.2-0.1,0.3-0.1c0.1,0,0.2,0.1,0.2,0.3v1.8c0,0.1,0,0.1-0.1,0.2l-4.6,4.6V22
		C21.5,22.2,21.4,22.3,21.3,22.3z M20.3,21.7H21v-5.3c0-0.1,0-0.1,0.1-0.2l4.6-4.6v-1l-4.9,4.9c-0.1,0.1-0.3,0.1-0.4,0l-5.1-5.1
		l-5.2,5.1c-0.1,0.1-0.3,0.1-0.4,0l-4.9-4.9v1l4.6,4.6c0.1,0.1,0.1,0.1,0.1,0.2v5.3h0.7v-5.3c0-0.1,0-0.1,0.1-0.2l4.5-4.5
		c0.2-0.2,0.6-0.2,0.9,0l4.5,4.5c0.1,0.1,0.1,0.1,0.1,0.2V21.7z M20.6,13.4c-1,0-1.8-0.8-1.8-1.8s0.8-1.8,1.8-1.8
		c1,0,1.8,0.8,1.8,1.8S21.5,13.4,20.6,13.4z M20.6,10.5c-0.7,0-1.2,0.5-1.2,1.2c0,0.7,0.5,1.2,1.2,1.2c0.7,0,1.2-0.5,1.2-1.2
		C21.8,11,21.2,10.5,20.6,10.5z M9.9,13.4c-1,0-1.8-0.8-1.8-1.8S9,9.9,9.9,9.9s1.8,0.8,1.8,1.8S10.9,13.4,9.9,13.4z M9.9,10.5
		c-0.7,0-1.2,0.5-1.2,1.2c0,0.7,0.5,1.2,1.2,1.2c0.7,0,1.2-0.5,1.2-1.2C11.1,11,10.6,10.5,9.9,10.5z"/>
</g>
</svg>
