<?xml version="1.0" encoding="utf-8"?>
<!-- Generator: Adobe Illustrator 24.3.0, SVG Export Plug-In . SVG Version: 6.00 Build 0)  -->
<svg version="1.1" id="Capa_1" xmlns="http://www.w3.org/2000/svg" xmlns:xlink="http://www.w3.org/1999/xlink" x="0px" y="0px"
	 viewBox="0 0 30 30" style="enable-background:new 0 0 30 30;" xml:space="preserve">
<style type="text/css">
	.st0{fill:#006dd9;}
</style>
<g>
	<g>
		<path class="st0" d="M18.2,9.3v6.2c0,0.4-0.3,0.7-0.7,0.7c-0.4,0-0.7-0.3-0.7-0.7V9.3c0-0.4,0.3-0.7,0.7-0.7
			C17.9,8.6,18.2,8.9,18.2,9.3z M18,17.1c0.1,0.1,0.2,0.3,0.2,0.5c0,0.2-0.1,0.4-0.2,0.5c-0.1,0.1-0.3,0.2-0.5,0.2s-0.4-0.1-0.5-0.2
			c-0.1-0.1-0.2-0.3-0.2-0.5c0-0.2,0.1-0.4,0.2-0.5c0.1-0.1,0.3-0.2,0.5-0.2S17.9,17,18,17.1z"/>
	</g>
</g>
<g>
	<path class="st0" d="M8.8,18.7c-1.2,0-2.4-0.6-3-1.7c-0.3-0.5-0.5-1.2-0.5-1.8c0-1.9,1.6-3.5,3.5-3.5s3.5,1.6,3.5,3.5
		c0,0.6-0.2,1.3-0.5,1.8C11.2,18.1,10.1,18.7,8.8,18.7z M8.8,12.3c-1.6,0-2.9,1.3-2.9,2.9c0,0.5,0.1,1,0.4,1.5
		c0.5,0.9,1.4,1.4,2.4,1.4s1.9-0.5,2.5-1.4c0.3-0.4,0.4-1,0.4-1.5C11.7,13.6,10.4,12.3,8.8,12.3z"/>
	<path class="st0" d="M14,25.7H3.7c-0.1,0-0.2,0-0.2-0.1s-0.1-0.2-0.1-0.3c0.4-3.5,2.7-6,5.5-6c2.7,0,5,2.5,5.5,6
		c0,0.1,0,0.2-0.1,0.3S14.1,25.7,14,25.7z M4.1,25h9.5c-0.5-2.9-2.5-5-4.8-5S4.6,22.1,4.1,25z"/>
</g>
<path class="st0" d="M17.8,22.5c-1.4,0-2.8-0.3-4.1-1c-0.2-0.1-0.2-0.3-0.1-0.4c0.1-0.2,0.3-0.2,0.4-0.1c1.2,0.6,2.4,0.9,3.8,0.9
	c4.6,0,8.3-3.7,8.3-8.3c0-4.6-3.7-8.3-8.3-8.3c-3.4,0-6.5,2.1-7.7,5.2c-0.1,0.2-0.3,0.2-0.4,0.2c-0.2-0.1-0.3-0.3-0.2-0.4
	c1.4-3.4,4.6-5.6,8.3-5.6c5,0,9,4,9,9C26.7,18.4,22.7,22.5,17.8,22.5z"/>
</svg>
