<?xml version="1.0" encoding="utf-8"?>
<!-- Generator: Adobe Illustrator 24.3.0, SVG Export Plug-In . SVG Version: 6.00 Build 0)  -->
<svg version="1.1" id="Capa_1" xmlns="http://www.w3.org/2000/svg" xmlns:xlink="http://www.w3.org/1999/xlink" x="0px" y="0px"
	 viewBox="0 0 30 30" style="enable-background:new 0 0 30 30;" xml:space="preserve">
<style type="text/css">
	.st0{fill:#006dd9;}
</style>
<g>
	<path class="st0" d="M15,21c-0.1,0-0.2,0-0.3-0.1c-0.9-1.1-5.3-6.5-5.3-10.1c0-3.1,2.5-5.6,5.6-5.6s5.6,2.5,5.6,5.6
		c0,3.6-4.5,9.1-5.3,10.1C15.2,21,15.1,21,15,21z M15,5.9c-2.7,0-4.9,2.2-4.9,4.9c0,2.5,2.6,6.6,4.9,9.4c2.3-2.8,4.9-6.9,4.9-9.4
		C19.9,8.1,17.7,5.9,15,5.9z"/>
	<path class="st0" d="M15,12.6c-1,0-1.8-0.8-1.8-1.8S14,9,15,9s1.8,0.8,1.8,1.8S16,12.6,15,12.6z M15,9.6c-0.6,0-1.2,0.5-1.2,1.2
		c0,0.6,0.5,1.2,1.2,1.2c0.6,0,1.2-0.5,1.2-1.2C16.2,10.2,15.6,9.6,15,9.6z"/>
	<path class="st0" d="M15,24.1c-2.8,0-4.8-1-4.8-2.3c0-0.4,0.2-1,1.1-1.5c0.2-0.1,0.4,0,0.5,0.1c0.1,0.2,0,0.4-0.1,0.5
		c-0.5,0.3-0.8,0.6-0.8,0.9c0,0.8,1.7,1.7,4.2,1.7c2.5,0,4.2-0.9,4.2-1.7c0-0.3-0.3-0.7-0.8-1c-0.2-0.1-0.2-0.3-0.1-0.5
		c0.1-0.2,0.3-0.2,0.5-0.1c1,0.5,1.2,1.1,1.2,1.5C19.8,23.1,17.8,24.1,15,24.1z"/>
</g>
</svg>
