<?xml version="1.0" encoding="utf-8"?>
<!-- Generator: Adobe Illustrator 24.3.0, SVG Export Plug-In . SVG Version: 6.00 Build 0)  -->
<svg version="1.1" id="Capa_1" xmlns="http://www.w3.org/2000/svg" xmlns:xlink="http://www.w3.org/1999/xlink" x="0px" y="0px"
	 viewBox="0 0 30 30" style="enable-background:new 0 0 30 30;" xml:space="preserve">
<style type="text/css">
	.st0{fill:#006dd9;}
</style>
<g>
	<path class="st0" d="M10.8,26.3c-0.3,0-0.6,0-0.8,0c-0.8-0.1-1.4-0.6-1.7-1.3c0-0.1-0.1-0.5-0.1-4.9l0-0.6v-6.7
		c0-0.5,0-0.9,0.1-1.4c0.1-0.5,0.4-1,0.7-1.4c0.4-0.5,0.9-0.9,1.5-1.1c0.1,0,0.2-0.1,0.3-0.2c-0.1,0-0.2-0.1-0.2-0.2
		c-0.2-0.2-0.2-0.6-0.2-1.3l0-0.1l0-0.5c0-0.6,0-1.2,0.1-1.7c0-0.3,0.3-0.5,0.5-0.5c0.2,0,0.7-0.1,2.9-0.1c0.7,0,1.5,0,2,0l0.4,0
		l0.8,0c0.5,0,0.8,0,1.1,0.1c0.1,0,0.3,0.1,0.4,0.2c0.3,0.3,0.2,0.7,0.2,0.9l0,0.1l0,1.5c0,0.4,0,0.9-0.1,1.2
		c-0.1,0.1-0.1,0.2-0.3,0.3c-0.1,0-0.1,0.1-0.2,0.1c0.1,0.1,0.2,0.1,0.3,0.1c0.2,0.1,0.4,0.2,0.6,0.3c0.7,0.5,1.3,1.1,1.5,1.9
		c0.2,0.6,0.2,1.3,0.2,2.1l0,10.3c0,0,0,0,0,0l-0.3,0l0.3,0c0,0.6,0,1.2-0.2,1.6c-0.3,0.6-0.9,1-1.6,1.1c-0.4,0-1,0-1.5,0
		c-0.2,0-0.5,0-0.7,0h-4.4c-0.3,0-0.5,0-0.8,0C11.3,26.3,11.1,26.3,10.8,26.3z M14,5c-1.6,0-2.6,0-2.8,0.1c0,0.4,0,1,0,1.6l0,0.5
		l0,0.1c0,0.5,0,0.8,0.1,0.8c0.1,0,0.3,0,0.4,0c0.1,0,0.2,0.1,0.3,0.2C12,8.4,12,8.5,12,8.6c-0.2,0.4-0.6,0.7-1.1,0.9
		C10.4,9.7,10,10,9.7,10.4c-0.3,0.3-0.5,0.7-0.6,1.1C9,11.9,9,12.3,9,12.7v6.7c0,0.1,0,0.3,0,0.6c-0.1,4,0,4.6,0.1,4.7
		c0.1,0.4,0.6,0.8,1.1,0.8c0.4,0,0.9,0,1.4,0c0.3,0,0.6,0,0.9,0h4.4c0.2,0,0.5,0,0.7,0c0.5,0,1.1,0,1.5,0c0.4,0,0.8-0.3,1-0.7
		c0.1-0.3,0.1-0.8,0.1-1.3l0.3,0l-0.3,0l0-0.3l0-10c0-0.7,0-1.4-0.2-1.9c-0.2-0.7-0.7-1.2-1.3-1.6c-0.1-0.1-0.3-0.2-0.5-0.2
		c-0.2-0.1-0.5-0.2-0.7-0.3c-0.2-0.1-0.3-0.3-0.4-0.5c-0.1-0.1-0.1-0.2,0-0.3c0.1-0.1,0.2-0.2,0.3-0.2l0.2,0c0.1,0,0.3,0,0.4-0.1
		c0-0.1,0.1-0.3,0-0.8l0-1.6c0,0,0-0.1,0-0.1c0-0.3,0-0.4-0.1-0.5C17.9,5,17.6,5,17.1,5l-0.8,0l-0.3,0C15.5,5,14.8,5,14,5z M10.5,22
		c-0.2,0-0.3-0.2-0.3-0.3l0-7.7c0-0.2,0.2-0.3,0.3-0.3H17c0.2,0,0.3,0.2,0.3,0.3v7.6c0,0.2-0.2,0.3-0.3,0.3L10.5,22z M17,21.7
		L17,21.7L17,21.7z M10.9,14.4l0,7l5.7,0v-7H10.9z"/>
	<path class="st0" d="M14.6,20.9h-1.7c-0.4,0-0.7-0.3-0.7-0.7v-0.9h-0.9c-0.4,0-0.7-0.3-0.7-0.7V17c0-0.4,0.3-0.7,0.7-0.7h0.9v-0.9
		c0-0.4,0.3-0.7,0.7-0.7h1.7c0.4,0,0.7,0.3,0.7,0.7v0.9h0.9c0.4,0,0.7,0.3,0.7,0.7v1.7c0,0.4-0.3,0.7-0.7,0.7h-0.9v0.9
		C15.2,20.6,14.9,20.9,14.6,20.9z M11.4,18.7h1.2c0.2,0,0.3,0.2,0.3,0.3v1.2l1.6,0l0-1.2c0-0.2,0.2-0.3,0.3-0.3h1.2l0-1.6l-1.2,0
		c-0.2,0-0.3-0.2-0.3-0.3v-1.2l-1.6,0l0,1.2c0,0.2-0.2,0.3-0.3,0.3h-1.2L11.4,18.7z M11.4,18.7L11.4,18.7L11.4,18.7z"/>
	<path class="st0" d="M17.7,8.8h-6c-0.2,0-0.3-0.2-0.3-0.3s0.2-0.3,0.3-0.3h6c0.2,0,0.3,0.2,0.3,0.3S17.8,8.8,17.7,8.8z"/>
	<path class="st0" d="M20.4,12.4H8.7c-0.2,0-0.3-0.2-0.3-0.3s0.2-0.3,0.3-0.3h11.7c0.2,0,0.3,0.2,0.3,0.3S20.6,12.4,20.4,12.4z"/>
	<path class="st0" d="M12.1,8.7c-0.2,0-0.3-0.2-0.3-0.3V4.9c0-0.2,0.2-0.3,0.3-0.3s0.3,0.2,0.3,0.3v3.4C12.4,8.5,12.2,8.7,12.1,8.7z
		"/>
	<path class="st0" d="M14,8.6c-0.2,0-0.3-0.2-0.3-0.3V4.7c0-0.2,0.2-0.3,0.3-0.3s0.3,0.2,0.3,0.3v3.6C14.4,8.4,14.2,8.6,14,8.6z"/>
</g>
</svg>
