<?xml version="1.0" encoding="utf-8"?>
<!-- Generator: Adobe Illustrator 24.3.0, SVG Export Plug-In . SVG Version: 6.00 Build 0)  -->
<svg version="1.1" id="Capa_1" xmlns="http://www.w3.org/2000/svg" xmlns:xlink="http://www.w3.org/1999/xlink" x="0px" y="0px"
	 viewBox="0 0 30 30" style="enable-background:new 0 0 30 30;" xml:space="preserve">
<style type="text/css">
	.st0{fill:#006dd9;}
</style>
<g>
	<path class="st0" d="M14.8,25.4c-1.4,0-2.7-0.5-3.7-1.5L5.3,18c-1-1-1.5-2.3-1.5-3.7c0-1.4,0.5-2.7,1.5-3.7c0.7-0.7,1.8-0.7,2.5,0
		l1.9,1.9c0.3,0.3,0.5,0.8,0.5,1.2s-0.2,0.9-0.5,1.2L9,15.8l4.4,4.4l0.7-0.7c0.7-0.7,1.8-0.7,2.5,0l1.9,1.9c0.3,0.3,0.5,0.8,0.5,1.2
		c0,0.5-0.2,0.9-0.5,1.2C17.5,24.9,16.2,25.4,14.8,25.4z M6.5,10.9c-0.3,0-0.6,0.1-0.8,0.3c-1.8,1.8-1.8,4.6,0,6.4l5.9,5.9
		c0.9,0.9,2,1.3,3.2,1.3c1.2,0,2.3-0.5,3.2-1.3c0.2-0.2,0.3-0.5,0.3-0.8c0-0.3-0.1-0.6-0.3-0.8L16.1,20c-0.4-0.4-1.1-0.4-1.5,0
		l-0.9,0.9c-0.1,0.1-0.3,0.1-0.5,0l-4.8-4.8c-0.1-0.1-0.1-0.3,0-0.5l0.9-0.9c0.2-0.2,0.3-0.5,0.3-0.8s-0.1-0.6-0.3-0.8l-1.9-1.9
		C7.1,11,6.8,10.9,6.5,10.9z"/>
	<g>
		<g>
			<path class="st0" d="M17.1,8.3v6.2c0,0.4-0.3,0.7-0.7,0.7c-0.4,0-0.7-0.3-0.7-0.7V8.3c0-0.4,0.3-0.7,0.7-0.7
				C16.8,7.6,17.1,7.9,17.1,8.3z M16.9,16.2c0.1,0.1,0.2,0.3,0.2,0.5c0,0.2-0.1,0.4-0.2,0.5c-0.1,0.1-0.3,0.2-0.5,0.2
				c-0.2,0-0.4-0.1-0.5-0.2c-0.1-0.1-0.2-0.3-0.2-0.5c0-0.2,0.1-0.4,0.2-0.5c0.1-0.1,0.3-0.2,0.5-0.2C16.6,16,16.8,16.1,16.9,16.2z"
				/>
		</g>
	</g>
	<path class="st0" d="M19.9,22c-0.1,0-0.3-0.1-0.3-0.2c-0.1-0.2,0-0.4,0.2-0.4c3.2-1.3,5.2-4.4,5.2-7.9C25,8.8,21.2,5,16.5,5
		c-3.3,0-6.4,1.9-7.7,5c-0.1,0.2-0.3,0.2-0.4,0.2C8.1,10,8,9.8,8.1,9.7c1.5-3.2,4.8-5.3,8.4-5.3c5.1,0,9.2,4.1,9.2,9.2
		c0,3.7-2.2,7-5.6,8.5C20,22,20,22,19.9,22z"/>
</g>
</svg>
