<?xml version="1.0" encoding="utf-8"?>
<!-- Generator: Adobe Illustrator 24.3.0, SVG Export Plug-In . SVG Version: 6.00 Build 0)  -->
<svg version="1.1" id="Capa_1" xmlns="http://www.w3.org/2000/svg" xmlns:xlink="http://www.w3.org/1999/xlink" x="0px" y="0px"
	 viewBox="0 0 30 30" style="enable-background:new 0 0 30 30;" xml:space="preserve">
<style type="text/css">
	.st0{fill:#006dd9;}
</style>
<g>
	<g>
		<path class="st0" d="M6.4,16.6c-0.8,0-1.6-0.4-2-1.1C4.1,15.1,4,14.7,4,14.2c0-1.3,1.1-2.4,2.4-2.4s2.4,1.1,2.4,2.4
			c0,0.4-0.1,0.9-0.3,1.2C8,16.2,7.2,16.6,6.4,16.6z M6.4,12.4c-1,0-1.9,0.8-1.9,1.9c0,0.3,0.1,0.7,0.3,1c0.3,0.6,0.9,0.9,1.6,0.9
			c0.7,0,1.3-0.3,1.6-0.9c0.2-0.3,0.3-0.6,0.3-1C8.3,13.2,7.4,12.4,6.4,12.4z"/>
		<path class="st0" d="M9.8,21.2H3c-0.1,0-0.1,0-0.2-0.1S2.7,21,2.7,20.9c0.3-2.3,1.8-4,3.7-4c1.8,0,3.4,1.7,3.7,4
			c0,0.1,0,0.1-0.1,0.2C9.9,21.2,9.9,21.2,9.8,21.2z M3.2,20.7h6.3c-0.3-1.9-1.6-3.3-3.1-3.3C4.9,17.4,3.6,18.8,3.2,20.7z"/>
	</g>
	<path class="st0" d="M25.6,10.9H7.9c-0.1,0-0.2-0.1-0.2-0.2s0.1-0.2,0.2-0.2h17.7c0.1,0,0.2,0.1,0.2,0.2S25.7,10.9,25.6,10.9z"/>
	<path class="st0" d="M10.5,9C10.5,9,10.5,9,10.5,9C9.7,8.8,9.2,8.1,9.3,7.3c0.1-0.8,0.9-1.3,1.7-1.1c0.4,0.1,0.7,0.3,0.9,0.6
		c0.2,0.3,0.3,0.7,0.2,1C12.1,8,12,8.1,11.8,8c-0.1,0-0.2-0.2-0.2-0.3c0-0.2,0-0.5-0.1-0.7c-0.1-0.2-0.3-0.3-0.6-0.4
		c-0.5-0.1-1,0.2-1.1,0.7c-0.1,0.5,0.2,1,0.7,1.1c0.1,0,0.2,0.2,0.2,0.3C10.7,8.9,10.6,9,10.5,9z"/>
	<path class="st0" d="M14.4,9C14.3,9,14.3,9,14.4,9c-0.4-0.1-0.7-0.3-1-0.6c-0.2-0.3-0.3-0.7-0.2-1.1c0.1-0.4,0.3-0.7,0.6-0.9
		c0.3-0.2,0.7-0.3,1.1-0.2c0.4,0.1,0.7,0.3,0.9,0.6C16,7.1,16,7.5,16,7.8c0,0.1-0.1,0.2-0.3,0.2c-0.1,0-0.2-0.2-0.2-0.3
		c0-0.2,0-0.5-0.1-0.7c-0.1-0.2-0.4-0.3-0.6-0.4c-0.2,0-0.5,0-0.7,0.1c-0.2,0.1-0.3,0.3-0.4,0.6c0,0.2,0,0.5,0.1,0.7
		c0.1,0.2,0.3,0.3,0.6,0.4c0.1,0,0.2,0.2,0.2,0.3C14.6,8.9,14.5,9,14.4,9z"/>
	<path class="st0" d="M18.2,9C18.2,9,18.2,9,18.2,9c-0.8-0.1-1.3-0.9-1.2-1.7c0.1-0.8,0.9-1.3,1.7-1.1c0.4,0.1,0.7,0.3,0.9,0.6
		c0.2,0.3,0.3,0.7,0.2,1c0,0.1-0.1,0.2-0.3,0.2c-0.1,0-0.2-0.2-0.2-0.3c0.1-0.5-0.2-0.9-0.7-1c-0.5-0.1-1,0.2-1.1,0.7s0.2,1,0.7,1.1
		c0.1,0,0.2,0.2,0.2,0.3C18.4,8.9,18.3,9,18.2,9z"/>
	<path class="st0" d="M22,9C22,9,22,9,22,9c-0.4-0.1-0.7-0.3-1-0.6c-0.2-0.3-0.3-0.7-0.2-1.1c0.1-0.4,0.3-0.7,0.6-0.9
		c0.3-0.2,0.7-0.3,1.1-0.2c0.4,0.1,0.7,0.3,0.9,0.6c0.2,0.3,0.3,0.7,0.2,1c0,0.1-0.1,0.2-0.3,0.2c-0.1,0-0.2-0.2-0.2-0.3
		c0-0.2,0-0.5-0.1-0.7c-0.1-0.2-0.3-0.3-0.6-0.4c-0.2,0-0.5,0-0.7,0.1c-0.2,0.1-0.3,0.3-0.4,0.6c-0.1,0.5,0.2,1,0.7,1.1
		c0.1,0,0.2,0.2,0.2,0.3C22.3,8.9,22.2,9,22,9z"/>
	<path class="st0" d="M23.9,24H9.5c-1.1,0-1.9-0.9-1.9-1.9c0-0.1,0.1-0.2,0.2-0.2S8,22,8,22.1c0,0.8,0.6,1.4,1.4,1.4h14.5
		c0.8,0,1.4-0.6,1.4-1.4V9.6c0-0.8-0.6-1.4-1.4-1.4H9.5C8.7,8.2,8,8.8,8,9.6v1.6c0,0.1-0.1,0.2-0.3,0.2s-0.2-0.1-0.2-0.2V9.6
		c0-1.1,0.9-1.9,1.9-1.9h14.5c1.1,0,1.9,0.9,1.9,1.9v12.5C25.9,23.2,25,24,23.9,24z"/>
	<g>
		<g>
			<path class="st0" d="M14.3,20.3c-0.2,0-0.5-0.1-0.6-0.3s-0.3-0.4-0.3-0.6c0-0.2,0.1-0.5,0.3-0.6l1.5-1.5H9.7
				c-0.1,0-0.2-0.1-0.2-0.2s0.1-0.2,0.2-0.2h6.1c0.1,0,0.2,0.1,0.2,0.2c0,0.1,0,0.2-0.1,0.3L14,19.1c-0.1,0.1-0.1,0.2-0.1,0.3
				c0,0.1,0,0.2,0.1,0.3c0.1,0.1,0.4,0.1,0.6,0l3-3l0-0.1c0,0,0-0.1,0-0.1c0,0,0-0.1,0-0.1c0-0.1,0-0.1,0-0.1c0,0,0-0.1,0-0.1
				c0,0,0-0.1,0-0.1c0,0,0-0.1,0-0.1l-3.1-3.1C14.5,13,14.4,13,14.3,13c0,0,0,0,0,0c-0.1,0-0.2,0-0.3,0.1c-0.2,0.2-0.2,0.4,0,0.6
				l1.9,1.9c0.1,0.1,0.1,0.2,0.1,0.3c0,0.1-0.1,0.2-0.2,0.2l-6.1,0c0,0,0,0,0,0c-0.1,0-0.2-0.1-0.2-0.2c0-0.1,0.1-0.3,0.2-0.3l5.5,0
				L13.7,14c-0.3-0.3-0.3-0.9,0-1.3c0.2-0.2,0.4-0.3,0.6-0.3c0,0,0,0,0,0c0.2,0,0.5,0.1,0.6,0.3l3,3c0,0,0,0,0.1,0.1
				c0,0,0,0.1,0,0.1c0,0,0,0.1,0.1,0.1c0,0,0,0.1,0,0.1c0,0,0,0.1,0,0.1l0,0.1c0,0,0,0.1,0,0.1c0,0.1,0,0.1,0,0.2c0,0,0,0.1,0,0.1
				c0,0,0,0.1,0,0.1c0,0,0,0.1,0,0.1c0,0,0,0.1,0,0.1c0,0,0,0.1,0,0.1c0,0-0.1,0.1-0.1,0.1l0,0.1l-3,3
				C14.8,20.2,14.5,20.3,14.3,20.3z"/>
		</g>
	</g>
</g>
</svg>
