<?xml version="1.0" encoding="utf-8"?>
<!-- Generator: Adobe Illustrator 24.0.0, SVG Export Plug-In . SVG Version: 6.00 Build 0)  -->
<svg version="1.1" id="Capa_1" xmlns="http://www.w3.org/2000/svg" xmlns:xlink="http://www.w3.org/1999/xlink" x="0px" y="0px"
	 viewBox="0 0 30 30" style="enable-background:new 0 0 30 30;" xml:space="preserve">
<style type="text/css">
	.st0{fill:#104A8E;}
	.st1{fill:#006dd9;}
</style>
<path class="st0" d="M28.8,8.3h-9.35c-0.19,0-0.35-0.16-0.35-0.35s0.16-0.35,0.35-0.35h9.35c0.19,0,0.35,0.16,0.35,0.35
	S28.99,8.3,28.8,8.3z"/>
<path class="st0" d="M28.8,13.85h-9.35c-0.19,0-0.35-0.16-0.35-0.35c0-0.19,0.16-0.35,0.35-0.35h9.35c0.19,0,0.35,0.16,0.35,0.35
	C29.15,13.7,28.99,13.85,28.8,13.85z"/>
<path class="st0" d="M28.8,19.4h-9.35c-0.19,0-0.35-0.16-0.35-0.35c0-0.19,0.16-0.35,0.35-0.35h9.35c0.19,0,0.35,0.16,0.35,0.35
	C29.15,19.25,28.99,19.4,28.8,19.4z"/>
<path class="st0" d="M28.8,24.95h-9.35c-0.19,0-0.35-0.16-0.35-0.35c0-0.19,0.16-0.35,0.35-0.35h9.35c0.19,0,0.35,0.16,0.35,0.35
	C29.15,24.8,28.99,24.95,28.8,24.95z"/>
<g>
	<path class="st1" d="M8.86,15.67c-1.75,0-3.35-0.89-4.26-2.39c-0.47-0.78-0.73-1.67-0.73-2.59c0-2.75,2.24-4.99,4.99-4.99
		s4.99,2.24,4.99,4.99c0,0.92-0.25,1.81-0.73,2.59C12.21,14.77,10.62,15.67,8.86,15.67z M8.86,6.39c-2.37,0-4.29,1.93-4.29,4.29
		c0,0.79,0.22,1.56,0.62,2.23c0.79,1.29,2.16,2.06,3.67,2.06c1.51,0,2.88-0.77,3.67-2.06c0.41-0.67,0.62-1.44,0.62-2.23
		C13.16,8.31,11.23,6.39,8.86,6.39z"/>
	<path class="st1" d="M16.33,25.75H1.39c-0.1,0-0.19-0.04-0.26-0.12c-0.07-0.07-0.1-0.17-0.08-0.27c0.63-4.97,3.92-8.58,7.81-8.58
		c3.89,0,7.18,3.61,7.82,8.58c0.01,0.1-0.02,0.2-0.08,0.27C16.53,25.7,16.44,25.75,16.33,25.75z M1.79,25.05h14.14
		c-0.7-4.42-3.63-7.58-7.07-7.58C5.42,17.47,2.5,20.64,1.79,25.05z"/>
</g>
</svg>
