<?xml version="1.0" encoding="utf-8"?>
<!-- Generator: Adobe Illustrator 24.3.0, SVG Export Plug-In . SVG Version: 6.00 Build 0)  -->
<svg version="1.1" id="Capa_1" xmlns="http://www.w3.org/2000/svg" xmlns:xlink="http://www.w3.org/1999/xlink" x="0px" y="0px"
	 viewBox="0 0 30 30" style="enable-background:new 0 0 30 30;" xml:space="preserve">
<style type="text/css">
	.st0{fill:#006dd9;}
</style>
<g>
	<g>
		<path class="st0" d="M8.9,7.3c-0.1,0-0.2,0-0.2-0.1c-0.1-0.1-0.1-0.3,0-0.4c1.8-1.4,4-2.2,6.3-2.2c2.3,0,4.5,0.8,6.2,2.2
			c0.1,0.1,0.1,0.3,0,0.4c-0.1,0.1-0.3,0.1-0.4,0c-1.7-1.3-3.7-2.1-5.9-2.1c-2.2,0-4.3,0.8-5.9,2.1C9,7.3,8.9,7.3,8.9,7.3z"/>
		<path class="st0" d="M21.2,7.6C21.2,7.6,21.2,7.6,21.2,7.6l-1.7-0.1c-0.1,0-0.3-0.1-0.3-0.3c0-0.1,0.1-0.3,0.3-0.3L20.9,7L21,5.8
			c0-0.1,0.1-0.3,0.3-0.3c0.1,0,0.3,0.1,0.3,0.3l-0.1,1.5C21.5,7.5,21.3,7.6,21.2,7.6z"/>
	</g>
	<g>
		<path class="st0" d="M15.7,25.2c-2.3,0-4.5-0.8-6.2-2.2c-0.1-0.1-0.1-0.3,0-0.4c0.1-0.1,0.3-0.1,0.4,0c1.7,1.3,3.7,2.1,5.9,2.1
			c2.2,0,4.3-0.8,5.9-2.1c0.1-0.1,0.3-0.1,0.4,0c0.1,0.1,0.1,0.3,0,0.4C20.2,24.4,18,25.2,15.7,25.2z"/>
		<path class="st0" d="M9.4,24.3C9.4,24.3,9.4,24.3,9.4,24.3c-0.2,0-0.3-0.1-0.3-0.3l0.1-1.5c0-0.1,0.1-0.3,0.3-0.3l1.6,0.1
			c0.1,0,0.3,0.1,0.3,0.3c0,0.1-0.1,0.3-0.3,0.3l-1.4-0.1l-0.1,1.3C9.6,24.2,9.5,24.3,9.4,24.3z"/>
	</g>
	<path class="st0" d="M19.3,18.8h-8.9c-1.3,0-2.4-1.1-2.4-2.4v-3.3c0-1.3,1.1-2.4,2.4-2.4h8.9c1.3,0,2.4,1.1,2.4,2.4v3.3
		C21.7,17.7,20.7,18.8,19.3,18.8z M10.4,11.2c-1,0-1.9,0.8-1.9,1.9v3.3c0,1,0.8,1.9,1.9,1.9h8.9c1,0,1.9-0.8,1.9-1.9v-3.3
		c0-1-0.8-1.9-1.9-1.9H10.4z"/>
	<path class="st0" d="M20,15.1h-6.1c-0.1,0-0.3-0.1-0.3-0.3s0.1-0.3,0.3-0.3H20c0.1,0,0.3,0.1,0.3,0.3S20.1,15.1,20,15.1z"/>
	<path class="st0" d="M12.4,16H9.6c-0.1,0-0.3-0.1-0.3-0.3v-2.1c0-0.1,0.1-0.3,0.3-0.3h2.8c0.1,0,0.3,0.1,0.3,0.3v2.1
		C12.6,15.9,12.5,16,12.4,16z M9.8,15.5h2.3v-1.5H9.8V15.5z"/>
</g>
</svg>
